<?xml version="1.0" encoding="utf-8"?>
<svg xmlns="http://www.w3.org/2000/svg" xmlns:xlink="http://www.w3.org/1999/xlink" width="600" height="400" viewBox="0 0 2400 1600">
<defs>
  <clipPath id="clip130">
    <rect x="0" y="0" width="2400" height="1600"/>
  </clipPath>
</defs>
<path clip-path="url(#clip130)" d="M0 1600 L2400 1600 L2400 0 L0 0  Z" fill="#ffffff" fill-rule="evenodd" fill-opacity="1"/>
<defs>
  <clipPath id="clip131">
    <rect x="480" y="0" width="1681" height="1600"/>
  </clipPath>
</defs>
<path clip-path="url(#clip130)" d="M193.936 686.448 L1153.25 686.448 L1153.25 123.472 L193.936 123.472  Z" fill="#ffffff" fill-rule="evenodd" fill-opacity="1"/>
<defs>
  <clipPath id="clip132">
    <rect x="193" y="123" width="960" height="564"/>
  </clipPath>
</defs>
<polyline clip-path="url(#clip132)" style="stroke:#000000; stroke-linecap:round; stroke-linejoin:round; stroke-width:2; stroke-opacity:0.1; fill:none" points="221.086,686.448 221.086,123.472 "/>
<polyline clip-path="url(#clip132)" style="stroke:#000000; stroke-linecap:round; stroke-linejoin:round; stroke-width:2; stroke-opacity:0.1; fill:none" points="447.341,686.448 447.341,123.472 "/>
<polyline clip-path="url(#clip132)" style="stroke:#000000; stroke-linecap:round; stroke-linejoin:round; stroke-width:2; stroke-opacity:0.1; fill:none" points="673.595,686.448 673.595,123.472 "/>
<polyline clip-path="url(#clip132)" style="stroke:#000000; stroke-linecap:round; stroke-linejoin:round; stroke-width:2; stroke-opacity:0.1; fill:none" points="899.849,686.448 899.849,123.472 "/>
<polyline clip-path="url(#clip132)" style="stroke:#000000; stroke-linecap:round; stroke-linejoin:round; stroke-width:2; stroke-opacity:0.1; fill:none" points="1126.1,686.448 1126.1,123.472 "/>
<polyline clip-path="url(#clip130)" style="stroke:#000000; stroke-linecap:round; stroke-linejoin:round; stroke-width:4; stroke-opacity:1; fill:none" points="193.936,686.448 1153.25,686.448 "/>
<polyline clip-path="url(#clip130)" style="stroke:#000000; stroke-linecap:round; stroke-linejoin:round; stroke-width:4; stroke-opacity:1; fill:none" points="221.086,686.448 221.086,667.55 "/>
<polyline clip-path="url(#clip130)" style="stroke:#000000; stroke-linecap:round; stroke-linejoin:round; stroke-width:4; stroke-opacity:1; fill:none" points="447.341,686.448 447.341,667.55 "/>
<polyline clip-path="url(#clip130)" style="stroke:#000000; stroke-linecap:round; stroke-linejoin:round; stroke-width:4; stroke-opacity:1; fill:none" points="673.595,686.448 673.595,667.55 "/>
<polyline clip-path="url(#clip130)" style="stroke:#000000; stroke-linecap:round; stroke-linejoin:round; stroke-width:4; stroke-opacity:1; fill:none" points="899.849,686.448 899.849,667.55 "/>
<polyline clip-path="url(#clip130)" style="stroke:#000000; stroke-linecap:round; stroke-linejoin:round; stroke-width:4; stroke-opacity:1; fill:none" points="1126.1,686.448 1126.1,667.55 "/>
<path clip-path="url(#clip130)" d="M167.615 732.019 L197.29 732.019 L197.29 735.954 L167.615 735.954 L167.615 732.019 Z" fill="#000000" fill-rule="nonzero" fill-opacity="1" /><path clip-path="url(#clip130)" d="M208.193 744.913 L215.832 744.913 L215.832 718.547 L207.522 720.214 L207.522 715.955 L215.786 714.288 L220.461 714.288 L220.461 744.913 L228.1 744.913 L228.1 748.848 L208.193 748.848 L208.193 744.913 Z" fill="#000000" fill-rule="nonzero" fill-opacity="1" /><path clip-path="url(#clip130)" d="M237.545 742.968 L242.429 742.968 L242.429 748.848 L237.545 748.848 L237.545 742.968 Z" fill="#000000" fill-rule="nonzero" fill-opacity="1" /><path clip-path="url(#clip130)" d="M262.614 717.367 Q259.003 717.367 257.174 720.931 Q255.369 724.473 255.369 731.603 Q255.369 738.709 257.174 742.274 Q259.003 745.815 262.614 745.815 Q266.248 745.815 268.054 742.274 Q269.883 738.709 269.883 731.603 Q269.883 724.473 268.054 720.931 Q266.248 717.367 262.614 717.367 M262.614 713.663 Q268.424 713.663 271.48 718.269 Q274.558 722.853 274.558 731.603 Q274.558 740.329 271.48 744.936 Q268.424 749.519 262.614 749.519 Q256.804 749.519 253.725 744.936 Q250.67 740.329 250.67 731.603 Q250.67 722.853 253.725 718.269 Q256.804 713.663 262.614 713.663 Z" fill="#000000" fill-rule="nonzero" fill-opacity="1" /><path clip-path="url(#clip130)" d="M394.366 732.019 L424.042 732.019 L424.042 735.954 L394.366 735.954 L394.366 732.019 Z" fill="#000000" fill-rule="nonzero" fill-opacity="1" /><path clip-path="url(#clip130)" d="M444.135 717.367 Q440.524 717.367 438.695 720.931 Q436.889 724.473 436.889 731.603 Q436.889 738.709 438.695 742.274 Q440.524 745.815 444.135 745.815 Q447.769 745.815 449.574 742.274 Q451.403 738.709 451.403 731.603 Q451.403 724.473 449.574 720.931 Q447.769 717.367 444.135 717.367 M444.135 713.663 Q449.945 713.663 453 718.269 Q456.079 722.853 456.079 731.603 Q456.079 740.329 453 744.936 Q449.945 749.519 444.135 749.519 Q438.324 749.519 435.246 744.936 Q432.19 740.329 432.19 731.603 Q432.19 722.853 435.246 718.269 Q438.324 713.663 444.135 713.663 Z" fill="#000000" fill-rule="nonzero" fill-opacity="1" /><path clip-path="url(#clip130)" d="M464.297 742.968 L469.181 742.968 L469.181 748.848 L464.297 748.848 L464.297 742.968 Z" fill="#000000" fill-rule="nonzero" fill-opacity="1" /><path clip-path="url(#clip130)" d="M479.412 714.288 L497.769 714.288 L497.769 718.223 L483.695 718.223 L483.695 726.695 Q484.713 726.348 485.732 726.186 Q486.75 726.001 487.769 726.001 Q493.556 726.001 496.935 729.172 Q500.315 732.343 500.315 737.76 Q500.315 743.339 496.843 746.44 Q493.37 749.519 487.051 749.519 Q484.875 749.519 482.607 749.149 Q480.361 748.778 477.954 748.038 L477.954 743.339 Q480.037 744.473 482.259 745.028 Q484.482 745.584 486.958 745.584 Q490.963 745.584 493.301 743.478 Q495.639 741.371 495.639 737.76 Q495.639 734.149 493.301 732.042 Q490.963 729.936 486.958 729.936 Q485.083 729.936 483.209 730.353 Q481.357 730.769 479.412 731.649 L479.412 714.288 Z" fill="#000000" fill-rule="nonzero" fill-opacity="1" /><path clip-path="url(#clip130)" d="M650.979 717.367 Q647.368 717.367 645.539 720.931 Q643.734 724.473 643.734 731.603 Q643.734 738.709 645.539 742.274 Q647.368 745.815 650.979 745.815 Q654.613 745.815 656.419 742.274 Q658.248 738.709 658.248 731.603 Q658.248 724.473 656.419 720.931 Q654.613 717.367 650.979 717.367 M650.979 713.663 Q656.789 713.663 659.845 718.269 Q662.924 722.853 662.924 731.603 Q662.924 740.329 659.845 744.936 Q656.789 749.519 650.979 749.519 Q645.169 749.519 642.09 744.936 Q639.035 740.329 639.035 731.603 Q639.035 722.853 642.09 718.269 Q645.169 713.663 650.979 713.663 Z" fill="#000000" fill-rule="nonzero" fill-opacity="1" /><path clip-path="url(#clip130)" d="M671.141 742.968 L676.025 742.968 L676.025 748.848 L671.141 748.848 L671.141 742.968 Z" fill="#000000" fill-rule="nonzero" fill-opacity="1" /><path clip-path="url(#clip130)" d="M696.21 717.367 Q692.599 717.367 690.771 720.931 Q688.965 724.473 688.965 731.603 Q688.965 738.709 690.771 742.274 Q692.599 745.815 696.21 745.815 Q699.845 745.815 701.65 742.274 Q703.479 738.709 703.479 731.603 Q703.479 724.473 701.65 720.931 Q699.845 717.367 696.21 717.367 M696.21 713.663 Q702.021 713.663 705.076 718.269 Q708.155 722.853 708.155 731.603 Q708.155 740.329 705.076 744.936 Q702.021 749.519 696.21 749.519 Q690.4 749.519 687.322 744.936 Q684.266 740.329 684.266 731.603 Q684.266 722.853 687.322 718.269 Q690.4 713.663 696.21 713.663 Z" fill="#000000" fill-rule="nonzero" fill-opacity="1" /><path clip-path="url(#clip130)" d="M877.731 717.367 Q874.12 717.367 872.291 720.931 Q870.486 724.473 870.486 731.603 Q870.486 738.709 872.291 742.274 Q874.12 745.815 877.731 745.815 Q881.365 745.815 883.171 742.274 Q884.999 738.709 884.999 731.603 Q884.999 724.473 883.171 720.931 Q881.365 717.367 877.731 717.367 M877.731 713.663 Q883.541 713.663 886.597 718.269 Q889.675 722.853 889.675 731.603 Q889.675 740.329 886.597 744.936 Q883.541 749.519 877.731 749.519 Q871.921 749.519 868.842 744.936 Q865.787 740.329 865.787 731.603 Q865.787 722.853 868.842 718.269 Q871.921 713.663 877.731 713.663 Z" fill="#000000" fill-rule="nonzero" fill-opacity="1" /><path clip-path="url(#clip130)" d="M897.893 742.968 L902.777 742.968 L902.777 748.848 L897.893 748.848 L897.893 742.968 Z" fill="#000000" fill-rule="nonzero" fill-opacity="1" /><path clip-path="url(#clip130)" d="M913.009 714.288 L931.365 714.288 L931.365 718.223 L917.291 718.223 L917.291 726.695 Q918.309 726.348 919.328 726.186 Q920.347 726.001 921.365 726.001 Q927.152 726.001 930.532 729.172 Q933.911 732.343 933.911 737.76 Q933.911 743.339 930.439 746.44 Q926.967 749.519 920.647 749.519 Q918.472 749.519 916.203 749.149 Q913.958 748.778 911.55 748.038 L911.55 743.339 Q913.634 744.473 915.856 745.028 Q918.078 745.584 920.555 745.584 Q924.559 745.584 926.897 743.478 Q929.235 741.371 929.235 737.76 Q929.235 734.149 926.897 732.042 Q924.559 729.936 920.555 729.936 Q918.68 729.936 916.805 730.353 Q914.953 730.769 913.009 731.649 L913.009 714.288 Z" fill="#000000" fill-rule="nonzero" fill-opacity="1" /><path clip-path="url(#clip130)" d="M1093.26 744.913 L1100.89 744.913 L1100.89 718.547 L1092.58 720.214 L1092.58 715.955 L1100.85 714.288 L1105.52 714.288 L1105.52 744.913 L1113.16 744.913 L1113.16 748.848 L1093.26 748.848 L1093.26 744.913 Z" fill="#000000" fill-rule="nonzero" fill-opacity="1" /><path clip-path="url(#clip130)" d="M1122.61 742.968 L1127.49 742.968 L1127.49 748.848 L1122.61 748.848 L1122.61 742.968 Z" fill="#000000" fill-rule="nonzero" fill-opacity="1" /><path clip-path="url(#clip130)" d="M1147.68 717.367 Q1144.07 717.367 1142.24 720.931 Q1140.43 724.473 1140.43 731.603 Q1140.43 738.709 1142.24 742.274 Q1144.07 745.815 1147.68 745.815 Q1151.31 745.815 1153.12 742.274 Q1154.95 738.709 1154.95 731.603 Q1154.95 724.473 1153.12 720.931 Q1151.31 717.367 1147.68 717.367 M1147.68 713.663 Q1153.49 713.663 1156.54 718.269 Q1159.62 722.853 1159.62 731.603 Q1159.62 740.329 1156.54 744.936 Q1153.49 749.519 1147.68 749.519 Q1141.87 749.519 1138.79 744.936 Q1135.73 740.329 1135.73 731.603 Q1135.73 722.853 1138.79 718.269 Q1141.87 713.663 1147.68 713.663 Z" fill="#000000" fill-rule="nonzero" fill-opacity="1" /><polyline clip-path="url(#clip132)" style="stroke:#000000; stroke-linecap:round; stroke-linejoin:round; stroke-width:2; stroke-opacity:0.1; fill:none" points="193.936,677.69 1153.25,677.69 "/>
<polyline clip-path="url(#clip132)" style="stroke:#000000; stroke-linecap:round; stroke-linejoin:round; stroke-width:2; stroke-opacity:0.1; fill:none" points="193.936,542.939 1153.25,542.939 "/>
<polyline clip-path="url(#clip132)" style="stroke:#000000; stroke-linecap:round; stroke-linejoin:round; stroke-width:2; stroke-opacity:0.1; fill:none" points="193.936,408.188 1153.25,408.188 "/>
<polyline clip-path="url(#clip132)" style="stroke:#000000; stroke-linecap:round; stroke-linejoin:round; stroke-width:2; stroke-opacity:0.1; fill:none" points="193.936,273.436 1153.25,273.436 "/>
<polyline clip-path="url(#clip132)" style="stroke:#000000; stroke-linecap:round; stroke-linejoin:round; stroke-width:2; stroke-opacity:0.1; fill:none" points="193.936,138.685 1153.25,138.685 "/>
<polyline clip-path="url(#clip130)" style="stroke:#000000; stroke-linecap:round; stroke-linejoin:round; stroke-width:4; stroke-opacity:1; fill:none" points="193.936,686.448 193.936,123.472 "/>
<polyline clip-path="url(#clip130)" style="stroke:#000000; stroke-linecap:round; stroke-linejoin:round; stroke-width:4; stroke-opacity:1; fill:none" points="193.936,677.69 212.834,677.69 "/>
<polyline clip-path="url(#clip130)" style="stroke:#000000; stroke-linecap:round; stroke-linejoin:round; stroke-width:4; stroke-opacity:1; fill:none" points="193.936,542.939 212.834,542.939 "/>
<polyline clip-path="url(#clip130)" style="stroke:#000000; stroke-linecap:round; stroke-linejoin:round; stroke-width:4; stroke-opacity:1; fill:none" points="193.936,408.188 212.834,408.188 "/>
<polyline clip-path="url(#clip130)" style="stroke:#000000; stroke-linecap:round; stroke-linejoin:round; stroke-width:4; stroke-opacity:1; fill:none" points="193.936,273.436 212.834,273.436 "/>
<polyline clip-path="url(#clip130)" style="stroke:#000000; stroke-linecap:round; stroke-linejoin:round; stroke-width:4; stroke-opacity:1; fill:none" points="193.936,138.685 212.834,138.685 "/>
<path clip-path="url(#clip130)" d="M50.9921 678.141 L80.6679 678.141 L80.6679 682.077 L50.9921 682.077 L50.9921 678.141 Z" fill="#000000" fill-rule="nonzero" fill-opacity="1" /><path clip-path="url(#clip130)" d="M91.5706 691.035 L99.2095 691.035 L99.2095 664.669 L90.8993 666.336 L90.8993 662.077 L99.1632 660.41 L103.839 660.41 L103.839 691.035 L111.478 691.035 L111.478 694.97 L91.5706 694.97 L91.5706 691.035 Z" fill="#000000" fill-rule="nonzero" fill-opacity="1" /><path clip-path="url(#clip130)" d="M120.922 689.09 L125.807 689.09 L125.807 694.97 L120.922 694.97 L120.922 689.09 Z" fill="#000000" fill-rule="nonzero" fill-opacity="1" /><path clip-path="url(#clip130)" d="M145.992 663.489 Q142.381 663.489 140.552 667.053 Q138.746 670.595 138.746 677.725 Q138.746 684.831 140.552 688.396 Q142.381 691.938 145.992 691.938 Q149.626 691.938 151.431 688.396 Q153.26 684.831 153.26 677.725 Q153.26 670.595 151.431 667.053 Q149.626 663.489 145.992 663.489 M145.992 659.785 Q151.802 659.785 154.857 664.391 Q157.936 668.975 157.936 677.725 Q157.936 686.451 154.857 691.058 Q151.802 695.641 145.992 695.641 Q140.181 695.641 137.103 691.058 Q134.047 686.451 134.047 677.725 Q134.047 668.975 137.103 664.391 Q140.181 659.785 145.992 659.785 Z" fill="#000000" fill-rule="nonzero" fill-opacity="1" /><path clip-path="url(#clip130)" d="M51.9875 543.39 L81.6633 543.39 L81.6633 547.325 L51.9875 547.325 L51.9875 543.39 Z" fill="#000000" fill-rule="nonzero" fill-opacity="1" /><path clip-path="url(#clip130)" d="M101.756 528.737 Q98.1447 528.737 96.316 532.302 Q94.5104 535.844 94.5104 542.974 Q94.5104 550.08 96.316 553.645 Q98.1447 557.186 101.756 557.186 Q105.39 557.186 107.196 553.645 Q109.024 550.08 109.024 542.974 Q109.024 535.844 107.196 532.302 Q105.39 528.737 101.756 528.737 M101.756 525.034 Q107.566 525.034 110.621 529.64 Q113.7 534.224 113.7 542.974 Q113.7 551.7 110.621 556.307 Q107.566 560.89 101.756 560.89 Q95.9456 560.89 92.8669 556.307 Q89.8114 551.7 89.8114 542.974 Q89.8114 534.224 92.8669 529.64 Q95.9456 525.034 101.756 525.034 Z" fill="#000000" fill-rule="nonzero" fill-opacity="1" /><path clip-path="url(#clip130)" d="M121.918 554.339 L126.802 554.339 L126.802 560.219 L121.918 560.219 L121.918 554.339 Z" fill="#000000" fill-rule="nonzero" fill-opacity="1" /><path clip-path="url(#clip130)" d="M137.033 525.659 L155.39 525.659 L155.39 529.594 L141.316 529.594 L141.316 538.066 Q142.334 537.719 143.353 537.557 Q144.371 537.372 145.39 537.372 Q151.177 537.372 154.556 540.543 Q157.936 543.714 157.936 549.131 Q157.936 554.71 154.464 557.811 Q150.992 560.89 144.672 560.89 Q142.496 560.89 140.228 560.52 Q137.982 560.149 135.575 559.409 L135.575 554.71 Q137.658 555.844 139.881 556.399 Q142.103 556.955 144.58 556.955 Q148.584 556.955 150.922 554.848 Q153.26 552.742 153.26 549.131 Q153.26 545.52 150.922 543.413 Q148.584 541.307 144.58 541.307 Q142.705 541.307 140.83 541.724 Q138.978 542.14 137.033 543.02 L137.033 525.659 Z" fill="#000000" fill-rule="nonzero" fill-opacity="1" /><path clip-path="url(#clip130)" d="M100.76 393.986 Q97.1493 393.986 95.3206 397.551 Q93.515 401.093 93.515 408.222 Q93.515 415.329 95.3206 418.894 Q97.1493 422.435 100.76 422.435 Q104.395 422.435 106.2 418.894 Q108.029 415.329 108.029 408.222 Q108.029 401.093 106.2 397.551 Q104.395 393.986 100.76 393.986 M100.76 390.283 Q106.571 390.283 109.626 394.889 Q112.705 399.472 112.705 408.222 Q112.705 416.949 109.626 421.556 Q106.571 426.139 100.76 426.139 Q94.9502 426.139 91.8715 421.556 Q88.816 416.949 88.816 408.222 Q88.816 399.472 91.8715 394.889 Q94.9502 390.283 100.76 390.283 Z" fill="#000000" fill-rule="nonzero" fill-opacity="1" /><path clip-path="url(#clip130)" d="M120.922 419.588 L125.807 419.588 L125.807 425.468 L120.922 425.468 L120.922 419.588 Z" fill="#000000" fill-rule="nonzero" fill-opacity="1" /><path clip-path="url(#clip130)" d="M145.992 393.986 Q142.381 393.986 140.552 397.551 Q138.746 401.093 138.746 408.222 Q138.746 415.329 140.552 418.894 Q142.381 422.435 145.992 422.435 Q149.626 422.435 151.431 418.894 Q153.26 415.329 153.26 408.222 Q153.26 401.093 151.431 397.551 Q149.626 393.986 145.992 393.986 M145.992 390.283 Q151.802 390.283 154.857 394.889 Q157.936 399.472 157.936 408.222 Q157.936 416.949 154.857 421.556 Q151.802 426.139 145.992 426.139 Q140.181 426.139 137.103 421.556 Q134.047 416.949 134.047 408.222 Q134.047 399.472 137.103 394.889 Q140.181 390.283 145.992 390.283 Z" fill="#000000" fill-rule="nonzero" fill-opacity="1" /><path clip-path="url(#clip130)" d="M101.756 259.235 Q98.1447 259.235 96.316 262.8 Q94.5104 266.342 94.5104 273.471 Q94.5104 280.578 96.316 284.142 Q98.1447 287.684 101.756 287.684 Q105.39 287.684 107.196 284.142 Q109.024 280.578 109.024 273.471 Q109.024 266.342 107.196 262.8 Q105.39 259.235 101.756 259.235 M101.756 255.532 Q107.566 255.532 110.621 260.138 Q113.7 264.721 113.7 273.471 Q113.7 282.198 110.621 286.804 Q107.566 291.388 101.756 291.388 Q95.9456 291.388 92.8669 286.804 Q89.8114 282.198 89.8114 273.471 Q89.8114 264.721 92.8669 260.138 Q95.9456 255.532 101.756 255.532 Z" fill="#000000" fill-rule="nonzero" fill-opacity="1" /><path clip-path="url(#clip130)" d="M121.918 284.837 L126.802 284.837 L126.802 290.716 L121.918 290.716 L121.918 284.837 Z" fill="#000000" fill-rule="nonzero" fill-opacity="1" /><path clip-path="url(#clip130)" d="M137.033 256.156 L155.39 256.156 L155.39 260.092 L141.316 260.092 L141.316 268.564 Q142.334 268.217 143.353 268.055 Q144.371 267.869 145.39 267.869 Q151.177 267.869 154.556 271.041 Q157.936 274.212 157.936 279.629 Q157.936 285.207 154.464 288.309 Q150.992 291.388 144.672 291.388 Q142.496 291.388 140.228 291.017 Q137.982 290.647 135.575 289.906 L135.575 285.207 Q137.658 286.342 139.881 286.897 Q142.103 287.453 144.58 287.453 Q148.584 287.453 150.922 285.346 Q153.26 283.24 153.26 279.629 Q153.26 276.018 150.922 273.911 Q148.584 271.805 144.58 271.805 Q142.705 271.805 140.83 272.221 Q138.978 272.638 137.033 273.518 L137.033 256.156 Z" fill="#000000" fill-rule="nonzero" fill-opacity="1" /><path clip-path="url(#clip130)" d="M91.5706 152.03 L99.2095 152.03 L99.2095 125.665 L90.8993 127.331 L90.8993 123.072 L99.1632 121.405 L103.839 121.405 L103.839 152.03 L111.478 152.03 L111.478 155.965 L91.5706 155.965 L91.5706 152.03 Z" fill="#000000" fill-rule="nonzero" fill-opacity="1" /><path clip-path="url(#clip130)" d="M120.922 150.086 L125.807 150.086 L125.807 155.965 L120.922 155.965 L120.922 150.086 Z" fill="#000000" fill-rule="nonzero" fill-opacity="1" /><path clip-path="url(#clip130)" d="M145.992 124.484 Q142.381 124.484 140.552 128.049 Q138.746 131.59 138.746 138.72 Q138.746 145.827 140.552 149.391 Q142.381 152.933 145.992 152.933 Q149.626 152.933 151.431 149.391 Q153.26 145.827 153.26 138.72 Q153.26 131.59 151.431 128.049 Q149.626 124.484 145.992 124.484 M145.992 120.78 Q151.802 120.78 154.857 125.387 Q157.936 129.97 157.936 138.72 Q157.936 147.447 154.857 152.053 Q151.802 156.637 145.992 156.637 Q140.181 156.637 137.103 152.053 Q134.047 147.447 134.047 138.72 Q134.047 129.97 137.103 125.387 Q140.181 120.78 145.992 120.78 Z" fill="#000000" fill-rule="nonzero" fill-opacity="1" /><path clip-path="url(#clip130)" d="M548.138 14.324 L548.138 27.2059 L563.491 27.2059 L563.491 32.9987 L548.138 32.9987 L548.138 57.6282 Q548.138 63.1779 549.637 64.7578 Q551.176 66.3376 555.835 66.3376 L563.491 66.3376 L563.491 72.576 L555.835 72.576 Q547.207 72.576 543.925 69.3758 Q540.644 66.1351 540.644 57.6282 L540.644 32.9987 L535.175 32.9987 L535.175 27.2059 L540.644 27.2059 L540.644 14.324 L548.138 14.324 Z" fill="#000000" fill-rule="nonzero" fill-opacity="1" /><path clip-path="url(#clip130)" d="M600.638 34.9026 L652.571 34.9026 L652.571 41.7081 L600.638 41.7081 L600.638 34.9026 M600.638 51.4303 L652.571 51.4303 L652.571 58.3168 L600.638 58.3168 L600.638 51.4303 Z" fill="#000000" fill-rule="nonzero" fill-opacity="1" /><path clip-path="url(#clip130)" d="M714.104 17.4837 Q707.784 17.4837 704.584 23.7221 Q701.425 29.92 701.425 42.3968 Q701.425 54.833 704.584 61.0714 Q707.784 67.2693 714.104 67.2693 Q720.464 67.2693 723.623 61.0714 Q726.824 54.833 726.824 42.3968 Q726.824 29.92 723.623 23.7221 Q720.464 17.4837 714.104 17.4837 M714.104 11.0023 Q724.272 11.0023 729.619 19.0636 Q735.007 27.0843 735.007 42.3968 Q735.007 57.6687 729.619 65.73 Q724.272 73.7508 714.104 73.7508 Q703.936 73.7508 698.548 65.73 Q693.201 57.6687 693.201 42.3968 Q693.201 27.0843 698.548 19.0636 Q703.936 11.0023 714.104 11.0023 Z" fill="#000000" fill-rule="nonzero" fill-opacity="1" /><path clip-path="url(#clip130)" d="M749.387 62.2867 L757.935 62.2867 L757.935 72.576 L749.387 72.576 L749.387 62.2867 Z" fill="#000000" fill-rule="nonzero" fill-opacity="1" /><path clip-path="url(#clip130)" d="M777.176 65.6895 L790.544 65.6895 L790.544 19.5497 L776.002 22.4663 L776.002 15.0127 L790.463 12.096 L798.646 12.096 L798.646 65.6895 L812.014 65.6895 L812.014 72.576 L777.176 72.576 L777.176 65.6895 Z" fill="#000000" fill-rule="nonzero" fill-opacity="1" /><polyline clip-path="url(#clip132)" style="stroke:#009af9; stroke-linecap:round; stroke-linejoin:round; stroke-width:4; stroke-opacity:1; fill:none" points="221.086,408.223 225.612,400.238 230.137,392.267 234.662,384.313 239.187,376.382 243.712,368.482 248.237,360.619 252.762,352.798 257.287,345.029 261.812,337.316 266.337,329.669 270.862,322.093 275.387,314.597 279.913,307.188 284.438,299.872 288.963,292.658 293.488,285.552 298.013,278.56 302.538,271.689 307.063,264.945 311.588,258.333 316.113,251.859 320.638,245.527 325.163,239.341 329.688,233.306 334.214,227.424 338.739,221.698 343.264,216.131 347.789,210.725 352.314,205.483 356.839,200.406 361.364,195.498 365.889,190.759 370.414,186.194 374.939,181.806 379.464,177.599 383.989,173.578 388.515,169.749 393.04,166.118 397.565,162.691 402.09,159.477 406.615,156.481 411.14,153.71 415.665,151.172 420.19,148.87 424.715,146.81 429.24,144.996 433.765,143.429 438.29,142.113 442.816,141.051 447.341,140.245 451.866,139.699 456.391,139.417 460.916,139.405 465.441,139.67 469.966,140.217 474.491,141.052 479.016,142.183 483.541,143.613 488.066,145.346 492.591,147.384 497.117,149.728 501.642,152.376 506.167,155.327 510.692,158.575 515.217,162.117 519.742,165.946 524.267,170.056 528.792,174.438 533.317,179.087 537.842,183.993 542.367,189.149 546.892,194.545 551.418,200.174 555.943,206.027 560.468,212.095 564.993,218.368 569.518,224.839 574.043,231.497 578.568,238.335 583.093,245.342 587.618,252.511 592.143,259.831 596.668,267.294 601.193,274.892 605.719,282.616 610.244,290.457 614.769,298.407 619.294,306.459 623.819,314.604 628.344,322.834 632.869,331.142 637.394,339.52 641.919,347.961 646.444,356.457 650.969,365 655.494,373.584 660.02,382.198 664.545,390.837 669.07,399.491 673.595,408.151 678.12,416.809 682.645,425.456 687.17,434.081 691.695,442.676 696.22,451.23 700.745,459.733 705.27,468.174 709.795,476.545 714.321,484.833 718.846,493.03 723.371,501.126 727.896,509.11 732.421,516.974 736.946,524.708 741.471,532.305 745.996,539.756 750.521,547.054 755.046,554.193 759.571,561.166 764.096,567.967 768.622,574.591 773.147,581.032 777.672,587.287 782.197,593.35 786.722,599.217 791.247,604.884 795.772,610.346 800.297,615.6 804.822,620.641 809.347,625.465 813.872,630.066 818.397,634.442 822.923,638.586 827.448,642.496 831.973,646.165 836.498,649.589 841.023,652.766 845.548,655.689 850.073,658.357 854.598,660.766 859.123,662.913 863.648,664.796 868.173,666.413 872.698,667.763 877.224,668.847 881.749,669.663 886.274,670.212 890.799,670.495 895.324,670.515 899.849,670.271 904.374,669.768 908.899,669.008 913.424,667.992 917.949,666.725 922.474,665.21 926.999,663.45 931.525,661.449 936.05,659.21 940.575,656.737 945.1,654.033 949.625,651.103 954.15,647.951 958.675,644.58 963.2,640.993 967.725,637.196 972.25,633.191 976.775,628.983 981.3,624.575 985.826,619.972 990.351,615.179 994.876,610.198 999.401,605.035 1003.93,599.694 1008.45,594.179 1012.98,588.495 1017.5,582.648 1022.03,576.642 1026.55,570.481 1031.08,564.173 1035.6,557.721 1040.13,551.132 1044.65,544.411 1049.18,537.564 1053.7,530.598 1058.23,523.518 1062.75,516.33 1067.28,509.042 1071.8,501.659 1076.33,494.188 1080.85,486.636 1085.38,479.01 1089.9,471.316 1094.43,463.562 1098.95,455.754 1103.48,447.9 1108,440.006 1112.53,432.079 1117.05,424.127 1121.58,416.156 1126.1,408.173 "/>
<path clip-path="url(#clip130)" d="M972.914 245.918 L1121.28 245.918 L1121.28 142.238 L972.914 142.238  Z" fill="#ffffff" fill-rule="evenodd" fill-opacity="1"/>
<polyline clip-path="url(#clip130)" style="stroke:#000000; stroke-linecap:round; stroke-linejoin:round; stroke-width:4; stroke-opacity:1; fill:none" points="972.914,245.918 1121.28,245.918 1121.28,142.238 972.914,142.238 972.914,245.918 "/>
<polyline clip-path="url(#clip130)" style="stroke:#009af9; stroke-linecap:round; stroke-linejoin:round; stroke-width:4; stroke-opacity:1; fill:none" points="983.573,194.078 1047.53,194.078 "/>
<path clip-path="url(#clip130)" d="M1072.03 213.765 Q1070.22 218.395 1068.51 219.807 Q1066.8 221.219 1063.93 221.219 L1060.52 221.219 L1060.52 217.654 L1063.02 217.654 Q1064.78 217.654 1065.76 216.821 Q1066.73 215.988 1067.91 212.886 L1068.67 210.941 L1058.19 185.432 L1062.7 185.432 L1070.8 205.71 L1078.9 185.432 L1083.42 185.432 L1072.03 213.765 Z" fill="#000000" fill-rule="nonzero" fill-opacity="1" /><path clip-path="url(#clip130)" d="M1090.71 207.423 L1098.35 207.423 L1098.35 181.057 L1090.04 182.724 L1090.04 178.465 L1098.3 176.798 L1102.98 176.798 L1102.98 207.423 L1110.62 207.423 L1110.62 211.358 L1090.71 211.358 L1090.71 207.423 Z" fill="#000000" fill-rule="nonzero" fill-opacity="1" /><path clip-path="url(#clip130)" d="M1393.44 686.448 L2352.76 686.448 L2352.76 123.472 L1393.44 123.472  Z" fill="#ffffff" fill-rule="evenodd" fill-opacity="1"/>
<defs>
  <clipPath id="clip133">
    <rect x="1393" y="123" width="960" height="564"/>
  </clipPath>
</defs>
<polyline clip-path="url(#clip133)" style="stroke:#000000; stroke-linecap:round; stroke-linejoin:round; stroke-width:2; stroke-opacity:0.1; fill:none" points="1420.59,686.448 1420.59,123.472 "/>
<polyline clip-path="url(#clip133)" style="stroke:#000000; stroke-linecap:round; stroke-linejoin:round; stroke-width:2; stroke-opacity:0.1; fill:none" points="1646.84,686.448 1646.84,123.472 "/>
<polyline clip-path="url(#clip133)" style="stroke:#000000; stroke-linecap:round; stroke-linejoin:round; stroke-width:2; stroke-opacity:0.1; fill:none" points="1873.1,686.448 1873.1,123.472 "/>
<polyline clip-path="url(#clip133)" style="stroke:#000000; stroke-linecap:round; stroke-linejoin:round; stroke-width:2; stroke-opacity:0.1; fill:none" points="2099.35,686.448 2099.35,123.472 "/>
<polyline clip-path="url(#clip133)" style="stroke:#000000; stroke-linecap:round; stroke-linejoin:round; stroke-width:2; stroke-opacity:0.1; fill:none" points="2325.61,686.448 2325.61,123.472 "/>
<polyline clip-path="url(#clip130)" style="stroke:#000000; stroke-linecap:round; stroke-linejoin:round; stroke-width:4; stroke-opacity:1; fill:none" points="1393.44,686.448 2352.76,686.448 "/>
<polyline clip-path="url(#clip130)" style="stroke:#000000; stroke-linecap:round; stroke-linejoin:round; stroke-width:4; stroke-opacity:1; fill:none" points="1420.59,686.448 1420.59,667.55 "/>
<polyline clip-path="url(#clip130)" style="stroke:#000000; stroke-linecap:round; stroke-linejoin:round; stroke-width:4; stroke-opacity:1; fill:none" points="1646.84,686.448 1646.84,667.55 "/>
<polyline clip-path="url(#clip130)" style="stroke:#000000; stroke-linecap:round; stroke-linejoin:round; stroke-width:4; stroke-opacity:1; fill:none" points="1873.1,686.448 1873.1,667.55 "/>
<polyline clip-path="url(#clip130)" style="stroke:#000000; stroke-linecap:round; stroke-linejoin:round; stroke-width:4; stroke-opacity:1; fill:none" points="2099.35,686.448 2099.35,667.55 "/>
<polyline clip-path="url(#clip130)" style="stroke:#000000; stroke-linecap:round; stroke-linejoin:round; stroke-width:4; stroke-opacity:1; fill:none" points="2325.61,686.448 2325.61,667.55 "/>
<path clip-path="url(#clip130)" d="M1367.12 732.019 L1396.79 732.019 L1396.79 735.954 L1367.12 735.954 L1367.12 732.019 Z" fill="#000000" fill-rule="nonzero" fill-opacity="1" /><path clip-path="url(#clip130)" d="M1407.7 744.913 L1415.33 744.913 L1415.33 718.547 L1407.02 720.214 L1407.02 715.955 L1415.29 714.288 L1419.96 714.288 L1419.96 744.913 L1427.6 744.913 L1427.6 748.848 L1407.7 748.848 L1407.7 744.913 Z" fill="#000000" fill-rule="nonzero" fill-opacity="1" /><path clip-path="url(#clip130)" d="M1437.05 742.968 L1441.93 742.968 L1441.93 748.848 L1437.05 748.848 L1437.05 742.968 Z" fill="#000000" fill-rule="nonzero" fill-opacity="1" /><path clip-path="url(#clip130)" d="M1462.12 717.367 Q1458.51 717.367 1456.68 720.931 Q1454.87 724.473 1454.87 731.603 Q1454.87 738.709 1456.68 742.274 Q1458.51 745.815 1462.12 745.815 Q1465.75 745.815 1467.56 742.274 Q1469.38 738.709 1469.38 731.603 Q1469.38 724.473 1467.56 720.931 Q1465.75 717.367 1462.12 717.367 M1462.12 713.663 Q1467.93 713.663 1470.98 718.269 Q1474.06 722.853 1474.06 731.603 Q1474.06 740.329 1470.98 744.936 Q1467.93 749.519 1462.12 749.519 Q1456.31 749.519 1453.23 744.936 Q1450.17 740.329 1450.17 731.603 Q1450.17 722.853 1453.23 718.269 Q1456.31 713.663 1462.12 713.663 Z" fill="#000000" fill-rule="nonzero" fill-opacity="1" /><path clip-path="url(#clip130)" d="M1593.87 732.019 L1623.54 732.019 L1623.54 735.954 L1593.87 735.954 L1593.87 732.019 Z" fill="#000000" fill-rule="nonzero" fill-opacity="1" /><path clip-path="url(#clip130)" d="M1643.64 717.367 Q1640.03 717.367 1638.2 720.931 Q1636.39 724.473 1636.39 731.603 Q1636.39 738.709 1638.2 742.274 Q1640.03 745.815 1643.64 745.815 Q1647.27 745.815 1649.08 742.274 Q1650.91 738.709 1650.91 731.603 Q1650.91 724.473 1649.08 720.931 Q1647.27 717.367 1643.64 717.367 M1643.64 713.663 Q1649.45 713.663 1652.5 718.269 Q1655.58 722.853 1655.58 731.603 Q1655.58 740.329 1652.5 744.936 Q1649.45 749.519 1643.64 749.519 Q1637.83 749.519 1634.75 744.936 Q1631.69 740.329 1631.69 731.603 Q1631.69 722.853 1634.75 718.269 Q1637.83 713.663 1643.64 713.663 Z" fill="#000000" fill-rule="nonzero" fill-opacity="1" /><path clip-path="url(#clip130)" d="M1663.8 742.968 L1668.68 742.968 L1668.68 748.848 L1663.8 748.848 L1663.8 742.968 Z" fill="#000000" fill-rule="nonzero" fill-opacity="1" /><path clip-path="url(#clip130)" d="M1678.91 714.288 L1697.27 714.288 L1697.27 718.223 L1683.2 718.223 L1683.2 726.695 Q1684.22 726.348 1685.23 726.186 Q1686.25 726.001 1687.27 726.001 Q1693.06 726.001 1696.44 729.172 Q1699.82 732.343 1699.82 737.76 Q1699.82 743.339 1696.35 746.44 Q1692.87 749.519 1686.55 749.519 Q1684.38 749.519 1682.11 749.149 Q1679.86 748.778 1677.46 748.038 L1677.46 743.339 Q1679.54 744.473 1681.76 745.028 Q1683.98 745.584 1686.46 745.584 Q1690.47 745.584 1692.8 743.478 Q1695.14 741.371 1695.14 737.76 Q1695.14 734.149 1692.8 732.042 Q1690.47 729.936 1686.46 729.936 Q1684.59 729.936 1682.71 730.353 Q1680.86 730.769 1678.91 731.649 L1678.91 714.288 Z" fill="#000000" fill-rule="nonzero" fill-opacity="1" /><path clip-path="url(#clip130)" d="M1850.48 717.367 Q1846.87 717.367 1845.04 720.931 Q1843.24 724.473 1843.24 731.603 Q1843.24 738.709 1845.04 742.274 Q1846.87 745.815 1850.48 745.815 Q1854.12 745.815 1855.92 742.274 Q1857.75 738.709 1857.75 731.603 Q1857.75 724.473 1855.92 720.931 Q1854.12 717.367 1850.48 717.367 M1850.48 713.663 Q1856.29 713.663 1859.35 718.269 Q1862.43 722.853 1862.43 731.603 Q1862.43 740.329 1859.35 744.936 Q1856.29 749.519 1850.48 749.519 Q1844.67 749.519 1841.59 744.936 Q1838.54 740.329 1838.54 731.603 Q1838.54 722.853 1841.59 718.269 Q1844.67 713.663 1850.48 713.663 Z" fill="#000000" fill-rule="nonzero" fill-opacity="1" /><path clip-path="url(#clip130)" d="M1870.64 742.968 L1875.53 742.968 L1875.53 748.848 L1870.64 748.848 L1870.64 742.968 Z" fill="#000000" fill-rule="nonzero" fill-opacity="1" /><path clip-path="url(#clip130)" d="M1895.71 717.367 Q1892.1 717.367 1890.27 720.931 Q1888.47 724.473 1888.47 731.603 Q1888.47 738.709 1890.27 742.274 Q1892.1 745.815 1895.71 745.815 Q1899.35 745.815 1901.15 742.274 Q1902.98 738.709 1902.98 731.603 Q1902.98 724.473 1901.15 720.931 Q1899.35 717.367 1895.71 717.367 M1895.71 713.663 Q1901.52 713.663 1904.58 718.269 Q1907.66 722.853 1907.66 731.603 Q1907.66 740.329 1904.58 744.936 Q1901.52 749.519 1895.71 749.519 Q1889.9 749.519 1886.82 744.936 Q1883.77 740.329 1883.77 731.603 Q1883.77 722.853 1886.82 718.269 Q1889.9 713.663 1895.71 713.663 Z" fill="#000000" fill-rule="nonzero" fill-opacity="1" /><path clip-path="url(#clip130)" d="M2077.23 717.367 Q2073.62 717.367 2071.79 720.931 Q2069.99 724.473 2069.99 731.603 Q2069.99 738.709 2071.79 742.274 Q2073.62 745.815 2077.23 745.815 Q2080.87 745.815 2082.67 742.274 Q2084.5 738.709 2084.5 731.603 Q2084.5 724.473 2082.67 720.931 Q2080.87 717.367 2077.23 717.367 M2077.23 713.663 Q2083.04 713.663 2086.1 718.269 Q2089.18 722.853 2089.18 731.603 Q2089.18 740.329 2086.1 744.936 Q2083.04 749.519 2077.23 749.519 Q2071.42 749.519 2068.34 744.936 Q2065.29 740.329 2065.29 731.603 Q2065.29 722.853 2068.34 718.269 Q2071.42 713.663 2077.23 713.663 Z" fill="#000000" fill-rule="nonzero" fill-opacity="1" /><path clip-path="url(#clip130)" d="M2097.4 742.968 L2102.28 742.968 L2102.28 748.848 L2097.4 748.848 L2097.4 742.968 Z" fill="#000000" fill-rule="nonzero" fill-opacity="1" /><path clip-path="url(#clip130)" d="M2112.51 714.288 L2130.87 714.288 L2130.87 718.223 L2116.79 718.223 L2116.79 726.695 Q2117.81 726.348 2118.83 726.186 Q2119.85 726.001 2120.87 726.001 Q2126.65 726.001 2130.03 729.172 Q2133.41 732.343 2133.41 737.76 Q2133.41 743.339 2129.94 746.44 Q2126.47 749.519 2120.15 749.519 Q2117.97 749.519 2115.71 749.149 Q2113.46 748.778 2111.05 748.038 L2111.05 743.339 Q2113.14 744.473 2115.36 745.028 Q2117.58 745.584 2120.06 745.584 Q2124.06 745.584 2126.4 743.478 Q2128.74 741.371 2128.74 737.76 Q2128.74 734.149 2126.4 732.042 Q2124.06 729.936 2120.06 729.936 Q2118.18 729.936 2116.31 730.353 Q2114.46 730.769 2112.51 731.649 L2112.51 714.288 Z" fill="#000000" fill-rule="nonzero" fill-opacity="1" /><path clip-path="url(#clip130)" d="M2292.76 744.913 L2300.4 744.913 L2300.4 718.547 L2292.09 720.214 L2292.09 715.955 L2300.35 714.288 L2305.03 714.288 L2305.03 744.913 L2312.67 744.913 L2312.67 748.848 L2292.76 748.848 L2292.76 744.913 Z" fill="#000000" fill-rule="nonzero" fill-opacity="1" /><path clip-path="url(#clip130)" d="M2322.11 742.968 L2326.99 742.968 L2326.99 748.848 L2322.11 748.848 L2322.11 742.968 Z" fill="#000000" fill-rule="nonzero" fill-opacity="1" /><path clip-path="url(#clip130)" d="M2347.18 717.367 Q2343.57 717.367 2341.74 720.931 Q2339.93 724.473 2339.93 731.603 Q2339.93 738.709 2341.74 742.274 Q2343.57 745.815 2347.18 745.815 Q2350.81 745.815 2352.62 742.274 Q2354.45 738.709 2354.45 731.603 Q2354.45 724.473 2352.62 720.931 Q2350.81 717.367 2347.18 717.367 M2347.18 713.663 Q2352.99 713.663 2356.05 718.269 Q2359.12 722.853 2359.12 731.603 Q2359.12 740.329 2356.05 744.936 Q2352.99 749.519 2347.18 749.519 Q2341.37 749.519 2338.29 744.936 Q2335.23 740.329 2335.23 731.603 Q2335.23 722.853 2338.29 718.269 Q2341.37 713.663 2347.18 713.663 Z" fill="#000000" fill-rule="nonzero" fill-opacity="1" /><polyline clip-path="url(#clip133)" style="stroke:#000000; stroke-linecap:round; stroke-linejoin:round; stroke-width:2; stroke-opacity:0.1; fill:none" points="1393.44,559.396 2352.76,559.396 "/>
<polyline clip-path="url(#clip133)" style="stroke:#000000; stroke-linecap:round; stroke-linejoin:round; stroke-width:2; stroke-opacity:0.1; fill:none" points="1393.44,422.426 2352.76,422.426 "/>
<polyline clip-path="url(#clip133)" style="stroke:#000000; stroke-linecap:round; stroke-linejoin:round; stroke-width:2; stroke-opacity:0.1; fill:none" points="1393.44,285.456 2352.76,285.456 "/>
<polyline clip-path="url(#clip133)" style="stroke:#000000; stroke-linecap:round; stroke-linejoin:round; stroke-width:2; stroke-opacity:0.1; fill:none" points="1393.44,148.486 2352.76,148.486 "/>
<polyline clip-path="url(#clip130)" style="stroke:#000000; stroke-linecap:round; stroke-linejoin:round; stroke-width:4; stroke-opacity:1; fill:none" points="1393.44,686.448 1393.44,123.472 "/>
<polyline clip-path="url(#clip130)" style="stroke:#000000; stroke-linecap:round; stroke-linejoin:round; stroke-width:4; stroke-opacity:1; fill:none" points="1393.44,559.396 1412.34,559.396 "/>
<polyline clip-path="url(#clip130)" style="stroke:#000000; stroke-linecap:round; stroke-linejoin:round; stroke-width:4; stroke-opacity:1; fill:none" points="1393.44,422.426 1412.34,422.426 "/>
<polyline clip-path="url(#clip130)" style="stroke:#000000; stroke-linecap:round; stroke-linejoin:round; stroke-width:4; stroke-opacity:1; fill:none" points="1393.44,285.456 1412.34,285.456 "/>
<polyline clip-path="url(#clip130)" style="stroke:#000000; stroke-linecap:round; stroke-linejoin:round; stroke-width:4; stroke-opacity:1; fill:none" points="1393.44,148.486 1412.34,148.486 "/>
<path clip-path="url(#clip130)" d="M1251.49 559.847 L1281.17 559.847 L1281.17 563.782 L1251.49 563.782 L1251.49 559.847 Z" fill="#000000" fill-rule="nonzero" fill-opacity="1" /><path clip-path="url(#clip130)" d="M1301.26 545.194 Q1297.65 545.194 1295.82 548.759 Q1294.01 552.301 1294.01 559.43 Q1294.01 566.537 1295.82 570.102 Q1297.65 573.643 1301.26 573.643 Q1304.89 573.643 1306.7 570.102 Q1308.53 566.537 1308.53 559.43 Q1308.53 552.301 1306.7 548.759 Q1304.89 545.194 1301.26 545.194 M1301.26 541.491 Q1307.07 541.491 1310.12 546.097 Q1313.2 550.68 1313.2 559.43 Q1313.2 568.157 1310.12 572.764 Q1307.07 577.347 1301.26 577.347 Q1295.45 577.347 1292.37 572.764 Q1289.31 568.157 1289.31 559.43 Q1289.31 550.68 1292.37 546.097 Q1295.45 541.491 1301.26 541.491 Z" fill="#000000" fill-rule="nonzero" fill-opacity="1" /><path clip-path="url(#clip130)" d="M1321.42 570.796 L1326.3 570.796 L1326.3 576.676 L1321.42 576.676 L1321.42 570.796 Z" fill="#000000" fill-rule="nonzero" fill-opacity="1" /><path clip-path="url(#clip130)" d="M1336.54 542.116 L1354.89 542.116 L1354.89 546.051 L1340.82 546.051 L1340.82 554.523 Q1341.84 554.176 1342.86 554.014 Q1343.87 553.829 1344.89 553.829 Q1350.68 553.829 1354.06 557 Q1357.44 560.171 1357.44 565.588 Q1357.44 571.166 1353.97 574.268 Q1350.49 577.347 1344.17 577.347 Q1342 577.347 1339.73 576.977 Q1337.48 576.606 1335.08 575.865 L1335.08 571.166 Q1337.16 572.301 1339.38 572.856 Q1341.61 573.412 1344.08 573.412 Q1348.09 573.412 1350.42 571.305 Q1352.76 569.199 1352.76 565.588 Q1352.76 561.977 1350.42 559.87 Q1348.09 557.764 1344.08 557.764 Q1342.21 557.764 1340.33 558.18 Q1338.48 558.597 1336.54 559.477 L1336.54 542.116 Z" fill="#000000" fill-rule="nonzero" fill-opacity="1" /><path clip-path="url(#clip130)" d="M1300.26 408.224 Q1296.65 408.224 1294.82 411.789 Q1293.02 415.331 1293.02 422.46 Q1293.02 429.567 1294.82 433.132 Q1296.65 436.673 1300.26 436.673 Q1303.9 436.673 1305.7 433.132 Q1307.53 429.567 1307.53 422.46 Q1307.53 415.331 1305.7 411.789 Q1303.9 408.224 1300.26 408.224 M1300.26 404.521 Q1306.07 404.521 1309.13 409.127 Q1312.21 413.71 1312.21 422.46 Q1312.21 431.187 1309.13 435.794 Q1306.07 440.377 1300.26 440.377 Q1294.45 440.377 1291.37 435.794 Q1288.32 431.187 1288.32 422.46 Q1288.32 413.71 1291.37 409.127 Q1294.45 404.521 1300.26 404.521 Z" fill="#000000" fill-rule="nonzero" fill-opacity="1" /><path clip-path="url(#clip130)" d="M1320.42 433.826 L1325.31 433.826 L1325.31 439.706 L1320.42 439.706 L1320.42 433.826 Z" fill="#000000" fill-rule="nonzero" fill-opacity="1" /><path clip-path="url(#clip130)" d="M1345.49 408.224 Q1341.88 408.224 1340.05 411.789 Q1338.25 415.331 1338.25 422.46 Q1338.25 429.567 1340.05 433.132 Q1341.88 436.673 1345.49 436.673 Q1349.13 436.673 1350.93 433.132 Q1352.76 429.567 1352.76 422.46 Q1352.76 415.331 1350.93 411.789 Q1349.13 408.224 1345.49 408.224 M1345.49 404.521 Q1351.3 404.521 1354.36 409.127 Q1357.44 413.71 1357.44 422.46 Q1357.44 431.187 1354.36 435.794 Q1351.3 440.377 1345.49 440.377 Q1339.68 440.377 1336.61 435.794 Q1333.55 431.187 1333.55 422.46 Q1333.55 413.71 1336.61 409.127 Q1339.68 404.521 1345.49 404.521 Z" fill="#000000" fill-rule="nonzero" fill-opacity="1" /><path clip-path="url(#clip130)" d="M1301.26 271.254 Q1297.65 271.254 1295.82 274.819 Q1294.01 278.361 1294.01 285.49 Q1294.01 292.597 1295.82 296.162 Q1297.65 299.703 1301.26 299.703 Q1304.89 299.703 1306.7 296.162 Q1308.53 292.597 1308.53 285.49 Q1308.53 278.361 1306.7 274.819 Q1304.89 271.254 1301.26 271.254 M1301.26 267.551 Q1307.07 267.551 1310.12 272.157 Q1313.2 276.741 1313.2 285.49 Q1313.2 294.217 1310.12 298.824 Q1307.07 303.407 1301.26 303.407 Q1295.45 303.407 1292.37 298.824 Q1289.31 294.217 1289.31 285.49 Q1289.31 276.741 1292.37 272.157 Q1295.45 267.551 1301.26 267.551 Z" fill="#000000" fill-rule="nonzero" fill-opacity="1" /><path clip-path="url(#clip130)" d="M1321.42 296.856 L1326.3 296.856 L1326.3 302.736 L1321.42 302.736 L1321.42 296.856 Z" fill="#000000" fill-rule="nonzero" fill-opacity="1" /><path clip-path="url(#clip130)" d="M1336.54 268.176 L1354.89 268.176 L1354.89 272.111 L1340.82 272.111 L1340.82 280.583 Q1341.84 280.236 1342.86 280.074 Q1343.87 279.889 1344.89 279.889 Q1350.68 279.889 1354.06 283.06 Q1357.44 286.231 1357.44 291.648 Q1357.44 297.227 1353.97 300.328 Q1350.49 303.407 1344.17 303.407 Q1342 303.407 1339.73 303.037 Q1337.48 302.666 1335.08 301.926 L1335.08 297.227 Q1337.16 298.361 1339.38 298.916 Q1341.61 299.472 1344.08 299.472 Q1348.09 299.472 1350.42 297.365 Q1352.76 295.259 1352.76 291.648 Q1352.76 288.037 1350.42 285.93 Q1348.09 283.824 1344.08 283.824 Q1342.21 283.824 1340.33 284.24 Q1338.48 284.657 1336.54 285.537 L1336.54 268.176 Z" fill="#000000" fill-rule="nonzero" fill-opacity="1" /><path clip-path="url(#clip130)" d="M1291.07 161.831 L1298.71 161.831 L1298.71 135.465 L1290.4 137.132 L1290.4 132.872 L1298.67 131.206 L1303.34 131.206 L1303.34 161.831 L1310.98 161.831 L1310.98 165.766 L1291.07 165.766 L1291.07 161.831 Z" fill="#000000" fill-rule="nonzero" fill-opacity="1" /><path clip-path="url(#clip130)" d="M1320.42 159.886 L1325.31 159.886 L1325.31 165.766 L1320.42 165.766 L1320.42 159.886 Z" fill="#000000" fill-rule="nonzero" fill-opacity="1" /><path clip-path="url(#clip130)" d="M1345.49 134.285 Q1341.88 134.285 1340.05 137.849 Q1338.25 141.391 1338.25 148.521 Q1338.25 155.627 1340.05 159.192 Q1341.88 162.733 1345.49 162.733 Q1349.13 162.733 1350.93 159.192 Q1352.76 155.627 1352.76 148.521 Q1352.76 141.391 1350.93 137.849 Q1349.13 134.285 1345.49 134.285 M1345.49 130.581 Q1351.3 130.581 1354.36 135.187 Q1357.44 139.771 1357.44 148.521 Q1357.44 157.247 1354.36 161.854 Q1351.3 166.437 1345.49 166.437 Q1339.68 166.437 1336.61 161.854 Q1333.55 157.247 1333.55 148.521 Q1333.55 139.771 1336.61 135.187 Q1339.68 130.581 1345.49 130.581 Z" fill="#000000" fill-rule="nonzero" fill-opacity="1" /><path clip-path="url(#clip130)" d="M1747.44 14.324 L1747.44 27.2059 L1762.79 27.2059 L1762.79 32.9987 L1747.44 32.9987 L1747.44 57.6282 Q1747.44 63.1779 1748.94 64.7578 Q1750.48 66.3376 1755.13 66.3376 L1762.79 66.3376 L1762.79 72.576 L1755.13 72.576 Q1746.51 72.576 1743.23 69.3758 Q1739.94 66.1351 1739.94 57.6282 L1739.94 32.9987 L1734.48 32.9987 L1734.48 27.2059 L1739.94 27.2059 L1739.94 14.324 L1747.44 14.324 Z" fill="#000000" fill-rule="nonzero" fill-opacity="1" /><path clip-path="url(#clip130)" d="M1799.94 34.9026 L1851.87 34.9026 L1851.87 41.7081 L1799.94 41.7081 L1799.94 34.9026 M1799.94 51.4303 L1851.87 51.4303 L1851.87 58.3168 L1799.94 58.3168 L1799.94 51.4303 Z" fill="#000000" fill-rule="nonzero" fill-opacity="1" /><path clip-path="url(#clip130)" d="M1913.4 17.4837 Q1907.08 17.4837 1903.88 23.7221 Q1900.72 29.92 1900.72 42.3968 Q1900.72 54.833 1903.88 61.0714 Q1907.08 67.2693 1913.4 67.2693 Q1919.76 67.2693 1922.92 61.0714 Q1926.12 54.833 1926.12 42.3968 Q1926.12 29.92 1922.92 23.7221 Q1919.76 17.4837 1913.4 17.4837 M1913.4 11.0023 Q1923.57 11.0023 1928.92 19.0636 Q1934.31 27.0843 1934.31 42.3968 Q1934.31 57.6687 1928.92 65.73 Q1923.57 73.7508 1913.4 73.7508 Q1903.24 73.7508 1897.85 65.73 Q1892.5 57.6687 1892.5 42.3968 Q1892.5 27.0843 1897.85 19.0636 Q1903.24 11.0023 1913.4 11.0023 Z" fill="#000000" fill-rule="nonzero" fill-opacity="1" /><path clip-path="url(#clip130)" d="M1948.69 62.2867 L1957.23 62.2867 L1957.23 72.576 L1948.69 72.576 L1948.69 62.2867 Z" fill="#000000" fill-rule="nonzero" fill-opacity="1" /><path clip-path="url(#clip130)" d="M1975.14 12.096 L2007.26 12.096 L2007.26 18.9825 L1982.63 18.9825 L1982.63 33.8088 Q1984.42 33.2012 1986.2 32.9176 Q1987.98 32.5936 1989.76 32.5936 Q1999.89 32.5936 2005.8 38.1433 Q2011.72 43.6931 2011.72 53.1722 Q2011.72 62.9348 2005.64 68.3631 Q1999.57 73.7508 1988.51 73.7508 Q1984.7 73.7508 1980.73 73.1026 Q1976.8 72.4545 1972.59 71.1582 L1972.59 62.9348 Q1976.23 64.9198 1980.12 65.892 Q1984.01 66.8642 1988.35 66.8642 Q1995.35 66.8642 1999.44 63.1779 Q2003.54 59.4916 2003.54 53.1722 Q2003.54 46.8528 1999.44 43.1664 Q1995.35 39.4801 1988.35 39.4801 Q1985.06 39.4801 1981.78 40.2093 Q1978.54 40.9384 1975.14 42.4778 L1975.14 12.096 Z" fill="#000000" fill-rule="nonzero" fill-opacity="1" /><polyline clip-path="url(#clip133)" style="stroke:#009af9; stroke-linecap:round; stroke-linejoin:round; stroke-width:4; stroke-opacity:1; fill:none" points="1420.59,422.415 1425.11,415.922 1429.64,409.435 1434.16,402.959 1438.69,396.498 1443.21,390.057 1447.74,383.639 1452.26,377.249 1456.79,370.892 1461.31,364.572 1465.84,358.295 1470.36,352.064 1474.89,345.884 1479.41,339.759 1483.94,333.693 1488.47,327.69 1492.99,321.753 1497.52,315.884 1502.04,310.086 1506.57,304.361 1511.09,298.709 1515.62,293.129 1520.14,287.623 1524.67,282.187 1529.19,276.819 1533.72,271.516 1538.24,266.274 1542.77,261.087 1547.29,255.949 1551.82,250.855 1556.34,245.797 1560.87,240.768 1565.39,235.762 1569.92,230.771 1574.44,225.791 1578.97,220.817 1583.49,215.846 1588.02,210.88 1592.54,205.921 1597.07,200.975 1601.59,196.052 1606.12,191.165 1610.64,186.332 1615.17,181.574 1619.69,176.915 1624.22,172.384 1628.74,168.011 1633.27,163.829 1637.79,159.87 1642.32,156.17 1646.84,152.762 1651.37,149.679 1655.89,146.953 1660.42,144.611 1664.94,142.679 1669.47,141.177 1673.99,140.123 1678.52,139.53 1683.04,139.405 1687.57,139.753 1692.09,140.573 1696.62,141.861 1701.14,143.612 1705.67,145.816 1710.19,148.463 1714.72,151.54 1719.24,155.034 1723.77,158.93 1728.29,163.215 1732.82,167.874 1737.34,172.893 1741.87,178.255 1746.39,183.948 1750.92,189.956 1755.44,196.265 1759.97,202.862 1764.5,209.731 1769.02,216.858 1773.55,224.231 1778.07,231.835 1782.6,239.657 1787.12,247.683 1791.65,255.9 1796.17,264.294 1800.7,272.854 1805.22,281.566 1809.75,290.418 1814.27,299.397 1818.8,308.493 1823.32,317.692 1827.85,326.984 1832.37,336.357 1836.9,345.799 1841.42,355.301 1845.95,364.85 1850.47,374.435 1855,384.045 1859.52,393.67 1864.05,403.297 1868.57,412.914 1873.1,422.511 1877.62,432.074 1882.15,441.591 1886.67,451.051 1891.2,460.439 1895.72,469.744 1900.25,478.952 1904.77,488.051 1909.3,497.027 1913.82,505.867 1918.35,514.56 1922.87,523.094 1927.4,531.456 1931.92,539.635 1936.45,547.622 1940.97,555.406 1945.5,562.978 1950.02,570.33 1954.55,577.454 1959.07,584.344 1963.6,590.994 1968.12,597.399 1972.65,603.553 1977.17,609.453 1981.7,615.095 1986.22,620.477 1990.75,625.595 1995.27,630.447 1999.8,635.03 2004.32,639.344 2008.85,643.385 2013.37,647.151 2017.9,650.641 2022.42,653.853 2026.95,656.785 2031.48,659.435 2036,661.802 2040.53,663.885 2045.05,665.683 2049.58,667.196 2054.1,668.424 2058.63,669.368 2063.15,670.029 2067.68,670.41 2072.2,670.515 2076.73,670.346 2081.25,669.908 2085.78,669.207 2090.3,668.249 2094.83,667.041 2099.35,665.589 2103.88,663.901 2108.4,661.986 2112.93,659.851 2117.45,657.505 2121.98,654.956 2126.5,652.214 2131.03,649.287 2135.55,646.183 2140.08,642.91 2144.6,639.477 2149.13,635.89 2153.65,632.156 2158.18,628.284 2162.7,624.278 2167.23,620.145 2171.75,615.891 2176.28,611.52 2180.8,607.038 2185.33,602.448 2189.85,597.755 2194.38,592.962 2198.9,588.073 2203.43,583.091 2207.95,578.019 2212.48,572.859 2217,567.614 2221.53,562.286 2226.05,556.878 2230.58,551.392 2235.1,545.83 2239.63,540.193 2244.15,534.485 2248.68,528.708 2253.2,522.863 2257.73,516.953 2262.25,510.981 2266.78,504.949 2271.3,498.859 2275.83,492.714 2280.35,486.518 2284.88,480.273 2289.4,473.982 2293.93,467.648 2298.45,461.275 2302.98,454.867 2307.51,448.426 2312.03,441.958 2316.56,435.464 2321.08,428.95 2325.61,422.419 "/>
<path clip-path="url(#clip130)" d="M2172.42 245.918 L2320.78 245.918 L2320.78 142.238 L2172.42 142.238  Z" fill="#ffffff" fill-rule="evenodd" fill-opacity="1"/>
<polyline clip-path="url(#clip130)" style="stroke:#000000; stroke-linecap:round; stroke-linejoin:round; stroke-width:4; stroke-opacity:1; fill:none" points="2172.42,245.918 2320.78,245.918 2320.78,142.238 2172.42,142.238 2172.42,245.918 "/>
<polyline clip-path="url(#clip130)" style="stroke:#009af9; stroke-linecap:round; stroke-linejoin:round; stroke-width:4; stroke-opacity:1; fill:none" points="2183.08,194.078 2247.03,194.078 "/>
<path clip-path="url(#clip130)" d="M2271.53 213.765 Q2269.73 218.395 2268.01 219.807 Q2266.3 221.219 2263.43 221.219 L2260.03 221.219 L2260.03 217.654 L2262.53 217.654 Q2264.29 217.654 2265.26 216.821 Q2266.23 215.988 2267.41 212.886 L2268.18 210.941 L2257.69 185.432 L2262.2 185.432 L2270.3 205.71 L2278.41 185.432 L2282.92 185.432 L2271.53 213.765 Z" fill="#000000" fill-rule="nonzero" fill-opacity="1" /><path clip-path="url(#clip130)" d="M2290.21 207.423 L2297.85 207.423 L2297.85 181.057 L2289.54 182.724 L2289.54 178.465 L2297.8 176.798 L2302.48 176.798 L2302.48 207.423 L2310.12 207.423 L2310.12 211.358 L2290.21 211.358 L2290.21 207.423 Z" fill="#000000" fill-rule="nonzero" fill-opacity="1" /><path clip-path="url(#clip130)" d="M193.936 1486.45 L1153.25 1486.45 L1153.25 923.472 L193.936 923.472  Z" fill="#ffffff" fill-rule="evenodd" fill-opacity="1"/>
<defs>
  <clipPath id="clip134">
    <rect x="193" y="923" width="960" height="564"/>
  </clipPath>
</defs>
<polyline clip-path="url(#clip134)" style="stroke:#000000; stroke-linecap:round; stroke-linejoin:round; stroke-width:2; stroke-opacity:0.1; fill:none" points="221.086,1486.45 221.086,923.472 "/>
<polyline clip-path="url(#clip134)" style="stroke:#000000; stroke-linecap:round; stroke-linejoin:round; stroke-width:2; stroke-opacity:0.1; fill:none" points="447.341,1486.45 447.341,923.472 "/>
<polyline clip-path="url(#clip134)" style="stroke:#000000; stroke-linecap:round; stroke-linejoin:round; stroke-width:2; stroke-opacity:0.1; fill:none" points="673.595,1486.45 673.595,923.472 "/>
<polyline clip-path="url(#clip134)" style="stroke:#000000; stroke-linecap:round; stroke-linejoin:round; stroke-width:2; stroke-opacity:0.1; fill:none" points="899.849,1486.45 899.849,923.472 "/>
<polyline clip-path="url(#clip134)" style="stroke:#000000; stroke-linecap:round; stroke-linejoin:round; stroke-width:2; stroke-opacity:0.1; fill:none" points="1126.1,1486.45 1126.1,923.472 "/>
<polyline clip-path="url(#clip130)" style="stroke:#000000; stroke-linecap:round; stroke-linejoin:round; stroke-width:4; stroke-opacity:1; fill:none" points="193.936,1486.45 1153.25,1486.45 "/>
<polyline clip-path="url(#clip130)" style="stroke:#000000; stroke-linecap:round; stroke-linejoin:round; stroke-width:4; stroke-opacity:1; fill:none" points="221.086,1486.45 221.086,1467.55 "/>
<polyline clip-path="url(#clip130)" style="stroke:#000000; stroke-linecap:round; stroke-linejoin:round; stroke-width:4; stroke-opacity:1; fill:none" points="447.341,1486.45 447.341,1467.55 "/>
<polyline clip-path="url(#clip130)" style="stroke:#000000; stroke-linecap:round; stroke-linejoin:round; stroke-width:4; stroke-opacity:1; fill:none" points="673.595,1486.45 673.595,1467.55 "/>
<polyline clip-path="url(#clip130)" style="stroke:#000000; stroke-linecap:round; stroke-linejoin:round; stroke-width:4; stroke-opacity:1; fill:none" points="899.849,1486.45 899.849,1467.55 "/>
<polyline clip-path="url(#clip130)" style="stroke:#000000; stroke-linecap:round; stroke-linejoin:round; stroke-width:4; stroke-opacity:1; fill:none" points="1126.1,1486.45 1126.1,1467.55 "/>
<path clip-path="url(#clip130)" d="M167.615 1532.02 L197.29 1532.02 L197.29 1535.95 L167.615 1535.95 L167.615 1532.02 Z" fill="#000000" fill-rule="nonzero" fill-opacity="1" /><path clip-path="url(#clip130)" d="M208.193 1544.91 L215.832 1544.91 L215.832 1518.55 L207.522 1520.21 L207.522 1515.95 L215.786 1514.29 L220.461 1514.29 L220.461 1544.91 L228.1 1544.91 L228.1 1548.85 L208.193 1548.85 L208.193 1544.91 Z" fill="#000000" fill-rule="nonzero" fill-opacity="1" /><path clip-path="url(#clip130)" d="M237.545 1542.97 L242.429 1542.97 L242.429 1548.85 L237.545 1548.85 L237.545 1542.97 Z" fill="#000000" fill-rule="nonzero" fill-opacity="1" /><path clip-path="url(#clip130)" d="M262.614 1517.37 Q259.003 1517.37 257.174 1520.93 Q255.369 1524.47 255.369 1531.6 Q255.369 1538.71 257.174 1542.27 Q259.003 1545.82 262.614 1545.82 Q266.248 1545.82 268.054 1542.27 Q269.883 1538.71 269.883 1531.6 Q269.883 1524.47 268.054 1520.93 Q266.248 1517.37 262.614 1517.37 M262.614 1513.66 Q268.424 1513.66 271.48 1518.27 Q274.558 1522.85 274.558 1531.6 Q274.558 1540.33 271.48 1544.94 Q268.424 1549.52 262.614 1549.52 Q256.804 1549.52 253.725 1544.94 Q250.67 1540.33 250.67 1531.6 Q250.67 1522.85 253.725 1518.27 Q256.804 1513.66 262.614 1513.66 Z" fill="#000000" fill-rule="nonzero" fill-opacity="1" /><path clip-path="url(#clip130)" d="M394.366 1532.02 L424.042 1532.02 L424.042 1535.95 L394.366 1535.95 L394.366 1532.02 Z" fill="#000000" fill-rule="nonzero" fill-opacity="1" /><path clip-path="url(#clip130)" d="M444.135 1517.37 Q440.524 1517.37 438.695 1520.93 Q436.889 1524.47 436.889 1531.6 Q436.889 1538.71 438.695 1542.27 Q440.524 1545.82 444.135 1545.82 Q447.769 1545.82 449.574 1542.27 Q451.403 1538.71 451.403 1531.6 Q451.403 1524.47 449.574 1520.93 Q447.769 1517.37 444.135 1517.37 M444.135 1513.66 Q449.945 1513.66 453 1518.27 Q456.079 1522.85 456.079 1531.6 Q456.079 1540.33 453 1544.94 Q449.945 1549.52 444.135 1549.52 Q438.324 1549.52 435.246 1544.94 Q432.19 1540.33 432.19 1531.6 Q432.19 1522.85 435.246 1518.27 Q438.324 1513.66 444.135 1513.66 Z" fill="#000000" fill-rule="nonzero" fill-opacity="1" /><path clip-path="url(#clip130)" d="M464.297 1542.97 L469.181 1542.97 L469.181 1548.85 L464.297 1548.85 L464.297 1542.97 Z" fill="#000000" fill-rule="nonzero" fill-opacity="1" /><path clip-path="url(#clip130)" d="M479.412 1514.29 L497.769 1514.29 L497.769 1518.22 L483.695 1518.22 L483.695 1526.7 Q484.713 1526.35 485.732 1526.19 Q486.75 1526 487.769 1526 Q493.556 1526 496.935 1529.17 Q500.315 1532.34 500.315 1537.76 Q500.315 1543.34 496.843 1546.44 Q493.37 1549.52 487.051 1549.52 Q484.875 1549.52 482.607 1549.15 Q480.361 1548.78 477.954 1548.04 L477.954 1543.34 Q480.037 1544.47 482.259 1545.03 Q484.482 1545.58 486.958 1545.58 Q490.963 1545.58 493.301 1543.48 Q495.639 1541.37 495.639 1537.76 Q495.639 1534.15 493.301 1532.04 Q490.963 1529.94 486.958 1529.94 Q485.083 1529.94 483.209 1530.35 Q481.357 1530.77 479.412 1531.65 L479.412 1514.29 Z" fill="#000000" fill-rule="nonzero" fill-opacity="1" /><path clip-path="url(#clip130)" d="M650.979 1517.37 Q647.368 1517.37 645.539 1520.93 Q643.734 1524.47 643.734 1531.6 Q643.734 1538.71 645.539 1542.27 Q647.368 1545.82 650.979 1545.82 Q654.613 1545.82 656.419 1542.27 Q658.248 1538.71 658.248 1531.6 Q658.248 1524.47 656.419 1520.93 Q654.613 1517.37 650.979 1517.37 M650.979 1513.66 Q656.789 1513.66 659.845 1518.27 Q662.924 1522.85 662.924 1531.6 Q662.924 1540.33 659.845 1544.94 Q656.789 1549.52 650.979 1549.52 Q645.169 1549.52 642.09 1544.94 Q639.035 1540.33 639.035 1531.6 Q639.035 1522.85 642.09 1518.27 Q645.169 1513.66 650.979 1513.66 Z" fill="#000000" fill-rule="nonzero" fill-opacity="1" /><path clip-path="url(#clip130)" d="M671.141 1542.97 L676.025 1542.97 L676.025 1548.85 L671.141 1548.85 L671.141 1542.97 Z" fill="#000000" fill-rule="nonzero" fill-opacity="1" /><path clip-path="url(#clip130)" d="M696.21 1517.37 Q692.599 1517.37 690.771 1520.93 Q688.965 1524.47 688.965 1531.6 Q688.965 1538.71 690.771 1542.27 Q692.599 1545.82 696.21 1545.82 Q699.845 1545.82 701.65 1542.27 Q703.479 1538.71 703.479 1531.6 Q703.479 1524.47 701.65 1520.93 Q699.845 1517.37 696.21 1517.37 M696.21 1513.66 Q702.021 1513.66 705.076 1518.27 Q708.155 1522.85 708.155 1531.6 Q708.155 1540.33 705.076 1544.94 Q702.021 1549.52 696.21 1549.52 Q690.4 1549.52 687.322 1544.94 Q684.266 1540.33 684.266 1531.6 Q684.266 1522.85 687.322 1518.27 Q690.4 1513.66 696.21 1513.66 Z" fill="#000000" fill-rule="nonzero" fill-opacity="1" /><path clip-path="url(#clip130)" d="M877.731 1517.37 Q874.12 1517.37 872.291 1520.93 Q870.486 1524.47 870.486 1531.6 Q870.486 1538.71 872.291 1542.27 Q874.12 1545.82 877.731 1545.82 Q881.365 1545.82 883.171 1542.27 Q884.999 1538.71 884.999 1531.6 Q884.999 1524.47 883.171 1520.93 Q881.365 1517.37 877.731 1517.37 M877.731 1513.66 Q883.541 1513.66 886.597 1518.27 Q889.675 1522.85 889.675 1531.6 Q889.675 1540.33 886.597 1544.94 Q883.541 1549.52 877.731 1549.52 Q871.921 1549.52 868.842 1544.94 Q865.787 1540.33 865.787 1531.6 Q865.787 1522.85 868.842 1518.27 Q871.921 1513.66 877.731 1513.66 Z" fill="#000000" fill-rule="nonzero" fill-opacity="1" /><path clip-path="url(#clip130)" d="M897.893 1542.97 L902.777 1542.97 L902.777 1548.85 L897.893 1548.85 L897.893 1542.97 Z" fill="#000000" fill-rule="nonzero" fill-opacity="1" /><path clip-path="url(#clip130)" d="M913.009 1514.29 L931.365 1514.29 L931.365 1518.22 L917.291 1518.22 L917.291 1526.7 Q918.309 1526.35 919.328 1526.19 Q920.347 1526 921.365 1526 Q927.152 1526 930.532 1529.17 Q933.911 1532.34 933.911 1537.76 Q933.911 1543.34 930.439 1546.44 Q926.967 1549.52 920.647 1549.52 Q918.472 1549.52 916.203 1549.15 Q913.958 1548.78 911.55 1548.04 L911.55 1543.34 Q913.634 1544.47 915.856 1545.03 Q918.078 1545.58 920.555 1545.58 Q924.559 1545.58 926.897 1543.48 Q929.235 1541.37 929.235 1537.76 Q929.235 1534.15 926.897 1532.04 Q924.559 1529.94 920.555 1529.94 Q918.68 1529.94 916.805 1530.35 Q914.953 1530.77 913.009 1531.65 L913.009 1514.29 Z" fill="#000000" fill-rule="nonzero" fill-opacity="1" /><path clip-path="url(#clip130)" d="M1093.26 1544.91 L1100.89 1544.91 L1100.89 1518.55 L1092.58 1520.21 L1092.58 1515.95 L1100.85 1514.29 L1105.52 1514.29 L1105.52 1544.91 L1113.16 1544.91 L1113.16 1548.85 L1093.26 1548.85 L1093.26 1544.91 Z" fill="#000000" fill-rule="nonzero" fill-opacity="1" /><path clip-path="url(#clip130)" d="M1122.61 1542.97 L1127.49 1542.97 L1127.49 1548.85 L1122.61 1548.85 L1122.61 1542.97 Z" fill="#000000" fill-rule="nonzero" fill-opacity="1" /><path clip-path="url(#clip130)" d="M1147.68 1517.37 Q1144.07 1517.37 1142.24 1520.93 Q1140.43 1524.47 1140.43 1531.6 Q1140.43 1538.71 1142.24 1542.27 Q1144.07 1545.82 1147.68 1545.82 Q1151.31 1545.82 1153.12 1542.27 Q1154.95 1538.71 1154.95 1531.6 Q1154.95 1524.47 1153.12 1520.93 Q1151.31 1517.37 1147.68 1517.37 M1147.68 1513.66 Q1153.49 1513.66 1156.54 1518.27 Q1159.62 1522.85 1159.62 1531.6 Q1159.62 1540.33 1156.54 1544.94 Q1153.49 1549.52 1147.68 1549.52 Q1141.87 1549.52 1138.79 1544.94 Q1135.73 1540.33 1135.73 1531.6 Q1135.73 1522.85 1138.79 1518.27 Q1141.87 1513.66 1147.68 1513.66 Z" fill="#000000" fill-rule="nonzero" fill-opacity="1" /><polyline clip-path="url(#clip134)" style="stroke:#000000; stroke-linecap:round; stroke-linejoin:round; stroke-width:2; stroke-opacity:0.1; fill:none" points="193.936,1423.84 1153.25,1423.84 "/>
<polyline clip-path="url(#clip134)" style="stroke:#000000; stroke-linecap:round; stroke-linejoin:round; stroke-width:2; stroke-opacity:0.1; fill:none" points="193.936,1265.28 1153.25,1265.28 "/>
<polyline clip-path="url(#clip134)" style="stroke:#000000; stroke-linecap:round; stroke-linejoin:round; stroke-width:2; stroke-opacity:0.1; fill:none" points="193.936,1106.72 1153.25,1106.72 "/>
<polyline clip-path="url(#clip134)" style="stroke:#000000; stroke-linecap:round; stroke-linejoin:round; stroke-width:2; stroke-opacity:0.1; fill:none" points="193.936,948.154 1153.25,948.154 "/>
<polyline clip-path="url(#clip130)" style="stroke:#000000; stroke-linecap:round; stroke-linejoin:round; stroke-width:4; stroke-opacity:1; fill:none" points="193.936,1486.45 193.936,923.472 "/>
<polyline clip-path="url(#clip130)" style="stroke:#000000; stroke-linecap:round; stroke-linejoin:round; stroke-width:4; stroke-opacity:1; fill:none" points="193.936,1423.84 212.834,1423.84 "/>
<polyline clip-path="url(#clip130)" style="stroke:#000000; stroke-linecap:round; stroke-linejoin:round; stroke-width:4; stroke-opacity:1; fill:none" points="193.936,1265.28 212.834,1265.28 "/>
<polyline clip-path="url(#clip130)" style="stroke:#000000; stroke-linecap:round; stroke-linejoin:round; stroke-width:4; stroke-opacity:1; fill:none" points="193.936,1106.72 212.834,1106.72 "/>
<polyline clip-path="url(#clip130)" style="stroke:#000000; stroke-linecap:round; stroke-linejoin:round; stroke-width:4; stroke-opacity:1; fill:none" points="193.936,948.154 212.834,948.154 "/>
<path clip-path="url(#clip130)" d="M51.9875 1424.29 L81.6633 1424.29 L81.6633 1428.22 L51.9875 1428.22 L51.9875 1424.29 Z" fill="#000000" fill-rule="nonzero" fill-opacity="1" /><path clip-path="url(#clip130)" d="M101.756 1409.64 Q98.1447 1409.64 96.316 1413.2 Q94.5104 1416.74 94.5104 1423.87 Q94.5104 1430.98 96.316 1434.54 Q98.1447 1438.09 101.756 1438.09 Q105.39 1438.09 107.196 1434.54 Q109.024 1430.98 109.024 1423.87 Q109.024 1416.74 107.196 1413.2 Q105.39 1409.64 101.756 1409.64 M101.756 1405.93 Q107.566 1405.93 110.621 1410.54 Q113.7 1415.12 113.7 1423.87 Q113.7 1432.6 110.621 1437.21 Q107.566 1441.79 101.756 1441.79 Q95.9456 1441.79 92.8669 1437.21 Q89.8114 1432.6 89.8114 1423.87 Q89.8114 1415.12 92.8669 1410.54 Q95.9456 1405.93 101.756 1405.93 Z" fill="#000000" fill-rule="nonzero" fill-opacity="1" /><path clip-path="url(#clip130)" d="M121.918 1435.24 L126.802 1435.24 L126.802 1441.12 L121.918 1441.12 L121.918 1435.24 Z" fill="#000000" fill-rule="nonzero" fill-opacity="1" /><path clip-path="url(#clip130)" d="M137.033 1406.56 L155.39 1406.56 L155.39 1410.49 L141.316 1410.49 L141.316 1418.97 Q142.334 1418.62 143.353 1418.46 Q144.371 1418.27 145.39 1418.27 Q151.177 1418.27 154.556 1421.44 Q157.936 1424.61 157.936 1430.03 Q157.936 1435.61 154.464 1438.71 Q150.992 1441.79 144.672 1441.79 Q142.496 1441.79 140.228 1441.42 Q137.982 1441.05 135.575 1440.31 L135.575 1435.61 Q137.658 1436.74 139.881 1437.3 Q142.103 1437.85 144.58 1437.85 Q148.584 1437.85 150.922 1435.75 Q153.26 1433.64 153.26 1430.03 Q153.26 1426.42 150.922 1424.31 Q148.584 1422.21 144.58 1422.21 Q142.705 1422.21 140.83 1422.62 Q138.978 1423.04 137.033 1423.92 L137.033 1406.56 Z" fill="#000000" fill-rule="nonzero" fill-opacity="1" /><path clip-path="url(#clip130)" d="M100.76 1251.08 Q97.1493 1251.08 95.3206 1254.64 Q93.515 1258.18 93.515 1265.31 Q93.515 1272.42 95.3206 1275.98 Q97.1493 1279.52 100.76 1279.52 Q104.395 1279.52 106.2 1275.98 Q108.029 1272.42 108.029 1265.31 Q108.029 1258.18 106.2 1254.64 Q104.395 1251.08 100.76 1251.08 M100.76 1247.37 Q106.571 1247.37 109.626 1251.98 Q112.705 1256.56 112.705 1265.31 Q112.705 1274.04 109.626 1278.64 Q106.571 1283.23 100.76 1283.23 Q94.9502 1283.23 91.8715 1278.64 Q88.816 1274.04 88.816 1265.31 Q88.816 1256.56 91.8715 1251.98 Q94.9502 1247.37 100.76 1247.37 Z" fill="#000000" fill-rule="nonzero" fill-opacity="1" /><path clip-path="url(#clip130)" d="M120.922 1276.68 L125.807 1276.68 L125.807 1282.56 L120.922 1282.56 L120.922 1276.68 Z" fill="#000000" fill-rule="nonzero" fill-opacity="1" /><path clip-path="url(#clip130)" d="M145.992 1251.08 Q142.381 1251.08 140.552 1254.64 Q138.746 1258.18 138.746 1265.31 Q138.746 1272.42 140.552 1275.98 Q142.381 1279.52 145.992 1279.52 Q149.626 1279.52 151.431 1275.98 Q153.26 1272.42 153.26 1265.31 Q153.26 1258.18 151.431 1254.64 Q149.626 1251.08 145.992 1251.08 M145.992 1247.37 Q151.802 1247.37 154.857 1251.98 Q157.936 1256.56 157.936 1265.31 Q157.936 1274.04 154.857 1278.64 Q151.802 1283.23 145.992 1283.23 Q140.181 1283.23 137.103 1278.64 Q134.047 1274.04 134.047 1265.31 Q134.047 1256.56 137.103 1251.98 Q140.181 1247.37 145.992 1247.37 Z" fill="#000000" fill-rule="nonzero" fill-opacity="1" /><path clip-path="url(#clip130)" d="M101.756 1092.51 Q98.1447 1092.51 96.316 1096.08 Q94.5104 1099.62 94.5104 1106.75 Q94.5104 1113.86 96.316 1117.42 Q98.1447 1120.96 101.756 1120.96 Q105.39 1120.96 107.196 1117.42 Q109.024 1113.86 109.024 1106.75 Q109.024 1099.62 107.196 1096.08 Q105.39 1092.51 101.756 1092.51 M101.756 1088.81 Q107.566 1088.81 110.621 1093.42 Q113.7 1098 113.7 1106.75 Q113.7 1115.48 110.621 1120.08 Q107.566 1124.67 101.756 1124.67 Q95.9456 1124.67 92.8669 1120.08 Q89.8114 1115.48 89.8114 1106.75 Q89.8114 1098 92.8669 1093.42 Q95.9456 1088.81 101.756 1088.81 Z" fill="#000000" fill-rule="nonzero" fill-opacity="1" /><path clip-path="url(#clip130)" d="M121.918 1118.12 L126.802 1118.12 L126.802 1124 L121.918 1124 L121.918 1118.12 Z" fill="#000000" fill-rule="nonzero" fill-opacity="1" /><path clip-path="url(#clip130)" d="M137.033 1089.44 L155.39 1089.44 L155.39 1093.37 L141.316 1093.37 L141.316 1101.84 Q142.334 1101.5 143.353 1101.33 Q144.371 1101.15 145.39 1101.15 Q151.177 1101.15 154.556 1104.32 Q157.936 1107.49 157.936 1112.91 Q157.936 1118.49 154.464 1121.59 Q150.992 1124.67 144.672 1124.67 Q142.496 1124.67 140.228 1124.3 Q137.982 1123.93 135.575 1123.18 L135.575 1118.49 Q137.658 1119.62 139.881 1120.18 Q142.103 1120.73 144.58 1120.73 Q148.584 1120.73 150.922 1118.62 Q153.26 1116.52 153.26 1112.91 Q153.26 1109.3 150.922 1107.19 Q148.584 1105.08 144.58 1105.08 Q142.705 1105.08 140.83 1105.5 Q138.978 1105.92 137.033 1106.8 L137.033 1089.44 Z" fill="#000000" fill-rule="nonzero" fill-opacity="1" /><path clip-path="url(#clip130)" d="M91.5706 961.499 L99.2095 961.499 L99.2095 935.133 L90.8993 936.8 L90.8993 932.541 L99.1632 930.874 L103.839 930.874 L103.839 961.499 L111.478 961.499 L111.478 965.434 L91.5706 965.434 L91.5706 961.499 Z" fill="#000000" fill-rule="nonzero" fill-opacity="1" /><path clip-path="url(#clip130)" d="M120.922 959.554 L125.807 959.554 L125.807 965.434 L120.922 965.434 L120.922 959.554 Z" fill="#000000" fill-rule="nonzero" fill-opacity="1" /><path clip-path="url(#clip130)" d="M145.992 933.953 Q142.381 933.953 140.552 937.517 Q138.746 941.059 138.746 948.189 Q138.746 955.295 140.552 958.86 Q142.381 962.401 145.992 962.401 Q149.626 962.401 151.431 958.86 Q153.26 955.295 153.26 948.189 Q153.26 941.059 151.431 937.517 Q149.626 933.953 145.992 933.953 M145.992 930.249 Q151.802 930.249 154.857 934.855 Q157.936 939.439 157.936 948.189 Q157.936 956.915 154.857 961.522 Q151.802 966.105 145.992 966.105 Q140.181 966.105 137.103 961.522 Q134.047 956.915 134.047 948.189 Q134.047 939.439 137.103 934.855 Q140.181 930.249 145.992 930.249 Z" fill="#000000" fill-rule="nonzero" fill-opacity="1" /><path clip-path="url(#clip130)" d="M587.716 814.324 L587.716 827.206 L603.069 827.206 L603.069 832.999 L587.716 832.999 L587.716 857.628 Q587.716 863.178 589.214 864.758 Q590.754 866.338 595.412 866.338 L603.069 866.338 L603.069 872.576 L595.412 872.576 Q586.784 872.576 583.503 869.376 Q580.221 866.135 580.221 857.628 L580.221 832.999 L574.753 832.999 L574.753 827.206 L580.221 827.206 L580.221 814.324 L587.716 814.324 Z" fill="#000000" fill-rule="nonzero" fill-opacity="1" /><path clip-path="url(#clip130)" d="M640.215 834.903 L692.148 834.903 L692.148 841.708 L640.215 841.708 L640.215 834.903 M640.215 851.43 L692.148 851.43 L692.148 858.317 L640.215 858.317 L640.215 851.43 Z" fill="#000000" fill-rule="nonzero" fill-opacity="1" /><path clip-path="url(#clip130)" d="M737.599 865.689 L750.967 865.689 L750.967 819.55 L736.424 822.466 L736.424 815.013 L750.886 812.096 L759.069 812.096 L759.069 865.689 L772.437 865.689 L772.437 872.576 L737.599 872.576 L737.599 865.689 Z" fill="#000000" fill-rule="nonzero" fill-opacity="1" /><polyline clip-path="url(#clip134)" style="stroke:#009af9; stroke-linecap:round; stroke-linejoin:round; stroke-width:4; stroke-opacity:1; fill:none" points="221.086,1265.24 225.612,1262.97 230.137,1260.68 234.662,1258.37 239.187,1256.05 243.712,1253.71 248.237,1251.36 252.762,1249 257.287,1246.63 261.812,1244.25 266.337,1241.87 270.862,1239.48 275.387,1237.1 279.913,1234.72 284.438,1232.34 288.963,1229.98 293.488,1227.62 298.013,1225.27 302.538,1222.94 307.063,1220.62 311.588,1218.32 316.113,1216.03 320.638,1213.76 325.163,1211.49 329.688,1209.23 334.214,1206.97 338.739,1204.7 343.264,1202.4 347.789,1200.05 352.314,1197.64 356.839,1195.14 361.364,1192.5 365.889,1189.69 370.414,1186.66 374.939,1183.36 379.464,1179.72 383.989,1175.68 388.515,1171.18 393.04,1166.14 397.565,1160.51 402.09,1154.23 406.615,1147.28 411.14,1139.62 415.665,1131.26 420.19,1122.22 424.715,1112.55 429.24,1102.33 433.765,1091.65 438.29,1080.62 442.816,1069.36 447.341,1057.99 451.866,1046.67 456.391,1035.5 460.916,1024.6 465.441,1014.1 469.966,1004.07 474.491,994.607 479.016,985.775 483.541,977.63 488.066,970.215 492.591,963.563 497.117,957.697 501.642,952.633 506.167,948.383 510.692,944.951 515.217,942.34 519.742,940.548 524.267,939.571 528.792,939.405 533.317,940.043 537.842,941.477 542.367,943.697 546.892,946.693 551.418,950.453 555.943,954.964 560.468,960.212 564.993,966.18 569.518,972.85 574.043,980.203 578.568,988.217 583.093,996.868 587.618,1006.13 592.143,1015.98 596.668,1026.38 601.193,1037.3 605.719,1048.72 610.244,1060.59 614.769,1072.87 619.294,1085.53 623.819,1098.53 628.344,1111.83 632.869,1125.39 637.394,1139.16 641.919,1153.09 646.444,1167.15 650.969,1181.3 655.494,1195.48 660.02,1209.65 664.545,1223.78 669.07,1237.81 673.595,1251.7 678.12,1265.42 682.645,1278.93 687.17,1292.18 691.695,1305.14 696.22,1317.78 700.745,1330.06 705.27,1341.95 709.795,1353.41 714.321,1364.44 718.846,1374.99 723.371,1385.04 727.896,1394.58 732.421,1403.59 736.946,1412.06 741.471,1419.96 745.996,1427.29 750.521,1434.04 755.046,1440.22 759.571,1445.8 764.096,1450.8 768.622,1455.22 773.147,1459.05 777.672,1462.31 782.197,1465.01 786.722,1467.16 791.247,1468.77 795.772,1469.85 800.297,1470.43 804.822,1470.51 809.347,1470.14 813.872,1469.31 818.397,1468.07 822.923,1466.43 827.448,1464.42 831.973,1462.08 836.498,1459.41 841.023,1456.47 845.548,1453.27 850.073,1449.84 854.598,1446.22 859.123,1442.43 863.648,1438.51 868.173,1434.48 872.698,1430.36 877.224,1426.2 881.749,1421.99 886.274,1417.79 890.799,1413.59 895.324,1409.42 899.849,1405.3 904.374,1401.24 908.899,1397.25 913.424,1393.34 917.949,1389.52 922.474,1385.8 926.999,1382.17 931.525,1378.63 936.05,1375.19 940.575,1371.84 945.1,1368.58 949.625,1365.4 954.15,1362.3 958.675,1359.27 963.2,1356.31 967.725,1353.4 972.25,1350.55 976.775,1347.74 981.3,1344.97 985.826,1342.24 990.351,1339.54 994.876,1336.87 999.401,1334.22 1003.93,1331.59 1008.45,1328.99 1012.98,1326.4 1017.5,1323.82 1022.03,1321.26 1026.55,1318.71 1031.08,1316.18 1035.6,1313.66 1040.13,1311.15 1044.65,1308.65 1049.18,1306.16 1053.7,1303.69 1058.23,1301.23 1062.75,1298.78 1067.28,1296.34 1071.8,1293.91 1076.33,1291.49 1080.85,1289.08 1085.38,1286.68 1089.9,1284.28 1094.43,1281.89 1098.95,1279.51 1103.48,1277.13 1108,1274.76 1112.53,1272.39 1117.05,1270.03 1121.58,1267.66 1126.1,1265.3 "/>
<path clip-path="url(#clip130)" d="M972.914 1045.92 L1121.28 1045.92 L1121.28 942.238 L972.914 942.238  Z" fill="#ffffff" fill-rule="evenodd" fill-opacity="1"/>
<polyline clip-path="url(#clip130)" style="stroke:#000000; stroke-linecap:round; stroke-linejoin:round; stroke-width:4; stroke-opacity:1; fill:none" points="972.914,1045.92 1121.28,1045.92 1121.28,942.238 972.914,942.238 972.914,1045.92 "/>
<polyline clip-path="url(#clip130)" style="stroke:#009af9; stroke-linecap:round; stroke-linejoin:round; stroke-width:4; stroke-opacity:1; fill:none" points="983.573,994.078 1047.53,994.078 "/>
<path clip-path="url(#clip130)" d="M1072.03 1013.77 Q1070.22 1018.39 1068.51 1019.81 Q1066.8 1021.22 1063.93 1021.22 L1060.52 1021.22 L1060.52 1017.65 L1063.02 1017.65 Q1064.78 1017.65 1065.76 1016.82 Q1066.73 1015.99 1067.91 1012.89 L1068.67 1010.94 L1058.19 985.432 L1062.7 985.432 L1070.8 1005.71 L1078.9 985.432 L1083.42 985.432 L1072.03 1013.77 Z" fill="#000000" fill-rule="nonzero" fill-opacity="1" /><path clip-path="url(#clip130)" d="M1090.71 1007.42 L1098.35 1007.42 L1098.35 981.057 L1090.04 982.724 L1090.04 978.465 L1098.3 976.798 L1102.98 976.798 L1102.98 1007.42 L1110.62 1007.42 L1110.62 1011.36 L1090.71 1011.36 L1090.71 1007.42 Z" fill="#000000" fill-rule="nonzero" fill-opacity="1" /></svg>
