<?xml version="1.0" encoding="utf-8"?>
<svg xmlns="http://www.w3.org/2000/svg" xmlns:xlink="http://www.w3.org/1999/xlink" width="600" height="400" viewBox="0 0 2400 1600">
<defs>
  <clipPath id="clip530">
    <rect x="0" y="0" width="2400" height="1600"/>
  </clipPath>
</defs>
<path clip-path="url(#clip530)" d="M0 1600 L2400 1600 L2400 0 L0 0  Z" fill="#ffffff" fill-rule="evenodd" fill-opacity="1"/>
<defs>
  <clipPath id="clip531">
    <rect x="480" y="0" width="1681" height="1600"/>
  </clipPath>
</defs>
<path clip-path="url(#clip530)" d="M170.857 1486.45 L2352.76 1486.45 L2352.76 47.2441 L170.857 47.2441  Z" fill="#ffffff" fill-rule="evenodd" fill-opacity="1"/>
<defs>
  <clipPath id="clip532">
    <rect x="170" y="47" width="2183" height="1440"/>
  </clipPath>
</defs>
<polyline clip-path="url(#clip532)" style="stroke:#000000; stroke-linecap:round; stroke-linejoin:round; stroke-width:2; stroke-opacity:0.1; fill:none" points="326.173,1486.45 326.173,47.2441 "/>
<polyline clip-path="url(#clip532)" style="stroke:#000000; stroke-linecap:round; stroke-linejoin:round; stroke-width:2; stroke-opacity:0.1; fill:none" points="793.99,1486.45 793.99,47.2441 "/>
<polyline clip-path="url(#clip532)" style="stroke:#000000; stroke-linecap:round; stroke-linejoin:round; stroke-width:2; stroke-opacity:0.1; fill:none" points="1261.81,1486.45 1261.81,47.2441 "/>
<polyline clip-path="url(#clip532)" style="stroke:#000000; stroke-linecap:round; stroke-linejoin:round; stroke-width:2; stroke-opacity:0.1; fill:none" points="1729.62,1486.45 1729.62,47.2441 "/>
<polyline clip-path="url(#clip532)" style="stroke:#000000; stroke-linecap:round; stroke-linejoin:round; stroke-width:2; stroke-opacity:0.1; fill:none" points="2197.44,1486.45 2197.44,47.2441 "/>
<polyline clip-path="url(#clip530)" style="stroke:#000000; stroke-linecap:round; stroke-linejoin:round; stroke-width:4; stroke-opacity:1; fill:none" points="170.857,1486.45 2352.76,1486.45 "/>
<polyline clip-path="url(#clip530)" style="stroke:#000000; stroke-linecap:round; stroke-linejoin:round; stroke-width:4; stroke-opacity:1; fill:none" points="326.173,1486.45 326.173,1467.55 "/>
<polyline clip-path="url(#clip530)" style="stroke:#000000; stroke-linecap:round; stroke-linejoin:round; stroke-width:4; stroke-opacity:1; fill:none" points="793.99,1486.45 793.99,1467.55 "/>
<polyline clip-path="url(#clip530)" style="stroke:#000000; stroke-linecap:round; stroke-linejoin:round; stroke-width:4; stroke-opacity:1; fill:none" points="1261.81,1486.45 1261.81,1467.55 "/>
<polyline clip-path="url(#clip530)" style="stroke:#000000; stroke-linecap:round; stroke-linejoin:round; stroke-width:4; stroke-opacity:1; fill:none" points="1729.62,1486.45 1729.62,1467.55 "/>
<polyline clip-path="url(#clip530)" style="stroke:#000000; stroke-linecap:round; stroke-linejoin:round; stroke-width:4; stroke-opacity:1; fill:none" points="2197.44,1486.45 2197.44,1467.55 "/>
<path clip-path="url(#clip530)" d="M296.115 1532.02 L325.791 1532.02 L325.791 1535.95 L296.115 1535.95 L296.115 1532.02 Z" fill="#000000" fill-rule="nonzero" fill-opacity="1" /><path clip-path="url(#clip530)" d="M339.911 1544.91 L356.23 1544.91 L356.23 1548.85 L334.286 1548.85 L334.286 1544.91 Q336.948 1542.16 341.531 1537.53 Q346.138 1532.88 347.318 1531.53 Q349.564 1529.01 350.443 1527.27 Q351.346 1525.51 351.346 1523.82 Q351.346 1521.07 349.402 1519.33 Q347.48 1517.6 344.379 1517.6 Q342.18 1517.6 339.726 1518.36 Q337.295 1519.13 334.518 1520.68 L334.518 1515.95 Q337.342 1514.82 339.795 1514.24 Q342.249 1513.66 344.286 1513.66 Q349.656 1513.66 352.851 1516.35 Q356.045 1519.03 356.045 1523.52 Q356.045 1525.65 355.235 1527.57 Q354.448 1529.47 352.342 1532.07 Q351.763 1532.74 348.661 1535.95 Q345.559 1539.15 339.911 1544.91 Z" fill="#000000" fill-rule="nonzero" fill-opacity="1" /><path clip-path="url(#clip530)" d="M763.747 1532.02 L793.423 1532.02 L793.423 1535.95 L763.747 1535.95 L763.747 1532.02 Z" fill="#000000" fill-rule="nonzero" fill-opacity="1" /><path clip-path="url(#clip530)" d="M804.325 1544.91 L811.964 1544.91 L811.964 1518.55 L803.654 1520.21 L803.654 1515.95 L811.918 1514.29 L816.594 1514.29 L816.594 1544.91 L824.233 1544.91 L824.233 1548.85 L804.325 1548.85 L804.325 1544.91 Z" fill="#000000" fill-rule="nonzero" fill-opacity="1" /><path clip-path="url(#clip530)" d="M1261.81 1517.37 Q1258.2 1517.37 1256.37 1520.93 Q1254.56 1524.47 1254.56 1531.6 Q1254.56 1538.71 1256.37 1542.27 Q1258.2 1545.82 1261.81 1545.82 Q1265.44 1545.82 1267.25 1542.27 Q1269.08 1538.71 1269.08 1531.6 Q1269.08 1524.47 1267.25 1520.93 Q1265.44 1517.37 1261.81 1517.37 M1261.81 1513.66 Q1267.62 1513.66 1270.67 1518.27 Q1273.75 1522.85 1273.75 1531.6 Q1273.75 1540.33 1270.67 1544.94 Q1267.62 1549.52 1261.81 1549.52 Q1256 1549.52 1252.92 1544.94 Q1249.86 1540.33 1249.86 1531.6 Q1249.86 1522.85 1252.92 1518.27 Q1256 1513.66 1261.81 1513.66 Z" fill="#000000" fill-rule="nonzero" fill-opacity="1" /><path clip-path="url(#clip530)" d="M1720.01 1544.91 L1727.64 1544.91 L1727.64 1518.55 L1719.33 1520.21 L1719.33 1515.95 L1727.6 1514.29 L1732.27 1514.29 L1732.27 1544.91 L1739.91 1544.91 L1739.91 1548.85 L1720.01 1548.85 L1720.01 1544.91 Z" fill="#000000" fill-rule="nonzero" fill-opacity="1" /><path clip-path="url(#clip530)" d="M2192.09 1544.91 L2208.41 1544.91 L2208.41 1548.85 L2186.47 1548.85 L2186.47 1544.91 Q2189.13 1542.16 2193.71 1537.53 Q2198.32 1532.88 2199.5 1531.53 Q2201.75 1529.01 2202.63 1527.27 Q2203.53 1525.51 2203.53 1523.82 Q2203.53 1521.07 2201.58 1519.33 Q2199.66 1517.6 2196.56 1517.6 Q2194.36 1517.6 2191.91 1518.36 Q2189.48 1519.13 2186.7 1520.68 L2186.7 1515.95 Q2189.52 1514.82 2191.98 1514.24 Q2194.43 1513.66 2196.47 1513.66 Q2201.84 1513.66 2205.03 1516.35 Q2208.23 1519.03 2208.23 1523.52 Q2208.23 1525.65 2207.42 1527.57 Q2206.63 1529.47 2204.52 1532.07 Q2203.95 1532.74 2200.84 1535.95 Q2197.74 1539.15 2192.09 1544.91 Z" fill="#000000" fill-rule="nonzero" fill-opacity="1" /><polyline clip-path="url(#clip532)" style="stroke:#000000; stroke-linecap:round; stroke-linejoin:round; stroke-width:2; stroke-opacity:0.1; fill:none" points="170.857,1396.89 2352.76,1396.89 "/>
<polyline clip-path="url(#clip532)" style="stroke:#000000; stroke-linecap:round; stroke-linejoin:round; stroke-width:2; stroke-opacity:0.1; fill:none" points="170.857,1010.7 2352.76,1010.7 "/>
<polyline clip-path="url(#clip532)" style="stroke:#000000; stroke-linecap:round; stroke-linejoin:round; stroke-width:2; stroke-opacity:0.1; fill:none" points="170.857,624.513 2352.76,624.513 "/>
<polyline clip-path="url(#clip532)" style="stroke:#000000; stroke-linecap:round; stroke-linejoin:round; stroke-width:2; stroke-opacity:0.1; fill:none" points="170.857,238.326 2352.76,238.326 "/>
<polyline clip-path="url(#clip530)" style="stroke:#000000; stroke-linecap:round; stroke-linejoin:round; stroke-width:4; stroke-opacity:1; fill:none" points="170.857,1486.45 170.857,47.2441 "/>
<polyline clip-path="url(#clip530)" style="stroke:#000000; stroke-linecap:round; stroke-linejoin:round; stroke-width:4; stroke-opacity:1; fill:none" points="170.857,1396.89 189.755,1396.89 "/>
<polyline clip-path="url(#clip530)" style="stroke:#000000; stroke-linecap:round; stroke-linejoin:round; stroke-width:4; stroke-opacity:1; fill:none" points="170.857,1010.7 189.755,1010.7 "/>
<polyline clip-path="url(#clip530)" style="stroke:#000000; stroke-linecap:round; stroke-linejoin:round; stroke-width:4; stroke-opacity:1; fill:none" points="170.857,624.513 189.755,624.513 "/>
<polyline clip-path="url(#clip530)" style="stroke:#000000; stroke-linecap:round; stroke-linejoin:round; stroke-width:4; stroke-opacity:1; fill:none" points="170.857,238.326 189.755,238.326 "/>
<path clip-path="url(#clip530)" d="M122.913 1382.68 Q119.302 1382.68 117.473 1386.25 Q115.668 1389.79 115.668 1396.92 Q115.668 1404.03 117.473 1407.59 Q119.302 1411.13 122.913 1411.13 Q126.547 1411.13 128.353 1407.59 Q130.182 1404.03 130.182 1396.92 Q130.182 1389.79 128.353 1386.25 Q126.547 1382.68 122.913 1382.68 M122.913 1378.98 Q128.723 1378.98 131.779 1383.59 Q134.857 1388.17 134.857 1396.92 Q134.857 1405.65 131.779 1410.25 Q128.723 1414.84 122.913 1414.84 Q117.103 1414.84 114.024 1410.25 Q110.969 1405.65 110.969 1396.92 Q110.969 1388.17 114.024 1383.59 Q117.103 1378.98 122.913 1378.98 Z" fill="#000000" fill-rule="nonzero" fill-opacity="1" /><path clip-path="url(#clip530)" d="M53.3995 1024.04 L61.0384 1024.04 L61.0384 997.678 L52.7282 999.345 L52.7282 995.086 L60.9921 993.419 L65.668 993.419 L65.668 1024.04 L73.3068 1024.04 L73.3068 1027.98 L53.3995 1027.98 L53.3995 1024.04 Z" fill="#000000" fill-rule="nonzero" fill-opacity="1" /><path clip-path="url(#clip530)" d="M92.7512 996.498 Q89.1401 996.498 87.3114 1000.06 Q85.5058 1003.6 85.5058 1010.73 Q85.5058 1017.84 87.3114 1021.4 Q89.1401 1024.95 92.7512 1024.95 Q96.3854 1024.95 98.1909 1021.4 Q100.02 1017.84 100.02 1010.73 Q100.02 1003.6 98.1909 1000.06 Q96.3854 996.498 92.7512 996.498 M92.7512 992.794 Q98.5613 992.794 101.617 997.4 Q104.696 1001.98 104.696 1010.73 Q104.696 1019.46 101.617 1024.07 Q98.5613 1028.65 92.7512 1028.65 Q86.941 1028.65 83.8623 1024.07 Q80.8068 1019.46 80.8068 1010.73 Q80.8068 1001.98 83.8623 997.4 Q86.941 992.794 92.7512 992.794 Z" fill="#000000" fill-rule="nonzero" fill-opacity="1" /><path clip-path="url(#clip530)" d="M122.913 996.498 Q119.302 996.498 117.473 1000.06 Q115.668 1003.6 115.668 1010.73 Q115.668 1017.84 117.473 1021.4 Q119.302 1024.95 122.913 1024.95 Q126.547 1024.95 128.353 1021.4 Q130.182 1017.84 130.182 1010.73 Q130.182 1003.6 128.353 1000.06 Q126.547 996.498 122.913 996.498 M122.913 992.794 Q128.723 992.794 131.779 997.4 Q134.857 1001.98 134.857 1010.73 Q134.857 1019.46 131.779 1024.07 Q128.723 1028.65 122.913 1028.65 Q117.103 1028.65 114.024 1024.07 Q110.969 1019.46 110.969 1010.73 Q110.969 1001.98 114.024 997.4 Q117.103 992.794 122.913 992.794 Z" fill="#000000" fill-rule="nonzero" fill-opacity="1" /><path clip-path="url(#clip530)" d="M56.6171 637.858 L72.9365 637.858 L72.9365 641.793 L50.9921 641.793 L50.9921 637.858 Q53.6541 635.103 58.2375 630.473 Q62.8439 625.821 64.0245 624.478 Q66.2698 621.955 67.1494 620.219 Q68.0522 618.459 68.0522 616.77 Q68.0522 614.015 66.1078 612.279 Q64.1865 610.543 61.0847 610.543 Q58.8856 610.543 56.4319 611.307 Q54.0014 612.071 51.2236 613.622 L51.2236 608.899 Q54.0477 607.765 56.5014 607.186 Q58.955 606.608 60.9921 606.608 Q66.3624 606.608 69.5568 609.293 Q72.7513 611.978 72.7513 616.469 Q72.7513 618.598 71.9411 620.52 Q71.1541 622.418 69.0476 625.01 Q68.4689 625.682 65.367 628.899 Q62.2652 632.094 56.6171 637.858 Z" fill="#000000" fill-rule="nonzero" fill-opacity="1" /><path clip-path="url(#clip530)" d="M92.7512 610.311 Q89.1401 610.311 87.3114 613.876 Q85.5058 617.418 85.5058 624.547 Q85.5058 631.654 87.3114 635.219 Q89.1401 638.76 92.7512 638.76 Q96.3854 638.76 98.1909 635.219 Q100.02 631.654 100.02 624.547 Q100.02 617.418 98.1909 613.876 Q96.3854 610.311 92.7512 610.311 M92.7512 606.608 Q98.5613 606.608 101.617 611.214 Q104.696 615.797 104.696 624.547 Q104.696 633.274 101.617 637.881 Q98.5613 642.464 92.7512 642.464 Q86.941 642.464 83.8623 637.881 Q80.8068 633.274 80.8068 624.547 Q80.8068 615.797 83.8623 611.214 Q86.941 606.608 92.7512 606.608 Z" fill="#000000" fill-rule="nonzero" fill-opacity="1" /><path clip-path="url(#clip530)" d="M122.913 610.311 Q119.302 610.311 117.473 613.876 Q115.668 617.418 115.668 624.547 Q115.668 631.654 117.473 635.219 Q119.302 638.76 122.913 638.76 Q126.547 638.76 128.353 635.219 Q130.182 631.654 130.182 624.547 Q130.182 617.418 128.353 613.876 Q126.547 610.311 122.913 610.311 M122.913 606.608 Q128.723 606.608 131.779 611.214 Q134.857 615.797 134.857 624.547 Q134.857 633.274 131.779 637.881 Q128.723 642.464 122.913 642.464 Q117.103 642.464 114.024 637.881 Q110.969 633.274 110.969 624.547 Q110.969 615.797 114.024 611.214 Q117.103 606.608 122.913 606.608 Z" fill="#000000" fill-rule="nonzero" fill-opacity="1" /><path clip-path="url(#clip530)" d="M66.7559 236.972 Q70.1124 237.69 71.9874 239.958 Q73.8855 242.227 73.8855 245.56 Q73.8855 250.676 70.367 253.477 Q66.8485 256.278 60.3671 256.278 Q58.1912 256.278 55.8764 255.838 Q53.5847 255.421 51.131 254.565 L51.131 250.051 Q53.0754 251.185 55.3903 251.764 Q57.7051 252.342 60.2282 252.342 Q64.6263 252.342 66.918 250.606 Q69.2328 248.87 69.2328 245.56 Q69.2328 242.505 67.08 240.792 Q64.9504 239.055 61.131 239.055 L57.1032 239.055 L57.1032 235.213 L61.3161 235.213 Q64.7652 235.213 66.5939 233.847 Q68.4226 232.458 68.4226 229.866 Q68.4226 227.204 66.5245 225.792 Q64.6495 224.357 61.131 224.357 Q59.2097 224.357 57.0106 224.773 Q54.8115 225.19 52.1727 226.069 L52.1727 221.903 Q54.8347 221.162 57.1495 220.792 Q59.4875 220.421 61.5476 220.421 Q66.8717 220.421 69.9735 222.852 Q73.0753 225.259 73.0753 229.38 Q73.0753 232.25 71.4318 234.241 Q69.7883 236.208 66.7559 236.972 Z" fill="#000000" fill-rule="nonzero" fill-opacity="1" /><path clip-path="url(#clip530)" d="M92.7512 224.125 Q89.1401 224.125 87.3114 227.69 Q85.5058 231.231 85.5058 238.361 Q85.5058 245.467 87.3114 249.032 Q89.1401 252.574 92.7512 252.574 Q96.3854 252.574 98.1909 249.032 Q100.02 245.467 100.02 238.361 Q100.02 231.231 98.1909 227.69 Q96.3854 224.125 92.7512 224.125 M92.7512 220.421 Q98.5613 220.421 101.617 225.028 Q104.696 229.611 104.696 238.361 Q104.696 247.088 101.617 251.694 Q98.5613 256.278 92.7512 256.278 Q86.941 256.278 83.8623 251.694 Q80.8068 247.088 80.8068 238.361 Q80.8068 229.611 83.8623 225.028 Q86.941 220.421 92.7512 220.421 Z" fill="#000000" fill-rule="nonzero" fill-opacity="1" /><path clip-path="url(#clip530)" d="M122.913 224.125 Q119.302 224.125 117.473 227.69 Q115.668 231.231 115.668 238.361 Q115.668 245.467 117.473 249.032 Q119.302 252.574 122.913 252.574 Q126.547 252.574 128.353 249.032 Q130.182 245.467 130.182 238.361 Q130.182 231.231 128.353 227.69 Q126.547 224.125 122.913 224.125 M122.913 220.421 Q128.723 220.421 131.779 225.028 Q134.857 229.611 134.857 238.361 Q134.857 247.088 131.779 251.694 Q128.723 256.278 122.913 256.278 Q117.103 256.278 114.024 251.694 Q110.969 247.088 110.969 238.361 Q110.969 229.611 114.024 225.028 Q117.103 220.421 122.913 220.421 Z" fill="#000000" fill-rule="nonzero" fill-opacity="1" /><polyline clip-path="url(#clip532)" style="stroke:#009af9; stroke-linecap:round; stroke-linejoin:round; stroke-width:4; stroke-opacity:1; fill:none" points="232.609,1396.89 237.287,1396.89 241.966,1396.89 246.644,1396.89 251.322,1396.89 256,1396.89 260.678,1396.89 265.356,1396.89 270.035,1396.89 274.713,1396.89 279.391,1396.88 284.069,1396.88 288.747,1396.88 293.425,1396.88 298.104,1396.88 302.782,1396.88 307.46,1396.88 312.138,1396.88 316.816,1396.88 321.494,1396.88 326.173,1396.88 330.851,1396.88 335.529,1396.87 340.207,1396.87 344.885,1396.86 349.564,1396.86 354.242,1396.85 358.92,1396.84 363.598,1396.83 368.276,1396.81 372.954,1396.79 377.633,1396.77 382.311,1396.74 386.989,1396.71 391.667,1396.66 396.345,1396.61 401.023,1396.55 405.702,1396.47 410.38,1396.38 415.058,1396.27 419.736,1396.14 424.414,1395.99 429.092,1395.81 433.771,1395.59 438.449,1395.34 443.127,1395.05 447.805,1394.7 452.483,1394.31 457.161,1393.85 461.84,1393.32 466.518,1392.71 471.196,1392.01 475.874,1391.22 480.552,1390.32 485.23,1389.3 489.909,1388.14 494.587,1386.84 499.265,1385.39 503.943,1383.75 508.621,1381.94 513.299,1379.91 517.978,1377.67 522.656,1375.2 527.334,1372.47 532.012,1369.47 536.69,1366.19 541.368,1362.6 546.047,1358.7 550.725,1354.46 555.403,1349.87 560.081,1344.91 564.759,1339.58 569.438,1333.84 574.116,1327.7 578.794,1321.14 583.472,1314.15 588.15,1306.72 592.828,1298.84 597.507,1290.51 602.185,1281.72 606.863,1272.48 611.541,1262.77 616.219,1252.61 620.897,1242 625.576,1230.94 630.254,1219.44 634.932,1207.51 639.61,1195.17 644.288,1182.43 648.966,1169.3 653.645,1155.82 658.323,1141.98 663.001,1127.83 667.679,1113.38 672.357,1098.67 677.035,1083.71 681.714,1068.53 686.392,1053.18 691.07,1037.67 695.748,1022.04 700.426,1006.32 705.104,990.556 709.783,974.767 714.461,958.991 719.139,943.263 723.817,927.616 728.495,912.082 733.173,896.694 737.852,881.485 742.53,866.484 747.208,851.723 751.886,837.229 756.564,823.031 761.242,809.155 765.921,795.625 770.599,782.466 775.277,769.698 779.955,757.341 784.633,745.415 789.311,733.935 793.99,722.916 798.668,712.372 803.346,702.313 808.024,692.749 812.702,683.688 817.381,675.136 822.059,667.096 826.737,659.573 831.415,652.565 836.093,646.074 840.771,640.097 845.45,634.63 850.128,629.669 854.806,625.208 859.484,621.239 864.162,617.755 868.84,614.746 873.519,612.201 878.197,610.11 882.875,608.461 887.553,607.24 892.231,606.435 896.909,606.031 901.588,606.015 906.266,606.372 910.944,607.087 915.622,608.144 920.3,609.528 924.978,611.224 929.657,613.216 934.335,615.488 939.013,618.024 943.691,620.809 948.369,623.828 953.047,627.065 957.726,630.505 962.404,634.134 967.082,637.936 971.76,641.898 976.438,646.005 981.116,650.245 985.795,654.602 990.473,659.066 995.151,663.623 999.829,668.26 1004.51,672.967 1009.19,677.733 1013.86,682.545 1018.54,687.394 1023.22,692.27 1027.9,697.163 1032.58,702.063 1037.25,706.962 1041.93,711.852 1046.61,716.724 1051.29,721.571 1055.97,726.386 1060.65,731.161 1065.32,735.89 1070,740.567 1074.68,745.185 1079.36,749.741 1084.04,754.227 1088.71,758.64 1093.39,762.975 1098.07,767.227 1102.75,771.392 1107.43,775.467 1112.11,779.447 1116.78,783.331 1121.46,787.114 1126.14,790.794 1130.82,794.367 1135.5,797.833 1140.17,801.187 1144.85,804.429 1149.53,807.555 1154.21,810.565 1158.89,813.457 1163.57,816.229 1168.24,818.879 1172.92,821.407 1177.6,823.812 1182.28,826.091 1186.96,828.245 1191.63,830.272 1196.31,832.171 1200.99,833.942 1205.67,835.585 1210.35,837.098 1215.02,838.481 1219.7,839.733 1224.38,840.855 1229.06,841.845 1233.74,842.704 1238.42,843.432 1243.09,844.027 1247.77,844.49 1252.45,844.821 1257.13,845.02 1261.81,845.086 1266.48,845.02 1271.16,844.821 1275.84,844.49 1280.52,844.027 1285.2,843.432 1289.88,842.704 1294.55,841.845 1299.23,840.855 1303.91,839.733 1308.59,838.481 1313.27,837.098 1317.94,835.585 1322.62,833.942 1327.3,832.171 1331.98,830.272 1336.66,828.245 1341.34,826.091 1346.01,823.812 1350.69,821.407 1355.37,818.879 1360.05,816.229 1364.73,813.457 1369.4,810.565 1374.08,807.555 1378.76,804.429 1383.44,801.187 1388.12,797.833 1392.8,794.367 1397.47,790.794 1402.15,787.114 1406.83,783.331 1411.51,779.447 1416.19,775.467 1420.86,771.392 1425.54,767.227 1430.22,762.975 1434.9,758.64 1439.58,754.227 1444.26,749.741 1448.93,745.185 1453.61,740.567 1458.29,735.89 1462.97,731.161 1467.65,726.386 1472.32,721.571 1477,716.724 1481.68,711.852 1486.36,706.962 1491.04,702.063 1495.72,697.163 1500.39,692.27 1505.07,687.394 1509.75,682.545 1514.43,677.733 1519.11,672.967 1523.78,668.26 1528.46,663.623 1533.14,659.066 1537.82,654.602 1542.5,650.245 1547.18,646.005 1551.85,641.898 1556.53,637.936 1561.21,634.134 1565.89,630.505 1570.57,627.065 1575.24,623.828 1579.92,620.809 1584.6,618.024 1589.28,615.488 1593.96,613.216 1598.63,611.224 1603.31,609.528 1607.99,608.144 1612.67,607.087 1617.35,606.372 1622.03,606.015 1626.7,606.031 1631.38,606.435 1636.06,607.24 1640.74,608.461 1645.42,610.11 1650.09,612.201 1654.77,614.746 1659.45,617.755 1664.13,621.239 1668.81,625.208 1673.49,629.669 1678.16,634.63 1682.84,640.097 1687.52,646.074 1692.2,652.565 1696.88,659.573 1701.55,667.096 1706.23,675.136 1710.91,683.688 1715.59,692.749 1720.27,702.313 1724.95,712.372 1729.62,722.916 1734.3,733.935 1738.98,745.415 1743.66,757.341 1748.34,769.698 1753.01,782.466 1757.69,795.625 1762.37,809.155 1767.05,823.031 1771.73,837.229 1776.41,851.723 1781.08,866.484 1785.76,881.485 1790.44,896.694 1795.12,912.082 1799.8,927.616 1804.47,943.263 1809.15,958.991 1813.83,974.767 1818.51,990.556 1823.19,1006.32 1827.87,1022.04 1832.54,1037.67 1837.22,1053.18 1841.9,1068.53 1846.58,1083.71 1851.26,1098.67 1855.93,1113.38 1860.61,1127.83 1865.29,1141.98 1869.97,1155.82 1874.65,1169.3 1879.33,1182.43 1884,1195.17 1888.68,1207.51 1893.36,1219.44 1898.04,1230.94 1902.72,1242 1907.39,1252.61 1912.07,1262.77 1916.75,1272.48 1921.43,1281.72 1926.11,1290.51 1930.78,1298.84 1935.46,1306.72 1940.14,1314.15 1944.82,1321.14 1949.5,1327.7 1954.18,1333.84 1958.85,1339.58 1963.53,1344.91 1968.21,1349.87 1972.89,1354.46 1977.57,1358.7 1982.24,1362.6 1986.92,1366.19 1991.6,1369.47 1996.28,1372.47 2000.96,1375.2 2005.64,1377.67 2010.31,1379.91 2014.99,1381.94 2019.67,1383.75 2024.35,1385.39 2029.03,1386.84 2033.7,1388.14 2038.38,1389.3 2043.06,1390.32 2047.74,1391.22 2052.42,1392.01 2057.1,1392.71 2061.77,1393.32 2066.45,1393.85 2071.13,1394.31 2075.81,1394.7 2080.49,1395.05 2085.16,1395.34 2089.84,1395.59 2094.52,1395.81 2099.2,1395.99 2103.88,1396.14 2108.56,1396.27 2113.23,1396.38 2117.91,1396.47 2122.59,1396.55 2127.27,1396.61 2131.95,1396.66 2136.62,1396.71 2141.3,1396.74 2145.98,1396.77 2150.66,1396.79 2155.34,1396.81 2160.02,1396.83 2164.69,1396.84 2169.37,1396.85 2174.05,1396.86 2178.73,1396.86 2183.41,1396.87 2188.08,1396.87 2192.76,1396.88 2197.44,1396.88 2202.12,1396.88 2206.8,1396.88 2211.48,1396.88 2216.15,1396.88 2220.83,1396.88 2225.51,1396.88 2230.19,1396.88 2234.87,1396.88 2239.54,1396.88 2244.22,1396.88 2248.9,1396.89 2253.58,1396.89 2258.26,1396.89 2262.94,1396.89 2267.61,1396.89 2272.29,1396.89 2276.97,1396.89 2281.65,1396.89 2286.33,1396.89 2291,1396.89 "/>
<polyline clip-path="url(#clip532)" style="stroke:#e26f46; stroke-linecap:round; stroke-linejoin:round; stroke-width:4; stroke-opacity:1; fill:none" points="232.609,1396.89 237.287,1396.89 241.966,1396.89 246.644,1396.89 251.322,1396.89 256,1396.89 260.678,1396.89 265.356,1396.89 270.035,1396.89 274.713,1396.89 279.391,1396.89 284.069,1396.89 288.747,1396.89 293.425,1396.89 298.104,1396.89 302.782,1396.89 307.46,1396.89 312.138,1396.89 316.816,1396.89 321.494,1396.89 326.173,1396.89 330.851,1396.89 335.529,1396.89 340.207,1396.88 344.885,1396.88 349.564,1396.88 354.242,1396.87 358.92,1396.86 363.598,1396.85 368.276,1396.83 372.954,1396.81 377.633,1396.79 382.311,1396.76 386.989,1396.73 391.667,1396.69 396.345,1396.64 401.023,1396.58 405.702,1396.51 410.38,1396.43 415.058,1396.34 419.736,1396.23 424.414,1396.1 429.092,1395.96 433.771,1395.8 438.449,1395.61 443.127,1395.4 447.805,1395.16 452.483,1394.89 457.161,1394.58 461.84,1394.24 466.518,1393.85 471.196,1393.41 475.874,1392.92 480.552,1392.37 485.23,1391.76 489.909,1391.07 494.587,1390.3 499.265,1389.44 503.943,1388.49 508.621,1387.42 513.299,1386.23 517.978,1384.89 522.656,1383.41 527.334,1381.74 532.012,1379.88 536.69,1377.8 541.368,1375.47 546.047,1372.86 550.725,1369.93 555.403,1366.63 560.081,1362.91 564.759,1358.71 569.438,1353.95 574.116,1348.55 578.794,1342.4 583.472,1335.37 588.15,1327.3 592.828,1317.99 597.507,1307.21 602.185,1294.63 606.863,1279.87 611.541,1262.42 616.219,1241.62 620.897,1216.61 625.576,1186.28 630.254,1149.27 634.932,1104.07 639.61,1049.31 644.288,984.452 648.966,910.376 653.645,829.267 658.323,743.134 663.001,653.503 667.679,565.805 672.357,492.737 677.035,442.991 681.714,405.716 686.392,354.576 691.07,281.766 695.748,228.074 700.426,207.505 705.104,201.721 709.783,200.186 714.461,199.764 719.139,199.64 723.817,199.6 728.495,199.585 733.173,199.58 737.852,199.577 742.53,199.576 747.208,199.577 751.886,199.584 756.564,199.713 761.242,201.698 765.921,208.509 770.599,213.833 775.277,215.978 779.955,216.661 784.633,216.793 789.311,216.74 793.99,216.633 798.668,216.518 803.346,216.41 808.024,216.314 812.702,216.23 817.381,216.121 822.059,215.421 826.737,209.671 831.415,201.853 836.093,200.814 840.771,104.637 845.45,88.0427 850.128,88.0172 854.806,88.0061 859.484,87.9924 864.162,87.9763 868.84,87.9782 873.519,89.1836 878.197,110.793 882.875,223.822 887.553,230.508 892.231,228.474 896.909,225.536 901.588,224.332 906.266,223.94 910.944,223.821 915.622,223.71 920.3,223.067 924.978,218.934 929.657,201.221 934.335,165.466 939.013,135.946 943.691,122.208 948.369,116.7 953.047,114.373 957.726,113.288 962.404,112.735 967.082,112.434 971.76,112.264 976.438,112.167 981.116,112.115 985.795,112.09 990.473,112.079 995.151,112.074 999.829,112.067 1004.51,112.051 1009.19,112.02 1013.86,111.971 1018.54,111.903 1023.22,111.817 1027.9,111.719 1032.58,111.617 1037.25,111.518 1041.93,111.428 1046.61,111.352 1051.29,111.29 1055.97,111.241 1060.65,111.2 1065.32,111.164 1070,111.128 1074.68,111.089 1079.36,111.046 1084.04,110.996 1088.71,110.941 1093.39,110.88 1098.07,110.814 1102.75,110.743 1107.43,110.669 1112.11,110.589 1116.78,110.505 1121.46,110.422 1126.14,110.351 1130.82,110.305 1135.5,110.288 1140.17,110.308 1144.85,110.427 1149.53,110.787 1154.21,111.18 1158.89,111.307 1163.57,111.838 1168.24,113.631 1172.92,116.55 1177.6,124.815 1182.28,161.159 1186.96,210.362 1191.63,221.78 1196.31,223.366 1200.99,223.668 1205.67,223.747 1210.35,223.771 1215.02,223.781 1219.7,223.789 1224.38,223.811 1229.06,223.892 1233.74,224.227 1238.42,225.641 1243.09,231.484 1247.77,253.377 1252.45,319.489 1257.13,471.582 1261.81,730.519 1266.48,990.071 1271.16,1145.12 1275.84,1220.99 1280.52,1264.18 1285.2,1297.39 1289.88,1327.05 1294.55,1353.16 1299.23,1374.74 1303.91,1391.6 1308.59,1404.23 1313.27,1413.36 1317.94,1419.66 1322.62,1423.65 1327.3,1425.72 1331.98,1426.15 1336.66,1425.14 1341.34,1422.85 1346.01,1419.45 1350.69,1415.08 1355.37,1409.92 1360.05,1404.14 1364.73,1397.93 1369.4,1391.47 1374.08,1384.95 1378.76,1378.51 1383.44,1372.3 1388.12,1366.42 1392.8,1360.95 1397.47,1355.96 1402.15,1351.48 1406.83,1347.54 1411.51,1344.16 1416.19,1341.34 1420.86,1339.1 1425.54,1337.44 1430.22,1336.37 1434.9,1335.88 1439.58,1335.98 1444.26,1336.68 1448.93,1337.97 1453.61,1339.86 1458.29,1342.32 1462.97,1345.33 1467.65,1348.83 1472.32,1352.7 1477,1356.76 1481.68,1360.77 1486.36,1364.47 1491.04,1367.68 1495.72,1370.47 1500.39,1373.56 1505.07,1379.39 1509.75,1393.37 1514.43,1416.47 1519.11,1436.63 1523.78,1445.72 1528.46,1445.57 1533.14,1439.73 1537.82,1430.86 1542.5,1421.13 1547.18,1412.28 1551.85,1405.41 1556.53,1400.78 1561.21,1398.07 1565.89,1396.7 1570.57,1396.13 1575.24,1396.01 1579.92,1396.08 1584.6,1396.22 1589.28,1396.37 1593.96,1396.51 1598.63,1396.61 1603.31,1396.69 1607.99,1396.75 1612.67,1396.8 1617.35,1396.83 1622.03,1396.85 1626.7,1396.87 1631.38,1396.88 1636.06,1396.9 1640.74,1396.91 1645.42,1396.92 1650.09,1396.93 1654.77,1396.93 1659.45,1396.94 1664.13,1396.95 1668.81,1396.96 1673.49,1396.97 1678.16,1396.98 1682.84,1396.99 1687.52,1397 1692.2,1397.01 1696.88,1397.02 1701.55,1397.02 1706.23,1397.03 1710.91,1397.04 1715.59,1397.05 1720.27,1397.05 1724.95,1397.06 1729.62,1397.06 1734.3,1397.07 1738.98,1397.07 1743.66,1397.08 1748.34,1397.08 1753.01,1397.09 1757.69,1397.09 1762.37,1397.09 1767.05,1397.1 1771.73,1397.1 1776.41,1397.1 1781.08,1397.1 1785.76,1397.11 1790.44,1397.11 1795.12,1397.11 1799.8,1397.11 1804.47,1397.11 1809.15,1397.11 1813.83,1397.11 1818.51,1397.11 1823.19,1397.11 1827.87,1397.11 1832.54,1397.11 1837.22,1397.11 1841.9,1397.11 1846.58,1397.11 1851.26,1397.11 1855.93,1397.11 1860.61,1397.11 1865.29,1397.11 1869.97,1397.11 1874.65,1397.1 1879.33,1397.1 1884,1397.1 1888.68,1397.09 1893.36,1397.09 1898.04,1397.09 1902.72,1397.08 1907.39,1397.08 1912.07,1397.07 1916.75,1397.06 1921.43,1397.06 1926.11,1397.05 1930.78,1397.04 1935.46,1397.03 1940.14,1397.02 1944.82,1397.01 1949.5,1397 1954.18,1396.99 1958.85,1396.98 1963.53,1396.97 1968.21,1396.96 1972.89,1396.94 1977.57,1396.93 1982.24,1396.92 1986.92,1396.9 1991.6,1396.89 1996.28,1396.88 2000.96,1396.87 2005.64,1396.85 2010.31,1396.84 2014.99,1396.83 2019.67,1396.82 2024.35,1396.82 2029.03,1396.81 2033.7,1396.8 2038.38,1396.8 2043.06,1396.8 2047.74,1396.79 2052.42,1396.79 2057.1,1396.79 2061.77,1396.79 2066.45,1396.79 2071.13,1396.8 2075.81,1396.8 2080.49,1396.8 2085.16,1396.8 2089.84,1396.8 2094.52,1396.81 2099.2,1396.81 2103.88,1396.81 2108.56,1396.81 2113.23,1396.82 2117.91,1396.82 2122.59,1396.82 2127.27,1396.82 2131.95,1396.82 2136.62,1396.82 2141.3,1396.82 2145.98,1396.83 2150.66,1396.83 2155.34,1396.83 2160.02,1396.83 2164.69,1396.83 2169.37,1396.83 2174.05,1396.83 2178.73,1396.83 2183.41,1396.84 2188.08,1396.84 2192.76,1396.84 2197.44,1396.84 2202.12,1396.84 2206.8,1396.84 2211.48,1396.84 2216.15,1396.84 2220.83,1396.84 2225.51,1396.85 2230.19,1396.85 2234.87,1396.85 2239.54,1396.85 2244.22,1396.85 2248.9,1396.85 2253.58,1396.85 2258.26,1396.85 2262.94,1396.85 2267.61,1396.85 2272.29,1396.85 2276.97,1396.85 2281.65,1396.85 2286.33,1396.85 2291,1396.85 "/>
<path clip-path="url(#clip530)" d="M1880.43 250.738 L2280.03 250.738 L2280.03 95.2176 L1880.43 95.2176  Z" fill="#ffffff" fill-rule="evenodd" fill-opacity="1"/>
<polyline clip-path="url(#clip530)" style="stroke:#000000; stroke-linecap:round; stroke-linejoin:round; stroke-width:4; stroke-opacity:1; fill:none" points="1880.43,250.738 2280.03,250.738 2280.03,95.2176 1880.43,95.2176 1880.43,250.738 "/>
<polyline clip-path="url(#clip530)" style="stroke:#009af9; stroke-linecap:round; stroke-linejoin:round; stroke-width:4; stroke-opacity:1; fill:none" points="1904.67,147.058 2050.13,147.058 "/>
<path clip-path="url(#clip530)" d="M2087.77 151.305 Q2082.61 151.305 2080.62 152.486 Q2078.63 153.666 2078.63 156.514 Q2078.63 158.782 2080.11 160.125 Q2081.62 161.444 2084.19 161.444 Q2087.73 161.444 2089.86 158.944 Q2092.01 156.421 2092.01 152.254 L2092.01 151.305 L2087.77 151.305 M2096.27 149.546 L2096.27 164.338 L2092.01 164.338 L2092.01 160.402 Q2090.55 162.763 2088.38 163.898 Q2086.2 165.009 2083.05 165.009 Q2079.07 165.009 2076.71 162.787 Q2074.37 160.541 2074.37 156.791 Q2074.37 152.416 2077.29 150.194 Q2080.23 147.972 2086.04 147.972 L2092.01 147.972 L2092.01 147.555 Q2092.01 144.615 2090.07 143.018 Q2088.14 141.398 2084.65 141.398 Q2082.43 141.398 2080.32 141.93 Q2078.21 142.463 2076.27 143.527 L2076.27 139.592 Q2078.61 138.69 2080.81 138.25 Q2083.01 137.787 2085.09 137.787 Q2090.71 137.787 2093.49 140.703 Q2096.27 143.62 2096.27 149.546 Z" fill="#000000" fill-rule="nonzero" fill-opacity="1" /><path clip-path="url(#clip530)" d="M2126.59 148.689 L2126.59 164.338 L2122.33 164.338 L2122.33 148.828 Q2122.33 145.148 2120.9 143.319 Q2119.46 141.49 2116.59 141.49 Q2113.14 141.49 2111.15 143.69 Q2109.16 145.889 2109.16 149.685 L2109.16 164.338 L2104.88 164.338 L2104.88 138.412 L2109.16 138.412 L2109.16 142.44 Q2110.69 140.102 2112.75 138.944 Q2114.83 137.787 2117.54 137.787 Q2122.01 137.787 2124.3 140.565 Q2126.59 143.319 2126.59 148.689 Z" fill="#000000" fill-rule="nonzero" fill-opacity="1" /><path clip-path="url(#clip530)" d="M2146.87 151.305 Q2141.71 151.305 2139.72 152.486 Q2137.73 153.666 2137.73 156.514 Q2137.73 158.782 2139.21 160.125 Q2140.71 161.444 2143.28 161.444 Q2146.82 161.444 2148.95 158.944 Q2151.11 156.421 2151.11 152.254 L2151.11 151.305 L2146.87 151.305 M2155.37 149.546 L2155.37 164.338 L2151.11 164.338 L2151.11 160.402 Q2149.65 162.763 2147.47 163.898 Q2145.3 165.009 2142.15 165.009 Q2138.17 165.009 2135.81 162.787 Q2133.47 160.541 2133.47 156.791 Q2133.47 152.416 2136.39 150.194 Q2139.32 147.972 2145.14 147.972 L2151.11 147.972 L2151.11 147.555 Q2151.11 144.615 2149.16 143.018 Q2147.24 141.398 2143.75 141.398 Q2141.52 141.398 2139.42 141.93 Q2137.31 142.463 2135.37 143.527 L2135.37 139.592 Q2137.7 138.69 2139.9 138.25 Q2142.1 137.787 2144.19 137.787 Q2149.81 137.787 2152.59 140.703 Q2155.37 143.62 2155.37 149.546 Z" fill="#000000" fill-rule="nonzero" fill-opacity="1" /><path clip-path="url(#clip530)" d="M2164.14 128.319 L2168.4 128.319 L2168.4 164.338 L2164.14 164.338 L2164.14 128.319 Z" fill="#000000" fill-rule="nonzero" fill-opacity="1" /><path clip-path="url(#clip530)" d="M2188.1 166.745 Q2186.29 171.375 2184.58 172.787 Q2182.87 174.199 2180 174.199 L2176.59 174.199 L2176.59 170.634 L2179.09 170.634 Q2180.85 170.634 2181.82 169.8 Q2182.8 168.967 2183.98 165.865 L2184.74 163.921 L2174.26 138.412 L2178.77 138.412 L2186.87 158.689 L2194.97 138.412 L2199.49 138.412 L2188.1 166.745 Z" fill="#000000" fill-rule="nonzero" fill-opacity="1" /><path clip-path="url(#clip530)" d="M2209.58 131.051 L2209.58 138.412 L2218.35 138.412 L2218.35 141.722 L2209.58 141.722 L2209.58 155.796 Q2209.58 158.967 2210.44 159.87 Q2211.32 160.773 2213.98 160.773 L2218.35 160.773 L2218.35 164.338 L2213.98 164.338 Q2209.05 164.338 2207.17 162.509 Q2205.3 160.657 2205.3 155.796 L2205.3 141.722 L2202.17 141.722 L2202.17 138.412 L2205.3 138.412 L2205.3 131.051 L2209.58 131.051 Z" fill="#000000" fill-rule="nonzero" fill-opacity="1" /><path clip-path="url(#clip530)" d="M2223.95 138.412 L2228.21 138.412 L2228.21 164.338 L2223.95 164.338 L2223.95 138.412 M2223.95 128.319 L2228.21 128.319 L2228.21 133.713 L2223.95 133.713 L2223.95 128.319 Z" fill="#000000" fill-rule="nonzero" fill-opacity="1" /><path clip-path="url(#clip530)" d="M2255.78 139.407 L2255.78 143.389 Q2253.98 142.393 2252.15 141.907 Q2250.34 141.398 2248.49 141.398 Q2244.35 141.398 2242.06 144.037 Q2239.76 146.652 2239.76 151.398 Q2239.76 156.143 2242.06 158.782 Q2244.35 161.398 2248.49 161.398 Q2250.34 161.398 2252.15 160.912 Q2253.98 160.402 2255.78 159.407 L2255.78 163.342 Q2254 164.176 2252.08 164.592 Q2250.18 165.009 2248.03 165.009 Q2242.17 165.009 2238.72 161.328 Q2235.27 157.648 2235.27 151.398 Q2235.27 145.055 2238.75 141.421 Q2242.24 137.787 2248.31 137.787 Q2250.27 137.787 2252.15 138.203 Q2254.02 138.597 2255.78 139.407 Z" fill="#000000" fill-rule="nonzero" fill-opacity="1" /><polyline clip-path="url(#clip530)" style="stroke:#e26f46; stroke-linecap:round; stroke-linejoin:round; stroke-width:4; stroke-opacity:1; fill:none" points="1904.67,198.898 2050.13,198.898 "/>
<path clip-path="url(#clip530)" d="M2078.65 212.289 L2078.65 226.039 L2074.37 226.039 L2074.37 190.252 L2078.65 190.252 L2078.65 194.187 Q2080 191.872 2082.03 190.761 Q2084.09 189.627 2086.94 189.627 Q2091.66 189.627 2094.6 193.377 Q2097.57 197.127 2097.57 203.238 Q2097.57 209.349 2094.6 213.099 Q2091.66 216.849 2086.94 216.849 Q2084.09 216.849 2082.03 215.738 Q2080 214.603 2078.65 212.289 M2093.14 203.238 Q2093.14 198.539 2091.2 195.877 Q2089.28 193.192 2085.9 193.192 Q2082.52 193.192 2080.58 195.877 Q2078.65 198.539 2078.65 203.238 Q2078.65 207.937 2080.58 210.622 Q2082.52 213.284 2085.9 213.284 Q2089.28 213.284 2091.2 210.622 Q2093.14 207.937 2093.14 203.238 Z" fill="#000000" fill-rule="nonzero" fill-opacity="1" /><path clip-path="url(#clip530)" d="M2119.65 194.233 Q2118.93 193.817 2118.08 193.631 Q2117.24 193.423 2116.22 193.423 Q2112.61 193.423 2110.67 195.784 Q2108.75 198.122 2108.75 202.52 L2108.75 216.178 L2104.46 216.178 L2104.46 190.252 L2108.75 190.252 L2108.75 194.28 Q2110.09 191.918 2112.24 190.784 Q2114.39 189.627 2117.47 189.627 Q2117.91 189.627 2118.45 189.696 Q2118.98 189.743 2119.63 189.858 L2119.65 194.233 Z" fill="#000000" fill-rule="nonzero" fill-opacity="1" /><path clip-path="url(#clip530)" d="M2145.25 202.15 L2145.25 204.233 L2125.67 204.233 Q2125.95 208.631 2128.31 210.946 Q2130.69 213.238 2134.93 213.238 Q2137.38 213.238 2139.67 212.636 Q2141.99 212.034 2144.26 210.83 L2144.26 214.858 Q2141.96 215.83 2139.56 216.34 Q2137.15 216.849 2134.67 216.849 Q2128.47 216.849 2124.83 213.238 Q2121.22 209.627 2121.22 203.469 Q2121.22 197.104 2124.65 193.377 Q2128.1 189.627 2133.93 189.627 Q2139.16 189.627 2142.2 193.006 Q2145.25 196.363 2145.25 202.15 M2140.99 200.9 Q2140.95 197.405 2139.02 195.321 Q2137.13 193.238 2133.98 193.238 Q2130.41 193.238 2128.26 195.252 Q2126.13 197.266 2125.81 200.923 L2140.99 200.9 Z" fill="#000000" fill-rule="nonzero" fill-opacity="1" /><path clip-path="url(#clip530)" d="M2169.3 194.187 L2169.3 180.159 L2173.56 180.159 L2173.56 216.178 L2169.3 216.178 L2169.3 212.289 Q2167.96 214.603 2165.9 215.738 Q2163.86 216.849 2160.99 216.849 Q2156.29 216.849 2153.33 213.099 Q2150.39 209.349 2150.39 203.238 Q2150.39 197.127 2153.33 193.377 Q2156.29 189.627 2160.99 189.627 Q2163.86 189.627 2165.9 190.761 Q2167.96 191.872 2169.3 194.187 M2154.79 203.238 Q2154.79 207.937 2156.71 210.622 Q2158.65 213.284 2162.03 213.284 Q2165.41 213.284 2167.36 210.622 Q2169.3 207.937 2169.3 203.238 Q2169.3 198.539 2167.36 195.877 Q2165.41 193.192 2162.03 193.192 Q2158.65 193.192 2156.71 195.877 Q2154.79 198.539 2154.79 203.238 Z" fill="#000000" fill-rule="nonzero" fill-opacity="1" /><path clip-path="url(#clip530)" d="M2182.33 190.252 L2186.59 190.252 L2186.59 216.178 L2182.33 216.178 L2182.33 190.252 M2182.33 180.159 L2186.59 180.159 L2186.59 185.553 L2182.33 185.553 L2182.33 180.159 Z" fill="#000000" fill-rule="nonzero" fill-opacity="1" /><path clip-path="url(#clip530)" d="M2214.16 191.247 L2214.16 195.229 Q2212.36 194.233 2210.53 193.747 Q2208.72 193.238 2206.87 193.238 Q2202.73 193.238 2200.44 195.877 Q2198.14 198.492 2198.14 203.238 Q2198.14 207.983 2200.44 210.622 Q2202.73 213.238 2206.87 213.238 Q2208.72 213.238 2210.53 212.752 Q2212.36 212.242 2214.16 211.247 L2214.16 215.182 Q2212.38 216.016 2210.46 216.432 Q2208.56 216.849 2206.41 216.849 Q2200.55 216.849 2197.1 213.168 Q2193.65 209.488 2193.65 203.238 Q2193.65 196.895 2197.13 193.261 Q2200.62 189.627 2206.69 189.627 Q2208.65 189.627 2210.53 190.043 Q2212.4 190.437 2214.16 191.247 Z" fill="#000000" fill-rule="nonzero" fill-opacity="1" /><path clip-path="url(#clip530)" d="M2225.78 182.891 L2225.78 190.252 L2234.56 190.252 L2234.56 193.562 L2225.78 193.562 L2225.78 207.636 Q2225.78 210.807 2226.64 211.71 Q2227.52 212.613 2230.18 212.613 L2234.56 212.613 L2234.56 216.178 L2230.18 216.178 Q2225.25 216.178 2223.38 214.349 Q2221.5 212.497 2221.5 207.636 L2221.5 193.562 L2218.38 193.562 L2218.38 190.252 L2221.5 190.252 L2221.5 182.891 L2225.78 182.891 Z" fill="#000000" fill-rule="nonzero" fill-opacity="1" /></svg>
