<?xml version="1.0" encoding="utf-8"?>
<svg xmlns="http://www.w3.org/2000/svg" xmlns:xlink="http://www.w3.org/1999/xlink" width="600" height="400" viewBox="0 0 2400 1600">
<defs>
  <clipPath id="clip590">
    <rect x="0" y="0" width="2400" height="1600"/>
  </clipPath>
</defs>
<path clip-path="url(#clip590)" d="M0 1600 L2400 1600 L2400 0 L0 0  Z" fill="#ffffff" fill-rule="evenodd" fill-opacity="1"/>
<defs>
  <clipPath id="clip591">
    <rect x="480" y="0" width="1681" height="1600"/>
  </clipPath>
</defs>
<path clip-path="url(#clip590)" d="M223.103 1486.45 L2352.76 1486.45 L2352.76 47.2441 L223.103 47.2441  Z" fill="#ffffff" fill-rule="evenodd" fill-opacity="1"/>
<defs>
  <clipPath id="clip592">
    <rect x="223" y="47" width="2131" height="1440"/>
  </clipPath>
</defs>
<polyline clip-path="url(#clip592)" style="stroke:#000000; stroke-linecap:round; stroke-linejoin:round; stroke-width:2; stroke-opacity:0.1; fill:none" points="283.376,1486.45 283.376,47.2441 "/>
<polyline clip-path="url(#clip592)" style="stroke:#000000; stroke-linecap:round; stroke-linejoin:round; stroke-width:2; stroke-opacity:0.1; fill:none" points="785.652,1486.45 785.652,47.2441 "/>
<polyline clip-path="url(#clip592)" style="stroke:#000000; stroke-linecap:round; stroke-linejoin:round; stroke-width:2; stroke-opacity:0.1; fill:none" points="1287.93,1486.45 1287.93,47.2441 "/>
<polyline clip-path="url(#clip592)" style="stroke:#000000; stroke-linecap:round; stroke-linejoin:round; stroke-width:2; stroke-opacity:0.1; fill:none" points="1790.21,1486.45 1790.21,47.2441 "/>
<polyline clip-path="url(#clip592)" style="stroke:#000000; stroke-linecap:round; stroke-linejoin:round; stroke-width:2; stroke-opacity:0.1; fill:none" points="2292.48,1486.45 2292.48,47.2441 "/>
<polyline clip-path="url(#clip590)" style="stroke:#000000; stroke-linecap:round; stroke-linejoin:round; stroke-width:4; stroke-opacity:1; fill:none" points="223.103,1486.45 2352.76,1486.45 "/>
<polyline clip-path="url(#clip590)" style="stroke:#000000; stroke-linecap:round; stroke-linejoin:round; stroke-width:4; stroke-opacity:1; fill:none" points="283.376,1486.45 283.376,1467.55 "/>
<polyline clip-path="url(#clip590)" style="stroke:#000000; stroke-linecap:round; stroke-linejoin:round; stroke-width:4; stroke-opacity:1; fill:none" points="785.652,1486.45 785.652,1467.55 "/>
<polyline clip-path="url(#clip590)" style="stroke:#000000; stroke-linecap:round; stroke-linejoin:round; stroke-width:4; stroke-opacity:1; fill:none" points="1287.93,1486.45 1287.93,1467.55 "/>
<polyline clip-path="url(#clip590)" style="stroke:#000000; stroke-linecap:round; stroke-linejoin:round; stroke-width:4; stroke-opacity:1; fill:none" points="1790.21,1486.45 1790.21,1467.55 "/>
<polyline clip-path="url(#clip590)" style="stroke:#000000; stroke-linecap:round; stroke-linejoin:round; stroke-width:4; stroke-opacity:1; fill:none" points="2292.48,1486.45 2292.48,1467.55 "/>
<path clip-path="url(#clip590)" d="M260.76 1517.37 Q257.149 1517.37 255.32 1520.93 Q253.515 1524.47 253.515 1531.6 Q253.515 1538.71 255.32 1542.27 Q257.149 1545.82 260.76 1545.82 Q264.394 1545.82 266.2 1542.27 Q268.029 1538.71 268.029 1531.6 Q268.029 1524.47 266.2 1520.93 Q264.394 1517.37 260.76 1517.37 M260.76 1513.66 Q266.57 1513.66 269.626 1518.27 Q272.704 1522.85 272.704 1531.6 Q272.704 1540.33 269.626 1544.94 Q266.57 1549.52 260.76 1549.52 Q254.95 1549.52 251.871 1544.94 Q248.816 1540.33 248.816 1531.6 Q248.816 1522.85 251.871 1518.27 Q254.95 1513.66 260.76 1513.66 Z" fill="#000000" fill-rule="nonzero" fill-opacity="1" /><path clip-path="url(#clip590)" d="M280.922 1542.97 L285.806 1542.97 L285.806 1548.85 L280.922 1548.85 L280.922 1542.97 Z" fill="#000000" fill-rule="nonzero" fill-opacity="1" /><path clip-path="url(#clip590)" d="M305.991 1517.37 Q302.38 1517.37 300.552 1520.93 Q298.746 1524.47 298.746 1531.6 Q298.746 1538.71 300.552 1542.27 Q302.38 1545.82 305.991 1545.82 Q309.626 1545.82 311.431 1542.27 Q313.26 1538.71 313.26 1531.6 Q313.26 1524.47 311.431 1520.93 Q309.626 1517.37 305.991 1517.37 M305.991 1513.66 Q311.801 1513.66 314.857 1518.27 Q317.936 1522.85 317.936 1531.6 Q317.936 1540.33 314.857 1544.94 Q311.801 1549.52 305.991 1549.52 Q300.181 1549.52 297.102 1544.94 Q294.047 1540.33 294.047 1531.6 Q294.047 1522.85 297.102 1518.27 Q300.181 1513.66 305.991 1513.66 Z" fill="#000000" fill-rule="nonzero" fill-opacity="1" /><path clip-path="url(#clip590)" d="M763.535 1517.37 Q759.923 1517.37 758.095 1520.93 Q756.289 1524.47 756.289 1531.6 Q756.289 1538.71 758.095 1542.27 Q759.923 1545.82 763.535 1545.82 Q767.169 1545.82 768.974 1542.27 Q770.803 1538.71 770.803 1531.6 Q770.803 1524.47 768.974 1520.93 Q767.169 1517.37 763.535 1517.37 M763.535 1513.66 Q769.345 1513.66 772.4 1518.27 Q775.479 1522.85 775.479 1531.6 Q775.479 1540.33 772.4 1544.94 Q769.345 1549.52 763.535 1549.52 Q757.724 1549.52 754.646 1544.94 Q751.59 1540.33 751.59 1531.6 Q751.59 1522.85 754.646 1518.27 Q757.724 1513.66 763.535 1513.66 Z" fill="#000000" fill-rule="nonzero" fill-opacity="1" /><path clip-path="url(#clip590)" d="M783.696 1542.97 L788.581 1542.97 L788.581 1548.85 L783.696 1548.85 L783.696 1542.97 Z" fill="#000000" fill-rule="nonzero" fill-opacity="1" /><path clip-path="url(#clip590)" d="M798.812 1514.29 L817.168 1514.29 L817.168 1518.22 L803.094 1518.22 L803.094 1526.7 Q804.113 1526.35 805.132 1526.19 Q806.15 1526 807.169 1526 Q812.956 1526 816.335 1529.17 Q819.715 1532.34 819.715 1537.76 Q819.715 1543.34 816.243 1546.44 Q812.77 1549.52 806.451 1549.52 Q804.275 1549.52 802.007 1549.15 Q799.761 1548.78 797.354 1548.04 L797.354 1543.34 Q799.437 1544.47 801.659 1545.03 Q803.882 1545.58 806.358 1545.58 Q810.363 1545.58 812.701 1543.48 Q815.039 1541.37 815.039 1537.76 Q815.039 1534.15 812.701 1532.04 Q810.363 1529.94 806.358 1529.94 Q804.483 1529.94 802.608 1530.35 Q800.757 1530.77 798.812 1531.65 L798.812 1514.29 Z" fill="#000000" fill-rule="nonzero" fill-opacity="1" /><path clip-path="url(#clip590)" d="M1255.08 1544.91 L1262.72 1544.91 L1262.72 1518.55 L1254.41 1520.21 L1254.41 1515.95 L1262.67 1514.29 L1267.35 1514.29 L1267.35 1544.91 L1274.99 1544.91 L1274.99 1548.85 L1255.08 1548.85 L1255.08 1544.91 Z" fill="#000000" fill-rule="nonzero" fill-opacity="1" /><path clip-path="url(#clip590)" d="M1284.43 1542.97 L1289.32 1542.97 L1289.32 1548.85 L1284.43 1548.85 L1284.43 1542.97 Z" fill="#000000" fill-rule="nonzero" fill-opacity="1" /><path clip-path="url(#clip590)" d="M1309.5 1517.37 Q1305.89 1517.37 1304.06 1520.93 Q1302.26 1524.47 1302.26 1531.6 Q1302.26 1538.71 1304.06 1542.27 Q1305.89 1545.82 1309.5 1545.82 Q1313.14 1545.82 1314.94 1542.27 Q1316.77 1538.71 1316.77 1531.6 Q1316.77 1524.47 1314.94 1520.93 Q1313.14 1517.37 1309.5 1517.37 M1309.5 1513.66 Q1315.31 1513.66 1318.37 1518.27 Q1321.45 1522.85 1321.45 1531.6 Q1321.45 1540.33 1318.37 1544.94 Q1315.31 1549.52 1309.5 1549.52 Q1303.69 1549.52 1300.61 1544.94 Q1297.56 1540.33 1297.56 1531.6 Q1297.56 1522.85 1300.61 1518.27 Q1303.69 1513.66 1309.5 1513.66 Z" fill="#000000" fill-rule="nonzero" fill-opacity="1" /><path clip-path="url(#clip590)" d="M1757.86 1544.91 L1765.5 1544.91 L1765.5 1518.55 L1757.19 1520.21 L1757.19 1515.95 L1765.45 1514.29 L1770.13 1514.29 L1770.13 1544.91 L1777.76 1544.91 L1777.76 1548.85 L1757.86 1548.85 L1757.86 1544.91 Z" fill="#000000" fill-rule="nonzero" fill-opacity="1" /><path clip-path="url(#clip590)" d="M1787.21 1542.97 L1792.09 1542.97 L1792.09 1548.85 L1787.21 1548.85 L1787.21 1542.97 Z" fill="#000000" fill-rule="nonzero" fill-opacity="1" /><path clip-path="url(#clip590)" d="M1802.32 1514.29 L1820.68 1514.29 L1820.68 1518.22 L1806.61 1518.22 L1806.61 1526.7 Q1807.62 1526.35 1808.64 1526.19 Q1809.66 1526 1810.68 1526 Q1816.47 1526 1819.85 1529.17 Q1823.23 1532.34 1823.23 1537.76 Q1823.23 1543.34 1819.75 1546.44 Q1816.28 1549.52 1809.96 1549.52 Q1807.79 1549.52 1805.52 1549.15 Q1803.27 1548.78 1800.87 1548.04 L1800.87 1543.34 Q1802.95 1544.47 1805.17 1545.03 Q1807.39 1545.58 1809.87 1545.58 Q1813.87 1545.58 1816.21 1543.48 Q1818.55 1541.37 1818.55 1537.76 Q1818.55 1534.15 1816.21 1532.04 Q1813.87 1529.94 1809.87 1529.94 Q1808 1529.94 1806.12 1530.35 Q1804.27 1530.77 1802.32 1531.65 L1802.32 1514.29 Z" fill="#000000" fill-rule="nonzero" fill-opacity="1" /><path clip-path="url(#clip590)" d="M2263.72 1544.91 L2280.04 1544.91 L2280.04 1548.85 L2258.1 1548.85 L2258.1 1544.91 Q2260.76 1542.16 2265.34 1537.53 Q2269.95 1532.88 2271.13 1531.53 Q2273.37 1529.01 2274.25 1527.27 Q2275.16 1525.51 2275.16 1523.82 Q2275.16 1521.07 2273.21 1519.33 Q2271.29 1517.6 2268.19 1517.6 Q2265.99 1517.6 2263.54 1518.36 Q2261.11 1519.13 2258.33 1520.68 L2258.33 1515.95 Q2261.15 1514.82 2263.61 1514.24 Q2266.06 1513.66 2268.1 1513.66 Q2273.47 1513.66 2276.66 1516.35 Q2279.86 1519.03 2279.86 1523.52 Q2279.86 1525.65 2279.05 1527.57 Q2278.26 1529.47 2276.15 1532.07 Q2275.57 1532.74 2272.47 1535.95 Q2269.37 1539.15 2263.72 1544.91 Z" fill="#000000" fill-rule="nonzero" fill-opacity="1" /><path clip-path="url(#clip590)" d="M2289.86 1542.97 L2294.74 1542.97 L2294.74 1548.85 L2289.86 1548.85 L2289.86 1542.97 Z" fill="#000000" fill-rule="nonzero" fill-opacity="1" /><path clip-path="url(#clip590)" d="M2314.92 1517.37 Q2311.31 1517.37 2309.48 1520.93 Q2307.68 1524.47 2307.68 1531.6 Q2307.68 1538.71 2309.48 1542.27 Q2311.31 1545.82 2314.92 1545.82 Q2318.56 1545.82 2320.36 1542.27 Q2322.19 1538.71 2322.19 1531.6 Q2322.19 1524.47 2320.36 1520.93 Q2318.56 1517.37 2314.92 1517.37 M2314.92 1513.66 Q2320.73 1513.66 2323.79 1518.27 Q2326.87 1522.85 2326.87 1531.6 Q2326.87 1540.33 2323.79 1544.94 Q2320.73 1549.52 2314.92 1549.52 Q2309.11 1549.52 2306.04 1544.94 Q2302.98 1540.33 2302.98 1531.6 Q2302.98 1522.85 2306.04 1518.27 Q2309.11 1513.66 2314.92 1513.66 Z" fill="#000000" fill-rule="nonzero" fill-opacity="1" /><polyline clip-path="url(#clip592)" style="stroke:#000000; stroke-linecap:round; stroke-linejoin:round; stroke-width:2; stroke-opacity:0.1; fill:none" points="223.103,1440.31 2352.76,1440.31 "/>
<polyline clip-path="url(#clip592)" style="stroke:#000000; stroke-linecap:round; stroke-linejoin:round; stroke-width:2; stroke-opacity:0.1; fill:none" points="223.103,1220.12 2352.76,1220.12 "/>
<polyline clip-path="url(#clip592)" style="stroke:#000000; stroke-linecap:round; stroke-linejoin:round; stroke-width:2; stroke-opacity:0.1; fill:none" points="223.103,999.939 2352.76,999.939 "/>
<polyline clip-path="url(#clip592)" style="stroke:#000000; stroke-linecap:round; stroke-linejoin:round; stroke-width:2; stroke-opacity:0.1; fill:none" points="223.103,779.755 2352.76,779.755 "/>
<polyline clip-path="url(#clip592)" style="stroke:#000000; stroke-linecap:round; stroke-linejoin:round; stroke-width:2; stroke-opacity:0.1; fill:none" points="223.103,559.571 2352.76,559.571 "/>
<polyline clip-path="url(#clip592)" style="stroke:#000000; stroke-linecap:round; stroke-linejoin:round; stroke-width:2; stroke-opacity:0.1; fill:none" points="223.103,339.387 2352.76,339.387 "/>
<polyline clip-path="url(#clip592)" style="stroke:#000000; stroke-linecap:round; stroke-linejoin:round; stroke-width:2; stroke-opacity:0.1; fill:none" points="223.103,119.203 2352.76,119.203 "/>
<polyline clip-path="url(#clip590)" style="stroke:#000000; stroke-linecap:round; stroke-linejoin:round; stroke-width:4; stroke-opacity:1; fill:none" points="223.103,1486.45 223.103,47.2441 "/>
<polyline clip-path="url(#clip590)" style="stroke:#000000; stroke-linecap:round; stroke-linejoin:round; stroke-width:4; stroke-opacity:1; fill:none" points="223.103,1440.31 242,1440.31 "/>
<polyline clip-path="url(#clip590)" style="stroke:#000000; stroke-linecap:round; stroke-linejoin:round; stroke-width:4; stroke-opacity:1; fill:none" points="223.103,1220.12 242,1220.12 "/>
<polyline clip-path="url(#clip590)" style="stroke:#000000; stroke-linecap:round; stroke-linejoin:round; stroke-width:4; stroke-opacity:1; fill:none" points="223.103,999.939 242,999.939 "/>
<polyline clip-path="url(#clip590)" style="stroke:#000000; stroke-linecap:round; stroke-linejoin:round; stroke-width:4; stroke-opacity:1; fill:none" points="223.103,779.755 242,779.755 "/>
<polyline clip-path="url(#clip590)" style="stroke:#000000; stroke-linecap:round; stroke-linejoin:round; stroke-width:4; stroke-opacity:1; fill:none" points="223.103,559.571 242,559.571 "/>
<polyline clip-path="url(#clip590)" style="stroke:#000000; stroke-linecap:round; stroke-linejoin:round; stroke-width:4; stroke-opacity:1; fill:none" points="223.103,339.387 242,339.387 "/>
<polyline clip-path="url(#clip590)" style="stroke:#000000; stroke-linecap:round; stroke-linejoin:round; stroke-width:4; stroke-opacity:1; fill:none" points="223.103,119.203 242,119.203 "/>
<path clip-path="url(#clip590)" d="M50.9921 1440.76 L80.6679 1440.76 L80.6679 1444.69 L50.9921 1444.69 L50.9921 1440.76 Z" fill="#000000" fill-rule="nonzero" fill-opacity="1" /><path clip-path="url(#clip590)" d="M100.76 1426.11 Q97.1493 1426.11 95.3206 1429.67 Q93.515 1433.21 93.515 1440.34 Q93.515 1447.45 95.3206 1451.01 Q97.1493 1454.56 100.76 1454.56 Q104.395 1454.56 106.2 1451.01 Q108.029 1447.45 108.029 1440.34 Q108.029 1433.21 106.2 1429.67 Q104.395 1426.11 100.76 1426.11 M100.76 1422.4 Q106.571 1422.4 109.626 1427.01 Q112.705 1431.59 112.705 1440.34 Q112.705 1449.07 109.626 1453.68 Q106.571 1458.26 100.76 1458.26 Q94.9502 1458.26 91.8715 1453.68 Q88.816 1449.07 88.816 1440.34 Q88.816 1431.59 91.8715 1427.01 Q94.9502 1422.4 100.76 1422.4 Z" fill="#000000" fill-rule="nonzero" fill-opacity="1" /><path clip-path="url(#clip590)" d="M120.922 1451.71 L125.807 1451.71 L125.807 1457.59 L120.922 1457.59 L120.922 1451.71 Z" fill="#000000" fill-rule="nonzero" fill-opacity="1" /><path clip-path="url(#clip590)" d="M145.992 1426.11 Q142.381 1426.11 140.552 1429.67 Q138.746 1433.21 138.746 1440.34 Q138.746 1447.45 140.552 1451.01 Q142.381 1454.56 145.992 1454.56 Q149.626 1454.56 151.431 1451.01 Q153.26 1447.45 153.26 1440.34 Q153.26 1433.21 151.431 1429.67 Q149.626 1426.11 145.992 1426.11 M145.992 1422.4 Q151.802 1422.4 154.857 1427.01 Q157.936 1431.59 157.936 1440.34 Q157.936 1449.07 154.857 1453.68 Q151.802 1458.26 145.992 1458.26 Q140.181 1458.26 137.103 1453.68 Q134.047 1449.07 134.047 1440.34 Q134.047 1431.59 137.103 1427.01 Q140.181 1422.4 145.992 1422.4 Z" fill="#000000" fill-rule="nonzero" fill-opacity="1" /><path clip-path="url(#clip590)" d="M166.2 1423.03 L184.556 1423.03 L184.556 1426.96 L170.482 1426.96 L170.482 1435.44 Q171.501 1435.09 172.519 1434.93 Q173.538 1434.74 174.556 1434.74 Q180.343 1434.74 183.723 1437.91 Q187.103 1441.08 187.103 1446.5 Q187.103 1452.08 183.63 1455.18 Q180.158 1458.26 173.839 1458.26 Q171.663 1458.26 169.394 1457.89 Q167.149 1457.52 164.742 1456.78 L164.742 1452.08 Q166.825 1453.21 169.047 1453.77 Q171.269 1454.32 173.746 1454.32 Q177.751 1454.32 180.089 1452.22 Q182.427 1450.11 182.427 1446.5 Q182.427 1442.89 180.089 1440.78 Q177.751 1438.68 173.746 1438.68 Q171.871 1438.68 169.996 1439.09 Q168.144 1439.51 166.2 1440.39 L166.2 1423.03 Z" fill="#000000" fill-rule="nonzero" fill-opacity="1" /><path clip-path="url(#clip590)" d="M99.765 1205.92 Q96.1539 1205.92 94.3252 1209.49 Q92.5197 1213.03 92.5197 1220.16 Q92.5197 1227.26 94.3252 1230.83 Q96.1539 1234.37 99.765 1234.37 Q103.399 1234.37 105.205 1230.83 Q107.033 1227.26 107.033 1220.16 Q107.033 1213.03 105.205 1209.49 Q103.399 1205.92 99.765 1205.92 M99.765 1202.22 Q105.575 1202.22 108.631 1206.83 Q111.709 1211.41 111.709 1220.16 Q111.709 1228.89 108.631 1233.49 Q105.575 1238.07 99.765 1238.07 Q93.9549 1238.07 90.8762 1233.49 Q87.8206 1228.89 87.8206 1220.16 Q87.8206 1211.41 90.8762 1206.83 Q93.9549 1202.22 99.765 1202.22 Z" fill="#000000" fill-rule="nonzero" fill-opacity="1" /><path clip-path="url(#clip590)" d="M119.927 1231.52 L124.811 1231.52 L124.811 1237.4 L119.927 1237.4 L119.927 1231.52 Z" fill="#000000" fill-rule="nonzero" fill-opacity="1" /><path clip-path="url(#clip590)" d="M144.996 1205.92 Q141.385 1205.92 139.556 1209.49 Q137.751 1213.03 137.751 1220.16 Q137.751 1227.26 139.556 1230.83 Q141.385 1234.37 144.996 1234.37 Q148.63 1234.37 150.436 1230.83 Q152.265 1227.26 152.265 1220.16 Q152.265 1213.03 150.436 1209.49 Q148.63 1205.92 144.996 1205.92 M144.996 1202.22 Q150.806 1202.22 153.862 1206.83 Q156.941 1211.41 156.941 1220.16 Q156.941 1228.89 153.862 1233.49 Q150.806 1238.07 144.996 1238.07 Q139.186 1238.07 136.107 1233.49 Q133.052 1228.89 133.052 1220.16 Q133.052 1211.41 136.107 1206.83 Q139.186 1202.22 144.996 1202.22 Z" fill="#000000" fill-rule="nonzero" fill-opacity="1" /><path clip-path="url(#clip590)" d="M175.158 1205.92 Q171.547 1205.92 169.718 1209.49 Q167.913 1213.03 167.913 1220.16 Q167.913 1227.26 169.718 1230.83 Q171.547 1234.37 175.158 1234.37 Q178.792 1234.37 180.598 1230.83 Q182.427 1227.26 182.427 1220.16 Q182.427 1213.03 180.598 1209.49 Q178.792 1205.92 175.158 1205.92 M175.158 1202.22 Q180.968 1202.22 184.024 1206.83 Q187.103 1211.41 187.103 1220.16 Q187.103 1228.89 184.024 1233.49 Q180.968 1238.07 175.158 1238.07 Q169.348 1238.07 166.269 1233.49 Q163.214 1228.89 163.214 1220.16 Q163.214 1211.41 166.269 1206.83 Q169.348 1202.22 175.158 1202.22 Z" fill="#000000" fill-rule="nonzero" fill-opacity="1" /><path clip-path="url(#clip590)" d="M100.76 985.738 Q97.1493 985.738 95.3206 989.303 Q93.515 992.844 93.515 999.974 Q93.515 1007.08 95.3206 1010.65 Q97.1493 1014.19 100.76 1014.19 Q104.395 1014.19 106.2 1010.65 Q108.029 1007.08 108.029 999.974 Q108.029 992.844 106.2 989.303 Q104.395 985.738 100.76 985.738 M100.76 982.034 Q106.571 982.034 109.626 986.641 Q112.705 991.224 112.705 999.974 Q112.705 1008.7 109.626 1013.31 Q106.571 1017.89 100.76 1017.89 Q94.9502 1017.89 91.8715 1013.31 Q88.816 1008.7 88.816 999.974 Q88.816 991.224 91.8715 986.641 Q94.9502 982.034 100.76 982.034 Z" fill="#000000" fill-rule="nonzero" fill-opacity="1" /><path clip-path="url(#clip590)" d="M120.922 1011.34 L125.807 1011.34 L125.807 1017.22 L120.922 1017.22 L120.922 1011.34 Z" fill="#000000" fill-rule="nonzero" fill-opacity="1" /><path clip-path="url(#clip590)" d="M145.992 985.738 Q142.381 985.738 140.552 989.303 Q138.746 992.844 138.746 999.974 Q138.746 1007.08 140.552 1010.65 Q142.381 1014.19 145.992 1014.19 Q149.626 1014.19 151.431 1010.65 Q153.26 1007.08 153.26 999.974 Q153.26 992.844 151.431 989.303 Q149.626 985.738 145.992 985.738 M145.992 982.034 Q151.802 982.034 154.857 986.641 Q157.936 991.224 157.936 999.974 Q157.936 1008.7 154.857 1013.31 Q151.802 1017.89 145.992 1017.89 Q140.181 1017.89 137.103 1013.31 Q134.047 1008.7 134.047 999.974 Q134.047 991.224 137.103 986.641 Q140.181 982.034 145.992 982.034 Z" fill="#000000" fill-rule="nonzero" fill-opacity="1" /><path clip-path="url(#clip590)" d="M166.2 982.659 L184.556 982.659 L184.556 986.595 L170.482 986.595 L170.482 995.067 Q171.501 994.719 172.519 994.557 Q173.538 994.372 174.556 994.372 Q180.343 994.372 183.723 997.544 Q187.103 1000.71 187.103 1006.13 Q187.103 1011.71 183.63 1014.81 Q180.158 1017.89 173.839 1017.89 Q171.663 1017.89 169.394 1017.52 Q167.149 1017.15 164.742 1016.41 L164.742 1011.71 Q166.825 1012.84 169.047 1013.4 Q171.269 1013.96 173.746 1013.96 Q177.751 1013.96 180.089 1011.85 Q182.427 1009.74 182.427 1006.13 Q182.427 1002.52 180.089 1000.41 Q177.751 998.307 173.746 998.307 Q171.871 998.307 169.996 998.724 Q168.144 999.141 166.2 1000.02 L166.2 982.659 Z" fill="#000000" fill-rule="nonzero" fill-opacity="1" /><path clip-path="url(#clip590)" d="M99.765 765.554 Q96.1539 765.554 94.3252 769.119 Q92.5197 772.66 92.5197 779.79 Q92.5197 786.896 94.3252 790.461 Q96.1539 794.003 99.765 794.003 Q103.399 794.003 105.205 790.461 Q107.033 786.896 107.033 779.79 Q107.033 772.66 105.205 769.119 Q103.399 765.554 99.765 765.554 M99.765 761.85 Q105.575 761.85 108.631 766.457 Q111.709 771.04 111.709 779.79 Q111.709 788.517 108.631 793.123 Q105.575 797.706 99.765 797.706 Q93.9549 797.706 90.8762 793.123 Q87.8206 788.517 87.8206 779.79 Q87.8206 771.04 90.8762 766.457 Q93.9549 761.85 99.765 761.85 Z" fill="#000000" fill-rule="nonzero" fill-opacity="1" /><path clip-path="url(#clip590)" d="M119.927 791.156 L124.811 791.156 L124.811 797.035 L119.927 797.035 L119.927 791.156 Z" fill="#000000" fill-rule="nonzero" fill-opacity="1" /><path clip-path="url(#clip590)" d="M135.806 793.1 L143.445 793.1 L143.445 766.734 L135.135 768.401 L135.135 764.142 L143.399 762.475 L148.075 762.475 L148.075 793.1 L155.714 793.1 L155.714 797.035 L135.806 797.035 L135.806 793.1 Z" fill="#000000" fill-rule="nonzero" fill-opacity="1" /><path clip-path="url(#clip590)" d="M175.158 765.554 Q171.547 765.554 169.718 769.119 Q167.913 772.66 167.913 779.79 Q167.913 786.896 169.718 790.461 Q171.547 794.003 175.158 794.003 Q178.792 794.003 180.598 790.461 Q182.427 786.896 182.427 779.79 Q182.427 772.66 180.598 769.119 Q178.792 765.554 175.158 765.554 M175.158 761.85 Q180.968 761.85 184.024 766.457 Q187.103 771.04 187.103 779.79 Q187.103 788.517 184.024 793.123 Q180.968 797.706 175.158 797.706 Q169.348 797.706 166.269 793.123 Q163.214 788.517 163.214 779.79 Q163.214 771.04 166.269 766.457 Q169.348 761.85 175.158 761.85 Z" fill="#000000" fill-rule="nonzero" fill-opacity="1" /><path clip-path="url(#clip590)" d="M100.76 545.37 Q97.1493 545.37 95.3206 548.934 Q93.515 552.476 93.515 559.606 Q93.515 566.712 95.3206 570.277 Q97.1493 573.819 100.76 573.819 Q104.395 573.819 106.2 570.277 Q108.029 566.712 108.029 559.606 Q108.029 552.476 106.2 548.934 Q104.395 545.37 100.76 545.37 M100.76 541.666 Q106.571 541.666 109.626 546.272 Q112.705 550.856 112.705 559.606 Q112.705 568.333 109.626 572.939 Q106.571 577.522 100.76 577.522 Q94.9502 577.522 91.8715 572.939 Q88.816 568.333 88.816 559.606 Q88.816 550.856 91.8715 546.272 Q94.9502 541.666 100.76 541.666 Z" fill="#000000" fill-rule="nonzero" fill-opacity="1" /><path clip-path="url(#clip590)" d="M120.922 570.971 L125.807 570.971 L125.807 576.851 L120.922 576.851 L120.922 570.971 Z" fill="#000000" fill-rule="nonzero" fill-opacity="1" /><path clip-path="url(#clip590)" d="M136.802 572.916 L144.441 572.916 L144.441 546.55 L136.131 548.217 L136.131 543.958 L144.394 542.291 L149.07 542.291 L149.07 572.916 L156.709 572.916 L156.709 576.851 L136.802 576.851 L136.802 572.916 Z" fill="#000000" fill-rule="nonzero" fill-opacity="1" /><path clip-path="url(#clip590)" d="M166.2 542.291 L184.556 542.291 L184.556 546.226 L170.482 546.226 L170.482 554.698 Q171.501 554.351 172.519 554.189 Q173.538 554.004 174.556 554.004 Q180.343 554.004 183.723 557.175 Q187.103 560.346 187.103 565.763 Q187.103 571.342 183.63 574.444 Q180.158 577.522 173.839 577.522 Q171.663 577.522 169.394 577.152 Q167.149 576.782 164.742 576.041 L164.742 571.342 Q166.825 572.476 169.047 573.032 Q171.269 573.587 173.746 573.587 Q177.751 573.587 180.089 571.481 Q182.427 569.374 182.427 565.763 Q182.427 562.152 180.089 560.046 Q177.751 557.939 173.746 557.939 Q171.871 557.939 169.996 558.356 Q168.144 558.772 166.2 559.652 L166.2 542.291 Z" fill="#000000" fill-rule="nonzero" fill-opacity="1" /><path clip-path="url(#clip590)" d="M99.765 325.185 Q96.1539 325.185 94.3252 328.75 Q92.5197 332.292 92.5197 339.422 Q92.5197 346.528 94.3252 350.093 Q96.1539 353.634 99.765 353.634 Q103.399 353.634 105.205 350.093 Q107.033 346.528 107.033 339.422 Q107.033 332.292 105.205 328.75 Q103.399 325.185 99.765 325.185 M99.765 321.482 Q105.575 321.482 108.631 326.088 Q111.709 330.672 111.709 339.422 Q111.709 348.148 108.631 352.755 Q105.575 357.338 99.765 357.338 Q93.9549 357.338 90.8762 352.755 Q87.8206 348.148 87.8206 339.422 Q87.8206 330.672 90.8762 326.088 Q93.9549 321.482 99.765 321.482 Z" fill="#000000" fill-rule="nonzero" fill-opacity="1" /><path clip-path="url(#clip590)" d="M119.927 350.787 L124.811 350.787 L124.811 356.667 L119.927 356.667 L119.927 350.787 Z" fill="#000000" fill-rule="nonzero" fill-opacity="1" /><path clip-path="url(#clip590)" d="M139.024 352.732 L155.343 352.732 L155.343 356.667 L133.399 356.667 L133.399 352.732 Q136.061 349.977 140.644 345.347 Q145.251 340.695 146.431 339.352 Q148.677 336.829 149.556 335.093 Q150.459 333.334 150.459 331.644 Q150.459 328.889 148.515 327.153 Q146.593 325.417 143.492 325.417 Q141.293 325.417 138.839 326.181 Q136.408 326.945 133.631 328.496 L133.631 323.773 Q136.455 322.639 138.908 322.061 Q141.362 321.482 143.399 321.482 Q148.769 321.482 151.964 324.167 Q155.158 326.852 155.158 331.343 Q155.158 333.472 154.348 335.394 Q153.561 337.292 151.455 339.884 Q150.876 340.556 147.774 343.773 Q144.672 346.968 139.024 352.732 Z" fill="#000000" fill-rule="nonzero" fill-opacity="1" /><path clip-path="url(#clip590)" d="M175.158 325.185 Q171.547 325.185 169.718 328.75 Q167.913 332.292 167.913 339.422 Q167.913 346.528 169.718 350.093 Q171.547 353.634 175.158 353.634 Q178.792 353.634 180.598 350.093 Q182.427 346.528 182.427 339.422 Q182.427 332.292 180.598 328.75 Q178.792 325.185 175.158 325.185 M175.158 321.482 Q180.968 321.482 184.024 326.088 Q187.103 330.672 187.103 339.422 Q187.103 348.148 184.024 352.755 Q180.968 357.338 175.158 357.338 Q169.348 357.338 166.269 352.755 Q163.214 348.148 163.214 339.422 Q163.214 330.672 166.269 326.088 Q169.348 321.482 175.158 321.482 Z" fill="#000000" fill-rule="nonzero" fill-opacity="1" /><path clip-path="url(#clip590)" d="M100.76 105.001 Q97.1493 105.001 95.3206 108.566 Q93.515 112.108 93.515 119.237 Q93.515 126.344 95.3206 129.909 Q97.1493 133.45 100.76 133.45 Q104.395 133.45 106.2 129.909 Q108.029 126.344 108.029 119.237 Q108.029 112.108 106.2 108.566 Q104.395 105.001 100.76 105.001 M100.76 101.298 Q106.571 101.298 109.626 105.904 Q112.705 110.487 112.705 119.237 Q112.705 127.964 109.626 132.571 Q106.571 137.154 100.76 137.154 Q94.9502 137.154 91.8715 132.571 Q88.816 127.964 88.816 119.237 Q88.816 110.487 91.8715 105.904 Q94.9502 101.298 100.76 101.298 Z" fill="#000000" fill-rule="nonzero" fill-opacity="1" /><path clip-path="url(#clip590)" d="M120.922 130.603 L125.807 130.603 L125.807 136.483 L120.922 136.483 L120.922 130.603 Z" fill="#000000" fill-rule="nonzero" fill-opacity="1" /><path clip-path="url(#clip590)" d="M140.019 132.547 L156.339 132.547 L156.339 136.483 L134.394 136.483 L134.394 132.547 Q137.056 129.793 141.64 125.163 Q146.246 120.51 147.427 119.168 Q149.672 116.645 150.552 114.909 Q151.455 113.149 151.455 111.46 Q151.455 108.705 149.51 106.969 Q147.589 105.233 144.487 105.233 Q142.288 105.233 139.834 105.997 Q137.404 106.761 134.626 108.311 L134.626 103.589 Q137.45 102.455 139.904 101.876 Q142.357 101.298 144.394 101.298 Q149.765 101.298 152.959 103.983 Q156.154 106.668 156.154 111.159 Q156.154 113.288 155.343 115.21 Q154.556 117.108 152.45 119.7 Q151.871 120.372 148.769 123.589 Q145.668 126.784 140.019 132.547 Z" fill="#000000" fill-rule="nonzero" fill-opacity="1" /><path clip-path="url(#clip590)" d="M166.2 101.923 L184.556 101.923 L184.556 105.858 L170.482 105.858 L170.482 114.33 Q171.501 113.983 172.519 113.821 Q173.538 113.636 174.556 113.636 Q180.343 113.636 183.723 116.807 Q187.103 119.978 187.103 125.395 Q187.103 130.973 183.63 134.075 Q180.158 137.154 173.839 137.154 Q171.663 137.154 169.394 136.784 Q167.149 136.413 164.742 135.672 L164.742 130.973 Q166.825 132.108 169.047 132.663 Q171.269 133.219 173.746 133.219 Q177.751 133.219 180.089 131.112 Q182.427 129.006 182.427 125.395 Q182.427 121.784 180.089 119.677 Q177.751 117.571 173.746 117.571 Q171.871 117.571 169.996 117.987 Q168.144 118.404 166.2 119.284 L166.2 101.923 Z" fill="#000000" fill-rule="nonzero" fill-opacity="1" /><polyline clip-path="url(#clip592)" style="stroke:#009af9; stroke-linecap:round; stroke-linejoin:round; stroke-width:4; stroke-opacity:1; fill:none" points="283.376,1220.12 293.421,1176.53 303.467,1133.82 313.512,1091.99 323.558,1051.06 333.603,1011.03 343.649,971.886 353.694,933.644 363.74,896.3 373.786,859.857 383.831,824.313 393.877,789.669 403.922,755.924 413.968,723.077 424.013,691.127 434.059,660.071 444.104,629.907 454.15,600.632 464.195,572.244 474.241,544.739 484.286,518.113 494.332,492.362 504.377,467.48 514.423,443.464 524.469,420.308 534.514,398.006 544.56,376.553 554.605,355.943 564.651,336.168 574.696,317.222 584.742,299.099 594.787,281.79 604.833,265.288 614.878,249.586 624.924,234.676 634.969,220.548 645.015,207.195 655.061,194.607 665.106,182.777 675.152,171.694 685.197,161.35 695.243,151.735 705.288,142.839 715.334,134.652 725.379,127.165 735.425,120.367 745.47,114.248 755.516,108.797 765.561,104.005 775.607,99.8603 785.652,96.352 795.698,93.4695 805.744,91.2017 815.789,89.5377 825.835,88.4663 835.88,87.9763 845.926,88.0564 855.971,88.6953 866.017,89.8817 876.062,91.604 886.108,93.8508 896.153,96.6107 906.199,99.8721 916.244,103.623 926.29,107.853 936.335,112.55 946.381,117.702 956.427,123.297 966.472,129.325 976.518,135.773 986.563,142.631 996.609,149.885 1006.65,157.527 1016.7,165.542 1026.75,173.921 1036.79,182.653 1046.84,191.724 1056.88,201.125 1066.93,210.845 1076.97,220.871 1087.02,231.194 1097.06,241.802 1107.11,252.684 1117.16,263.829 1127.2,275.228 1137.25,286.868 1147.29,298.739 1157.34,310.832 1167.38,323.135 1177.43,335.639 1187.47,348.333 1197.52,361.207 1207.56,374.252 1217.61,387.457 1227.66,400.812 1237.7,414.309 1247.75,427.937 1257.79,441.688 1267.84,455.551 1277.88,469.519 1287.93,483.581 1297.97,497.73 1308.02,511.956 1318.07,526.251 1328.11,540.607 1338.16,555.014 1348.2,569.466 1358.25,583.953 1368.29,598.469 1378.34,613.004 1388.38,627.553 1398.43,642.106 1408.48,656.658 1418.52,671.2 1428.57,685.727 1438.61,700.23 1448.66,714.703 1458.7,729.14 1468.75,743.534 1478.79,757.879 1488.84,772.169 1498.89,786.397 1508.93,800.558 1518.98,814.647 1529.02,828.658 1539.07,842.584 1549.11,856.422 1559.16,870.166 1569.2,883.811 1579.25,897.353 1589.3,910.786 1599.34,924.106 1609.39,937.309 1619.43,950.39 1629.48,963.346 1639.52,976.173 1649.57,988.866 1659.61,1001.42 1669.66,1013.84 1679.71,1026.11 1689.75,1038.24 1699.8,1050.21 1709.84,1062.03 1719.89,1073.7 1729.93,1085.21 1739.98,1096.55 1750.02,1107.74 1760.07,1118.76 1770.11,1129.6 1780.16,1140.28 1790.21,1150.79 1800.25,1161.13 1810.3,1171.28 1820.34,1181.27 1830.39,1191.07 1840.43,1200.69 1850.48,1210.13 1860.52,1219.39 1870.57,1228.47 1880.62,1237.36 1890.66,1246.07 1900.71,1254.6 1910.75,1262.93 1920.8,1271.09 1930.84,1279.05 1940.89,1286.83 1950.93,1294.42 1960.98,1301.82 1971.03,1309.04 1981.07,1316.07 1991.12,1322.91 2001.16,1329.57 2011.21,1336.04 2021.25,1342.33 2031.3,1348.43 2041.34,1354.34 2051.39,1360.07 2061.44,1365.62 2071.48,1370.99 2081.53,1376.18 2091.57,1381.18 2101.62,1386.01 2111.66,1390.66 2121.71,1395.14 2131.75,1399.43 2141.8,1403.56 2151.85,1407.51 2161.89,1411.29 2171.94,1414.9 2181.98,1418.35 2192.03,1421.62 2202.07,1424.74 2212.12,1427.69 2222.16,1430.48 2232.21,1433.1 2242.26,1435.58 2252.3,1437.89 2262.35,1440.06 2272.39,1442.07 2282.44,1443.93 2292.48,1445.64 "/>
<polyline clip-path="url(#clip592)" style="stroke:#e26f46; stroke-linecap:round; stroke-linejoin:round; stroke-width:4; stroke-opacity:1; fill:none" points="283.376,1220.14 293.421,1176.57 303.467,1133.87 313.512,1092.05 323.558,1051.11 333.603,1011.05 343.649,971.892 353.694,933.624 363.74,896.252 373.786,859.779 383.831,824.205 393.877,789.532 403.922,755.759 413.968,722.885 424.013,690.911 434.059,659.834 444.104,629.653 454.15,600.364 464.195,571.966 474.241,544.454 484.286,517.824 494.332,492.073 504.377,467.196 514.423,443.188 524.469,420.042 534.514,397.754 544.56,376.318 554.605,355.726 564.651,335.972 574.696,317.05 584.742,298.951 594.787,281.668 604.833,265.193 614.878,249.519 624.924,234.636 634.969,220.536 645.015,207.211 655.061,194.651 665.106,182.847 675.152,171.79 685.197,161.47 695.243,151.877 705.288,143.003 715.334,134.836 725.379,127.366 735.425,120.584 745.47,114.479 755.516,109.04 765.561,104.257 775.607,100.119 785.652,96.6158 795.698,93.7357 805.744,91.4682 815.789,89.8022 825.835,88.7266 835.88,88.2303 845.926,88.3021 855.971,88.9308 866.017,90.1051 876.062,91.8136 886.108,94.0451 896.153,96.7882 906.199,100.031 916.244,103.763 926.29,107.973 936.335,112.648 946.381,117.778 956.427,123.351 966.472,129.356 976.518,135.782 986.563,142.616 996.609,149.848 1006.65,157.466 1016.7,165.459 1026.75,173.816 1036.79,182.526 1046.84,191.577 1056.88,200.959 1066.93,210.66 1076.97,220.669 1087.02,230.975 1097.06,241.568 1107.11,252.436 1117.16,263.569 1127.2,274.956 1137.25,286.587 1147.29,298.451 1157.34,310.538 1167.38,322.836 1177.43,335.337 1187.47,348.03 1197.52,360.905 1207.56,373.951 1217.61,387.159 1227.66,400.52 1237.7,414.023 1247.75,427.66 1257.79,441.42 1267.84,455.294 1277.88,469.274 1287.93,483.35 1297.97,497.513 1308.02,511.755 1318.07,526.066 1328.11,540.439 1338.16,554.864 1348.2,569.334 1358.25,583.841 1368.29,598.376 1378.34,612.932 1388.38,627.501 1398.43,642.075 1408.48,656.647 1418.52,671.21 1428.57,685.756 1438.61,700.279 1448.66,714.772 1458.7,729.228 1468.75,743.641 1478.79,758.004 1488.84,772.311 1498.89,786.556 1508.93,800.733 1518.98,814.837 1529.02,828.861 1539.07,842.801 1549.11,856.651 1559.16,870.405 1569.2,884.06 1579.25,897.61 1589.3,911.05 1599.34,924.376 1609.39,937.584 1619.43,950.669 1629.48,963.627 1639.52,976.455 1649.57,989.148 1659.61,1001.7 1669.66,1014.12 1679.71,1026.39 1689.75,1038.51 1699.8,1050.48 1709.84,1062.29 1719.89,1073.95 1729.93,1085.45 1739.98,1096.79 1750.02,1107.96 1760.07,1118.97 1770.11,1129.8 1780.16,1140.47 1790.21,1150.97 1800.25,1161.29 1810.3,1171.43 1820.34,1181.4 1830.39,1191.19 1840.43,1200.8 1850.48,1210.23 1860.52,1219.48 1870.57,1228.54 1880.62,1237.42 1890.66,1246.12 1900.71,1254.63 1910.75,1262.95 1920.8,1271.09 1930.84,1279.05 1940.89,1286.82 1950.93,1294.4 1960.98,1301.8 1971.03,1309.01 1981.07,1316.03 1991.12,1322.87 2001.16,1329.52 2011.21,1335.99 2021.25,1342.27 2031.3,1348.37 2041.34,1354.29 2051.39,1360.02 2061.44,1365.57 2071.48,1370.94 2081.53,1376.13 2091.57,1381.14 2101.62,1385.98 2111.66,1390.63 2121.71,1395.11 2131.75,1399.42 2141.8,1403.55 2151.85,1407.51 2161.89,1411.3 2171.94,1414.93 2181.98,1418.38 2192.03,1421.66 2202.07,1424.79 2212.12,1427.74 2222.16,1430.54 2232.21,1433.17 2242.26,1435.65 2252.3,1437.97 2262.35,1440.14 2272.39,1442.15 2282.44,1444.01 2292.48,1445.72 "/>
<path clip-path="url(#clip590)" d="M1632.21 250.738 L2281.77 250.738 L2281.77 95.2176 L1632.21 95.2176  Z" fill="#ffffff" fill-rule="evenodd" fill-opacity="1"/>
<polyline clip-path="url(#clip590)" style="stroke:#000000; stroke-linecap:round; stroke-linejoin:round; stroke-width:4; stroke-opacity:1; fill:none" points="1632.21,250.738 2281.77,250.738 2281.77,95.2176 1632.21,95.2176 1632.21,250.738 "/>
<polyline clip-path="url(#clip590)" style="stroke:#009af9; stroke-linecap:round; stroke-linejoin:round; stroke-width:4; stroke-opacity:1; fill:none" points="1655.87,147.058 1797.85,147.058 "/>
<path clip-path="url(#clip590)" d="M1837.34 134.384 L1831 151.583 L1843.71 151.583 L1837.34 134.384 M1834.7 129.778 L1840.01 129.778 L1853.18 164.338 L1848.32 164.338 L1845.17 155.472 L1829.59 155.472 L1826.44 164.338 L1821.51 164.338 L1834.7 129.778 Z" fill="#000000" fill-rule="nonzero" fill-opacity="1" /><path clip-path="url(#clip590)" d="M1879.59 148.689 L1879.59 164.338 L1875.33 164.338 L1875.33 148.828 Q1875.33 145.148 1873.89 143.319 Q1872.46 141.49 1869.59 141.49 Q1866.14 141.49 1864.15 143.69 Q1862.16 145.889 1862.16 149.685 L1862.16 164.338 L1857.88 164.338 L1857.88 138.412 L1862.16 138.412 L1862.16 142.44 Q1863.69 140.102 1865.75 138.944 Q1867.83 137.787 1870.54 137.787 Q1875 137.787 1877.3 140.565 Q1879.59 143.319 1879.59 148.689 Z" fill="#000000" fill-rule="nonzero" fill-opacity="1" /><path clip-path="url(#clip590)" d="M1899.87 151.305 Q1894.7 151.305 1892.71 152.486 Q1890.72 153.666 1890.72 156.514 Q1890.72 158.782 1892.2 160.125 Q1893.71 161.444 1896.28 161.444 Q1899.82 161.444 1901.95 158.944 Q1904.1 156.421 1904.1 152.254 L1904.1 151.305 L1899.87 151.305 M1908.36 149.546 L1908.36 164.338 L1904.1 164.338 L1904.1 160.402 Q1902.64 162.763 1900.47 163.898 Q1898.29 165.009 1895.14 165.009 Q1891.16 165.009 1888.8 162.787 Q1886.46 160.541 1886.46 156.791 Q1886.46 152.416 1889.38 150.194 Q1892.32 147.972 1898.13 147.972 L1904.1 147.972 L1904.1 147.555 Q1904.1 144.615 1902.16 143.018 Q1900.24 141.398 1896.74 141.398 Q1894.52 141.398 1892.41 141.93 Q1890.31 142.463 1888.36 143.527 L1888.36 139.592 Q1890.7 138.69 1892.9 138.25 Q1895.1 137.787 1897.18 137.787 Q1902.81 137.787 1905.58 140.703 Q1908.36 143.62 1908.36 149.546 Z" fill="#000000" fill-rule="nonzero" fill-opacity="1" /><path clip-path="url(#clip590)" d="M1917.13 128.319 L1921.39 128.319 L1921.39 164.338 L1917.13 164.338 L1917.13 128.319 Z" fill="#000000" fill-rule="nonzero" fill-opacity="1" /><path clip-path="url(#clip590)" d="M1941.09 166.745 Q1939.29 171.375 1937.57 172.787 Q1935.86 174.199 1932.99 174.199 L1929.59 174.199 L1929.59 170.634 L1932.09 170.634 Q1933.85 170.634 1934.82 169.8 Q1935.79 168.967 1936.97 165.865 L1937.74 163.921 L1927.25 138.412 L1931.76 138.412 L1939.87 158.689 L1947.97 138.412 L1952.48 138.412 L1941.09 166.745 Z" fill="#000000" fill-rule="nonzero" fill-opacity="1" /><path clip-path="url(#clip590)" d="M1962.57 131.051 L1962.57 138.412 L1971.35 138.412 L1971.35 141.722 L1962.57 141.722 L1962.57 155.796 Q1962.57 158.967 1963.43 159.87 Q1964.31 160.773 1966.97 160.773 L1971.35 160.773 L1971.35 164.338 L1966.97 164.338 Q1962.04 164.338 1960.17 162.509 Q1958.29 160.657 1958.29 155.796 L1958.29 141.722 L1955.17 141.722 L1955.17 138.412 L1958.29 138.412 L1958.29 131.051 L1962.57 131.051 Z" fill="#000000" fill-rule="nonzero" fill-opacity="1" /><path clip-path="url(#clip590)" d="M1976.95 138.412 L1981.21 138.412 L1981.21 164.338 L1976.95 164.338 L1976.95 138.412 M1976.95 128.319 L1981.21 128.319 L1981.21 133.713 L1976.95 133.713 L1976.95 128.319 Z" fill="#000000" fill-rule="nonzero" fill-opacity="1" /><path clip-path="url(#clip590)" d="M2008.78 139.407 L2008.78 143.389 Q2006.97 142.393 2005.14 141.907 Q2003.34 141.398 2001.49 141.398 Q1997.34 141.398 1995.05 144.037 Q1992.76 146.652 1992.76 151.398 Q1992.76 156.143 1995.05 158.782 Q1997.34 161.398 2001.49 161.398 Q2003.34 161.398 2005.14 160.912 Q2006.97 160.402 2008.78 159.407 L2008.78 163.342 Q2006.99 164.176 2005.07 164.592 Q2003.18 165.009 2001.02 165.009 Q1995.17 165.009 1991.72 161.328 Q1988.27 157.648 1988.27 151.398 Q1988.27 145.055 1991.74 141.421 Q1995.24 137.787 2001.3 137.787 Q2003.27 137.787 2005.14 138.203 Q2007.02 138.597 2008.78 139.407 Z" fill="#000000" fill-rule="nonzero" fill-opacity="1" /><path clip-path="url(#clip590)" d="M2027.97 151.305 Q2022.8 151.305 2020.81 152.486 Q2018.82 153.666 2018.82 156.514 Q2018.82 158.782 2020.3 160.125 Q2021.81 161.444 2024.38 161.444 Q2027.92 161.444 2030.05 158.944 Q2032.2 156.421 2032.2 152.254 L2032.2 151.305 L2027.97 151.305 M2036.46 149.546 L2036.46 164.338 L2032.2 164.338 L2032.2 160.402 Q2030.74 162.763 2028.57 163.898 Q2026.39 165.009 2023.24 165.009 Q2019.26 165.009 2016.9 162.787 Q2014.56 160.541 2014.56 156.791 Q2014.56 152.416 2017.48 150.194 Q2020.42 147.972 2026.23 147.972 L2032.2 147.972 L2032.2 147.555 Q2032.2 144.615 2030.26 143.018 Q2028.34 141.398 2024.84 141.398 Q2022.62 141.398 2020.51 141.93 Q2018.41 142.463 2016.46 143.527 L2016.46 139.592 Q2018.8 138.69 2021 138.25 Q2023.2 137.787 2025.28 137.787 Q2030.91 137.787 2033.68 140.703 Q2036.46 143.62 2036.46 149.546 Z" fill="#000000" fill-rule="nonzero" fill-opacity="1" /><path clip-path="url(#clip590)" d="M2045.24 128.319 L2049.49 128.319 L2049.49 164.338 L2045.24 164.338 L2045.24 128.319 Z" fill="#000000" fill-rule="nonzero" fill-opacity="1" /><path clip-path="url(#clip590)" d="M2094.38 130.912 L2094.38 135.472 Q2091.72 134.199 2089.36 133.574 Q2086.99 132.949 2084.8 132.949 Q2080.98 132.949 2078.89 134.43 Q2076.83 135.912 2076.83 138.643 Q2076.83 140.935 2078.2 142.115 Q2079.59 143.273 2083.43 143.99 L2086.25 144.569 Q2091.49 145.565 2093.96 148.088 Q2096.46 150.588 2096.46 154.801 Q2096.46 159.824 2093.08 162.416 Q2089.73 165.009 2083.22 165.009 Q2080.77 165.009 2077.99 164.453 Q2075.24 163.898 2072.27 162.81 L2072.27 157.995 Q2075.12 159.592 2077.85 160.402 Q2080.58 161.213 2083.22 161.213 Q2087.23 161.213 2089.4 159.639 Q2091.58 158.064 2091.58 155.148 Q2091.58 152.602 2090 151.166 Q2088.45 149.731 2084.89 149.014 L2082.04 148.458 Q2076.81 147.416 2074.47 145.194 Q2072.13 142.972 2072.13 139.014 Q2072.13 134.43 2075.35 131.791 Q2078.59 129.153 2084.26 129.153 Q2086.69 129.153 2089.22 129.592 Q2091.74 130.032 2094.38 130.912 Z" fill="#000000" fill-rule="nonzero" fill-opacity="1" /><path clip-path="url(#clip590)" d="M2113.61 141.398 Q2110.19 141.398 2108.2 144.083 Q2106.21 146.745 2106.21 151.398 Q2106.21 156.051 2108.17 158.736 Q2110.17 161.398 2113.61 161.398 Q2117.02 161.398 2119.01 158.713 Q2121 156.027 2121 151.398 Q2121 146.791 2119.01 144.106 Q2117.02 141.398 2113.61 141.398 M2113.61 137.787 Q2119.17 137.787 2122.34 141.398 Q2125.51 145.009 2125.51 151.398 Q2125.51 157.764 2122.34 161.398 Q2119.17 165.009 2113.61 165.009 Q2108.04 165.009 2104.86 161.398 Q2101.72 157.764 2101.72 151.398 Q2101.72 145.009 2104.86 141.398 Q2108.04 137.787 2113.61 137.787 Z" fill="#000000" fill-rule="nonzero" fill-opacity="1" /><path clip-path="url(#clip590)" d="M2132.57 128.319 L2136.83 128.319 L2136.83 164.338 L2132.57 164.338 L2132.57 128.319 Z" fill="#000000" fill-rule="nonzero" fill-opacity="1" /><path clip-path="url(#clip590)" d="M2145.3 154.106 L2145.3 138.412 L2149.56 138.412 L2149.56 153.944 Q2149.56 157.625 2151 159.476 Q2152.43 161.305 2155.3 161.305 Q2158.75 161.305 2160.74 159.106 Q2162.76 156.907 2162.76 153.111 L2162.76 138.412 L2167.02 138.412 L2167.02 164.338 L2162.76 164.338 L2162.76 160.356 Q2161.21 162.717 2159.15 163.875 Q2157.11 165.009 2154.4 165.009 Q2149.93 165.009 2147.62 162.231 Q2145.3 159.453 2145.3 154.106 M2156.02 137.787 L2156.02 137.787 Z" fill="#000000" fill-rule="nonzero" fill-opacity="1" /><path clip-path="url(#clip590)" d="M2180 131.051 L2180 138.412 L2188.78 138.412 L2188.78 141.722 L2180 141.722 L2180 155.796 Q2180 158.967 2180.86 159.87 Q2181.74 160.773 2184.4 160.773 L2188.78 160.773 L2188.78 164.338 L2184.4 164.338 Q2179.47 164.338 2177.6 162.509 Q2175.72 160.657 2175.72 155.796 L2175.72 141.722 L2172.6 141.722 L2172.6 138.412 L2175.72 138.412 L2175.72 131.051 L2180 131.051 Z" fill="#000000" fill-rule="nonzero" fill-opacity="1" /><path clip-path="url(#clip590)" d="M2194.38 138.412 L2198.64 138.412 L2198.64 164.338 L2194.38 164.338 L2194.38 138.412 M2194.38 128.319 L2198.64 128.319 L2198.64 133.713 L2194.38 133.713 L2194.38 128.319 Z" fill="#000000" fill-rule="nonzero" fill-opacity="1" /><path clip-path="url(#clip590)" d="M2217.6 141.398 Q2214.17 141.398 2212.18 144.083 Q2210.19 146.745 2210.19 151.398 Q2210.19 156.051 2212.16 158.736 Q2214.15 161.398 2217.6 161.398 Q2221 161.398 2222.99 158.713 Q2224.98 156.027 2224.98 151.398 Q2224.98 146.791 2222.99 144.106 Q2221 141.398 2217.6 141.398 M2217.6 137.787 Q2223.15 137.787 2226.32 141.398 Q2229.49 145.009 2229.49 151.398 Q2229.49 157.764 2226.32 161.398 Q2223.15 165.009 2217.6 165.009 Q2212.02 165.009 2208.85 161.398 Q2205.7 157.764 2205.7 151.398 Q2205.7 145.009 2208.85 141.398 Q2212.02 137.787 2217.6 137.787 Z" fill="#000000" fill-rule="nonzero" fill-opacity="1" /><path clip-path="url(#clip590)" d="M2258.1 148.689 L2258.1 164.338 L2253.85 164.338 L2253.85 148.828 Q2253.85 145.148 2252.41 143.319 Q2250.98 141.49 2248.1 141.49 Q2244.66 141.49 2242.66 143.69 Q2240.67 145.889 2240.67 149.685 L2240.67 164.338 L2236.39 164.338 L2236.39 138.412 L2240.67 138.412 L2240.67 142.44 Q2242.2 140.102 2244.26 138.944 Q2246.35 137.787 2249.05 137.787 Q2253.52 137.787 2255.81 140.565 Q2258.1 143.319 2258.1 148.689 Z" fill="#000000" fill-rule="nonzero" fill-opacity="1" /><polyline clip-path="url(#clip590)" style="stroke:#e26f46; stroke-linecap:round; stroke-linejoin:round; stroke-width:4; stroke-opacity:1; fill:none" points="1655.87,198.898 1797.85,198.898 "/>
<path clip-path="url(#clip590)" d="M1826.19 185.46 L1826.19 198.446 L1832.07 198.446 Q1835.33 198.446 1837.11 196.756 Q1838.89 195.067 1838.89 191.942 Q1838.89 188.84 1837.11 187.15 Q1835.33 185.46 1832.07 185.46 L1826.19 185.46 M1821.51 181.618 L1832.07 181.618 Q1837.88 181.618 1840.84 184.256 Q1843.82 186.872 1843.82 191.942 Q1843.82 197.057 1840.84 199.673 Q1837.88 202.289 1832.07 202.289 L1826.19 202.289 L1826.19 216.178 L1821.51 216.178 L1821.51 181.618 Z" fill="#000000" fill-rule="nonzero" fill-opacity="1" /><path clip-path="url(#clip590)" d="M1850.1 181.618 L1854.77 181.618 L1854.77 216.178 L1850.1 216.178 L1850.1 181.618 Z" fill="#000000" fill-rule="nonzero" fill-opacity="1" /><path clip-path="url(#clip590)" d="M1864.08 181.618 L1870.38 181.618 L1885.7 210.529 L1885.7 181.618 L1890.24 181.618 L1890.24 216.178 L1883.94 216.178 L1868.62 187.266 L1868.62 216.178 L1864.08 216.178 L1864.08 181.618 Z" fill="#000000" fill-rule="nonzero" fill-opacity="1" /><path clip-path="url(#clip590)" d="M1899.54 181.618 L1905.84 181.618 L1921.16 210.529 L1921.16 181.618 L1925.7 181.618 L1925.7 216.178 L1919.4 216.178 L1904.08 187.266 L1904.08 216.178 L1899.54 216.178 L1899.54 181.618 Z" fill="#000000" fill-rule="nonzero" fill-opacity="1" /><path clip-path="url(#clip590)" d="M1970.79 182.752 L1970.79 187.312 Q1968.13 186.039 1965.77 185.414 Q1963.41 184.789 1961.21 184.789 Q1957.39 184.789 1955.31 186.27 Q1953.25 187.752 1953.25 190.483 Q1953.25 192.775 1954.61 193.955 Q1956 195.113 1959.84 195.83 L1962.67 196.409 Q1967.9 197.405 1970.37 199.928 Q1972.87 202.428 1972.87 206.641 Q1972.87 211.664 1969.5 214.256 Q1966.14 216.849 1959.63 216.849 Q1957.18 216.849 1954.4 216.293 Q1951.65 215.738 1948.69 214.65 L1948.69 209.835 Q1951.53 211.432 1954.26 212.242 Q1957 213.053 1959.63 213.053 Q1963.64 213.053 1965.81 211.479 Q1967.99 209.904 1967.99 206.988 Q1967.99 204.442 1966.42 203.006 Q1964.87 201.571 1961.3 200.854 L1958.45 200.298 Q1953.22 199.256 1950.88 197.034 Q1948.55 194.812 1948.55 190.854 Q1948.55 186.27 1951.76 183.631 Q1955 180.993 1960.68 180.993 Q1963.11 180.993 1965.63 181.432 Q1968.15 181.872 1970.79 182.752 Z" fill="#000000" fill-rule="nonzero" fill-opacity="1" /><path clip-path="url(#clip590)" d="M1990.03 193.238 Q1986.6 193.238 1984.61 195.923 Q1982.62 198.585 1982.62 203.238 Q1982.62 207.891 1984.59 210.576 Q1986.58 213.238 1990.03 213.238 Q1993.43 213.238 1995.42 210.553 Q1997.41 207.867 1997.41 203.238 Q1997.41 198.631 1995.42 195.946 Q1993.43 193.238 1990.03 193.238 M1990.03 189.627 Q1995.58 189.627 1998.75 193.238 Q2001.93 196.849 2001.93 203.238 Q2001.93 209.604 1998.75 213.238 Q1995.58 216.849 1990.03 216.849 Q1984.45 216.849 1981.28 213.238 Q1978.13 209.604 1978.13 203.238 Q1978.13 196.849 1981.28 193.238 Q1984.45 189.627 1990.03 189.627 Z" fill="#000000" fill-rule="nonzero" fill-opacity="1" /><path clip-path="url(#clip590)" d="M2008.99 180.159 L2013.24 180.159 L2013.24 216.178 L2008.99 216.178 L2008.99 180.159 Z" fill="#000000" fill-rule="nonzero" fill-opacity="1" /><path clip-path="url(#clip590)" d="M2021.72 205.946 L2021.72 190.252 L2025.98 190.252 L2025.98 205.784 Q2025.98 209.465 2027.41 211.316 Q2028.85 213.145 2031.72 213.145 Q2035.17 213.145 2037.16 210.946 Q2039.17 208.747 2039.17 204.951 L2039.17 190.252 L2043.43 190.252 L2043.43 216.178 L2039.17 216.178 L2039.17 212.196 Q2037.62 214.557 2035.56 215.715 Q2033.52 216.849 2030.81 216.849 Q2026.35 216.849 2024.03 214.071 Q2021.72 211.293 2021.72 205.946 M2032.43 189.627 L2032.43 189.627 Z" fill="#000000" fill-rule="nonzero" fill-opacity="1" /><path clip-path="url(#clip590)" d="M2056.42 182.891 L2056.42 190.252 L2065.19 190.252 L2065.19 193.562 L2056.42 193.562 L2056.42 207.636 Q2056.42 210.807 2057.27 211.71 Q2058.15 212.613 2060.81 212.613 L2065.19 212.613 L2065.19 216.178 L2060.81 216.178 Q2055.88 216.178 2054.01 214.349 Q2052.13 212.497 2052.13 207.636 L2052.13 193.562 L2049.01 193.562 L2049.01 190.252 L2052.13 190.252 L2052.13 182.891 L2056.42 182.891 Z" fill="#000000" fill-rule="nonzero" fill-opacity="1" /><path clip-path="url(#clip590)" d="M2070.79 190.252 L2075.05 190.252 L2075.05 216.178 L2070.79 216.178 L2070.79 190.252 M2070.79 180.159 L2075.05 180.159 L2075.05 185.553 L2070.79 185.553 L2070.79 180.159 Z" fill="#000000" fill-rule="nonzero" fill-opacity="1" /><path clip-path="url(#clip590)" d="M2094.01 193.238 Q2090.58 193.238 2088.59 195.923 Q2086.6 198.585 2086.6 203.238 Q2086.6 207.891 2088.57 210.576 Q2090.56 213.238 2094.01 213.238 Q2097.41 213.238 2099.4 210.553 Q2101.39 207.867 2101.39 203.238 Q2101.39 198.631 2099.4 195.946 Q2097.41 193.238 2094.01 193.238 M2094.01 189.627 Q2099.56 189.627 2102.74 193.238 Q2105.91 196.849 2105.91 203.238 Q2105.91 209.604 2102.74 213.238 Q2099.56 216.849 2094.01 216.849 Q2088.43 216.849 2085.26 213.238 Q2082.11 209.604 2082.11 203.238 Q2082.11 196.849 2085.26 193.238 Q2088.43 189.627 2094.01 189.627 Z" fill="#000000" fill-rule="nonzero" fill-opacity="1" /><path clip-path="url(#clip590)" d="M2134.52 200.529 L2134.52 216.178 L2130.26 216.178 L2130.26 200.668 Q2130.26 196.988 2128.82 195.159 Q2127.39 193.33 2124.52 193.33 Q2121.07 193.33 2119.08 195.53 Q2117.09 197.729 2117.09 201.525 L2117.09 216.178 L2112.8 216.178 L2112.8 190.252 L2117.09 190.252 L2117.09 194.28 Q2118.61 191.942 2120.67 190.784 Q2122.76 189.627 2125.47 189.627 Q2129.93 189.627 2132.23 192.405 Q2134.52 195.159 2134.52 200.529 Z" fill="#000000" fill-rule="nonzero" fill-opacity="1" /></svg>
