<?xml version="1.0" encoding="utf-8"?>
<svg xmlns="http://www.w3.org/2000/svg" xmlns:xlink="http://www.w3.org/1999/xlink" width="600" height="400" viewBox="0 0 2400 1600">
<defs>
  <clipPath id="clip940">
    <rect x="0" y="0" width="2400" height="1600"/>
  </clipPath>
</defs>
<path clip-path="url(#clip940)" d="M0 1600 L2400 1600 L2400 0 L0 0  Z" fill="#ffffff" fill-rule="evenodd" fill-opacity="1"/>
<defs>
  <clipPath id="clip941">
    <rect x="480" y="0" width="1681" height="1600"/>
  </clipPath>
</defs>
<path clip-path="url(#clip940)" d="M224.098 686.448 L1152.76 686.448 L1152.76 123.472 L224.098 123.472  Z" fill="#ffffff" fill-rule="evenodd" fill-opacity="1"/>
<defs>
  <clipPath id="clip942">
    <rect x="224" y="123" width="930" height="564"/>
  </clipPath>
</defs>
<polyline clip-path="url(#clip942)" style="stroke:#000000; stroke-linecap:round; stroke-linejoin:round; stroke-width:2; stroke-opacity:0.1; fill:none" points="250.381,686.448 250.381,123.472 "/>
<polyline clip-path="url(#clip942)" style="stroke:#000000; stroke-linecap:round; stroke-linejoin:round; stroke-width:2; stroke-opacity:0.1; fill:none" points="469.404,686.448 469.404,123.472 "/>
<polyline clip-path="url(#clip942)" style="stroke:#000000; stroke-linecap:round; stroke-linejoin:round; stroke-width:2; stroke-opacity:0.1; fill:none" points="688.427,686.448 688.427,123.472 "/>
<polyline clip-path="url(#clip942)" style="stroke:#000000; stroke-linecap:round; stroke-linejoin:round; stroke-width:2; stroke-opacity:0.1; fill:none" points="907.45,686.448 907.45,123.472 "/>
<polyline clip-path="url(#clip942)" style="stroke:#000000; stroke-linecap:round; stroke-linejoin:round; stroke-width:2; stroke-opacity:0.1; fill:none" points="1126.47,686.448 1126.47,123.472 "/>
<polyline clip-path="url(#clip940)" style="stroke:#000000; stroke-linecap:round; stroke-linejoin:round; stroke-width:4; stroke-opacity:1; fill:none" points="224.098,686.448 1152.76,686.448 "/>
<polyline clip-path="url(#clip940)" style="stroke:#000000; stroke-linecap:round; stroke-linejoin:round; stroke-width:4; stroke-opacity:1; fill:none" points="250.381,686.448 250.381,667.55 "/>
<polyline clip-path="url(#clip940)" style="stroke:#000000; stroke-linecap:round; stroke-linejoin:round; stroke-width:4; stroke-opacity:1; fill:none" points="469.404,686.448 469.404,667.55 "/>
<polyline clip-path="url(#clip940)" style="stroke:#000000; stroke-linecap:round; stroke-linejoin:round; stroke-width:4; stroke-opacity:1; fill:none" points="688.427,686.448 688.427,667.55 "/>
<polyline clip-path="url(#clip940)" style="stroke:#000000; stroke-linecap:round; stroke-linejoin:round; stroke-width:4; stroke-opacity:1; fill:none" points="907.45,686.448 907.45,667.55 "/>
<polyline clip-path="url(#clip940)" style="stroke:#000000; stroke-linecap:round; stroke-linejoin:round; stroke-width:4; stroke-opacity:1; fill:none" points="1126.47,686.448 1126.47,667.55 "/>
<path clip-path="url(#clip940)" d="M196.909 732.019 L226.584 732.019 L226.584 735.954 L196.909 735.954 L196.909 732.019 Z" fill="#000000" fill-rule="nonzero" fill-opacity="1" /><path clip-path="url(#clip940)" d="M237.487 744.913 L245.126 744.913 L245.126 718.547 L236.816 720.214 L236.816 715.955 L245.08 714.288 L249.756 714.288 L249.756 744.913 L257.394 744.913 L257.394 748.848 L237.487 748.848 L237.487 744.913 Z" fill="#000000" fill-rule="nonzero" fill-opacity="1" /><path clip-path="url(#clip940)" d="M266.839 742.968 L271.723 742.968 L271.723 748.848 L266.839 748.848 L266.839 742.968 Z" fill="#000000" fill-rule="nonzero" fill-opacity="1" /><path clip-path="url(#clip940)" d="M291.908 717.367 Q288.297 717.367 286.468 720.931 Q284.663 724.473 284.663 731.603 Q284.663 738.709 286.468 742.274 Q288.297 745.815 291.908 745.815 Q295.542 745.815 297.348 742.274 Q299.177 738.709 299.177 731.603 Q299.177 724.473 297.348 720.931 Q295.542 717.367 291.908 717.367 M291.908 713.663 Q297.718 713.663 300.774 718.269 Q303.853 722.853 303.853 731.603 Q303.853 740.329 300.774 744.936 Q297.718 749.519 291.908 749.519 Q286.098 749.519 283.019 744.936 Q279.964 740.329 279.964 731.603 Q279.964 722.853 283.019 718.269 Q286.098 713.663 291.908 713.663 Z" fill="#000000" fill-rule="nonzero" fill-opacity="1" /><path clip-path="url(#clip940)" d="M416.43 732.019 L446.105 732.019 L446.105 735.954 L416.43 735.954 L416.43 732.019 Z" fill="#000000" fill-rule="nonzero" fill-opacity="1" /><path clip-path="url(#clip940)" d="M466.198 717.367 Q462.587 717.367 460.758 720.931 Q458.952 724.473 458.952 731.603 Q458.952 738.709 460.758 742.274 Q462.587 745.815 466.198 745.815 Q469.832 745.815 471.638 742.274 Q473.466 738.709 473.466 731.603 Q473.466 724.473 471.638 720.931 Q469.832 717.367 466.198 717.367 M466.198 713.663 Q472.008 713.663 475.063 718.269 Q478.142 722.853 478.142 731.603 Q478.142 740.329 475.063 744.936 Q472.008 749.519 466.198 749.519 Q460.388 749.519 457.309 744.936 Q454.253 740.329 454.253 731.603 Q454.253 722.853 457.309 718.269 Q460.388 713.663 466.198 713.663 Z" fill="#000000" fill-rule="nonzero" fill-opacity="1" /><path clip-path="url(#clip940)" d="M486.36 742.968 L491.244 742.968 L491.244 748.848 L486.36 748.848 L486.36 742.968 Z" fill="#000000" fill-rule="nonzero" fill-opacity="1" /><path clip-path="url(#clip940)" d="M501.475 714.288 L519.832 714.288 L519.832 718.223 L505.758 718.223 L505.758 726.695 Q506.776 726.348 507.795 726.186 Q508.813 726.001 509.832 726.001 Q515.619 726.001 518.998 729.172 Q522.378 732.343 522.378 737.76 Q522.378 743.339 518.906 746.44 Q515.434 749.519 509.114 749.519 Q506.938 749.519 504.67 749.149 Q502.424 748.778 500.017 748.038 L500.017 743.339 Q502.1 744.473 504.323 745.028 Q506.545 745.584 509.022 745.584 Q513.026 745.584 515.364 743.478 Q517.702 741.371 517.702 737.76 Q517.702 734.149 515.364 732.042 Q513.026 729.936 509.022 729.936 Q507.147 729.936 505.272 730.353 Q503.42 730.769 501.475 731.649 L501.475 714.288 Z" fill="#000000" fill-rule="nonzero" fill-opacity="1" /><path clip-path="url(#clip940)" d="M665.811 717.367 Q662.2 717.367 660.371 720.931 Q658.566 724.473 658.566 731.603 Q658.566 738.709 660.371 742.274 Q662.2 745.815 665.811 745.815 Q669.446 745.815 671.251 742.274 Q673.08 738.709 673.08 731.603 Q673.08 724.473 671.251 720.931 Q669.446 717.367 665.811 717.367 M665.811 713.663 Q671.621 713.663 674.677 718.269 Q677.756 722.853 677.756 731.603 Q677.756 740.329 674.677 744.936 Q671.621 749.519 665.811 749.519 Q660.001 749.519 656.922 744.936 Q653.867 740.329 653.867 731.603 Q653.867 722.853 656.922 718.269 Q660.001 713.663 665.811 713.663 Z" fill="#000000" fill-rule="nonzero" fill-opacity="1" /><path clip-path="url(#clip940)" d="M685.973 742.968 L690.857 742.968 L690.857 748.848 L685.973 748.848 L685.973 742.968 Z" fill="#000000" fill-rule="nonzero" fill-opacity="1" /><path clip-path="url(#clip940)" d="M711.043 717.367 Q707.431 717.367 705.603 720.931 Q703.797 724.473 703.797 731.603 Q703.797 738.709 705.603 742.274 Q707.431 745.815 711.043 745.815 Q714.677 745.815 716.482 742.274 Q718.311 738.709 718.311 731.603 Q718.311 724.473 716.482 720.931 Q714.677 717.367 711.043 717.367 M711.043 713.663 Q716.853 713.663 719.908 718.269 Q722.987 722.853 722.987 731.603 Q722.987 740.329 719.908 744.936 Q716.853 749.519 711.043 749.519 Q705.232 749.519 702.154 744.936 Q699.098 740.329 699.098 731.603 Q699.098 722.853 702.154 718.269 Q705.232 713.663 711.043 713.663 Z" fill="#000000" fill-rule="nonzero" fill-opacity="1" /><path clip-path="url(#clip940)" d="M885.332 717.367 Q881.721 717.367 879.892 720.931 Q878.087 724.473 878.087 731.603 Q878.087 738.709 879.892 742.274 Q881.721 745.815 885.332 745.815 Q888.966 745.815 890.772 742.274 Q892.601 738.709 892.601 731.603 Q892.601 724.473 890.772 720.931 Q888.966 717.367 885.332 717.367 M885.332 713.663 Q891.142 713.663 894.198 718.269 Q897.276 722.853 897.276 731.603 Q897.276 740.329 894.198 744.936 Q891.142 749.519 885.332 749.519 Q879.522 749.519 876.443 744.936 Q873.388 740.329 873.388 731.603 Q873.388 722.853 876.443 718.269 Q879.522 713.663 885.332 713.663 Z" fill="#000000" fill-rule="nonzero" fill-opacity="1" /><path clip-path="url(#clip940)" d="M905.494 742.968 L910.378 742.968 L910.378 748.848 L905.494 748.848 L905.494 742.968 Z" fill="#000000" fill-rule="nonzero" fill-opacity="1" /><path clip-path="url(#clip940)" d="M920.61 714.288 L938.966 714.288 L938.966 718.223 L924.892 718.223 L924.892 726.695 Q925.911 726.348 926.929 726.186 Q927.948 726.001 928.966 726.001 Q934.753 726.001 938.133 729.172 Q941.512 732.343 941.512 737.76 Q941.512 743.339 938.04 746.44 Q934.568 749.519 928.249 749.519 Q926.073 749.519 923.804 749.149 Q921.559 748.778 919.151 748.038 L919.151 743.339 Q921.235 744.473 923.457 745.028 Q925.679 745.584 928.156 745.584 Q932.161 745.584 934.498 743.478 Q936.836 741.371 936.836 737.76 Q936.836 734.149 934.498 732.042 Q932.161 729.936 928.156 729.936 Q926.281 729.936 924.406 730.353 Q922.554 730.769 920.61 731.649 L920.61 714.288 Z" fill="#000000" fill-rule="nonzero" fill-opacity="1" /><path clip-path="url(#clip940)" d="M1093.63 744.913 L1101.26 744.913 L1101.26 718.547 L1092.95 720.214 L1092.95 715.955 L1101.22 714.288 L1105.89 714.288 L1105.89 744.913 L1113.53 744.913 L1113.53 748.848 L1093.63 748.848 L1093.63 744.913 Z" fill="#000000" fill-rule="nonzero" fill-opacity="1" /><path clip-path="url(#clip940)" d="M1122.98 742.968 L1127.86 742.968 L1127.86 748.848 L1122.98 748.848 L1122.98 742.968 Z" fill="#000000" fill-rule="nonzero" fill-opacity="1" /><path clip-path="url(#clip940)" d="M1148.05 717.367 Q1144.44 717.367 1142.61 720.931 Q1140.8 724.473 1140.8 731.603 Q1140.8 738.709 1142.61 742.274 Q1144.44 745.815 1148.05 745.815 Q1151.68 745.815 1153.49 742.274 Q1155.32 738.709 1155.32 731.603 Q1155.32 724.473 1153.49 720.931 Q1151.68 717.367 1148.05 717.367 M1148.05 713.663 Q1153.86 713.663 1156.91 718.269 Q1159.99 722.853 1159.99 731.603 Q1159.99 740.329 1156.91 744.936 Q1153.86 749.519 1148.05 749.519 Q1142.24 749.519 1139.16 744.936 Q1136.1 740.329 1136.1 731.603 Q1136.1 722.853 1139.16 718.269 Q1142.24 713.663 1148.05 713.663 Z" fill="#000000" fill-rule="nonzero" fill-opacity="1" /><polyline clip-path="url(#clip942)" style="stroke:#000000; stroke-linecap:round; stroke-linejoin:round; stroke-width:2; stroke-opacity:0.1; fill:none" points="224.098,599.671 1152.76,599.671 "/>
<polyline clip-path="url(#clip942)" style="stroke:#000000; stroke-linecap:round; stroke-linejoin:round; stroke-width:2; stroke-opacity:0.1; fill:none" points="224.098,504.298 1152.76,504.298 "/>
<polyline clip-path="url(#clip942)" style="stroke:#000000; stroke-linecap:round; stroke-linejoin:round; stroke-width:2; stroke-opacity:0.1; fill:none" points="224.098,408.925 1152.76,408.925 "/>
<polyline clip-path="url(#clip942)" style="stroke:#000000; stroke-linecap:round; stroke-linejoin:round; stroke-width:2; stroke-opacity:0.1; fill:none" points="224.098,313.552 1152.76,313.552 "/>
<polyline clip-path="url(#clip942)" style="stroke:#000000; stroke-linecap:round; stroke-linejoin:round; stroke-width:2; stroke-opacity:0.1; fill:none" points="224.098,218.179 1152.76,218.179 "/>
<polyline clip-path="url(#clip940)" style="stroke:#000000; stroke-linecap:round; stroke-linejoin:round; stroke-width:4; stroke-opacity:1; fill:none" points="224.098,686.448 224.098,123.472 "/>
<polyline clip-path="url(#clip940)" style="stroke:#000000; stroke-linecap:round; stroke-linejoin:round; stroke-width:4; stroke-opacity:1; fill:none" points="224.098,599.671 242.996,599.671 "/>
<polyline clip-path="url(#clip940)" style="stroke:#000000; stroke-linecap:round; stroke-linejoin:round; stroke-width:4; stroke-opacity:1; fill:none" points="224.098,504.298 242.996,504.298 "/>
<polyline clip-path="url(#clip940)" style="stroke:#000000; stroke-linecap:round; stroke-linejoin:round; stroke-width:4; stroke-opacity:1; fill:none" points="224.098,408.925 242.996,408.925 "/>
<polyline clip-path="url(#clip940)" style="stroke:#000000; stroke-linecap:round; stroke-linejoin:round; stroke-width:4; stroke-opacity:1; fill:none" points="224.098,313.552 242.996,313.552 "/>
<polyline clip-path="url(#clip940)" style="stroke:#000000; stroke-linecap:round; stroke-linejoin:round; stroke-width:4; stroke-opacity:1; fill:none" points="224.098,218.179 242.996,218.179 "/>
<path clip-path="url(#clip940)" d="M50.9921 600.123 L80.6679 600.123 L80.6679 604.058 L50.9921 604.058 L50.9921 600.123 Z" fill="#000000" fill-rule="nonzero" fill-opacity="1" /><path clip-path="url(#clip940)" d="M100.76 585.47 Q97.1493 585.47 95.3206 589.035 Q93.515 592.577 93.515 599.706 Q93.515 606.813 95.3206 610.377 Q97.1493 613.919 100.76 613.919 Q104.395 613.919 106.2 610.377 Q108.029 606.813 108.029 599.706 Q108.029 592.577 106.2 589.035 Q104.395 585.47 100.76 585.47 M100.76 581.766 Q106.571 581.766 109.626 586.373 Q112.705 590.956 112.705 599.706 Q112.705 608.433 109.626 613.039 Q106.571 617.623 100.76 617.623 Q94.9502 617.623 91.8715 613.039 Q88.816 608.433 88.816 599.706 Q88.816 590.956 91.8715 586.373 Q94.9502 581.766 100.76 581.766 Z" fill="#000000" fill-rule="nonzero" fill-opacity="1" /><path clip-path="url(#clip940)" d="M120.922 611.072 L125.807 611.072 L125.807 616.951 L120.922 616.951 L120.922 611.072 Z" fill="#000000" fill-rule="nonzero" fill-opacity="1" /><path clip-path="url(#clip940)" d="M136.038 582.391 L154.394 582.391 L154.394 586.327 L140.32 586.327 L140.32 594.799 Q141.339 594.452 142.357 594.29 Q143.376 594.104 144.394 594.104 Q150.181 594.104 153.561 597.276 Q156.941 600.447 156.941 605.864 Q156.941 611.442 153.468 614.544 Q149.996 617.623 143.677 617.623 Q141.501 617.623 139.232 617.252 Q136.987 616.882 134.58 616.141 L134.58 611.442 Q136.663 612.576 138.885 613.132 Q141.107 613.688 143.584 613.688 Q147.589 613.688 149.927 611.581 Q152.265 609.475 152.265 605.864 Q152.265 602.252 149.927 600.146 Q147.589 598.039 143.584 598.039 Q141.709 598.039 139.834 598.456 Q137.982 598.873 136.038 599.752 L136.038 582.391 Z" fill="#000000" fill-rule="nonzero" fill-opacity="1" /><path clip-path="url(#clip940)" d="M176.153 585.47 Q172.542 585.47 170.714 589.035 Q168.908 592.577 168.908 599.706 Q168.908 606.813 170.714 610.377 Q172.542 613.919 176.153 613.919 Q179.788 613.919 181.593 610.377 Q183.422 606.813 183.422 599.706 Q183.422 592.577 181.593 589.035 Q179.788 585.47 176.153 585.47 M176.153 581.766 Q181.964 581.766 185.019 586.373 Q188.098 590.956 188.098 599.706 Q188.098 608.433 185.019 613.039 Q181.964 617.623 176.153 617.623 Q170.343 617.623 167.265 613.039 Q164.209 608.433 164.209 599.706 Q164.209 590.956 167.265 586.373 Q170.343 581.766 176.153 581.766 Z" fill="#000000" fill-rule="nonzero" fill-opacity="1" /><path clip-path="url(#clip940)" d="M51.9875 504.75 L81.6633 504.75 L81.6633 508.685 L51.9875 508.685 L51.9875 504.75 Z" fill="#000000" fill-rule="nonzero" fill-opacity="1" /><path clip-path="url(#clip940)" d="M101.756 490.097 Q98.1447 490.097 96.316 493.662 Q94.5104 497.204 94.5104 504.333 Q94.5104 511.44 96.316 515.004 Q98.1447 518.546 101.756 518.546 Q105.39 518.546 107.196 515.004 Q109.024 511.44 109.024 504.333 Q109.024 497.204 107.196 493.662 Q105.39 490.097 101.756 490.097 M101.756 486.393 Q107.566 486.393 110.621 491 Q113.7 495.583 113.7 504.333 Q113.7 513.06 110.621 517.666 Q107.566 522.25 101.756 522.25 Q95.9456 522.25 92.8669 517.666 Q89.8114 513.06 89.8114 504.333 Q89.8114 495.583 92.8669 491 Q95.9456 486.393 101.756 486.393 Z" fill="#000000" fill-rule="nonzero" fill-opacity="1" /><path clip-path="url(#clip940)" d="M121.918 515.699 L126.802 515.699 L126.802 521.578 L121.918 521.578 L121.918 515.699 Z" fill="#000000" fill-rule="nonzero" fill-opacity="1" /><path clip-path="url(#clip940)" d="M141.015 517.643 L157.334 517.643 L157.334 521.578 L135.39 521.578 L135.39 517.643 Q138.052 514.889 142.635 510.259 Q147.242 505.606 148.422 504.264 Q150.668 501.741 151.547 500.004 Q152.45 498.245 152.45 496.555 Q152.45 493.801 150.505 492.065 Q148.584 490.329 145.482 490.329 Q143.283 490.329 140.83 491.092 Q138.399 491.856 135.621 493.407 L135.621 488.685 Q138.445 487.551 140.899 486.972 Q143.353 486.393 145.39 486.393 Q150.76 486.393 153.955 489.079 Q157.149 491.764 157.149 496.254 Q157.149 498.384 156.339 500.305 Q155.552 502.203 153.445 504.796 Q152.867 505.467 149.765 508.685 Q146.663 511.879 141.015 517.643 Z" fill="#000000" fill-rule="nonzero" fill-opacity="1" /><path clip-path="url(#clip940)" d="M167.195 487.018 L185.552 487.018 L185.552 490.954 L171.478 490.954 L171.478 499.426 Q172.496 499.079 173.515 498.916 Q174.533 498.731 175.552 498.731 Q181.339 498.731 184.718 501.903 Q188.098 505.074 188.098 510.49 Q188.098 516.069 184.626 519.171 Q181.153 522.25 174.834 522.25 Q172.658 522.25 170.39 521.879 Q168.144 521.509 165.737 520.768 L165.737 516.069 Q167.82 517.203 170.042 517.759 Q172.265 518.315 174.741 518.315 Q178.746 518.315 181.084 516.208 Q183.422 514.102 183.422 510.49 Q183.422 506.879 181.084 504.773 Q178.746 502.666 174.741 502.666 Q172.866 502.666 170.991 503.083 Q169.14 503.5 167.195 504.379 L167.195 487.018 Z" fill="#000000" fill-rule="nonzero" fill-opacity="1" /><path clip-path="url(#clip940)" d="M100.76 394.724 Q97.1493 394.724 95.3206 398.289 Q93.515 401.83 93.515 408.96 Q93.515 416.067 95.3206 419.631 Q97.1493 423.173 100.76 423.173 Q104.395 423.173 106.2 419.631 Q108.029 416.067 108.029 408.96 Q108.029 401.83 106.2 398.289 Q104.395 394.724 100.76 394.724 M100.76 391.02 Q106.571 391.02 109.626 395.627 Q112.705 400.21 112.705 408.96 Q112.705 417.687 109.626 422.293 Q106.571 426.877 100.76 426.877 Q94.9502 426.877 91.8715 422.293 Q88.816 417.687 88.816 408.96 Q88.816 400.21 91.8715 395.627 Q94.9502 391.02 100.76 391.02 Z" fill="#000000" fill-rule="nonzero" fill-opacity="1" /><path clip-path="url(#clip940)" d="M120.922 420.326 L125.807 420.326 L125.807 426.205 L120.922 426.205 L120.922 420.326 Z" fill="#000000" fill-rule="nonzero" fill-opacity="1" /><path clip-path="url(#clip940)" d="M145.992 394.724 Q142.381 394.724 140.552 398.289 Q138.746 401.83 138.746 408.96 Q138.746 416.067 140.552 419.631 Q142.381 423.173 145.992 423.173 Q149.626 423.173 151.431 419.631 Q153.26 416.067 153.26 408.96 Q153.26 401.83 151.431 398.289 Q149.626 394.724 145.992 394.724 M145.992 391.02 Q151.802 391.02 154.857 395.627 Q157.936 400.21 157.936 408.96 Q157.936 417.687 154.857 422.293 Q151.802 426.877 145.992 426.877 Q140.181 426.877 137.103 422.293 Q134.047 417.687 134.047 408.96 Q134.047 400.21 137.103 395.627 Q140.181 391.02 145.992 391.02 Z" fill="#000000" fill-rule="nonzero" fill-opacity="1" /><path clip-path="url(#clip940)" d="M176.153 394.724 Q172.542 394.724 170.714 398.289 Q168.908 401.83 168.908 408.96 Q168.908 416.067 170.714 419.631 Q172.542 423.173 176.153 423.173 Q179.788 423.173 181.593 419.631 Q183.422 416.067 183.422 408.96 Q183.422 401.83 181.593 398.289 Q179.788 394.724 176.153 394.724 M176.153 391.02 Q181.964 391.02 185.019 395.627 Q188.098 400.21 188.098 408.96 Q188.098 417.687 185.019 422.293 Q181.964 426.877 176.153 426.877 Q170.343 426.877 167.265 422.293 Q164.209 417.687 164.209 408.96 Q164.209 400.21 167.265 395.627 Q170.343 391.02 176.153 391.02 Z" fill="#000000" fill-rule="nonzero" fill-opacity="1" /><path clip-path="url(#clip940)" d="M101.756 299.351 Q98.1447 299.351 96.316 302.916 Q94.5104 306.457 94.5104 313.587 Q94.5104 320.693 96.316 324.258 Q98.1447 327.8 101.756 327.8 Q105.39 327.8 107.196 324.258 Q109.024 320.693 109.024 313.587 Q109.024 306.457 107.196 302.916 Q105.39 299.351 101.756 299.351 M101.756 295.647 Q107.566 295.647 110.621 300.254 Q113.7 304.837 113.7 313.587 Q113.7 322.314 110.621 326.92 Q107.566 331.504 101.756 331.504 Q95.9456 331.504 92.8669 326.92 Q89.8114 322.314 89.8114 313.587 Q89.8114 304.837 92.8669 300.254 Q95.9456 295.647 101.756 295.647 Z" fill="#000000" fill-rule="nonzero" fill-opacity="1" /><path clip-path="url(#clip940)" d="M121.918 324.953 L126.802 324.953 L126.802 330.832 L121.918 330.832 L121.918 324.953 Z" fill="#000000" fill-rule="nonzero" fill-opacity="1" /><path clip-path="url(#clip940)" d="M141.015 326.897 L157.334 326.897 L157.334 330.832 L135.39 330.832 L135.39 326.897 Q138.052 324.143 142.635 319.513 Q147.242 314.86 148.422 313.518 Q150.668 310.994 151.547 309.258 Q152.45 307.499 152.45 305.809 Q152.45 303.055 150.505 301.319 Q148.584 299.582 145.482 299.582 Q143.283 299.582 140.83 300.346 Q138.399 301.11 135.621 302.661 L135.621 297.939 Q138.445 296.805 140.899 296.226 Q143.353 295.647 145.39 295.647 Q150.76 295.647 153.955 298.332 Q157.149 301.018 157.149 305.508 Q157.149 307.638 156.339 309.559 Q155.552 311.457 153.445 314.05 Q152.867 314.721 149.765 317.939 Q146.663 321.133 141.015 326.897 Z" fill="#000000" fill-rule="nonzero" fill-opacity="1" /><path clip-path="url(#clip940)" d="M167.195 296.272 L185.552 296.272 L185.552 300.207 L171.478 300.207 L171.478 308.68 Q172.496 308.332 173.515 308.17 Q174.533 307.985 175.552 307.985 Q181.339 307.985 184.718 311.156 Q188.098 314.328 188.098 319.744 Q188.098 325.323 184.626 328.425 Q181.153 331.504 174.834 331.504 Q172.658 331.504 170.39 331.133 Q168.144 330.763 165.737 330.022 L165.737 325.323 Q167.82 326.457 170.042 327.013 Q172.265 327.568 174.741 327.568 Q178.746 327.568 181.084 325.462 Q183.422 323.355 183.422 319.744 Q183.422 316.133 181.084 314.027 Q178.746 311.92 174.741 311.92 Q172.866 311.92 170.991 312.337 Q169.14 312.754 167.195 313.633 L167.195 296.272 Z" fill="#000000" fill-rule="nonzero" fill-opacity="1" /><path clip-path="url(#clip940)" d="M100.76 203.978 Q97.1493 203.978 95.3206 207.543 Q93.515 211.084 93.515 218.214 Q93.515 225.32 95.3206 228.885 Q97.1493 232.427 100.76 232.427 Q104.395 232.427 106.2 228.885 Q108.029 225.32 108.029 218.214 Q108.029 211.084 106.2 207.543 Q104.395 203.978 100.76 203.978 M100.76 200.274 Q106.571 200.274 109.626 204.881 Q112.705 209.464 112.705 218.214 Q112.705 226.941 109.626 231.547 Q106.571 236.131 100.76 236.131 Q94.9502 236.131 91.8715 231.547 Q88.816 226.941 88.816 218.214 Q88.816 209.464 91.8715 204.881 Q94.9502 200.274 100.76 200.274 Z" fill="#000000" fill-rule="nonzero" fill-opacity="1" /><path clip-path="url(#clip940)" d="M120.922 229.58 L125.807 229.58 L125.807 235.459 L120.922 235.459 L120.922 229.58 Z" fill="#000000" fill-rule="nonzero" fill-opacity="1" /><path clip-path="url(#clip940)" d="M136.038 200.899 L154.394 200.899 L154.394 204.834 L140.32 204.834 L140.32 213.307 Q141.339 212.959 142.357 212.797 Q143.376 212.612 144.394 212.612 Q150.181 212.612 153.561 215.783 Q156.941 218.955 156.941 224.371 Q156.941 229.95 153.468 233.052 Q149.996 236.131 143.677 236.131 Q141.501 236.131 139.232 235.76 Q136.987 235.39 134.58 234.649 L134.58 229.95 Q136.663 231.084 138.885 231.64 Q141.107 232.195 143.584 232.195 Q147.589 232.195 149.927 230.089 Q152.265 227.982 152.265 224.371 Q152.265 220.76 149.927 218.654 Q147.589 216.547 143.584 216.547 Q141.709 216.547 139.834 216.964 Q137.982 217.381 136.038 218.26 L136.038 200.899 Z" fill="#000000" fill-rule="nonzero" fill-opacity="1" /><path clip-path="url(#clip940)" d="M176.153 203.978 Q172.542 203.978 170.714 207.543 Q168.908 211.084 168.908 218.214 Q168.908 225.32 170.714 228.885 Q172.542 232.427 176.153 232.427 Q179.788 232.427 181.593 228.885 Q183.422 225.32 183.422 218.214 Q183.422 211.084 181.593 207.543 Q179.788 203.978 176.153 203.978 M176.153 200.274 Q181.964 200.274 185.019 204.881 Q188.098 209.464 188.098 218.214 Q188.098 226.941 185.019 231.547 Q181.964 236.131 176.153 236.131 Q170.343 236.131 167.265 231.547 Q164.209 226.941 164.209 218.214 Q164.209 209.464 167.265 204.881 Q170.343 200.274 176.153 200.274 Z" fill="#000000" fill-rule="nonzero" fill-opacity="1" /><path clip-path="url(#clip940)" d="M562.97 14.324 L562.97 27.2059 L578.323 27.2059 L578.323 32.9987 L562.97 32.9987 L562.97 57.6282 Q562.97 63.1779 564.469 64.7578 Q566.009 66.3376 570.667 66.3376 L578.323 66.3376 L578.323 72.576 L570.667 72.576 Q562.039 72.576 558.757 69.3758 Q555.476 66.1351 555.476 57.6282 L555.476 32.9987 L550.007 32.9987 L550.007 27.2059 L555.476 27.2059 L555.476 14.324 L562.97 14.324 Z" fill="#000000" fill-rule="nonzero" fill-opacity="1" /><path clip-path="url(#clip940)" d="M615.47 34.9026 L667.403 34.9026 L667.403 41.7081 L615.47 41.7081 L615.47 34.9026 M615.47 51.4303 L667.403 51.4303 L667.403 58.3168 L615.47 58.3168 L615.47 51.4303 Z" fill="#000000" fill-rule="nonzero" fill-opacity="1" /><path clip-path="url(#clip940)" d="M728.936 17.4837 Q722.617 17.4837 719.416 23.7221 Q716.257 29.92 716.257 42.3968 Q716.257 54.833 719.416 61.0714 Q722.617 67.2693 728.936 67.2693 Q735.296 67.2693 738.456 61.0714 Q741.656 54.833 741.656 42.3968 Q741.656 29.92 738.456 23.7221 Q735.296 17.4837 728.936 17.4837 M728.936 11.0023 Q739.104 11.0023 744.451 19.0636 Q749.839 27.0843 749.839 42.3968 Q749.839 57.6687 744.451 65.73 Q739.104 73.7508 728.936 73.7508 Q718.768 73.7508 713.38 65.73 Q708.033 57.6687 708.033 42.3968 Q708.033 27.0843 713.38 19.0636 Q718.768 11.0023 728.936 11.0023 Z" fill="#000000" fill-rule="nonzero" fill-opacity="1" /><path clip-path="url(#clip940)" d="M764.219 62.2867 L772.767 62.2867 L772.767 72.576 L764.219 72.576 L764.219 62.2867 Z" fill="#000000" fill-rule="nonzero" fill-opacity="1" /><path clip-path="url(#clip940)" d="M792.009 65.6895 L805.376 65.6895 L805.376 19.5497 L790.834 22.4663 L790.834 15.0127 L805.295 12.096 L813.478 12.096 L813.478 65.6895 L826.846 65.6895 L826.846 72.576 L792.009 72.576 L792.009 65.6895 Z" fill="#000000" fill-rule="nonzero" fill-opacity="1" /><polyline clip-path="url(#clip942)" style="stroke:#009af9; stroke-linecap:round; stroke-linejoin:round; stroke-width:4; stroke-opacity:1; fill:none" points="250.381,398.326 254.761,387.161 259.142,376.142 263.522,365.279 267.902,354.581 272.283,344.053 276.663,333.699 281.044,323.522 285.424,313.525 289.805,303.711 294.185,294.08 298.566,284.635 302.946,275.381 307.327,266.322 311.707,257.464 316.088,248.816 320.468,240.386 324.849,232.187 329.229,224.233 333.609,216.54 337.99,209.123 342.37,202.002 346.751,195.195 351.131,188.722 355.512,182.602 359.892,176.853 364.273,171.492 368.653,166.533 373.034,161.99 377.414,157.87 381.795,154.181 386.175,150.923 390.555,148.095 394.936,145.691 399.316,143.701 403.697,142.113 408.077,140.91 412.458,140.072 416.838,139.578 421.219,139.405 425.599,139.528 429.98,139.922 434.36,140.562 438.741,141.421 443.121,142.476 447.501,143.703 451.882,145.081 456.262,146.589 460.643,148.209 465.023,149.925 469.404,151.723 473.784,153.591 478.165,155.522 482.545,157.509 486.926,159.548 491.306,161.64 495.687,163.789 500.067,166 504.447,168.287 508.828,170.665 513.208,173.154 517.589,175.783 521.969,178.583 526.35,181.592 530.73,184.852 535.111,188.406 539.491,192.295 543.872,196.546 548.252,201.165 552.633,206.117 557.013,211.313 561.393,216.59 565.774,221.715 570.154,226.4 574.535,230.354 578.915,233.357 583.296,235.336 587.676,236.422 592.057,236.971 596.437,237.552 600.818,238.913 605.198,241.898 609.579,247.298 613.959,255.628 618.339,266.917 622.72,280.634 627.1,295.849 631.481,311.517 635.861,326.748 640.242,340.944 644.622,353.804 649.003,365.259 653.383,375.383 657.764,384.327 662.144,392.27 666.525,399.389 670.905,405.845 675.286,411.782 679.666,417.318 684.046,422.554 688.427,427.572 692.807,432.441 697.188,437.215 701.568,441.943 705.949,446.661 710.329,451.403 714.71,456.196 719.09,461.066 723.471,466.032 727.851,471.116 732.232,476.335 736.612,481.705 740.992,487.241 745.373,492.957 749.753,498.865 754.134,504.974 758.514,511.292 762.895,517.823 767.275,524.565 771.656,531.512 776.036,538.652 780.417,545.961 784.797,553.41 789.178,560.954 793.558,568.541 797.938,576.1 802.319,583.551 806.699,590.8 811.08,597.741 815.46,604.264 819.841,610.259 824.221,615.628 828.602,620.301 832.982,624.243 837.363,627.479 841.743,630.087 846.124,632.199 850.504,633.976 854.884,635.581 859.265,637.149 863.645,638.775 868.026,640.506 872.406,642.348 876.787,644.284 881.167,646.28 885.548,648.299 889.928,650.307 894.309,652.275 898.689,654.18 903.07,656.007 907.45,657.744 911.83,659.385 916.211,660.926 920.591,662.364 924.972,663.7 929.352,664.931 933.733,666.056 938.113,667.074 942.494,667.979 946.874,668.766 951.255,669.425 955.635,669.946 960.016,670.314 964.396,670.511 968.776,670.515 973.157,670.3 977.537,669.837 981.918,669.094 986.298,668.034 990.679,666.619 995.059,664.808 999.44,662.559 1003.82,659.832 1008.2,656.588 1012.58,652.792 1016.96,648.415 1021.34,643.434 1025.72,637.835 1030.1,631.614 1034.48,624.778 1038.86,617.344 1043.24,609.341 1047.62,600.806 1052.01,591.788 1056.39,582.342 1060.77,572.529 1065.15,562.414 1069.53,552.065 1073.91,541.549 1078.29,530.932 1082.67,520.277 1087.05,509.644 1091.43,499.085 1095.81,488.649 1100.19,478.378 1104.57,468.308 1108.95,458.468 1113.33,448.883 1117.71,439.571 1122.09,430.546 1126.47,421.816 "/>
<path clip-path="url(#clip940)" d="M976.505 245.918 L1121.8 245.918 L1121.8 142.238 L976.505 142.238  Z" fill="#ffffff" fill-rule="evenodd" fill-opacity="1"/>
<polyline clip-path="url(#clip940)" style="stroke:#000000; stroke-linecap:round; stroke-linejoin:round; stroke-width:4; stroke-opacity:1; fill:none" points="976.505,245.918 1121.8,245.918 1121.8,142.238 976.505,142.238 976.505,245.918 "/>
<polyline clip-path="url(#clip940)" style="stroke:#009af9; stroke-linecap:round; stroke-linejoin:round; stroke-width:4; stroke-opacity:1; fill:none" points="986.823,194.078 1048.73,194.078 "/>
<path clip-path="url(#clip940)" d="M1072.89 213.765 Q1071.09 218.395 1069.38 219.807 Q1067.66 221.219 1064.79 221.219 L1061.39 221.219 L1061.39 217.654 L1063.89 217.654 Q1065.65 217.654 1066.62 216.821 Q1067.59 215.988 1068.77 212.886 L1069.54 210.941 L1059.05 185.432 L1063.57 185.432 L1071.67 205.71 L1079.77 185.432 L1084.28 185.432 L1072.89 213.765 Z" fill="#000000" fill-rule="nonzero" fill-opacity="1" /><path clip-path="url(#clip940)" d="M1091.57 207.423 L1099.21 207.423 L1099.21 181.057 L1090.9 182.724 L1090.9 178.465 L1099.17 176.798 L1103.84 176.798 L1103.84 207.423 L1111.48 207.423 L1111.48 211.358 L1091.57 211.358 L1091.57 207.423 Z" fill="#000000" fill-rule="nonzero" fill-opacity="1" /><path clip-path="url(#clip940)" d="M1424.1 686.448 L2352.76 686.448 L2352.76 123.472 L1424.1 123.472  Z" fill="#ffffff" fill-rule="evenodd" fill-opacity="1"/>
<defs>
  <clipPath id="clip943">
    <rect x="1424" y="123" width="930" height="564"/>
  </clipPath>
</defs>
<polyline clip-path="url(#clip943)" style="stroke:#000000; stroke-linecap:round; stroke-linejoin:round; stroke-width:2; stroke-opacity:0.1; fill:none" points="1450.38,686.448 1450.38,123.472 "/>
<polyline clip-path="url(#clip943)" style="stroke:#000000; stroke-linecap:round; stroke-linejoin:round; stroke-width:2; stroke-opacity:0.1; fill:none" points="1669.4,686.448 1669.4,123.472 "/>
<polyline clip-path="url(#clip943)" style="stroke:#000000; stroke-linecap:round; stroke-linejoin:round; stroke-width:2; stroke-opacity:0.1; fill:none" points="1888.43,686.448 1888.43,123.472 "/>
<polyline clip-path="url(#clip943)" style="stroke:#000000; stroke-linecap:round; stroke-linejoin:round; stroke-width:2; stroke-opacity:0.1; fill:none" points="2107.45,686.448 2107.45,123.472 "/>
<polyline clip-path="url(#clip943)" style="stroke:#000000; stroke-linecap:round; stroke-linejoin:round; stroke-width:2; stroke-opacity:0.1; fill:none" points="2326.47,686.448 2326.47,123.472 "/>
<polyline clip-path="url(#clip940)" style="stroke:#000000; stroke-linecap:round; stroke-linejoin:round; stroke-width:4; stroke-opacity:1; fill:none" points="1424.1,686.448 2352.76,686.448 "/>
<polyline clip-path="url(#clip940)" style="stroke:#000000; stroke-linecap:round; stroke-linejoin:round; stroke-width:4; stroke-opacity:1; fill:none" points="1450.38,686.448 1450.38,667.55 "/>
<polyline clip-path="url(#clip940)" style="stroke:#000000; stroke-linecap:round; stroke-linejoin:round; stroke-width:4; stroke-opacity:1; fill:none" points="1669.4,686.448 1669.4,667.55 "/>
<polyline clip-path="url(#clip940)" style="stroke:#000000; stroke-linecap:round; stroke-linejoin:round; stroke-width:4; stroke-opacity:1; fill:none" points="1888.43,686.448 1888.43,667.55 "/>
<polyline clip-path="url(#clip940)" style="stroke:#000000; stroke-linecap:round; stroke-linejoin:round; stroke-width:4; stroke-opacity:1; fill:none" points="2107.45,686.448 2107.45,667.55 "/>
<polyline clip-path="url(#clip940)" style="stroke:#000000; stroke-linecap:round; stroke-linejoin:round; stroke-width:4; stroke-opacity:1; fill:none" points="2326.47,686.448 2326.47,667.55 "/>
<path clip-path="url(#clip940)" d="M1396.91 732.019 L1426.58 732.019 L1426.58 735.954 L1396.91 735.954 L1396.91 732.019 Z" fill="#000000" fill-rule="nonzero" fill-opacity="1" /><path clip-path="url(#clip940)" d="M1437.49 744.913 L1445.13 744.913 L1445.13 718.547 L1436.82 720.214 L1436.82 715.955 L1445.08 714.288 L1449.76 714.288 L1449.76 744.913 L1457.39 744.913 L1457.39 748.848 L1437.49 748.848 L1437.49 744.913 Z" fill="#000000" fill-rule="nonzero" fill-opacity="1" /><path clip-path="url(#clip940)" d="M1466.84 742.968 L1471.72 742.968 L1471.72 748.848 L1466.84 748.848 L1466.84 742.968 Z" fill="#000000" fill-rule="nonzero" fill-opacity="1" /><path clip-path="url(#clip940)" d="M1491.91 717.367 Q1488.3 717.367 1486.47 720.931 Q1484.66 724.473 1484.66 731.603 Q1484.66 738.709 1486.47 742.274 Q1488.3 745.815 1491.91 745.815 Q1495.54 745.815 1497.35 742.274 Q1499.18 738.709 1499.18 731.603 Q1499.18 724.473 1497.35 720.931 Q1495.54 717.367 1491.91 717.367 M1491.91 713.663 Q1497.72 713.663 1500.77 718.269 Q1503.85 722.853 1503.85 731.603 Q1503.85 740.329 1500.77 744.936 Q1497.72 749.519 1491.91 749.519 Q1486.1 749.519 1483.02 744.936 Q1479.96 740.329 1479.96 731.603 Q1479.96 722.853 1483.02 718.269 Q1486.1 713.663 1491.91 713.663 Z" fill="#000000" fill-rule="nonzero" fill-opacity="1" /><path clip-path="url(#clip940)" d="M1616.43 732.019 L1646.11 732.019 L1646.11 735.954 L1616.43 735.954 L1616.43 732.019 Z" fill="#000000" fill-rule="nonzero" fill-opacity="1" /><path clip-path="url(#clip940)" d="M1666.2 717.367 Q1662.59 717.367 1660.76 720.931 Q1658.95 724.473 1658.95 731.603 Q1658.95 738.709 1660.76 742.274 Q1662.59 745.815 1666.2 745.815 Q1669.83 745.815 1671.64 742.274 Q1673.47 738.709 1673.47 731.603 Q1673.47 724.473 1671.64 720.931 Q1669.83 717.367 1666.2 717.367 M1666.2 713.663 Q1672.01 713.663 1675.06 718.269 Q1678.14 722.853 1678.14 731.603 Q1678.14 740.329 1675.06 744.936 Q1672.01 749.519 1666.2 749.519 Q1660.39 749.519 1657.31 744.936 Q1654.25 740.329 1654.25 731.603 Q1654.25 722.853 1657.31 718.269 Q1660.39 713.663 1666.2 713.663 Z" fill="#000000" fill-rule="nonzero" fill-opacity="1" /><path clip-path="url(#clip940)" d="M1686.36 742.968 L1691.24 742.968 L1691.24 748.848 L1686.36 748.848 L1686.36 742.968 Z" fill="#000000" fill-rule="nonzero" fill-opacity="1" /><path clip-path="url(#clip940)" d="M1701.48 714.288 L1719.83 714.288 L1719.83 718.223 L1705.76 718.223 L1705.76 726.695 Q1706.78 726.348 1707.79 726.186 Q1708.81 726.001 1709.83 726.001 Q1715.62 726.001 1719 729.172 Q1722.38 732.343 1722.38 737.76 Q1722.38 743.339 1718.91 746.44 Q1715.43 749.519 1709.11 749.519 Q1706.94 749.519 1704.67 749.149 Q1702.42 748.778 1700.02 748.038 L1700.02 743.339 Q1702.1 744.473 1704.32 745.028 Q1706.54 745.584 1709.02 745.584 Q1713.03 745.584 1715.36 743.478 Q1717.7 741.371 1717.7 737.76 Q1717.7 734.149 1715.36 732.042 Q1713.03 729.936 1709.02 729.936 Q1707.15 729.936 1705.27 730.353 Q1703.42 730.769 1701.48 731.649 L1701.48 714.288 Z" fill="#000000" fill-rule="nonzero" fill-opacity="1" /><path clip-path="url(#clip940)" d="M1865.81 717.367 Q1862.2 717.367 1860.37 720.931 Q1858.57 724.473 1858.57 731.603 Q1858.57 738.709 1860.37 742.274 Q1862.2 745.815 1865.81 745.815 Q1869.45 745.815 1871.25 742.274 Q1873.08 738.709 1873.08 731.603 Q1873.08 724.473 1871.25 720.931 Q1869.45 717.367 1865.81 717.367 M1865.81 713.663 Q1871.62 713.663 1874.68 718.269 Q1877.76 722.853 1877.76 731.603 Q1877.76 740.329 1874.68 744.936 Q1871.62 749.519 1865.81 749.519 Q1860 749.519 1856.92 744.936 Q1853.87 740.329 1853.87 731.603 Q1853.87 722.853 1856.92 718.269 Q1860 713.663 1865.81 713.663 Z" fill="#000000" fill-rule="nonzero" fill-opacity="1" /><path clip-path="url(#clip940)" d="M1885.97 742.968 L1890.86 742.968 L1890.86 748.848 L1885.97 748.848 L1885.97 742.968 Z" fill="#000000" fill-rule="nonzero" fill-opacity="1" /><path clip-path="url(#clip940)" d="M1911.04 717.367 Q1907.43 717.367 1905.6 720.931 Q1903.8 724.473 1903.8 731.603 Q1903.8 738.709 1905.6 742.274 Q1907.43 745.815 1911.04 745.815 Q1914.68 745.815 1916.48 742.274 Q1918.31 738.709 1918.31 731.603 Q1918.31 724.473 1916.48 720.931 Q1914.68 717.367 1911.04 717.367 M1911.04 713.663 Q1916.85 713.663 1919.91 718.269 Q1922.99 722.853 1922.99 731.603 Q1922.99 740.329 1919.91 744.936 Q1916.85 749.519 1911.04 749.519 Q1905.23 749.519 1902.15 744.936 Q1899.1 740.329 1899.1 731.603 Q1899.1 722.853 1902.15 718.269 Q1905.23 713.663 1911.04 713.663 Z" fill="#000000" fill-rule="nonzero" fill-opacity="1" /><path clip-path="url(#clip940)" d="M2085.33 717.367 Q2081.72 717.367 2079.89 720.931 Q2078.09 724.473 2078.09 731.603 Q2078.09 738.709 2079.89 742.274 Q2081.72 745.815 2085.33 745.815 Q2088.97 745.815 2090.77 742.274 Q2092.6 738.709 2092.6 731.603 Q2092.6 724.473 2090.77 720.931 Q2088.97 717.367 2085.33 717.367 M2085.33 713.663 Q2091.14 713.663 2094.2 718.269 Q2097.28 722.853 2097.28 731.603 Q2097.28 740.329 2094.2 744.936 Q2091.14 749.519 2085.33 749.519 Q2079.52 749.519 2076.44 744.936 Q2073.39 740.329 2073.39 731.603 Q2073.39 722.853 2076.44 718.269 Q2079.52 713.663 2085.33 713.663 Z" fill="#000000" fill-rule="nonzero" fill-opacity="1" /><path clip-path="url(#clip940)" d="M2105.49 742.968 L2110.38 742.968 L2110.38 748.848 L2105.49 748.848 L2105.49 742.968 Z" fill="#000000" fill-rule="nonzero" fill-opacity="1" /><path clip-path="url(#clip940)" d="M2120.61 714.288 L2138.97 714.288 L2138.97 718.223 L2124.89 718.223 L2124.89 726.695 Q2125.91 726.348 2126.93 726.186 Q2127.95 726.001 2128.97 726.001 Q2134.75 726.001 2138.13 729.172 Q2141.51 732.343 2141.51 737.76 Q2141.51 743.339 2138.04 746.44 Q2134.57 749.519 2128.25 749.519 Q2126.07 749.519 2123.8 749.149 Q2121.56 748.778 2119.15 748.038 L2119.15 743.339 Q2121.23 744.473 2123.46 745.028 Q2125.68 745.584 2128.16 745.584 Q2132.16 745.584 2134.5 743.478 Q2136.84 741.371 2136.84 737.76 Q2136.84 734.149 2134.5 732.042 Q2132.16 729.936 2128.16 729.936 Q2126.28 729.936 2124.41 730.353 Q2122.55 730.769 2120.61 731.649 L2120.61 714.288 Z" fill="#000000" fill-rule="nonzero" fill-opacity="1" /><path clip-path="url(#clip940)" d="M2293.63 744.913 L2301.26 744.913 L2301.26 718.547 L2292.95 720.214 L2292.95 715.955 L2301.22 714.288 L2305.89 714.288 L2305.89 744.913 L2313.53 744.913 L2313.53 748.848 L2293.63 748.848 L2293.63 744.913 Z" fill="#000000" fill-rule="nonzero" fill-opacity="1" /><path clip-path="url(#clip940)" d="M2322.98 742.968 L2327.86 742.968 L2327.86 748.848 L2322.98 748.848 L2322.98 742.968 Z" fill="#000000" fill-rule="nonzero" fill-opacity="1" /><path clip-path="url(#clip940)" d="M2348.05 717.367 Q2344.44 717.367 2342.61 720.931 Q2340.8 724.473 2340.8 731.603 Q2340.8 738.709 2342.61 742.274 Q2344.44 745.815 2348.05 745.815 Q2351.68 745.815 2353.49 742.274 Q2355.32 738.709 2355.32 731.603 Q2355.32 724.473 2353.49 720.931 Q2351.68 717.367 2348.05 717.367 M2348.05 713.663 Q2353.86 713.663 2356.91 718.269 Q2359.99 722.853 2359.99 731.603 Q2359.99 740.329 2356.91 744.936 Q2353.86 749.519 2348.05 749.519 Q2342.24 749.519 2339.16 744.936 Q2336.1 740.329 2336.1 731.603 Q2336.1 722.853 2339.16 718.269 Q2342.24 713.663 2348.05 713.663 Z" fill="#000000" fill-rule="nonzero" fill-opacity="1" /><polyline clip-path="url(#clip943)" style="stroke:#000000; stroke-linecap:round; stroke-linejoin:round; stroke-width:2; stroke-opacity:0.1; fill:none" points="1424.1,601.988 2352.76,601.988 "/>
<polyline clip-path="url(#clip943)" style="stroke:#000000; stroke-linecap:round; stroke-linejoin:round; stroke-width:2; stroke-opacity:0.1; fill:none" points="1424.1,503.95 2352.76,503.95 "/>
<polyline clip-path="url(#clip943)" style="stroke:#000000; stroke-linecap:round; stroke-linejoin:round; stroke-width:2; stroke-opacity:0.1; fill:none" points="1424.1,405.912 2352.76,405.912 "/>
<polyline clip-path="url(#clip943)" style="stroke:#000000; stroke-linecap:round; stroke-linejoin:round; stroke-width:2; stroke-opacity:0.1; fill:none" points="1424.1,307.874 2352.76,307.874 "/>
<polyline clip-path="url(#clip943)" style="stroke:#000000; stroke-linecap:round; stroke-linejoin:round; stroke-width:2; stroke-opacity:0.1; fill:none" points="1424.1,209.835 2352.76,209.835 "/>
<polyline clip-path="url(#clip940)" style="stroke:#000000; stroke-linecap:round; stroke-linejoin:round; stroke-width:4; stroke-opacity:1; fill:none" points="1424.1,686.448 1424.1,123.472 "/>
<polyline clip-path="url(#clip940)" style="stroke:#000000; stroke-linecap:round; stroke-linejoin:round; stroke-width:4; stroke-opacity:1; fill:none" points="1424.1,601.988 1443,601.988 "/>
<polyline clip-path="url(#clip940)" style="stroke:#000000; stroke-linecap:round; stroke-linejoin:round; stroke-width:4; stroke-opacity:1; fill:none" points="1424.1,503.95 1443,503.95 "/>
<polyline clip-path="url(#clip940)" style="stroke:#000000; stroke-linecap:round; stroke-linejoin:round; stroke-width:4; stroke-opacity:1; fill:none" points="1424.1,405.912 1443,405.912 "/>
<polyline clip-path="url(#clip940)" style="stroke:#000000; stroke-linecap:round; stroke-linejoin:round; stroke-width:4; stroke-opacity:1; fill:none" points="1424.1,307.874 1443,307.874 "/>
<polyline clip-path="url(#clip940)" style="stroke:#000000; stroke-linecap:round; stroke-linejoin:round; stroke-width:4; stroke-opacity:1; fill:none" points="1424.1,209.835 1443,209.835 "/>
<path clip-path="url(#clip940)" d="M1250.99 602.439 L1280.67 602.439 L1280.67 606.375 L1250.99 606.375 L1250.99 602.439 Z" fill="#000000" fill-rule="nonzero" fill-opacity="1" /><path clip-path="url(#clip940)" d="M1300.76 587.787 Q1297.15 587.787 1295.32 591.352 Q1293.52 594.893 1293.52 602.023 Q1293.52 609.129 1295.32 612.694 Q1297.15 616.236 1300.76 616.236 Q1304.39 616.236 1306.2 612.694 Q1308.03 609.129 1308.03 602.023 Q1308.03 594.893 1306.2 591.352 Q1304.39 587.787 1300.76 587.787 M1300.76 584.083 Q1306.57 584.083 1309.63 588.69 Q1312.7 593.273 1312.7 602.023 Q1312.7 610.75 1309.63 615.356 Q1306.57 619.939 1300.76 619.939 Q1294.95 619.939 1291.87 615.356 Q1288.82 610.75 1288.82 602.023 Q1288.82 593.273 1291.87 588.69 Q1294.95 584.083 1300.76 584.083 Z" fill="#000000" fill-rule="nonzero" fill-opacity="1" /><path clip-path="url(#clip940)" d="M1320.92 613.388 L1325.81 613.388 L1325.81 619.268 L1320.92 619.268 L1320.92 613.388 Z" fill="#000000" fill-rule="nonzero" fill-opacity="1" /><path clip-path="url(#clip940)" d="M1336.04 584.708 L1354.39 584.708 L1354.39 588.643 L1340.32 588.643 L1340.32 597.115 Q1341.34 596.768 1342.36 596.606 Q1343.38 596.421 1344.39 596.421 Q1350.18 596.421 1353.56 599.592 Q1356.94 602.764 1356.94 608.18 Q1356.94 613.759 1353.47 616.861 Q1350 619.939 1343.68 619.939 Q1341.5 619.939 1339.23 619.569 Q1336.99 619.199 1334.58 618.458 L1334.58 613.759 Q1336.66 614.893 1338.89 615.449 Q1341.11 616.004 1343.58 616.004 Q1347.59 616.004 1349.93 613.898 Q1352.26 611.791 1352.26 608.18 Q1352.26 604.569 1349.93 602.463 Q1347.59 600.356 1343.58 600.356 Q1341.71 600.356 1339.83 600.773 Q1337.98 601.189 1336.04 602.069 L1336.04 584.708 Z" fill="#000000" fill-rule="nonzero" fill-opacity="1" /><path clip-path="url(#clip940)" d="M1376.15 587.787 Q1372.54 587.787 1370.71 591.352 Q1368.91 594.893 1368.91 602.023 Q1368.91 609.129 1370.71 612.694 Q1372.54 616.236 1376.15 616.236 Q1379.79 616.236 1381.59 612.694 Q1383.42 609.129 1383.42 602.023 Q1383.42 594.893 1381.59 591.352 Q1379.79 587.787 1376.15 587.787 M1376.15 584.083 Q1381.96 584.083 1385.02 588.69 Q1388.1 593.273 1388.1 602.023 Q1388.1 610.75 1385.02 615.356 Q1381.96 619.939 1376.15 619.939 Q1370.34 619.939 1367.26 615.356 Q1364.21 610.75 1364.21 602.023 Q1364.21 593.273 1367.26 588.69 Q1370.34 584.083 1376.15 584.083 Z" fill="#000000" fill-rule="nonzero" fill-opacity="1" /><path clip-path="url(#clip940)" d="M1251.99 504.401 L1281.66 504.401 L1281.66 508.336 L1251.99 508.336 L1251.99 504.401 Z" fill="#000000" fill-rule="nonzero" fill-opacity="1" /><path clip-path="url(#clip940)" d="M1301.76 489.749 Q1298.14 489.749 1296.32 493.313 Q1294.51 496.855 1294.51 503.985 Q1294.51 511.091 1296.32 514.656 Q1298.14 518.198 1301.76 518.198 Q1305.39 518.198 1307.2 514.656 Q1309.02 511.091 1309.02 503.985 Q1309.02 496.855 1307.2 493.313 Q1305.39 489.749 1301.76 489.749 M1301.76 486.045 Q1307.57 486.045 1310.62 490.651 Q1313.7 495.235 1313.7 503.985 Q1313.7 512.711 1310.62 517.318 Q1307.57 521.901 1301.76 521.901 Q1295.95 521.901 1292.87 517.318 Q1289.81 512.711 1289.81 503.985 Q1289.81 495.235 1292.87 490.651 Q1295.95 486.045 1301.76 486.045 Z" fill="#000000" fill-rule="nonzero" fill-opacity="1" /><path clip-path="url(#clip940)" d="M1321.92 515.35 L1326.8 515.35 L1326.8 521.23 L1321.92 521.23 L1321.92 515.35 Z" fill="#000000" fill-rule="nonzero" fill-opacity="1" /><path clip-path="url(#clip940)" d="M1341.01 517.295 L1357.33 517.295 L1357.33 521.23 L1335.39 521.23 L1335.39 517.295 Q1338.05 514.54 1342.64 509.911 Q1347.24 505.258 1348.42 503.915 Q1350.67 501.392 1351.55 499.656 Q1352.45 497.897 1352.45 496.207 Q1352.45 493.452 1350.51 491.716 Q1348.58 489.98 1345.48 489.98 Q1343.28 489.98 1340.83 490.744 Q1338.4 491.508 1335.62 493.059 L1335.62 488.337 Q1338.45 487.202 1340.9 486.624 Q1343.35 486.045 1345.39 486.045 Q1350.76 486.045 1353.95 488.73 Q1357.15 491.415 1357.15 495.906 Q1357.15 498.036 1356.34 499.957 Q1355.55 501.855 1353.45 504.448 Q1352.87 505.119 1349.76 508.336 Q1346.66 511.531 1341.01 517.295 Z" fill="#000000" fill-rule="nonzero" fill-opacity="1" /><path clip-path="url(#clip940)" d="M1367.2 486.67 L1385.55 486.67 L1385.55 490.605 L1371.48 490.605 L1371.48 499.077 Q1372.5 498.73 1373.51 498.568 Q1374.53 498.383 1375.55 498.383 Q1381.34 498.383 1384.72 501.554 Q1388.1 504.725 1388.1 510.142 Q1388.1 515.721 1384.63 518.823 Q1381.15 521.901 1374.83 521.901 Q1372.66 521.901 1370.39 521.531 Q1368.14 521.16 1365.74 520.42 L1365.74 515.721 Q1367.82 516.855 1370.04 517.41 Q1372.26 517.966 1374.74 517.966 Q1378.75 517.966 1381.08 515.86 Q1383.42 513.753 1383.42 510.142 Q1383.42 506.531 1381.08 504.424 Q1378.75 502.318 1374.74 502.318 Q1372.87 502.318 1370.99 502.735 Q1369.14 503.151 1367.2 504.031 L1367.2 486.67 Z" fill="#000000" fill-rule="nonzero" fill-opacity="1" /><path clip-path="url(#clip940)" d="M1300.76 391.71 Q1297.15 391.71 1295.32 395.275 Q1293.52 398.817 1293.52 405.946 Q1293.52 413.053 1295.32 416.618 Q1297.15 420.159 1300.76 420.159 Q1304.39 420.159 1306.2 416.618 Q1308.03 413.053 1308.03 405.946 Q1308.03 398.817 1306.2 395.275 Q1304.39 391.71 1300.76 391.71 M1300.76 388.007 Q1306.57 388.007 1309.63 392.613 Q1312.7 397.197 1312.7 405.946 Q1312.7 414.673 1309.63 419.28 Q1306.57 423.863 1300.76 423.863 Q1294.95 423.863 1291.87 419.28 Q1288.82 414.673 1288.82 405.946 Q1288.82 397.197 1291.87 392.613 Q1294.95 388.007 1300.76 388.007 Z" fill="#000000" fill-rule="nonzero" fill-opacity="1" /><path clip-path="url(#clip940)" d="M1320.92 417.312 L1325.81 417.312 L1325.81 423.192 L1320.92 423.192 L1320.92 417.312 Z" fill="#000000" fill-rule="nonzero" fill-opacity="1" /><path clip-path="url(#clip940)" d="M1345.99 391.71 Q1342.38 391.71 1340.55 395.275 Q1338.75 398.817 1338.75 405.946 Q1338.75 413.053 1340.55 416.618 Q1342.38 420.159 1345.99 420.159 Q1349.63 420.159 1351.43 416.618 Q1353.26 413.053 1353.26 405.946 Q1353.26 398.817 1351.43 395.275 Q1349.63 391.71 1345.99 391.71 M1345.99 388.007 Q1351.8 388.007 1354.86 392.613 Q1357.94 397.197 1357.94 405.946 Q1357.94 414.673 1354.86 419.28 Q1351.8 423.863 1345.99 423.863 Q1340.18 423.863 1337.1 419.28 Q1334.05 414.673 1334.05 405.946 Q1334.05 397.197 1337.1 392.613 Q1340.18 388.007 1345.99 388.007 Z" fill="#000000" fill-rule="nonzero" fill-opacity="1" /><path clip-path="url(#clip940)" d="M1376.15 391.71 Q1372.54 391.71 1370.71 395.275 Q1368.91 398.817 1368.91 405.946 Q1368.91 413.053 1370.71 416.618 Q1372.54 420.159 1376.15 420.159 Q1379.79 420.159 1381.59 416.618 Q1383.42 413.053 1383.42 405.946 Q1383.42 398.817 1381.59 395.275 Q1379.79 391.71 1376.15 391.71 M1376.15 388.007 Q1381.96 388.007 1385.02 392.613 Q1388.1 397.197 1388.1 405.946 Q1388.1 414.673 1385.02 419.28 Q1381.96 423.863 1376.15 423.863 Q1370.34 423.863 1367.26 419.28 Q1364.21 414.673 1364.21 405.946 Q1364.21 397.197 1367.26 392.613 Q1370.34 388.007 1376.15 388.007 Z" fill="#000000" fill-rule="nonzero" fill-opacity="1" /><path clip-path="url(#clip940)" d="M1301.76 293.672 Q1298.14 293.672 1296.32 297.237 Q1294.51 300.779 1294.51 307.908 Q1294.51 315.015 1296.32 318.58 Q1298.14 322.121 1301.76 322.121 Q1305.39 322.121 1307.2 318.58 Q1309.02 315.015 1309.02 307.908 Q1309.02 300.779 1307.2 297.237 Q1305.39 293.672 1301.76 293.672 M1301.76 289.969 Q1307.57 289.969 1310.62 294.575 Q1313.7 299.158 1313.7 307.908 Q1313.7 316.635 1310.62 321.242 Q1307.57 325.825 1301.76 325.825 Q1295.95 325.825 1292.87 321.242 Q1289.81 316.635 1289.81 307.908 Q1289.81 299.158 1292.87 294.575 Q1295.95 289.969 1301.76 289.969 Z" fill="#000000" fill-rule="nonzero" fill-opacity="1" /><path clip-path="url(#clip940)" d="M1321.92 319.274 L1326.8 319.274 L1326.8 325.154 L1321.92 325.154 L1321.92 319.274 Z" fill="#000000" fill-rule="nonzero" fill-opacity="1" /><path clip-path="url(#clip940)" d="M1341.01 321.218 L1357.33 321.218 L1357.33 325.154 L1335.39 325.154 L1335.39 321.218 Q1338.05 318.464 1342.64 313.834 Q1347.24 309.181 1348.42 307.839 Q1350.67 305.316 1351.55 303.58 Q1352.45 301.82 1352.45 300.131 Q1352.45 297.376 1350.51 295.64 Q1348.58 293.904 1345.48 293.904 Q1343.28 293.904 1340.83 294.668 Q1338.4 295.432 1335.62 296.982 L1335.62 292.26 Q1338.45 291.126 1340.9 290.547 Q1343.35 289.969 1345.39 289.969 Q1350.76 289.969 1353.95 292.654 Q1357.15 295.339 1357.15 299.83 Q1357.15 301.959 1356.34 303.881 Q1355.55 305.779 1353.45 308.371 Q1352.87 309.043 1349.76 312.26 Q1346.66 315.455 1341.01 321.218 Z" fill="#000000" fill-rule="nonzero" fill-opacity="1" /><path clip-path="url(#clip940)" d="M1367.2 290.594 L1385.55 290.594 L1385.55 294.529 L1371.48 294.529 L1371.48 303.001 Q1372.5 302.654 1373.51 302.492 Q1374.53 302.306 1375.55 302.306 Q1381.34 302.306 1384.72 305.478 Q1388.1 308.649 1388.1 314.066 Q1388.1 319.644 1384.63 322.746 Q1381.15 325.825 1374.83 325.825 Q1372.66 325.825 1370.39 325.455 Q1368.14 325.084 1365.74 324.343 L1365.74 319.644 Q1367.82 320.779 1370.04 321.334 Q1372.26 321.89 1374.74 321.89 Q1378.75 321.89 1381.08 319.783 Q1383.42 317.677 1383.42 314.066 Q1383.42 310.455 1381.08 308.348 Q1378.75 306.242 1374.74 306.242 Q1372.87 306.242 1370.99 306.658 Q1369.14 307.075 1367.2 307.955 L1367.2 290.594 Z" fill="#000000" fill-rule="nonzero" fill-opacity="1" /><path clip-path="url(#clip940)" d="M1300.76 195.634 Q1297.15 195.634 1295.32 199.199 Q1293.52 202.741 1293.52 209.87 Q1293.52 216.977 1295.32 220.541 Q1297.15 224.083 1300.76 224.083 Q1304.39 224.083 1306.2 220.541 Q1308.03 216.977 1308.03 209.87 Q1308.03 202.741 1306.2 199.199 Q1304.39 195.634 1300.76 195.634 M1300.76 191.93 Q1306.57 191.93 1309.63 196.537 Q1312.7 201.12 1312.7 209.87 Q1312.7 218.597 1309.63 223.203 Q1306.57 227.787 1300.76 227.787 Q1294.95 227.787 1291.87 223.203 Q1288.82 218.597 1288.82 209.87 Q1288.82 201.12 1291.87 196.537 Q1294.95 191.93 1300.76 191.93 Z" fill="#000000" fill-rule="nonzero" fill-opacity="1" /><path clip-path="url(#clip940)" d="M1320.92 221.236 L1325.81 221.236 L1325.81 227.115 L1320.92 227.115 L1320.92 221.236 Z" fill="#000000" fill-rule="nonzero" fill-opacity="1" /><path clip-path="url(#clip940)" d="M1336.04 192.555 L1354.39 192.555 L1354.39 196.491 L1340.32 196.491 L1340.32 204.963 Q1341.34 204.616 1342.36 204.454 Q1343.38 204.268 1344.39 204.268 Q1350.18 204.268 1353.56 207.44 Q1356.94 210.611 1356.94 216.028 Q1356.94 221.606 1353.47 224.708 Q1350 227.787 1343.68 227.787 Q1341.5 227.787 1339.23 227.416 Q1336.99 227.046 1334.58 226.305 L1334.58 221.606 Q1336.66 222.74 1338.89 223.296 Q1341.11 223.852 1343.58 223.852 Q1347.59 223.852 1349.93 221.745 Q1352.26 219.639 1352.26 216.028 Q1352.26 212.416 1349.93 210.31 Q1347.59 208.203 1343.58 208.203 Q1341.71 208.203 1339.83 208.62 Q1337.98 209.037 1336.04 209.916 L1336.04 192.555 Z" fill="#000000" fill-rule="nonzero" fill-opacity="1" /><path clip-path="url(#clip940)" d="M1376.15 195.634 Q1372.54 195.634 1370.71 199.199 Q1368.91 202.741 1368.91 209.87 Q1368.91 216.977 1370.71 220.541 Q1372.54 224.083 1376.15 224.083 Q1379.79 224.083 1381.59 220.541 Q1383.42 216.977 1383.42 209.87 Q1383.42 202.741 1381.59 199.199 Q1379.79 195.634 1376.15 195.634 M1376.15 191.93 Q1381.96 191.93 1385.02 196.537 Q1388.1 201.12 1388.1 209.87 Q1388.1 218.597 1385.02 223.203 Q1381.96 227.787 1376.15 227.787 Q1370.34 227.787 1367.26 223.203 Q1364.21 218.597 1364.21 209.87 Q1364.21 201.12 1367.26 196.537 Q1370.34 191.93 1376.15 191.93 Z" fill="#000000" fill-rule="nonzero" fill-opacity="1" /><path clip-path="url(#clip940)" d="M1762.77 14.324 L1762.77 27.2059 L1778.12 27.2059 L1778.12 32.9987 L1762.77 32.9987 L1762.77 57.6282 Q1762.77 63.1779 1764.27 64.7578 Q1765.81 66.3376 1770.46 66.3376 L1778.12 66.3376 L1778.12 72.576 L1770.46 72.576 Q1761.84 72.576 1758.55 69.3758 Q1755.27 66.1351 1755.27 57.6282 L1755.27 32.9987 L1749.8 32.9987 L1749.8 27.2059 L1755.27 27.2059 L1755.27 14.324 L1762.77 14.324 Z" fill="#000000" fill-rule="nonzero" fill-opacity="1" /><path clip-path="url(#clip940)" d="M1815.27 34.9026 L1867.2 34.9026 L1867.2 41.7081 L1815.27 41.7081 L1815.27 34.9026 M1815.27 51.4303 L1867.2 51.4303 L1867.2 58.3168 L1815.27 58.3168 L1815.27 51.4303 Z" fill="#000000" fill-rule="nonzero" fill-opacity="1" /><path clip-path="url(#clip940)" d="M1928.73 17.4837 Q1922.41 17.4837 1919.21 23.7221 Q1916.05 29.92 1916.05 42.3968 Q1916.05 54.833 1919.21 61.0714 Q1922.41 67.2693 1928.73 67.2693 Q1935.09 67.2693 1938.25 61.0714 Q1941.45 54.833 1941.45 42.3968 Q1941.45 29.92 1938.25 23.7221 Q1935.09 17.4837 1928.73 17.4837 M1928.73 11.0023 Q1938.9 11.0023 1944.25 19.0636 Q1949.64 27.0843 1949.64 42.3968 Q1949.64 57.6687 1944.25 65.73 Q1938.9 73.7508 1928.73 73.7508 Q1918.57 73.7508 1913.18 65.73 Q1907.83 57.6687 1907.83 42.3968 Q1907.83 27.0843 1913.18 19.0636 Q1918.57 11.0023 1928.73 11.0023 Z" fill="#000000" fill-rule="nonzero" fill-opacity="1" /><path clip-path="url(#clip940)" d="M1964.02 62.2867 L1972.56 62.2867 L1972.56 72.576 L1964.02 72.576 L1964.02 62.2867 Z" fill="#000000" fill-rule="nonzero" fill-opacity="1" /><path clip-path="url(#clip940)" d="M1990.47 12.096 L2022.59 12.096 L2022.59 18.9825 L1997.96 18.9825 L1997.96 33.8088 Q1999.75 33.2012 2001.53 32.9176 Q2003.31 32.5936 2005.09 32.5936 Q2015.22 32.5936 2021.13 38.1433 Q2027.05 43.6931 2027.05 53.1722 Q2027.05 62.9348 2020.97 68.3631 Q2014.9 73.7508 2003.84 73.7508 Q2000.03 73.7508 1996.06 73.1026 Q1992.13 72.4545 1987.92 71.1582 L1987.92 62.9348 Q1991.56 64.9198 1995.45 65.892 Q1999.34 66.8642 2003.68 66.8642 Q2010.68 66.8642 2014.77 63.1779 Q2018.87 59.4916 2018.87 53.1722 Q2018.87 46.8528 2014.77 43.1664 Q2010.68 39.4801 2003.68 39.4801 Q2000.39 39.4801 1997.11 40.2093 Q1993.87 40.9384 1990.47 42.4778 L1990.47 12.096 Z" fill="#000000" fill-rule="nonzero" fill-opacity="1" /><polyline clip-path="url(#clip943)" style="stroke:#009af9; stroke-linecap:round; stroke-linejoin:round; stroke-width:4; stroke-opacity:1; fill:none" points="1450.38,402.777 1454.76,392.5 1459.14,382.398 1463.52,372.475 1467.9,362.73 1472.28,353.164 1476.66,343.772 1481.04,334.549 1485.42,325.492 1489.8,316.592 1494.19,307.844 1498.57,299.243 1502.95,290.782 1507.33,282.458 1511.71,274.268 1516.09,266.21 1520.47,258.286 1524.85,250.499 1529.23,242.853 1533.61,235.358 1537.99,228.022 1542.37,220.86 1546.75,213.886 1551.13,207.117 1555.51,200.573 1559.89,194.273 1564.27,188.239 1568.65,182.491 1573.03,177.052 1577.41,171.939 1581.79,167.173 1586.17,162.768 1590.56,158.739 1594.94,155.095 1599.32,151.842 1603.7,148.984 1608.08,146.519 1612.46,144.442 1616.84,142.744 1621.22,141.412 1625.6,140.431 1629.98,139.784 1634.36,139.449 1638.74,139.405 1643.12,139.63 1647.5,140.099 1651.88,140.789 1656.26,141.678 1660.64,142.743 1665.02,143.965 1669.4,145.322 1673.78,146.799 1678.16,148.38 1682.55,150.053 1686.93,151.806 1691.31,153.633 1695.69,155.528 1700.07,157.491 1704.45,159.524 1708.83,161.632 1713.21,163.827 1717.59,166.124 1721.97,168.544 1726.35,171.112 1730.73,173.861 1735.11,176.828 1739.49,180.052 1743.87,183.577 1748.25,187.436 1752.63,191.654 1757.01,196.226 1761.39,201.107 1765.77,206.191 1770.15,211.304 1774.53,216.202 1778.92,220.597 1783.3,224.219 1787.68,226.884 1792.06,228.573 1796.44,229.485 1800.82,230.051 1805.2,230.929 1809.58,232.961 1813.96,237.067 1818.34,244.056 1822.72,254.359 1827.1,267.813 1831.48,283.649 1835.86,300.737 1840.24,317.93 1844.62,334.332 1849,349.402 1853.38,362.918 1857.76,374.884 1862.14,385.435 1866.52,394.764 1870.91,403.078 1875.29,410.576 1879.67,417.432 1884.05,423.796 1888.43,429.794 1892.81,435.53 1897.19,441.092 1901.57,446.55 1905.95,451.962 1910.33,457.377 1914.71,462.837 1919.09,468.375 1923.47,474.022 1927.85,479.802 1932.23,485.736 1936.61,491.843 1940.99,498.136 1945.37,504.626 1949.75,511.317 1954.13,518.212 1958.51,525.302 1962.89,532.576 1967.28,540.009 1971.66,547.568 1976.04,555.209 1980.42,562.872 1984.8,570.484 1989.18,577.961 1993.56,585.201 1997.94,592.097 2002.32,598.537 2006.7,604.414 2011.08,609.644 2015.46,614.173 2019.84,618 2024.22,621.183 2028.6,623.834 2032.98,626.108 2037.36,628.173 2041.74,630.175 2046.12,632.223 2050.5,634.375 2054.88,636.643 2059.26,639.009 2063.65,641.436 2068.03,643.882 2072.41,646.305 2076.79,648.672 2081.17,650.957 2085.55,653.141 2089.93,655.211 2094.31,657.16 2098.69,658.986 2103.07,660.685 2107.45,662.26 2111.83,663.709 2116.21,665.034 2120.59,666.232 2124.97,667.3 2129.35,668.234 2133.73,669.027 2138.11,669.666 2142.49,670.14 2146.87,670.429 2151.25,670.515 2155.64,670.371 2160.02,669.971 2164.4,669.284 2168.78,668.275 2173.16,666.91 2177.54,665.152 2181.92,662.964 2186.3,660.313 2190.68,657.166 2195.06,653.496 2199.44,649.281 2203.82,644.506 2208.2,639.166 2212.58,633.262 2216.96,626.806 2221.34,619.82 2225.72,612.334 2230.1,604.385 2234.48,596.02 2238.86,587.288 2243.24,578.245 2247.62,568.947 2252.01,559.454 2256.39,549.822 2260.77,540.107 2265.15,530.363 2269.53,520.637 2273.91,510.975 2278.29,501.417 2282.67,491.996 2287.05,482.743 2291.43,473.682 2295.81,464.834 2300.19,456.214 2304.57,447.833 2308.95,439.7 2313.33,431.819 2317.71,424.193 2322.09,416.82 2326.47,409.7 "/>
<path clip-path="url(#clip940)" d="M2176.5 245.918 L2321.8 245.918 L2321.8 142.238 L2176.5 142.238  Z" fill="#ffffff" fill-rule="evenodd" fill-opacity="1"/>
<polyline clip-path="url(#clip940)" style="stroke:#000000; stroke-linecap:round; stroke-linejoin:round; stroke-width:4; stroke-opacity:1; fill:none" points="2176.5,245.918 2321.8,245.918 2321.8,142.238 2176.5,142.238 2176.5,245.918 "/>
<polyline clip-path="url(#clip940)" style="stroke:#009af9; stroke-linecap:round; stroke-linejoin:round; stroke-width:4; stroke-opacity:1; fill:none" points="2186.82,194.078 2248.73,194.078 "/>
<path clip-path="url(#clip940)" d="M2272.89 213.765 Q2271.09 218.395 2269.38 219.807 Q2267.66 221.219 2264.79 221.219 L2261.39 221.219 L2261.39 217.654 L2263.89 217.654 Q2265.65 217.654 2266.62 216.821 Q2267.59 215.988 2268.77 212.886 L2269.54 210.941 L2259.05 185.432 L2263.57 185.432 L2271.67 205.71 L2279.77 185.432 L2284.28 185.432 L2272.89 213.765 Z" fill="#000000" fill-rule="nonzero" fill-opacity="1" /><path clip-path="url(#clip940)" d="M2291.57 207.423 L2299.21 207.423 L2299.21 181.057 L2290.9 182.724 L2290.9 178.465 L2299.17 176.798 L2303.84 176.798 L2303.84 207.423 L2311.48 207.423 L2311.48 211.358 L2291.57 211.358 L2291.57 207.423 Z" fill="#000000" fill-rule="nonzero" fill-opacity="1" /><path clip-path="url(#clip940)" d="M224.098 1486.45 L1152.76 1486.45 L1152.76 923.472 L224.098 923.472  Z" fill="#ffffff" fill-rule="evenodd" fill-opacity="1"/>
<defs>
  <clipPath id="clip944">
    <rect x="224" y="923" width="930" height="564"/>
  </clipPath>
</defs>
<polyline clip-path="url(#clip944)" style="stroke:#000000; stroke-linecap:round; stroke-linejoin:round; stroke-width:2; stroke-opacity:0.1; fill:none" points="250.381,1486.45 250.381,923.472 "/>
<polyline clip-path="url(#clip944)" style="stroke:#000000; stroke-linecap:round; stroke-linejoin:round; stroke-width:2; stroke-opacity:0.1; fill:none" points="469.404,1486.45 469.404,923.472 "/>
<polyline clip-path="url(#clip944)" style="stroke:#000000; stroke-linecap:round; stroke-linejoin:round; stroke-width:2; stroke-opacity:0.1; fill:none" points="688.427,1486.45 688.427,923.472 "/>
<polyline clip-path="url(#clip944)" style="stroke:#000000; stroke-linecap:round; stroke-linejoin:round; stroke-width:2; stroke-opacity:0.1; fill:none" points="907.45,1486.45 907.45,923.472 "/>
<polyline clip-path="url(#clip944)" style="stroke:#000000; stroke-linecap:round; stroke-linejoin:round; stroke-width:2; stroke-opacity:0.1; fill:none" points="1126.47,1486.45 1126.47,923.472 "/>
<polyline clip-path="url(#clip940)" style="stroke:#000000; stroke-linecap:round; stroke-linejoin:round; stroke-width:4; stroke-opacity:1; fill:none" points="224.098,1486.45 1152.76,1486.45 "/>
<polyline clip-path="url(#clip940)" style="stroke:#000000; stroke-linecap:round; stroke-linejoin:round; stroke-width:4; stroke-opacity:1; fill:none" points="250.381,1486.45 250.381,1467.55 "/>
<polyline clip-path="url(#clip940)" style="stroke:#000000; stroke-linecap:round; stroke-linejoin:round; stroke-width:4; stroke-opacity:1; fill:none" points="469.404,1486.45 469.404,1467.55 "/>
<polyline clip-path="url(#clip940)" style="stroke:#000000; stroke-linecap:round; stroke-linejoin:round; stroke-width:4; stroke-opacity:1; fill:none" points="688.427,1486.45 688.427,1467.55 "/>
<polyline clip-path="url(#clip940)" style="stroke:#000000; stroke-linecap:round; stroke-linejoin:round; stroke-width:4; stroke-opacity:1; fill:none" points="907.45,1486.45 907.45,1467.55 "/>
<polyline clip-path="url(#clip940)" style="stroke:#000000; stroke-linecap:round; stroke-linejoin:round; stroke-width:4; stroke-opacity:1; fill:none" points="1126.47,1486.45 1126.47,1467.55 "/>
<path clip-path="url(#clip940)" d="M196.909 1532.02 L226.584 1532.02 L226.584 1535.95 L196.909 1535.95 L196.909 1532.02 Z" fill="#000000" fill-rule="nonzero" fill-opacity="1" /><path clip-path="url(#clip940)" d="M237.487 1544.91 L245.126 1544.91 L245.126 1518.55 L236.816 1520.21 L236.816 1515.95 L245.08 1514.29 L249.756 1514.29 L249.756 1544.91 L257.394 1544.91 L257.394 1548.85 L237.487 1548.85 L237.487 1544.91 Z" fill="#000000" fill-rule="nonzero" fill-opacity="1" /><path clip-path="url(#clip940)" d="M266.839 1542.97 L271.723 1542.97 L271.723 1548.85 L266.839 1548.85 L266.839 1542.97 Z" fill="#000000" fill-rule="nonzero" fill-opacity="1" /><path clip-path="url(#clip940)" d="M291.908 1517.37 Q288.297 1517.37 286.468 1520.93 Q284.663 1524.47 284.663 1531.6 Q284.663 1538.71 286.468 1542.27 Q288.297 1545.82 291.908 1545.82 Q295.542 1545.82 297.348 1542.27 Q299.177 1538.71 299.177 1531.6 Q299.177 1524.47 297.348 1520.93 Q295.542 1517.37 291.908 1517.37 M291.908 1513.66 Q297.718 1513.66 300.774 1518.27 Q303.853 1522.85 303.853 1531.6 Q303.853 1540.33 300.774 1544.94 Q297.718 1549.52 291.908 1549.52 Q286.098 1549.52 283.019 1544.94 Q279.964 1540.33 279.964 1531.6 Q279.964 1522.85 283.019 1518.27 Q286.098 1513.66 291.908 1513.66 Z" fill="#000000" fill-rule="nonzero" fill-opacity="1" /><path clip-path="url(#clip940)" d="M416.43 1532.02 L446.105 1532.02 L446.105 1535.95 L416.43 1535.95 L416.43 1532.02 Z" fill="#000000" fill-rule="nonzero" fill-opacity="1" /><path clip-path="url(#clip940)" d="M466.198 1517.37 Q462.587 1517.37 460.758 1520.93 Q458.952 1524.47 458.952 1531.6 Q458.952 1538.71 460.758 1542.27 Q462.587 1545.82 466.198 1545.82 Q469.832 1545.82 471.638 1542.27 Q473.466 1538.71 473.466 1531.6 Q473.466 1524.47 471.638 1520.93 Q469.832 1517.37 466.198 1517.37 M466.198 1513.66 Q472.008 1513.66 475.063 1518.27 Q478.142 1522.85 478.142 1531.6 Q478.142 1540.33 475.063 1544.94 Q472.008 1549.52 466.198 1549.52 Q460.388 1549.52 457.309 1544.94 Q454.253 1540.33 454.253 1531.6 Q454.253 1522.85 457.309 1518.27 Q460.388 1513.66 466.198 1513.66 Z" fill="#000000" fill-rule="nonzero" fill-opacity="1" /><path clip-path="url(#clip940)" d="M486.36 1542.97 L491.244 1542.97 L491.244 1548.85 L486.36 1548.85 L486.36 1542.97 Z" fill="#000000" fill-rule="nonzero" fill-opacity="1" /><path clip-path="url(#clip940)" d="M501.475 1514.29 L519.832 1514.29 L519.832 1518.22 L505.758 1518.22 L505.758 1526.7 Q506.776 1526.35 507.795 1526.19 Q508.813 1526 509.832 1526 Q515.619 1526 518.998 1529.17 Q522.378 1532.34 522.378 1537.76 Q522.378 1543.34 518.906 1546.44 Q515.434 1549.52 509.114 1549.52 Q506.938 1549.52 504.67 1549.15 Q502.424 1548.78 500.017 1548.04 L500.017 1543.34 Q502.1 1544.47 504.323 1545.03 Q506.545 1545.58 509.022 1545.58 Q513.026 1545.58 515.364 1543.48 Q517.702 1541.37 517.702 1537.76 Q517.702 1534.15 515.364 1532.04 Q513.026 1529.94 509.022 1529.94 Q507.147 1529.94 505.272 1530.35 Q503.42 1530.77 501.475 1531.65 L501.475 1514.29 Z" fill="#000000" fill-rule="nonzero" fill-opacity="1" /><path clip-path="url(#clip940)" d="M665.811 1517.37 Q662.2 1517.37 660.371 1520.93 Q658.566 1524.47 658.566 1531.6 Q658.566 1538.71 660.371 1542.27 Q662.2 1545.82 665.811 1545.82 Q669.446 1545.82 671.251 1542.27 Q673.08 1538.71 673.08 1531.6 Q673.08 1524.47 671.251 1520.93 Q669.446 1517.37 665.811 1517.37 M665.811 1513.66 Q671.621 1513.66 674.677 1518.27 Q677.756 1522.85 677.756 1531.6 Q677.756 1540.33 674.677 1544.94 Q671.621 1549.52 665.811 1549.52 Q660.001 1549.52 656.922 1544.94 Q653.867 1540.33 653.867 1531.6 Q653.867 1522.85 656.922 1518.27 Q660.001 1513.66 665.811 1513.66 Z" fill="#000000" fill-rule="nonzero" fill-opacity="1" /><path clip-path="url(#clip940)" d="M685.973 1542.97 L690.857 1542.97 L690.857 1548.85 L685.973 1548.85 L685.973 1542.97 Z" fill="#000000" fill-rule="nonzero" fill-opacity="1" /><path clip-path="url(#clip940)" d="M711.043 1517.37 Q707.431 1517.37 705.603 1520.93 Q703.797 1524.47 703.797 1531.6 Q703.797 1538.71 705.603 1542.27 Q707.431 1545.82 711.043 1545.82 Q714.677 1545.82 716.482 1542.27 Q718.311 1538.71 718.311 1531.6 Q718.311 1524.47 716.482 1520.93 Q714.677 1517.37 711.043 1517.37 M711.043 1513.66 Q716.853 1513.66 719.908 1518.27 Q722.987 1522.85 722.987 1531.6 Q722.987 1540.33 719.908 1544.94 Q716.853 1549.52 711.043 1549.52 Q705.232 1549.52 702.154 1544.94 Q699.098 1540.33 699.098 1531.6 Q699.098 1522.85 702.154 1518.27 Q705.232 1513.66 711.043 1513.66 Z" fill="#000000" fill-rule="nonzero" fill-opacity="1" /><path clip-path="url(#clip940)" d="M885.332 1517.37 Q881.721 1517.37 879.892 1520.93 Q878.087 1524.47 878.087 1531.6 Q878.087 1538.71 879.892 1542.27 Q881.721 1545.82 885.332 1545.82 Q888.966 1545.82 890.772 1542.27 Q892.601 1538.71 892.601 1531.6 Q892.601 1524.47 890.772 1520.93 Q888.966 1517.37 885.332 1517.37 M885.332 1513.66 Q891.142 1513.66 894.198 1518.27 Q897.276 1522.85 897.276 1531.6 Q897.276 1540.33 894.198 1544.94 Q891.142 1549.52 885.332 1549.52 Q879.522 1549.52 876.443 1544.94 Q873.388 1540.33 873.388 1531.6 Q873.388 1522.85 876.443 1518.27 Q879.522 1513.66 885.332 1513.66 Z" fill="#000000" fill-rule="nonzero" fill-opacity="1" /><path clip-path="url(#clip940)" d="M905.494 1542.97 L910.378 1542.97 L910.378 1548.85 L905.494 1548.85 L905.494 1542.97 Z" fill="#000000" fill-rule="nonzero" fill-opacity="1" /><path clip-path="url(#clip940)" d="M920.61 1514.29 L938.966 1514.29 L938.966 1518.22 L924.892 1518.22 L924.892 1526.7 Q925.911 1526.35 926.929 1526.19 Q927.948 1526 928.966 1526 Q934.753 1526 938.133 1529.17 Q941.512 1532.34 941.512 1537.76 Q941.512 1543.34 938.04 1546.44 Q934.568 1549.52 928.249 1549.52 Q926.073 1549.52 923.804 1549.15 Q921.559 1548.78 919.151 1548.04 L919.151 1543.34 Q921.235 1544.47 923.457 1545.03 Q925.679 1545.58 928.156 1545.58 Q932.161 1545.58 934.498 1543.48 Q936.836 1541.37 936.836 1537.76 Q936.836 1534.15 934.498 1532.04 Q932.161 1529.94 928.156 1529.94 Q926.281 1529.94 924.406 1530.35 Q922.554 1530.77 920.61 1531.65 L920.61 1514.29 Z" fill="#000000" fill-rule="nonzero" fill-opacity="1" /><path clip-path="url(#clip940)" d="M1093.63 1544.91 L1101.26 1544.91 L1101.26 1518.55 L1092.95 1520.21 L1092.95 1515.95 L1101.22 1514.29 L1105.89 1514.29 L1105.89 1544.91 L1113.53 1544.91 L1113.53 1548.85 L1093.63 1548.85 L1093.63 1544.91 Z" fill="#000000" fill-rule="nonzero" fill-opacity="1" /><path clip-path="url(#clip940)" d="M1122.98 1542.97 L1127.86 1542.97 L1127.86 1548.85 L1122.98 1548.85 L1122.98 1542.97 Z" fill="#000000" fill-rule="nonzero" fill-opacity="1" /><path clip-path="url(#clip940)" d="M1148.05 1517.37 Q1144.44 1517.37 1142.61 1520.93 Q1140.8 1524.47 1140.8 1531.6 Q1140.8 1538.71 1142.61 1542.27 Q1144.44 1545.82 1148.05 1545.82 Q1151.68 1545.82 1153.49 1542.27 Q1155.32 1538.71 1155.32 1531.6 Q1155.32 1524.47 1153.49 1520.93 Q1151.68 1517.37 1148.05 1517.37 M1148.05 1513.66 Q1153.86 1513.66 1156.91 1518.27 Q1159.99 1522.85 1159.99 1531.6 Q1159.99 1540.33 1156.91 1544.94 Q1153.86 1549.52 1148.05 1549.52 Q1142.24 1549.52 1139.16 1544.94 Q1136.1 1540.33 1136.1 1531.6 Q1136.1 1522.85 1139.16 1518.27 Q1142.24 1513.66 1148.05 1513.66 Z" fill="#000000" fill-rule="nonzero" fill-opacity="1" /><polyline clip-path="url(#clip944)" style="stroke:#000000; stroke-linecap:round; stroke-linejoin:round; stroke-width:2; stroke-opacity:0.1; fill:none" points="224.098,1453.32 1152.76,1453.32 "/>
<polyline clip-path="url(#clip944)" style="stroke:#000000; stroke-linecap:round; stroke-linejoin:round; stroke-width:2; stroke-opacity:0.1; fill:none" points="224.098,1335.26 1152.76,1335.26 "/>
<polyline clip-path="url(#clip944)" style="stroke:#000000; stroke-linecap:round; stroke-linejoin:round; stroke-width:2; stroke-opacity:0.1; fill:none" points="224.098,1217.21 1152.76,1217.21 "/>
<polyline clip-path="url(#clip944)" style="stroke:#000000; stroke-linecap:round; stroke-linejoin:round; stroke-width:2; stroke-opacity:0.1; fill:none" points="224.098,1099.15 1152.76,1099.15 "/>
<polyline clip-path="url(#clip944)" style="stroke:#000000; stroke-linecap:round; stroke-linejoin:round; stroke-width:2; stroke-opacity:0.1; fill:none" points="224.098,981.099 1152.76,981.099 "/>
<polyline clip-path="url(#clip940)" style="stroke:#000000; stroke-linecap:round; stroke-linejoin:round; stroke-width:4; stroke-opacity:1; fill:none" points="224.098,1486.45 224.098,923.472 "/>
<polyline clip-path="url(#clip940)" style="stroke:#000000; stroke-linecap:round; stroke-linejoin:round; stroke-width:4; stroke-opacity:1; fill:none" points="224.098,1453.32 242.996,1453.32 "/>
<polyline clip-path="url(#clip940)" style="stroke:#000000; stroke-linecap:round; stroke-linejoin:round; stroke-width:4; stroke-opacity:1; fill:none" points="224.098,1335.26 242.996,1335.26 "/>
<polyline clip-path="url(#clip940)" style="stroke:#000000; stroke-linecap:round; stroke-linejoin:round; stroke-width:4; stroke-opacity:1; fill:none" points="224.098,1217.21 242.996,1217.21 "/>
<polyline clip-path="url(#clip940)" style="stroke:#000000; stroke-linecap:round; stroke-linejoin:round; stroke-width:4; stroke-opacity:1; fill:none" points="224.098,1099.15 242.996,1099.15 "/>
<polyline clip-path="url(#clip940)" style="stroke:#000000; stroke-linecap:round; stroke-linejoin:round; stroke-width:4; stroke-opacity:1; fill:none" points="224.098,981.099 242.996,981.099 "/>
<path clip-path="url(#clip940)" d="M50.9921 1453.77 L80.6679 1453.77 L80.6679 1457.7 L50.9921 1457.7 L50.9921 1453.77 Z" fill="#000000" fill-rule="nonzero" fill-opacity="1" /><path clip-path="url(#clip940)" d="M100.76 1439.12 Q97.1493 1439.12 95.3206 1442.68 Q93.515 1446.22 93.515 1453.35 Q93.515 1460.46 95.3206 1464.02 Q97.1493 1467.56 100.76 1467.56 Q104.395 1467.56 106.2 1464.02 Q108.029 1460.46 108.029 1453.35 Q108.029 1446.22 106.2 1442.68 Q104.395 1439.12 100.76 1439.12 M100.76 1435.41 Q106.571 1435.41 109.626 1440.02 Q112.705 1444.6 112.705 1453.35 Q112.705 1462.08 109.626 1466.69 Q106.571 1471.27 100.76 1471.27 Q94.9502 1471.27 91.8715 1466.69 Q88.816 1462.08 88.816 1453.35 Q88.816 1444.6 91.8715 1440.02 Q94.9502 1435.41 100.76 1435.41 Z" fill="#000000" fill-rule="nonzero" fill-opacity="1" /><path clip-path="url(#clip940)" d="M120.922 1464.72 L125.807 1464.72 L125.807 1470.6 L120.922 1470.6 L120.922 1464.72 Z" fill="#000000" fill-rule="nonzero" fill-opacity="1" /><path clip-path="url(#clip940)" d="M136.038 1436.04 L154.394 1436.04 L154.394 1439.97 L140.32 1439.97 L140.32 1448.44 Q141.339 1448.1 142.357 1447.94 Q143.376 1447.75 144.394 1447.75 Q150.181 1447.75 153.561 1450.92 Q156.941 1454.09 156.941 1459.51 Q156.941 1465.09 153.468 1468.19 Q149.996 1471.27 143.677 1471.27 Q141.501 1471.27 139.232 1470.9 Q136.987 1470.53 134.58 1469.79 L134.58 1465.09 Q136.663 1466.22 138.885 1466.78 Q141.107 1467.33 143.584 1467.33 Q147.589 1467.33 149.927 1465.23 Q152.265 1463.12 152.265 1459.51 Q152.265 1455.9 149.927 1453.79 Q147.589 1451.69 143.584 1451.69 Q141.709 1451.69 139.834 1452.1 Q137.982 1452.52 136.038 1453.4 L136.038 1436.04 Z" fill="#000000" fill-rule="nonzero" fill-opacity="1" /><path clip-path="url(#clip940)" d="M176.153 1439.12 Q172.542 1439.12 170.714 1442.68 Q168.908 1446.22 168.908 1453.35 Q168.908 1460.46 170.714 1464.02 Q172.542 1467.56 176.153 1467.56 Q179.788 1467.56 181.593 1464.02 Q183.422 1460.46 183.422 1453.35 Q183.422 1446.22 181.593 1442.68 Q179.788 1439.12 176.153 1439.12 M176.153 1435.41 Q181.964 1435.41 185.019 1440.02 Q188.098 1444.6 188.098 1453.35 Q188.098 1462.08 185.019 1466.69 Q181.964 1471.27 176.153 1471.27 Q170.343 1471.27 167.265 1466.69 Q164.209 1462.08 164.209 1453.35 Q164.209 1444.6 167.265 1440.02 Q170.343 1435.41 176.153 1435.41 Z" fill="#000000" fill-rule="nonzero" fill-opacity="1" /><path clip-path="url(#clip940)" d="M51.9875 1335.71 L81.6633 1335.71 L81.6633 1339.65 L51.9875 1339.65 L51.9875 1335.71 Z" fill="#000000" fill-rule="nonzero" fill-opacity="1" /><path clip-path="url(#clip940)" d="M101.756 1321.06 Q98.1447 1321.06 96.316 1324.63 Q94.5104 1328.17 94.5104 1335.3 Q94.5104 1342.4 96.316 1345.97 Q98.1447 1349.51 101.756 1349.51 Q105.39 1349.51 107.196 1345.97 Q109.024 1342.4 109.024 1335.3 Q109.024 1328.17 107.196 1324.63 Q105.39 1321.06 101.756 1321.06 M101.756 1317.36 Q107.566 1317.36 110.621 1321.96 Q113.7 1326.55 113.7 1335.3 Q113.7 1344.02 110.621 1348.63 Q107.566 1353.21 101.756 1353.21 Q95.9456 1353.21 92.8669 1348.63 Q89.8114 1344.02 89.8114 1335.3 Q89.8114 1326.55 92.8669 1321.96 Q95.9456 1317.36 101.756 1317.36 Z" fill="#000000" fill-rule="nonzero" fill-opacity="1" /><path clip-path="url(#clip940)" d="M121.918 1346.66 L126.802 1346.66 L126.802 1352.54 L121.918 1352.54 L121.918 1346.66 Z" fill="#000000" fill-rule="nonzero" fill-opacity="1" /><path clip-path="url(#clip940)" d="M141.015 1348.61 L157.334 1348.61 L157.334 1352.54 L135.39 1352.54 L135.39 1348.61 Q138.052 1345.85 142.635 1341.22 Q147.242 1336.57 148.422 1335.23 Q150.668 1332.7 151.547 1330.97 Q152.45 1329.21 152.45 1327.52 Q152.45 1324.76 150.505 1323.03 Q148.584 1321.29 145.482 1321.29 Q143.283 1321.29 140.83 1322.06 Q138.399 1322.82 135.621 1324.37 L135.621 1319.65 Q138.445 1318.51 140.899 1317.94 Q143.353 1317.36 145.39 1317.36 Q150.76 1317.36 153.955 1320.04 Q157.149 1322.73 157.149 1327.22 Q157.149 1329.35 156.339 1331.27 Q155.552 1333.17 153.445 1335.76 Q152.867 1336.43 149.765 1339.65 Q146.663 1342.84 141.015 1348.61 Z" fill="#000000" fill-rule="nonzero" fill-opacity="1" /><path clip-path="url(#clip940)" d="M167.195 1317.98 L185.552 1317.98 L185.552 1321.92 L171.478 1321.92 L171.478 1330.39 Q172.496 1330.04 173.515 1329.88 Q174.533 1329.7 175.552 1329.7 Q181.339 1329.7 184.718 1332.87 Q188.098 1336.04 188.098 1341.45 Q188.098 1347.03 184.626 1350.14 Q181.153 1353.21 174.834 1353.21 Q172.658 1353.21 170.39 1352.84 Q168.144 1352.47 165.737 1351.73 L165.737 1347.03 Q167.82 1348.17 170.042 1348.72 Q172.265 1349.28 174.741 1349.28 Q178.746 1349.28 181.084 1347.17 Q183.422 1345.07 183.422 1341.45 Q183.422 1337.84 181.084 1335.74 Q178.746 1333.63 174.741 1333.63 Q172.866 1333.63 170.991 1334.05 Q169.14 1334.46 167.195 1335.34 L167.195 1317.98 Z" fill="#000000" fill-rule="nonzero" fill-opacity="1" /><path clip-path="url(#clip940)" d="M100.76 1203.01 Q97.1493 1203.01 95.3206 1206.57 Q93.515 1210.11 93.515 1217.24 Q93.515 1224.35 95.3206 1227.91 Q97.1493 1231.46 100.76 1231.46 Q104.395 1231.46 106.2 1227.91 Q108.029 1224.35 108.029 1217.24 Q108.029 1210.11 106.2 1206.57 Q104.395 1203.01 100.76 1203.01 M100.76 1199.3 Q106.571 1199.3 109.626 1203.91 Q112.705 1208.49 112.705 1217.24 Q112.705 1225.97 109.626 1230.58 Q106.571 1235.16 100.76 1235.16 Q94.9502 1235.16 91.8715 1230.58 Q88.816 1225.97 88.816 1217.24 Q88.816 1208.49 91.8715 1203.91 Q94.9502 1199.3 100.76 1199.3 Z" fill="#000000" fill-rule="nonzero" fill-opacity="1" /><path clip-path="url(#clip940)" d="M120.922 1228.61 L125.807 1228.61 L125.807 1234.49 L120.922 1234.49 L120.922 1228.61 Z" fill="#000000" fill-rule="nonzero" fill-opacity="1" /><path clip-path="url(#clip940)" d="M145.992 1203.01 Q142.381 1203.01 140.552 1206.57 Q138.746 1210.11 138.746 1217.24 Q138.746 1224.35 140.552 1227.91 Q142.381 1231.46 145.992 1231.46 Q149.626 1231.46 151.431 1227.91 Q153.26 1224.35 153.26 1217.24 Q153.26 1210.11 151.431 1206.57 Q149.626 1203.01 145.992 1203.01 M145.992 1199.3 Q151.802 1199.3 154.857 1203.91 Q157.936 1208.49 157.936 1217.24 Q157.936 1225.97 154.857 1230.58 Q151.802 1235.16 145.992 1235.16 Q140.181 1235.16 137.103 1230.58 Q134.047 1225.97 134.047 1217.24 Q134.047 1208.49 137.103 1203.91 Q140.181 1199.3 145.992 1199.3 Z" fill="#000000" fill-rule="nonzero" fill-opacity="1" /><path clip-path="url(#clip940)" d="M176.153 1203.01 Q172.542 1203.01 170.714 1206.57 Q168.908 1210.11 168.908 1217.24 Q168.908 1224.35 170.714 1227.91 Q172.542 1231.46 176.153 1231.46 Q179.788 1231.46 181.593 1227.91 Q183.422 1224.35 183.422 1217.24 Q183.422 1210.11 181.593 1206.57 Q179.788 1203.01 176.153 1203.01 M176.153 1199.3 Q181.964 1199.3 185.019 1203.91 Q188.098 1208.49 188.098 1217.24 Q188.098 1225.97 185.019 1230.58 Q181.964 1235.16 176.153 1235.16 Q170.343 1235.16 167.265 1230.58 Q164.209 1225.97 164.209 1217.24 Q164.209 1208.49 167.265 1203.91 Q170.343 1199.3 176.153 1199.3 Z" fill="#000000" fill-rule="nonzero" fill-opacity="1" /><path clip-path="url(#clip940)" d="M101.756 1084.95 Q98.1447 1084.95 96.316 1088.52 Q94.5104 1092.06 94.5104 1099.19 Q94.5104 1106.29 96.316 1109.86 Q98.1447 1113.4 101.756 1113.4 Q105.39 1113.4 107.196 1109.86 Q109.024 1106.29 109.024 1099.19 Q109.024 1092.06 107.196 1088.52 Q105.39 1084.95 101.756 1084.95 M101.756 1081.25 Q107.566 1081.25 110.621 1085.85 Q113.7 1090.44 113.7 1099.19 Q113.7 1107.91 110.621 1112.52 Q107.566 1117.1 101.756 1117.1 Q95.9456 1117.1 92.8669 1112.52 Q89.8114 1107.91 89.8114 1099.19 Q89.8114 1090.44 92.8669 1085.85 Q95.9456 1081.25 101.756 1081.25 Z" fill="#000000" fill-rule="nonzero" fill-opacity="1" /><path clip-path="url(#clip940)" d="M121.918 1110.55 L126.802 1110.55 L126.802 1116.43 L121.918 1116.43 L121.918 1110.55 Z" fill="#000000" fill-rule="nonzero" fill-opacity="1" /><path clip-path="url(#clip940)" d="M141.015 1112.5 L157.334 1112.5 L157.334 1116.43 L135.39 1116.43 L135.39 1112.5 Q138.052 1109.74 142.635 1105.11 Q147.242 1100.46 148.422 1099.12 Q150.668 1096.6 151.547 1094.86 Q152.45 1093.1 152.45 1091.41 Q152.45 1088.66 150.505 1086.92 Q148.584 1085.18 145.482 1085.18 Q143.283 1085.18 140.83 1085.95 Q138.399 1086.71 135.621 1088.26 L135.621 1083.54 Q138.445 1082.41 140.899 1081.83 Q143.353 1081.25 145.39 1081.25 Q150.76 1081.25 153.955 1083.93 Q157.149 1086.62 157.149 1091.11 Q157.149 1093.24 156.339 1095.16 Q155.552 1097.06 153.445 1099.65 Q152.867 1100.32 149.765 1103.54 Q146.663 1106.73 141.015 1112.5 Z" fill="#000000" fill-rule="nonzero" fill-opacity="1" /><path clip-path="url(#clip940)" d="M167.195 1081.87 L185.552 1081.87 L185.552 1085.81 L171.478 1085.81 L171.478 1094.28 Q172.496 1093.93 173.515 1093.77 Q174.533 1093.59 175.552 1093.59 Q181.339 1093.59 184.718 1096.76 Q188.098 1099.93 188.098 1105.35 Q188.098 1110.92 184.626 1114.03 Q181.153 1117.1 174.834 1117.1 Q172.658 1117.1 170.39 1116.73 Q168.144 1116.36 165.737 1115.62 L165.737 1110.92 Q167.82 1112.06 170.042 1112.61 Q172.265 1113.17 174.741 1113.17 Q178.746 1113.17 181.084 1111.06 Q183.422 1108.96 183.422 1105.35 Q183.422 1101.73 181.084 1099.63 Q178.746 1097.52 174.741 1097.52 Q172.866 1097.52 170.991 1097.94 Q169.14 1098.35 167.195 1099.23 L167.195 1081.87 Z" fill="#000000" fill-rule="nonzero" fill-opacity="1" /><path clip-path="url(#clip940)" d="M100.76 966.897 Q97.1493 966.897 95.3206 970.462 Q93.515 974.004 93.515 981.133 Q93.515 988.24 95.3206 991.805 Q97.1493 995.346 100.76 995.346 Q104.395 995.346 106.2 991.805 Q108.029 988.24 108.029 981.133 Q108.029 974.004 106.2 970.462 Q104.395 966.897 100.76 966.897 M100.76 963.194 Q106.571 963.194 109.626 967.8 Q112.705 972.383 112.705 981.133 Q112.705 989.86 109.626 994.467 Q106.571 999.05 100.76 999.05 Q94.9502 999.05 91.8715 994.467 Q88.816 989.86 88.816 981.133 Q88.816 972.383 91.8715 967.8 Q94.9502 963.194 100.76 963.194 Z" fill="#000000" fill-rule="nonzero" fill-opacity="1" /><path clip-path="url(#clip940)" d="M120.922 992.499 L125.807 992.499 L125.807 998.379 L120.922 998.379 L120.922 992.499 Z" fill="#000000" fill-rule="nonzero" fill-opacity="1" /><path clip-path="url(#clip940)" d="M136.038 963.819 L154.394 963.819 L154.394 967.754 L140.32 967.754 L140.32 976.226 Q141.339 975.879 142.357 975.717 Q143.376 975.531 144.394 975.531 Q150.181 975.531 153.561 978.703 Q156.941 981.874 156.941 987.291 Q156.941 992.869 153.468 995.971 Q149.996 999.05 143.677 999.05 Q141.501 999.05 139.232 998.68 Q136.987 998.309 134.58 997.568 L134.58 992.869 Q136.663 994.004 138.885 994.559 Q141.107 995.115 143.584 995.115 Q147.589 995.115 149.927 993.008 Q152.265 990.902 152.265 987.291 Q152.265 983.68 149.927 981.573 Q147.589 979.467 143.584 979.467 Q141.709 979.467 139.834 979.883 Q137.982 980.3 136.038 981.18 L136.038 963.819 Z" fill="#000000" fill-rule="nonzero" fill-opacity="1" /><path clip-path="url(#clip940)" d="M176.153 966.897 Q172.542 966.897 170.714 970.462 Q168.908 974.004 168.908 981.133 Q168.908 988.24 170.714 991.805 Q172.542 995.346 176.153 995.346 Q179.788 995.346 181.593 991.805 Q183.422 988.24 183.422 981.133 Q183.422 974.004 181.593 970.462 Q179.788 966.897 176.153 966.897 M176.153 963.194 Q181.964 963.194 185.019 967.8 Q188.098 972.383 188.098 981.133 Q188.098 989.86 185.019 994.467 Q181.964 999.05 176.153 999.05 Q170.343 999.05 167.265 994.467 Q164.209 989.86 164.209 981.133 Q164.209 972.383 167.265 967.8 Q170.343 963.194 176.153 963.194 Z" fill="#000000" fill-rule="nonzero" fill-opacity="1" /><path clip-path="url(#clip940)" d="M602.548 814.324 L602.548 827.206 L617.901 827.206 L617.901 832.999 L602.548 832.999 L602.548 857.628 Q602.548 863.178 604.047 864.758 Q605.586 866.338 610.244 866.338 L617.901 866.338 L617.901 872.576 L610.244 872.576 Q601.616 872.576 598.335 869.376 Q595.054 866.135 595.054 857.628 L595.054 832.999 L589.585 832.999 L589.585 827.206 L595.054 827.206 L595.054 814.324 L602.548 814.324 Z" fill="#000000" fill-rule="nonzero" fill-opacity="1" /><path clip-path="url(#clip940)" d="M655.047 834.903 L706.98 834.903 L706.98 841.708 L655.047 841.708 L655.047 834.903 M655.047 851.43 L706.98 851.43 L706.98 858.317 L655.047 858.317 L655.047 851.43 Z" fill="#000000" fill-rule="nonzero" fill-opacity="1" /><path clip-path="url(#clip940)" d="M752.431 865.689 L765.799 865.689 L765.799 819.55 L751.256 822.466 L751.256 815.013 L765.718 812.096 L773.901 812.096 L773.901 865.689 L787.269 865.689 L787.269 872.576 L752.431 872.576 L752.431 865.689 Z" fill="#000000" fill-rule="nonzero" fill-opacity="1" /><polyline clip-path="url(#clip944)" style="stroke:#009af9; stroke-linecap:round; stroke-linejoin:round; stroke-width:4; stroke-opacity:1; fill:none" points="250.381,1198.29 254.761,1194.13 259.142,1190.18 263.522,1186.43 267.902,1182.86 272.283,1179.47 276.663,1176.25 281.044,1173.17 285.424,1170.23 289.805,1167.42 294.185,1164.73 298.566,1162.14 302.946,1159.65 307.327,1157.25 311.707,1154.92 316.088,1152.66 320.468,1150.45 324.849,1148.3 329.229,1146.19 333.609,1144.11 337.99,1142.05 342.37,1140.01 346.751,1137.97 351.131,1135.94 355.512,1133.9 359.892,1131.85 364.273,1129.77 368.653,1127.67 373.034,1125.53 377.414,1123.35 381.795,1121.12 386.175,1118.83 390.555,1116.48 394.936,1114.06 399.316,1111.56 403.697,1108.98 408.077,1106.32 412.458,1103.55 416.838,1100.69 421.219,1097.73 425.599,1094.65 429.98,1091.45 434.36,1088.14 438.741,1084.71 443.121,1081.14 447.501,1077.45 451.882,1073.63 456.262,1069.68 460.643,1065.59 465.023,1061.38 469.404,1057.05 473.784,1052.59 478.165,1048.02 482.545,1043.34 486.926,1038.57 491.306,1033.71 495.687,1028.78 500.067,1023.8 504.447,1018.77 508.828,1013.73 513.208,1008.69 517.589,1003.67 521.969,998.695 526.35,993.793 530.73,988.986 535.111,984.298 539.491,979.754 543.872,975.376 548.252,971.186 552.633,967.204 557.013,963.449 561.393,959.937 565.774,956.68 570.154,953.69 574.535,950.975 578.915,948.541 583.296,946.391 587.676,944.528 592.057,942.952 596.437,941.664 600.818,940.664 605.198,939.953 609.579,939.532 613.959,939.405 618.339,939.579 622.72,940.063 627.1,940.869 631.481,942.016 635.861,943.53 640.242,945.454 644.622,947.856 649.003,950.861 653.383,954.686 657.764,959.693 662.144,966.478 666.525,975.995 670.905,989.824 675.286,1010.7 679.666,1043.19 684.046,1093.22 688.427,1163.51 692.807,1245.46 697.188,1320.28 701.568,1374.49 705.949,1407.88 710.329,1426.87 714.71,1437.63 719.09,1444.08 723.471,1448.38 727.851,1451.63 732.232,1454.37 736.612,1456.83 740.992,1459.12 745.373,1461.27 749.753,1463.27 754.134,1465.08 758.514,1466.69 762.895,1468.04 767.275,1469.13 771.656,1469.91 776.036,1470.38 780.417,1470.51 784.797,1470.32 789.178,1469.8 793.558,1468.96 797.938,1467.82 802.319,1466.39 806.699,1464.7 811.08,1462.77 815.46,1460.62 819.841,1458.28 824.221,1455.77 828.602,1453.11 832.982,1450.33 837.363,1447.44 841.743,1444.45 846.124,1441.4 850.504,1438.27 854.884,1435.1 859.265,1431.89 863.645,1428.64 868.026,1425.36 872.406,1422.07 876.787,1418.75 881.167,1415.43 885.548,1412.09 889.928,1408.73 894.309,1405.37 898.689,1402 903.07,1398.63 907.45,1395.24 911.83,1391.84 916.211,1388.43 920.591,1385.01 924.972,1381.58 929.352,1378.13 933.733,1374.66 938.113,1371.18 942.494,1367.68 946.874,1364.17 951.255,1360.63 955.635,1357.07 960.016,1353.48 964.396,1349.88 968.776,1346.25 973.157,1342.59 977.537,1338.91 981.918,1335.19 986.298,1331.46 990.679,1327.69 995.059,1323.9 999.44,1320.08 1003.82,1316.23 1008.2,1312.35 1012.58,1308.44 1016.96,1304.51 1021.34,1300.54 1025.72,1296.55 1030.1,1292.53 1034.48,1288.49 1038.86,1284.41 1043.24,1280.32 1047.62,1276.19 1052.01,1272.05 1056.39,1267.88 1060.77,1263.68 1065.15,1259.47 1069.53,1255.23 1073.91,1250.98 1078.29,1246.71 1082.67,1242.42 1087.05,1238.11 1091.43,1233.79 1095.81,1229.45 1100.19,1225.1 1104.57,1220.75 1108.95,1216.38 1113.33,1212 1117.71,1207.61 1122.09,1203.22 1126.47,1198.83 "/>
<path clip-path="url(#clip940)" d="M976.505 1045.92 L1121.8 1045.92 L1121.8 942.238 L976.505 942.238  Z" fill="#ffffff" fill-rule="evenodd" fill-opacity="1"/>
<polyline clip-path="url(#clip940)" style="stroke:#000000; stroke-linecap:round; stroke-linejoin:round; stroke-width:4; stroke-opacity:1; fill:none" points="976.505,1045.92 1121.8,1045.92 1121.8,942.238 976.505,942.238 976.505,1045.92 "/>
<polyline clip-path="url(#clip940)" style="stroke:#009af9; stroke-linecap:round; stroke-linejoin:round; stroke-width:4; stroke-opacity:1; fill:none" points="986.823,994.078 1048.73,994.078 "/>
<path clip-path="url(#clip940)" d="M1072.89 1013.77 Q1071.09 1018.39 1069.38 1019.81 Q1067.66 1021.22 1064.79 1021.22 L1061.39 1021.22 L1061.39 1017.65 L1063.89 1017.65 Q1065.65 1017.65 1066.62 1016.82 Q1067.59 1015.99 1068.77 1012.89 L1069.54 1010.94 L1059.05 985.432 L1063.57 985.432 L1071.67 1005.71 L1079.77 985.432 L1084.28 985.432 L1072.89 1013.77 Z" fill="#000000" fill-rule="nonzero" fill-opacity="1" /><path clip-path="url(#clip940)" d="M1091.57 1007.42 L1099.21 1007.42 L1099.21 981.057 L1090.9 982.724 L1090.9 978.465 L1099.17 976.798 L1103.84 976.798 L1103.84 1007.42 L1111.48 1007.42 L1111.48 1011.36 L1091.57 1011.36 L1091.57 1007.42 Z" fill="#000000" fill-rule="nonzero" fill-opacity="1" /></svg>
