<?xml version="1.0" encoding="utf-8"?>
<svg xmlns="http://www.w3.org/2000/svg" xmlns:xlink="http://www.w3.org/1999/xlink" width="600" height="400" viewBox="0 0 2400 1600">
<defs>
  <clipPath id="clip780">
    <rect x="0" y="0" width="2400" height="1600"/>
  </clipPath>
</defs>
<path clip-path="url(#clip780)" d="M0 1600 L2400 1600 L2400 0 L0 0  Z" fill="#ffffff" fill-rule="evenodd" fill-opacity="1"/>
<defs>
  <clipPath id="clip781">
    <rect x="480" y="0" width="1681" height="1600"/>
  </clipPath>
</defs>
<path clip-path="url(#clip780)" d="M223.103 1486.45 L2352.76 1486.45 L2352.76 47.2441 L223.103 47.2441  Z" fill="#ffffff" fill-rule="evenodd" fill-opacity="1"/>
<defs>
  <clipPath id="clip782">
    <rect x="223" y="47" width="2131" height="1440"/>
  </clipPath>
</defs>
<polyline clip-path="url(#clip782)" style="stroke:#000000; stroke-linecap:round; stroke-linejoin:round; stroke-width:2; stroke-opacity:0.1; fill:none" points="283.376,1486.45 283.376,47.2441 "/>
<polyline clip-path="url(#clip782)" style="stroke:#000000; stroke-linecap:round; stroke-linejoin:round; stroke-width:2; stroke-opacity:0.1; fill:none" points="785.652,1486.45 785.652,47.2441 "/>
<polyline clip-path="url(#clip782)" style="stroke:#000000; stroke-linecap:round; stroke-linejoin:round; stroke-width:2; stroke-opacity:0.1; fill:none" points="1287.93,1486.45 1287.93,47.2441 "/>
<polyline clip-path="url(#clip782)" style="stroke:#000000; stroke-linecap:round; stroke-linejoin:round; stroke-width:2; stroke-opacity:0.1; fill:none" points="1790.21,1486.45 1790.21,47.2441 "/>
<polyline clip-path="url(#clip782)" style="stroke:#000000; stroke-linecap:round; stroke-linejoin:round; stroke-width:2; stroke-opacity:0.1; fill:none" points="2292.48,1486.45 2292.48,47.2441 "/>
<polyline clip-path="url(#clip780)" style="stroke:#000000; stroke-linecap:round; stroke-linejoin:round; stroke-width:4; stroke-opacity:1; fill:none" points="223.103,1486.45 2352.76,1486.45 "/>
<polyline clip-path="url(#clip780)" style="stroke:#000000; stroke-linecap:round; stroke-linejoin:round; stroke-width:4; stroke-opacity:1; fill:none" points="283.376,1486.45 283.376,1467.55 "/>
<polyline clip-path="url(#clip780)" style="stroke:#000000; stroke-linecap:round; stroke-linejoin:round; stroke-width:4; stroke-opacity:1; fill:none" points="785.652,1486.45 785.652,1467.55 "/>
<polyline clip-path="url(#clip780)" style="stroke:#000000; stroke-linecap:round; stroke-linejoin:round; stroke-width:4; stroke-opacity:1; fill:none" points="1287.93,1486.45 1287.93,1467.55 "/>
<polyline clip-path="url(#clip780)" style="stroke:#000000; stroke-linecap:round; stroke-linejoin:round; stroke-width:4; stroke-opacity:1; fill:none" points="1790.21,1486.45 1790.21,1467.55 "/>
<polyline clip-path="url(#clip780)" style="stroke:#000000; stroke-linecap:round; stroke-linejoin:round; stroke-width:4; stroke-opacity:1; fill:none" points="2292.48,1486.45 2292.48,1467.55 "/>
<path clip-path="url(#clip780)" d="M260.76 1517.37 Q257.149 1517.37 255.32 1520.93 Q253.515 1524.47 253.515 1531.6 Q253.515 1538.71 255.32 1542.27 Q257.149 1545.82 260.76 1545.82 Q264.394 1545.82 266.2 1542.27 Q268.029 1538.71 268.029 1531.6 Q268.029 1524.47 266.2 1520.93 Q264.394 1517.37 260.76 1517.37 M260.76 1513.66 Q266.57 1513.66 269.626 1518.27 Q272.704 1522.85 272.704 1531.6 Q272.704 1540.33 269.626 1544.94 Q266.57 1549.52 260.76 1549.52 Q254.95 1549.52 251.871 1544.94 Q248.816 1540.33 248.816 1531.6 Q248.816 1522.85 251.871 1518.27 Q254.95 1513.66 260.76 1513.66 Z" fill="#000000" fill-rule="nonzero" fill-opacity="1" /><path clip-path="url(#clip780)" d="M280.922 1542.97 L285.806 1542.97 L285.806 1548.85 L280.922 1548.85 L280.922 1542.97 Z" fill="#000000" fill-rule="nonzero" fill-opacity="1" /><path clip-path="url(#clip780)" d="M305.991 1517.37 Q302.38 1517.37 300.552 1520.93 Q298.746 1524.47 298.746 1531.6 Q298.746 1538.71 300.552 1542.27 Q302.38 1545.82 305.991 1545.82 Q309.626 1545.82 311.431 1542.27 Q313.26 1538.71 313.26 1531.6 Q313.26 1524.47 311.431 1520.93 Q309.626 1517.37 305.991 1517.37 M305.991 1513.66 Q311.801 1513.66 314.857 1518.27 Q317.936 1522.85 317.936 1531.6 Q317.936 1540.33 314.857 1544.94 Q311.801 1549.52 305.991 1549.52 Q300.181 1549.52 297.102 1544.94 Q294.047 1540.33 294.047 1531.6 Q294.047 1522.85 297.102 1518.27 Q300.181 1513.66 305.991 1513.66 Z" fill="#000000" fill-rule="nonzero" fill-opacity="1" /><path clip-path="url(#clip780)" d="M763.535 1517.37 Q759.923 1517.37 758.095 1520.93 Q756.289 1524.47 756.289 1531.6 Q756.289 1538.71 758.095 1542.27 Q759.923 1545.82 763.535 1545.82 Q767.169 1545.82 768.974 1542.27 Q770.803 1538.71 770.803 1531.6 Q770.803 1524.47 768.974 1520.93 Q767.169 1517.37 763.535 1517.37 M763.535 1513.66 Q769.345 1513.66 772.4 1518.27 Q775.479 1522.85 775.479 1531.6 Q775.479 1540.33 772.4 1544.94 Q769.345 1549.52 763.535 1549.52 Q757.724 1549.52 754.646 1544.94 Q751.59 1540.33 751.59 1531.6 Q751.59 1522.85 754.646 1518.27 Q757.724 1513.66 763.535 1513.66 Z" fill="#000000" fill-rule="nonzero" fill-opacity="1" /><path clip-path="url(#clip780)" d="M783.696 1542.97 L788.581 1542.97 L788.581 1548.85 L783.696 1548.85 L783.696 1542.97 Z" fill="#000000" fill-rule="nonzero" fill-opacity="1" /><path clip-path="url(#clip780)" d="M798.812 1514.29 L817.168 1514.29 L817.168 1518.22 L803.094 1518.22 L803.094 1526.7 Q804.113 1526.35 805.132 1526.19 Q806.15 1526 807.169 1526 Q812.956 1526 816.335 1529.17 Q819.715 1532.34 819.715 1537.76 Q819.715 1543.34 816.243 1546.44 Q812.77 1549.52 806.451 1549.52 Q804.275 1549.52 802.007 1549.15 Q799.761 1548.78 797.354 1548.04 L797.354 1543.34 Q799.437 1544.47 801.659 1545.03 Q803.882 1545.58 806.358 1545.58 Q810.363 1545.58 812.701 1543.48 Q815.039 1541.37 815.039 1537.76 Q815.039 1534.15 812.701 1532.04 Q810.363 1529.94 806.358 1529.94 Q804.483 1529.94 802.608 1530.35 Q800.757 1530.77 798.812 1531.65 L798.812 1514.29 Z" fill="#000000" fill-rule="nonzero" fill-opacity="1" /><path clip-path="url(#clip780)" d="M1255.08 1544.91 L1262.72 1544.91 L1262.72 1518.55 L1254.41 1520.21 L1254.41 1515.95 L1262.67 1514.29 L1267.35 1514.29 L1267.35 1544.91 L1274.99 1544.91 L1274.99 1548.85 L1255.08 1548.85 L1255.08 1544.91 Z" fill="#000000" fill-rule="nonzero" fill-opacity="1" /><path clip-path="url(#clip780)" d="M1284.43 1542.97 L1289.32 1542.97 L1289.32 1548.85 L1284.43 1548.85 L1284.43 1542.97 Z" fill="#000000" fill-rule="nonzero" fill-opacity="1" /><path clip-path="url(#clip780)" d="M1309.5 1517.37 Q1305.89 1517.37 1304.06 1520.93 Q1302.26 1524.47 1302.26 1531.6 Q1302.26 1538.71 1304.06 1542.27 Q1305.89 1545.82 1309.5 1545.82 Q1313.14 1545.82 1314.94 1542.27 Q1316.77 1538.71 1316.77 1531.6 Q1316.77 1524.47 1314.94 1520.93 Q1313.14 1517.37 1309.5 1517.37 M1309.5 1513.66 Q1315.31 1513.66 1318.37 1518.27 Q1321.45 1522.85 1321.45 1531.6 Q1321.45 1540.33 1318.37 1544.94 Q1315.31 1549.52 1309.5 1549.52 Q1303.69 1549.52 1300.61 1544.94 Q1297.56 1540.33 1297.56 1531.6 Q1297.56 1522.85 1300.61 1518.27 Q1303.69 1513.66 1309.5 1513.66 Z" fill="#000000" fill-rule="nonzero" fill-opacity="1" /><path clip-path="url(#clip780)" d="M1757.86 1544.91 L1765.5 1544.91 L1765.5 1518.55 L1757.19 1520.21 L1757.19 1515.95 L1765.45 1514.29 L1770.13 1514.29 L1770.13 1544.91 L1777.76 1544.91 L1777.76 1548.85 L1757.86 1548.85 L1757.86 1544.91 Z" fill="#000000" fill-rule="nonzero" fill-opacity="1" /><path clip-path="url(#clip780)" d="M1787.21 1542.97 L1792.09 1542.97 L1792.09 1548.85 L1787.21 1548.85 L1787.21 1542.97 Z" fill="#000000" fill-rule="nonzero" fill-opacity="1" /><path clip-path="url(#clip780)" d="M1802.32 1514.29 L1820.68 1514.29 L1820.68 1518.22 L1806.61 1518.22 L1806.61 1526.7 Q1807.62 1526.35 1808.64 1526.19 Q1809.66 1526 1810.68 1526 Q1816.47 1526 1819.85 1529.17 Q1823.23 1532.34 1823.23 1537.76 Q1823.23 1543.34 1819.75 1546.44 Q1816.28 1549.52 1809.96 1549.52 Q1807.79 1549.52 1805.52 1549.15 Q1803.27 1548.78 1800.87 1548.04 L1800.87 1543.34 Q1802.95 1544.47 1805.17 1545.03 Q1807.39 1545.58 1809.87 1545.58 Q1813.87 1545.58 1816.21 1543.48 Q1818.55 1541.37 1818.55 1537.76 Q1818.55 1534.15 1816.21 1532.04 Q1813.87 1529.94 1809.87 1529.94 Q1808 1529.94 1806.12 1530.35 Q1804.27 1530.77 1802.32 1531.65 L1802.32 1514.29 Z" fill="#000000" fill-rule="nonzero" fill-opacity="1" /><path clip-path="url(#clip780)" d="M2263.72 1544.91 L2280.04 1544.91 L2280.04 1548.85 L2258.1 1548.85 L2258.1 1544.91 Q2260.76 1542.16 2265.34 1537.53 Q2269.95 1532.88 2271.13 1531.53 Q2273.37 1529.01 2274.25 1527.27 Q2275.16 1525.51 2275.16 1523.82 Q2275.16 1521.07 2273.21 1519.33 Q2271.29 1517.6 2268.19 1517.6 Q2265.99 1517.6 2263.54 1518.36 Q2261.11 1519.13 2258.33 1520.68 L2258.33 1515.95 Q2261.15 1514.82 2263.61 1514.24 Q2266.06 1513.66 2268.1 1513.66 Q2273.47 1513.66 2276.66 1516.35 Q2279.86 1519.03 2279.86 1523.52 Q2279.86 1525.65 2279.05 1527.57 Q2278.26 1529.47 2276.15 1532.07 Q2275.57 1532.74 2272.47 1535.95 Q2269.37 1539.15 2263.72 1544.91 Z" fill="#000000" fill-rule="nonzero" fill-opacity="1" /><path clip-path="url(#clip780)" d="M2289.86 1542.97 L2294.74 1542.97 L2294.74 1548.85 L2289.86 1548.85 L2289.86 1542.97 Z" fill="#000000" fill-rule="nonzero" fill-opacity="1" /><path clip-path="url(#clip780)" d="M2314.92 1517.37 Q2311.31 1517.37 2309.48 1520.93 Q2307.68 1524.47 2307.68 1531.6 Q2307.68 1538.71 2309.48 1542.27 Q2311.31 1545.82 2314.92 1545.82 Q2318.56 1545.82 2320.36 1542.27 Q2322.19 1538.71 2322.19 1531.6 Q2322.19 1524.47 2320.36 1520.93 Q2318.56 1517.37 2314.92 1517.37 M2314.92 1513.66 Q2320.73 1513.66 2323.79 1518.27 Q2326.87 1522.85 2326.87 1531.6 Q2326.87 1540.33 2323.79 1544.94 Q2320.73 1549.52 2314.92 1549.52 Q2309.11 1549.52 2306.04 1544.94 Q2302.98 1540.33 2302.98 1531.6 Q2302.98 1522.85 2306.04 1518.27 Q2309.11 1513.66 2314.92 1513.66 Z" fill="#000000" fill-rule="nonzero" fill-opacity="1" /><polyline clip-path="url(#clip782)" style="stroke:#000000; stroke-linecap:round; stroke-linejoin:round; stroke-width:2; stroke-opacity:0.1; fill:none" points="223.103,1430.58 2352.76,1430.58 "/>
<polyline clip-path="url(#clip782)" style="stroke:#000000; stroke-linecap:round; stroke-linejoin:round; stroke-width:2; stroke-opacity:0.1; fill:none" points="223.103,1211.98 2352.76,1211.98 "/>
<polyline clip-path="url(#clip782)" style="stroke:#000000; stroke-linecap:round; stroke-linejoin:round; stroke-width:2; stroke-opacity:0.1; fill:none" points="223.103,993.377 2352.76,993.377 "/>
<polyline clip-path="url(#clip782)" style="stroke:#000000; stroke-linecap:round; stroke-linejoin:round; stroke-width:2; stroke-opacity:0.1; fill:none" points="223.103,774.777 2352.76,774.777 "/>
<polyline clip-path="url(#clip782)" style="stroke:#000000; stroke-linecap:round; stroke-linejoin:round; stroke-width:2; stroke-opacity:0.1; fill:none" points="223.103,556.178 2352.76,556.178 "/>
<polyline clip-path="url(#clip782)" style="stroke:#000000; stroke-linecap:round; stroke-linejoin:round; stroke-width:2; stroke-opacity:0.1; fill:none" points="223.103,337.578 2352.76,337.578 "/>
<polyline clip-path="url(#clip782)" style="stroke:#000000; stroke-linecap:round; stroke-linejoin:round; stroke-width:2; stroke-opacity:0.1; fill:none" points="223.103,118.978 2352.76,118.978 "/>
<polyline clip-path="url(#clip780)" style="stroke:#000000; stroke-linecap:round; stroke-linejoin:round; stroke-width:4; stroke-opacity:1; fill:none" points="223.103,1486.45 223.103,47.2441 "/>
<polyline clip-path="url(#clip780)" style="stroke:#000000; stroke-linecap:round; stroke-linejoin:round; stroke-width:4; stroke-opacity:1; fill:none" points="223.103,1430.58 242,1430.58 "/>
<polyline clip-path="url(#clip780)" style="stroke:#000000; stroke-linecap:round; stroke-linejoin:round; stroke-width:4; stroke-opacity:1; fill:none" points="223.103,1211.98 242,1211.98 "/>
<polyline clip-path="url(#clip780)" style="stroke:#000000; stroke-linecap:round; stroke-linejoin:round; stroke-width:4; stroke-opacity:1; fill:none" points="223.103,993.377 242,993.377 "/>
<polyline clip-path="url(#clip780)" style="stroke:#000000; stroke-linecap:round; stroke-linejoin:round; stroke-width:4; stroke-opacity:1; fill:none" points="223.103,774.777 242,774.777 "/>
<polyline clip-path="url(#clip780)" style="stroke:#000000; stroke-linecap:round; stroke-linejoin:round; stroke-width:4; stroke-opacity:1; fill:none" points="223.103,556.178 242,556.178 "/>
<polyline clip-path="url(#clip780)" style="stroke:#000000; stroke-linecap:round; stroke-linejoin:round; stroke-width:4; stroke-opacity:1; fill:none" points="223.103,337.578 242,337.578 "/>
<polyline clip-path="url(#clip780)" style="stroke:#000000; stroke-linecap:round; stroke-linejoin:round; stroke-width:4; stroke-opacity:1; fill:none" points="223.103,118.978 242,118.978 "/>
<path clip-path="url(#clip780)" d="M50.9921 1431.03 L80.6679 1431.03 L80.6679 1434.96 L50.9921 1434.96 L50.9921 1431.03 Z" fill="#000000" fill-rule="nonzero" fill-opacity="1" /><path clip-path="url(#clip780)" d="M100.76 1416.38 Q97.1493 1416.38 95.3206 1419.94 Q93.515 1423.48 93.515 1430.61 Q93.515 1437.72 95.3206 1441.28 Q97.1493 1444.82 100.76 1444.82 Q104.395 1444.82 106.2 1441.28 Q108.029 1437.72 108.029 1430.61 Q108.029 1423.48 106.2 1419.94 Q104.395 1416.38 100.76 1416.38 M100.76 1412.67 Q106.571 1412.67 109.626 1417.28 Q112.705 1421.86 112.705 1430.61 Q112.705 1439.34 109.626 1443.94 Q106.571 1448.53 100.76 1448.53 Q94.9502 1448.53 91.8715 1443.94 Q88.816 1439.34 88.816 1430.61 Q88.816 1421.86 91.8715 1417.28 Q94.9502 1412.67 100.76 1412.67 Z" fill="#000000" fill-rule="nonzero" fill-opacity="1" /><path clip-path="url(#clip780)" d="M120.922 1441.98 L125.807 1441.98 L125.807 1447.86 L120.922 1447.86 L120.922 1441.98 Z" fill="#000000" fill-rule="nonzero" fill-opacity="1" /><path clip-path="url(#clip780)" d="M145.992 1416.38 Q142.381 1416.38 140.552 1419.94 Q138.746 1423.48 138.746 1430.61 Q138.746 1437.72 140.552 1441.28 Q142.381 1444.82 145.992 1444.82 Q149.626 1444.82 151.431 1441.28 Q153.26 1437.72 153.26 1430.61 Q153.26 1423.48 151.431 1419.94 Q149.626 1416.38 145.992 1416.38 M145.992 1412.67 Q151.802 1412.67 154.857 1417.28 Q157.936 1421.86 157.936 1430.61 Q157.936 1439.34 154.857 1443.94 Q151.802 1448.53 145.992 1448.53 Q140.181 1448.53 137.103 1443.94 Q134.047 1439.34 134.047 1430.61 Q134.047 1421.86 137.103 1417.28 Q140.181 1412.67 145.992 1412.67 Z" fill="#000000" fill-rule="nonzero" fill-opacity="1" /><path clip-path="url(#clip780)" d="M166.2 1413.3 L184.556 1413.3 L184.556 1417.23 L170.482 1417.23 L170.482 1425.7 Q171.501 1425.36 172.519 1425.19 Q173.538 1425.01 174.556 1425.01 Q180.343 1425.01 183.723 1428.18 Q187.103 1431.35 187.103 1436.77 Q187.103 1442.35 183.63 1445.45 Q180.158 1448.53 173.839 1448.53 Q171.663 1448.53 169.394 1448.16 Q167.149 1447.79 164.742 1447.05 L164.742 1442.35 Q166.825 1443.48 169.047 1444.04 Q171.269 1444.59 173.746 1444.59 Q177.751 1444.59 180.089 1442.49 Q182.427 1440.38 182.427 1436.77 Q182.427 1433.16 180.089 1431.05 Q177.751 1428.94 173.746 1428.94 Q171.871 1428.94 169.996 1429.36 Q168.144 1429.78 166.2 1430.66 L166.2 1413.3 Z" fill="#000000" fill-rule="nonzero" fill-opacity="1" /><path clip-path="url(#clip780)" d="M99.765 1197.78 Q96.1539 1197.78 94.3252 1201.34 Q92.5197 1204.88 92.5197 1212.01 Q92.5197 1219.12 94.3252 1222.68 Q96.1539 1226.22 99.765 1226.22 Q103.399 1226.22 105.205 1222.68 Q107.033 1219.12 107.033 1212.01 Q107.033 1204.88 105.205 1201.34 Q103.399 1197.78 99.765 1197.78 M99.765 1194.07 Q105.575 1194.07 108.631 1198.68 Q111.709 1203.26 111.709 1212.01 Q111.709 1220.74 108.631 1225.34 Q105.575 1229.93 99.765 1229.93 Q93.9549 1229.93 90.8762 1225.34 Q87.8206 1220.74 87.8206 1212.01 Q87.8206 1203.26 90.8762 1198.68 Q93.9549 1194.07 99.765 1194.07 Z" fill="#000000" fill-rule="nonzero" fill-opacity="1" /><path clip-path="url(#clip780)" d="M119.927 1223.38 L124.811 1223.38 L124.811 1229.26 L119.927 1229.26 L119.927 1223.38 Z" fill="#000000" fill-rule="nonzero" fill-opacity="1" /><path clip-path="url(#clip780)" d="M144.996 1197.78 Q141.385 1197.78 139.556 1201.34 Q137.751 1204.88 137.751 1212.01 Q137.751 1219.12 139.556 1222.68 Q141.385 1226.22 144.996 1226.22 Q148.63 1226.22 150.436 1222.68 Q152.265 1219.12 152.265 1212.01 Q152.265 1204.88 150.436 1201.34 Q148.63 1197.78 144.996 1197.78 M144.996 1194.07 Q150.806 1194.07 153.862 1198.68 Q156.941 1203.26 156.941 1212.01 Q156.941 1220.74 153.862 1225.34 Q150.806 1229.93 144.996 1229.93 Q139.186 1229.93 136.107 1225.34 Q133.052 1220.74 133.052 1212.01 Q133.052 1203.26 136.107 1198.68 Q139.186 1194.07 144.996 1194.07 Z" fill="#000000" fill-rule="nonzero" fill-opacity="1" /><path clip-path="url(#clip780)" d="M175.158 1197.78 Q171.547 1197.78 169.718 1201.34 Q167.913 1204.88 167.913 1212.01 Q167.913 1219.12 169.718 1222.68 Q171.547 1226.22 175.158 1226.22 Q178.792 1226.22 180.598 1222.68 Q182.427 1219.12 182.427 1212.01 Q182.427 1204.88 180.598 1201.34 Q178.792 1197.78 175.158 1197.78 M175.158 1194.07 Q180.968 1194.07 184.024 1198.68 Q187.103 1203.26 187.103 1212.01 Q187.103 1220.74 184.024 1225.34 Q180.968 1229.93 175.158 1229.93 Q169.348 1229.93 166.269 1225.34 Q163.214 1220.74 163.214 1212.01 Q163.214 1203.26 166.269 1198.68 Q169.348 1194.07 175.158 1194.07 Z" fill="#000000" fill-rule="nonzero" fill-opacity="1" /><path clip-path="url(#clip780)" d="M100.76 979.176 Q97.1493 979.176 95.3206 982.741 Q93.515 986.282 93.515 993.412 Q93.515 1000.52 95.3206 1004.08 Q97.1493 1007.62 100.76 1007.62 Q104.395 1007.62 106.2 1004.08 Q108.029 1000.52 108.029 993.412 Q108.029 986.282 106.2 982.741 Q104.395 979.176 100.76 979.176 M100.76 975.472 Q106.571 975.472 109.626 980.079 Q112.705 984.662 112.705 993.412 Q112.705 1002.14 109.626 1006.75 Q106.571 1011.33 100.76 1011.33 Q94.9502 1011.33 91.8715 1006.75 Q88.816 1002.14 88.816 993.412 Q88.816 984.662 91.8715 980.079 Q94.9502 975.472 100.76 975.472 Z" fill="#000000" fill-rule="nonzero" fill-opacity="1" /><path clip-path="url(#clip780)" d="M120.922 1004.78 L125.807 1004.78 L125.807 1010.66 L120.922 1010.66 L120.922 1004.78 Z" fill="#000000" fill-rule="nonzero" fill-opacity="1" /><path clip-path="url(#clip780)" d="M145.992 979.176 Q142.381 979.176 140.552 982.741 Q138.746 986.282 138.746 993.412 Q138.746 1000.52 140.552 1004.08 Q142.381 1007.62 145.992 1007.62 Q149.626 1007.62 151.431 1004.08 Q153.26 1000.52 153.26 993.412 Q153.26 986.282 151.431 982.741 Q149.626 979.176 145.992 979.176 M145.992 975.472 Q151.802 975.472 154.857 980.079 Q157.936 984.662 157.936 993.412 Q157.936 1002.14 154.857 1006.75 Q151.802 1011.33 145.992 1011.33 Q140.181 1011.33 137.103 1006.75 Q134.047 1002.14 134.047 993.412 Q134.047 984.662 137.103 980.079 Q140.181 975.472 145.992 975.472 Z" fill="#000000" fill-rule="nonzero" fill-opacity="1" /><path clip-path="url(#clip780)" d="M166.2 976.097 L184.556 976.097 L184.556 980.032 L170.482 980.032 L170.482 988.504 Q171.501 988.157 172.519 987.995 Q173.538 987.81 174.556 987.81 Q180.343 987.81 183.723 990.981 Q187.103 994.153 187.103 999.569 Q187.103 1005.15 183.63 1008.25 Q180.158 1011.33 173.839 1011.33 Q171.663 1011.33 169.394 1010.96 Q167.149 1010.59 164.742 1009.85 L164.742 1005.15 Q166.825 1006.28 169.047 1006.84 Q171.269 1007.39 173.746 1007.39 Q177.751 1007.39 180.089 1005.29 Q182.427 1003.18 182.427 999.569 Q182.427 995.958 180.089 993.852 Q177.751 991.745 173.746 991.745 Q171.871 991.745 169.996 992.162 Q168.144 992.579 166.2 993.458 L166.2 976.097 Z" fill="#000000" fill-rule="nonzero" fill-opacity="1" /><path clip-path="url(#clip780)" d="M99.765 760.576 Q96.1539 760.576 94.3252 764.141 Q92.5197 767.682 92.5197 774.812 Q92.5197 781.919 94.3252 785.483 Q96.1539 789.025 99.765 789.025 Q103.399 789.025 105.205 785.483 Q107.033 781.919 107.033 774.812 Q107.033 767.682 105.205 764.141 Q103.399 760.576 99.765 760.576 M99.765 756.872 Q105.575 756.872 108.631 761.479 Q111.709 766.062 111.709 774.812 Q111.709 783.539 108.631 788.145 Q105.575 792.729 99.765 792.729 Q93.9549 792.729 90.8762 788.145 Q87.8206 783.539 87.8206 774.812 Q87.8206 766.062 90.8762 761.479 Q93.9549 756.872 99.765 756.872 Z" fill="#000000" fill-rule="nonzero" fill-opacity="1" /><path clip-path="url(#clip780)" d="M119.927 786.178 L124.811 786.178 L124.811 792.057 L119.927 792.057 L119.927 786.178 Z" fill="#000000" fill-rule="nonzero" fill-opacity="1" /><path clip-path="url(#clip780)" d="M135.806 788.122 L143.445 788.122 L143.445 761.757 L135.135 763.423 L135.135 759.164 L143.399 757.497 L148.075 757.497 L148.075 788.122 L155.714 788.122 L155.714 792.057 L135.806 792.057 L135.806 788.122 Z" fill="#000000" fill-rule="nonzero" fill-opacity="1" /><path clip-path="url(#clip780)" d="M175.158 760.576 Q171.547 760.576 169.718 764.141 Q167.913 767.682 167.913 774.812 Q167.913 781.919 169.718 785.483 Q171.547 789.025 175.158 789.025 Q178.792 789.025 180.598 785.483 Q182.427 781.919 182.427 774.812 Q182.427 767.682 180.598 764.141 Q178.792 760.576 175.158 760.576 M175.158 756.872 Q180.968 756.872 184.024 761.479 Q187.103 766.062 187.103 774.812 Q187.103 783.539 184.024 788.145 Q180.968 792.729 175.158 792.729 Q169.348 792.729 166.269 788.145 Q163.214 783.539 163.214 774.812 Q163.214 766.062 166.269 761.479 Q169.348 756.872 175.158 756.872 Z" fill="#000000" fill-rule="nonzero" fill-opacity="1" /><path clip-path="url(#clip780)" d="M100.76 541.976 Q97.1493 541.976 95.3206 545.541 Q93.515 549.083 93.515 556.212 Q93.515 563.319 95.3206 566.883 Q97.1493 570.425 100.76 570.425 Q104.395 570.425 106.2 566.883 Q108.029 563.319 108.029 556.212 Q108.029 549.083 106.2 545.541 Q104.395 541.976 100.76 541.976 M100.76 538.273 Q106.571 538.273 109.626 542.879 Q112.705 547.462 112.705 556.212 Q112.705 564.939 109.626 569.546 Q106.571 574.129 100.76 574.129 Q94.9502 574.129 91.8715 569.546 Q88.816 564.939 88.816 556.212 Q88.816 547.462 91.8715 542.879 Q94.9502 538.273 100.76 538.273 Z" fill="#000000" fill-rule="nonzero" fill-opacity="1" /><path clip-path="url(#clip780)" d="M120.922 567.578 L125.807 567.578 L125.807 573.458 L120.922 573.458 L120.922 567.578 Z" fill="#000000" fill-rule="nonzero" fill-opacity="1" /><path clip-path="url(#clip780)" d="M136.802 569.522 L144.441 569.522 L144.441 543.157 L136.131 544.823 L136.131 540.564 L144.394 538.898 L149.07 538.898 L149.07 569.522 L156.709 569.522 L156.709 573.458 L136.802 573.458 L136.802 569.522 Z" fill="#000000" fill-rule="nonzero" fill-opacity="1" /><path clip-path="url(#clip780)" d="M166.2 538.898 L184.556 538.898 L184.556 542.833 L170.482 542.833 L170.482 551.305 Q171.501 550.958 172.519 550.796 Q173.538 550.61 174.556 550.61 Q180.343 550.61 183.723 553.782 Q187.103 556.953 187.103 562.37 Q187.103 567.948 183.63 571.05 Q180.158 574.129 173.839 574.129 Q171.663 574.129 169.394 573.758 Q167.149 573.388 164.742 572.647 L164.742 567.948 Q166.825 569.083 169.047 569.638 Q171.269 570.194 173.746 570.194 Q177.751 570.194 180.089 568.087 Q182.427 565.981 182.427 562.37 Q182.427 558.759 180.089 556.652 Q177.751 554.546 173.746 554.546 Q171.871 554.546 169.996 554.962 Q168.144 555.379 166.2 556.259 L166.2 538.898 Z" fill="#000000" fill-rule="nonzero" fill-opacity="1" /><path clip-path="url(#clip780)" d="M99.765 323.376 Q96.1539 323.376 94.3252 326.941 Q92.5197 330.483 92.5197 337.612 Q92.5197 344.719 94.3252 348.284 Q96.1539 351.825 99.765 351.825 Q103.399 351.825 105.205 348.284 Q107.033 344.719 107.033 337.612 Q107.033 330.483 105.205 326.941 Q103.399 323.376 99.765 323.376 M99.765 319.673 Q105.575 319.673 108.631 324.279 Q111.709 328.862 111.709 337.612 Q111.709 346.339 108.631 350.946 Q105.575 355.529 99.765 355.529 Q93.9549 355.529 90.8762 350.946 Q87.8206 346.339 87.8206 337.612 Q87.8206 328.862 90.8762 324.279 Q93.9549 319.673 99.765 319.673 Z" fill="#000000" fill-rule="nonzero" fill-opacity="1" /><path clip-path="url(#clip780)" d="M119.927 348.978 L124.811 348.978 L124.811 354.858 L119.927 354.858 L119.927 348.978 Z" fill="#000000" fill-rule="nonzero" fill-opacity="1" /><path clip-path="url(#clip780)" d="M139.024 350.923 L155.343 350.923 L155.343 354.858 L133.399 354.858 L133.399 350.923 Q136.061 348.168 140.644 343.538 Q145.251 338.886 146.431 337.543 Q148.677 335.02 149.556 333.284 Q150.459 331.525 150.459 329.835 Q150.459 327.08 148.515 325.344 Q146.593 323.608 143.492 323.608 Q141.293 323.608 138.839 324.372 Q136.408 325.136 133.631 326.687 L133.631 321.964 Q136.455 320.83 138.908 320.251 Q141.362 319.673 143.399 319.673 Q148.769 319.673 151.964 322.358 Q155.158 325.043 155.158 329.534 Q155.158 331.663 154.348 333.585 Q153.561 335.483 151.455 338.075 Q150.876 338.747 147.774 341.964 Q144.672 345.159 139.024 350.923 Z" fill="#000000" fill-rule="nonzero" fill-opacity="1" /><path clip-path="url(#clip780)" d="M175.158 323.376 Q171.547 323.376 169.718 326.941 Q167.913 330.483 167.913 337.612 Q167.913 344.719 169.718 348.284 Q171.547 351.825 175.158 351.825 Q178.792 351.825 180.598 348.284 Q182.427 344.719 182.427 337.612 Q182.427 330.483 180.598 326.941 Q178.792 323.376 175.158 323.376 M175.158 319.673 Q180.968 319.673 184.024 324.279 Q187.103 328.862 187.103 337.612 Q187.103 346.339 184.024 350.946 Q180.968 355.529 175.158 355.529 Q169.348 355.529 166.269 350.946 Q163.214 346.339 163.214 337.612 Q163.214 328.862 166.269 324.279 Q169.348 319.673 175.158 319.673 Z" fill="#000000" fill-rule="nonzero" fill-opacity="1" /><path clip-path="url(#clip780)" d="M100.76 104.777 Q97.1493 104.777 95.3206 108.341 Q93.515 111.883 93.515 119.013 Q93.515 126.119 95.3206 129.684 Q97.1493 133.226 100.76 133.226 Q104.395 133.226 106.2 129.684 Q108.029 126.119 108.029 119.013 Q108.029 111.883 106.2 108.341 Q104.395 104.777 100.76 104.777 M100.76 101.073 Q106.571 101.073 109.626 105.679 Q112.705 110.263 112.705 119.013 Q112.705 127.739 109.626 132.346 Q106.571 136.929 100.76 136.929 Q94.9502 136.929 91.8715 132.346 Q88.816 127.739 88.816 119.013 Q88.816 110.263 91.8715 105.679 Q94.9502 101.073 100.76 101.073 Z" fill="#000000" fill-rule="nonzero" fill-opacity="1" /><path clip-path="url(#clip780)" d="M120.922 130.378 L125.807 130.378 L125.807 136.258 L120.922 136.258 L120.922 130.378 Z" fill="#000000" fill-rule="nonzero" fill-opacity="1" /><path clip-path="url(#clip780)" d="M140.019 132.323 L156.339 132.323 L156.339 136.258 L134.394 136.258 L134.394 132.323 Q137.056 129.568 141.64 124.939 Q146.246 120.286 147.427 118.943 Q149.672 116.42 150.552 114.684 Q151.455 112.925 151.455 111.235 Q151.455 108.48 149.51 106.744 Q147.589 105.008 144.487 105.008 Q142.288 105.008 139.834 105.772 Q137.404 106.536 134.626 108.087 L134.626 103.365 Q137.45 102.23 139.904 101.652 Q142.357 101.073 144.394 101.073 Q149.765 101.073 152.959 103.758 Q156.154 106.443 156.154 110.934 Q156.154 113.064 155.343 114.985 Q154.556 116.883 152.45 119.476 Q151.871 120.147 148.769 123.364 Q145.668 126.559 140.019 132.323 Z" fill="#000000" fill-rule="nonzero" fill-opacity="1" /><path clip-path="url(#clip780)" d="M166.2 101.698 L184.556 101.698 L184.556 105.633 L170.482 105.633 L170.482 114.105 Q171.501 113.758 172.519 113.596 Q173.538 113.411 174.556 113.411 Q180.343 113.411 183.723 116.582 Q187.103 119.753 187.103 125.17 Q187.103 130.749 183.63 133.851 Q180.158 136.929 173.839 136.929 Q171.663 136.929 169.394 136.559 Q167.149 136.188 164.742 135.448 L164.742 130.749 Q166.825 131.883 169.047 132.438 Q171.269 132.994 173.746 132.994 Q177.751 132.994 180.089 130.888 Q182.427 128.781 182.427 125.17 Q182.427 121.559 180.089 119.452 Q177.751 117.346 173.746 117.346 Q171.871 117.346 169.996 117.763 Q168.144 118.179 166.2 119.059 L166.2 101.698 Z" fill="#000000" fill-rule="nonzero" fill-opacity="1" /><polyline clip-path="url(#clip782)" style="stroke:#009af9; stroke-linecap:round; stroke-linejoin:round; stroke-width:4; stroke-opacity:1; fill:none" points="283.376,1211.98 293.421,1168.69 303.467,1126.29 313.512,1084.77 323.558,1044.13 333.603,1004.38 343.649,965.526 353.694,927.559 363.74,890.484 373.786,854.302 383.831,819.014 393.877,784.62 403.922,751.118 413.968,718.507 424.013,686.786 434.059,655.954 444.104,626.007 454.15,596.944 464.195,568.76 474.241,541.453 484.286,515.018 494.332,489.452 504.377,464.749 514.423,440.906 524.469,417.917 534.514,395.776 544.56,374.477 554.605,354.015 564.651,334.382 574.696,315.573 584.742,297.58 594.787,280.395 604.833,264.013 614.878,248.423 624.924,233.62 634.969,219.594 645.015,206.337 655.061,193.84 665.106,182.095 675.152,171.092 685.197,160.822 695.243,151.276 705.288,142.444 715.334,134.316 725.379,126.883 735.425,120.134 745.47,114.059 755.516,108.648 765.561,103.89 775.607,99.7748 785.652,96.2917 795.698,93.4299 805.744,91.1785 815.789,89.5265 825.835,88.4628 835.88,87.9763 845.926,88.0558 855.971,88.6901 866.017,89.8679 876.062,91.5779 886.108,93.8086 896.153,96.5486 906.199,99.7865 916.244,103.511 926.29,107.71 936.335,112.373 946.381,117.488 956.427,123.043 966.472,129.027 976.518,135.429 986.563,142.237 996.609,149.44 1006.65,157.026 1016.7,164.984 1026.75,173.303 1036.79,181.971 1046.84,190.978 1056.88,200.311 1066.93,209.961 1076.97,219.915 1087.02,230.164 1097.06,240.695 1107.11,251.499 1117.16,262.564 1127.2,273.88 1137.25,285.437 1147.29,297.223 1157.34,309.228 1167.38,321.443 1177.43,333.857 1187.47,346.46 1197.52,359.241 1207.56,372.192 1217.61,385.302 1227.66,398.561 1237.7,411.961 1247.75,425.491 1257.79,439.142 1267.84,452.906 1277.88,466.773 1287.93,480.735 1297.97,494.782 1308.02,508.905 1318.07,523.098 1328.11,537.35 1338.16,551.654 1348.2,566.001 1358.25,580.384 1368.29,594.795 1378.34,609.226 1388.38,623.67 1398.43,638.119 1408.48,652.566 1418.52,667.004 1428.57,681.425 1438.61,695.824 1448.66,710.193 1458.7,724.526 1468.75,738.817 1478.79,753.058 1488.84,767.245 1498.89,781.371 1508.93,795.431 1518.98,809.418 1529.02,823.328 1539.07,837.154 1549.11,850.893 1559.16,864.538 1569.2,878.085 1579.25,891.529 1589.3,904.865 1599.34,918.089 1609.39,931.197 1619.43,944.184 1629.48,957.047 1639.52,969.781 1649.57,982.383 1659.61,994.849 1669.66,1007.18 1679.71,1019.36 1689.75,1031.4 1699.8,1043.29 1709.84,1055.02 1719.89,1066.61 1729.93,1078.03 1739.98,1089.3 1750.02,1100.4 1760.07,1111.34 1770.11,1122.11 1780.16,1132.71 1790.21,1143.14 1800.25,1153.4 1810.3,1163.49 1820.34,1173.4 1830.39,1183.13 1840.43,1192.68 1850.48,1202.06 1860.52,1211.25 1870.57,1220.26 1880.62,1229.09 1890.66,1237.74 1900.71,1246.2 1910.75,1254.48 1920.8,1262.57 1930.84,1270.48 1940.89,1278.2 1950.93,1285.74 1960.98,1293.09 1971.03,1300.25 1981.07,1307.23 1991.12,1314.03 2001.16,1320.64 2011.21,1327.06 2021.25,1333.3 2031.3,1339.36 2041.34,1345.23 2051.39,1350.92 2061.44,1356.43 2071.48,1361.76 2081.53,1366.91 2091.57,1371.88 2101.62,1376.67 2111.66,1381.29 2121.71,1385.73 2131.75,1390 2141.8,1394.09 2151.85,1398.02 2161.89,1401.77 2171.94,1405.36 2181.98,1408.77 2192.03,1412.03 2202.07,1415.12 2212.12,1418.05 2222.16,1420.82 2232.21,1423.43 2242.26,1425.88 2252.3,1428.18 2262.35,1430.33 2272.39,1432.32 2282.44,1434.17 2292.48,1435.87 "/>
<polyline clip-path="url(#clip782)" style="stroke:#e26f46; stroke-linecap:round; stroke-linejoin:round; stroke-width:4; stroke-opacity:1; fill:none" points="283.376,1214.31 293.421,1170.21 303.467,1127.12 313.512,1085.03 323.558,1043.95 333.603,1003.89 343.649,964.834 353.694,926.788 363.74,889.743 373.786,853.692 383.831,818.626 393.877,784.535 403.922,751.409 413.968,719.236 424.013,688.004 434.059,657.7 444.104,628.313 454.15,599.828 464.195,572.232 474.241,545.514 484.286,519.661 494.332,494.659 504.377,470.498 514.423,447.165 524.469,424.649 534.514,402.94 544.56,382.027 554.605,361.9 564.651,342.551 574.696,323.97 584.742,306.148 594.787,289.079 604.833,272.755 614.878,257.168 624.924,242.313 634.969,228.183 645.015,214.771 655.061,202.073 665.106,190.082 675.152,178.794 685.197,168.202 695.243,158.303 705.288,149.091 715.334,140.561 725.379,132.707 735.425,125.525 745.47,119.009 755.516,113.153 765.561,107.952 775.607,103.399 785.652,99.4891 795.698,96.2146 805.744,93.5689 815.789,91.5448 825.835,90.1344 835.88,89.33 845.926,89.1229 855.971,89.5046 866.017,90.4658 876.062,91.9969 886.108,94.088 896.153,96.7287 906.199,99.9084 916.244,103.616 926.29,107.84 936.335,112.568 946.381,117.789 956.427,123.49 966.472,129.659 976.518,136.282 986.563,143.346 996.609,150.839 1006.65,158.746 1016.7,167.053 1026.75,175.748 1036.79,184.815 1046.84,194.241 1056.88,204.012 1066.93,214.114 1076.97,224.532 1087.02,235.252 1097.06,246.261 1107.11,257.544 1117.16,269.086 1127.2,280.876 1137.25,292.898 1147.29,305.139 1157.34,317.585 1167.38,330.224 1177.43,343.043 1187.47,356.028 1197.52,369.167 1207.56,382.447 1217.61,395.857 1227.66,409.384 1237.7,423.017 1247.75,436.745 1257.79,450.556 1267.84,464.439 1277.88,478.385 1287.93,492.383 1297.97,506.423 1308.02,520.495 1318.07,534.591 1328.11,548.701 1338.16,562.817 1348.2,576.93 1358.25,591.031 1368.29,605.115 1378.34,619.172 1388.38,633.196 1398.43,647.18 1408.48,661.117 1418.52,675.001 1428.57,688.827 1438.61,702.587 1448.66,716.277 1458.7,729.892 1468.75,743.427 1478.79,756.877 1488.84,770.237 1498.89,783.504 1508.93,796.673 1518.98,809.741 1529.02,822.705 1539.07,835.56 1549.11,848.305 1559.16,860.936 1569.2,873.45 1579.25,885.846 1589.3,898.121 1599.34,910.272 1609.39,922.299 1619.43,934.198 1629.48,945.97 1639.52,957.612 1649.57,969.123 1659.61,980.501 1669.66,991.747 1679.71,1002.86 1689.75,1013.84 1699.8,1024.68 1709.84,1035.39 1719.89,1045.96 1729.93,1056.39 1739.98,1066.69 1750.02,1076.86 1760.07,1086.89 1770.11,1096.78 1780.16,1106.53 1790.21,1116.15 1800.25,1125.64 1810.3,1134.99 1820.34,1144.21 1830.39,1153.29 1840.43,1162.24 1850.48,1171.06 1860.52,1179.75 1870.57,1188.31 1880.62,1196.74 1890.66,1205.04 1900.71,1213.22 1910.75,1221.27 1920.8,1229.19 1930.84,1236.99 1940.89,1244.66 1950.93,1252.22 1960.98,1259.65 1971.03,1266.96 1981.07,1274.16 1991.12,1281.24 2001.16,1288.2 2011.21,1295.05 2021.25,1301.78 2031.3,1308.4 2041.34,1314.91 2051.39,1321.32 2061.44,1327.61 2071.48,1333.8 2081.53,1339.88 2091.57,1345.86 2101.62,1351.74 2111.66,1357.52 2121.71,1363.19 2131.75,1368.77 2141.8,1374.25 2151.85,1379.63 2161.89,1384.92 2171.94,1390.12 2181.98,1395.23 2192.03,1400.24 2202.07,1405.17 2212.12,1410.01 2222.16,1414.76 2232.21,1419.43 2242.26,1424.01 2252.3,1428.51 2262.35,1432.93 2272.39,1437.27 2282.44,1441.53 2292.48,1445.72 "/>
<path clip-path="url(#clip780)" d="M1632.21 250.738 L2281.77 250.738 L2281.77 95.2176 L1632.21 95.2176  Z" fill="#ffffff" fill-rule="evenodd" fill-opacity="1"/>
<polyline clip-path="url(#clip780)" style="stroke:#000000; stroke-linecap:round; stroke-linejoin:round; stroke-width:4; stroke-opacity:1; fill:none" points="1632.21,250.738 2281.77,250.738 2281.77,95.2176 1632.21,95.2176 1632.21,250.738 "/>
<polyline clip-path="url(#clip780)" style="stroke:#009af9; stroke-linecap:round; stroke-linejoin:round; stroke-width:4; stroke-opacity:1; fill:none" points="1655.87,147.058 1797.85,147.058 "/>
<path clip-path="url(#clip780)" d="M1837.34 134.384 L1831 151.583 L1843.71 151.583 L1837.34 134.384 M1834.7 129.778 L1840.01 129.778 L1853.18 164.338 L1848.32 164.338 L1845.17 155.472 L1829.59 155.472 L1826.44 164.338 L1821.51 164.338 L1834.7 129.778 Z" fill="#000000" fill-rule="nonzero" fill-opacity="1" /><path clip-path="url(#clip780)" d="M1879.59 148.689 L1879.59 164.338 L1875.33 164.338 L1875.33 148.828 Q1875.33 145.148 1873.89 143.319 Q1872.46 141.49 1869.59 141.49 Q1866.14 141.49 1864.15 143.69 Q1862.16 145.889 1862.16 149.685 L1862.16 164.338 L1857.88 164.338 L1857.88 138.412 L1862.16 138.412 L1862.16 142.44 Q1863.69 140.102 1865.75 138.944 Q1867.83 137.787 1870.54 137.787 Q1875 137.787 1877.3 140.565 Q1879.59 143.319 1879.59 148.689 Z" fill="#000000" fill-rule="nonzero" fill-opacity="1" /><path clip-path="url(#clip780)" d="M1899.87 151.305 Q1894.7 151.305 1892.71 152.486 Q1890.72 153.666 1890.72 156.514 Q1890.72 158.782 1892.2 160.125 Q1893.71 161.444 1896.28 161.444 Q1899.82 161.444 1901.95 158.944 Q1904.1 156.421 1904.1 152.254 L1904.1 151.305 L1899.87 151.305 M1908.36 149.546 L1908.36 164.338 L1904.1 164.338 L1904.1 160.402 Q1902.64 162.763 1900.47 163.898 Q1898.29 165.009 1895.14 165.009 Q1891.16 165.009 1888.8 162.787 Q1886.46 160.541 1886.46 156.791 Q1886.46 152.416 1889.38 150.194 Q1892.32 147.972 1898.13 147.972 L1904.1 147.972 L1904.1 147.555 Q1904.1 144.615 1902.16 143.018 Q1900.24 141.398 1896.74 141.398 Q1894.52 141.398 1892.41 141.93 Q1890.31 142.463 1888.36 143.527 L1888.36 139.592 Q1890.7 138.69 1892.9 138.25 Q1895.1 137.787 1897.18 137.787 Q1902.81 137.787 1905.58 140.703 Q1908.36 143.62 1908.36 149.546 Z" fill="#000000" fill-rule="nonzero" fill-opacity="1" /><path clip-path="url(#clip780)" d="M1917.13 128.319 L1921.39 128.319 L1921.39 164.338 L1917.13 164.338 L1917.13 128.319 Z" fill="#000000" fill-rule="nonzero" fill-opacity="1" /><path clip-path="url(#clip780)" d="M1941.09 166.745 Q1939.29 171.375 1937.57 172.787 Q1935.86 174.199 1932.99 174.199 L1929.59 174.199 L1929.59 170.634 L1932.09 170.634 Q1933.85 170.634 1934.82 169.8 Q1935.79 168.967 1936.97 165.865 L1937.74 163.921 L1927.25 138.412 L1931.76 138.412 L1939.87 158.689 L1947.97 138.412 L1952.48 138.412 L1941.09 166.745 Z" fill="#000000" fill-rule="nonzero" fill-opacity="1" /><path clip-path="url(#clip780)" d="M1962.57 131.051 L1962.57 138.412 L1971.35 138.412 L1971.35 141.722 L1962.57 141.722 L1962.57 155.796 Q1962.57 158.967 1963.43 159.87 Q1964.31 160.773 1966.97 160.773 L1971.35 160.773 L1971.35 164.338 L1966.97 164.338 Q1962.04 164.338 1960.17 162.509 Q1958.29 160.657 1958.29 155.796 L1958.29 141.722 L1955.17 141.722 L1955.17 138.412 L1958.29 138.412 L1958.29 131.051 L1962.57 131.051 Z" fill="#000000" fill-rule="nonzero" fill-opacity="1" /><path clip-path="url(#clip780)" d="M1976.95 138.412 L1981.21 138.412 L1981.21 164.338 L1976.95 164.338 L1976.95 138.412 M1976.95 128.319 L1981.21 128.319 L1981.21 133.713 L1976.95 133.713 L1976.95 128.319 Z" fill="#000000" fill-rule="nonzero" fill-opacity="1" /><path clip-path="url(#clip780)" d="M2008.78 139.407 L2008.78 143.389 Q2006.97 142.393 2005.14 141.907 Q2003.34 141.398 2001.49 141.398 Q1997.34 141.398 1995.05 144.037 Q1992.76 146.652 1992.76 151.398 Q1992.76 156.143 1995.05 158.782 Q1997.34 161.398 2001.49 161.398 Q2003.34 161.398 2005.14 160.912 Q2006.97 160.402 2008.78 159.407 L2008.78 163.342 Q2006.99 164.176 2005.07 164.592 Q2003.18 165.009 2001.02 165.009 Q1995.17 165.009 1991.72 161.328 Q1988.27 157.648 1988.27 151.398 Q1988.27 145.055 1991.74 141.421 Q1995.24 137.787 2001.3 137.787 Q2003.27 137.787 2005.14 138.203 Q2007.02 138.597 2008.78 139.407 Z" fill="#000000" fill-rule="nonzero" fill-opacity="1" /><path clip-path="url(#clip780)" d="M2027.97 151.305 Q2022.8 151.305 2020.81 152.486 Q2018.82 153.666 2018.82 156.514 Q2018.82 158.782 2020.3 160.125 Q2021.81 161.444 2024.38 161.444 Q2027.92 161.444 2030.05 158.944 Q2032.2 156.421 2032.2 152.254 L2032.2 151.305 L2027.97 151.305 M2036.46 149.546 L2036.46 164.338 L2032.2 164.338 L2032.2 160.402 Q2030.74 162.763 2028.57 163.898 Q2026.39 165.009 2023.24 165.009 Q2019.26 165.009 2016.9 162.787 Q2014.56 160.541 2014.56 156.791 Q2014.56 152.416 2017.48 150.194 Q2020.42 147.972 2026.23 147.972 L2032.2 147.972 L2032.2 147.555 Q2032.2 144.615 2030.26 143.018 Q2028.34 141.398 2024.84 141.398 Q2022.62 141.398 2020.51 141.93 Q2018.41 142.463 2016.46 143.527 L2016.46 139.592 Q2018.8 138.69 2021 138.25 Q2023.2 137.787 2025.28 137.787 Q2030.91 137.787 2033.68 140.703 Q2036.46 143.62 2036.46 149.546 Z" fill="#000000" fill-rule="nonzero" fill-opacity="1" /><path clip-path="url(#clip780)" d="M2045.24 128.319 L2049.49 128.319 L2049.49 164.338 L2045.24 164.338 L2045.24 128.319 Z" fill="#000000" fill-rule="nonzero" fill-opacity="1" /><path clip-path="url(#clip780)" d="M2094.38 130.912 L2094.38 135.472 Q2091.72 134.199 2089.36 133.574 Q2086.99 132.949 2084.8 132.949 Q2080.98 132.949 2078.89 134.43 Q2076.83 135.912 2076.83 138.643 Q2076.83 140.935 2078.2 142.115 Q2079.59 143.273 2083.43 143.99 L2086.25 144.569 Q2091.49 145.565 2093.96 148.088 Q2096.46 150.588 2096.46 154.801 Q2096.46 159.824 2093.08 162.416 Q2089.73 165.009 2083.22 165.009 Q2080.77 165.009 2077.99 164.453 Q2075.24 163.898 2072.27 162.81 L2072.27 157.995 Q2075.12 159.592 2077.85 160.402 Q2080.58 161.213 2083.22 161.213 Q2087.23 161.213 2089.4 159.639 Q2091.58 158.064 2091.58 155.148 Q2091.58 152.602 2090 151.166 Q2088.45 149.731 2084.89 149.014 L2082.04 148.458 Q2076.81 147.416 2074.47 145.194 Q2072.13 142.972 2072.13 139.014 Q2072.13 134.43 2075.35 131.791 Q2078.59 129.153 2084.26 129.153 Q2086.69 129.153 2089.22 129.592 Q2091.74 130.032 2094.38 130.912 Z" fill="#000000" fill-rule="nonzero" fill-opacity="1" /><path clip-path="url(#clip780)" d="M2113.61 141.398 Q2110.19 141.398 2108.2 144.083 Q2106.21 146.745 2106.21 151.398 Q2106.21 156.051 2108.17 158.736 Q2110.17 161.398 2113.61 161.398 Q2117.02 161.398 2119.01 158.713 Q2121 156.027 2121 151.398 Q2121 146.791 2119.01 144.106 Q2117.02 141.398 2113.61 141.398 M2113.61 137.787 Q2119.17 137.787 2122.34 141.398 Q2125.51 145.009 2125.51 151.398 Q2125.51 157.764 2122.34 161.398 Q2119.17 165.009 2113.61 165.009 Q2108.04 165.009 2104.86 161.398 Q2101.72 157.764 2101.72 151.398 Q2101.72 145.009 2104.86 141.398 Q2108.04 137.787 2113.61 137.787 Z" fill="#000000" fill-rule="nonzero" fill-opacity="1" /><path clip-path="url(#clip780)" d="M2132.57 128.319 L2136.83 128.319 L2136.83 164.338 L2132.57 164.338 L2132.57 128.319 Z" fill="#000000" fill-rule="nonzero" fill-opacity="1" /><path clip-path="url(#clip780)" d="M2145.3 154.106 L2145.3 138.412 L2149.56 138.412 L2149.56 153.944 Q2149.56 157.625 2151 159.476 Q2152.43 161.305 2155.3 161.305 Q2158.75 161.305 2160.74 159.106 Q2162.76 156.907 2162.76 153.111 L2162.76 138.412 L2167.02 138.412 L2167.02 164.338 L2162.76 164.338 L2162.76 160.356 Q2161.21 162.717 2159.15 163.875 Q2157.11 165.009 2154.4 165.009 Q2149.93 165.009 2147.62 162.231 Q2145.3 159.453 2145.3 154.106 M2156.02 137.787 L2156.02 137.787 Z" fill="#000000" fill-rule="nonzero" fill-opacity="1" /><path clip-path="url(#clip780)" d="M2180 131.051 L2180 138.412 L2188.78 138.412 L2188.78 141.722 L2180 141.722 L2180 155.796 Q2180 158.967 2180.86 159.87 Q2181.74 160.773 2184.4 160.773 L2188.78 160.773 L2188.78 164.338 L2184.4 164.338 Q2179.47 164.338 2177.6 162.509 Q2175.72 160.657 2175.72 155.796 L2175.72 141.722 L2172.6 141.722 L2172.6 138.412 L2175.72 138.412 L2175.72 131.051 L2180 131.051 Z" fill="#000000" fill-rule="nonzero" fill-opacity="1" /><path clip-path="url(#clip780)" d="M2194.38 138.412 L2198.64 138.412 L2198.64 164.338 L2194.38 164.338 L2194.38 138.412 M2194.38 128.319 L2198.64 128.319 L2198.64 133.713 L2194.38 133.713 L2194.38 128.319 Z" fill="#000000" fill-rule="nonzero" fill-opacity="1" /><path clip-path="url(#clip780)" d="M2217.6 141.398 Q2214.17 141.398 2212.18 144.083 Q2210.19 146.745 2210.19 151.398 Q2210.19 156.051 2212.16 158.736 Q2214.15 161.398 2217.6 161.398 Q2221 161.398 2222.99 158.713 Q2224.98 156.027 2224.98 151.398 Q2224.98 146.791 2222.99 144.106 Q2221 141.398 2217.6 141.398 M2217.6 137.787 Q2223.15 137.787 2226.32 141.398 Q2229.49 145.009 2229.49 151.398 Q2229.49 157.764 2226.32 161.398 Q2223.15 165.009 2217.6 165.009 Q2212.02 165.009 2208.85 161.398 Q2205.7 157.764 2205.7 151.398 Q2205.7 145.009 2208.85 141.398 Q2212.02 137.787 2217.6 137.787 Z" fill="#000000" fill-rule="nonzero" fill-opacity="1" /><path clip-path="url(#clip780)" d="M2258.1 148.689 L2258.1 164.338 L2253.85 164.338 L2253.85 148.828 Q2253.85 145.148 2252.41 143.319 Q2250.98 141.49 2248.1 141.49 Q2244.66 141.49 2242.66 143.69 Q2240.67 145.889 2240.67 149.685 L2240.67 164.338 L2236.39 164.338 L2236.39 138.412 L2240.67 138.412 L2240.67 142.44 Q2242.2 140.102 2244.26 138.944 Q2246.35 137.787 2249.05 137.787 Q2253.52 137.787 2255.81 140.565 Q2258.1 143.319 2258.1 148.689 Z" fill="#000000" fill-rule="nonzero" fill-opacity="1" /><polyline clip-path="url(#clip780)" style="stroke:#e26f46; stroke-linecap:round; stroke-linejoin:round; stroke-width:4; stroke-opacity:1; fill:none" points="1655.87,198.898 1797.85,198.898 "/>
<path clip-path="url(#clip780)" d="M1826.19 185.46 L1826.19 198.446 L1832.07 198.446 Q1835.33 198.446 1837.11 196.756 Q1838.89 195.067 1838.89 191.942 Q1838.89 188.84 1837.11 187.15 Q1835.33 185.46 1832.07 185.46 L1826.19 185.46 M1821.51 181.618 L1832.07 181.618 Q1837.88 181.618 1840.84 184.256 Q1843.82 186.872 1843.82 191.942 Q1843.82 197.057 1840.84 199.673 Q1837.88 202.289 1832.07 202.289 L1826.19 202.289 L1826.19 216.178 L1821.51 216.178 L1821.51 181.618 Z" fill="#000000" fill-rule="nonzero" fill-opacity="1" /><path clip-path="url(#clip780)" d="M1850.1 181.618 L1854.77 181.618 L1854.77 216.178 L1850.1 216.178 L1850.1 181.618 Z" fill="#000000" fill-rule="nonzero" fill-opacity="1" /><path clip-path="url(#clip780)" d="M1864.08 181.618 L1870.38 181.618 L1885.7 210.529 L1885.7 181.618 L1890.24 181.618 L1890.24 216.178 L1883.94 216.178 L1868.62 187.266 L1868.62 216.178 L1864.08 216.178 L1864.08 181.618 Z" fill="#000000" fill-rule="nonzero" fill-opacity="1" /><path clip-path="url(#clip780)" d="M1899.54 181.618 L1905.84 181.618 L1921.16 210.529 L1921.16 181.618 L1925.7 181.618 L1925.7 216.178 L1919.4 216.178 L1904.08 187.266 L1904.08 216.178 L1899.54 216.178 L1899.54 181.618 Z" fill="#000000" fill-rule="nonzero" fill-opacity="1" /><path clip-path="url(#clip780)" d="M1970.79 182.752 L1970.79 187.312 Q1968.13 186.039 1965.77 185.414 Q1963.41 184.789 1961.21 184.789 Q1957.39 184.789 1955.31 186.27 Q1953.25 187.752 1953.25 190.483 Q1953.25 192.775 1954.61 193.955 Q1956 195.113 1959.84 195.83 L1962.67 196.409 Q1967.9 197.405 1970.37 199.928 Q1972.87 202.428 1972.87 206.641 Q1972.87 211.664 1969.5 214.256 Q1966.14 216.849 1959.63 216.849 Q1957.18 216.849 1954.4 216.293 Q1951.65 215.738 1948.69 214.65 L1948.69 209.835 Q1951.53 211.432 1954.26 212.242 Q1957 213.053 1959.63 213.053 Q1963.64 213.053 1965.81 211.479 Q1967.99 209.904 1967.99 206.988 Q1967.99 204.442 1966.42 203.006 Q1964.87 201.571 1961.3 200.854 L1958.45 200.298 Q1953.22 199.256 1950.88 197.034 Q1948.55 194.812 1948.55 190.854 Q1948.55 186.27 1951.76 183.631 Q1955 180.993 1960.68 180.993 Q1963.11 180.993 1965.63 181.432 Q1968.15 181.872 1970.79 182.752 Z" fill="#000000" fill-rule="nonzero" fill-opacity="1" /><path clip-path="url(#clip780)" d="M1990.03 193.238 Q1986.6 193.238 1984.61 195.923 Q1982.62 198.585 1982.62 203.238 Q1982.62 207.891 1984.59 210.576 Q1986.58 213.238 1990.03 213.238 Q1993.43 213.238 1995.42 210.553 Q1997.41 207.867 1997.41 203.238 Q1997.41 198.631 1995.42 195.946 Q1993.43 193.238 1990.03 193.238 M1990.03 189.627 Q1995.58 189.627 1998.75 193.238 Q2001.93 196.849 2001.93 203.238 Q2001.93 209.604 1998.75 213.238 Q1995.58 216.849 1990.03 216.849 Q1984.45 216.849 1981.28 213.238 Q1978.13 209.604 1978.13 203.238 Q1978.13 196.849 1981.28 193.238 Q1984.45 189.627 1990.03 189.627 Z" fill="#000000" fill-rule="nonzero" fill-opacity="1" /><path clip-path="url(#clip780)" d="M2008.99 180.159 L2013.24 180.159 L2013.24 216.178 L2008.99 216.178 L2008.99 180.159 Z" fill="#000000" fill-rule="nonzero" fill-opacity="1" /><path clip-path="url(#clip780)" d="M2021.72 205.946 L2021.72 190.252 L2025.98 190.252 L2025.98 205.784 Q2025.98 209.465 2027.41 211.316 Q2028.85 213.145 2031.72 213.145 Q2035.17 213.145 2037.16 210.946 Q2039.17 208.747 2039.17 204.951 L2039.17 190.252 L2043.43 190.252 L2043.43 216.178 L2039.17 216.178 L2039.17 212.196 Q2037.62 214.557 2035.56 215.715 Q2033.52 216.849 2030.81 216.849 Q2026.35 216.849 2024.03 214.071 Q2021.72 211.293 2021.72 205.946 M2032.43 189.627 L2032.43 189.627 Z" fill="#000000" fill-rule="nonzero" fill-opacity="1" /><path clip-path="url(#clip780)" d="M2056.42 182.891 L2056.42 190.252 L2065.19 190.252 L2065.19 193.562 L2056.42 193.562 L2056.42 207.636 Q2056.42 210.807 2057.27 211.71 Q2058.15 212.613 2060.81 212.613 L2065.19 212.613 L2065.19 216.178 L2060.81 216.178 Q2055.88 216.178 2054.01 214.349 Q2052.13 212.497 2052.13 207.636 L2052.13 193.562 L2049.01 193.562 L2049.01 190.252 L2052.13 190.252 L2052.13 182.891 L2056.42 182.891 Z" fill="#000000" fill-rule="nonzero" fill-opacity="1" /><path clip-path="url(#clip780)" d="M2070.79 190.252 L2075.05 190.252 L2075.05 216.178 L2070.79 216.178 L2070.79 190.252 M2070.79 180.159 L2075.05 180.159 L2075.05 185.553 L2070.79 185.553 L2070.79 180.159 Z" fill="#000000" fill-rule="nonzero" fill-opacity="1" /><path clip-path="url(#clip780)" d="M2094.01 193.238 Q2090.58 193.238 2088.59 195.923 Q2086.6 198.585 2086.6 203.238 Q2086.6 207.891 2088.57 210.576 Q2090.56 213.238 2094.01 213.238 Q2097.41 213.238 2099.4 210.553 Q2101.39 207.867 2101.39 203.238 Q2101.39 198.631 2099.4 195.946 Q2097.41 193.238 2094.01 193.238 M2094.01 189.627 Q2099.56 189.627 2102.74 193.238 Q2105.91 196.849 2105.91 203.238 Q2105.91 209.604 2102.74 213.238 Q2099.56 216.849 2094.01 216.849 Q2088.43 216.849 2085.26 213.238 Q2082.11 209.604 2082.11 203.238 Q2082.11 196.849 2085.26 193.238 Q2088.43 189.627 2094.01 189.627 Z" fill="#000000" fill-rule="nonzero" fill-opacity="1" /><path clip-path="url(#clip780)" d="M2134.52 200.529 L2134.52 216.178 L2130.26 216.178 L2130.26 200.668 Q2130.26 196.988 2128.82 195.159 Q2127.39 193.33 2124.52 193.33 Q2121.07 193.33 2119.08 195.53 Q2117.09 197.729 2117.09 201.525 L2117.09 216.178 L2112.8 216.178 L2112.8 190.252 L2117.09 190.252 L2117.09 194.28 Q2118.61 191.942 2120.67 190.784 Q2122.76 189.627 2125.47 189.627 Q2129.93 189.627 2132.23 192.405 Q2134.52 195.159 2134.52 200.529 Z" fill="#000000" fill-rule="nonzero" fill-opacity="1" /></svg>
