<?xml version="1.0" encoding="utf-8"?>
<svg xmlns="http://www.w3.org/2000/svg" xmlns:xlink="http://www.w3.org/1999/xlink" width="600" height="400" viewBox="0 0 2400 1600">
<defs>
  <clipPath id="clip650">
    <rect x="0" y="0" width="2400" height="1600"/>
  </clipPath>
</defs>
<path clip-path="url(#clip650)" d="M0 1600 L2400 1600 L2400 0 L0 0  Z" fill="#ffffff" fill-rule="evenodd" fill-opacity="1"/>
<defs>
  <clipPath id="clip651">
    <rect x="480" y="0" width="1681" height="1600"/>
  </clipPath>
</defs>
<path clip-path="url(#clip650)" d="M224.098 686.448 L1152.76 686.448 L1152.76 123.472 L224.098 123.472  Z" fill="#ffffff" fill-rule="evenodd" fill-opacity="1"/>
<defs>
  <clipPath id="clip652">
    <rect x="224" y="123" width="930" height="564"/>
  </clipPath>
</defs>
<polyline clip-path="url(#clip652)" style="stroke:#000000; stroke-linecap:round; stroke-linejoin:round; stroke-width:2; stroke-opacity:0.1; fill:none" points="250.381,686.448 250.381,123.472 "/>
<polyline clip-path="url(#clip652)" style="stroke:#000000; stroke-linecap:round; stroke-linejoin:round; stroke-width:2; stroke-opacity:0.1; fill:none" points="469.404,686.448 469.404,123.472 "/>
<polyline clip-path="url(#clip652)" style="stroke:#000000; stroke-linecap:round; stroke-linejoin:round; stroke-width:2; stroke-opacity:0.1; fill:none" points="688.427,686.448 688.427,123.472 "/>
<polyline clip-path="url(#clip652)" style="stroke:#000000; stroke-linecap:round; stroke-linejoin:round; stroke-width:2; stroke-opacity:0.1; fill:none" points="907.45,686.448 907.45,123.472 "/>
<polyline clip-path="url(#clip652)" style="stroke:#000000; stroke-linecap:round; stroke-linejoin:round; stroke-width:2; stroke-opacity:0.1; fill:none" points="1126.47,686.448 1126.47,123.472 "/>
<polyline clip-path="url(#clip650)" style="stroke:#000000; stroke-linecap:round; stroke-linejoin:round; stroke-width:4; stroke-opacity:1; fill:none" points="224.098,686.448 1152.76,686.448 "/>
<polyline clip-path="url(#clip650)" style="stroke:#000000; stroke-linecap:round; stroke-linejoin:round; stroke-width:4; stroke-opacity:1; fill:none" points="250.381,686.448 250.381,667.55 "/>
<polyline clip-path="url(#clip650)" style="stroke:#000000; stroke-linecap:round; stroke-linejoin:round; stroke-width:4; stroke-opacity:1; fill:none" points="469.404,686.448 469.404,667.55 "/>
<polyline clip-path="url(#clip650)" style="stroke:#000000; stroke-linecap:round; stroke-linejoin:round; stroke-width:4; stroke-opacity:1; fill:none" points="688.427,686.448 688.427,667.55 "/>
<polyline clip-path="url(#clip650)" style="stroke:#000000; stroke-linecap:round; stroke-linejoin:round; stroke-width:4; stroke-opacity:1; fill:none" points="907.45,686.448 907.45,667.55 "/>
<polyline clip-path="url(#clip650)" style="stroke:#000000; stroke-linecap:round; stroke-linejoin:round; stroke-width:4; stroke-opacity:1; fill:none" points="1126.47,686.448 1126.47,667.55 "/>
<path clip-path="url(#clip650)" d="M196.909 732.019 L226.584 732.019 L226.584 735.954 L196.909 735.954 L196.909 732.019 Z" fill="#000000" fill-rule="nonzero" fill-opacity="1" /><path clip-path="url(#clip650)" d="M237.487 744.913 L245.126 744.913 L245.126 718.547 L236.816 720.214 L236.816 715.955 L245.08 714.288 L249.756 714.288 L249.756 744.913 L257.394 744.913 L257.394 748.848 L237.487 748.848 L237.487 744.913 Z" fill="#000000" fill-rule="nonzero" fill-opacity="1" /><path clip-path="url(#clip650)" d="M266.839 742.968 L271.723 742.968 L271.723 748.848 L266.839 748.848 L266.839 742.968 Z" fill="#000000" fill-rule="nonzero" fill-opacity="1" /><path clip-path="url(#clip650)" d="M291.908 717.367 Q288.297 717.367 286.468 720.931 Q284.663 724.473 284.663 731.603 Q284.663 738.709 286.468 742.274 Q288.297 745.815 291.908 745.815 Q295.542 745.815 297.348 742.274 Q299.177 738.709 299.177 731.603 Q299.177 724.473 297.348 720.931 Q295.542 717.367 291.908 717.367 M291.908 713.663 Q297.718 713.663 300.774 718.269 Q303.853 722.853 303.853 731.603 Q303.853 740.329 300.774 744.936 Q297.718 749.519 291.908 749.519 Q286.098 749.519 283.019 744.936 Q279.964 740.329 279.964 731.603 Q279.964 722.853 283.019 718.269 Q286.098 713.663 291.908 713.663 Z" fill="#000000" fill-rule="nonzero" fill-opacity="1" /><path clip-path="url(#clip650)" d="M416.43 732.019 L446.105 732.019 L446.105 735.954 L416.43 735.954 L416.43 732.019 Z" fill="#000000" fill-rule="nonzero" fill-opacity="1" /><path clip-path="url(#clip650)" d="M466.198 717.367 Q462.587 717.367 460.758 720.931 Q458.952 724.473 458.952 731.603 Q458.952 738.709 460.758 742.274 Q462.587 745.815 466.198 745.815 Q469.832 745.815 471.638 742.274 Q473.466 738.709 473.466 731.603 Q473.466 724.473 471.638 720.931 Q469.832 717.367 466.198 717.367 M466.198 713.663 Q472.008 713.663 475.063 718.269 Q478.142 722.853 478.142 731.603 Q478.142 740.329 475.063 744.936 Q472.008 749.519 466.198 749.519 Q460.388 749.519 457.309 744.936 Q454.253 740.329 454.253 731.603 Q454.253 722.853 457.309 718.269 Q460.388 713.663 466.198 713.663 Z" fill="#000000" fill-rule="nonzero" fill-opacity="1" /><path clip-path="url(#clip650)" d="M486.36 742.968 L491.244 742.968 L491.244 748.848 L486.36 748.848 L486.36 742.968 Z" fill="#000000" fill-rule="nonzero" fill-opacity="1" /><path clip-path="url(#clip650)" d="M501.475 714.288 L519.832 714.288 L519.832 718.223 L505.758 718.223 L505.758 726.695 Q506.776 726.348 507.795 726.186 Q508.813 726.001 509.832 726.001 Q515.619 726.001 518.998 729.172 Q522.378 732.343 522.378 737.76 Q522.378 743.339 518.906 746.44 Q515.434 749.519 509.114 749.519 Q506.938 749.519 504.67 749.149 Q502.424 748.778 500.017 748.038 L500.017 743.339 Q502.1 744.473 504.323 745.028 Q506.545 745.584 509.022 745.584 Q513.026 745.584 515.364 743.478 Q517.702 741.371 517.702 737.76 Q517.702 734.149 515.364 732.042 Q513.026 729.936 509.022 729.936 Q507.147 729.936 505.272 730.353 Q503.42 730.769 501.475 731.649 L501.475 714.288 Z" fill="#000000" fill-rule="nonzero" fill-opacity="1" /><path clip-path="url(#clip650)" d="M665.811 717.367 Q662.2 717.367 660.371 720.931 Q658.566 724.473 658.566 731.603 Q658.566 738.709 660.371 742.274 Q662.2 745.815 665.811 745.815 Q669.446 745.815 671.251 742.274 Q673.08 738.709 673.08 731.603 Q673.08 724.473 671.251 720.931 Q669.446 717.367 665.811 717.367 M665.811 713.663 Q671.621 713.663 674.677 718.269 Q677.756 722.853 677.756 731.603 Q677.756 740.329 674.677 744.936 Q671.621 749.519 665.811 749.519 Q660.001 749.519 656.922 744.936 Q653.867 740.329 653.867 731.603 Q653.867 722.853 656.922 718.269 Q660.001 713.663 665.811 713.663 Z" fill="#000000" fill-rule="nonzero" fill-opacity="1" /><path clip-path="url(#clip650)" d="M685.973 742.968 L690.857 742.968 L690.857 748.848 L685.973 748.848 L685.973 742.968 Z" fill="#000000" fill-rule="nonzero" fill-opacity="1" /><path clip-path="url(#clip650)" d="M711.043 717.367 Q707.431 717.367 705.603 720.931 Q703.797 724.473 703.797 731.603 Q703.797 738.709 705.603 742.274 Q707.431 745.815 711.043 745.815 Q714.677 745.815 716.482 742.274 Q718.311 738.709 718.311 731.603 Q718.311 724.473 716.482 720.931 Q714.677 717.367 711.043 717.367 M711.043 713.663 Q716.853 713.663 719.908 718.269 Q722.987 722.853 722.987 731.603 Q722.987 740.329 719.908 744.936 Q716.853 749.519 711.043 749.519 Q705.232 749.519 702.154 744.936 Q699.098 740.329 699.098 731.603 Q699.098 722.853 702.154 718.269 Q705.232 713.663 711.043 713.663 Z" fill="#000000" fill-rule="nonzero" fill-opacity="1" /><path clip-path="url(#clip650)" d="M885.332 717.367 Q881.721 717.367 879.892 720.931 Q878.087 724.473 878.087 731.603 Q878.087 738.709 879.892 742.274 Q881.721 745.815 885.332 745.815 Q888.966 745.815 890.772 742.274 Q892.601 738.709 892.601 731.603 Q892.601 724.473 890.772 720.931 Q888.966 717.367 885.332 717.367 M885.332 713.663 Q891.142 713.663 894.198 718.269 Q897.276 722.853 897.276 731.603 Q897.276 740.329 894.198 744.936 Q891.142 749.519 885.332 749.519 Q879.522 749.519 876.443 744.936 Q873.388 740.329 873.388 731.603 Q873.388 722.853 876.443 718.269 Q879.522 713.663 885.332 713.663 Z" fill="#000000" fill-rule="nonzero" fill-opacity="1" /><path clip-path="url(#clip650)" d="M905.494 742.968 L910.378 742.968 L910.378 748.848 L905.494 748.848 L905.494 742.968 Z" fill="#000000" fill-rule="nonzero" fill-opacity="1" /><path clip-path="url(#clip650)" d="M920.61 714.288 L938.966 714.288 L938.966 718.223 L924.892 718.223 L924.892 726.695 Q925.911 726.348 926.929 726.186 Q927.948 726.001 928.966 726.001 Q934.753 726.001 938.133 729.172 Q941.512 732.343 941.512 737.76 Q941.512 743.339 938.04 746.44 Q934.568 749.519 928.249 749.519 Q926.073 749.519 923.804 749.149 Q921.559 748.778 919.151 748.038 L919.151 743.339 Q921.235 744.473 923.457 745.028 Q925.679 745.584 928.156 745.584 Q932.161 745.584 934.498 743.478 Q936.836 741.371 936.836 737.76 Q936.836 734.149 934.498 732.042 Q932.161 729.936 928.156 729.936 Q926.281 729.936 924.406 730.353 Q922.554 730.769 920.61 731.649 L920.61 714.288 Z" fill="#000000" fill-rule="nonzero" fill-opacity="1" /><path clip-path="url(#clip650)" d="M1093.63 744.913 L1101.26 744.913 L1101.26 718.547 L1092.95 720.214 L1092.95 715.955 L1101.22 714.288 L1105.89 714.288 L1105.89 744.913 L1113.53 744.913 L1113.53 748.848 L1093.63 748.848 L1093.63 744.913 Z" fill="#000000" fill-rule="nonzero" fill-opacity="1" /><path clip-path="url(#clip650)" d="M1122.98 742.968 L1127.86 742.968 L1127.86 748.848 L1122.98 748.848 L1122.98 742.968 Z" fill="#000000" fill-rule="nonzero" fill-opacity="1" /><path clip-path="url(#clip650)" d="M1148.05 717.367 Q1144.44 717.367 1142.61 720.931 Q1140.8 724.473 1140.8 731.603 Q1140.8 738.709 1142.61 742.274 Q1144.44 745.815 1148.05 745.815 Q1151.68 745.815 1153.49 742.274 Q1155.32 738.709 1155.32 731.603 Q1155.32 724.473 1153.49 720.931 Q1151.68 717.367 1148.05 717.367 M1148.05 713.663 Q1153.86 713.663 1156.91 718.269 Q1159.99 722.853 1159.99 731.603 Q1159.99 740.329 1156.91 744.936 Q1153.86 749.519 1148.05 749.519 Q1142.24 749.519 1139.16 744.936 Q1136.1 740.329 1136.1 731.603 Q1136.1 722.853 1139.16 718.269 Q1142.24 713.663 1148.05 713.663 Z" fill="#000000" fill-rule="nonzero" fill-opacity="1" /><polyline clip-path="url(#clip652)" style="stroke:#000000; stroke-linecap:round; stroke-linejoin:round; stroke-width:2; stroke-opacity:0.1; fill:none" points="224.098,655.507 1152.76,655.507 "/>
<polyline clip-path="url(#clip652)" style="stroke:#000000; stroke-linecap:round; stroke-linejoin:round; stroke-width:2; stroke-opacity:0.1; fill:none" points="224.098,578.004 1152.76,578.004 "/>
<polyline clip-path="url(#clip652)" style="stroke:#000000; stroke-linecap:round; stroke-linejoin:round; stroke-width:2; stroke-opacity:0.1; fill:none" points="224.098,500.502 1152.76,500.502 "/>
<polyline clip-path="url(#clip652)" style="stroke:#000000; stroke-linecap:round; stroke-linejoin:round; stroke-width:2; stroke-opacity:0.1; fill:none" points="224.098,422.999 1152.76,422.999 "/>
<polyline clip-path="url(#clip652)" style="stroke:#000000; stroke-linecap:round; stroke-linejoin:round; stroke-width:2; stroke-opacity:0.1; fill:none" points="224.098,345.497 1152.76,345.497 "/>
<polyline clip-path="url(#clip652)" style="stroke:#000000; stroke-linecap:round; stroke-linejoin:round; stroke-width:2; stroke-opacity:0.1; fill:none" points="224.098,267.995 1152.76,267.995 "/>
<polyline clip-path="url(#clip652)" style="stroke:#000000; stroke-linecap:round; stroke-linejoin:round; stroke-width:2; stroke-opacity:0.1; fill:none" points="224.098,190.492 1152.76,190.492 "/>
<polyline clip-path="url(#clip650)" style="stroke:#000000; stroke-linecap:round; stroke-linejoin:round; stroke-width:4; stroke-opacity:1; fill:none" points="224.098,686.448 224.098,123.472 "/>
<polyline clip-path="url(#clip650)" style="stroke:#000000; stroke-linecap:round; stroke-linejoin:round; stroke-width:4; stroke-opacity:1; fill:none" points="224.098,655.507 242.996,655.507 "/>
<polyline clip-path="url(#clip650)" style="stroke:#000000; stroke-linecap:round; stroke-linejoin:round; stroke-width:4; stroke-opacity:1; fill:none" points="224.098,578.004 242.996,578.004 "/>
<polyline clip-path="url(#clip650)" style="stroke:#000000; stroke-linecap:round; stroke-linejoin:round; stroke-width:4; stroke-opacity:1; fill:none" points="224.098,500.502 242.996,500.502 "/>
<polyline clip-path="url(#clip650)" style="stroke:#000000; stroke-linecap:round; stroke-linejoin:round; stroke-width:4; stroke-opacity:1; fill:none" points="224.098,422.999 242.996,422.999 "/>
<polyline clip-path="url(#clip650)" style="stroke:#000000; stroke-linecap:round; stroke-linejoin:round; stroke-width:4; stroke-opacity:1; fill:none" points="224.098,345.497 242.996,345.497 "/>
<polyline clip-path="url(#clip650)" style="stroke:#000000; stroke-linecap:round; stroke-linejoin:round; stroke-width:4; stroke-opacity:1; fill:none" points="224.098,267.995 242.996,267.995 "/>
<polyline clip-path="url(#clip650)" style="stroke:#000000; stroke-linecap:round; stroke-linejoin:round; stroke-width:4; stroke-opacity:1; fill:none" points="224.098,190.492 242.996,190.492 "/>
<path clip-path="url(#clip650)" d="M51.9875 655.958 L81.6633 655.958 L81.6633 659.893 L51.9875 659.893 L51.9875 655.958 Z" fill="#000000" fill-rule="nonzero" fill-opacity="1" /><path clip-path="url(#clip650)" d="M101.756 641.305 Q98.1447 641.305 96.316 644.87 Q94.5104 648.412 94.5104 655.541 Q94.5104 662.648 96.316 666.213 Q98.1447 669.754 101.756 669.754 Q105.39 669.754 107.196 666.213 Q109.024 662.648 109.024 655.541 Q109.024 648.412 107.196 644.87 Q105.39 641.305 101.756 641.305 M101.756 637.602 Q107.566 637.602 110.621 642.208 Q113.7 646.791 113.7 655.541 Q113.7 664.268 110.621 668.875 Q107.566 673.458 101.756 673.458 Q95.9456 673.458 92.8669 668.875 Q89.8114 664.268 89.8114 655.541 Q89.8114 646.791 92.8669 642.208 Q95.9456 637.602 101.756 637.602 Z" fill="#000000" fill-rule="nonzero" fill-opacity="1" /><path clip-path="url(#clip650)" d="M121.918 666.907 L126.802 666.907 L126.802 672.787 L121.918 672.787 L121.918 666.907 Z" fill="#000000" fill-rule="nonzero" fill-opacity="1" /><path clip-path="url(#clip650)" d="M137.797 668.852 L145.436 668.852 L145.436 642.486 L137.126 644.153 L137.126 639.893 L145.39 638.227 L150.066 638.227 L150.066 668.852 L157.705 668.852 L157.705 672.787 L137.797 672.787 L137.797 668.852 Z" fill="#000000" fill-rule="nonzero" fill-opacity="1" /><path clip-path="url(#clip650)" d="M167.195 638.227 L185.552 638.227 L185.552 642.162 L171.478 642.162 L171.478 650.634 Q172.496 650.287 173.515 650.125 Q174.533 649.94 175.552 649.94 Q181.339 649.94 184.718 653.111 Q188.098 656.282 188.098 661.699 Q188.098 667.277 184.626 670.379 Q181.153 673.458 174.834 673.458 Q172.658 673.458 170.39 673.088 Q168.144 672.717 165.737 671.977 L165.737 667.277 Q167.82 668.412 170.042 668.967 Q172.265 669.523 174.741 669.523 Q178.746 669.523 181.084 667.416 Q183.422 665.31 183.422 661.699 Q183.422 658.088 181.084 655.981 Q178.746 653.875 174.741 653.875 Q172.866 653.875 170.991 654.291 Q169.14 654.708 167.195 655.588 L167.195 638.227 Z" fill="#000000" fill-rule="nonzero" fill-opacity="1" /><path clip-path="url(#clip650)" d="M50.9921 578.456 L80.6679 578.456 L80.6679 582.391 L50.9921 582.391 L50.9921 578.456 Z" fill="#000000" fill-rule="nonzero" fill-opacity="1" /><path clip-path="url(#clip650)" d="M100.76 563.803 Q97.1493 563.803 95.3206 567.368 Q93.515 570.909 93.515 578.039 Q93.515 585.145 95.3206 588.71 Q97.1493 592.252 100.76 592.252 Q104.395 592.252 106.2 588.71 Q108.029 585.145 108.029 578.039 Q108.029 570.909 106.2 567.368 Q104.395 563.803 100.76 563.803 M100.76 560.099 Q106.571 560.099 109.626 564.706 Q112.705 569.289 112.705 578.039 Q112.705 586.766 109.626 591.372 Q106.571 595.956 100.76 595.956 Q94.9502 595.956 91.8715 591.372 Q88.816 586.766 88.816 578.039 Q88.816 569.289 91.8715 564.706 Q94.9502 560.099 100.76 560.099 Z" fill="#000000" fill-rule="nonzero" fill-opacity="1" /><path clip-path="url(#clip650)" d="M120.922 589.405 L125.807 589.405 L125.807 595.284 L120.922 595.284 L120.922 589.405 Z" fill="#000000" fill-rule="nonzero" fill-opacity="1" /><path clip-path="url(#clip650)" d="M136.802 591.349 L144.441 591.349 L144.441 564.984 L136.131 566.65 L136.131 562.391 L144.394 560.724 L149.07 560.724 L149.07 591.349 L156.709 591.349 L156.709 595.284 L136.802 595.284 L136.802 591.349 Z" fill="#000000" fill-rule="nonzero" fill-opacity="1" /><path clip-path="url(#clip650)" d="M176.153 563.803 Q172.542 563.803 170.714 567.368 Q168.908 570.909 168.908 578.039 Q168.908 585.145 170.714 588.71 Q172.542 592.252 176.153 592.252 Q179.788 592.252 181.593 588.71 Q183.422 585.145 183.422 578.039 Q183.422 570.909 181.593 567.368 Q179.788 563.803 176.153 563.803 M176.153 560.099 Q181.964 560.099 185.019 564.706 Q188.098 569.289 188.098 578.039 Q188.098 586.766 185.019 591.372 Q181.964 595.956 176.153 595.956 Q170.343 595.956 167.265 591.372 Q164.209 586.766 164.209 578.039 Q164.209 569.289 167.265 564.706 Q170.343 560.099 176.153 560.099 Z" fill="#000000" fill-rule="nonzero" fill-opacity="1" /><path clip-path="url(#clip650)" d="M51.9875 500.953 L81.6633 500.953 L81.6633 504.888 L51.9875 504.888 L51.9875 500.953 Z" fill="#000000" fill-rule="nonzero" fill-opacity="1" /><path clip-path="url(#clip650)" d="M101.756 486.301 Q98.1447 486.301 96.316 489.865 Q94.5104 493.407 94.5104 500.537 Q94.5104 507.643 96.316 511.208 Q98.1447 514.749 101.756 514.749 Q105.39 514.749 107.196 511.208 Q109.024 507.643 109.024 500.537 Q109.024 493.407 107.196 489.865 Q105.39 486.301 101.756 486.301 M101.756 482.597 Q107.566 482.597 110.621 487.203 Q113.7 491.787 113.7 500.537 Q113.7 509.263 110.621 513.87 Q107.566 518.453 101.756 518.453 Q95.9456 518.453 92.8669 513.87 Q89.8114 509.263 89.8114 500.537 Q89.8114 491.787 92.8669 487.203 Q95.9456 482.597 101.756 482.597 Z" fill="#000000" fill-rule="nonzero" fill-opacity="1" /><path clip-path="url(#clip650)" d="M121.918 511.902 L126.802 511.902 L126.802 517.782 L121.918 517.782 L121.918 511.902 Z" fill="#000000" fill-rule="nonzero" fill-opacity="1" /><path clip-path="url(#clip650)" d="M146.987 486.301 Q143.376 486.301 141.547 489.865 Q139.742 493.407 139.742 500.537 Q139.742 507.643 141.547 511.208 Q143.376 514.749 146.987 514.749 Q150.621 514.749 152.427 511.208 Q154.255 507.643 154.255 500.537 Q154.255 493.407 152.427 489.865 Q150.621 486.301 146.987 486.301 M146.987 482.597 Q152.797 482.597 155.853 487.203 Q158.931 491.787 158.931 500.537 Q158.931 509.263 155.853 513.87 Q152.797 518.453 146.987 518.453 Q141.177 518.453 138.098 513.87 Q135.043 509.263 135.043 500.537 Q135.043 491.787 138.098 487.203 Q141.177 482.597 146.987 482.597 Z" fill="#000000" fill-rule="nonzero" fill-opacity="1" /><path clip-path="url(#clip650)" d="M167.195 483.222 L185.552 483.222 L185.552 487.157 L171.478 487.157 L171.478 495.629 Q172.496 495.282 173.515 495.12 Q174.533 494.935 175.552 494.935 Q181.339 494.935 184.718 498.106 Q188.098 501.277 188.098 506.694 Q188.098 512.273 184.626 515.374 Q181.153 518.453 174.834 518.453 Q172.658 518.453 170.39 518.083 Q168.144 517.712 165.737 516.972 L165.737 512.273 Q167.82 513.407 170.042 513.962 Q172.265 514.518 174.741 514.518 Q178.746 514.518 181.084 512.412 Q183.422 510.305 183.422 506.694 Q183.422 503.083 181.084 500.976 Q178.746 498.87 174.741 498.87 Q172.866 498.87 170.991 499.287 Q169.14 499.703 167.195 500.583 L167.195 483.222 Z" fill="#000000" fill-rule="nonzero" fill-opacity="1" /><path clip-path="url(#clip650)" d="M100.76 408.798 Q97.1493 408.798 95.3206 412.363 Q93.515 415.905 93.515 423.034 Q93.515 430.141 95.3206 433.705 Q97.1493 437.247 100.76 437.247 Q104.395 437.247 106.2 433.705 Q108.029 430.141 108.029 423.034 Q108.029 415.905 106.2 412.363 Q104.395 408.798 100.76 408.798 M100.76 405.094 Q106.571 405.094 109.626 409.701 Q112.705 414.284 112.705 423.034 Q112.705 431.761 109.626 436.367 Q106.571 440.951 100.76 440.951 Q94.9502 440.951 91.8715 436.367 Q88.816 431.761 88.816 423.034 Q88.816 414.284 91.8715 409.701 Q94.9502 405.094 100.76 405.094 Z" fill="#000000" fill-rule="nonzero" fill-opacity="1" /><path clip-path="url(#clip650)" d="M120.922 434.4 L125.807 434.4 L125.807 440.279 L120.922 440.279 L120.922 434.4 Z" fill="#000000" fill-rule="nonzero" fill-opacity="1" /><path clip-path="url(#clip650)" d="M145.992 408.798 Q142.381 408.798 140.552 412.363 Q138.746 415.905 138.746 423.034 Q138.746 430.141 140.552 433.705 Q142.381 437.247 145.992 437.247 Q149.626 437.247 151.431 433.705 Q153.26 430.141 153.26 423.034 Q153.26 415.905 151.431 412.363 Q149.626 408.798 145.992 408.798 M145.992 405.094 Q151.802 405.094 154.857 409.701 Q157.936 414.284 157.936 423.034 Q157.936 431.761 154.857 436.367 Q151.802 440.951 145.992 440.951 Q140.181 440.951 137.103 436.367 Q134.047 431.761 134.047 423.034 Q134.047 414.284 137.103 409.701 Q140.181 405.094 145.992 405.094 Z" fill="#000000" fill-rule="nonzero" fill-opacity="1" /><path clip-path="url(#clip650)" d="M176.153 408.798 Q172.542 408.798 170.714 412.363 Q168.908 415.905 168.908 423.034 Q168.908 430.141 170.714 433.705 Q172.542 437.247 176.153 437.247 Q179.788 437.247 181.593 433.705 Q183.422 430.141 183.422 423.034 Q183.422 415.905 181.593 412.363 Q179.788 408.798 176.153 408.798 M176.153 405.094 Q181.964 405.094 185.019 409.701 Q188.098 414.284 188.098 423.034 Q188.098 431.761 185.019 436.367 Q181.964 440.951 176.153 440.951 Q170.343 440.951 167.265 436.367 Q164.209 431.761 164.209 423.034 Q164.209 414.284 167.265 409.701 Q170.343 405.094 176.153 405.094 Z" fill="#000000" fill-rule="nonzero" fill-opacity="1" /><path clip-path="url(#clip650)" d="M101.756 331.296 Q98.1447 331.296 96.316 334.86 Q94.5104 338.402 94.5104 345.532 Q94.5104 352.638 96.316 356.203 Q98.1447 359.745 101.756 359.745 Q105.39 359.745 107.196 356.203 Q109.024 352.638 109.024 345.532 Q109.024 338.402 107.196 334.86 Q105.39 331.296 101.756 331.296 M101.756 327.592 Q107.566 327.592 110.621 332.198 Q113.7 336.782 113.7 345.532 Q113.7 354.259 110.621 358.865 Q107.566 363.448 101.756 363.448 Q95.9456 363.448 92.8669 358.865 Q89.8114 354.259 89.8114 345.532 Q89.8114 336.782 92.8669 332.198 Q95.9456 327.592 101.756 327.592 Z" fill="#000000" fill-rule="nonzero" fill-opacity="1" /><path clip-path="url(#clip650)" d="M121.918 356.897 L126.802 356.897 L126.802 362.777 L121.918 362.777 L121.918 356.897 Z" fill="#000000" fill-rule="nonzero" fill-opacity="1" /><path clip-path="url(#clip650)" d="M146.987 331.296 Q143.376 331.296 141.547 334.86 Q139.742 338.402 139.742 345.532 Q139.742 352.638 141.547 356.203 Q143.376 359.745 146.987 359.745 Q150.621 359.745 152.427 356.203 Q154.255 352.638 154.255 345.532 Q154.255 338.402 152.427 334.86 Q150.621 331.296 146.987 331.296 M146.987 327.592 Q152.797 327.592 155.853 332.198 Q158.931 336.782 158.931 345.532 Q158.931 354.259 155.853 358.865 Q152.797 363.448 146.987 363.448 Q141.177 363.448 138.098 358.865 Q135.043 354.259 135.043 345.532 Q135.043 336.782 138.098 332.198 Q141.177 327.592 146.987 327.592 Z" fill="#000000" fill-rule="nonzero" fill-opacity="1" /><path clip-path="url(#clip650)" d="M167.195 328.217 L185.552 328.217 L185.552 332.152 L171.478 332.152 L171.478 340.624 Q172.496 340.277 173.515 340.115 Q174.533 339.93 175.552 339.93 Q181.339 339.93 184.718 343.101 Q188.098 346.272 188.098 351.689 Q188.098 357.268 184.626 360.37 Q181.153 363.448 174.834 363.448 Q172.658 363.448 170.39 363.078 Q168.144 362.708 165.737 361.967 L165.737 357.268 Q167.82 358.402 170.042 358.958 Q172.265 359.513 174.741 359.513 Q178.746 359.513 181.084 357.407 Q183.422 355.3 183.422 351.689 Q183.422 348.078 181.084 345.972 Q178.746 343.865 174.741 343.865 Q172.866 343.865 170.991 344.282 Q169.14 344.698 167.195 345.578 L167.195 328.217 Z" fill="#000000" fill-rule="nonzero" fill-opacity="1" /><path clip-path="url(#clip650)" d="M100.76 253.793 Q97.1493 253.793 95.3206 257.358 Q93.515 260.9 93.515 268.029 Q93.515 275.136 95.3206 278.701 Q97.1493 282.242 100.76 282.242 Q104.395 282.242 106.2 278.701 Q108.029 275.136 108.029 268.029 Q108.029 260.9 106.2 257.358 Q104.395 253.793 100.76 253.793 M100.76 250.09 Q106.571 250.09 109.626 254.696 Q112.705 259.279 112.705 268.029 Q112.705 276.756 109.626 281.363 Q106.571 285.946 100.76 285.946 Q94.9502 285.946 91.8715 281.363 Q88.816 276.756 88.816 268.029 Q88.816 259.279 91.8715 254.696 Q94.9502 250.09 100.76 250.09 Z" fill="#000000" fill-rule="nonzero" fill-opacity="1" /><path clip-path="url(#clip650)" d="M120.922 279.395 L125.807 279.395 L125.807 285.275 L120.922 285.275 L120.922 279.395 Z" fill="#000000" fill-rule="nonzero" fill-opacity="1" /><path clip-path="url(#clip650)" d="M136.802 281.339 L144.441 281.339 L144.441 254.974 L136.131 256.64 L136.131 252.381 L144.394 250.715 L149.07 250.715 L149.07 281.339 L156.709 281.339 L156.709 285.275 L136.802 285.275 L136.802 281.339 Z" fill="#000000" fill-rule="nonzero" fill-opacity="1" /><path clip-path="url(#clip650)" d="M176.153 253.793 Q172.542 253.793 170.714 257.358 Q168.908 260.9 168.908 268.029 Q168.908 275.136 170.714 278.701 Q172.542 282.242 176.153 282.242 Q179.788 282.242 181.593 278.701 Q183.422 275.136 183.422 268.029 Q183.422 260.9 181.593 257.358 Q179.788 253.793 176.153 253.793 M176.153 250.09 Q181.964 250.09 185.019 254.696 Q188.098 259.279 188.098 268.029 Q188.098 276.756 185.019 281.363 Q181.964 285.946 176.153 285.946 Q170.343 285.946 167.265 281.363 Q164.209 276.756 164.209 268.029 Q164.209 259.279 167.265 254.696 Q170.343 250.09 176.153 250.09 Z" fill="#000000" fill-rule="nonzero" fill-opacity="1" /><path clip-path="url(#clip650)" d="M101.756 176.291 Q98.1447 176.291 96.316 179.856 Q94.5104 183.397 94.5104 190.527 Q94.5104 197.633 96.316 201.198 Q98.1447 204.74 101.756 204.74 Q105.39 204.74 107.196 201.198 Q109.024 197.633 109.024 190.527 Q109.024 183.397 107.196 179.856 Q105.39 176.291 101.756 176.291 M101.756 172.587 Q107.566 172.587 110.621 177.194 Q113.7 181.777 113.7 190.527 Q113.7 199.254 110.621 203.86 Q107.566 208.443 101.756 208.443 Q95.9456 208.443 92.8669 203.86 Q89.8114 199.254 89.8114 190.527 Q89.8114 181.777 92.8669 177.194 Q95.9456 172.587 101.756 172.587 Z" fill="#000000" fill-rule="nonzero" fill-opacity="1" /><path clip-path="url(#clip650)" d="M121.918 201.893 L126.802 201.893 L126.802 207.772 L121.918 207.772 L121.918 201.893 Z" fill="#000000" fill-rule="nonzero" fill-opacity="1" /><path clip-path="url(#clip650)" d="M137.797 203.837 L145.436 203.837 L145.436 177.471 L137.126 179.138 L137.126 174.879 L145.39 173.212 L150.066 173.212 L150.066 203.837 L157.705 203.837 L157.705 207.772 L137.797 207.772 L137.797 203.837 Z" fill="#000000" fill-rule="nonzero" fill-opacity="1" /><path clip-path="url(#clip650)" d="M167.195 173.212 L185.552 173.212 L185.552 177.147 L171.478 177.147 L171.478 185.619 Q172.496 185.272 173.515 185.11 Q174.533 184.925 175.552 184.925 Q181.339 184.925 184.718 188.096 Q188.098 191.268 188.098 196.684 Q188.098 202.263 184.626 205.365 Q181.153 208.443 174.834 208.443 Q172.658 208.443 170.39 208.073 Q168.144 207.703 165.737 206.962 L165.737 202.263 Q167.82 203.397 170.042 203.953 Q172.265 204.508 174.741 204.508 Q178.746 204.508 181.084 202.402 Q183.422 200.295 183.422 196.684 Q183.422 193.073 181.084 190.967 Q178.746 188.86 174.741 188.86 Q172.866 188.86 170.991 189.277 Q169.14 189.694 167.195 190.573 L167.195 173.212 Z" fill="#000000" fill-rule="nonzero" fill-opacity="1" /><path clip-path="url(#clip650)" d="M562.97 14.324 L562.97 27.2059 L578.323 27.2059 L578.323 32.9987 L562.97 32.9987 L562.97 57.6282 Q562.97 63.1779 564.469 64.7578 Q566.009 66.3376 570.667 66.3376 L578.323 66.3376 L578.323 72.576 L570.667 72.576 Q562.039 72.576 558.757 69.3758 Q555.476 66.1351 555.476 57.6282 L555.476 32.9987 L550.007 32.9987 L550.007 27.2059 L555.476 27.2059 L555.476 14.324 L562.97 14.324 Z" fill="#000000" fill-rule="nonzero" fill-opacity="1" /><path clip-path="url(#clip650)" d="M615.47 34.9026 L667.403 34.9026 L667.403 41.7081 L615.47 41.7081 L615.47 34.9026 M615.47 51.4303 L667.403 51.4303 L667.403 58.3168 L615.47 58.3168 L615.47 51.4303 Z" fill="#000000" fill-rule="nonzero" fill-opacity="1" /><path clip-path="url(#clip650)" d="M728.936 17.4837 Q722.617 17.4837 719.416 23.7221 Q716.257 29.92 716.257 42.3968 Q716.257 54.833 719.416 61.0714 Q722.617 67.2693 728.936 67.2693 Q735.296 67.2693 738.456 61.0714 Q741.656 54.833 741.656 42.3968 Q741.656 29.92 738.456 23.7221 Q735.296 17.4837 728.936 17.4837 M728.936 11.0023 Q739.104 11.0023 744.451 19.0636 Q749.839 27.0843 749.839 42.3968 Q749.839 57.6687 744.451 65.73 Q739.104 73.7508 728.936 73.7508 Q718.768 73.7508 713.38 65.73 Q708.033 57.6687 708.033 42.3968 Q708.033 27.0843 713.38 19.0636 Q718.768 11.0023 728.936 11.0023 Z" fill="#000000" fill-rule="nonzero" fill-opacity="1" /><path clip-path="url(#clip650)" d="M764.219 62.2867 L772.767 62.2867 L772.767 72.576 L764.219 72.576 L764.219 62.2867 Z" fill="#000000" fill-rule="nonzero" fill-opacity="1" /><path clip-path="url(#clip650)" d="M792.009 65.6895 L805.376 65.6895 L805.376 19.5497 L790.834 22.4663 L790.834 15.0127 L805.295 12.096 L813.478 12.096 L813.478 65.6895 L826.846 65.6895 L826.846 72.576 L792.009 72.576 L792.009 65.6895 Z" fill="#000000" fill-rule="nonzero" fill-opacity="1" /><polyline clip-path="url(#clip652)" style="stroke:#009af9; stroke-linecap:round; stroke-linejoin:round; stroke-width:4; stroke-opacity:1; fill:none" points="250.381,139.405 254.761,141.615 259.142,143.833 263.522,146.06 267.902,148.297 272.283,150.542 276.663,152.797 281.044,155.061 285.424,157.333 289.805,159.615 294.185,161.906 298.566,164.205 302.946,166.513 307.327,168.831 311.707,171.157 316.088,173.492 320.468,175.835 324.849,178.188 329.229,180.549 333.609,182.919 337.99,185.297 342.37,187.684 346.751,190.08 351.131,192.484 355.512,194.897 359.892,197.318 364.273,199.747 368.653,202.185 373.034,204.631 377.414,207.085 381.795,209.548 386.175,212.018 390.555,214.497 394.936,216.984 399.316,219.479 403.697,221.981 408.077,224.492 412.458,227.01 416.838,229.536 421.219,232.07 425.599,234.611 429.98,237.16 434.36,239.716 438.741,242.28 443.121,244.851 447.501,247.43 451.882,250.016 456.262,252.608 460.643,255.208 465.023,257.815 469.404,260.429 473.784,263.049 478.165,265.677 482.545,268.311 486.926,270.951 491.306,273.598 495.687,276.252 500.067,278.912 504.447,281.578 508.828,284.25 513.208,286.929 517.589,289.613 521.969,292.303 526.35,294.999 530.73,297.701 535.111,300.409 539.491,303.121 543.872,305.84 548.252,308.563 552.633,311.292 557.013,314.026 561.393,316.765 565.774,319.509 570.154,322.258 574.535,325.012 578.915,327.77 583.296,330.532 587.676,333.299 592.057,336.07 596.437,338.846 600.818,341.625 605.198,344.409 609.579,347.196 613.959,349.987 618.339,352.782 622.72,355.58 627.1,358.382 631.481,361.187 635.861,363.995 640.242,366.806 644.622,369.62 649.003,372.437 653.383,375.257 657.764,378.079 662.144,380.903 666.525,383.73 670.905,386.56 675.286,389.391 679.666,392.224 684.046,395.059 688.427,397.896 692.807,400.735 697.188,403.575 701.568,406.416 705.949,409.259 710.329,412.102 714.71,414.947 719.09,417.793 723.471,420.639 727.851,423.486 732.232,426.334 736.612,429.182 740.992,432.03 745.373,434.879 749.753,437.727 754.134,440.575 758.514,443.423 762.895,446.271 767.275,449.118 771.656,451.965 776.036,454.811 780.417,457.656 784.797,460.5 789.178,463.343 793.558,466.185 797.938,469.026 802.319,471.865 806.699,474.703 811.08,477.538 815.46,480.373 819.841,483.205 824.221,486.035 828.602,488.863 832.982,491.689 837.363,494.512 841.743,497.333 846.124,500.151 850.504,502.966 854.884,505.779 859.265,508.589 863.645,511.395 868.026,514.199 872.406,516.999 876.787,519.796 881.167,522.589 885.548,525.378 889.928,528.164 894.309,530.946 898.689,533.724 903.07,536.499 907.45,539.269 911.83,542.034 916.211,544.796 920.591,547.552 924.972,550.305 929.352,553.052 933.733,555.795 938.113,558.533 942.494,561.267 946.874,563.995 951.255,566.718 955.635,569.436 960.016,572.148 964.396,574.855 968.776,577.557 973.157,580.253 977.537,582.943 981.918,585.628 986.298,588.307 990.679,590.98 995.059,593.646 999.44,596.307 1003.82,598.962 1008.2,601.61 1012.58,604.252 1016.96,606.888 1021.34,609.518 1025.72,612.14 1030.1,614.757 1034.48,617.366 1038.86,619.969 1043.24,622.565 1047.62,625.154 1052.01,627.736 1056.39,630.311 1060.77,632.879 1065.15,635.44 1069.53,637.994 1073.91,640.541 1078.29,643.08 1082.67,645.612 1087.05,648.136 1091.43,650.653 1095.81,653.163 1100.19,655.665 1104.57,658.159 1108.95,660.646 1113.33,663.125 1117.71,665.596 1122.09,668.059 1126.47,670.515 "/>
<path clip-path="url(#clip650)" d="M976.505 245.918 L1121.8 245.918 L1121.8 142.238 L976.505 142.238  Z" fill="#ffffff" fill-rule="evenodd" fill-opacity="1"/>
<polyline clip-path="url(#clip650)" style="stroke:#000000; stroke-linecap:round; stroke-linejoin:round; stroke-width:4; stroke-opacity:1; fill:none" points="976.505,245.918 1121.8,245.918 1121.8,142.238 976.505,142.238 976.505,245.918 "/>
<polyline clip-path="url(#clip650)" style="stroke:#009af9; stroke-linecap:round; stroke-linejoin:round; stroke-width:4; stroke-opacity:1; fill:none" points="986.823,194.078 1048.73,194.078 "/>
<path clip-path="url(#clip650)" d="M1072.89 213.765 Q1071.09 218.395 1069.38 219.807 Q1067.66 221.219 1064.79 221.219 L1061.39 221.219 L1061.39 217.654 L1063.89 217.654 Q1065.65 217.654 1066.62 216.821 Q1067.59 215.988 1068.77 212.886 L1069.54 210.941 L1059.05 185.432 L1063.57 185.432 L1071.67 205.71 L1079.77 185.432 L1084.28 185.432 L1072.89 213.765 Z" fill="#000000" fill-rule="nonzero" fill-opacity="1" /><path clip-path="url(#clip650)" d="M1091.57 207.423 L1099.21 207.423 L1099.21 181.057 L1090.9 182.724 L1090.9 178.465 L1099.17 176.798 L1103.84 176.798 L1103.84 207.423 L1111.48 207.423 L1111.48 211.358 L1091.57 211.358 L1091.57 207.423 Z" fill="#000000" fill-rule="nonzero" fill-opacity="1" /><path clip-path="url(#clip650)" d="M1424.1 686.448 L2352.76 686.448 L2352.76 123.472 L1424.1 123.472  Z" fill="#ffffff" fill-rule="evenodd" fill-opacity="1"/>
<defs>
  <clipPath id="clip653">
    <rect x="1424" y="123" width="930" height="564"/>
  </clipPath>
</defs>
<polyline clip-path="url(#clip653)" style="stroke:#000000; stroke-linecap:round; stroke-linejoin:round; stroke-width:2; stroke-opacity:0.1; fill:none" points="1450.38,686.448 1450.38,123.472 "/>
<polyline clip-path="url(#clip653)" style="stroke:#000000; stroke-linecap:round; stroke-linejoin:round; stroke-width:2; stroke-opacity:0.1; fill:none" points="1669.4,686.448 1669.4,123.472 "/>
<polyline clip-path="url(#clip653)" style="stroke:#000000; stroke-linecap:round; stroke-linejoin:round; stroke-width:2; stroke-opacity:0.1; fill:none" points="1888.43,686.448 1888.43,123.472 "/>
<polyline clip-path="url(#clip653)" style="stroke:#000000; stroke-linecap:round; stroke-linejoin:round; stroke-width:2; stroke-opacity:0.1; fill:none" points="2107.45,686.448 2107.45,123.472 "/>
<polyline clip-path="url(#clip653)" style="stroke:#000000; stroke-linecap:round; stroke-linejoin:round; stroke-width:2; stroke-opacity:0.1; fill:none" points="2326.47,686.448 2326.47,123.472 "/>
<polyline clip-path="url(#clip650)" style="stroke:#000000; stroke-linecap:round; stroke-linejoin:round; stroke-width:4; stroke-opacity:1; fill:none" points="1424.1,686.448 2352.76,686.448 "/>
<polyline clip-path="url(#clip650)" style="stroke:#000000; stroke-linecap:round; stroke-linejoin:round; stroke-width:4; stroke-opacity:1; fill:none" points="1450.38,686.448 1450.38,667.55 "/>
<polyline clip-path="url(#clip650)" style="stroke:#000000; stroke-linecap:round; stroke-linejoin:round; stroke-width:4; stroke-opacity:1; fill:none" points="1669.4,686.448 1669.4,667.55 "/>
<polyline clip-path="url(#clip650)" style="stroke:#000000; stroke-linecap:round; stroke-linejoin:round; stroke-width:4; stroke-opacity:1; fill:none" points="1888.43,686.448 1888.43,667.55 "/>
<polyline clip-path="url(#clip650)" style="stroke:#000000; stroke-linecap:round; stroke-linejoin:round; stroke-width:4; stroke-opacity:1; fill:none" points="2107.45,686.448 2107.45,667.55 "/>
<polyline clip-path="url(#clip650)" style="stroke:#000000; stroke-linecap:round; stroke-linejoin:round; stroke-width:4; stroke-opacity:1; fill:none" points="2326.47,686.448 2326.47,667.55 "/>
<path clip-path="url(#clip650)" d="M1396.91 732.019 L1426.58 732.019 L1426.58 735.954 L1396.91 735.954 L1396.91 732.019 Z" fill="#000000" fill-rule="nonzero" fill-opacity="1" /><path clip-path="url(#clip650)" d="M1437.49 744.913 L1445.13 744.913 L1445.13 718.547 L1436.82 720.214 L1436.82 715.955 L1445.08 714.288 L1449.76 714.288 L1449.76 744.913 L1457.39 744.913 L1457.39 748.848 L1437.49 748.848 L1437.49 744.913 Z" fill="#000000" fill-rule="nonzero" fill-opacity="1" /><path clip-path="url(#clip650)" d="M1466.84 742.968 L1471.72 742.968 L1471.72 748.848 L1466.84 748.848 L1466.84 742.968 Z" fill="#000000" fill-rule="nonzero" fill-opacity="1" /><path clip-path="url(#clip650)" d="M1491.91 717.367 Q1488.3 717.367 1486.47 720.931 Q1484.66 724.473 1484.66 731.603 Q1484.66 738.709 1486.47 742.274 Q1488.3 745.815 1491.91 745.815 Q1495.54 745.815 1497.35 742.274 Q1499.18 738.709 1499.18 731.603 Q1499.18 724.473 1497.35 720.931 Q1495.54 717.367 1491.91 717.367 M1491.91 713.663 Q1497.72 713.663 1500.77 718.269 Q1503.85 722.853 1503.85 731.603 Q1503.85 740.329 1500.77 744.936 Q1497.72 749.519 1491.91 749.519 Q1486.1 749.519 1483.02 744.936 Q1479.96 740.329 1479.96 731.603 Q1479.96 722.853 1483.02 718.269 Q1486.1 713.663 1491.91 713.663 Z" fill="#000000" fill-rule="nonzero" fill-opacity="1" /><path clip-path="url(#clip650)" d="M1616.43 732.019 L1646.11 732.019 L1646.11 735.954 L1616.43 735.954 L1616.43 732.019 Z" fill="#000000" fill-rule="nonzero" fill-opacity="1" /><path clip-path="url(#clip650)" d="M1666.2 717.367 Q1662.59 717.367 1660.76 720.931 Q1658.95 724.473 1658.95 731.603 Q1658.95 738.709 1660.76 742.274 Q1662.59 745.815 1666.2 745.815 Q1669.83 745.815 1671.64 742.274 Q1673.47 738.709 1673.47 731.603 Q1673.47 724.473 1671.64 720.931 Q1669.83 717.367 1666.2 717.367 M1666.2 713.663 Q1672.01 713.663 1675.06 718.269 Q1678.14 722.853 1678.14 731.603 Q1678.14 740.329 1675.06 744.936 Q1672.01 749.519 1666.2 749.519 Q1660.39 749.519 1657.31 744.936 Q1654.25 740.329 1654.25 731.603 Q1654.25 722.853 1657.31 718.269 Q1660.39 713.663 1666.2 713.663 Z" fill="#000000" fill-rule="nonzero" fill-opacity="1" /><path clip-path="url(#clip650)" d="M1686.36 742.968 L1691.24 742.968 L1691.24 748.848 L1686.36 748.848 L1686.36 742.968 Z" fill="#000000" fill-rule="nonzero" fill-opacity="1" /><path clip-path="url(#clip650)" d="M1701.48 714.288 L1719.83 714.288 L1719.83 718.223 L1705.76 718.223 L1705.76 726.695 Q1706.78 726.348 1707.79 726.186 Q1708.81 726.001 1709.83 726.001 Q1715.62 726.001 1719 729.172 Q1722.38 732.343 1722.38 737.76 Q1722.38 743.339 1718.91 746.44 Q1715.43 749.519 1709.11 749.519 Q1706.94 749.519 1704.67 749.149 Q1702.42 748.778 1700.02 748.038 L1700.02 743.339 Q1702.1 744.473 1704.32 745.028 Q1706.54 745.584 1709.02 745.584 Q1713.03 745.584 1715.36 743.478 Q1717.7 741.371 1717.7 737.76 Q1717.7 734.149 1715.36 732.042 Q1713.03 729.936 1709.02 729.936 Q1707.15 729.936 1705.27 730.353 Q1703.42 730.769 1701.48 731.649 L1701.48 714.288 Z" fill="#000000" fill-rule="nonzero" fill-opacity="1" /><path clip-path="url(#clip650)" d="M1865.81 717.367 Q1862.2 717.367 1860.37 720.931 Q1858.57 724.473 1858.57 731.603 Q1858.57 738.709 1860.37 742.274 Q1862.2 745.815 1865.81 745.815 Q1869.45 745.815 1871.25 742.274 Q1873.08 738.709 1873.08 731.603 Q1873.08 724.473 1871.25 720.931 Q1869.45 717.367 1865.81 717.367 M1865.81 713.663 Q1871.62 713.663 1874.68 718.269 Q1877.76 722.853 1877.76 731.603 Q1877.76 740.329 1874.68 744.936 Q1871.62 749.519 1865.81 749.519 Q1860 749.519 1856.92 744.936 Q1853.87 740.329 1853.87 731.603 Q1853.87 722.853 1856.92 718.269 Q1860 713.663 1865.81 713.663 Z" fill="#000000" fill-rule="nonzero" fill-opacity="1" /><path clip-path="url(#clip650)" d="M1885.97 742.968 L1890.86 742.968 L1890.86 748.848 L1885.97 748.848 L1885.97 742.968 Z" fill="#000000" fill-rule="nonzero" fill-opacity="1" /><path clip-path="url(#clip650)" d="M1911.04 717.367 Q1907.43 717.367 1905.6 720.931 Q1903.8 724.473 1903.8 731.603 Q1903.8 738.709 1905.6 742.274 Q1907.43 745.815 1911.04 745.815 Q1914.68 745.815 1916.48 742.274 Q1918.31 738.709 1918.31 731.603 Q1918.31 724.473 1916.48 720.931 Q1914.68 717.367 1911.04 717.367 M1911.04 713.663 Q1916.85 713.663 1919.91 718.269 Q1922.99 722.853 1922.99 731.603 Q1922.99 740.329 1919.91 744.936 Q1916.85 749.519 1911.04 749.519 Q1905.23 749.519 1902.15 744.936 Q1899.1 740.329 1899.1 731.603 Q1899.1 722.853 1902.15 718.269 Q1905.23 713.663 1911.04 713.663 Z" fill="#000000" fill-rule="nonzero" fill-opacity="1" /><path clip-path="url(#clip650)" d="M2085.33 717.367 Q2081.72 717.367 2079.89 720.931 Q2078.09 724.473 2078.09 731.603 Q2078.09 738.709 2079.89 742.274 Q2081.72 745.815 2085.33 745.815 Q2088.97 745.815 2090.77 742.274 Q2092.6 738.709 2092.6 731.603 Q2092.6 724.473 2090.77 720.931 Q2088.97 717.367 2085.33 717.367 M2085.33 713.663 Q2091.14 713.663 2094.2 718.269 Q2097.28 722.853 2097.28 731.603 Q2097.28 740.329 2094.2 744.936 Q2091.14 749.519 2085.33 749.519 Q2079.52 749.519 2076.44 744.936 Q2073.39 740.329 2073.39 731.603 Q2073.39 722.853 2076.44 718.269 Q2079.52 713.663 2085.33 713.663 Z" fill="#000000" fill-rule="nonzero" fill-opacity="1" /><path clip-path="url(#clip650)" d="M2105.49 742.968 L2110.38 742.968 L2110.38 748.848 L2105.49 748.848 L2105.49 742.968 Z" fill="#000000" fill-rule="nonzero" fill-opacity="1" /><path clip-path="url(#clip650)" d="M2120.61 714.288 L2138.97 714.288 L2138.97 718.223 L2124.89 718.223 L2124.89 726.695 Q2125.91 726.348 2126.93 726.186 Q2127.95 726.001 2128.97 726.001 Q2134.75 726.001 2138.13 729.172 Q2141.51 732.343 2141.51 737.76 Q2141.51 743.339 2138.04 746.44 Q2134.57 749.519 2128.25 749.519 Q2126.07 749.519 2123.8 749.149 Q2121.56 748.778 2119.15 748.038 L2119.15 743.339 Q2121.23 744.473 2123.46 745.028 Q2125.68 745.584 2128.16 745.584 Q2132.16 745.584 2134.5 743.478 Q2136.84 741.371 2136.84 737.76 Q2136.84 734.149 2134.5 732.042 Q2132.16 729.936 2128.16 729.936 Q2126.28 729.936 2124.41 730.353 Q2122.55 730.769 2120.61 731.649 L2120.61 714.288 Z" fill="#000000" fill-rule="nonzero" fill-opacity="1" /><path clip-path="url(#clip650)" d="M2293.63 744.913 L2301.26 744.913 L2301.26 718.547 L2292.95 720.214 L2292.95 715.955 L2301.22 714.288 L2305.89 714.288 L2305.89 744.913 L2313.53 744.913 L2313.53 748.848 L2293.63 748.848 L2293.63 744.913 Z" fill="#000000" fill-rule="nonzero" fill-opacity="1" /><path clip-path="url(#clip650)" d="M2322.98 742.968 L2327.86 742.968 L2327.86 748.848 L2322.98 748.848 L2322.98 742.968 Z" fill="#000000" fill-rule="nonzero" fill-opacity="1" /><path clip-path="url(#clip650)" d="M2348.05 717.367 Q2344.44 717.367 2342.61 720.931 Q2340.8 724.473 2340.8 731.603 Q2340.8 738.709 2342.61 742.274 Q2344.44 745.815 2348.05 745.815 Q2351.68 745.815 2353.49 742.274 Q2355.32 738.709 2355.32 731.603 Q2355.32 724.473 2353.49 720.931 Q2351.68 717.367 2348.05 717.367 M2348.05 713.663 Q2353.86 713.663 2356.91 718.269 Q2359.99 722.853 2359.99 731.603 Q2359.99 740.329 2356.91 744.936 Q2353.86 749.519 2348.05 749.519 Q2342.24 749.519 2339.16 744.936 Q2336.1 740.329 2336.1 731.603 Q2336.1 722.853 2339.16 718.269 Q2342.24 713.663 2348.05 713.663 Z" fill="#000000" fill-rule="nonzero" fill-opacity="1" /><polyline clip-path="url(#clip653)" style="stroke:#000000; stroke-linecap:round; stroke-linejoin:round; stroke-width:2; stroke-opacity:0.1; fill:none" points="1424.1,654.841 2352.76,654.841 "/>
<polyline clip-path="url(#clip653)" style="stroke:#000000; stroke-linecap:round; stroke-linejoin:round; stroke-width:2; stroke-opacity:0.1; fill:none" points="1424.1,577.309 2352.76,577.309 "/>
<polyline clip-path="url(#clip653)" style="stroke:#000000; stroke-linecap:round; stroke-linejoin:round; stroke-width:2; stroke-opacity:0.1; fill:none" points="1424.1,499.777 2352.76,499.777 "/>
<polyline clip-path="url(#clip653)" style="stroke:#000000; stroke-linecap:round; stroke-linejoin:round; stroke-width:2; stroke-opacity:0.1; fill:none" points="1424.1,422.245 2352.76,422.245 "/>
<polyline clip-path="url(#clip653)" style="stroke:#000000; stroke-linecap:round; stroke-linejoin:round; stroke-width:2; stroke-opacity:0.1; fill:none" points="1424.1,344.713 2352.76,344.713 "/>
<polyline clip-path="url(#clip653)" style="stroke:#000000; stroke-linecap:round; stroke-linejoin:round; stroke-width:2; stroke-opacity:0.1; fill:none" points="1424.1,267.181 2352.76,267.181 "/>
<polyline clip-path="url(#clip653)" style="stroke:#000000; stroke-linecap:round; stroke-linejoin:round; stroke-width:2; stroke-opacity:0.1; fill:none" points="1424.1,189.649 2352.76,189.649 "/>
<polyline clip-path="url(#clip650)" style="stroke:#000000; stroke-linecap:round; stroke-linejoin:round; stroke-width:4; stroke-opacity:1; fill:none" points="1424.1,686.448 1424.1,123.472 "/>
<polyline clip-path="url(#clip650)" style="stroke:#000000; stroke-linecap:round; stroke-linejoin:round; stroke-width:4; stroke-opacity:1; fill:none" points="1424.1,654.841 1443,654.841 "/>
<polyline clip-path="url(#clip650)" style="stroke:#000000; stroke-linecap:round; stroke-linejoin:round; stroke-width:4; stroke-opacity:1; fill:none" points="1424.1,577.309 1443,577.309 "/>
<polyline clip-path="url(#clip650)" style="stroke:#000000; stroke-linecap:round; stroke-linejoin:round; stroke-width:4; stroke-opacity:1; fill:none" points="1424.1,499.777 1443,499.777 "/>
<polyline clip-path="url(#clip650)" style="stroke:#000000; stroke-linecap:round; stroke-linejoin:round; stroke-width:4; stroke-opacity:1; fill:none" points="1424.1,422.245 1443,422.245 "/>
<polyline clip-path="url(#clip650)" style="stroke:#000000; stroke-linecap:round; stroke-linejoin:round; stroke-width:4; stroke-opacity:1; fill:none" points="1424.1,344.713 1443,344.713 "/>
<polyline clip-path="url(#clip650)" style="stroke:#000000; stroke-linecap:round; stroke-linejoin:round; stroke-width:4; stroke-opacity:1; fill:none" points="1424.1,267.181 1443,267.181 "/>
<polyline clip-path="url(#clip650)" style="stroke:#000000; stroke-linecap:round; stroke-linejoin:round; stroke-width:4; stroke-opacity:1; fill:none" points="1424.1,189.649 1443,189.649 "/>
<path clip-path="url(#clip650)" d="M1251.99 655.292 L1281.66 655.292 L1281.66 659.228 L1251.99 659.228 L1251.99 655.292 Z" fill="#000000" fill-rule="nonzero" fill-opacity="1" /><path clip-path="url(#clip650)" d="M1301.76 640.64 Q1298.14 640.64 1296.32 644.205 Q1294.51 647.746 1294.51 654.876 Q1294.51 661.982 1296.32 665.547 Q1298.14 669.089 1301.76 669.089 Q1305.39 669.089 1307.2 665.547 Q1309.02 661.982 1309.02 654.876 Q1309.02 647.746 1307.2 644.205 Q1305.39 640.64 1301.76 640.64 M1301.76 636.936 Q1307.57 636.936 1310.62 641.543 Q1313.7 646.126 1313.7 654.876 Q1313.7 663.603 1310.62 668.209 Q1307.57 672.792 1301.76 672.792 Q1295.95 672.792 1292.87 668.209 Q1289.81 663.603 1289.81 654.876 Q1289.81 646.126 1292.87 641.543 Q1295.95 636.936 1301.76 636.936 Z" fill="#000000" fill-rule="nonzero" fill-opacity="1" /><path clip-path="url(#clip650)" d="M1321.92 666.241 L1326.8 666.241 L1326.8 672.121 L1321.92 672.121 L1321.92 666.241 Z" fill="#000000" fill-rule="nonzero" fill-opacity="1" /><path clip-path="url(#clip650)" d="M1337.8 668.186 L1345.44 668.186 L1345.44 641.82 L1337.13 643.487 L1337.13 639.228 L1345.39 637.561 L1350.07 637.561 L1350.07 668.186 L1357.7 668.186 L1357.7 672.121 L1337.8 672.121 L1337.8 668.186 Z" fill="#000000" fill-rule="nonzero" fill-opacity="1" /><path clip-path="url(#clip650)" d="M1367.2 637.561 L1385.55 637.561 L1385.55 641.496 L1371.48 641.496 L1371.48 649.968 Q1372.5 649.621 1373.51 649.459 Q1374.53 649.274 1375.55 649.274 Q1381.34 649.274 1384.72 652.445 Q1388.1 655.617 1388.1 661.033 Q1388.1 666.612 1384.63 669.714 Q1381.15 672.792 1374.83 672.792 Q1372.66 672.792 1370.39 672.422 Q1368.14 672.052 1365.74 671.311 L1365.74 666.612 Q1367.82 667.746 1370.04 668.302 Q1372.26 668.857 1374.74 668.857 Q1378.75 668.857 1381.08 666.751 Q1383.42 664.644 1383.42 661.033 Q1383.42 657.422 1381.08 655.316 Q1378.75 653.209 1374.74 653.209 Q1372.87 653.209 1370.99 653.626 Q1369.14 654.042 1367.2 654.922 L1367.2 637.561 Z" fill="#000000" fill-rule="nonzero" fill-opacity="1" /><path clip-path="url(#clip650)" d="M1250.99 577.76 L1280.67 577.76 L1280.67 581.696 L1250.99 581.696 L1250.99 577.76 Z" fill="#000000" fill-rule="nonzero" fill-opacity="1" /><path clip-path="url(#clip650)" d="M1300.76 563.108 Q1297.15 563.108 1295.32 566.672 Q1293.52 570.214 1293.52 577.344 Q1293.52 584.45 1295.32 588.015 Q1297.15 591.557 1300.76 591.557 Q1304.39 591.557 1306.2 588.015 Q1308.03 584.45 1308.03 577.344 Q1308.03 570.214 1306.2 566.672 Q1304.39 563.108 1300.76 563.108 M1300.76 559.404 Q1306.57 559.404 1309.63 564.01 Q1312.7 568.594 1312.7 577.344 Q1312.7 586.07 1309.63 590.677 Q1306.57 595.26 1300.76 595.26 Q1294.95 595.26 1291.87 590.677 Q1288.82 586.07 1288.82 577.344 Q1288.82 568.594 1291.87 564.01 Q1294.95 559.404 1300.76 559.404 Z" fill="#000000" fill-rule="nonzero" fill-opacity="1" /><path clip-path="url(#clip650)" d="M1320.92 588.709 L1325.81 588.709 L1325.81 594.589 L1320.92 594.589 L1320.92 588.709 Z" fill="#000000" fill-rule="nonzero" fill-opacity="1" /><path clip-path="url(#clip650)" d="M1336.8 590.654 L1344.44 590.654 L1344.44 564.288 L1336.13 565.955 L1336.13 561.696 L1344.39 560.029 L1349.07 560.029 L1349.07 590.654 L1356.71 590.654 L1356.71 594.589 L1336.8 594.589 L1336.8 590.654 Z" fill="#000000" fill-rule="nonzero" fill-opacity="1" /><path clip-path="url(#clip650)" d="M1376.15 563.108 Q1372.54 563.108 1370.71 566.672 Q1368.91 570.214 1368.91 577.344 Q1368.91 584.45 1370.71 588.015 Q1372.54 591.557 1376.15 591.557 Q1379.79 591.557 1381.59 588.015 Q1383.42 584.45 1383.42 577.344 Q1383.42 570.214 1381.59 566.672 Q1379.79 563.108 1376.15 563.108 M1376.15 559.404 Q1381.96 559.404 1385.02 564.01 Q1388.1 568.594 1388.1 577.344 Q1388.1 586.07 1385.02 590.677 Q1381.96 595.26 1376.15 595.26 Q1370.34 595.26 1367.26 590.677 Q1364.21 586.07 1364.21 577.344 Q1364.21 568.594 1367.26 564.01 Q1370.34 559.404 1376.15 559.404 Z" fill="#000000" fill-rule="nonzero" fill-opacity="1" /><path clip-path="url(#clip650)" d="M1251.99 500.228 L1281.66 500.228 L1281.66 504.163 L1251.99 504.163 L1251.99 500.228 Z" fill="#000000" fill-rule="nonzero" fill-opacity="1" /><path clip-path="url(#clip650)" d="M1301.76 485.576 Q1298.14 485.576 1296.32 489.14 Q1294.51 492.682 1294.51 499.812 Q1294.51 506.918 1296.32 510.483 Q1298.14 514.024 1301.76 514.024 Q1305.39 514.024 1307.2 510.483 Q1309.02 506.918 1309.02 499.812 Q1309.02 492.682 1307.2 489.14 Q1305.39 485.576 1301.76 485.576 M1301.76 481.872 Q1307.57 481.872 1310.62 486.478 Q1313.7 491.062 1313.7 499.812 Q1313.7 508.538 1310.62 513.145 Q1307.57 517.728 1301.76 517.728 Q1295.95 517.728 1292.87 513.145 Q1289.81 508.538 1289.81 499.812 Q1289.81 491.062 1292.87 486.478 Q1295.95 481.872 1301.76 481.872 Z" fill="#000000" fill-rule="nonzero" fill-opacity="1" /><path clip-path="url(#clip650)" d="M1321.92 511.177 L1326.8 511.177 L1326.8 517.057 L1321.92 517.057 L1321.92 511.177 Z" fill="#000000" fill-rule="nonzero" fill-opacity="1" /><path clip-path="url(#clip650)" d="M1346.99 485.576 Q1343.38 485.576 1341.55 489.14 Q1339.74 492.682 1339.74 499.812 Q1339.74 506.918 1341.55 510.483 Q1343.38 514.024 1346.99 514.024 Q1350.62 514.024 1352.43 510.483 Q1354.26 506.918 1354.26 499.812 Q1354.26 492.682 1352.43 489.14 Q1350.62 485.576 1346.99 485.576 M1346.99 481.872 Q1352.8 481.872 1355.85 486.478 Q1358.93 491.062 1358.93 499.812 Q1358.93 508.538 1355.85 513.145 Q1352.8 517.728 1346.99 517.728 Q1341.18 517.728 1338.1 513.145 Q1335.04 508.538 1335.04 499.812 Q1335.04 491.062 1338.1 486.478 Q1341.18 481.872 1346.99 481.872 Z" fill="#000000" fill-rule="nonzero" fill-opacity="1" /><path clip-path="url(#clip650)" d="M1367.2 482.497 L1385.55 482.497 L1385.55 486.432 L1371.48 486.432 L1371.48 494.904 Q1372.5 494.557 1373.51 494.395 Q1374.53 494.21 1375.55 494.21 Q1381.34 494.21 1384.72 497.381 Q1388.1 500.552 1388.1 505.969 Q1388.1 511.548 1384.63 514.649 Q1381.15 517.728 1374.83 517.728 Q1372.66 517.728 1370.39 517.358 Q1368.14 516.987 1365.74 516.247 L1365.74 511.548 Q1367.82 512.682 1370.04 513.237 Q1372.26 513.793 1374.74 513.793 Q1378.75 513.793 1381.08 511.687 Q1383.42 509.58 1383.42 505.969 Q1383.42 502.358 1381.08 500.251 Q1378.75 498.145 1374.74 498.145 Q1372.87 498.145 1370.99 498.562 Q1369.14 498.978 1367.2 499.858 L1367.2 482.497 Z" fill="#000000" fill-rule="nonzero" fill-opacity="1" /><path clip-path="url(#clip650)" d="M1300.76 408.043 Q1297.15 408.043 1295.32 411.608 Q1293.52 415.15 1293.52 422.28 Q1293.52 429.386 1295.32 432.951 Q1297.15 436.492 1300.76 436.492 Q1304.39 436.492 1306.2 432.951 Q1308.03 429.386 1308.03 422.28 Q1308.03 415.15 1306.2 411.608 Q1304.39 408.043 1300.76 408.043 M1300.76 404.34 Q1306.57 404.34 1309.63 408.946 Q1312.7 413.53 1312.7 422.28 Q1312.7 431.006 1309.63 435.613 Q1306.57 440.196 1300.76 440.196 Q1294.95 440.196 1291.87 435.613 Q1288.82 431.006 1288.82 422.28 Q1288.82 413.53 1291.87 408.946 Q1294.95 404.34 1300.76 404.34 Z" fill="#000000" fill-rule="nonzero" fill-opacity="1" /><path clip-path="url(#clip650)" d="M1320.92 433.645 L1325.81 433.645 L1325.81 439.525 L1320.92 439.525 L1320.92 433.645 Z" fill="#000000" fill-rule="nonzero" fill-opacity="1" /><path clip-path="url(#clip650)" d="M1345.99 408.043 Q1342.38 408.043 1340.55 411.608 Q1338.75 415.15 1338.75 422.28 Q1338.75 429.386 1340.55 432.951 Q1342.38 436.492 1345.99 436.492 Q1349.63 436.492 1351.43 432.951 Q1353.26 429.386 1353.26 422.28 Q1353.26 415.15 1351.43 411.608 Q1349.63 408.043 1345.99 408.043 M1345.99 404.34 Q1351.8 404.34 1354.86 408.946 Q1357.94 413.53 1357.94 422.28 Q1357.94 431.006 1354.86 435.613 Q1351.8 440.196 1345.99 440.196 Q1340.18 440.196 1337.1 435.613 Q1334.05 431.006 1334.05 422.28 Q1334.05 413.53 1337.1 408.946 Q1340.18 404.34 1345.99 404.34 Z" fill="#000000" fill-rule="nonzero" fill-opacity="1" /><path clip-path="url(#clip650)" d="M1376.15 408.043 Q1372.54 408.043 1370.71 411.608 Q1368.91 415.15 1368.91 422.28 Q1368.91 429.386 1370.71 432.951 Q1372.54 436.492 1376.15 436.492 Q1379.79 436.492 1381.59 432.951 Q1383.42 429.386 1383.42 422.28 Q1383.42 415.15 1381.59 411.608 Q1379.79 408.043 1376.15 408.043 M1376.15 404.34 Q1381.96 404.34 1385.02 408.946 Q1388.1 413.53 1388.1 422.28 Q1388.1 431.006 1385.02 435.613 Q1381.96 440.196 1376.15 440.196 Q1370.34 440.196 1367.26 435.613 Q1364.21 431.006 1364.21 422.28 Q1364.21 413.53 1367.26 408.946 Q1370.34 404.34 1376.15 404.34 Z" fill="#000000" fill-rule="nonzero" fill-opacity="1" /><path clip-path="url(#clip650)" d="M1301.76 330.511 Q1298.14 330.511 1296.32 334.076 Q1294.51 337.618 1294.51 344.747 Q1294.51 351.854 1296.32 355.419 Q1298.14 358.96 1301.76 358.96 Q1305.39 358.96 1307.2 355.419 Q1309.02 351.854 1309.02 344.747 Q1309.02 337.618 1307.2 334.076 Q1305.39 330.511 1301.76 330.511 M1301.76 326.808 Q1307.57 326.808 1310.62 331.414 Q1313.7 335.997 1313.7 344.747 Q1313.7 353.474 1310.62 358.081 Q1307.57 362.664 1301.76 362.664 Q1295.95 362.664 1292.87 358.081 Q1289.81 353.474 1289.81 344.747 Q1289.81 335.997 1292.87 331.414 Q1295.95 326.808 1301.76 326.808 Z" fill="#000000" fill-rule="nonzero" fill-opacity="1" /><path clip-path="url(#clip650)" d="M1321.92 356.113 L1326.8 356.113 L1326.8 361.993 L1321.92 361.993 L1321.92 356.113 Z" fill="#000000" fill-rule="nonzero" fill-opacity="1" /><path clip-path="url(#clip650)" d="M1346.99 330.511 Q1343.38 330.511 1341.55 334.076 Q1339.74 337.618 1339.74 344.747 Q1339.74 351.854 1341.55 355.419 Q1343.38 358.96 1346.99 358.96 Q1350.62 358.96 1352.43 355.419 Q1354.26 351.854 1354.26 344.747 Q1354.26 337.618 1352.43 334.076 Q1350.62 330.511 1346.99 330.511 M1346.99 326.808 Q1352.8 326.808 1355.85 331.414 Q1358.93 335.997 1358.93 344.747 Q1358.93 353.474 1355.85 358.081 Q1352.8 362.664 1346.99 362.664 Q1341.18 362.664 1338.1 358.081 Q1335.04 353.474 1335.04 344.747 Q1335.04 335.997 1338.1 331.414 Q1341.18 326.808 1346.99 326.808 Z" fill="#000000" fill-rule="nonzero" fill-opacity="1" /><path clip-path="url(#clip650)" d="M1367.2 327.433 L1385.55 327.433 L1385.55 331.368 L1371.48 331.368 L1371.48 339.84 Q1372.5 339.493 1373.51 339.331 Q1374.53 339.146 1375.55 339.146 Q1381.34 339.146 1384.72 342.317 Q1388.1 345.488 1388.1 350.905 Q1388.1 356.483 1384.63 359.585 Q1381.15 362.664 1374.83 362.664 Q1372.66 362.664 1370.39 362.294 Q1368.14 361.923 1365.74 361.183 L1365.74 356.483 Q1367.82 357.618 1370.04 358.173 Q1372.26 358.729 1374.74 358.729 Q1378.75 358.729 1381.08 356.622 Q1383.42 354.516 1383.42 350.905 Q1383.42 347.294 1381.08 345.187 Q1378.75 343.081 1374.74 343.081 Q1372.87 343.081 1370.99 343.497 Q1369.14 343.914 1367.2 344.794 L1367.2 327.433 Z" fill="#000000" fill-rule="nonzero" fill-opacity="1" /><path clip-path="url(#clip650)" d="M1300.76 252.979 Q1297.15 252.979 1295.32 256.544 Q1293.52 260.086 1293.52 267.215 Q1293.52 274.322 1295.32 277.887 Q1297.15 281.428 1300.76 281.428 Q1304.39 281.428 1306.2 277.887 Q1308.03 274.322 1308.03 267.215 Q1308.03 260.086 1306.2 256.544 Q1304.39 252.979 1300.76 252.979 M1300.76 249.276 Q1306.57 249.276 1309.63 253.882 Q1312.7 258.465 1312.7 267.215 Q1312.7 275.942 1309.63 280.549 Q1306.57 285.132 1300.76 285.132 Q1294.95 285.132 1291.87 280.549 Q1288.82 275.942 1288.82 267.215 Q1288.82 258.465 1291.87 253.882 Q1294.95 249.276 1300.76 249.276 Z" fill="#000000" fill-rule="nonzero" fill-opacity="1" /><path clip-path="url(#clip650)" d="M1320.92 278.581 L1325.81 278.581 L1325.81 284.461 L1320.92 284.461 L1320.92 278.581 Z" fill="#000000" fill-rule="nonzero" fill-opacity="1" /><path clip-path="url(#clip650)" d="M1336.8 280.525 L1344.44 280.525 L1344.44 254.16 L1336.13 255.827 L1336.13 251.567 L1344.39 249.901 L1349.07 249.901 L1349.07 280.525 L1356.71 280.525 L1356.71 284.461 L1336.8 284.461 L1336.8 280.525 Z" fill="#000000" fill-rule="nonzero" fill-opacity="1" /><path clip-path="url(#clip650)" d="M1376.15 252.979 Q1372.54 252.979 1370.71 256.544 Q1368.91 260.086 1368.91 267.215 Q1368.91 274.322 1370.71 277.887 Q1372.54 281.428 1376.15 281.428 Q1379.79 281.428 1381.59 277.887 Q1383.42 274.322 1383.42 267.215 Q1383.42 260.086 1381.59 256.544 Q1379.79 252.979 1376.15 252.979 M1376.15 249.276 Q1381.96 249.276 1385.02 253.882 Q1388.1 258.465 1388.1 267.215 Q1388.1 275.942 1385.02 280.549 Q1381.96 285.132 1376.15 285.132 Q1370.34 285.132 1367.26 280.549 Q1364.21 275.942 1364.21 267.215 Q1364.21 258.465 1367.26 253.882 Q1370.34 249.276 1376.15 249.276 Z" fill="#000000" fill-rule="nonzero" fill-opacity="1" /><path clip-path="url(#clip650)" d="M1301.76 175.447 Q1298.14 175.447 1296.32 179.012 Q1294.51 182.554 1294.51 189.683 Q1294.51 196.79 1296.32 200.355 Q1298.14 203.896 1301.76 203.896 Q1305.39 203.896 1307.2 200.355 Q1309.02 196.79 1309.02 189.683 Q1309.02 182.554 1307.2 179.012 Q1305.39 175.447 1301.76 175.447 M1301.76 171.744 Q1307.57 171.744 1310.62 176.35 Q1313.7 180.933 1313.7 189.683 Q1313.7 198.41 1310.62 203.017 Q1307.57 207.6 1301.76 207.6 Q1295.95 207.6 1292.87 203.017 Q1289.81 198.41 1289.81 189.683 Q1289.81 180.933 1292.87 176.35 Q1295.95 171.744 1301.76 171.744 Z" fill="#000000" fill-rule="nonzero" fill-opacity="1" /><path clip-path="url(#clip650)" d="M1321.92 201.049 L1326.8 201.049 L1326.8 206.929 L1321.92 206.929 L1321.92 201.049 Z" fill="#000000" fill-rule="nonzero" fill-opacity="1" /><path clip-path="url(#clip650)" d="M1337.8 202.993 L1345.44 202.993 L1345.44 176.628 L1337.13 178.294 L1337.13 174.035 L1345.39 172.369 L1350.07 172.369 L1350.07 202.993 L1357.7 202.993 L1357.7 206.929 L1337.8 206.929 L1337.8 202.993 Z" fill="#000000" fill-rule="nonzero" fill-opacity="1" /><path clip-path="url(#clip650)" d="M1367.2 172.369 L1385.55 172.369 L1385.55 176.304 L1371.48 176.304 L1371.48 184.776 Q1372.5 184.429 1373.51 184.267 Q1374.53 184.081 1375.55 184.081 Q1381.34 184.081 1384.72 187.253 Q1388.1 190.424 1388.1 195.841 Q1388.1 201.419 1384.63 204.521 Q1381.15 207.6 1374.83 207.6 Q1372.66 207.6 1370.39 207.229 Q1368.14 206.859 1365.74 206.118 L1365.74 201.419 Q1367.82 202.554 1370.04 203.109 Q1372.26 203.665 1374.74 203.665 Q1378.75 203.665 1381.08 201.558 Q1383.42 199.452 1383.42 195.841 Q1383.42 192.23 1381.08 190.123 Q1378.75 188.017 1374.74 188.017 Q1372.87 188.017 1370.99 188.433 Q1369.14 188.85 1367.2 189.73 L1367.2 172.369 Z" fill="#000000" fill-rule="nonzero" fill-opacity="1" /><path clip-path="url(#clip650)" d="M1762.77 14.324 L1762.77 27.2059 L1778.12 27.2059 L1778.12 32.9987 L1762.77 32.9987 L1762.77 57.6282 Q1762.77 63.1779 1764.27 64.7578 Q1765.81 66.3376 1770.46 66.3376 L1778.12 66.3376 L1778.12 72.576 L1770.46 72.576 Q1761.84 72.576 1758.55 69.3758 Q1755.27 66.1351 1755.27 57.6282 L1755.27 32.9987 L1749.8 32.9987 L1749.8 27.2059 L1755.27 27.2059 L1755.27 14.324 L1762.77 14.324 Z" fill="#000000" fill-rule="nonzero" fill-opacity="1" /><path clip-path="url(#clip650)" d="M1815.27 34.9026 L1867.2 34.9026 L1867.2 41.7081 L1815.27 41.7081 L1815.27 34.9026 M1815.27 51.4303 L1867.2 51.4303 L1867.2 58.3168 L1815.27 58.3168 L1815.27 51.4303 Z" fill="#000000" fill-rule="nonzero" fill-opacity="1" /><path clip-path="url(#clip650)" d="M1928.73 17.4837 Q1922.41 17.4837 1919.21 23.7221 Q1916.05 29.92 1916.05 42.3968 Q1916.05 54.833 1919.21 61.0714 Q1922.41 67.2693 1928.73 67.2693 Q1935.09 67.2693 1938.25 61.0714 Q1941.45 54.833 1941.45 42.3968 Q1941.45 29.92 1938.25 23.7221 Q1935.09 17.4837 1928.73 17.4837 M1928.73 11.0023 Q1938.9 11.0023 1944.25 19.0636 Q1949.64 27.0843 1949.64 42.3968 Q1949.64 57.6687 1944.25 65.73 Q1938.9 73.7508 1928.73 73.7508 Q1918.57 73.7508 1913.18 65.73 Q1907.83 57.6687 1907.83 42.3968 Q1907.83 27.0843 1913.18 19.0636 Q1918.57 11.0023 1928.73 11.0023 Z" fill="#000000" fill-rule="nonzero" fill-opacity="1" /><path clip-path="url(#clip650)" d="M1964.02 62.2867 L1972.56 62.2867 L1972.56 72.576 L1964.02 72.576 L1964.02 62.2867 Z" fill="#000000" fill-rule="nonzero" fill-opacity="1" /><path clip-path="url(#clip650)" d="M1990.47 12.096 L2022.59 12.096 L2022.59 18.9825 L1997.96 18.9825 L1997.96 33.8088 Q1999.75 33.2012 2001.53 32.9176 Q2003.31 32.5936 2005.09 32.5936 Q2015.22 32.5936 2021.13 38.1433 Q2027.05 43.6931 2027.05 53.1722 Q2027.05 62.9348 2020.97 68.3631 Q2014.9 73.7508 2003.84 73.7508 Q2000.03 73.7508 1996.06 73.1026 Q1992.13 72.4545 1987.92 71.1582 L1987.92 62.9348 Q1991.56 64.9198 1995.45 65.892 Q1999.34 66.8642 2003.68 66.8642 Q2010.68 66.8642 2014.77 63.1779 Q2018.87 59.4916 2018.87 53.1722 Q2018.87 46.8528 2014.77 43.1664 Q2010.68 39.4801 2003.68 39.4801 Q2000.39 39.4801 1997.11 40.2093 Q1993.87 40.9384 1990.47 42.4778 L1990.47 12.096 Z" fill="#000000" fill-rule="nonzero" fill-opacity="1" /><polyline clip-path="url(#clip653)" style="stroke:#009af9; stroke-linecap:round; stroke-linejoin:round; stroke-width:4; stroke-opacity:1; fill:none" points="1450.38,139.405 1454.76,141.615 1459.14,143.833 1463.52,146.06 1467.9,148.297 1472.28,150.542 1476.66,152.797 1481.04,155.06 1485.42,157.333 1489.8,159.614 1494.19,161.905 1498.57,164.204 1502.95,166.512 1507.33,168.829 1511.71,171.155 1516.09,173.489 1520.47,175.833 1524.85,178.185 1529.23,180.546 1533.61,182.915 1537.99,185.293 1542.37,187.68 1546.75,190.075 1551.13,192.479 1555.51,194.891 1559.89,197.311 1564.27,199.74 1568.65,202.178 1573.03,204.623 1577.41,207.077 1581.79,209.539 1586.17,212.009 1590.56,214.487 1594.94,216.973 1599.32,219.467 1603.7,221.969 1608.08,224.479 1612.46,226.997 1616.84,229.522 1621.22,232.055 1625.6,234.596 1629.98,237.144 1634.36,239.7 1638.74,242.263 1643.12,244.833 1647.5,247.411 1651.88,249.996 1656.26,252.588 1660.64,255.187 1665.02,257.793 1669.4,260.406 1673.78,263.026 1678.16,265.653 1682.55,268.286 1686.93,270.926 1691.31,273.572 1695.69,276.225 1700.07,278.884 1704.45,281.549 1708.83,284.221 1713.21,286.898 1717.59,289.582 1721.97,292.271 1726.35,294.966 1730.73,297.667 1735.11,300.374 1739.49,303.086 1743.87,305.804 1748.25,308.526 1752.63,311.255 1757.01,313.988 1761.39,316.726 1765.77,319.469 1770.15,322.217 1774.53,324.97 1778.92,327.727 1783.3,330.489 1787.68,333.255 1792.06,336.026 1796.44,338.801 1800.82,341.579 1805.2,344.362 1809.58,347.149 1813.96,349.939 1818.34,352.733 1822.72,355.531 1827.1,358.332 1831.48,361.136 1835.86,363.944 1840.24,366.754 1844.62,369.568 1849,372.384 1853.38,375.203 1857.76,378.024 1862.14,380.849 1866.52,383.675 1870.91,386.504 1875.29,389.335 1879.67,392.167 1884.05,395.002 1888.43,397.839 1892.81,400.677 1897.19,403.516 1901.57,406.357 1905.95,409.2 1910.33,412.043 1914.71,414.887 1919.09,417.733 1923.47,420.579 1927.85,423.426 1932.23,426.273 1936.61,429.121 1940.99,431.969 1945.37,434.817 1949.75,437.665 1954.13,440.514 1958.51,443.362 1962.89,446.209 1967.28,449.056 1971.66,451.903 1976.04,454.749 1980.42,457.594 1984.8,460.438 1989.18,463.282 1993.56,466.124 1997.94,468.964 2002.32,471.803 2006.7,474.641 2011.08,477.477 2015.46,480.312 2019.84,483.144 2024.22,485.974 2028.6,488.803 2032.98,491.629 2037.36,494.452 2041.74,497.273 2046.12,500.092 2050.5,502.908 2054.88,505.721 2059.26,508.531 2063.65,511.338 2068.03,514.142 2072.41,516.942 2076.79,519.74 2081.17,522.533 2085.55,525.324 2089.93,528.11 2094.31,530.893 2098.69,533.671 2103.07,536.446 2107.45,539.217 2111.83,541.983 2116.21,544.745 2120.59,547.503 2124.97,550.256 2129.35,553.004 2133.73,555.748 2138.11,558.487 2142.49,561.221 2146.87,563.95 2151.25,566.674 2155.64,569.392 2160.02,572.106 2164.4,574.814 2168.78,577.516 2173.16,580.213 2177.54,582.904 2181.92,585.59 2186.3,588.27 2190.68,590.944 2195.06,593.612 2199.44,596.273 2203.82,598.929 2208.2,601.579 2212.58,604.222 2216.96,606.859 2221.34,609.489 2225.72,612.113 2230.1,614.73 2234.48,617.341 2238.86,619.945 2243.24,622.542 2247.62,625.132 2252.01,627.715 2256.39,630.292 2260.77,632.861 2265.15,635.423 2269.53,637.978 2273.91,640.526 2278.29,643.066 2282.67,645.599 2287.05,648.125 2291.43,650.643 2295.81,653.154 2300.19,655.657 2304.57,658.153 2308.95,660.641 2313.33,663.121 2317.71,665.593 2322.09,668.058 2326.47,670.515 "/>
<path clip-path="url(#clip650)" d="M2176.5 245.918 L2321.8 245.918 L2321.8 142.238 L2176.5 142.238  Z" fill="#ffffff" fill-rule="evenodd" fill-opacity="1"/>
<polyline clip-path="url(#clip650)" style="stroke:#000000; stroke-linecap:round; stroke-linejoin:round; stroke-width:4; stroke-opacity:1; fill:none" points="2176.5,245.918 2321.8,245.918 2321.8,142.238 2176.5,142.238 2176.5,245.918 "/>
<polyline clip-path="url(#clip650)" style="stroke:#009af9; stroke-linecap:round; stroke-linejoin:round; stroke-width:4; stroke-opacity:1; fill:none" points="2186.82,194.078 2248.73,194.078 "/>
<path clip-path="url(#clip650)" d="M2272.89 213.765 Q2271.09 218.395 2269.38 219.807 Q2267.66 221.219 2264.79 221.219 L2261.39 221.219 L2261.39 217.654 L2263.89 217.654 Q2265.65 217.654 2266.62 216.821 Q2267.59 215.988 2268.77 212.886 L2269.54 210.941 L2259.05 185.432 L2263.57 185.432 L2271.67 205.71 L2279.77 185.432 L2284.28 185.432 L2272.89 213.765 Z" fill="#000000" fill-rule="nonzero" fill-opacity="1" /><path clip-path="url(#clip650)" d="M2291.57 207.423 L2299.21 207.423 L2299.21 181.057 L2290.9 182.724 L2290.9 178.465 L2299.17 176.798 L2303.84 176.798 L2303.84 207.423 L2311.48 207.423 L2311.48 211.358 L2291.57 211.358 L2291.57 207.423 Z" fill="#000000" fill-rule="nonzero" fill-opacity="1" /><path clip-path="url(#clip650)" d="M224.098 1486.45 L1152.76 1486.45 L1152.76 923.472 L224.098 923.472  Z" fill="#ffffff" fill-rule="evenodd" fill-opacity="1"/>
<defs>
  <clipPath id="clip654">
    <rect x="224" y="923" width="930" height="564"/>
  </clipPath>
</defs>
<polyline clip-path="url(#clip654)" style="stroke:#000000; stroke-linecap:round; stroke-linejoin:round; stroke-width:2; stroke-opacity:0.1; fill:none" points="250.381,1486.45 250.381,923.472 "/>
<polyline clip-path="url(#clip654)" style="stroke:#000000; stroke-linecap:round; stroke-linejoin:round; stroke-width:2; stroke-opacity:0.1; fill:none" points="469.404,1486.45 469.404,923.472 "/>
<polyline clip-path="url(#clip654)" style="stroke:#000000; stroke-linecap:round; stroke-linejoin:round; stroke-width:2; stroke-opacity:0.1; fill:none" points="688.427,1486.45 688.427,923.472 "/>
<polyline clip-path="url(#clip654)" style="stroke:#000000; stroke-linecap:round; stroke-linejoin:round; stroke-width:2; stroke-opacity:0.1; fill:none" points="907.45,1486.45 907.45,923.472 "/>
<polyline clip-path="url(#clip654)" style="stroke:#000000; stroke-linecap:round; stroke-linejoin:round; stroke-width:2; stroke-opacity:0.1; fill:none" points="1126.47,1486.45 1126.47,923.472 "/>
<polyline clip-path="url(#clip650)" style="stroke:#000000; stroke-linecap:round; stroke-linejoin:round; stroke-width:4; stroke-opacity:1; fill:none" points="224.098,1486.45 1152.76,1486.45 "/>
<polyline clip-path="url(#clip650)" style="stroke:#000000; stroke-linecap:round; stroke-linejoin:round; stroke-width:4; stroke-opacity:1; fill:none" points="250.381,1486.45 250.381,1467.55 "/>
<polyline clip-path="url(#clip650)" style="stroke:#000000; stroke-linecap:round; stroke-linejoin:round; stroke-width:4; stroke-opacity:1; fill:none" points="469.404,1486.45 469.404,1467.55 "/>
<polyline clip-path="url(#clip650)" style="stroke:#000000; stroke-linecap:round; stroke-linejoin:round; stroke-width:4; stroke-opacity:1; fill:none" points="688.427,1486.45 688.427,1467.55 "/>
<polyline clip-path="url(#clip650)" style="stroke:#000000; stroke-linecap:round; stroke-linejoin:round; stroke-width:4; stroke-opacity:1; fill:none" points="907.45,1486.45 907.45,1467.55 "/>
<polyline clip-path="url(#clip650)" style="stroke:#000000; stroke-linecap:round; stroke-linejoin:round; stroke-width:4; stroke-opacity:1; fill:none" points="1126.47,1486.45 1126.47,1467.55 "/>
<path clip-path="url(#clip650)" d="M196.909 1532.02 L226.584 1532.02 L226.584 1535.95 L196.909 1535.95 L196.909 1532.02 Z" fill="#000000" fill-rule="nonzero" fill-opacity="1" /><path clip-path="url(#clip650)" d="M237.487 1544.91 L245.126 1544.91 L245.126 1518.55 L236.816 1520.21 L236.816 1515.95 L245.08 1514.29 L249.756 1514.29 L249.756 1544.91 L257.394 1544.91 L257.394 1548.85 L237.487 1548.85 L237.487 1544.91 Z" fill="#000000" fill-rule="nonzero" fill-opacity="1" /><path clip-path="url(#clip650)" d="M266.839 1542.97 L271.723 1542.97 L271.723 1548.85 L266.839 1548.85 L266.839 1542.97 Z" fill="#000000" fill-rule="nonzero" fill-opacity="1" /><path clip-path="url(#clip650)" d="M291.908 1517.37 Q288.297 1517.37 286.468 1520.93 Q284.663 1524.47 284.663 1531.6 Q284.663 1538.71 286.468 1542.27 Q288.297 1545.82 291.908 1545.82 Q295.542 1545.82 297.348 1542.27 Q299.177 1538.71 299.177 1531.6 Q299.177 1524.47 297.348 1520.93 Q295.542 1517.37 291.908 1517.37 M291.908 1513.66 Q297.718 1513.66 300.774 1518.27 Q303.853 1522.85 303.853 1531.6 Q303.853 1540.33 300.774 1544.94 Q297.718 1549.52 291.908 1549.52 Q286.098 1549.52 283.019 1544.94 Q279.964 1540.33 279.964 1531.6 Q279.964 1522.85 283.019 1518.27 Q286.098 1513.66 291.908 1513.66 Z" fill="#000000" fill-rule="nonzero" fill-opacity="1" /><path clip-path="url(#clip650)" d="M416.43 1532.02 L446.105 1532.02 L446.105 1535.95 L416.43 1535.95 L416.43 1532.02 Z" fill="#000000" fill-rule="nonzero" fill-opacity="1" /><path clip-path="url(#clip650)" d="M466.198 1517.37 Q462.587 1517.37 460.758 1520.93 Q458.952 1524.47 458.952 1531.6 Q458.952 1538.71 460.758 1542.27 Q462.587 1545.82 466.198 1545.82 Q469.832 1545.82 471.638 1542.27 Q473.466 1538.71 473.466 1531.6 Q473.466 1524.47 471.638 1520.93 Q469.832 1517.37 466.198 1517.37 M466.198 1513.66 Q472.008 1513.66 475.063 1518.27 Q478.142 1522.85 478.142 1531.6 Q478.142 1540.33 475.063 1544.94 Q472.008 1549.52 466.198 1549.52 Q460.388 1549.52 457.309 1544.94 Q454.253 1540.33 454.253 1531.6 Q454.253 1522.85 457.309 1518.27 Q460.388 1513.66 466.198 1513.66 Z" fill="#000000" fill-rule="nonzero" fill-opacity="1" /><path clip-path="url(#clip650)" d="M486.36 1542.97 L491.244 1542.97 L491.244 1548.85 L486.36 1548.85 L486.36 1542.97 Z" fill="#000000" fill-rule="nonzero" fill-opacity="1" /><path clip-path="url(#clip650)" d="M501.475 1514.29 L519.832 1514.29 L519.832 1518.22 L505.758 1518.22 L505.758 1526.7 Q506.776 1526.35 507.795 1526.19 Q508.813 1526 509.832 1526 Q515.619 1526 518.998 1529.17 Q522.378 1532.34 522.378 1537.76 Q522.378 1543.34 518.906 1546.44 Q515.434 1549.52 509.114 1549.52 Q506.938 1549.52 504.67 1549.15 Q502.424 1548.78 500.017 1548.04 L500.017 1543.34 Q502.1 1544.47 504.323 1545.03 Q506.545 1545.58 509.022 1545.58 Q513.026 1545.58 515.364 1543.48 Q517.702 1541.37 517.702 1537.76 Q517.702 1534.15 515.364 1532.04 Q513.026 1529.94 509.022 1529.94 Q507.147 1529.94 505.272 1530.35 Q503.42 1530.77 501.475 1531.65 L501.475 1514.29 Z" fill="#000000" fill-rule="nonzero" fill-opacity="1" /><path clip-path="url(#clip650)" d="M665.811 1517.37 Q662.2 1517.37 660.371 1520.93 Q658.566 1524.47 658.566 1531.6 Q658.566 1538.71 660.371 1542.27 Q662.2 1545.82 665.811 1545.82 Q669.446 1545.82 671.251 1542.27 Q673.08 1538.71 673.08 1531.6 Q673.08 1524.47 671.251 1520.93 Q669.446 1517.37 665.811 1517.37 M665.811 1513.66 Q671.621 1513.66 674.677 1518.27 Q677.756 1522.85 677.756 1531.6 Q677.756 1540.33 674.677 1544.94 Q671.621 1549.52 665.811 1549.52 Q660.001 1549.52 656.922 1544.94 Q653.867 1540.33 653.867 1531.6 Q653.867 1522.85 656.922 1518.27 Q660.001 1513.66 665.811 1513.66 Z" fill="#000000" fill-rule="nonzero" fill-opacity="1" /><path clip-path="url(#clip650)" d="M685.973 1542.97 L690.857 1542.97 L690.857 1548.85 L685.973 1548.85 L685.973 1542.97 Z" fill="#000000" fill-rule="nonzero" fill-opacity="1" /><path clip-path="url(#clip650)" d="M711.043 1517.37 Q707.431 1517.37 705.603 1520.93 Q703.797 1524.47 703.797 1531.6 Q703.797 1538.71 705.603 1542.27 Q707.431 1545.82 711.043 1545.82 Q714.677 1545.82 716.482 1542.27 Q718.311 1538.71 718.311 1531.6 Q718.311 1524.47 716.482 1520.93 Q714.677 1517.37 711.043 1517.37 M711.043 1513.66 Q716.853 1513.66 719.908 1518.27 Q722.987 1522.85 722.987 1531.6 Q722.987 1540.33 719.908 1544.94 Q716.853 1549.52 711.043 1549.52 Q705.232 1549.52 702.154 1544.94 Q699.098 1540.33 699.098 1531.6 Q699.098 1522.85 702.154 1518.27 Q705.232 1513.66 711.043 1513.66 Z" fill="#000000" fill-rule="nonzero" fill-opacity="1" /><path clip-path="url(#clip650)" d="M885.332 1517.37 Q881.721 1517.37 879.892 1520.93 Q878.087 1524.47 878.087 1531.6 Q878.087 1538.71 879.892 1542.27 Q881.721 1545.82 885.332 1545.82 Q888.966 1545.82 890.772 1542.27 Q892.601 1538.71 892.601 1531.6 Q892.601 1524.47 890.772 1520.93 Q888.966 1517.37 885.332 1517.37 M885.332 1513.66 Q891.142 1513.66 894.198 1518.27 Q897.276 1522.85 897.276 1531.6 Q897.276 1540.33 894.198 1544.94 Q891.142 1549.52 885.332 1549.52 Q879.522 1549.52 876.443 1544.94 Q873.388 1540.33 873.388 1531.6 Q873.388 1522.85 876.443 1518.27 Q879.522 1513.66 885.332 1513.66 Z" fill="#000000" fill-rule="nonzero" fill-opacity="1" /><path clip-path="url(#clip650)" d="M905.494 1542.97 L910.378 1542.97 L910.378 1548.85 L905.494 1548.85 L905.494 1542.97 Z" fill="#000000" fill-rule="nonzero" fill-opacity="1" /><path clip-path="url(#clip650)" d="M920.61 1514.29 L938.966 1514.29 L938.966 1518.22 L924.892 1518.22 L924.892 1526.7 Q925.911 1526.35 926.929 1526.19 Q927.948 1526 928.966 1526 Q934.753 1526 938.133 1529.17 Q941.512 1532.34 941.512 1537.76 Q941.512 1543.34 938.04 1546.44 Q934.568 1549.52 928.249 1549.52 Q926.073 1549.52 923.804 1549.15 Q921.559 1548.78 919.151 1548.04 L919.151 1543.34 Q921.235 1544.47 923.457 1545.03 Q925.679 1545.58 928.156 1545.58 Q932.161 1545.58 934.498 1543.48 Q936.836 1541.37 936.836 1537.76 Q936.836 1534.15 934.498 1532.04 Q932.161 1529.94 928.156 1529.94 Q926.281 1529.94 924.406 1530.35 Q922.554 1530.77 920.61 1531.65 L920.61 1514.29 Z" fill="#000000" fill-rule="nonzero" fill-opacity="1" /><path clip-path="url(#clip650)" d="M1093.63 1544.91 L1101.26 1544.91 L1101.26 1518.55 L1092.95 1520.21 L1092.95 1515.95 L1101.22 1514.29 L1105.89 1514.29 L1105.89 1544.91 L1113.53 1544.91 L1113.53 1548.85 L1093.63 1548.85 L1093.63 1544.91 Z" fill="#000000" fill-rule="nonzero" fill-opacity="1" /><path clip-path="url(#clip650)" d="M1122.98 1542.97 L1127.86 1542.97 L1127.86 1548.85 L1122.98 1548.85 L1122.98 1542.97 Z" fill="#000000" fill-rule="nonzero" fill-opacity="1" /><path clip-path="url(#clip650)" d="M1148.05 1517.37 Q1144.44 1517.37 1142.61 1520.93 Q1140.8 1524.47 1140.8 1531.6 Q1140.8 1538.71 1142.61 1542.27 Q1144.44 1545.82 1148.05 1545.82 Q1151.68 1545.82 1153.49 1542.27 Q1155.32 1538.71 1155.32 1531.6 Q1155.32 1524.47 1153.49 1520.93 Q1151.68 1517.37 1148.05 1517.37 M1148.05 1513.66 Q1153.86 1513.66 1156.91 1518.27 Q1159.99 1522.85 1159.99 1531.6 Q1159.99 1540.33 1156.91 1544.94 Q1153.86 1549.52 1148.05 1549.52 Q1142.24 1549.52 1139.16 1544.94 Q1136.1 1540.33 1136.1 1531.6 Q1136.1 1522.85 1139.16 1518.27 Q1142.24 1513.66 1148.05 1513.66 Z" fill="#000000" fill-rule="nonzero" fill-opacity="1" /><polyline clip-path="url(#clip654)" style="stroke:#000000; stroke-linecap:round; stroke-linejoin:round; stroke-width:2; stroke-opacity:0.1; fill:none" points="224.098,1450.12 1152.76,1450.12 "/>
<polyline clip-path="url(#clip654)" style="stroke:#000000; stroke-linecap:round; stroke-linejoin:round; stroke-width:2; stroke-opacity:0.1; fill:none" points="224.098,1371.45 1152.76,1371.45 "/>
<polyline clip-path="url(#clip654)" style="stroke:#000000; stroke-linecap:round; stroke-linejoin:round; stroke-width:2; stroke-opacity:0.1; fill:none" points="224.098,1292.78 1152.76,1292.78 "/>
<polyline clip-path="url(#clip654)" style="stroke:#000000; stroke-linecap:round; stroke-linejoin:round; stroke-width:2; stroke-opacity:0.1; fill:none" points="224.098,1214.11 1152.76,1214.11 "/>
<polyline clip-path="url(#clip654)" style="stroke:#000000; stroke-linecap:round; stroke-linejoin:round; stroke-width:2; stroke-opacity:0.1; fill:none" points="224.098,1135.44 1152.76,1135.44 "/>
<polyline clip-path="url(#clip654)" style="stroke:#000000; stroke-linecap:round; stroke-linejoin:round; stroke-width:2; stroke-opacity:0.1; fill:none" points="224.098,1056.77 1152.76,1056.77 "/>
<polyline clip-path="url(#clip654)" style="stroke:#000000; stroke-linecap:round; stroke-linejoin:round; stroke-width:2; stroke-opacity:0.1; fill:none" points="224.098,978.098 1152.76,978.098 "/>
<polyline clip-path="url(#clip650)" style="stroke:#000000; stroke-linecap:round; stroke-linejoin:round; stroke-width:4; stroke-opacity:1; fill:none" points="224.098,1486.45 224.098,923.472 "/>
<polyline clip-path="url(#clip650)" style="stroke:#000000; stroke-linecap:round; stroke-linejoin:round; stroke-width:4; stroke-opacity:1; fill:none" points="224.098,1450.12 242.996,1450.12 "/>
<polyline clip-path="url(#clip650)" style="stroke:#000000; stroke-linecap:round; stroke-linejoin:round; stroke-width:4; stroke-opacity:1; fill:none" points="224.098,1371.45 242.996,1371.45 "/>
<polyline clip-path="url(#clip650)" style="stroke:#000000; stroke-linecap:round; stroke-linejoin:round; stroke-width:4; stroke-opacity:1; fill:none" points="224.098,1292.78 242.996,1292.78 "/>
<polyline clip-path="url(#clip650)" style="stroke:#000000; stroke-linecap:round; stroke-linejoin:round; stroke-width:4; stroke-opacity:1; fill:none" points="224.098,1214.11 242.996,1214.11 "/>
<polyline clip-path="url(#clip650)" style="stroke:#000000; stroke-linecap:round; stroke-linejoin:round; stroke-width:4; stroke-opacity:1; fill:none" points="224.098,1135.44 242.996,1135.44 "/>
<polyline clip-path="url(#clip650)" style="stroke:#000000; stroke-linecap:round; stroke-linejoin:round; stroke-width:4; stroke-opacity:1; fill:none" points="224.098,1056.77 242.996,1056.77 "/>
<polyline clip-path="url(#clip650)" style="stroke:#000000; stroke-linecap:round; stroke-linejoin:round; stroke-width:4; stroke-opacity:1; fill:none" points="224.098,978.098 242.996,978.098 "/>
<path clip-path="url(#clip650)" d="M51.9875 1450.57 L81.6633 1450.57 L81.6633 1454.5 L51.9875 1454.5 L51.9875 1450.57 Z" fill="#000000" fill-rule="nonzero" fill-opacity="1" /><path clip-path="url(#clip650)" d="M101.756 1435.92 Q98.1447 1435.92 96.316 1439.48 Q94.5104 1443.02 94.5104 1450.15 Q94.5104 1457.26 96.316 1460.82 Q98.1447 1464.36 101.756 1464.36 Q105.39 1464.36 107.196 1460.82 Q109.024 1457.26 109.024 1450.15 Q109.024 1443.02 107.196 1439.48 Q105.39 1435.92 101.756 1435.92 M101.756 1432.21 Q107.566 1432.21 110.621 1436.82 Q113.7 1441.4 113.7 1450.15 Q113.7 1458.88 110.621 1463.48 Q107.566 1468.07 101.756 1468.07 Q95.9456 1468.07 92.8669 1463.48 Q89.8114 1458.88 89.8114 1450.15 Q89.8114 1441.4 92.8669 1436.82 Q95.9456 1432.21 101.756 1432.21 Z" fill="#000000" fill-rule="nonzero" fill-opacity="1" /><path clip-path="url(#clip650)" d="M121.918 1461.52 L126.802 1461.52 L126.802 1467.4 L121.918 1467.4 L121.918 1461.52 Z" fill="#000000" fill-rule="nonzero" fill-opacity="1" /><path clip-path="url(#clip650)" d="M137.797 1463.46 L145.436 1463.46 L145.436 1437.1 L137.126 1438.76 L137.126 1434.5 L145.39 1432.84 L150.066 1432.84 L150.066 1463.46 L157.705 1463.46 L157.705 1467.4 L137.797 1467.4 L137.797 1463.46 Z" fill="#000000" fill-rule="nonzero" fill-opacity="1" /><path clip-path="url(#clip650)" d="M167.195 1432.84 L185.552 1432.84 L185.552 1436.77 L171.478 1436.77 L171.478 1445.24 Q172.496 1444.9 173.515 1444.73 Q174.533 1444.55 175.552 1444.55 Q181.339 1444.55 184.718 1447.72 Q188.098 1450.89 188.098 1456.31 Q188.098 1461.89 184.626 1464.99 Q181.153 1468.07 174.834 1468.07 Q172.658 1468.07 170.39 1467.7 Q168.144 1467.33 165.737 1466.59 L165.737 1461.89 Q167.82 1463.02 170.042 1463.58 Q172.265 1464.13 174.741 1464.13 Q178.746 1464.13 181.084 1462.03 Q183.422 1459.92 183.422 1456.31 Q183.422 1452.7 181.084 1450.59 Q178.746 1448.48 174.741 1448.48 Q172.866 1448.48 170.991 1448.9 Q169.14 1449.32 167.195 1450.2 L167.195 1432.84 Z" fill="#000000" fill-rule="nonzero" fill-opacity="1" /><path clip-path="url(#clip650)" d="M50.9921 1371.9 L80.6679 1371.9 L80.6679 1375.83 L50.9921 1375.83 L50.9921 1371.9 Z" fill="#000000" fill-rule="nonzero" fill-opacity="1" /><path clip-path="url(#clip650)" d="M100.76 1357.25 Q97.1493 1357.25 95.3206 1360.81 Q93.515 1364.35 93.515 1371.48 Q93.515 1378.59 95.3206 1382.15 Q97.1493 1385.69 100.76 1385.69 Q104.395 1385.69 106.2 1382.15 Q108.029 1378.59 108.029 1371.48 Q108.029 1364.35 106.2 1360.81 Q104.395 1357.25 100.76 1357.25 M100.76 1353.54 Q106.571 1353.54 109.626 1358.15 Q112.705 1362.73 112.705 1371.48 Q112.705 1380.21 109.626 1384.81 Q106.571 1389.4 100.76 1389.4 Q94.9502 1389.4 91.8715 1384.81 Q88.816 1380.21 88.816 1371.48 Q88.816 1362.73 91.8715 1358.15 Q94.9502 1353.54 100.76 1353.54 Z" fill="#000000" fill-rule="nonzero" fill-opacity="1" /><path clip-path="url(#clip650)" d="M120.922 1382.85 L125.807 1382.85 L125.807 1388.73 L120.922 1388.73 L120.922 1382.85 Z" fill="#000000" fill-rule="nonzero" fill-opacity="1" /><path clip-path="url(#clip650)" d="M136.802 1384.79 L144.441 1384.79 L144.441 1358.43 L136.131 1360.09 L136.131 1355.83 L144.394 1354.17 L149.07 1354.17 L149.07 1384.79 L156.709 1384.79 L156.709 1388.73 L136.802 1388.73 L136.802 1384.79 Z" fill="#000000" fill-rule="nonzero" fill-opacity="1" /><path clip-path="url(#clip650)" d="M176.153 1357.25 Q172.542 1357.25 170.714 1360.81 Q168.908 1364.35 168.908 1371.48 Q168.908 1378.59 170.714 1382.15 Q172.542 1385.69 176.153 1385.69 Q179.788 1385.69 181.593 1382.15 Q183.422 1378.59 183.422 1371.48 Q183.422 1364.35 181.593 1360.81 Q179.788 1357.25 176.153 1357.25 M176.153 1353.54 Q181.964 1353.54 185.019 1358.15 Q188.098 1362.73 188.098 1371.48 Q188.098 1380.21 185.019 1384.81 Q181.964 1389.4 176.153 1389.4 Q170.343 1389.4 167.265 1384.81 Q164.209 1380.21 164.209 1371.48 Q164.209 1362.73 167.265 1358.15 Q170.343 1353.54 176.153 1353.54 Z" fill="#000000" fill-rule="nonzero" fill-opacity="1" /><path clip-path="url(#clip650)" d="M51.9875 1293.23 L81.6633 1293.23 L81.6633 1297.16 L51.9875 1297.16 L51.9875 1293.23 Z" fill="#000000" fill-rule="nonzero" fill-opacity="1" /><path clip-path="url(#clip650)" d="M101.756 1278.58 Q98.1447 1278.58 96.316 1282.14 Q94.5104 1285.68 94.5104 1292.81 Q94.5104 1299.92 96.316 1303.48 Q98.1447 1307.02 101.756 1307.02 Q105.39 1307.02 107.196 1303.48 Q109.024 1299.92 109.024 1292.81 Q109.024 1285.68 107.196 1282.14 Q105.39 1278.58 101.756 1278.58 M101.756 1274.87 Q107.566 1274.87 110.621 1279.48 Q113.7 1284.06 113.7 1292.81 Q113.7 1301.54 110.621 1306.14 Q107.566 1310.73 101.756 1310.73 Q95.9456 1310.73 92.8669 1306.14 Q89.8114 1301.54 89.8114 1292.81 Q89.8114 1284.06 92.8669 1279.48 Q95.9456 1274.87 101.756 1274.87 Z" fill="#000000" fill-rule="nonzero" fill-opacity="1" /><path clip-path="url(#clip650)" d="M121.918 1304.18 L126.802 1304.18 L126.802 1310.06 L121.918 1310.06 L121.918 1304.18 Z" fill="#000000" fill-rule="nonzero" fill-opacity="1" /><path clip-path="url(#clip650)" d="M146.987 1278.58 Q143.376 1278.58 141.547 1282.14 Q139.742 1285.68 139.742 1292.81 Q139.742 1299.92 141.547 1303.48 Q143.376 1307.02 146.987 1307.02 Q150.621 1307.02 152.427 1303.48 Q154.255 1299.92 154.255 1292.81 Q154.255 1285.68 152.427 1282.14 Q150.621 1278.58 146.987 1278.58 M146.987 1274.87 Q152.797 1274.87 155.853 1279.48 Q158.931 1284.06 158.931 1292.81 Q158.931 1301.54 155.853 1306.14 Q152.797 1310.73 146.987 1310.73 Q141.177 1310.73 138.098 1306.14 Q135.043 1301.54 135.043 1292.81 Q135.043 1284.06 138.098 1279.48 Q141.177 1274.87 146.987 1274.87 Z" fill="#000000" fill-rule="nonzero" fill-opacity="1" /><path clip-path="url(#clip650)" d="M167.195 1275.5 L185.552 1275.5 L185.552 1279.43 L171.478 1279.43 L171.478 1287.9 Q172.496 1287.56 173.515 1287.4 Q174.533 1287.21 175.552 1287.21 Q181.339 1287.21 184.718 1290.38 Q188.098 1293.55 188.098 1298.97 Q188.098 1304.55 184.626 1307.65 Q181.153 1310.73 174.834 1310.73 Q172.658 1310.73 170.39 1310.36 Q168.144 1309.99 165.737 1309.25 L165.737 1304.55 Q167.82 1305.68 170.042 1306.24 Q172.265 1306.79 174.741 1306.79 Q178.746 1306.79 181.084 1304.69 Q183.422 1302.58 183.422 1298.97 Q183.422 1295.36 181.084 1293.25 Q178.746 1291.15 174.741 1291.15 Q172.866 1291.15 170.991 1291.56 Q169.14 1291.98 167.195 1292.86 L167.195 1275.5 Z" fill="#000000" fill-rule="nonzero" fill-opacity="1" /><path clip-path="url(#clip650)" d="M100.76 1199.91 Q97.1493 1199.91 95.3206 1203.47 Q93.515 1207.01 93.515 1214.14 Q93.515 1221.25 95.3206 1224.81 Q97.1493 1228.35 100.76 1228.35 Q104.395 1228.35 106.2 1224.81 Q108.029 1221.25 108.029 1214.14 Q108.029 1207.01 106.2 1203.47 Q104.395 1199.91 100.76 1199.91 M100.76 1196.2 Q106.571 1196.2 109.626 1200.81 Q112.705 1205.39 112.705 1214.14 Q112.705 1222.87 109.626 1227.48 Q106.571 1232.06 100.76 1232.06 Q94.9502 1232.06 91.8715 1227.48 Q88.816 1222.87 88.816 1214.14 Q88.816 1205.39 91.8715 1200.81 Q94.9502 1196.2 100.76 1196.2 Z" fill="#000000" fill-rule="nonzero" fill-opacity="1" /><path clip-path="url(#clip650)" d="M120.922 1225.51 L125.807 1225.51 L125.807 1231.39 L120.922 1231.39 L120.922 1225.51 Z" fill="#000000" fill-rule="nonzero" fill-opacity="1" /><path clip-path="url(#clip650)" d="M145.992 1199.91 Q142.381 1199.91 140.552 1203.47 Q138.746 1207.01 138.746 1214.14 Q138.746 1221.25 140.552 1224.81 Q142.381 1228.35 145.992 1228.35 Q149.626 1228.35 151.431 1224.81 Q153.26 1221.25 153.26 1214.14 Q153.26 1207.01 151.431 1203.47 Q149.626 1199.91 145.992 1199.91 M145.992 1196.2 Q151.802 1196.2 154.857 1200.81 Q157.936 1205.39 157.936 1214.14 Q157.936 1222.87 154.857 1227.48 Q151.802 1232.06 145.992 1232.06 Q140.181 1232.06 137.103 1227.48 Q134.047 1222.87 134.047 1214.14 Q134.047 1205.39 137.103 1200.81 Q140.181 1196.2 145.992 1196.2 Z" fill="#000000" fill-rule="nonzero" fill-opacity="1" /><path clip-path="url(#clip650)" d="M176.153 1199.91 Q172.542 1199.91 170.714 1203.47 Q168.908 1207.01 168.908 1214.14 Q168.908 1221.25 170.714 1224.81 Q172.542 1228.35 176.153 1228.35 Q179.788 1228.35 181.593 1224.81 Q183.422 1221.25 183.422 1214.14 Q183.422 1207.01 181.593 1203.47 Q179.788 1199.91 176.153 1199.91 M176.153 1196.2 Q181.964 1196.2 185.019 1200.81 Q188.098 1205.39 188.098 1214.14 Q188.098 1222.87 185.019 1227.48 Q181.964 1232.06 176.153 1232.06 Q170.343 1232.06 167.265 1227.48 Q164.209 1222.87 164.209 1214.14 Q164.209 1205.39 167.265 1200.81 Q170.343 1196.2 176.153 1196.2 Z" fill="#000000" fill-rule="nonzero" fill-opacity="1" /><path clip-path="url(#clip650)" d="M101.756 1121.24 Q98.1447 1121.24 96.316 1124.8 Q94.5104 1128.34 94.5104 1135.47 Q94.5104 1142.58 96.316 1146.14 Q98.1447 1149.69 101.756 1149.69 Q105.39 1149.69 107.196 1146.14 Q109.024 1142.58 109.024 1135.47 Q109.024 1128.34 107.196 1124.8 Q105.39 1121.24 101.756 1121.24 M101.756 1117.53 Q107.566 1117.53 110.621 1122.14 Q113.7 1126.72 113.7 1135.47 Q113.7 1144.2 110.621 1148.81 Q107.566 1153.39 101.756 1153.39 Q95.9456 1153.39 92.8669 1148.81 Q89.8114 1144.2 89.8114 1135.47 Q89.8114 1126.72 92.8669 1122.14 Q95.9456 1117.53 101.756 1117.53 Z" fill="#000000" fill-rule="nonzero" fill-opacity="1" /><path clip-path="url(#clip650)" d="M121.918 1146.84 L126.802 1146.84 L126.802 1152.72 L121.918 1152.72 L121.918 1146.84 Z" fill="#000000" fill-rule="nonzero" fill-opacity="1" /><path clip-path="url(#clip650)" d="M146.987 1121.24 Q143.376 1121.24 141.547 1124.8 Q139.742 1128.34 139.742 1135.47 Q139.742 1142.58 141.547 1146.14 Q143.376 1149.69 146.987 1149.69 Q150.621 1149.69 152.427 1146.14 Q154.255 1142.58 154.255 1135.47 Q154.255 1128.34 152.427 1124.8 Q150.621 1121.24 146.987 1121.24 M146.987 1117.53 Q152.797 1117.53 155.853 1122.14 Q158.931 1126.72 158.931 1135.47 Q158.931 1144.2 155.853 1148.81 Q152.797 1153.39 146.987 1153.39 Q141.177 1153.39 138.098 1148.81 Q135.043 1144.2 135.043 1135.47 Q135.043 1126.72 138.098 1122.14 Q141.177 1117.53 146.987 1117.53 Z" fill="#000000" fill-rule="nonzero" fill-opacity="1" /><path clip-path="url(#clip650)" d="M167.195 1118.16 L185.552 1118.16 L185.552 1122.09 L171.478 1122.09 L171.478 1130.56 Q172.496 1130.22 173.515 1130.06 Q174.533 1129.87 175.552 1129.87 Q181.339 1129.87 184.718 1133.04 Q188.098 1136.21 188.098 1141.63 Q188.098 1147.21 184.626 1150.31 Q181.153 1153.39 174.834 1153.39 Q172.658 1153.39 170.39 1153.02 Q168.144 1152.65 165.737 1151.91 L165.737 1147.21 Q167.82 1148.34 170.042 1148.9 Q172.265 1149.45 174.741 1149.45 Q178.746 1149.45 181.084 1147.35 Q183.422 1145.24 183.422 1141.63 Q183.422 1138.02 181.084 1135.91 Q178.746 1133.81 174.741 1133.81 Q172.866 1133.81 170.991 1134.22 Q169.14 1134.64 167.195 1135.52 L167.195 1118.16 Z" fill="#000000" fill-rule="nonzero" fill-opacity="1" /><path clip-path="url(#clip650)" d="M100.76 1042.57 Q97.1493 1042.57 95.3206 1046.13 Q93.515 1049.67 93.515 1056.8 Q93.515 1063.91 95.3206 1067.47 Q97.1493 1071.02 100.76 1071.02 Q104.395 1071.02 106.2 1067.47 Q108.029 1063.91 108.029 1056.8 Q108.029 1049.67 106.2 1046.13 Q104.395 1042.57 100.76 1042.57 M100.76 1038.86 Q106.571 1038.86 109.626 1043.47 Q112.705 1048.05 112.705 1056.8 Q112.705 1065.53 109.626 1070.14 Q106.571 1074.72 100.76 1074.72 Q94.9502 1074.72 91.8715 1070.14 Q88.816 1065.53 88.816 1056.8 Q88.816 1048.05 91.8715 1043.47 Q94.9502 1038.86 100.76 1038.86 Z" fill="#000000" fill-rule="nonzero" fill-opacity="1" /><path clip-path="url(#clip650)" d="M120.922 1068.17 L125.807 1068.17 L125.807 1074.05 L120.922 1074.05 L120.922 1068.17 Z" fill="#000000" fill-rule="nonzero" fill-opacity="1" /><path clip-path="url(#clip650)" d="M136.802 1070.11 L144.441 1070.11 L144.441 1043.75 L136.131 1045.41 L136.131 1041.15 L144.394 1039.49 L149.07 1039.49 L149.07 1070.11 L156.709 1070.11 L156.709 1074.05 L136.802 1074.05 L136.802 1070.11 Z" fill="#000000" fill-rule="nonzero" fill-opacity="1" /><path clip-path="url(#clip650)" d="M176.153 1042.57 Q172.542 1042.57 170.714 1046.13 Q168.908 1049.67 168.908 1056.8 Q168.908 1063.91 170.714 1067.47 Q172.542 1071.02 176.153 1071.02 Q179.788 1071.02 181.593 1067.47 Q183.422 1063.91 183.422 1056.8 Q183.422 1049.67 181.593 1046.13 Q179.788 1042.57 176.153 1042.57 M176.153 1038.86 Q181.964 1038.86 185.019 1043.47 Q188.098 1048.05 188.098 1056.8 Q188.098 1065.53 185.019 1070.14 Q181.964 1074.72 176.153 1074.72 Q170.343 1074.72 167.265 1070.14 Q164.209 1065.53 164.209 1056.8 Q164.209 1048.05 167.265 1043.47 Q170.343 1038.86 176.153 1038.86 Z" fill="#000000" fill-rule="nonzero" fill-opacity="1" /><path clip-path="url(#clip650)" d="M101.756 963.897 Q98.1447 963.897 96.316 967.461 Q94.5104 971.003 94.5104 978.133 Q94.5104 985.239 96.316 988.804 Q98.1447 992.345 101.756 992.345 Q105.39 992.345 107.196 988.804 Q109.024 985.239 109.024 978.133 Q109.024 971.003 107.196 967.461 Q105.39 963.897 101.756 963.897 M101.756 960.193 Q107.566 960.193 110.621 964.799 Q113.7 969.383 113.7 978.133 Q113.7 986.859 110.621 991.466 Q107.566 996.049 101.756 996.049 Q95.9456 996.049 92.8669 991.466 Q89.8114 986.859 89.8114 978.133 Q89.8114 969.383 92.8669 964.799 Q95.9456 960.193 101.756 960.193 Z" fill="#000000" fill-rule="nonzero" fill-opacity="1" /><path clip-path="url(#clip650)" d="M121.918 989.498 L126.802 989.498 L126.802 995.378 L121.918 995.378 L121.918 989.498 Z" fill="#000000" fill-rule="nonzero" fill-opacity="1" /><path clip-path="url(#clip650)" d="M137.797 991.443 L145.436 991.443 L145.436 965.077 L137.126 966.744 L137.126 962.485 L145.39 960.818 L150.066 960.818 L150.066 991.443 L157.705 991.443 L157.705 995.378 L137.797 995.378 L137.797 991.443 Z" fill="#000000" fill-rule="nonzero" fill-opacity="1" /><path clip-path="url(#clip650)" d="M167.195 960.818 L185.552 960.818 L185.552 964.753 L171.478 964.753 L171.478 973.225 Q172.496 972.878 173.515 972.716 Q174.533 972.531 175.552 972.531 Q181.339 972.531 184.718 975.702 Q188.098 978.873 188.098 984.29 Q188.098 989.869 184.626 992.97 Q181.153 996.049 174.834 996.049 Q172.658 996.049 170.39 995.679 Q168.144 995.308 165.737 994.568 L165.737 989.869 Q167.82 991.003 170.042 991.558 Q172.265 992.114 174.741 992.114 Q178.746 992.114 181.084 990.008 Q183.422 987.901 183.422 984.29 Q183.422 980.679 181.084 978.572 Q178.746 976.466 174.741 976.466 Q172.866 976.466 170.991 976.883 Q169.14 977.299 167.195 978.179 L167.195 960.818 Z" fill="#000000" fill-rule="nonzero" fill-opacity="1" /><path clip-path="url(#clip650)" d="M602.548 814.324 L602.548 827.206 L617.901 827.206 L617.901 832.999 L602.548 832.999 L602.548 857.628 Q602.548 863.178 604.047 864.758 Q605.586 866.338 610.244 866.338 L617.901 866.338 L617.901 872.576 L610.244 872.576 Q601.616 872.576 598.335 869.376 Q595.054 866.135 595.054 857.628 L595.054 832.999 L589.585 832.999 L589.585 827.206 L595.054 827.206 L595.054 814.324 L602.548 814.324 Z" fill="#000000" fill-rule="nonzero" fill-opacity="1" /><path clip-path="url(#clip650)" d="M655.047 834.903 L706.98 834.903 L706.98 841.708 L655.047 841.708 L655.047 834.903 M655.047 851.43 L706.98 851.43 L706.98 858.317 L655.047 858.317 L655.047 851.43 Z" fill="#000000" fill-rule="nonzero" fill-opacity="1" /><path clip-path="url(#clip650)" d="M752.431 865.689 L765.799 865.689 L765.799 819.55 L751.256 822.466 L751.256 815.013 L765.718 812.096 L773.901 812.096 L773.901 865.689 L787.269 865.689 L787.269 872.576 L752.431 872.576 L752.431 865.689 Z" fill="#000000" fill-rule="nonzero" fill-opacity="1" /><polyline clip-path="url(#clip654)" style="stroke:#009af9; stroke-linecap:round; stroke-linejoin:round; stroke-width:4; stroke-opacity:1; fill:none" points="250.381,939.405 254.761,941.624 259.142,943.851 263.522,946.086 267.902,948.331 272.283,950.583 276.663,952.845 281.044,955.114 285.424,957.393 289.805,959.68 294.185,961.975 298.566,964.279 302.946,966.591 307.327,968.911 311.707,971.24 316.088,973.577 320.468,975.923 324.849,978.276 329.229,980.638 333.609,983.009 337.99,985.387 342.37,987.773 346.751,990.168 351.131,992.571 355.512,994.981 359.892,997.4 364.273,999.826 368.653,1002.26 373.034,1004.7 377.414,1007.15 381.795,1009.61 386.175,1012.08 390.555,1014.55 394.936,1017.03 399.316,1019.52 403.697,1022.02 408.077,1024.52 412.458,1027.03 416.838,1029.55 421.219,1032.07 425.599,1034.61 429.98,1037.15 434.36,1039.69 438.741,1042.25 443.121,1044.81 447.501,1047.38 451.882,1049.95 456.262,1052.54 460.643,1055.12 465.023,1057.72 469.404,1060.32 473.784,1062.93 478.165,1065.55 482.545,1068.17 486.926,1070.8 491.306,1073.43 495.687,1076.07 500.067,1078.72 504.447,1081.37 508.828,1084.03 513.208,1086.69 517.589,1089.36 521.969,1092.04 526.35,1094.72 530.73,1097.41 535.111,1100.1 539.491,1102.8 543.872,1105.5 548.252,1108.21 552.633,1110.92 557.013,1113.64 561.393,1116.37 565.774,1119.09 570.154,1121.83 574.535,1124.57 578.915,1127.31 583.296,1130.06 587.676,1132.81 592.057,1135.56 596.437,1138.32 600.818,1141.09 605.198,1143.86 609.579,1146.63 613.959,1149.4 618.339,1152.18 622.72,1154.97 627.1,1157.75 631.481,1160.54 635.861,1163.34 640.242,1166.13 644.622,1168.93 649.003,1171.73 653.383,1174.54 657.764,1177.35 662.144,1180.16 666.525,1182.97 670.905,1185.79 675.286,1188.61 679.666,1191.43 684.046,1194.25 688.427,1197.07 692.807,1199.9 697.188,1202.73 701.568,1205.56 705.949,1208.39 710.329,1211.22 714.71,1214.05 719.09,1216.89 723.471,1219.73 727.851,1222.56 732.232,1225.4 736.612,1228.24 740.992,1231.08 745.373,1233.92 749.753,1236.76 754.134,1239.6 758.514,1242.44 762.895,1245.28 767.275,1248.12 771.656,1250.96 776.036,1253.8 780.417,1256.64 784.797,1259.48 789.178,1262.32 793.558,1265.16 797.938,1267.99 802.319,1270.83 806.699,1273.66 811.08,1276.5 815.46,1279.33 819.841,1282.16 824.221,1284.99 828.602,1287.82 832.982,1290.64 837.363,1293.47 841.743,1296.29 846.124,1299.11 850.504,1301.92 854.884,1304.74 859.265,1307.55 863.645,1310.36 868.026,1313.17 872.406,1315.97 876.787,1318.77 881.167,1321.57 885.548,1324.37 889.928,1327.16 894.309,1329.95 898.689,1332.73 903.07,1335.52 907.45,1338.29 911.83,1341.07 916.211,1343.84 920.591,1346.6 924.972,1349.37 929.352,1352.12 933.733,1354.88 938.113,1357.63 942.494,1360.37 946.874,1363.11 951.255,1365.85 955.635,1368.58 960.016,1371.31 964.396,1374.03 968.776,1376.75 973.157,1379.46 977.537,1382.16 981.918,1384.86 986.298,1387.56 990.679,1390.25 995.059,1392.93 999.44,1395.61 1003.82,1398.29 1008.2,1400.95 1012.58,1403.61 1016.96,1406.27 1021.34,1408.92 1025.72,1411.56 1030.1,1414.2 1034.48,1416.83 1038.86,1419.46 1043.24,1422.07 1047.62,1424.69 1052.01,1427.29 1056.39,1429.89 1060.77,1432.48 1065.15,1435.07 1069.53,1437.64 1073.91,1440.22 1078.29,1442.78 1082.67,1445.34 1087.05,1447.89 1091.43,1450.43 1095.81,1452.97 1100.19,1455.5 1104.57,1458.02 1108.95,1460.53 1113.33,1463.04 1117.71,1465.54 1122.09,1468.03 1126.47,1470.51 "/>
<path clip-path="url(#clip650)" d="M976.505 1045.92 L1121.8 1045.92 L1121.8 942.238 L976.505 942.238  Z" fill="#ffffff" fill-rule="evenodd" fill-opacity="1"/>
<polyline clip-path="url(#clip650)" style="stroke:#000000; stroke-linecap:round; stroke-linejoin:round; stroke-width:4; stroke-opacity:1; fill:none" points="976.505,1045.92 1121.8,1045.92 1121.8,942.238 976.505,942.238 976.505,1045.92 "/>
<polyline clip-path="url(#clip650)" style="stroke:#009af9; stroke-linecap:round; stroke-linejoin:round; stroke-width:4; stroke-opacity:1; fill:none" points="986.823,994.078 1048.73,994.078 "/>
<path clip-path="url(#clip650)" d="M1072.89 1013.77 Q1071.09 1018.39 1069.38 1019.81 Q1067.66 1021.22 1064.79 1021.22 L1061.39 1021.22 L1061.39 1017.65 L1063.89 1017.65 Q1065.65 1017.65 1066.62 1016.82 Q1067.59 1015.99 1068.77 1012.89 L1069.54 1010.94 L1059.05 985.432 L1063.57 985.432 L1071.67 1005.71 L1079.77 985.432 L1084.28 985.432 L1072.89 1013.77 Z" fill="#000000" fill-rule="nonzero" fill-opacity="1" /><path clip-path="url(#clip650)" d="M1091.57 1007.42 L1099.21 1007.42 L1099.21 981.057 L1090.9 982.724 L1090.9 978.465 L1099.17 976.798 L1103.84 976.798 L1103.84 1007.42 L1111.48 1007.42 L1111.48 1011.36 L1091.57 1011.36 L1091.57 1007.42 Z" fill="#000000" fill-rule="nonzero" fill-opacity="1" /></svg>
