<?xml version="1.0" encoding="utf-8"?>
<svg xmlns="http://www.w3.org/2000/svg" xmlns:xlink="http://www.w3.org/1999/xlink" width="600" height="400" viewBox="0 0 2400 1600">
<defs>
  <clipPath id="clip840">
    <rect x="0" y="0" width="2400" height="1600"/>
  </clipPath>
</defs>
<path clip-path="url(#clip840)" d="M0 1600 L2400 1600 L2400 0 L0 0  Z" fill="#ffffff" fill-rule="evenodd" fill-opacity="1"/>
<defs>
  <clipPath id="clip841">
    <rect x="480" y="0" width="1681" height="1600"/>
  </clipPath>
</defs>
<path clip-path="url(#clip840)" d="M147.709 1486.45 L2352.76 1486.45 L2352.76 123.472 L147.709 123.472  Z" fill="#ffffff" fill-rule="evenodd" fill-opacity="1"/>
<defs>
  <clipPath id="clip842">
    <rect x="147" y="123" width="2206" height="1364"/>
  </clipPath>
</defs>
<polyline clip-path="url(#clip842)" style="stroke:#000000; stroke-linecap:round; stroke-linejoin:round; stroke-width:2; stroke-opacity:0.1; fill:none" points="210.116,1486.45 210.116,123.472 "/>
<polyline clip-path="url(#clip842)" style="stroke:#000000; stroke-linecap:round; stroke-linejoin:round; stroke-width:2; stroke-opacity:0.1; fill:none" points="730.175,1486.45 730.175,123.472 "/>
<polyline clip-path="url(#clip842)" style="stroke:#000000; stroke-linecap:round; stroke-linejoin:round; stroke-width:2; stroke-opacity:0.1; fill:none" points="1250.23,1486.45 1250.23,123.472 "/>
<polyline clip-path="url(#clip842)" style="stroke:#000000; stroke-linecap:round; stroke-linejoin:round; stroke-width:2; stroke-opacity:0.1; fill:none" points="1770.29,1486.45 1770.29,123.472 "/>
<polyline clip-path="url(#clip842)" style="stroke:#000000; stroke-linecap:round; stroke-linejoin:round; stroke-width:2; stroke-opacity:0.1; fill:none" points="2290.35,1486.45 2290.35,123.472 "/>
<polyline clip-path="url(#clip840)" style="stroke:#000000; stroke-linecap:round; stroke-linejoin:round; stroke-width:4; stroke-opacity:1; fill:none" points="147.709,1486.45 2352.76,1486.45 "/>
<polyline clip-path="url(#clip840)" style="stroke:#000000; stroke-linecap:round; stroke-linejoin:round; stroke-width:4; stroke-opacity:1; fill:none" points="210.116,1486.45 210.116,1467.55 "/>
<polyline clip-path="url(#clip840)" style="stroke:#000000; stroke-linecap:round; stroke-linejoin:round; stroke-width:4; stroke-opacity:1; fill:none" points="730.175,1486.45 730.175,1467.55 "/>
<polyline clip-path="url(#clip840)" style="stroke:#000000; stroke-linecap:round; stroke-linejoin:round; stroke-width:4; stroke-opacity:1; fill:none" points="1250.23,1486.45 1250.23,1467.55 "/>
<polyline clip-path="url(#clip840)" style="stroke:#000000; stroke-linecap:round; stroke-linejoin:round; stroke-width:4; stroke-opacity:1; fill:none" points="1770.29,1486.45 1770.29,1467.55 "/>
<polyline clip-path="url(#clip840)" style="stroke:#000000; stroke-linecap:round; stroke-linejoin:round; stroke-width:4; stroke-opacity:1; fill:none" points="2290.35,1486.45 2290.35,1467.55 "/>
<path clip-path="url(#clip840)" d="M164.179 1532.02 L193.855 1532.02 L193.855 1535.95 L164.179 1535.95 L164.179 1532.02 Z" fill="#000000" fill-rule="nonzero" fill-opacity="1" /><path clip-path="url(#clip840)" d="M204.758 1544.91 L212.396 1544.91 L212.396 1518.55 L204.086 1520.21 L204.086 1515.95 L212.35 1514.29 L217.026 1514.29 L217.026 1544.91 L224.665 1544.91 L224.665 1548.85 L204.758 1548.85 L204.758 1544.91 Z" fill="#000000" fill-rule="nonzero" fill-opacity="1" /><path clip-path="url(#clip840)" d="M244.109 1517.37 Q240.498 1517.37 238.669 1520.93 Q236.864 1524.47 236.864 1531.6 Q236.864 1538.71 238.669 1542.27 Q240.498 1545.82 244.109 1545.82 Q247.743 1545.82 249.549 1542.27 Q251.378 1538.71 251.378 1531.6 Q251.378 1524.47 249.549 1520.93 Q247.743 1517.37 244.109 1517.37 M244.109 1513.66 Q249.919 1513.66 252.975 1518.27 Q256.054 1522.85 256.054 1531.6 Q256.054 1540.33 252.975 1544.94 Q249.919 1549.52 244.109 1549.52 Q238.299 1549.52 235.22 1544.94 Q232.165 1540.33 232.165 1531.6 Q232.165 1522.85 235.22 1518.27 Q238.299 1513.66 244.109 1513.66 Z" fill="#000000" fill-rule="nonzero" fill-opacity="1" /><path clip-path="url(#clip840)" d="M699.816 1532.02 L729.492 1532.02 L729.492 1535.95 L699.816 1535.95 L699.816 1532.02 Z" fill="#000000" fill-rule="nonzero" fill-opacity="1" /><path clip-path="url(#clip840)" d="M739.63 1514.29 L757.987 1514.29 L757.987 1518.22 L743.913 1518.22 L743.913 1526.7 Q744.931 1526.35 745.95 1526.19 Q746.968 1526 747.987 1526 Q753.774 1526 757.154 1529.17 Q760.533 1532.34 760.533 1537.76 Q760.533 1543.34 757.061 1546.44 Q753.589 1549.52 747.269 1549.52 Q745.093 1549.52 742.825 1549.15 Q740.58 1548.78 738.172 1548.04 L738.172 1543.34 Q740.255 1544.47 742.478 1545.03 Q744.7 1545.58 747.177 1545.58 Q751.181 1545.58 753.519 1543.48 Q755.857 1541.37 755.857 1537.76 Q755.857 1534.15 753.519 1532.04 Q751.181 1529.94 747.177 1529.94 Q745.302 1529.94 743.427 1530.35 Q741.575 1530.77 739.63 1531.65 L739.63 1514.29 Z" fill="#000000" fill-rule="nonzero" fill-opacity="1" /><path clip-path="url(#clip840)" d="M1250.23 1517.37 Q1246.62 1517.37 1244.79 1520.93 Q1242.99 1524.47 1242.99 1531.6 Q1242.99 1538.71 1244.79 1542.27 Q1246.62 1545.82 1250.23 1545.82 Q1253.87 1545.82 1255.67 1542.27 Q1257.5 1538.71 1257.5 1531.6 Q1257.5 1524.47 1255.67 1520.93 Q1253.87 1517.37 1250.23 1517.37 M1250.23 1513.66 Q1256.04 1513.66 1259.1 1518.27 Q1262.18 1522.85 1262.18 1531.6 Q1262.18 1540.33 1259.1 1544.94 Q1256.04 1549.52 1250.23 1549.52 Q1244.42 1549.52 1241.34 1544.94 Q1238.29 1540.33 1238.29 1531.6 Q1238.29 1522.85 1241.34 1518.27 Q1244.42 1513.66 1250.23 1513.66 Z" fill="#000000" fill-rule="nonzero" fill-opacity="1" /><path clip-path="url(#clip840)" d="M1760.57 1514.29 L1778.93 1514.29 L1778.93 1518.22 L1764.85 1518.22 L1764.85 1526.7 Q1765.87 1526.35 1766.89 1526.19 Q1767.91 1526 1768.93 1526 Q1774.71 1526 1778.09 1529.17 Q1781.47 1532.34 1781.47 1537.76 Q1781.47 1543.34 1778 1546.44 Q1774.53 1549.52 1768.21 1549.52 Q1766.03 1549.52 1763.76 1549.15 Q1761.52 1548.78 1759.11 1548.04 L1759.11 1543.34 Q1761.19 1544.47 1763.42 1545.03 Q1765.64 1545.58 1768.11 1545.58 Q1772.12 1545.58 1774.46 1543.48 Q1776.8 1541.37 1776.8 1537.76 Q1776.8 1534.15 1774.46 1532.04 Q1772.12 1529.94 1768.11 1529.94 Q1766.24 1529.94 1764.36 1530.35 Q1762.51 1530.77 1760.57 1531.65 L1760.57 1514.29 Z" fill="#000000" fill-rule="nonzero" fill-opacity="1" /><path clip-path="url(#clip840)" d="M2265.04 1544.91 L2272.68 1544.91 L2272.68 1518.55 L2264.37 1520.21 L2264.37 1515.95 L2272.63 1514.29 L2277.31 1514.29 L2277.31 1544.91 L2284.94 1544.91 L2284.94 1548.85 L2265.04 1548.85 L2265.04 1544.91 Z" fill="#000000" fill-rule="nonzero" fill-opacity="1" /><path clip-path="url(#clip840)" d="M2304.39 1517.37 Q2300.78 1517.37 2298.95 1520.93 Q2297.14 1524.47 2297.14 1531.6 Q2297.14 1538.71 2298.95 1542.27 Q2300.78 1545.82 2304.39 1545.82 Q2308.02 1545.82 2309.83 1542.27 Q2311.66 1538.71 2311.66 1531.6 Q2311.66 1524.47 2309.83 1520.93 Q2308.02 1517.37 2304.39 1517.37 M2304.39 1513.66 Q2310.2 1513.66 2313.25 1518.27 Q2316.33 1522.85 2316.33 1531.6 Q2316.33 1540.33 2313.25 1544.94 Q2310.2 1549.52 2304.39 1549.52 Q2298.58 1549.52 2295.5 1544.94 Q2292.44 1540.33 2292.44 1531.6 Q2292.44 1522.85 2295.5 1518.27 Q2298.58 1513.66 2304.39 1513.66 Z" fill="#000000" fill-rule="nonzero" fill-opacity="1" /><polyline clip-path="url(#clip842)" style="stroke:#000000; stroke-linecap:round; stroke-linejoin:round; stroke-width:2; stroke-opacity:0.1; fill:none" points="147.709,1479.81 2352.76,1479.81 "/>
<polyline clip-path="url(#clip842)" style="stroke:#000000; stroke-linecap:round; stroke-linejoin:round; stroke-width:2; stroke-opacity:0.1; fill:none" points="147.709,1136.84 2352.76,1136.84 "/>
<polyline clip-path="url(#clip842)" style="stroke:#000000; stroke-linecap:round; stroke-linejoin:round; stroke-width:2; stroke-opacity:0.1; fill:none" points="147.709,793.869 2352.76,793.869 "/>
<polyline clip-path="url(#clip842)" style="stroke:#000000; stroke-linecap:round; stroke-linejoin:round; stroke-width:2; stroke-opacity:0.1; fill:none" points="147.709,450.899 2352.76,450.899 "/>
<polyline clip-path="url(#clip840)" style="stroke:#000000; stroke-linecap:round; stroke-linejoin:round; stroke-width:4; stroke-opacity:1; fill:none" points="147.709,1486.45 147.709,123.472 "/>
<polyline clip-path="url(#clip840)" style="stroke:#000000; stroke-linecap:round; stroke-linejoin:round; stroke-width:4; stroke-opacity:1; fill:none" points="147.709,1479.81 166.607,1479.81 "/>
<polyline clip-path="url(#clip840)" style="stroke:#000000; stroke-linecap:round; stroke-linejoin:round; stroke-width:4; stroke-opacity:1; fill:none" points="147.709,1136.84 166.607,1136.84 "/>
<polyline clip-path="url(#clip840)" style="stroke:#000000; stroke-linecap:round; stroke-linejoin:round; stroke-width:4; stroke-opacity:1; fill:none" points="147.709,793.869 166.607,793.869 "/>
<polyline clip-path="url(#clip840)" style="stroke:#000000; stroke-linecap:round; stroke-linejoin:round; stroke-width:4; stroke-opacity:1; fill:none" points="147.709,450.899 166.607,450.899 "/>
<path clip-path="url(#clip840)" d="M50.9921 1480.26 L80.6679 1480.26 L80.6679 1484.2 L50.9921 1484.2 L50.9921 1480.26 Z" fill="#000000" fill-rule="nonzero" fill-opacity="1" /><path clip-path="url(#clip840)" d="M90.8067 1462.53 L109.163 1462.53 L109.163 1466.46 L95.0891 1466.46 L95.0891 1474.94 Q96.1076 1474.59 97.1261 1474.43 Q98.1447 1474.24 99.1632 1474.24 Q104.95 1474.24 108.33 1477.41 Q111.709 1480.58 111.709 1486 Q111.709 1491.58 108.237 1494.68 Q104.765 1497.76 98.4456 1497.76 Q96.2697 1497.76 94.0012 1497.39 Q91.7558 1497.02 89.3484 1496.28 L89.3484 1491.58 Q91.4317 1492.71 93.6539 1493.27 Q95.8761 1493.82 98.353 1493.82 Q102.358 1493.82 104.696 1491.72 Q107.033 1489.61 107.033 1486 Q107.033 1482.39 104.696 1480.28 Q102.358 1478.18 98.353 1478.18 Q96.478 1478.18 94.603 1478.59 Q92.7512 1479.01 90.8067 1479.89 L90.8067 1462.53 Z" fill="#000000" fill-rule="nonzero" fill-opacity="1" /><path clip-path="url(#clip840)" d="M99.765 1122.64 Q96.1539 1122.64 94.3252 1126.2 Q92.5197 1129.74 92.5197 1136.87 Q92.5197 1143.98 94.3252 1147.54 Q96.1539 1151.09 99.765 1151.09 Q103.399 1151.09 105.205 1147.54 Q107.033 1143.98 107.033 1136.87 Q107.033 1129.74 105.205 1126.2 Q103.399 1122.64 99.765 1122.64 M99.765 1118.93 Q105.575 1118.93 108.631 1123.54 Q111.709 1128.12 111.709 1136.87 Q111.709 1145.6 108.631 1150.21 Q105.575 1154.79 99.765 1154.79 Q93.9549 1154.79 90.8762 1150.21 Q87.8206 1145.6 87.8206 1136.87 Q87.8206 1128.12 90.8762 1123.54 Q93.9549 1118.93 99.765 1118.93 Z" fill="#000000" fill-rule="nonzero" fill-opacity="1" /><path clip-path="url(#clip840)" d="M90.8067 776.589 L109.163 776.589 L109.163 780.524 L95.0891 780.524 L95.0891 788.996 Q96.1076 788.649 97.1261 788.487 Q98.1447 788.302 99.1632 788.302 Q104.95 788.302 108.33 791.473 Q111.709 794.645 111.709 800.061 Q111.709 805.64 108.237 808.742 Q104.765 811.82 98.4456 811.82 Q96.2697 811.82 94.0012 811.45 Q91.7558 811.08 89.3484 810.339 L89.3484 805.64 Q91.4317 806.774 93.6539 807.33 Q95.8761 807.885 98.353 807.885 Q102.358 807.885 104.696 805.779 Q107.033 803.672 107.033 800.061 Q107.033 796.45 104.696 794.344 Q102.358 792.237 98.353 792.237 Q96.478 792.237 94.603 792.654 Q92.7512 793.07 90.8067 793.95 L90.8067 776.589 Z" fill="#000000" fill-rule="nonzero" fill-opacity="1" /><path clip-path="url(#clip840)" d="M60.4134 464.244 L68.0522 464.244 L68.0522 437.879 L59.7421 439.545 L59.7421 435.286 L68.0059 433.619 L72.6818 433.619 L72.6818 464.244 L80.3207 464.244 L80.3207 468.179 L60.4134 468.179 L60.4134 464.244 Z" fill="#000000" fill-rule="nonzero" fill-opacity="1" /><path clip-path="url(#clip840)" d="M99.765 436.698 Q96.1539 436.698 94.3252 440.263 Q92.5197 443.804 92.5197 450.934 Q92.5197 458.04 94.3252 461.605 Q96.1539 465.147 99.765 465.147 Q103.399 465.147 105.205 461.605 Q107.033 458.04 107.033 450.934 Q107.033 443.804 105.205 440.263 Q103.399 436.698 99.765 436.698 M99.765 432.994 Q105.575 432.994 108.631 437.601 Q111.709 442.184 111.709 450.934 Q111.709 459.661 108.631 464.267 Q105.575 468.851 99.765 468.851 Q93.9549 468.851 90.8762 464.267 Q87.8206 459.661 87.8206 450.934 Q87.8206 442.184 90.8762 437.601 Q93.9549 432.994 99.765 432.994 Z" fill="#000000" fill-rule="nonzero" fill-opacity="1" /><path clip-path="url(#clip840)" d="M594.796 18.8205 L594.796 65.8515 L604.681 65.8515 Q617.198 65.8515 622.991 60.1802 Q628.824 54.509 628.824 42.2752 Q628.824 30.1225 622.991 24.4918 Q617.198 18.8205 604.681 18.8205 L594.796 18.8205 M586.614 12.096 L603.425 12.096 Q621.006 12.096 629.229 19.4281 Q637.452 26.7198 637.452 42.2752 Q637.452 57.9117 629.189 65.2439 Q620.925 72.576 603.425 72.576 L586.614 72.576 L586.614 12.096 Z" fill="#000000" fill-rule="nonzero" fill-opacity="1" /><path clip-path="url(#clip840)" d="M670.791 49.7694 Q661.758 49.7694 658.274 51.8354 Q654.79 53.9013 654.79 58.8839 Q654.79 62.8538 657.383 65.2034 Q660.016 67.5124 664.512 67.5124 Q670.71 67.5124 674.437 63.1374 Q678.204 58.7219 678.204 51.4303 L678.204 49.7694 L670.791 49.7694 M685.658 46.6907 L685.658 72.576 L678.204 72.576 L678.204 65.6895 Q675.652 69.8214 671.845 71.8063 Q668.037 73.7508 662.527 73.7508 Q655.56 73.7508 651.428 69.8619 Q647.337 65.9325 647.337 59.3701 Q647.337 51.7138 652.441 47.825 Q657.585 43.9361 667.753 43.9361 L678.204 43.9361 L678.204 43.2069 Q678.204 38.0623 674.802 35.2672 Q671.439 32.4315 665.323 32.4315 Q661.434 32.4315 657.747 33.3632 Q654.061 34.295 650.658 36.1584 L650.658 29.2718 Q654.75 27.692 658.598 26.9223 Q662.446 26.1121 666.092 26.1121 Q675.936 26.1121 680.797 31.2163 Q685.658 36.3204 685.658 46.6907 Z" fill="#000000" fill-rule="nonzero" fill-opacity="1" /><path clip-path="url(#clip840)" d="M708.384 14.324 L708.384 27.2059 L723.737 27.2059 L723.737 32.9987 L708.384 32.9987 L708.384 57.6282 Q708.384 63.1779 709.883 64.7578 Q711.422 66.3376 716.08 66.3376 L723.737 66.3376 L723.737 72.576 L716.08 72.576 Q707.452 72.576 704.171 69.3758 Q700.89 66.1351 700.89 57.6282 L700.89 32.9987 L695.421 32.9987 L695.421 27.2059 L700.89 27.2059 L700.89 14.324 L708.384 14.324 Z" fill="#000000" fill-rule="nonzero" fill-opacity="1" /><path clip-path="url(#clip840)" d="M754.159 49.7694 Q745.125 49.7694 741.642 51.8354 Q738.158 53.9013 738.158 58.8839 Q738.158 62.8538 740.75 65.2034 Q743.384 67.5124 747.88 67.5124 Q754.078 67.5124 757.805 63.1374 Q761.572 58.7219 761.572 51.4303 L761.572 49.7694 L754.159 49.7694 M769.026 46.6907 L769.026 72.576 L761.572 72.576 L761.572 65.6895 Q759.02 69.8214 755.212 71.8063 Q751.404 73.7508 745.895 73.7508 Q738.928 73.7508 734.796 69.8619 Q730.704 65.9325 730.704 59.3701 Q730.704 51.7138 735.808 47.825 Q740.953 43.9361 751.121 43.9361 L761.572 43.9361 L761.572 43.2069 Q761.572 38.0623 758.169 35.2672 Q754.807 32.4315 748.69 32.4315 Q744.801 32.4315 741.115 33.3632 Q737.429 34.295 734.026 36.1584 L734.026 29.2718 Q738.117 27.692 741.966 26.9223 Q745.814 26.1121 749.46 26.1121 Q759.304 26.1121 764.165 31.2163 Q769.026 36.3204 769.026 46.6907 Z" fill="#000000" fill-rule="nonzero" fill-opacity="1" /><path clip-path="url(#clip840)" d="M813.302 28.5427 L813.302 35.5912 Q810.142 33.9709 806.74 33.1607 Q803.337 32.3505 799.691 32.3505 Q794.141 32.3505 791.346 34.0519 Q788.592 35.7533 788.592 39.156 Q788.592 41.7486 790.577 43.2475 Q792.561 44.7058 798.557 46.0426 L801.109 46.6097 Q809.049 48.3111 812.37 51.4303 Q815.733 54.509 815.733 60.0587 Q815.733 66.3781 810.71 70.0644 Q805.727 73.7508 796.977 73.7508 Q793.331 73.7508 789.361 73.0216 Q785.432 72.3329 781.057 70.9151 L781.057 63.2184 Q785.189 65.3654 789.199 66.4591 Q793.21 67.5124 797.139 67.5124 Q802.405 67.5124 805.241 65.73 Q808.076 63.9071 808.076 60.6258 Q808.076 57.5877 806.01 55.9673 Q803.985 54.3469 797.058 52.8481 L794.465 52.2405 Q787.538 50.7821 784.46 47.7845 Q781.381 44.7463 781.381 39.4801 Q781.381 33.0797 785.918 29.5959 Q790.455 26.1121 798.8 26.1121 Q802.932 26.1121 806.578 26.7198 Q810.223 27.3274 813.302 28.5427 Z" fill="#000000" fill-rule="nonzero" fill-opacity="1" /><path clip-path="url(#clip840)" d="M866.409 48.0275 L866.409 51.6733 L832.139 51.6733 Q832.625 59.3701 836.757 63.421 Q840.929 67.4314 848.342 67.4314 Q852.636 67.4314 856.647 66.3781 Q860.698 65.3249 864.668 63.2184 L864.668 70.267 Q860.657 71.9684 856.444 72.8596 Q852.231 73.7508 847.897 73.7508 Q837.04 73.7508 830.68 67.4314 Q824.361 61.1119 824.361 50.3365 Q824.361 39.1965 830.356 32.6746 Q836.392 26.1121 846.601 26.1121 Q855.756 26.1121 861.062 32.0264 Q866.409 37.9003 866.409 48.0275 M858.956 45.84 Q858.875 39.7232 855.513 36.0774 Q852.191 32.4315 846.682 32.4315 Q840.443 32.4315 836.676 35.9558 Q832.949 39.4801 832.382 45.8805 L858.956 45.84 Z" fill="#000000" fill-rule="nonzero" fill-opacity="1" /><path clip-path="url(#clip840)" d="M886.016 14.324 L886.016 27.2059 L901.369 27.2059 L901.369 32.9987 L886.016 32.9987 L886.016 57.6282 Q886.016 63.1779 887.515 64.7578 Q889.054 66.3376 893.713 66.3376 L901.369 66.3376 L901.369 72.576 L893.713 72.576 Q885.084 72.576 881.803 69.3758 Q878.522 66.1351 878.522 57.6282 L878.522 32.9987 L873.053 32.9987 L873.053 27.2059 L878.522 27.2059 L878.522 14.324 L886.016 14.324 Z" fill="#000000" fill-rule="nonzero" fill-opacity="1" /><path clip-path="url(#clip840)" d="M960.512 9.54393 L960.512 15.7418 L953.382 15.7418 Q949.372 15.7418 947.792 17.3622 Q946.253 18.9825 946.253 23.1955 L946.253 27.2059 L958.527 27.2059 L958.527 32.9987 L946.253 32.9987 L946.253 72.576 L938.759 72.576 L938.759 32.9987 L931.629 32.9987 L931.629 27.2059 L938.759 27.2059 L938.759 24.0462 Q938.759 16.471 942.283 13.0277 Q945.807 9.54393 953.463 9.54393 L960.512 9.54393 Z" fill="#000000" fill-rule="nonzero" fill-opacity="1" /><path clip-path="url(#clip840)" d="M993.041 34.1734 Q991.785 33.4443 990.286 33.1202 Q988.828 32.7556 987.045 32.7556 Q980.726 32.7556 977.323 36.8875 Q973.961 40.9789 973.961 48.6757 L973.961 72.576 L966.467 72.576 L966.467 27.2059 L973.961 27.2059 L973.961 34.2544 Q976.311 30.1225 980.078 28.1376 Q983.845 26.1121 989.233 26.1121 Q990.003 26.1121 990.934 26.2337 Q991.866 26.3147 993 26.5172 L993.041 34.1734 Z" fill="#000000" fill-rule="nonzero" fill-opacity="1" /><path clip-path="url(#clip840)" d="M1016.62 32.4315 Q1010.62 32.4315 1007.14 37.1306 Q1003.65 41.7891 1003.65 49.9314 Q1003.65 58.0738 1007.1 62.7728 Q1010.58 67.4314 1016.62 67.4314 Q1022.57 67.4314 1026.06 62.7323 Q1029.54 58.0333 1029.54 49.9314 Q1029.54 41.8701 1026.06 37.1711 Q1022.57 32.4315 1016.62 32.4315 M1016.62 26.1121 Q1026.34 26.1121 1031.89 32.4315 Q1037.44 38.7509 1037.44 49.9314 Q1037.44 61.0714 1031.89 67.4314 Q1026.34 73.7508 1016.62 73.7508 Q1006.85 73.7508 1001.3 67.4314 Q995.795 61.0714 995.795 49.9314 Q995.795 38.7509 1001.3 32.4315 Q1006.85 26.1121 1016.62 26.1121 Z" fill="#000000" fill-rule="nonzero" fill-opacity="1" /><path clip-path="url(#clip840)" d="M1085.12 35.9153 Q1087.91 30.8922 1091.8 28.5022 Q1095.69 26.1121 1100.96 26.1121 Q1108.05 26.1121 1111.89 31.0947 Q1115.74 36.0368 1115.74 45.1919 L1115.74 72.576 L1108.25 72.576 L1108.25 45.4349 Q1108.25 38.913 1105.94 35.7533 Q1103.63 32.5936 1098.89 32.5936 Q1093.1 32.5936 1089.74 36.4419 Q1086.37 40.2903 1086.37 46.9338 L1086.37 72.576 L1078.88 72.576 L1078.88 45.4349 Q1078.88 38.8725 1076.57 35.7533 Q1074.26 32.5936 1069.44 32.5936 Q1063.73 32.5936 1060.37 36.4824 Q1057 40.3308 1057 46.9338 L1057 72.576 L1049.51 72.576 L1049.51 27.2059 L1057 27.2059 L1057 34.2544 Q1059.56 30.082 1063.12 28.0971 Q1066.69 26.1121 1071.59 26.1121 Q1076.53 26.1121 1079.97 28.6237 Q1083.46 31.1352 1085.12 35.9153 Z" fill="#000000" fill-rule="nonzero" fill-opacity="1" /><path clip-path="url(#clip840)" d="M1177.52 20.1573 L1166.42 50.2555 L1188.66 50.2555 L1177.52 20.1573 M1172.9 12.096 L1182.18 12.096 L1205.23 72.576 L1196.72 72.576 L1191.21 57.061 L1163.95 57.061 L1158.44 72.576 L1149.81 72.576 L1172.9 12.096 Z" fill="#000000" fill-rule="nonzero" fill-opacity="1" /><path clip-path="url(#clip840)" d="M1251.45 45.1919 L1251.45 72.576 L1243.99 72.576 L1243.99 45.4349 Q1243.99 38.994 1241.48 35.7938 Q1238.97 32.5936 1233.95 32.5936 Q1227.91 32.5936 1224.43 36.4419 Q1220.94 40.2903 1220.94 46.9338 L1220.94 72.576 L1213.45 72.576 L1213.45 27.2059 L1220.94 27.2059 L1220.94 34.2544 Q1223.62 30.163 1227.22 28.1376 Q1230.87 26.1121 1235.61 26.1121 Q1243.43 26.1121 1247.44 30.9732 Q1251.45 35.7938 1251.45 45.1919 Z" fill="#000000" fill-rule="nonzero" fill-opacity="1" /><path clip-path="url(#clip840)" d="M1286.93 49.7694 Q1277.9 49.7694 1274.42 51.8354 Q1270.93 53.9013 1270.93 58.8839 Q1270.93 62.8538 1273.53 65.2034 Q1276.16 67.5124 1280.65 67.5124 Q1286.85 67.5124 1290.58 63.1374 Q1294.35 58.7219 1294.35 51.4303 L1294.35 49.7694 L1286.93 49.7694 M1301.8 46.6907 L1301.8 72.576 L1294.35 72.576 L1294.35 65.6895 Q1291.79 69.8214 1287.99 71.8063 Q1284.18 73.7508 1278.67 73.7508 Q1271.7 73.7508 1267.57 69.8619 Q1263.48 65.9325 1263.48 59.3701 Q1263.48 51.7138 1268.58 47.825 Q1273.73 43.9361 1283.9 43.9361 L1294.35 43.9361 L1294.35 43.2069 Q1294.35 38.0623 1290.94 35.2672 Q1287.58 32.4315 1281.47 32.4315 Q1277.58 32.4315 1273.89 33.3632 Q1270.2 34.295 1266.8 36.1584 L1266.8 29.2718 Q1270.89 27.692 1274.74 26.9223 Q1278.59 26.1121 1282.23 26.1121 Q1292.08 26.1121 1296.94 31.2163 Q1301.8 36.3204 1301.8 46.6907 Z" fill="#000000" fill-rule="nonzero" fill-opacity="1" /><path clip-path="url(#clip840)" d="M1317.15 9.54393 L1324.61 9.54393 L1324.61 72.576 L1317.15 72.576 L1317.15 9.54393 Z" fill="#000000" fill-rule="nonzero" fill-opacity="1" /><path clip-path="url(#clip840)" d="M1359.08 76.7889 Q1355.92 84.8907 1352.92 87.3618 Q1349.93 89.8329 1344.9 89.8329 L1338.95 89.8329 L1338.95 83.5945 L1343.32 83.5945 Q1346.4 83.5945 1348.1 82.1361 Q1349.8 80.6778 1351.87 75.2496 L1353.21 71.8468 L1334.86 27.2059 L1342.76 27.2059 L1356.93 62.6918 L1371.11 27.2059 L1379.01 27.2059 L1359.08 76.7889 Z" fill="#000000" fill-rule="nonzero" fill-opacity="1" /><path clip-path="url(#clip840)" d="M1396.67 14.324 L1396.67 27.2059 L1412.03 27.2059 L1412.03 32.9987 L1396.67 32.9987 L1396.67 57.6282 Q1396.67 63.1779 1398.17 64.7578 Q1399.71 66.3376 1404.37 66.3376 L1412.03 66.3376 L1412.03 72.576 L1404.37 72.576 Q1395.74 72.576 1392.46 69.3758 Q1389.18 66.1351 1389.18 57.6282 L1389.18 32.9987 L1383.71 32.9987 L1383.71 27.2059 L1389.18 27.2059 L1389.18 14.324 L1396.67 14.324 Z" fill="#000000" fill-rule="nonzero" fill-opacity="1" /><path clip-path="url(#clip840)" d="M1421.83 27.2059 L1429.28 27.2059 L1429.28 72.576 L1421.83 72.576 L1421.83 27.2059 M1421.83 9.54393 L1429.28 9.54393 L1429.28 18.9825 L1421.83 18.9825 L1421.83 9.54393 Z" fill="#000000" fill-rule="nonzero" fill-opacity="1" /><path clip-path="url(#clip840)" d="M1477.53 28.9478 L1477.53 35.9153 Q1474.37 34.1734 1471.17 33.3227 Q1468.01 32.4315 1464.77 32.4315 Q1457.52 32.4315 1453.51 37.0496 Q1449.5 41.6271 1449.5 49.9314 Q1449.5 58.2358 1453.51 62.8538 Q1457.52 67.4314 1464.77 67.4314 Q1468.01 67.4314 1471.17 66.5807 Q1474.37 65.6895 1477.53 63.9476 L1477.53 70.8341 Q1474.41 72.2924 1471.05 73.0216 Q1467.73 73.7508 1463.96 73.7508 Q1453.71 73.7508 1447.67 67.3098 Q1441.64 60.8689 1441.64 49.9314 Q1441.64 38.832 1447.71 32.472 Q1453.83 26.1121 1464.44 26.1121 Q1467.89 26.1121 1471.17 26.8413 Q1474.45 27.5299 1477.53 28.9478 Z" fill="#000000" fill-rule="nonzero" fill-opacity="1" /><path clip-path="url(#clip840)" d="M1511.11 49.7694 Q1502.08 49.7694 1498.59 51.8354 Q1495.11 53.9013 1495.11 58.8839 Q1495.11 62.8538 1497.7 65.2034 Q1500.34 67.5124 1504.83 67.5124 Q1511.03 67.5124 1514.76 63.1374 Q1518.52 58.7219 1518.52 51.4303 L1518.52 49.7694 L1511.11 49.7694 M1525.98 46.6907 L1525.98 72.576 L1518.52 72.576 L1518.52 65.6895 Q1515.97 69.8214 1512.16 71.8063 Q1508.36 73.7508 1502.85 73.7508 Q1495.88 73.7508 1491.75 69.8619 Q1487.66 65.9325 1487.66 59.3701 Q1487.66 51.7138 1492.76 47.825 Q1497.9 43.9361 1508.07 43.9361 L1518.52 43.9361 L1518.52 43.2069 Q1518.52 38.0623 1515.12 35.2672 Q1511.76 32.4315 1505.64 32.4315 Q1501.75 32.4315 1498.07 33.3632 Q1494.38 34.295 1490.98 36.1584 L1490.98 29.2718 Q1495.07 27.692 1498.92 26.9223 Q1502.77 26.1121 1506.41 26.1121 Q1516.26 26.1121 1521.12 31.2163 Q1525.98 36.3204 1525.98 46.6907 Z" fill="#000000" fill-rule="nonzero" fill-opacity="1" /><path clip-path="url(#clip840)" d="M1541.33 9.54393 L1548.78 9.54393 L1548.78 72.576 L1541.33 72.576 L1541.33 9.54393 Z" fill="#000000" fill-rule="nonzero" fill-opacity="1" /><path clip-path="url(#clip840)" d="M1627.33 14.0809 L1627.33 22.0612 Q1622.67 19.8332 1618.54 18.7395 Q1614.41 17.6457 1610.56 17.6457 Q1603.88 17.6457 1600.23 20.2383 Q1596.63 22.8309 1596.63 27.611 Q1596.63 31.6214 1599.02 33.6873 Q1601.45 35.7128 1608.17 36.9686 L1613.11 37.9813 Q1622.27 39.7232 1626.6 44.1387 Q1630.98 48.5136 1630.98 55.8863 Q1630.98 64.6767 1625.06 69.2137 Q1619.19 73.7508 1607.81 73.7508 Q1603.51 73.7508 1598.65 72.7785 Q1593.83 71.8063 1588.65 69.9024 L1588.65 61.4765 Q1593.63 64.2716 1598.41 65.6895 Q1603.19 67.1073 1607.81 67.1073 Q1614.81 67.1073 1618.62 64.3527 Q1622.43 61.598 1622.43 56.4939 Q1622.43 52.0379 1619.68 49.5264 Q1616.96 47.0148 1610.72 45.759 L1605.74 44.7868 Q1596.58 42.9639 1592.49 39.075 Q1588.4 35.1862 1588.4 28.2591 Q1588.4 20.2383 1594.03 15.6203 Q1599.7 11.0023 1609.63 11.0023 Q1613.88 11.0023 1618.3 11.7719 Q1622.71 12.5416 1627.33 14.0809 Z" fill="#000000" fill-rule="nonzero" fill-opacity="1" /><path clip-path="url(#clip840)" d="M1660.99 32.4315 Q1655 32.4315 1651.52 37.1306 Q1648.03 41.7891 1648.03 49.9314 Q1648.03 58.0738 1651.47 62.7728 Q1654.96 67.4314 1660.99 67.4314 Q1666.95 67.4314 1670.43 62.7323 Q1673.92 58.0333 1673.92 49.9314 Q1673.92 41.8701 1670.43 37.1711 Q1666.95 32.4315 1660.99 32.4315 M1660.99 26.1121 Q1670.72 26.1121 1676.27 32.4315 Q1681.82 38.7509 1681.82 49.9314 Q1681.82 61.0714 1676.27 67.4314 Q1670.72 73.7508 1660.99 73.7508 Q1651.23 73.7508 1645.68 67.4314 Q1640.17 61.0714 1640.17 49.9314 Q1640.17 38.7509 1645.68 32.4315 Q1651.23 26.1121 1660.99 26.1121 Z" fill="#000000" fill-rule="nonzero" fill-opacity="1" /><path clip-path="url(#clip840)" d="M1694.17 9.54393 L1701.62 9.54393 L1701.62 72.576 L1694.17 72.576 L1694.17 9.54393 Z" fill="#000000" fill-rule="nonzero" fill-opacity="1" /><path clip-path="url(#clip840)" d="M1716.45 54.671 L1716.45 27.2059 L1723.9 27.2059 L1723.9 54.3874 Q1723.9 60.8284 1726.42 64.0691 Q1728.93 67.2693 1733.95 67.2693 Q1739.99 67.2693 1743.47 63.421 Q1747 59.5726 1747 52.9291 L1747 27.2059 L1754.45 27.2059 L1754.45 72.576 L1747 72.576 L1747 65.6084 Q1744.28 69.7404 1740.68 71.7658 Q1737.11 73.7508 1732.37 73.7508 Q1724.55 73.7508 1720.5 68.8897 Q1716.45 64.0286 1716.45 54.671 M1735.21 26.1121 L1735.21 26.1121 Z" fill="#000000" fill-rule="nonzero" fill-opacity="1" /><path clip-path="url(#clip840)" d="M1777.17 14.324 L1777.17 27.2059 L1792.53 27.2059 L1792.53 32.9987 L1777.17 32.9987 L1777.17 57.6282 Q1777.17 63.1779 1778.67 64.7578 Q1780.21 66.3376 1784.87 66.3376 L1792.53 66.3376 L1792.53 72.576 L1784.87 72.576 Q1776.24 72.576 1772.96 69.3758 Q1769.68 66.1351 1769.68 57.6282 L1769.68 32.9987 L1764.21 32.9987 L1764.21 27.2059 L1769.68 27.2059 L1769.68 14.324 L1777.17 14.324 Z" fill="#000000" fill-rule="nonzero" fill-opacity="1" /><path clip-path="url(#clip840)" d="M1802.33 27.2059 L1809.78 27.2059 L1809.78 72.576 L1802.33 72.576 L1802.33 27.2059 M1802.33 9.54393 L1809.78 9.54393 L1809.78 18.9825 L1802.33 18.9825 L1802.33 9.54393 Z" fill="#000000" fill-rule="nonzero" fill-opacity="1" /><path clip-path="url(#clip840)" d="M1842.96 32.4315 Q1836.97 32.4315 1833.48 37.1306 Q1830 41.7891 1830 49.9314 Q1830 58.0738 1833.44 62.7728 Q1836.93 67.4314 1842.96 67.4314 Q1848.92 67.4314 1852.4 62.7323 Q1855.88 58.0333 1855.88 49.9314 Q1855.88 41.8701 1852.4 37.1711 Q1848.92 32.4315 1842.96 32.4315 M1842.96 26.1121 Q1852.68 26.1121 1858.23 32.4315 Q1863.78 38.7509 1863.78 49.9314 Q1863.78 61.0714 1858.23 67.4314 Q1852.68 73.7508 1842.96 73.7508 Q1833.2 73.7508 1827.65 67.4314 Q1822.14 61.0714 1822.14 49.9314 Q1822.14 38.7509 1827.65 32.4315 Q1833.2 26.1121 1842.96 26.1121 Z" fill="#000000" fill-rule="nonzero" fill-opacity="1" /><path clip-path="url(#clip840)" d="M1913.85 45.1919 L1913.85 72.576 L1906.4 72.576 L1906.4 45.4349 Q1906.4 38.994 1903.89 35.7938 Q1901.37 32.5936 1896.35 32.5936 Q1890.32 32.5936 1886.83 36.4419 Q1883.35 40.2903 1883.35 46.9338 L1883.35 72.576 L1875.85 72.576 L1875.85 27.2059 L1883.35 27.2059 L1883.35 34.2544 Q1886.02 30.163 1889.63 28.1376 Q1893.27 26.1121 1898.01 26.1121 Q1905.83 26.1121 1909.84 30.9732 Q1913.85 35.7938 1913.85 45.1919 Z" fill="#000000" fill-rule="nonzero" fill-opacity="1" /><polyline clip-path="url(#clip842)" style="stroke:#009af9; stroke-linecap:round; stroke-linejoin:round; stroke-width:4; stroke-opacity:1; fill:none" points="210.116,1410.84 251.721,1410.66 293.326,1410.38 334.93,1409.97 376.535,1409.36 418.14,1408.46 459.744,1407.1 501.349,1405.08 542.954,1402.08 584.558,1397.61 626.163,1390.96 667.768,1381.11 709.372,1366.55 750.977,1345.12 792.581,1313.79 834.186,1268.44 875.791,1203.78 917.395,1113.59 959,991.91 1000.6,835.744 1042.21,650.002 1083.81,454.032 1125.42,285.865 1167.02,196.342 1208.63,227.219 1250.23,382.305 1291.84,617.558 1333.44,865.337 1375.05,1072.27 1416.65,1217.96 1458.26,1308.2 1499.86,1359.01 1541.47,1385.72 1583.07,1399.08 1624.67,1405.55 1666.28,1408.6 1707.88,1410.02 1749.49,1410.67 1791.09,1410.97 1832.7,1411.1 1874.3,1411.16 1915.91,1411.19 1957.51,1411.2 1999.12,1411.21 2040.72,1411.21 2082.33,1411.21 2123.93,1411.21 2165.53,1411.21 2207.14,1411.21 2248.74,1411.21 2290.35,1411.21 210.116,1410.96 251.721,1410.84 293.326,1410.66 334.93,1410.38 376.535,1409.97 418.14,1409.36 459.744,1408.46 501.349,1407.1 542.954,1405.08 584.558,1402.08 626.163,1397.61 667.768,1390.96 709.372,1381.11 750.977,1366.55 792.581,1345.12 834.186,1313.79 875.791,1268.44 917.395,1203.78 959,1113.59 1000.6,991.91 1042.21,835.744 1083.81,650.002 1125.42,454.032 1167.02,285.865 1208.63,196.342 1250.23,227.219 1291.84,382.305 1333.44,617.558 1375.05,865.337 1416.65,1072.27 1458.26,1217.96 1499.86,1308.2 1541.47,1359.01 1583.07,1385.72 1624.67,1399.08 1666.28,1405.55 1707.88,1408.6 1749.49,1410.02 1791.09,1410.67 1832.7,1410.97 1874.3,1411.1 1915.91,1411.16 1957.51,1411.19 1999.12,1411.2 2040.72,1411.21 2082.33,1411.21 2123.93,1411.21 2165.53,1411.21 2207.14,1411.21 2248.74,1411.21 2290.35,1411.21 210.116,1411.05 251.721,1410.96 293.326,1410.84 334.93,1410.66 376.535,1410.38 418.14,1409.97 459.744,1409.36 501.349,1408.46 542.954,1407.1 584.558,1405.08 626.163,1402.08 667.768,1397.61 709.372,1390.96 750.977,1381.11 792.581,1366.55 834.186,1345.12 875.791,1313.79 917.395,1268.44 959,1203.78 1000.6,1113.59 1042.21,991.91 1083.81,835.744 1125.42,650.002 1167.02,454.032 1208.63,285.865 1250.23,196.342 1291.84,227.219 1333.44,382.305 1375.05,617.558 1416.65,865.337 1458.26,1072.27 1499.86,1217.96 1541.47,1308.2 1583.07,1359.01 1624.67,1385.72 1666.28,1399.08 1707.88,1405.55 1749.49,1408.6 1791.09,1410.02 1832.7,1410.67 1874.3,1410.97 1915.91,1411.1 1957.51,1411.16 1999.12,1411.19 2040.72,1411.2 2082.33,1411.21 2123.93,1411.21 2165.53,1411.21 2207.14,1411.21 2248.74,1411.21 2290.35,1411.21 210.116,1411.1 251.721,1411.05 293.326,1410.96 334.93,1410.84 376.535,1410.66 418.14,1410.38 459.744,1409.97 501.349,1409.36 542.954,1408.46 584.558,1407.1 626.163,1405.08 667.768,1402.08 709.372,1397.61 750.977,1390.96 792.581,1381.11 834.186,1366.55 875.791,1345.12 917.395,1313.79 959,1268.44 1000.6,1203.78 1042.21,1113.59 1083.81,991.91 1125.42,835.744 1167.02,650.002 1208.63,454.032 1250.23,285.865 1291.84,196.342 1333.44,227.219 1375.05,382.305 1416.65,617.558 1458.26,865.337 1499.86,1072.27 1541.47,1217.96 1583.07,1308.2 1624.67,1359.01 1666.28,1385.72 1707.88,1399.08 1749.49,1405.55 1791.09,1408.6 1832.7,1410.02 1874.3,1410.67 1915.91,1410.97 1957.51,1411.1 1999.12,1411.16 2040.72,1411.19 2082.33,1411.2 2123.93,1411.21 2165.53,1411.21 2207.14,1411.21 2248.74,1411.21 2290.35,1411.21 210.116,1411.14 251.721,1411.1 293.326,1411.05 334.93,1410.96 376.535,1410.84 418.14,1410.66 459.744,1410.38 501.349,1409.97 542.954,1409.36 584.558,1408.46 626.163,1407.1 667.768,1405.08 709.372,1402.08 750.977,1397.61 792.581,1390.96 834.186,1381.11 875.791,1366.55 917.395,1345.12 959,1313.79 1000.6,1268.44 1042.21,1203.78 1083.81,1113.59 1125.42,991.91 1167.02,835.744 1208.63,650.002 1250.23,454.032 1291.84,285.865 1333.44,196.342 1375.05,227.219 1416.65,382.305 1458.26,617.558 1499.86,865.337 1541.47,1072.27 1583.07,1217.96 1624.67,1308.2 1666.28,1359.01 1707.88,1385.72 1749.49,1399.08 1791.09,1405.55 1832.7,1408.6 1874.3,1410.02 1915.91,1410.67 1957.51,1410.97 1999.12,1411.1 2040.72,1411.16 2082.33,1411.19 2123.93,1411.2 2165.53,1411.21 2207.14,1411.21 2248.74,1411.21 2290.35,1411.21 210.116,1411.16 251.721,1411.14 293.326,1411.1 334.93,1411.05 376.535,1410.96 418.14,1410.84 459.744,1410.66 501.349,1410.38 542.954,1409.97 584.558,1409.36 626.163,1408.46 667.768,1407.1 709.372,1405.08 750.977,1402.08 792.581,1397.61 834.186,1390.96 875.791,1381.11 917.395,1366.55 959,1345.12 1000.6,1313.79 1042.21,1268.44 1083.81,1203.78 1125.42,1113.59 1167.02,991.91 1208.63,835.744 1250.23,650.002 1291.84,454.032 1333.44,285.865 1375.05,196.342 1416.65,227.219 1458.26,382.305 1499.86,617.558 1541.47,865.337 1583.07,1072.27 1624.67,1217.96 1666.28,1308.2 1707.88,1359.01 1749.49,1385.72 1791.09,1399.08 1832.7,1405.55 1874.3,1408.6 1915.91,1410.02 1957.51,1410.67 1999.12,1410.97 2040.72,1411.1 2082.33,1411.16 2123.93,1411.19 2165.53,1411.2 2207.14,1411.21 2248.74,1411.21 2290.35,1411.21 "/>
<polyline clip-path="url(#clip842)" style="stroke:#e26f46; stroke-linecap:round; stroke-linejoin:round; stroke-width:4; stroke-opacity:1; fill:none" points="210.116,1420.27 251.721,1416.88 293.326,1410.1 334.93,1426.62 376.535,1412 418.14,1415.16 459.744,1405.96 501.349,1407.58 542.954,1404.78 584.558,1397.03 626.163,1380.31 667.768,1385.34 709.372,1374.66 750.977,1333.42 792.581,1309.7 834.186,1268.9 875.791,1208.17 917.395,1113.93 959,993.239 1000.6,834.868 1042.21,661.511 1083.81,489.093 1125.42,308.547 1167.02,191.719 1208.63,249.44 1250.23,373.809 1291.84,591.877 1333.44,867.62 1375.05,1070.98 1416.65,1216.17 1458.26,1315.97 1499.86,1376.59 1541.47,1381.82 1583.07,1410.13 1624.67,1400.48 1666.28,1411.22 1707.88,1400.83 1749.49,1422.49 1791.09,1416.63 1832.7,1422.73 1874.3,1408.78 1915.91,1406.21 1957.51,1401.42 1999.12,1398.03 2040.72,1406.9 2082.33,1399.12 2123.93,1418.05 2165.53,1418.7 2207.14,1412.52 2248.74,1384.26 2290.35,1418.37 210.116,1443.34 251.721,1420.37 293.326,1412.63 334.93,1415.46 376.535,1417.15 418.14,1397.61 459.744,1399.02 501.349,1410.48 542.954,1415.23 584.558,1415.52 626.163,1372.47 667.768,1372.81 709.372,1378.28 750.977,1356.41 792.581,1355.67 834.186,1329.74 875.791,1266.26 917.395,1200.9 959,1111.43 1000.6,1011.31 1042.21,822.758 1083.81,654.919 1125.42,473.374 1167.02,292.251 1208.63,190.467 1250.23,162.047 1291.84,355.605 1333.44,647.961 1375.05,866.4 1416.65,1072.01 1458.26,1218.87 1499.86,1301.55 1541.47,1362.66 1583.07,1394.64 1624.67,1387.18 1666.28,1380.4 1707.88,1412.87 1749.49,1429.82 1791.09,1419.1 1832.7,1394.72 1874.3,1396.09 1915.91,1421.31 1957.51,1422.78 1999.12,1414.28 2040.72,1417.67 2082.33,1400.61 2123.93,1414.82 2165.53,1433.06 2207.14,1399.35 2248.74,1398.8 2290.35,1430.84 210.116,1413.38 251.721,1427.47 293.326,1419.1 334.93,1399.6 376.535,1391.54 418.14,1416.55 459.744,1421.64 501.349,1396.31 542.954,1404.86 584.558,1427.94 626.163,1415.34 667.768,1388.34 709.372,1402.59 750.977,1383.08 792.581,1341.2 834.186,1353.08 875.791,1332.69 917.395,1270.24 959,1198.69 1000.6,1111.8 1042.21,994.253 1083.81,797.903 1125.42,626.343 1167.02,443.93 1208.63,298.404 1250.23,209.438 1291.84,194.05 1333.44,401.443 1375.05,644.249 1416.65,853.144 1458.26,1075.27 1499.86,1212.06 1541.47,1319.87 1583.07,1349.18 1624.67,1386.11 1666.28,1396.55 1707.88,1426.32 1749.49,1397.87 1791.09,1406.1 1832.7,1399.43 1874.3,1418.03 1915.91,1403.09 1957.51,1405.97 1999.12,1438.37 2040.72,1411.28 2082.33,1429.7 2123.93,1392.6 2165.53,1403.86 2207.14,1408.75 2248.74,1432.35 2290.35,1404.71 210.116,1424.45 251.721,1437.1 293.326,1378.19 334.93,1378.15 376.535,1379.8 418.14,1410.81 459.744,1411.2 501.349,1397.66 542.954,1416.6 584.558,1411.19 626.163,1395.05 667.768,1421.78 709.372,1393.33 750.977,1386.77 792.581,1378.35 834.186,1340.62 875.791,1334.3 917.395,1309.99 959,1262.1 1000.6,1203.92 1042.21,1113.39 1083.81,991.292 1125.42,830.431 1167.02,677.357 1208.63,539.325 1250.23,261.135 1291.84,231.588 1333.44,273.205 1375.05,329.293 1416.65,626.101 1458.26,849.466 1499.86,1073.64 1541.47,1209.36 1583.07,1299.6 1624.67,1381.06 1666.28,1391.26 1707.88,1410.81 1749.49,1400.91 1791.09,1389.09 1832.7,1423.48 1874.3,1387.84 1915.91,1407.74 1957.51,1428.5 1999.12,1424.05 2040.72,1411.72 2082.33,1433.06 2123.93,1407.61 2165.53,1419.65 2207.14,1401.67 2248.74,1398.09 2290.35,1393.16 210.116,1416.85 251.721,1422.84 293.326,1402.19 334.93,1395.02 376.535,1404.35 418.14,1426.17 459.744,1391.42 501.349,1405.83 542.954,1385.48 584.558,1405.56 626.163,1418.14 667.768,1408.7 709.372,1399.84 750.977,1414.17 792.581,1407.52 834.186,1374.83 875.791,1365.92 917.395,1355.15 959,1328.09 1000.6,1266.55 1042.21,1203.52 1083.81,1116.21 1125.42,982.594 1167.02,835.853 1208.63,643.235 1250.23,426.579 1291.84,324.172 1333.44,218.969 1375.05,211.146 1416.65,413.202 1458.26,610.65 1499.86,881.578 1541.47,1073.43 1583.07,1222.55 1624.67,1309.83 1666.28,1337.94 1707.88,1399.01 1749.49,1409.09 1791.09,1393.06 1832.7,1398.58 1874.3,1422.81 1915.91,1422.87 1957.51,1425.59 1999.12,1435.08 2040.72,1435.68 2082.33,1419.17 2123.93,1412.51 2165.53,1414.01 2207.14,1447.87 2248.74,1401.69 2290.35,1411.57 210.116,1400.49 251.721,1415.8 293.326,1420.55 334.93,1406.72 376.535,1440.66 418.14,1396.51 459.744,1386.99 501.349,1376.82 542.954,1417.64 584.558,1404.67 626.163,1412.57 667.768,1378.84 709.372,1418.27 750.977,1391.81 792.581,1392.07 834.186,1374.99 875.791,1376.31 917.395,1377.63 959,1354.18 1000.6,1322.63 1042.21,1270.97 1083.81,1208 1125.42,1113.34 1167.02,977.838 1208.63,825.492 1250.23,628.504 1291.84,408.803 1333.44,281.112 1375.05,225.36 1416.65,224.522 1458.26,424.677 1499.86,614.435 1541.47,882.18 1583.07,1073.59 1624.67,1221.58 1666.28,1314.72 1707.88,1356.06 1749.49,1377.84 1791.09,1397.7 1832.7,1412.24 1874.3,1389.76 1915.91,1403.71 1957.51,1382.13 1999.12,1424.36 2040.72,1413.01 2082.33,1413.28 2123.93,1425.38 2165.53,1396.27 2207.14,1397.74 2248.74,1426.23 2290.35,1390.06 "/>
<path clip-path="url(#clip840)" d="M2006.32 324.425 L2279.25 324.425 L2279.25 168.905 L2006.32 168.905  Z" fill="#ffffff" fill-rule="evenodd" fill-opacity="1"/>
<polyline clip-path="url(#clip840)" style="stroke:#000000; stroke-linecap:round; stroke-linejoin:round; stroke-width:4; stroke-opacity:1; fill:none" points="2006.32,324.425 2279.25,324.425 2279.25,168.905 2006.32,168.905 2006.32,324.425 "/>
<polyline clip-path="url(#clip840)" style="stroke:#009af9; stroke-linecap:round; stroke-linejoin:round; stroke-width:4; stroke-opacity:1; fill:none" points="2030.82,220.745 2177.82,220.745 "/>
<path clip-path="url(#clip840)" d="M2216.17 240.432 Q2214.36 245.062 2212.65 246.474 Q2210.93 247.886 2208.06 247.886 L2204.66 247.886 L2204.66 244.321 L2207.16 244.321 Q2208.92 244.321 2209.89 243.488 Q2210.87 242.654 2212.05 239.552 L2212.81 237.608 L2202.32 212.099 L2206.84 212.099 L2214.94 232.377 L2223.04 212.099 L2227.55 212.099 L2216.17 240.432 Z" fill="#000000" fill-rule="nonzero" fill-opacity="1" /><path clip-path="url(#clip840)" d="M2234.85 234.089 L2242.49 234.089 L2242.49 207.724 L2234.18 209.391 L2234.18 205.131 L2242.44 203.465 L2247.11 203.465 L2247.11 234.089 L2254.75 234.089 L2254.75 238.025 L2234.85 238.025 L2234.85 234.089 Z" fill="#000000" fill-rule="nonzero" fill-opacity="1" /><polyline clip-path="url(#clip840)" style="stroke:#e26f46; stroke-linecap:round; stroke-linejoin:round; stroke-width:4; stroke-opacity:1; fill:none" points="2030.82,272.585 2177.82,272.585 "/>
<path clip-path="url(#clip840)" d="M2216.17 292.272 Q2214.36 296.902 2212.65 298.314 Q2210.93 299.726 2208.06 299.726 L2204.66 299.726 L2204.66 296.161 L2207.16 296.161 Q2208.92 296.161 2209.89 295.328 Q2210.87 294.494 2212.05 291.392 L2212.81 289.448 L2202.32 263.939 L2206.84 263.939 L2214.94 284.217 L2223.04 263.939 L2227.55 263.939 L2216.17 292.272 Z" fill="#000000" fill-rule="nonzero" fill-opacity="1" /><path clip-path="url(#clip840)" d="M2238.06 285.929 L2254.38 285.929 L2254.38 289.865 L2232.44 289.865 L2232.44 285.929 Q2235.1 283.175 2239.68 278.545 Q2244.29 273.893 2245.47 272.55 Q2247.72 270.027 2248.6 268.291 Q2249.5 266.531 2249.5 264.842 Q2249.5 262.087 2247.55 260.351 Q2245.63 258.615 2242.53 258.615 Q2240.33 258.615 2237.88 259.379 Q2235.45 260.143 2232.67 261.694 L2232.67 256.971 Q2235.49 255.837 2237.95 255.258 Q2240.4 254.68 2242.44 254.68 Q2247.81 254.68 2251 257.365 Q2254.2 260.05 2254.2 264.541 Q2254.2 266.67 2253.39 268.592 Q2252.6 270.49 2250.49 273.082 Q2249.92 273.754 2246.81 276.971 Q2243.71 280.166 2238.06 285.929 Z" fill="#000000" fill-rule="nonzero" fill-opacity="1" /></svg>
