<?xml version="1.0" encoding="utf-8"?>
<svg xmlns="http://www.w3.org/2000/svg" xmlns:xlink="http://www.w3.org/1999/xlink" width="600" height="400" viewBox="0 0 2400 1600">
<defs>
  <clipPath id="clip660">
    <rect x="0" y="0" width="2400" height="1600"/>
  </clipPath>
</defs>
<path clip-path="url(#clip660)" d="M0 1600 L2400 1600 L2400 0 L0 0  Z" fill="#ffffff" fill-rule="evenodd" fill-opacity="1"/>
<defs>
  <clipPath id="clip661">
    <rect x="480" y="0" width="1681" height="1600"/>
  </clipPath>
</defs>
<path clip-path="url(#clip660)" d="M184.191 1423.18 L2352.76 1423.18 L2352.76 47.2441 L184.191 47.2441  Z" fill="#ffffff" fill-rule="evenodd" fill-opacity="1"/>
<defs>
  <clipPath id="clip662">
    <rect x="184" y="47" width="2170" height="1377"/>
  </clipPath>
</defs>
<polyline clip-path="url(#clip662)" style="stroke:#000000; stroke-linecap:round; stroke-linejoin:round; stroke-width:2; stroke-opacity:0.1; fill:none" points="184.191,1423.18 184.191,47.2441 "/>
<polyline clip-path="url(#clip662)" style="stroke:#000000; stroke-linecap:round; stroke-linejoin:round; stroke-width:2; stroke-opacity:0.1; fill:none" points="726.332,1423.18 726.332,47.2441 "/>
<polyline clip-path="url(#clip662)" style="stroke:#000000; stroke-linecap:round; stroke-linejoin:round; stroke-width:2; stroke-opacity:0.1; fill:none" points="1268.47,1423.18 1268.47,47.2441 "/>
<polyline clip-path="url(#clip662)" style="stroke:#000000; stroke-linecap:round; stroke-linejoin:round; stroke-width:2; stroke-opacity:0.1; fill:none" points="1810.61,1423.18 1810.61,47.2441 "/>
<polyline clip-path="url(#clip662)" style="stroke:#000000; stroke-linecap:round; stroke-linejoin:round; stroke-width:2; stroke-opacity:0.1; fill:none" points="2352.76,1423.18 2352.76,47.2441 "/>
<polyline clip-path="url(#clip660)" style="stroke:#000000; stroke-linecap:round; stroke-linejoin:round; stroke-width:4; stroke-opacity:1; fill:none" points="184.191,1423.18 2352.76,1423.18 "/>
<polyline clip-path="url(#clip660)" style="stroke:#000000; stroke-linecap:round; stroke-linejoin:round; stroke-width:4; stroke-opacity:1; fill:none" points="184.191,1423.18 184.191,1404.28 "/>
<polyline clip-path="url(#clip660)" style="stroke:#000000; stroke-linecap:round; stroke-linejoin:round; stroke-width:4; stroke-opacity:1; fill:none" points="726.332,1423.18 726.332,1404.28 "/>
<polyline clip-path="url(#clip660)" style="stroke:#000000; stroke-linecap:round; stroke-linejoin:round; stroke-width:4; stroke-opacity:1; fill:none" points="1268.47,1423.18 1268.47,1404.28 "/>
<polyline clip-path="url(#clip660)" style="stroke:#000000; stroke-linecap:round; stroke-linejoin:round; stroke-width:4; stroke-opacity:1; fill:none" points="1810.61,1423.18 1810.61,1404.28 "/>
<polyline clip-path="url(#clip660)" style="stroke:#000000; stroke-linecap:round; stroke-linejoin:round; stroke-width:4; stroke-opacity:1; fill:none" points="2352.76,1423.18 2352.76,1404.28 "/>
<path clip-path="url(#clip660)" d="M184.191 1454.1 Q180.58 1454.1 178.751 1457.66 Q176.945 1461.2 176.945 1468.33 Q176.945 1475.44 178.751 1479.01 Q180.58 1482.55 184.191 1482.55 Q187.825 1482.55 189.63 1479.01 Q191.459 1475.44 191.459 1468.33 Q191.459 1461.2 189.63 1457.66 Q187.825 1454.1 184.191 1454.1 M184.191 1450.39 Q190.001 1450.39 193.056 1455 Q196.135 1459.58 196.135 1468.33 Q196.135 1477.06 193.056 1481.67 Q190.001 1486.25 184.191 1486.25 Q178.381 1486.25 175.302 1481.67 Q172.246 1477.06 172.246 1468.33 Q172.246 1459.58 175.302 1455 Q178.381 1450.39 184.191 1450.39 Z" fill="#000000" fill-rule="nonzero" fill-opacity="1" /><path clip-path="url(#clip660)" d="M716.714 1481.64 L724.353 1481.64 L724.353 1455.28 L716.043 1456.95 L716.043 1452.69 L724.307 1451.02 L728.982 1451.02 L728.982 1481.64 L736.621 1481.64 L736.621 1485.58 L716.714 1485.58 L716.714 1481.64 Z" fill="#000000" fill-rule="nonzero" fill-opacity="1" /><path clip-path="url(#clip660)" d="M1263.13 1481.64 L1279.45 1481.64 L1279.45 1485.58 L1257.5 1485.58 L1257.5 1481.64 Q1260.16 1478.89 1264.75 1474.26 Q1269.35 1469.61 1270.53 1468.27 Q1272.78 1465.74 1273.66 1464.01 Q1274.56 1462.25 1274.56 1460.56 Q1274.56 1457.8 1272.62 1456.07 Q1270.7 1454.33 1267.59 1454.33 Q1265.39 1454.33 1262.94 1455.09 Q1260.51 1455.86 1257.73 1457.41 L1257.73 1452.69 Q1260.56 1451.55 1263.01 1450.97 Q1265.46 1450.39 1267.5 1450.39 Q1272.87 1450.39 1276.07 1453.08 Q1279.26 1455.77 1279.26 1460.26 Q1279.26 1462.39 1278.45 1464.31 Q1277.66 1466.2 1275.56 1468.8 Q1274.98 1469.47 1271.88 1472.69 Q1268.77 1475.88 1263.13 1481.64 Z" fill="#000000" fill-rule="nonzero" fill-opacity="1" /><path clip-path="url(#clip660)" d="M1814.86 1466.95 Q1818.22 1467.66 1820.09 1469.93 Q1821.99 1472.2 1821.99 1475.53 Q1821.99 1480.65 1818.47 1483.45 Q1814.95 1486.25 1808.47 1486.25 Q1806.3 1486.25 1803.98 1485.81 Q1801.69 1485.39 1799.24 1484.54 L1799.24 1480.02 Q1801.18 1481.16 1803.5 1481.74 Q1805.81 1482.32 1808.33 1482.32 Q1812.73 1482.32 1815.02 1480.58 Q1817.34 1478.84 1817.34 1475.53 Q1817.34 1472.48 1815.19 1470.77 Q1813.06 1469.03 1809.24 1469.03 L1805.21 1469.03 L1805.21 1465.19 L1809.42 1465.19 Q1812.87 1465.19 1814.7 1463.82 Q1816.53 1462.43 1816.53 1459.84 Q1816.53 1457.18 1814.63 1455.77 Q1812.76 1454.33 1809.24 1454.33 Q1807.32 1454.33 1805.12 1454.75 Q1802.92 1455.16 1800.28 1456.04 L1800.28 1451.88 Q1802.94 1451.14 1805.26 1450.77 Q1807.59 1450.39 1809.65 1450.39 Q1814.98 1450.39 1818.08 1452.83 Q1821.18 1455.23 1821.18 1459.35 Q1821.18 1462.22 1819.54 1464.21 Q1817.89 1466.18 1814.86 1466.95 Z" fill="#000000" fill-rule="nonzero" fill-opacity="1" /><path clip-path="url(#clip660)" d="M2355.77 1455.09 L2343.96 1473.54 L2355.77 1473.54 L2355.77 1455.09 M2354.54 1451.02 L2360.42 1451.02 L2360.42 1473.54 L2365.35 1473.54 L2365.35 1477.43 L2360.42 1477.43 L2360.42 1485.58 L2355.77 1485.58 L2355.77 1477.43 L2340.16 1477.43 L2340.16 1472.92 L2354.54 1451.02 Z" fill="#000000" fill-rule="nonzero" fill-opacity="1" /><path clip-path="url(#clip660)" d="M1267.53 1522.27 L1267.53 1532.4 L1279.6 1532.4 L1279.6 1536.95 L1267.53 1536.95 L1267.53 1556.3 Q1267.53 1560.66 1268.71 1561.9 Q1269.92 1563.14 1273.58 1563.14 L1279.6 1563.14 L1279.6 1568.04 L1273.58 1568.04 Q1266.8 1568.04 1264.22 1565.53 Q1261.65 1562.98 1261.65 1556.3 L1261.65 1536.95 L1257.35 1536.95 L1257.35 1532.4 L1261.65 1532.4 L1261.65 1522.27 L1267.53 1522.27 Z" fill="#000000" fill-rule="nonzero" fill-opacity="1" /><polyline clip-path="url(#clip662)" style="stroke:#000000; stroke-linecap:round; stroke-linejoin:round; stroke-width:2; stroke-opacity:0.1; fill:none" points="184.191,1392.33 2352.76,1392.33 "/>
<polyline clip-path="url(#clip662)" style="stroke:#000000; stroke-linecap:round; stroke-linejoin:round; stroke-width:2; stroke-opacity:0.1; fill:none" points="184.191,1082.31 2352.76,1082.31 "/>
<polyline clip-path="url(#clip662)" style="stroke:#000000; stroke-linecap:round; stroke-linejoin:round; stroke-width:2; stroke-opacity:0.1; fill:none" points="184.191,772.291 2352.76,772.291 "/>
<polyline clip-path="url(#clip662)" style="stroke:#000000; stroke-linecap:round; stroke-linejoin:round; stroke-width:2; stroke-opacity:0.1; fill:none" points="184.191,462.273 2352.76,462.273 "/>
<polyline clip-path="url(#clip662)" style="stroke:#000000; stroke-linecap:round; stroke-linejoin:round; stroke-width:2; stroke-opacity:0.1; fill:none" points="184.191,152.255 2352.76,152.255 "/>
<polyline clip-path="url(#clip660)" style="stroke:#000000; stroke-linecap:round; stroke-linejoin:round; stroke-width:4; stroke-opacity:1; fill:none" points="184.191,1423.18 184.191,47.2441 "/>
<polyline clip-path="url(#clip660)" style="stroke:#000000; stroke-linecap:round; stroke-linejoin:round; stroke-width:4; stroke-opacity:1; fill:none" points="184.191,1392.33 203.088,1392.33 "/>
<polyline clip-path="url(#clip660)" style="stroke:#000000; stroke-linecap:round; stroke-linejoin:round; stroke-width:4; stroke-opacity:1; fill:none" points="184.191,1082.31 203.088,1082.31 "/>
<polyline clip-path="url(#clip660)" style="stroke:#000000; stroke-linecap:round; stroke-linejoin:round; stroke-width:4; stroke-opacity:1; fill:none" points="184.191,772.291 203.088,772.291 "/>
<polyline clip-path="url(#clip660)" style="stroke:#000000; stroke-linecap:round; stroke-linejoin:round; stroke-width:4; stroke-opacity:1; fill:none" points="184.191,462.273 203.088,462.273 "/>
<polyline clip-path="url(#clip660)" style="stroke:#000000; stroke-linecap:round; stroke-linejoin:round; stroke-width:4; stroke-opacity:1; fill:none" points="184.191,152.255 203.088,152.255 "/>
<path clip-path="url(#clip660)" d="M91.0151 1378.13 Q87.404 1378.13 85.5753 1381.69 Q83.7697 1385.23 83.7697 1392.36 Q83.7697 1399.47 85.5753 1403.03 Q87.404 1406.57 91.0151 1406.57 Q94.6493 1406.57 96.4548 1403.03 Q98.2835 1399.47 98.2835 1392.36 Q98.2835 1385.23 96.4548 1381.69 Q94.6493 1378.13 91.0151 1378.13 M91.0151 1374.42 Q96.8252 1374.42 99.8808 1379.03 Q102.959 1383.61 102.959 1392.36 Q102.959 1401.09 99.8808 1405.69 Q96.8252 1410.28 91.0151 1410.28 Q85.2049 1410.28 82.1262 1405.69 Q79.0707 1401.09 79.0707 1392.36 Q79.0707 1383.61 82.1262 1379.03 Q85.2049 1374.42 91.0151 1374.42 Z" fill="#000000" fill-rule="nonzero" fill-opacity="1" /><path clip-path="url(#clip660)" d="M111.177 1403.73 L116.061 1403.73 L116.061 1409.61 L111.177 1409.61 L111.177 1403.73 Z" fill="#000000" fill-rule="nonzero" fill-opacity="1" /><path clip-path="url(#clip660)" d="M136.246 1378.13 Q132.635 1378.13 130.807 1381.69 Q129.001 1385.23 129.001 1392.36 Q129.001 1399.47 130.807 1403.03 Q132.635 1406.57 136.246 1406.57 Q139.881 1406.57 141.686 1403.03 Q143.515 1399.47 143.515 1392.36 Q143.515 1385.23 141.686 1381.69 Q139.881 1378.13 136.246 1378.13 M136.246 1374.42 Q142.056 1374.42 145.112 1379.03 Q148.191 1383.61 148.191 1392.36 Q148.191 1401.09 145.112 1405.69 Q142.056 1410.28 136.246 1410.28 Q130.436 1410.28 127.357 1405.69 Q124.302 1401.09 124.302 1392.36 Q124.302 1383.61 127.357 1379.03 Q130.436 1374.42 136.246 1374.42 Z" fill="#000000" fill-rule="nonzero" fill-opacity="1" /><path clip-path="url(#clip660)" d="M86.0382 1095.65 L102.358 1095.65 L102.358 1099.59 L80.4133 1099.59 L80.4133 1095.65 Q83.0753 1092.9 87.6586 1088.27 Q92.2651 1083.62 93.4456 1082.27 Q95.691 1079.75 96.5706 1078.01 Q97.4734 1076.26 97.4734 1074.57 Q97.4734 1071.81 95.5289 1070.08 Q93.6076 1068.34 90.5058 1068.34 Q88.3067 1068.34 85.8531 1069.1 Q83.4225 1069.87 80.6447 1071.42 L80.6447 1066.7 Q83.4688 1065.56 85.9225 1064.98 Q88.3762 1064.4 90.4132 1064.4 Q95.7836 1064.4 98.978 1067.09 Q102.172 1069.77 102.172 1074.26 Q102.172 1076.39 101.362 1078.32 Q100.575 1080.21 98.4687 1082.81 Q97.89 1083.48 94.7882 1086.7 Q91.6864 1089.89 86.0382 1095.65 Z" fill="#000000" fill-rule="nonzero" fill-opacity="1" /><path clip-path="url(#clip660)" d="M112.172 1093.71 L117.057 1093.71 L117.057 1099.59 L112.172 1099.59 L112.172 1093.71 Z" fill="#000000" fill-rule="nonzero" fill-opacity="1" /><path clip-path="url(#clip660)" d="M127.288 1065.03 L145.644 1065.03 L145.644 1068.96 L131.57 1068.96 L131.57 1077.44 Q132.589 1077.09 133.607 1076.93 Q134.626 1076.74 135.644 1076.74 Q141.431 1076.74 144.811 1079.91 Q148.191 1083.08 148.191 1088.5 Q148.191 1094.08 144.718 1097.18 Q141.246 1100.26 134.927 1100.26 Q132.751 1100.26 130.482 1099.89 Q128.237 1099.52 125.83 1098.78 L125.83 1094.08 Q127.913 1095.21 130.135 1095.77 Q132.357 1096.32 134.834 1096.32 Q138.839 1096.32 141.177 1094.22 Q143.515 1092.11 143.515 1088.5 Q143.515 1084.89 141.177 1082.78 Q138.839 1080.68 134.834 1080.68 Q132.959 1080.68 131.084 1081.09 Q129.232 1081.51 127.288 1082.39 L127.288 1065.03 Z" fill="#000000" fill-rule="nonzero" fill-opacity="1" /><path clip-path="url(#clip660)" d="M81.0614 755.011 L99.4178 755.011 L99.4178 758.946 L85.3438 758.946 L85.3438 767.418 Q86.3623 767.071 87.3808 766.909 Q88.3993 766.724 89.4178 766.724 Q95.2049 766.724 98.5845 769.895 Q101.964 773.066 101.964 778.483 Q101.964 784.062 98.4919 787.163 Q95.0197 790.242 88.7003 790.242 Q86.5243 790.242 84.2558 789.872 Q82.0105 789.501 79.6031 788.761 L79.6031 784.062 Q81.6864 785.196 83.9086 785.751 Q86.1308 786.307 88.6077 786.307 Q92.6123 786.307 94.9502 784.201 Q97.2882 782.094 97.2882 778.483 Q97.2882 774.872 94.9502 772.765 Q92.6123 770.659 88.6077 770.659 Q86.7327 770.659 84.8577 771.076 Q83.0058 771.492 81.0614 772.372 L81.0614 755.011 Z" fill="#000000" fill-rule="nonzero" fill-opacity="1" /><path clip-path="url(#clip660)" d="M111.177 783.691 L116.061 783.691 L116.061 789.571 L111.177 789.571 L111.177 783.691 Z" fill="#000000" fill-rule="nonzero" fill-opacity="1" /><path clip-path="url(#clip660)" d="M136.246 758.09 Q132.635 758.09 130.807 761.654 Q129.001 765.196 129.001 772.326 Q129.001 779.432 130.807 782.997 Q132.635 786.538 136.246 786.538 Q139.881 786.538 141.686 782.997 Q143.515 779.432 143.515 772.326 Q143.515 765.196 141.686 761.654 Q139.881 758.09 136.246 758.09 M136.246 754.386 Q142.056 754.386 145.112 758.992 Q148.191 763.576 148.191 772.326 Q148.191 781.052 145.112 785.659 Q142.056 790.242 136.246 790.242 Q130.436 790.242 127.357 785.659 Q124.302 781.052 124.302 772.326 Q124.302 763.576 127.357 758.992 Q130.436 754.386 136.246 754.386 Z" fill="#000000" fill-rule="nonzero" fill-opacity="1" /><path clip-path="url(#clip660)" d="M80.8299 444.993 L103.052 444.993 L103.052 446.984 L90.5058 479.553 L85.6216 479.553 L97.4271 448.928 L80.8299 448.928 L80.8299 444.993 Z" fill="#000000" fill-rule="nonzero" fill-opacity="1" /><path clip-path="url(#clip660)" d="M112.172 473.673 L117.057 473.673 L117.057 479.553 L112.172 479.553 L112.172 473.673 Z" fill="#000000" fill-rule="nonzero" fill-opacity="1" /><path clip-path="url(#clip660)" d="M127.288 444.993 L145.644 444.993 L145.644 448.928 L131.57 448.928 L131.57 457.4 Q132.589 457.053 133.607 456.891 Q134.626 456.706 135.644 456.706 Q141.431 456.706 144.811 459.877 Q148.191 463.048 148.191 468.465 Q148.191 474.044 144.718 477.146 Q141.246 480.224 134.927 480.224 Q132.751 480.224 130.482 479.854 Q128.237 479.483 125.83 478.743 L125.83 474.044 Q127.913 475.178 130.135 475.734 Q132.357 476.289 134.834 476.289 Q138.839 476.289 141.177 474.183 Q143.515 472.076 143.515 468.465 Q143.515 464.854 141.177 462.747 Q138.839 460.641 134.834 460.641 Q132.959 460.641 131.084 461.058 Q129.232 461.474 127.288 462.354 L127.288 444.993 Z" fill="#000000" fill-rule="nonzero" fill-opacity="1" /><path clip-path="url(#clip660)" d="M51.6634 165.6 L59.3023 165.6 L59.3023 139.234 L50.9921 140.901 L50.9921 136.642 L59.256 134.975 L63.9319 134.975 L63.9319 165.6 L71.5707 165.6 L71.5707 169.535 L51.6634 169.535 L51.6634 165.6 Z" fill="#000000" fill-rule="nonzero" fill-opacity="1" /><path clip-path="url(#clip660)" d="M91.0151 138.054 Q87.404 138.054 85.5753 141.618 Q83.7697 145.16 83.7697 152.29 Q83.7697 159.396 85.5753 162.961 Q87.404 166.503 91.0151 166.503 Q94.6493 166.503 96.4548 162.961 Q98.2835 159.396 98.2835 152.29 Q98.2835 145.16 96.4548 141.618 Q94.6493 138.054 91.0151 138.054 M91.0151 134.35 Q96.8252 134.35 99.8808 138.956 Q102.959 143.54 102.959 152.29 Q102.959 161.017 99.8808 165.623 Q96.8252 170.206 91.0151 170.206 Q85.2049 170.206 82.1262 165.623 Q79.0707 161.017 79.0707 152.29 Q79.0707 143.54 82.1262 138.956 Q85.2049 134.35 91.0151 134.35 Z" fill="#000000" fill-rule="nonzero" fill-opacity="1" /><path clip-path="url(#clip660)" d="M111.177 163.655 L116.061 163.655 L116.061 169.535 L111.177 169.535 L111.177 163.655 Z" fill="#000000" fill-rule="nonzero" fill-opacity="1" /><path clip-path="url(#clip660)" d="M136.246 138.054 Q132.635 138.054 130.807 141.618 Q129.001 145.16 129.001 152.29 Q129.001 159.396 130.807 162.961 Q132.635 166.503 136.246 166.503 Q139.881 166.503 141.686 162.961 Q143.515 159.396 143.515 152.29 Q143.515 145.16 141.686 141.618 Q139.881 138.054 136.246 138.054 M136.246 134.35 Q142.056 134.35 145.112 138.956 Q148.191 143.54 148.191 152.29 Q148.191 161.017 145.112 165.623 Q142.056 170.206 136.246 170.206 Q130.436 170.206 127.357 165.623 Q124.302 161.017 124.302 152.29 Q124.302 143.54 127.357 138.956 Q130.436 134.35 136.246 134.35 Z" fill="#000000" fill-rule="nonzero" fill-opacity="1" /><polyline clip-path="url(#clip662)" style="stroke:#009af9; stroke-linecap:round; stroke-linejoin:round; stroke-width:4; stroke-opacity:1; fill:none" points="184.191,1254.87 189.612,1289.61 195.034,1253.61 200.455,1228.38 205.876,1224.04 211.298,1287.33 216.719,1236.53 222.141,1266.77 227.562,1264.14 232.983,1272.19 238.405,1196.31 243.826,1235.88 249.248,1207.09 254.669,1252.88 260.09,1245.46 265.512,1249.63 270.933,1325.24 276.355,1237.83 281.776,1326.14 287.198,1190.13 292.619,1282.67 298.04,1226.71 303.462,1259.66 308.883,1248.25 314.305,1235.99 319.726,1270.06 325.147,1305.66 330.569,1297.11 335.99,1148.28 341.412,1281.97 346.833,1314.09 352.254,1279.56 357.676,1343 363.097,1312.44 368.519,1249.33 373.94,1215.83 379.362,1199.4 384.783,1262.21 390.204,1178.1 395.626,1240.54 401.047,1215.93 406.469,1255.46 411.89,1257.31 417.311,1217.48 422.733,1163.37 428.154,1254.17 433.576,1298.53 438.997,1263.7 444.419,1214.15 449.84,1201.22 455.261,1202.82 460.683,1220.87 466.104,1240.55 471.526,1099.42 476.947,1176.47 482.368,1159.61 487.79,1150.4 493.211,1226.48 498.633,1249.6 504.054,1106.25 509.475,1209.85 514.897,1169.64 520.318,1110.11 525.74,1157.5 531.161,1178.92 536.583,1128.81 542.004,1135.13 547.425,1188.88 552.847,1081.49 558.268,1194.24 563.69,1213.91 569.111,1110.32 574.532,1103.38 579.954,1146.23 585.375,1139.04 590.797,1049 596.218,1091.07 601.639,1193.13 607.061,1028.38 612.482,1185.86 617.904,1025.72 623.325,1200.39 628.747,1094.96 634.168,1116.48 639.589,1121.69 645.011,1181.59 650.432,1241.05 655.854,1173.13 661.275,1128.18 666.696,1117.44 672.118,1025.9 677.539,1103.02 682.961,845.556 688.382,1165.49 693.804,1099.55 699.225,1094.18 704.646,1019.75 710.068,1145.07 715.489,1130.57 720.911,1127.33 726.332,988.529 731.753,1238.78 737.175,1175.34 742.596,963.196 748.018,992.403 753.439,1171.4 758.86,1139.63 764.282,836.468 769.703,943.826 775.125,1019.04 780.546,1030.12 785.968,876.751 791.389,1012.56 796.81,945.98 802.232,666.471 807.653,900.698 813.075,1134.74 818.496,1050.05 823.917,815.602 829.339,910.713 834.76,954.463 840.182,1044.55 845.603,852.31 851.024,1032.42 856.446,966.946 861.867,783.66 867.289,744.59 872.71,809.904 878.132,1044.46 883.553,1229.94 888.974,727.721 894.396,1043.94 899.817,918.56 905.239,1192.17 910.66,712.814 916.081,1003.59 921.503,861.439 926.924,847.918 932.346,523.207 937.767,807.248 943.189,758.125 948.61,777.231 954.031,1245.52 959.453,697.641 964.874,772.613 970.296,749.737 975.717,985.509 981.138,859.757 986.56,801.185 991.981,424.906 997.403,1127.5 1002.82,887.677 1008.25,86.1857 1013.67,580.477 1019.09,1141.42 1024.51,731.418 1029.93,527.789 1035.35,446.147 1040.77,874.573 1046.2,559.802 1051.62,472.171 1057.04,263.346 1062.46,547.409 1067.88,266.617 1073.3,799.865 1078.72,348.055 1084.15,827.506 1089.57,657.498 1094.99,959.415 1100.41,562.751 1105.83,728.832 1111.25,299.887 1116.67,500.965 1122.1,541.82 1127.52,825.858 1132.94,400.43 1138.36,437.656 1143.78,1043.86 1149.2,394.134 1154.62,445.479 1160.05,425.973 1165.47,476.092 1170.89,555.959 1176.31,563.805 1181.73,243.155 1187.15,672.313 1192.57,445.094 1197.99,798.517 1203.42,949.754 1208.84,606.857 1214.26,964.246 1219.68,725.56 1225.1,131.116 1230.52,210.25 1235.94,1089.54 1241.37,521.197 1246.79,301.244 1252.21,719.755 1257.63,478.367 1263.05,1075.67 1268.47,494.796 1273.89,312.005 1279.32,849.716 1284.74,827.546 1290.16,734.516 1295.58,755.527 1301,546.675 1306.42,940.149 1311.84,941.661 1317.27,722.098 1322.69,666.335 1328.11,822.015 1333.53,553.463 1338.95,1010.33 1344.37,301.406 1349.79,787.963 1355.22,810.813 1360.64,795.068 1366.06,641.325 1371.48,697.46 1376.9,766.697 1382.32,589.295 1387.74,929.494 1393.17,660.864 1398.59,1012.94 1404.01,1091.14 1409.43,608.284 1414.85,937.81 1420.27,940.828 1425.69,636.521 1431.12,898.469 1436.54,1045.41 1441.96,1075.27 1447.38,1128.84 1452.8,1082.8 1458.22,996.628 1463.64,1011.92 1469.07,971.553 1474.49,894.385 1479.91,1037.02 1485.33,1053.71 1490.75,868.458 1496.17,952.981 1501.59,1172.8 1507.02,1138.3 1512.44,1007.26 1517.86,1250.89 1523.28,1021.46 1528.7,1080.03 1534.12,1135.43 1539.54,1167.91 1544.97,1043.27 1550.39,1036.41 1555.81,1116.65 1561.23,1229.57 1566.65,1147.55 1572.07,1098.3 1577.49,1196.5 1582.92,1084.26 1588.34,1200.36 1593.76,1190.54 1599.18,1226.51 1604.6,1127.27 1610.02,1146.51 1615.44,1224.93 1620.87,1259.59 1626.29,1183.36 1631.71,1219.64 1637.13,1193.8 1642.55,1277.08 1647.97,1283.83 1653.39,1266.12 1658.82,1238.52 1664.24,1277.7 1669.66,1264.57 1675.08,1238.26 1680.5,1221.82 1685.92,1210.71 1691.34,1347.31 1696.76,1197.01 1702.19,1128.77 1707.61,1273.57 1713.03,1243.85 1718.45,1287.8 1723.87,1191.56 1729.29,1260.11 1734.71,1273.5 1740.14,1210.41 1745.56,1252.89 1750.98,1327.7 1756.4,1228.38 1761.82,1237.11 1767.24,1272.26 1772.66,1244.09 1778.09,1301.98 1783.51,1281.01 1788.93,1252.53 1794.35,1262.49 1799.77,1229.14 1805.19,1255.08 1810.61,1243.57 1816.04,1221.67 1821.46,1238.98 1826.88,1238.41 1832.3,1274.01 1837.72,1223.59 1843.14,1258.59 1848.56,1216.33 1853.99,1284.41 1859.41,1235.56 1864.83,1271.59 1870.25,1243.1 1875.67,1235.53 1881.09,1296.71 1886.51,1278.41 1891.94,1280.92 1897.36,1251.77 1902.78,1313.01 1908.2,1266.95 1913.62,1255.33 1919.04,1272.32 1924.46,1281.88 1929.89,1238.26 1935.31,1234.39 1940.73,1235.21 1946.15,1265.2 1951.57,1215.53 1956.99,1264.89 1962.41,1185.57 1967.84,1304.71 1973.26,1215.82 1978.68,1222.41 1984.1,1241.74 1989.52,1282.37 1994.94,1294.79 2000.36,1258.14 2005.79,1260.07 2011.21,1336.62 2016.63,1286.81 2022.05,1279.25 2027.47,1302.87 2032.89,1272.55 2038.31,1234.84 2043.74,1247.19 2049.16,1296.79 2054.58,1175.85 2060,1214.03 2065.42,1305.55 2070.84,1253.12 2076.26,1237.32 2081.69,1270 2087.11,1214.46 2092.53,1214.78 2097.95,1335.97 2103.37,1237.38 2108.79,1199.73 2114.21,1245.36 2119.64,1259.7 2125.06,1336.86 2130.48,1222.01 2135.9,1302.86 2141.32,1237.36 2146.74,1201.68 2152.16,1272.13 2157.59,1258.98 2163.01,1284.13 2168.43,1257.98 2173.85,1235.92 2179.27,1232.12 2184.69,1209.82 2190.11,1287.68 2195.53,1265.6 2200.96,1257.62 2206.38,1243.96 2211.8,1148.52 2217.22,1255.32 2222.64,1241.09 2228.06,1206.7 2233.48,1247.25 2238.91,1194.31 2244.33,1239.14 2249.75,1238.38 2255.17,1224.84 2260.59,1178.43 2266.01,1210.05 2271.43,1156.4 2276.86,1163.67 2282.28,1226.17 2287.7,1148.61 2293.12,1227.01 2298.54,1197.55 2303.96,1203.35 2309.38,1040.73 2314.81,1205.09 2320.23,1243.43 2325.65,1206.9 2331.07,1230.28 2336.49,1273.99 2341.91,1176.09 2347.33,1132.41 2352.76,1142.16 "/>
<polyline clip-path="url(#clip662)" style="stroke:#e26f46; stroke-linecap:round; stroke-linejoin:round; stroke-width:4; stroke-opacity:1; fill:none" points="184.191,1209.18 189.612,1232.45 195.034,1384.24 200.455,1313.53 205.876,1297.92 211.298,1310.18 216.719,1231.86 222.141,1316.18 227.562,1299.41 232.983,1321.18 238.405,1279.64 243.826,1277.58 249.248,1288.45 254.669,1306.63 260.09,1312.15 265.512,1285.82 270.933,1270.34 276.355,1331.71 281.776,1287.25 287.198,1302.51 292.619,1289.73 298.04,1289.45 303.462,1282.34 308.883,1275.03 314.305,1353.72 319.726,1300.23 325.147,1289.63 330.569,1314.69 335.99,1312.61 341.412,1325.26 346.833,1327.91 352.254,1318.24 357.676,1312.06 363.097,1303.21 368.519,1310.76 373.94,1372.7 379.362,1286.55 384.783,1328.95 390.204,1322.29 395.626,1327.89 401.047,1302.92 406.469,1335.09 411.89,1324.37 417.311,1299.04 422.733,1326.2 428.154,1334.11 433.576,1342.76 438.997,1359.08 444.419,1344.01 449.84,1348.98 455.261,1357.95 460.683,1360.59 466.104,1344.05 471.526,1373.49 476.947,1359.69 482.368,1326.71 487.79,1335.21 493.211,1353.39 498.633,1352.22 504.054,1356.74 509.475,1361.75 514.897,1332.38 520.318,1349.01 525.74,1350.77 531.161,1350.7 536.583,1341.72 542.004,1349.65 547.425,1346.99 552.847,1368.91 558.268,1362.36 563.69,1360.08 569.111,1341.04 574.532,1358.28 579.954,1352.35 585.375,1347.22 590.797,1379.28 596.218,1357.74 601.639,1360.72 607.061,1352.72 612.482,1348.56 617.904,1343.44 623.325,1348.4 628.747,1380.5 634.168,1354.37 639.589,1372.17 645.011,1341.76 650.432,1357.68 655.854,1363.03 661.275,1345.33 666.696,1352.53 672.118,1374.94 677.539,1360.25 682.961,1365.84 688.382,1365.14 693.804,1340.67 699.225,1378.78 704.646,1371.49 710.068,1345.16 715.489,1367.49 720.911,1366.79 726.332,1379.15 731.753,1351.83 737.175,1369.35 742.596,1352.28 748.018,1362.83 753.439,1356.77 758.86,1349.62 764.282,1367.79 769.703,1356.14 775.125,1371.33 780.546,1366.13 785.968,1367.58 791.389,1366.28 796.81,1349.11 802.232,1360.87 807.653,1356.05 813.075,1366.58 818.496,1351.5 823.917,1356.89 829.339,1359.15 834.76,1341.31 840.182,1370.49 845.603,1354.7 851.024,1364.31 856.446,1354.67 861.867,1357.81 867.289,1337.66 872.71,1351.85 878.132,1357.05 883.553,1347.67 888.974,1344.97 894.396,1345.52 899.817,1360.28 905.239,1346.71 910.66,1342.14 916.081,1338.93 921.503,1349.13 926.924,1345.02 932.346,1336.76 937.767,1362.14 943.189,1349.68 948.61,1350.63 954.031,1356.22 959.453,1340.67 964.874,1350.02 970.296,1363.34 975.717,1359.88 981.138,1342.47 986.56,1350.76 991.981,1337.74 997.403,1366.87 1002.82,1360.9 1008.25,1369.69 1013.67,1337.67 1019.09,1338.97 1024.51,1346.19 1029.93,1330.18 1035.35,1361.04 1040.77,1305.4 1046.2,1348.75 1051.62,1344.8 1057.04,1332.04 1062.46,1332.56 1067.88,1310.28 1073.3,1365.62 1078.72,1357.54 1084.15,1295.69 1089.57,1323.12 1094.99,1268.86 1100.41,1336.07 1105.83,1299.98 1111.25,1291.61 1116.67,1307.93 1122.1,1280.5 1127.52,1277.79 1132.94,1288.92 1138.36,1269.53 1143.78,1296.83 1149.2,1262.29 1154.62,1246.45 1160.05,1234.86 1165.47,1248.43 1170.89,1298.96 1176.31,1276.1 1181.73,1260.17 1187.15,1323.79 1192.57,1218.64 1197.99,1293.68 1203.42,1252.78 1208.84,1244.01 1214.26,1264.08 1219.68,1240.4 1225.1,1137.69 1230.52,1160.85 1235.94,1060.98 1241.37,1106.75 1246.79,1208.27 1252.21,1185.81 1257.63,1043.12 1263.05,1091.07 1268.47,1246.19 1273.89,1134.48 1279.32,1154.45 1284.74,1148.03 1290.16,1062.54 1295.58,1156.04 1301,1175.26 1306.42,879.199 1311.84,994.93 1317.27,1000.16 1322.69,905.35 1328.11,1183.76 1333.53,1078.25 1338.95,1081.5 1344.37,965.534 1349.79,1068.84 1355.22,1004.4 1360.64,978.226 1366.06,837.673 1371.48,837.514 1376.9,1169.38 1382.32,852.907 1387.74,883.383 1393.17,740.109 1398.59,698.269 1404.01,815.139 1409.43,899.165 1414.85,825.537 1420.27,790.993 1425.69,721.596 1431.12,1050.73 1436.54,927.949 1441.96,1064.41 1447.38,777.285 1452.8,824.314 1458.22,677.156 1463.64,706.443 1469.07,873.424 1474.49,696.287 1479.91,727.68 1485.33,789.027 1490.75,1202.18 1496.17,621.308 1501.59,1056.91 1507.02,1010.19 1512.44,1261.33 1517.86,716.326 1523.28,718.009 1528.7,1139.58 1534.12,710.002 1539.54,1189 1544.97,911.704 1550.39,920.345 1555.81,843.391 1561.23,1174.96 1566.65,926.554 1572.07,1057.25 1577.49,983.992 1582.92,1128.79 1588.34,1135.75 1593.76,1123.69 1599.18,1048.31 1604.6,984.94 1610.02,888.907 1615.44,1022.24 1620.87,1030.58 1626.29,942.434 1631.71,1094.61 1637.13,1072.4 1642.55,866.154 1647.97,999.413 1653.39,1054.67 1658.82,641.086 1664.24,1104.09 1669.66,899.646 1675.08,989.435 1680.5,812.797 1685.92,1111.89 1691.34,1183.33 1696.76,1095.72 1702.19,1067.59 1707.61,1133.32 1713.03,1062.97 1718.45,1120.3 1723.87,921.972 1729.29,1118.06 1734.71,1025.98 1740.14,1117.89 1745.56,1012.89 1750.98,1045.27 1756.4,1097.18 1761.82,1087.43 1767.24,1157.64 1772.66,1153.72 1778.09,1214.89 1783.51,1115.39 1788.93,1059.32 1794.35,1190.55 1799.77,1094.05 1805.19,1158.13 1810.61,1186.28 1816.04,1130.85 1821.46,1238.9 1826.88,1122.44 1832.3,1152.61 1837.72,1192.54 1843.14,1180.54 1848.56,1239.87 1853.99,1123.97 1859.41,1181.25 1864.83,1046.27 1870.25,1217.39 1875.67,1156.65 1881.09,1218.67 1886.51,1182.97 1891.94,1099.09 1897.36,1208.3 1902.78,1290.75 1908.2,1269.97 1913.62,1279.59 1919.04,1290.47 1924.46,1180.02 1929.89,1255.88 1935.31,1202.52 1940.73,1286.28 1946.15,1316.94 1951.57,1206.72 1956.99,1316.1 1962.41,1278.5 1967.84,1244.93 1973.26,1347.98 1978.68,1264.42 1984.1,1291.03 1989.52,1239.84 1994.94,1309.45 2000.36,1281.24 2005.79,1271.83 2011.21,1332.01 2016.63,1264.68 2022.05,1286.54 2027.47,1244.95 2032.89,1333.88 2038.31,1297.29 2043.74,1245.32 2049.16,1212.02 2054.58,1280.8 2060,1301.08 2065.42,1283.98 2070.84,1301.84 2076.26,1306.82 2081.69,1252.95 2087.11,1271.14 2092.53,1334.82 2097.95,1330.12 2103.37,1320.48 2108.79,1321.32 2114.21,1358.86 2119.64,1288.03 2125.06,1323.53 2130.48,1321.49 2135.9,1355.99 2141.32,1325.25 2146.74,1288.95 2152.16,1313.86 2157.59,1329.57 2163.01,1334.33 2168.43,1302.3 2173.85,1325.58 2179.27,1326.32 2184.69,1334.48 2190.11,1362.83 2195.53,1323.77 2200.96,1325.68 2206.38,1324.84 2211.8,1299.01 2217.22,1310.07 2222.64,1352.33 2228.06,1324.26 2233.48,1364.38 2238.91,1314.49 2244.33,1359.89 2249.75,1348.43 2255.17,1366.46 2260.59,1352.14 2266.01,1331.74 2271.43,1355.74 2276.86,1348.97 2282.28,1334.48 2287.7,1351.5 2293.12,1355.08 2298.54,1349.63 2303.96,1341.34 2309.38,1336.68 2314.81,1363.82 2320.23,1348.88 2325.65,1349.94 2331.07,1347.9 2336.49,1352.37 2341.91,1355.64 2347.33,1327.43 2352.76,1379.84 "/>
<polyline clip-path="url(#clip662)" style="stroke:#3da44d; stroke-linecap:round; stroke-linejoin:round; stroke-width:4; stroke-opacity:1; fill:none" points="184.191,1268.32 189.612,1267.69 195.034,1267.02 200.455,1266.33 205.876,1265.62 211.298,1264.87 216.719,1264.1 222.141,1263.3 227.562,1262.48 232.983,1261.63 238.405,1260.75 243.826,1259.84 249.248,1258.9 254.669,1257.94 260.09,1256.96 265.512,1255.94 270.933,1254.9 276.355,1253.83 281.776,1252.73 287.198,1251.61 292.619,1250.46 298.04,1249.28 303.462,1248.07 308.883,1246.84 314.305,1245.58 319.726,1244.29 325.147,1242.97 330.569,1241.63 335.99,1240.25 341.412,1238.85 346.833,1237.42 352.254,1235.96 357.676,1234.47 363.097,1232.95 368.519,1231.41 373.94,1229.83 379.362,1228.22 384.783,1226.58 390.204,1224.92 395.626,1223.22 401.047,1221.49 406.469,1219.73 411.89,1217.94 417.311,1216.11 422.733,1214.26 428.154,1212.37 433.576,1210.45 438.997,1208.5 444.419,1206.51 449.84,1204.5 455.261,1202.44 460.683,1200.36 466.104,1198.24 471.526,1196.08 476.947,1193.89 482.368,1191.66 487.79,1189.4 493.211,1187.11 498.633,1184.77 504.054,1182.4 509.475,1179.99 514.897,1177.55 520.318,1175.06 525.74,1172.54 531.161,1169.98 536.583,1167.38 542.004,1164.75 547.425,1162.07 552.847,1159.35 558.268,1156.59 563.69,1153.79 569.111,1150.95 574.532,1148.06 579.954,1145.14 585.375,1142.17 590.797,1139.16 596.218,1136.1 601.639,1133 607.061,1129.86 612.482,1126.67 617.904,1123.43 623.325,1120.15 628.747,1116.82 634.168,1113.45 639.589,1110.03 645.011,1106.56 650.432,1103.04 655.854,1099.47 661.275,1095.86 666.696,1092.19 672.118,1088.48 677.539,1084.71 682.961,1080.9 688.382,1077.03 693.804,1073.11 699.225,1069.14 704.646,1065.11 710.068,1061.03 715.489,1056.9 720.911,1052.72 726.332,1048.48 731.753,1044.18 737.175,1039.83 742.596,1035.42 748.018,1030.96 753.439,1026.44 758.86,1021.86 764.282,1017.23 769.703,1012.54 775.125,1007.79 780.546,1002.98 785.968,998.109 791.389,993.182 796.81,988.196 802.232,983.15 807.653,978.045 813.075,972.88 818.496,967.654 823.917,962.369 829.339,957.023 834.76,951.617 840.182,946.151 845.603,940.625 851.024,935.037 856.446,929.39 861.867,923.682 867.289,917.914 872.71,912.085 878.132,906.199 883.553,900.256 888.974,894.255 894.396,888.197 899.817,882.08 905.239,875.906 910.66,869.674 916.081,863.385 921.503,857.04 926.924,850.639 932.346,844.183 937.767,837.673 943.189,831.112 948.61,824.5 954.031,817.839 959.453,811.131 964.874,804.379 970.296,797.584 975.717,790.749 981.138,783.877 986.56,776.97 991.981,770.032 997.403,763.065 1002.82,756.074 1008.25,749.061 1013.67,742.031 1019.09,734.988 1024.51,727.935 1029.93,720.877 1035.35,713.819 1040.77,706.765 1046.2,699.72 1051.62,692.689 1057.04,685.677 1062.46,678.69 1067.88,671.727 1073.3,664.791 1078.72,657.895 1084.15,651.049 1089.57,644.265 1094.99,637.557 1100.41,630.936 1105.83,624.416 1111.25,618.009 1116.67,611.73 1122.1,605.593 1127.52,599.611 1132.94,593.798 1138.36,588.171 1143.78,582.743 1149.2,577.53 1154.62,572.548 1160.05,567.814 1165.47,563.342 1170.89,559.15 1176.31,555.255 1181.73,551.675 1187.15,548.425 1192.57,545.526 1197.99,542.994 1203.42,540.848 1208.84,539.106 1214.26,537.789 1219.68,536.916 1225.1,536.505 1230.52,536.577 1235.94,537.153 1241.37,538.253 1246.79,539.898 1252.21,542.109 1257.63,544.908 1263.05,548.318 1268.47,552.365 1273.89,557.055 1279.32,562.388 1284.74,568.358 1290.16,574.961 1295.58,582.187 1301,590.028 1306.42,598.471 1311.84,607.501 1317.27,617.101 1322.69,627.255 1328.11,637.94 1333.53,649.135 1338.95,660.813 1344.37,672.949 1349.79,685.513 1355.22,698.474 1360.64,711.798 1366.06,725.451 1371.48,739.395 1376.9,753.59 1382.32,767.994 1387.74,782.564 1393.17,797.254 1398.59,812.015 1404.01,826.798 1409.43,841.551 1414.85,856.226 1420.27,870.813 1425.69,885.278 1431.12,899.586 1436.54,913.707 1441.96,927.61 1447.38,941.269 1452.8,954.66 1458.22,967.761 1463.64,980.553 1469.07,993.019 1474.49,1005.15 1479.91,1016.92 1485.33,1028.33 1490.75,1039.38 1496.17,1050.05 1501.59,1060.35 1507.02,1070.28 1512.44,1079.84 1517.86,1089.03 1523.28,1097.87 1528.7,1106.37 1534.12,1114.53 1539.54,1122.38 1544.97,1129.93 1550.39,1137.19 1555.81,1144.15 1561.23,1150.81 1566.65,1157.19 1572.07,1163.3 1577.49,1169.14 1582.92,1174.74 1588.34,1180.08 1593.76,1185.19 1599.18,1190.08 1604.6,1194.75 1610.02,1199.21 1615.44,1203.47 1620.87,1207.53 1626.29,1211.41 1631.71,1215.11 1637.13,1218.63 1642.55,1222 1647.97,1225.2 1653.39,1228.25 1658.82,1231.16 1664.24,1233.93 1669.66,1236.56 1675.08,1239.05 1680.5,1241.43 1685.92,1243.69 1691.34,1245.84 1696.76,1247.89 1702.19,1249.82 1707.61,1251.66 1713.03,1253.4 1718.45,1255.05 1723.87,1256.62 1729.29,1258.09 1734.71,1259.49 1740.14,1260.81 1745.56,1262.05 1750.98,1263.21 1756.4,1264.31 1761.82,1265.34 1767.24,1266.31 1772.66,1267.21 1778.09,1268.06 1783.51,1268.84 1788.93,1269.57 1794.35,1270.25 1799.77,1270.87 1805.19,1271.44 1810.61,1271.96 1816.04,1272.43 1821.46,1272.85 1826.88,1273.23 1832.3,1273.56 1837.72,1273.84 1843.14,1274.09 1848.56,1274.29 1853.99,1274.45 1859.41,1274.58 1864.83,1274.66 1870.25,1274.71 1875.67,1274.72 1881.09,1274.69 1886.51,1274.63 1891.94,1274.54 1897.36,1274.41 1902.78,1274.24 1908.2,1274.05 1913.62,1273.82 1919.04,1273.55 1924.46,1273.26 1929.89,1272.94 1935.31,1272.58 1940.73,1272.2 1946.15,1271.78 1951.57,1271.34 1956.99,1270.87 1962.41,1270.37 1967.84,1269.84 1973.26,1269.28 1978.68,1268.69 1984.1,1268.08 1989.52,1267.43 1994.94,1266.76 2000.36,1266.07 2005.79,1265.34 2011.21,1264.59 2016.63,1263.81 2022.05,1263 2027.47,1262.17 2032.89,1261.31 2038.31,1260.42 2043.74,1259.51 2049.16,1258.57 2054.58,1257.6 2060,1256.6 2065.42,1255.58 2070.84,1254.53 2076.26,1253.45 2081.69,1252.35 2087.11,1251.21 2092.53,1250.05 2097.95,1248.87 2103.37,1247.65 2108.79,1246.41 2114.21,1245.14 2119.64,1243.84 2125.06,1242.51 2130.48,1241.16 2135.9,1239.77 2141.32,1238.36 2146.74,1236.92 2152.16,1235.45 2157.59,1233.95 2163.01,1232.42 2168.43,1230.86 2173.85,1229.28 2179.27,1227.66 2184.69,1226.01 2190.11,1224.34 2195.53,1222.63 2200.96,1220.89 2206.38,1219.12 2211.8,1217.32 2217.22,1215.48 2222.64,1213.62 2228.06,1211.72 2233.48,1209.79 2238.91,1207.83 2244.33,1205.83 2249.75,1203.8 2255.17,1201.74 2260.59,1199.64 2266.01,1197.51 2271.43,1195.34 2276.86,1193.14 2282.28,1190.91 2287.7,1188.63 2293.12,1186.32 2298.54,1183.98 2303.96,1181.6 2309.38,1179.18 2314.81,1176.72 2320.23,1174.22 2325.65,1171.69 2331.07,1169.12 2336.49,1166.51 2341.91,1163.85 2347.33,1161.16 2352.76,1158.43 "/>
<polyline clip-path="url(#clip662)" style="stroke:#c271d2; stroke-linecap:round; stroke-linejoin:round; stroke-width:4; stroke-opacity:1; fill:none" points="184.191,1268.32 189.612,1270.77 195.034,1273.17 200.455,1275.51 205.876,1277.81 211.298,1280.05 216.719,1282.23 222.141,1284.37 227.562,1286.47 232.983,1288.51 238.405,1290.51 243.826,1292.46 249.248,1294.36 254.669,1296.23 260.09,1298.05 265.512,1299.83 270.933,1301.56 276.355,1303.26 281.776,1304.92 287.198,1306.54 292.619,1308.12 298.04,1309.66 303.462,1311.17 308.883,1312.65 314.305,1314.08 319.726,1315.49 325.147,1316.86 330.569,1318.2 335.99,1319.51 341.412,1320.78 346.833,1322.03 352.254,1323.24 357.676,1324.43 363.097,1325.59 368.519,1326.72 373.94,1327.82 379.362,1328.9 384.783,1329.95 390.204,1330.98 395.626,1331.98 401.047,1332.95 406.469,1333.9 411.89,1334.83 417.311,1335.73 422.733,1336.62 428.154,1337.48 433.576,1338.32 438.997,1339.13 444.419,1339.93 449.84,1340.71 455.261,1341.46 460.683,1342.2 466.104,1342.92 471.526,1343.62 476.947,1344.3 482.368,1344.96 487.79,1345.61 493.211,1346.24 498.633,1346.85 504.054,1347.44 509.475,1348.02 514.897,1348.59 520.318,1349.13 525.74,1349.66 531.161,1350.18 536.583,1350.68 542.004,1351.17 547.425,1351.64 552.847,1352.1 558.268,1352.54 563.69,1352.97 569.111,1353.39 574.532,1353.79 579.954,1354.18 585.375,1354.56 590.797,1354.93 596.218,1355.28 601.639,1355.62 607.061,1355.95 612.482,1356.26 617.904,1356.56 623.325,1356.86 628.747,1357.14 634.168,1357.4 639.589,1357.66 645.011,1357.91 650.432,1358.14 655.854,1358.36 661.275,1358.57 666.696,1358.77 672.118,1358.96 677.539,1359.14 682.961,1359.31 688.382,1359.46 693.804,1359.61 699.225,1359.74 704.646,1359.86 710.068,1359.98 715.489,1360.08 720.911,1360.17 726.332,1360.24 731.753,1360.31 737.175,1360.37 742.596,1360.41 748.018,1360.44 753.439,1360.46 758.86,1360.47 764.282,1360.47 769.703,1360.46 775.125,1360.43 780.546,1360.4 785.968,1360.34 791.389,1360.28 796.81,1360.21 802.232,1360.12 807.653,1360.01 813.075,1359.9 818.496,1359.77 823.917,1359.62 829.339,1359.46 834.76,1359.29 840.182,1359.09 845.603,1358.89 851.024,1358.66 856.446,1358.42 861.867,1358.17 867.289,1357.89 872.71,1357.6 878.132,1357.28 883.553,1356.95 888.974,1356.59 894.396,1356.21 899.817,1355.81 905.239,1355.39 910.66,1354.95 916.081,1354.48 921.503,1353.98 926.924,1353.46 932.346,1352.92 937.767,1352.34 943.189,1351.74 948.61,1351.11 954.031,1350.44 959.453,1349.74 964.874,1349.01 970.296,1348.24 975.717,1347.44 981.138,1346.59 986.56,1345.7 991.981,1344.77 997.403,1343.79 1002.82,1342.76 1008.25,1341.68 1013.67,1340.54 1019.09,1339.35 1024.51,1338.11 1029.93,1336.8 1035.35,1335.42 1040.77,1333.98 1046.2,1332.46 1051.62,1330.88 1057.04,1329.21 1062.46,1327.47 1067.88,1325.64 1073.3,1323.74 1078.72,1321.75 1084.15,1319.67 1089.57,1317.48 1094.99,1315.18 1100.41,1312.76 1105.83,1310.22 1111.25,1307.54 1116.67,1304.73 1122.1,1301.76 1127.52,1298.65 1132.94,1295.37 1138.36,1291.92 1143.78,1288.3 1149.2,1284.5 1154.62,1280.51 1160.05,1276.33 1165.47,1271.94 1170.89,1267.35 1176.31,1262.54 1181.73,1257.51 1187.15,1252.26 1192.57,1246.77 1197.99,1241.05 1203.42,1235.08 1208.84,1228.86 1214.26,1222.39 1219.68,1215.66 1225.1,1208.66 1230.52,1201.39 1235.94,1193.84 1241.37,1186 1246.79,1177.88 1252.21,1169.47 1257.63,1160.76 1263.05,1151.75 1268.47,1142.41 1273.89,1132.76 1279.32,1122.82 1284.74,1112.63 1290.16,1102.2 1295.58,1091.57 1301,1080.77 1306.42,1069.82 1311.84,1058.75 1317.27,1047.59 1322.69,1036.38 1328.11,1025.14 1333.53,1013.9 1338.95,1002.69 1344.37,991.554 1349.79,980.513 1355.22,969.602 1360.64,958.855 1366.06,948.305 1371.48,937.986 1376.9,927.932 1382.32,918.179 1387.74,908.761 1393.17,899.714 1398.59,891.075 1404.01,882.88 1409.43,875.165 1414.85,867.964 1420.27,861.277 1425.69,855.119 1431.12,849.505 1436.54,844.447 1441.96,839.953 1447.38,836.032 1452.8,832.686 1458.22,829.918 1463.64,827.726 1469.07,826.108 1474.49,825.058 1479.91,824.567 1485.33,824.624 1490.75,825.216 1496.17,826.327 1501.59,827.938 1507.02,830.028 1512.44,832.574 1517.86,835.549 1523.28,838.925 1528.7,842.671 1534.12,846.752 1539.54,851.133 1544.97,855.775 1550.39,860.656 1555.81,865.792 1561.23,871.164 1566.65,876.752 1572.07,882.537 1577.49,888.499 1582.92,894.62 1588.34,900.884 1593.76,907.273 1599.18,913.772 1604.6,920.365 1610.02,927.039 1615.44,933.779 1620.87,940.573 1626.29,947.408 1631.71,954.273 1637.13,961.157 1642.55,968.051 1647.97,974.944 1653.39,981.829 1658.82,988.697 1664.24,995.542 1669.66,1002.36 1675.08,1009.14 1680.5,1015.87 1685.92,1022.55 1691.34,1029.18 1696.76,1035.75 1702.19,1042.25 1707.61,1048.69 1713.03,1055.06 1718.45,1061.36 1723.87,1067.59 1729.29,1073.73 1734.71,1079.8 1740.14,1085.79 1745.56,1091.7 1750.98,1097.52 1756.4,1103.25 1761.82,1108.9 1767.24,1114.46 1772.66,1119.93 1778.09,1125.31 1783.51,1130.6 1788.93,1135.8 1794.35,1140.91 1799.77,1145.93 1805.19,1150.86 1810.61,1155.7 1816.04,1160.46 1821.46,1165.12 1826.88,1169.71 1832.3,1174.2 1837.72,1178.61 1843.14,1182.94 1848.56,1187.18 1853.99,1191.34 1859.41,1195.42 1864.83,1199.42 1870.25,1203.33 1875.67,1207.17 1881.09,1210.93 1886.51,1214.62 1891.94,1218.22 1897.36,1221.76 1902.78,1225.22 1908.2,1228.6 1913.62,1231.92 1919.04,1235.16 1924.46,1238.34 1929.89,1241.45 1935.31,1244.49 1940.73,1247.47 1946.15,1250.38 1951.57,1253.22 1956.99,1256.01 1962.41,1258.73 1967.84,1261.4 1973.26,1264 1978.68,1266.55 1984.1,1269.04 1989.52,1271.48 1994.94,1273.86 2000.36,1276.18 2005.79,1278.46 2011.21,1280.68 2016.63,1282.86 2022.05,1284.98 2027.47,1287.06 2032.89,1289.09 2038.31,1291.07 2043.74,1293.01 2049.16,1294.9 2054.58,1296.75 2060,1298.56 2065.42,1300.33 2070.84,1302.05 2076.26,1303.74 2081.69,1305.38 2087.11,1306.99 2092.53,1308.56 2097.95,1310.1 2103.37,1311.59 2108.79,1313.06 2114.21,1314.49 2119.64,1315.88 2125.06,1317.24 2130.48,1318.57 2135.9,1319.87 2141.32,1321.14 2146.74,1322.38 2152.16,1323.59 2157.59,1324.77 2163.01,1325.92 2168.43,1327.04 2173.85,1328.13 2179.27,1329.2 2184.69,1330.25 2190.11,1331.26 2195.53,1332.26 2200.96,1333.22 2206.38,1334.17 2211.8,1335.09 2217.22,1335.99 2222.64,1336.86 2228.06,1337.72 2233.48,1338.55 2238.91,1339.36 2244.33,1340.15 2249.75,1340.92 2255.17,1341.67 2260.59,1342.4 2266.01,1343.11 2271.43,1343.81 2276.86,1344.48 2282.28,1345.14 2287.7,1345.78 2293.12,1346.41 2298.54,1347.01 2303.96,1347.6 2309.38,1348.18 2314.81,1348.73 2320.23,1349.28 2325.65,1349.8 2331.07,1350.32 2336.49,1350.81 2341.91,1351.29 2347.33,1351.76 2352.76,1352.22 "/>
<path clip-path="url(#clip660)" d="M1901.23 352.309 L2280.47 352.309 L2280.47 93.1086 L1901.23 93.1086  Z" fill="#ffffff" fill-rule="evenodd" fill-opacity="1"/>
<polyline clip-path="url(#clip660)" style="stroke:#000000; stroke-linecap:round; stroke-linejoin:round; stroke-width:4; stroke-opacity:1; fill:none" points="1901.23,352.309 2280.47,352.309 2280.47,93.1086 1901.23,93.1086 1901.23,352.309 "/>
<polyline clip-path="url(#clip660)" style="stroke:#009af9; stroke-linecap:round; stroke-linejoin:round; stroke-width:4; stroke-opacity:1; fill:none" points="1925.33,144.949 2069.9,144.949 "/>
<path clip-path="url(#clip660)" d="M2115.7 146.581 L2115.7 162.229 L2111.45 162.229 L2111.45 146.719 Q2111.45 143.039 2110.01 141.21 Q2108.58 139.382 2105.7 139.382 Q2102.26 139.382 2100.26 141.581 Q2098.27 143.78 2098.27 147.576 L2098.27 162.229 L2093.99 162.229 L2093.99 136.303 L2098.27 136.303 L2098.27 140.331 Q2099.8 137.993 2101.86 136.835 Q2103.95 135.678 2106.65 135.678 Q2111.12 135.678 2113.41 138.456 Q2115.7 141.21 2115.7 146.581 Z" fill="#000000" fill-rule="nonzero" fill-opacity="1" /><path clip-path="url(#clip660)" d="M2134.25 139.289 Q2130.82 139.289 2128.83 141.974 Q2126.84 144.636 2126.84 149.289 Q2126.84 153.942 2128.81 156.627 Q2130.8 159.289 2134.25 159.289 Q2137.65 159.289 2139.64 156.604 Q2141.63 153.918 2141.63 149.289 Q2141.63 144.682 2139.64 141.997 Q2137.65 139.289 2134.25 139.289 M2134.25 135.678 Q2139.8 135.678 2142.97 139.289 Q2146.14 142.9 2146.14 149.289 Q2146.14 155.655 2142.97 159.289 Q2139.8 162.9 2134.25 162.9 Q2128.67 162.9 2125.5 159.289 Q2122.35 155.655 2122.35 149.289 Q2122.35 142.9 2125.5 139.289 Q2128.67 135.678 2134.25 135.678 Z" fill="#000000" fill-rule="nonzero" fill-opacity="1" /><path clip-path="url(#clip660)" d="M2153.2 136.303 L2157.46 136.303 L2157.46 162.229 L2153.2 162.229 L2153.2 136.303 M2153.2 126.21 L2157.46 126.21 L2157.46 131.604 L2153.2 131.604 L2153.2 126.21 Z" fill="#000000" fill-rule="nonzero" fill-opacity="1" /><path clip-path="url(#clip660)" d="M2182.9 137.067 L2182.9 141.094 Q2181.1 140.169 2179.15 139.706 Q2177.21 139.243 2175.13 139.243 Q2171.95 139.243 2170.36 140.215 Q2168.78 141.187 2168.78 143.131 Q2168.78 144.613 2169.92 145.469 Q2171.05 146.303 2174.48 147.067 L2175.94 147.391 Q2180.47 148.363 2182.37 150.145 Q2184.29 151.905 2184.29 155.076 Q2184.29 158.687 2181.42 160.793 Q2178.57 162.9 2173.57 162.9 Q2171.49 162.9 2169.22 162.483 Q2166.98 162.09 2164.48 161.28 L2164.48 156.881 Q2166.84 158.108 2169.13 158.733 Q2171.42 159.335 2173.67 159.335 Q2176.68 159.335 2178.3 158.317 Q2179.92 157.275 2179.92 155.4 Q2179.92 153.664 2178.74 152.738 Q2177.58 151.812 2173.62 150.956 L2172.14 150.608 Q2168.18 149.775 2166.42 148.062 Q2164.66 146.326 2164.66 143.317 Q2164.66 139.659 2167.26 137.669 Q2169.85 135.678 2174.62 135.678 Q2176.98 135.678 2179.06 136.025 Q2181.14 136.372 2182.9 137.067 Z" fill="#000000" fill-rule="nonzero" fill-opacity="1" /><path clip-path="url(#clip660)" d="M2201.86 164.636 Q2200.06 169.266 2198.34 170.678 Q2196.63 172.09 2193.76 172.09 L2190.36 172.09 L2190.36 168.525 L2192.86 168.525 Q2194.62 168.525 2195.59 167.692 Q2196.56 166.858 2197.74 163.756 L2198.51 161.812 L2188.02 136.303 L2192.53 136.303 L2200.63 156.581 L2208.74 136.303 L2213.25 136.303 L2201.86 164.636 Z" fill="#000000" fill-rule="nonzero" fill-opacity="1" /><path clip-path="url(#clip660)" d="M2255.75 136.303 L2246.38 148.919 L2256.24 162.229 L2251.21 162.229 L2243.67 152.043 L2236.12 162.229 L2231.1 162.229 L2241.17 148.664 L2231.95 136.303 L2236.98 136.303 L2243.85 145.539 L2250.73 136.303 L2255.75 136.303 Z" fill="#000000" fill-rule="nonzero" fill-opacity="1" /><polyline clip-path="url(#clip660)" style="stroke:#e26f46; stroke-linecap:round; stroke-linejoin:round; stroke-width:4; stroke-opacity:1; fill:none" points="1925.33,196.789 2069.9,196.789 "/>
<path clip-path="url(#clip660)" d="M2115.7 198.421 L2115.7 214.069 L2111.45 214.069 L2111.45 198.559 Q2111.45 194.879 2110.01 193.05 Q2108.58 191.222 2105.7 191.222 Q2102.26 191.222 2100.26 193.421 Q2098.27 195.62 2098.27 199.416 L2098.27 214.069 L2093.99 214.069 L2093.99 188.143 L2098.27 188.143 L2098.27 192.171 Q2099.8 189.833 2101.86 188.675 Q2103.95 187.518 2106.65 187.518 Q2111.12 187.518 2113.41 190.296 Q2115.7 193.05 2115.7 198.421 Z" fill="#000000" fill-rule="nonzero" fill-opacity="1" /><path clip-path="url(#clip660)" d="M2134.25 191.129 Q2130.82 191.129 2128.83 193.814 Q2126.84 196.476 2126.84 201.129 Q2126.84 205.782 2128.81 208.467 Q2130.8 211.129 2134.25 211.129 Q2137.65 211.129 2139.64 208.444 Q2141.63 205.758 2141.63 201.129 Q2141.63 196.522 2139.64 193.837 Q2137.65 191.129 2134.25 191.129 M2134.25 187.518 Q2139.8 187.518 2142.97 191.129 Q2146.14 194.74 2146.14 201.129 Q2146.14 207.495 2142.97 211.129 Q2139.8 214.74 2134.25 214.74 Q2128.67 214.74 2125.5 211.129 Q2122.35 207.495 2122.35 201.129 Q2122.35 194.74 2125.5 191.129 Q2128.67 187.518 2134.25 187.518 Z" fill="#000000" fill-rule="nonzero" fill-opacity="1" /><path clip-path="url(#clip660)" d="M2153.2 188.143 L2157.46 188.143 L2157.46 214.069 L2153.2 214.069 L2153.2 188.143 M2153.2 178.05 L2157.46 178.05 L2157.46 183.444 L2153.2 183.444 L2153.2 178.05 Z" fill="#000000" fill-rule="nonzero" fill-opacity="1" /><path clip-path="url(#clip660)" d="M2182.9 188.907 L2182.9 192.934 Q2181.1 192.009 2179.15 191.546 Q2177.21 191.083 2175.13 191.083 Q2171.95 191.083 2170.36 192.055 Q2168.78 193.027 2168.78 194.971 Q2168.78 196.453 2169.92 197.309 Q2171.05 198.143 2174.48 198.907 L2175.94 199.231 Q2180.47 200.203 2182.37 201.985 Q2184.29 203.745 2184.29 206.916 Q2184.29 210.527 2181.42 212.633 Q2178.57 214.74 2173.57 214.74 Q2171.49 214.74 2169.22 214.323 Q2166.98 213.93 2164.48 213.12 L2164.48 208.721 Q2166.84 209.948 2169.13 210.573 Q2171.42 211.175 2173.67 211.175 Q2176.68 211.175 2178.3 210.157 Q2179.92 209.115 2179.92 207.24 Q2179.92 205.504 2178.74 204.578 Q2177.58 203.652 2173.62 202.796 L2172.14 202.448 Q2168.18 201.615 2166.42 199.902 Q2164.66 198.166 2164.66 195.157 Q2164.66 191.499 2167.26 189.509 Q2169.85 187.518 2174.62 187.518 Q2176.98 187.518 2179.06 187.865 Q2181.14 188.212 2182.9 188.907 Z" fill="#000000" fill-rule="nonzero" fill-opacity="1" /><path clip-path="url(#clip660)" d="M2201.86 216.476 Q2200.06 221.106 2198.34 222.518 Q2196.63 223.93 2193.76 223.93 L2190.36 223.93 L2190.36 220.365 L2192.86 220.365 Q2194.62 220.365 2195.59 219.532 Q2196.56 218.698 2197.74 215.596 L2198.51 213.652 L2188.02 188.143 L2192.53 188.143 L2200.63 208.421 L2208.74 188.143 L2213.25 188.143 L2201.86 216.476 Z" fill="#000000" fill-rule="nonzero" fill-opacity="1" /><path clip-path="url(#clip660)" d="M2244.99 216.476 Q2243.18 221.106 2241.47 222.518 Q2239.75 223.93 2236.88 223.93 L2233.48 223.93 L2233.48 220.365 L2235.98 220.365 Q2237.74 220.365 2238.71 219.532 Q2239.69 218.698 2240.87 215.596 L2241.63 213.652 L2231.14 188.143 L2235.66 188.143 L2243.76 208.421 L2251.86 188.143 L2256.38 188.143 L2244.99 216.476 Z" fill="#000000" fill-rule="nonzero" fill-opacity="1" /><polyline clip-path="url(#clip660)" style="stroke:#3da44d; stroke-linecap:round; stroke-linejoin:round; stroke-width:4; stroke-opacity:1; fill:none" points="1925.33,248.629 2069.9,248.629 "/>
<path clip-path="url(#clip660)" d="M2118.64 239.983 L2109.27 252.599 L2119.13 265.909 L2114.11 265.909 L2106.56 255.723 L2099.01 265.909 L2093.99 265.909 L2104.06 252.344 L2094.85 239.983 L2099.87 239.983 L2106.75 249.219 L2113.62 239.983 L2118.64 239.983 Z" fill="#000000" fill-rule="nonzero" fill-opacity="1" /><polyline clip-path="url(#clip660)" style="stroke:#c271d2; stroke-linecap:round; stroke-linejoin:round; stroke-width:4; stroke-opacity:1; fill:none" points="1925.33,300.469 2069.9,300.469 "/>
<path clip-path="url(#clip660)" d="M2107.83 320.156 Q2106.03 324.786 2104.32 326.198 Q2102.6 327.61 2099.73 327.61 L2096.33 327.61 L2096.33 324.045 L2098.83 324.045 Q2100.59 324.045 2101.56 323.212 Q2102.53 322.378 2103.71 319.276 L2104.48 317.332 L2093.99 291.823 L2098.51 291.823 L2106.61 312.101 L2114.71 291.823 L2119.22 291.823 L2107.83 320.156 Z" fill="#000000" fill-rule="nonzero" fill-opacity="1" /></svg>
