<?xml version="1.0" encoding="utf-8"?>
<svg xmlns="http://www.w3.org/2000/svg" xmlns:xlink="http://www.w3.org/1999/xlink" width="600" height="400" viewBox="0 0 2400 1600">
<defs>
  <clipPath id="clip330">
    <rect x="0" y="0" width="2400" height="1600"/>
  </clipPath>
</defs>
<path clip-path="url(#clip330)" d="M0 1600 L2400 1600 L2400 0 L0 0  Z" fill="#ffffff" fill-rule="evenodd" fill-opacity="1"/>
<defs>
  <clipPath id="clip331">
    <rect x="480" y="0" width="1681" height="1600"/>
  </clipPath>
</defs>
<path clip-path="url(#clip330)" d="M186.76 1486.45 L2352.76 1486.45 L2352.76 47.2441 L186.76 47.2441  Z" fill="#ffffff" fill-rule="evenodd" fill-opacity="1"/>
<defs>
  <clipPath id="clip332">
    <rect x="186" y="47" width="2167" height="1440"/>
  </clipPath>
</defs>
<polyline clip-path="url(#clip332)" style="stroke:#000000; stroke-linecap:round; stroke-linejoin:round; stroke-width:2; stroke-opacity:0.1; fill:none" points="248.062,1486.45 248.062,47.2441 "/>
<polyline clip-path="url(#clip332)" style="stroke:#000000; stroke-linecap:round; stroke-linejoin:round; stroke-width:2; stroke-opacity:0.1; fill:none" points="758.91,1486.45 758.91,47.2441 "/>
<polyline clip-path="url(#clip332)" style="stroke:#000000; stroke-linecap:round; stroke-linejoin:round; stroke-width:2; stroke-opacity:0.1; fill:none" points="1269.76,1486.45 1269.76,47.2441 "/>
<polyline clip-path="url(#clip332)" style="stroke:#000000; stroke-linecap:round; stroke-linejoin:round; stroke-width:2; stroke-opacity:0.1; fill:none" points="1780.61,1486.45 1780.61,47.2441 "/>
<polyline clip-path="url(#clip332)" style="stroke:#000000; stroke-linecap:round; stroke-linejoin:round; stroke-width:2; stroke-opacity:0.1; fill:none" points="2291.45,1486.45 2291.45,47.2441 "/>
<polyline clip-path="url(#clip332)" style="stroke:#000000; stroke-linecap:round; stroke-linejoin:round; stroke-width:2; stroke-opacity:0.1; fill:none" points="186.76,1435.47 2352.76,1435.47 "/>
<polyline clip-path="url(#clip332)" style="stroke:#000000; stroke-linecap:round; stroke-linejoin:round; stroke-width:2; stroke-opacity:0.1; fill:none" points="186.76,1113.44 2352.76,1113.44 "/>
<polyline clip-path="url(#clip332)" style="stroke:#000000; stroke-linecap:round; stroke-linejoin:round; stroke-width:2; stroke-opacity:0.1; fill:none" points="186.76,791.405 2352.76,791.405 "/>
<polyline clip-path="url(#clip332)" style="stroke:#000000; stroke-linecap:round; stroke-linejoin:round; stroke-width:2; stroke-opacity:0.1; fill:none" points="186.76,469.372 2352.76,469.372 "/>
<polyline clip-path="url(#clip332)" style="stroke:#000000; stroke-linecap:round; stroke-linejoin:round; stroke-width:2; stroke-opacity:0.1; fill:none" points="186.76,147.339 2352.76,147.339 "/>
<polyline clip-path="url(#clip330)" style="stroke:#000000; stroke-linecap:round; stroke-linejoin:round; stroke-width:4; stroke-opacity:1; fill:none" points="186.76,1486.45 2352.76,1486.45 "/>
<polyline clip-path="url(#clip330)" style="stroke:#000000; stroke-linecap:round; stroke-linejoin:round; stroke-width:4; stroke-opacity:1; fill:none" points="248.062,1486.45 248.062,1467.55 "/>
<polyline clip-path="url(#clip330)" style="stroke:#000000; stroke-linecap:round; stroke-linejoin:round; stroke-width:4; stroke-opacity:1; fill:none" points="758.91,1486.45 758.91,1467.55 "/>
<polyline clip-path="url(#clip330)" style="stroke:#000000; stroke-linecap:round; stroke-linejoin:round; stroke-width:4; stroke-opacity:1; fill:none" points="1269.76,1486.45 1269.76,1467.55 "/>
<polyline clip-path="url(#clip330)" style="stroke:#000000; stroke-linecap:round; stroke-linejoin:round; stroke-width:4; stroke-opacity:1; fill:none" points="1780.61,1486.45 1780.61,1467.55 "/>
<polyline clip-path="url(#clip330)" style="stroke:#000000; stroke-linecap:round; stroke-linejoin:round; stroke-width:4; stroke-opacity:1; fill:none" points="2291.45,1486.45 2291.45,1467.55 "/>
<path clip-path="url(#clip330)" d="M225.446 1517.37 Q221.835 1517.37 220.006 1520.93 Q218.201 1524.47 218.201 1531.6 Q218.201 1538.71 220.006 1542.27 Q221.835 1545.82 225.446 1545.82 Q229.08 1545.82 230.886 1542.27 Q232.715 1538.71 232.715 1531.6 Q232.715 1524.47 230.886 1520.93 Q229.08 1517.37 225.446 1517.37 M225.446 1513.66 Q231.256 1513.66 234.312 1518.27 Q237.391 1522.85 237.391 1531.6 Q237.391 1540.33 234.312 1544.94 Q231.256 1549.52 225.446 1549.52 Q219.636 1549.52 216.557 1544.94 Q213.502 1540.33 213.502 1531.6 Q213.502 1522.85 216.557 1518.27 Q219.636 1513.66 225.446 1513.66 Z" fill="#000000" fill-rule="nonzero" fill-opacity="1" /><path clip-path="url(#clip330)" d="M245.608 1542.97 L250.492 1542.97 L250.492 1548.85 L245.608 1548.85 L245.608 1542.97 Z" fill="#000000" fill-rule="nonzero" fill-opacity="1" /><path clip-path="url(#clip330)" d="M270.677 1517.37 Q267.066 1517.37 265.238 1520.93 Q263.432 1524.47 263.432 1531.6 Q263.432 1538.71 265.238 1542.27 Q267.066 1545.82 270.677 1545.82 Q274.312 1545.82 276.117 1542.27 Q277.946 1538.71 277.946 1531.6 Q277.946 1524.47 276.117 1520.93 Q274.312 1517.37 270.677 1517.37 M270.677 1513.66 Q276.488 1513.66 279.543 1518.27 Q282.622 1522.85 282.622 1531.6 Q282.622 1540.33 279.543 1544.94 Q276.488 1549.52 270.677 1549.52 Q264.867 1549.52 261.789 1544.94 Q258.733 1540.33 258.733 1531.6 Q258.733 1522.85 261.789 1518.27 Q264.867 1513.66 270.677 1513.66 Z" fill="#000000" fill-rule="nonzero" fill-opacity="1" /><path clip-path="url(#clip330)" d="M736.792 1517.37 Q733.181 1517.37 731.352 1520.93 Q729.547 1524.47 729.547 1531.6 Q729.547 1538.71 731.352 1542.27 Q733.181 1545.82 736.792 1545.82 Q740.426 1545.82 742.232 1542.27 Q744.06 1538.71 744.06 1531.6 Q744.06 1524.47 742.232 1520.93 Q740.426 1517.37 736.792 1517.37 M736.792 1513.66 Q742.602 1513.66 745.658 1518.27 Q748.736 1522.85 748.736 1531.6 Q748.736 1540.33 745.658 1544.94 Q742.602 1549.52 736.792 1549.52 Q730.982 1549.52 727.903 1544.94 Q724.848 1540.33 724.848 1531.6 Q724.848 1522.85 727.903 1518.27 Q730.982 1513.66 736.792 1513.66 Z" fill="#000000" fill-rule="nonzero" fill-opacity="1" /><path clip-path="url(#clip330)" d="M756.954 1542.97 L761.838 1542.97 L761.838 1548.85 L756.954 1548.85 L756.954 1542.97 Z" fill="#000000" fill-rule="nonzero" fill-opacity="1" /><path clip-path="url(#clip330)" d="M772.07 1514.29 L790.426 1514.29 L790.426 1518.22 L776.352 1518.22 L776.352 1526.7 Q777.37 1526.35 778.389 1526.19 Q779.408 1526 780.426 1526 Q786.213 1526 789.593 1529.17 Q792.972 1532.34 792.972 1537.76 Q792.972 1543.34 789.5 1546.44 Q786.028 1549.52 779.708 1549.52 Q777.533 1549.52 775.264 1549.15 Q773.019 1548.78 770.611 1548.04 L770.611 1543.34 Q772.695 1544.47 774.917 1545.03 Q777.139 1545.58 779.616 1545.58 Q783.62 1545.58 785.958 1543.48 Q788.296 1541.37 788.296 1537.76 Q788.296 1534.15 785.958 1532.04 Q783.62 1529.94 779.616 1529.94 Q777.741 1529.94 775.866 1530.35 Q774.014 1530.77 772.07 1531.65 L772.07 1514.29 Z" fill="#000000" fill-rule="nonzero" fill-opacity="1" /><path clip-path="url(#clip330)" d="M1236.91 1544.91 L1244.55 1544.91 L1244.55 1518.55 L1236.24 1520.21 L1236.24 1515.95 L1244.5 1514.29 L1249.18 1514.29 L1249.18 1544.91 L1256.82 1544.91 L1256.82 1548.85 L1236.91 1548.85 L1236.91 1544.91 Z" fill="#000000" fill-rule="nonzero" fill-opacity="1" /><path clip-path="url(#clip330)" d="M1266.26 1542.97 L1271.15 1542.97 L1271.15 1548.85 L1266.26 1548.85 L1266.26 1542.97 Z" fill="#000000" fill-rule="nonzero" fill-opacity="1" /><path clip-path="url(#clip330)" d="M1291.33 1517.37 Q1287.72 1517.37 1285.89 1520.93 Q1284.09 1524.47 1284.09 1531.6 Q1284.09 1538.71 1285.89 1542.27 Q1287.72 1545.82 1291.33 1545.82 Q1294.97 1545.82 1296.77 1542.27 Q1298.6 1538.71 1298.6 1531.6 Q1298.6 1524.47 1296.77 1520.93 Q1294.97 1517.37 1291.33 1517.37 M1291.33 1513.66 Q1297.14 1513.66 1300.2 1518.27 Q1303.28 1522.85 1303.28 1531.6 Q1303.28 1540.33 1300.2 1544.94 Q1297.14 1549.52 1291.33 1549.52 Q1285.52 1549.52 1282.44 1544.94 Q1279.39 1540.33 1279.39 1531.6 Q1279.39 1522.85 1282.44 1518.27 Q1285.52 1513.66 1291.33 1513.66 Z" fill="#000000" fill-rule="nonzero" fill-opacity="1" /><path clip-path="url(#clip330)" d="M1748.26 1544.91 L1755.9 1544.91 L1755.9 1518.55 L1747.59 1520.21 L1747.59 1515.95 L1755.85 1514.29 L1760.53 1514.29 L1760.53 1544.91 L1768.16 1544.91 L1768.16 1548.85 L1748.26 1548.85 L1748.26 1544.91 Z" fill="#000000" fill-rule="nonzero" fill-opacity="1" /><path clip-path="url(#clip330)" d="M1777.61 1542.97 L1782.49 1542.97 L1782.49 1548.85 L1777.61 1548.85 L1777.61 1542.97 Z" fill="#000000" fill-rule="nonzero" fill-opacity="1" /><path clip-path="url(#clip330)" d="M1792.72 1514.29 L1811.08 1514.29 L1811.08 1518.22 L1797.01 1518.22 L1797.01 1526.7 Q1798.02 1526.35 1799.04 1526.19 Q1800.06 1526 1801.08 1526 Q1806.87 1526 1810.25 1529.17 Q1813.63 1532.34 1813.63 1537.76 Q1813.63 1543.34 1810.15 1546.44 Q1806.68 1549.52 1800.36 1549.52 Q1798.19 1549.52 1795.92 1549.15 Q1793.67 1548.78 1791.27 1548.04 L1791.27 1543.34 Q1793.35 1544.47 1795.57 1545.03 Q1797.79 1545.58 1800.27 1545.58 Q1804.27 1545.58 1806.61 1543.48 Q1808.95 1541.37 1808.95 1537.76 Q1808.95 1534.15 1806.61 1532.04 Q1804.27 1529.94 1800.27 1529.94 Q1798.4 1529.94 1796.52 1530.35 Q1794.67 1530.77 1792.72 1531.65 L1792.72 1514.29 Z" fill="#000000" fill-rule="nonzero" fill-opacity="1" /><path clip-path="url(#clip330)" d="M2262.69 1544.91 L2279.01 1544.91 L2279.01 1548.85 L2257.07 1548.85 L2257.07 1544.91 Q2259.73 1542.16 2264.31 1537.53 Q2268.92 1532.88 2270.1 1531.53 Q2272.35 1529.01 2273.23 1527.27 Q2274.13 1525.51 2274.13 1523.82 Q2274.13 1521.07 2272.18 1519.33 Q2270.26 1517.6 2267.16 1517.6 Q2264.96 1517.6 2262.51 1518.36 Q2260.08 1519.13 2257.3 1520.68 L2257.3 1515.95 Q2260.12 1514.82 2262.58 1514.24 Q2265.03 1513.66 2267.07 1513.66 Q2272.44 1513.66 2275.63 1516.35 Q2278.83 1519.03 2278.83 1523.52 Q2278.83 1525.65 2278.02 1527.57 Q2277.23 1529.47 2275.12 1532.07 Q2274.54 1532.74 2271.44 1535.95 Q2268.34 1539.15 2262.69 1544.91 Z" fill="#000000" fill-rule="nonzero" fill-opacity="1" /><path clip-path="url(#clip330)" d="M2288.83 1542.97 L2293.71 1542.97 L2293.71 1548.85 L2288.83 1548.85 L2288.83 1542.97 Z" fill="#000000" fill-rule="nonzero" fill-opacity="1" /><path clip-path="url(#clip330)" d="M2313.9 1517.37 Q2310.29 1517.37 2308.46 1520.93 Q2306.65 1524.47 2306.65 1531.6 Q2306.65 1538.71 2308.46 1542.27 Q2310.29 1545.82 2313.9 1545.82 Q2317.53 1545.82 2319.34 1542.27 Q2321.16 1538.71 2321.16 1531.6 Q2321.16 1524.47 2319.34 1520.93 Q2317.53 1517.37 2313.9 1517.37 M2313.9 1513.66 Q2319.71 1513.66 2322.76 1518.27 Q2325.84 1522.85 2325.84 1531.6 Q2325.84 1540.33 2322.76 1544.94 Q2319.71 1549.52 2313.9 1549.52 Q2308.09 1549.52 2305.01 1544.94 Q2301.95 1540.33 2301.95 1531.6 Q2301.95 1522.85 2305.01 1518.27 Q2308.09 1513.66 2313.9 1513.66 Z" fill="#000000" fill-rule="nonzero" fill-opacity="1" /><polyline clip-path="url(#clip330)" style="stroke:#000000; stroke-linecap:round; stroke-linejoin:round; stroke-width:4; stroke-opacity:1; fill:none" points="186.76,1486.45 186.76,47.2441 "/>
<polyline clip-path="url(#clip330)" style="stroke:#000000; stroke-linecap:round; stroke-linejoin:round; stroke-width:4; stroke-opacity:1; fill:none" points="186.76,1435.47 205.658,1435.47 "/>
<polyline clip-path="url(#clip330)" style="stroke:#000000; stroke-linecap:round; stroke-linejoin:round; stroke-width:4; stroke-opacity:1; fill:none" points="186.76,1113.44 205.658,1113.44 "/>
<polyline clip-path="url(#clip330)" style="stroke:#000000; stroke-linecap:round; stroke-linejoin:round; stroke-width:4; stroke-opacity:1; fill:none" points="186.76,791.405 205.658,791.405 "/>
<polyline clip-path="url(#clip330)" style="stroke:#000000; stroke-linecap:round; stroke-linejoin:round; stroke-width:4; stroke-opacity:1; fill:none" points="186.76,469.372 205.658,469.372 "/>
<polyline clip-path="url(#clip330)" style="stroke:#000000; stroke-linecap:round; stroke-linejoin:round; stroke-width:4; stroke-opacity:1; fill:none" points="186.76,147.339 205.658,147.339 "/>
<path clip-path="url(#clip330)" d="M63.4226 1421.27 Q59.8115 1421.27 57.9828 1424.83 Q56.1773 1428.38 56.1773 1435.51 Q56.1773 1442.61 57.9828 1446.18 Q59.8115 1449.72 63.4226 1449.72 Q67.0569 1449.72 68.8624 1446.18 Q70.6911 1442.61 70.6911 1435.51 Q70.6911 1428.38 68.8624 1424.83 Q67.0569 1421.27 63.4226 1421.27 M63.4226 1417.57 Q69.2328 1417.57 72.2883 1422.17 Q75.367 1426.76 75.367 1435.51 Q75.367 1444.23 72.2883 1448.84 Q69.2328 1453.42 63.4226 1453.42 Q57.6125 1453.42 54.5338 1448.84 Q51.4782 1444.23 51.4782 1435.51 Q51.4782 1426.76 54.5338 1422.17 Q57.6125 1417.57 63.4226 1417.57 Z" fill="#000000" fill-rule="nonzero" fill-opacity="1" /><path clip-path="url(#clip330)" d="M83.5845 1446.87 L88.4688 1446.87 L88.4688 1452.75 L83.5845 1452.75 L83.5845 1446.87 Z" fill="#000000" fill-rule="nonzero" fill-opacity="1" /><path clip-path="url(#clip330)" d="M108.654 1421.27 Q105.043 1421.27 103.214 1424.83 Q101.409 1428.38 101.409 1435.51 Q101.409 1442.61 103.214 1446.18 Q105.043 1449.72 108.654 1449.72 Q112.288 1449.72 114.094 1446.18 Q115.922 1442.61 115.922 1435.51 Q115.922 1428.38 114.094 1424.83 Q112.288 1421.27 108.654 1421.27 M108.654 1417.57 Q114.464 1417.57 117.52 1422.17 Q120.598 1426.76 120.598 1435.51 Q120.598 1444.23 117.52 1448.84 Q114.464 1453.42 108.654 1453.42 Q102.844 1453.42 99.765 1448.84 Q96.7095 1444.23 96.7095 1435.51 Q96.7095 1426.76 99.765 1422.17 Q102.844 1417.57 108.654 1417.57 Z" fill="#000000" fill-rule="nonzero" fill-opacity="1" /><path clip-path="url(#clip330)" d="M138.816 1421.27 Q135.205 1421.27 133.376 1424.83 Q131.57 1428.38 131.57 1435.51 Q131.57 1442.61 133.376 1446.18 Q135.205 1449.72 138.816 1449.72 Q142.45 1449.72 144.256 1446.18 Q146.084 1442.61 146.084 1435.51 Q146.084 1428.38 144.256 1424.83 Q142.45 1421.27 138.816 1421.27 M138.816 1417.57 Q144.626 1417.57 147.681 1422.17 Q150.76 1426.76 150.76 1435.51 Q150.76 1444.23 147.681 1448.84 Q144.626 1453.42 138.816 1453.42 Q133.006 1453.42 129.927 1448.84 Q126.871 1444.23 126.871 1435.51 Q126.871 1426.76 129.927 1422.17 Q133.006 1417.57 138.816 1417.57 Z" fill="#000000" fill-rule="nonzero" fill-opacity="1" /><path clip-path="url(#clip330)" d="M65.0198 1099.24 Q61.4087 1099.24 59.58 1102.8 Q57.7745 1106.34 57.7745 1113.47 Q57.7745 1120.58 59.58 1124.14 Q61.4087 1127.69 65.0198 1127.69 Q68.6541 1127.69 70.4596 1124.14 Q72.2883 1120.58 72.2883 1113.47 Q72.2883 1106.34 70.4596 1102.8 Q68.6541 1099.24 65.0198 1099.24 M65.0198 1095.53 Q70.83 1095.53 73.8855 1100.14 Q76.9642 1104.72 76.9642 1113.47 Q76.9642 1122.2 73.8855 1126.81 Q70.83 1131.39 65.0198 1131.39 Q59.2097 1131.39 56.131 1126.81 Q53.0754 1122.2 53.0754 1113.47 Q53.0754 1104.72 56.131 1100.14 Q59.2097 1095.53 65.0198 1095.53 Z" fill="#000000" fill-rule="nonzero" fill-opacity="1" /><path clip-path="url(#clip330)" d="M85.1818 1124.84 L90.066 1124.84 L90.066 1130.72 L85.1818 1130.72 L85.1818 1124.84 Z" fill="#000000" fill-rule="nonzero" fill-opacity="1" /><path clip-path="url(#clip330)" d="M110.251 1099.24 Q106.64 1099.24 104.811 1102.8 Q103.006 1106.34 103.006 1113.47 Q103.006 1120.58 104.811 1124.14 Q106.64 1127.69 110.251 1127.69 Q113.885 1127.69 115.691 1124.14 Q117.52 1120.58 117.52 1113.47 Q117.52 1106.34 115.691 1102.8 Q113.885 1099.24 110.251 1099.24 M110.251 1095.53 Q116.061 1095.53 119.117 1100.14 Q122.195 1104.72 122.195 1113.47 Q122.195 1122.2 119.117 1126.81 Q116.061 1131.39 110.251 1131.39 Q104.441 1131.39 101.362 1126.81 Q98.3067 1122.2 98.3067 1113.47 Q98.3067 1104.72 101.362 1100.14 Q104.441 1095.53 110.251 1095.53 Z" fill="#000000" fill-rule="nonzero" fill-opacity="1" /><path clip-path="url(#clip330)" d="M134.441 1126.78 L150.76 1126.78 L150.76 1130.72 L128.816 1130.72 L128.816 1126.78 Q131.478 1124.03 136.061 1119.4 Q140.668 1114.75 141.848 1113.4 Q144.093 1110.88 144.973 1109.14 Q145.876 1107.38 145.876 1105.69 Q145.876 1102.94 143.931 1101.2 Q142.01 1099.47 138.908 1099.47 Q136.709 1099.47 134.256 1100.23 Q131.825 1101 129.047 1102.55 L129.047 1097.82 Q131.871 1096.69 134.325 1096.11 Q136.779 1095.53 138.816 1095.53 Q144.186 1095.53 147.38 1098.22 Q150.575 1100.9 150.575 1105.39 Q150.575 1107.52 149.765 1109.44 Q148.978 1111.34 146.871 1113.94 Q146.293 1114.61 143.191 1117.82 Q140.089 1121.02 134.441 1126.78 Z" fill="#000000" fill-rule="nonzero" fill-opacity="1" /><path clip-path="url(#clip330)" d="M62.9365 777.204 Q59.3254 777.204 57.4967 780.768 Q55.6912 784.31 55.6912 791.44 Q55.6912 798.546 57.4967 802.111 Q59.3254 805.652 62.9365 805.652 Q66.5707 805.652 68.3763 802.111 Q70.205 798.546 70.205 791.44 Q70.205 784.31 68.3763 780.768 Q66.5707 777.204 62.9365 777.204 M62.9365 773.5 Q68.7467 773.5 71.8022 778.106 Q74.8809 782.69 74.8809 791.44 Q74.8809 800.166 71.8022 804.773 Q68.7467 809.356 62.9365 809.356 Q57.1264 809.356 54.0477 804.773 Q50.9921 800.166 50.9921 791.44 Q50.9921 782.69 54.0477 778.106 Q57.1264 773.5 62.9365 773.5 Z" fill="#000000" fill-rule="nonzero" fill-opacity="1" /><path clip-path="url(#clip330)" d="M83.0984 802.805 L87.9827 802.805 L87.9827 808.685 L83.0984 808.685 L83.0984 802.805 Z" fill="#000000" fill-rule="nonzero" fill-opacity="1" /><path clip-path="url(#clip330)" d="M108.168 777.204 Q104.557 777.204 102.728 780.768 Q100.922 784.31 100.922 791.44 Q100.922 798.546 102.728 802.111 Q104.557 805.652 108.168 805.652 Q111.802 805.652 113.608 802.111 Q115.436 798.546 115.436 791.44 Q115.436 784.31 113.608 780.768 Q111.802 777.204 108.168 777.204 M108.168 773.5 Q113.978 773.5 117.033 778.106 Q120.112 782.69 120.112 791.44 Q120.112 800.166 117.033 804.773 Q113.978 809.356 108.168 809.356 Q102.358 809.356 99.2789 804.773 Q96.2234 800.166 96.2234 791.44 Q96.2234 782.69 99.2789 778.106 Q102.358 773.5 108.168 773.5 Z" fill="#000000" fill-rule="nonzero" fill-opacity="1" /><path clip-path="url(#clip330)" d="M141.177 778.199 L129.371 796.648 L141.177 796.648 L141.177 778.199 M139.95 774.125 L145.83 774.125 L145.83 796.648 L150.76 796.648 L150.76 800.537 L145.83 800.537 L145.83 808.685 L141.177 808.685 L141.177 800.537 L125.575 800.537 L125.575 796.023 L139.95 774.125 Z" fill="#000000" fill-rule="nonzero" fill-opacity="1" /><path clip-path="url(#clip330)" d="M63.2606 455.171 Q59.6495 455.171 57.8208 458.735 Q56.0152 462.277 56.0152 469.407 Q56.0152 476.513 57.8208 480.078 Q59.6495 483.62 63.2606 483.62 Q66.8948 483.62 68.7004 480.078 Q70.5291 476.513 70.5291 469.407 Q70.5291 462.277 68.7004 458.735 Q66.8948 455.171 63.2606 455.171 M63.2606 451.467 Q69.0707 451.467 72.1263 456.073 Q75.205 460.657 75.205 469.407 Q75.205 478.134 72.1263 482.74 Q69.0707 487.323 63.2606 487.323 Q57.4504 487.323 54.3717 482.74 Q51.3162 478.134 51.3162 469.407 Q51.3162 460.657 54.3717 456.073 Q57.4504 451.467 63.2606 451.467 Z" fill="#000000" fill-rule="nonzero" fill-opacity="1" /><path clip-path="url(#clip330)" d="M83.4225 480.772 L88.3067 480.772 L88.3067 486.652 L83.4225 486.652 L83.4225 480.772 Z" fill="#000000" fill-rule="nonzero" fill-opacity="1" /><path clip-path="url(#clip330)" d="M108.492 455.171 Q104.881 455.171 103.052 458.735 Q101.246 462.277 101.246 469.407 Q101.246 476.513 103.052 480.078 Q104.881 483.62 108.492 483.62 Q112.126 483.62 113.932 480.078 Q115.76 476.513 115.76 469.407 Q115.76 462.277 113.932 458.735 Q112.126 455.171 108.492 455.171 M108.492 451.467 Q114.302 451.467 117.358 456.073 Q120.436 460.657 120.436 469.407 Q120.436 478.134 117.358 482.74 Q114.302 487.323 108.492 487.323 Q102.682 487.323 99.603 482.74 Q96.5474 478.134 96.5474 469.407 Q96.5474 460.657 99.603 456.073 Q102.682 451.467 108.492 451.467 Z" fill="#000000" fill-rule="nonzero" fill-opacity="1" /><path clip-path="url(#clip330)" d="M139.232 467.509 Q136.084 467.509 134.232 469.661 Q132.404 471.814 132.404 475.564 Q132.404 479.291 134.232 481.467 Q136.084 483.62 139.232 483.62 Q142.381 483.62 144.209 481.467 Q146.061 479.291 146.061 475.564 Q146.061 471.814 144.209 469.661 Q142.381 467.509 139.232 467.509 M148.515 452.856 L148.515 457.115 Q146.756 456.282 144.95 455.842 Q143.168 455.402 141.408 455.402 Q136.779 455.402 134.325 458.527 Q131.894 461.652 131.547 467.972 Q132.913 465.958 134.973 464.893 Q137.033 463.805 139.51 463.805 Q144.718 463.805 147.728 466.976 Q150.76 470.124 150.76 475.564 Q150.76 480.888 147.612 484.106 Q144.464 487.323 139.232 487.323 Q133.237 487.323 130.066 482.74 Q126.894 478.134 126.894 469.407 Q126.894 461.212 130.783 456.351 Q134.672 451.467 141.223 451.467 Q142.982 451.467 144.765 451.814 Q146.57 452.161 148.515 452.856 Z" fill="#000000" fill-rule="nonzero" fill-opacity="1" /><path clip-path="url(#clip330)" d="M63.5152 133.138 Q59.9041 133.138 58.0754 136.703 Q56.2699 140.244 56.2699 147.374 Q56.2699 154.48 58.0754 158.045 Q59.9041 161.587 63.5152 161.587 Q67.1494 161.587 68.955 158.045 Q70.7837 154.48 70.7837 147.374 Q70.7837 140.244 68.955 136.703 Q67.1494 133.138 63.5152 133.138 M63.5152 129.434 Q69.3254 129.434 72.3809 134.041 Q75.4596 138.624 75.4596 147.374 Q75.4596 156.101 72.3809 160.707 Q69.3254 165.29 63.5152 165.29 Q57.7051 165.29 54.6264 160.707 Q51.5708 156.101 51.5708 147.374 Q51.5708 138.624 54.6264 134.041 Q57.7051 129.434 63.5152 129.434 Z" fill="#000000" fill-rule="nonzero" fill-opacity="1" /><path clip-path="url(#clip330)" d="M83.6771 158.739 L88.5614 158.739 L88.5614 164.619 L83.6771 164.619 L83.6771 158.739 Z" fill="#000000" fill-rule="nonzero" fill-opacity="1" /><path clip-path="url(#clip330)" d="M108.746 133.138 Q105.135 133.138 103.307 136.703 Q101.501 140.244 101.501 147.374 Q101.501 154.48 103.307 158.045 Q105.135 161.587 108.746 161.587 Q112.381 161.587 114.186 158.045 Q116.015 154.48 116.015 147.374 Q116.015 140.244 114.186 136.703 Q112.381 133.138 108.746 133.138 M108.746 129.434 Q114.557 129.434 117.612 134.041 Q120.691 138.624 120.691 147.374 Q120.691 156.101 117.612 160.707 Q114.557 165.29 108.746 165.29 Q102.936 165.29 99.8576 160.707 Q96.8021 156.101 96.8021 147.374 Q96.8021 138.624 99.8576 134.041 Q102.936 129.434 108.746 129.434 Z" fill="#000000" fill-rule="nonzero" fill-opacity="1" /><path clip-path="url(#clip330)" d="M138.908 148.207 Q135.575 148.207 133.654 149.99 Q131.756 151.772 131.756 154.897 Q131.756 158.022 133.654 159.804 Q135.575 161.587 138.908 161.587 Q142.242 161.587 144.163 159.804 Q146.084 157.999 146.084 154.897 Q146.084 151.772 144.163 149.99 Q142.265 148.207 138.908 148.207 M134.232 146.216 Q131.223 145.476 129.533 143.415 Q127.867 141.355 127.867 138.392 Q127.867 134.249 130.807 131.841 Q133.769 129.434 138.908 129.434 Q144.07 129.434 147.01 131.841 Q149.95 134.249 149.95 138.392 Q149.95 141.355 148.26 143.415 Q146.593 145.476 143.607 146.216 Q146.987 147.003 148.862 149.295 Q150.76 151.587 150.76 154.897 Q150.76 159.92 147.681 162.605 Q144.626 165.29 138.908 165.29 Q133.191 165.29 130.112 162.605 Q127.057 159.92 127.057 154.897 Q127.057 151.587 128.955 149.295 Q130.853 147.003 134.232 146.216 M132.519 138.832 Q132.519 141.517 134.186 143.022 Q135.876 144.527 138.908 144.527 Q141.918 144.527 143.607 143.022 Q145.32 141.517 145.32 138.832 Q145.32 136.147 143.607 134.642 Q141.918 133.138 138.908 133.138 Q135.876 133.138 134.186 134.642 Q132.519 136.147 132.519 138.832 Z" fill="#000000" fill-rule="nonzero" fill-opacity="1" /><polyline clip-path="url(#clip332)" style="stroke:#009af9; stroke-linecap:round; stroke-linejoin:round; stroke-width:4; stroke-opacity:1; fill:none" points="248.062,1435.47 258.279,1435.26 268.496,1434.64 278.713,1433.74 288.93,1432.66 299.147,1431.51 309.364,1430.38 319.581,1429.35 329.798,1428.51 340.015,1427.9 350.231,1427.59 360.448,1427.6 370.665,1427.96 380.882,1428.68 391.099,1429.74 401.316,1431.12 411.533,1432.78 421.75,1434.65 431.967,1436.66 442.184,1438.71 452.401,1440.71 462.618,1442.54 472.835,1444.06 483.052,1445.16 493.269,1445.72 503.486,1445.61 513.703,1444.77 523.92,1443.13 534.137,1440.67 544.354,1437.43 554.571,1433.5 564.788,1429.03 575.005,1424.21 585.222,1419.29 595.439,1414.52 605.656,1410.19 615.872,1406.52 626.089,1403.72 636.306,1401.92 646.523,1401.17 656.74,1401.46 666.957,1402.69 677.174,1404.72 687.391,1407.35 697.608,1410.37 707.825,1413.55 718.042,1416.7 728.259,1419.6 738.476,1422.08 748.693,1424.02 758.91,1425.31 769.127,1425.86 779.344,1425.64 789.561,1424.64 799.778,1422.86 809.995,1420.34 820.212,1417.13 830.429,1413.29 840.646,1408.91 850.863,1404.07 861.08,1398.85 871.297,1393.34 881.513,1387.64 891.73,1381.83 901.947,1375.99 912.164,1370.2 922.381,1364.52 932.598,1359.01 942.815,1353.72 953.032,1348.69 963.249,1343.94 973.466,1339.49 983.683,1335.34 993.9,1331.5 1004.12,1327.94 1014.33,1324.67 1024.55,1321.63 1034.77,1318.82 1044.98,1316.19 1055.2,1313.71 1065.42,1311.33 1075.64,1309.03 1085.85,1306.75 1096.07,1304.48 1106.29,1302.16 1116.5,1299.76 1126.72,1297.27 1136.94,1294.64 1147.15,1291.87 1157.37,1288.93 1167.59,1285.8 1177.81,1282.48 1188.02,1278.95 1198.24,1275.2 1208.46,1271.24 1218.67,1267.07 1228.89,1262.67 1239.11,1258.07 1249.32,1253.25 1259.54,1248.23 1269.76,1243.02 1279.97,1237.61 1290.19,1232.03 1300.41,1226.28 1310.63,1220.37 1320.84,1214.31 1331.06,1208.11 1341.28,1201.78 1351.49,1195.33 1361.71,1188.78 1371.93,1182.13 1382.14,1175.39 1392.36,1168.57 1402.58,1161.67 1412.8,1154.7 1423.01,1147.66 1433.23,1140.57 1443.45,1133.41 1453.66,1126.19 1463.88,1118.92 1474.1,1111.58 1484.31,1104.17 1494.53,1096.69 1504.75,1089.14 1514.97,1081.51 1525.18,1073.79 1535.4,1065.98 1545.62,1058.06 1555.83,1050.03 1566.05,1041.88 1576.27,1033.6 1586.48,1025.18 1596.7,1016.62 1606.92,1007.9 1617.13,999.024 1627.35,989.973 1637.57,980.744 1647.79,971.332 1658,961.729 1668.22,951.93 1678.44,941.931 1688.65,931.728 1698.87,921.318 1709.09,910.699 1719.3,899.869 1729.52,888.828 1739.74,877.576 1749.96,866.113 1760.17,854.443 1770.39,842.566 1780.61,830.486 1790.82,818.207 1801.04,805.734 1811.26,793.072 1821.47,780.226 1831.69,767.201 1841.91,754.006 1852.12,740.646 1862.34,727.129 1872.56,713.463 1882.78,699.654 1892.99,685.711 1903.21,671.642 1913.43,657.455 1923.64,643.157 1933.86,628.757 1944.08,614.261 1954.29,599.678 1964.51,585.015 1974.73,570.279 1984.95,555.475 1995.16,540.611 2005.38,525.692 2015.6,510.724 2025.81,495.71 2036.03,480.655 2046.25,465.562 2056.46,450.435 2066.68,435.275 2076.9,420.084 2087.11,404.861 2097.33,389.609 2107.55,374.324 2117.77,359.006 2127.98,343.653 2138.2,328.26 2148.42,312.825 2158.63,297.341 2168.85,281.804 2179.07,266.206 2189.28,250.54 2199.5,234.799 2209.72,218.973 2219.94,203.052 2230.15,187.026 2240.37,170.883 2250.59,154.612 2260.8,138.2 2271.02,121.633 2281.24,104.896 2291.45,87.9763 "/>
<polyline clip-path="url(#clip332)" style="stroke:#e26f46; stroke-linecap:round; stroke-linejoin:round; stroke-width:4; stroke-opacity:1; fill:none" points="248.062,1435.47 258.279,1435.47 268.496,1435.47 278.713,1435.47 288.93,1435.47 299.147,1435.47 309.364,1435.47 319.581,1435.47 329.798,1435.47 340.015,1435.47 350.231,1435.47 360.448,1435.47 370.665,1435.47 380.882,1435.47 391.099,1435.47 401.316,1435.47 411.533,1435.47 421.75,1435.47 431.967,1435.47 442.184,1435.47 452.401,1435.47 462.618,1435.47 472.835,1435.47 483.052,1435.47 493.269,1435.47 503.486,1435.47 513.703,1435.47 523.92,1435.47 534.137,1435.47 544.354,1435.47 554.571,1435.47 564.788,1435.47 575.005,1435.47 585.222,1435.47 595.439,1435.47 605.656,1435.47 615.872,1435.47 626.089,1435.47 636.306,1435.47 646.523,1435.47 656.74,1435.47 666.957,1435.47 677.174,1435.47 687.391,1435.47 697.608,1435.47 707.825,1435.47 718.042,1435.47 728.259,1435.47 738.476,1435.47 748.693,1435.47 758.91,1435.47 769.127,1435.47 779.344,1435.47 789.561,1435.47 799.778,1435.47 809.995,1435.47 820.212,1435.47 830.429,1435.47 840.646,1435.47 850.863,1435.47 861.08,1435.47 871.297,1435.47 881.513,1435.47 891.73,1435.47 901.947,1435.47 912.164,1435.47 922.381,1435.47 932.598,1435.47 942.815,1435.47 953.032,1435.47 963.249,1435.47 973.466,1435.47 983.683,1435.47 993.9,1435.47 1004.12,1435.47 1014.33,1435.47 1024.55,1435.47 1034.77,1435.47 1044.98,1435.47 1055.2,1435.47 1065.42,1435.47 1075.64,1435.47 1085.85,1435.47 1096.07,1435.47 1106.29,1435.47 1116.5,1435.47 1126.72,1435.47 1136.94,1435.47 1147.15,1435.47 1157.37,1435.47 1167.59,1435.47 1177.81,1435.47 1188.02,1435.47 1198.24,1435.47 1208.46,1435.47 1218.67,1435.47 1228.89,1435.47 1239.11,1435.47 1249.32,1435.47 1259.54,1435.47 1269.76,1435.47 1279.97,1435.47 1290.19,1435.47 1300.41,1435.47 1310.63,1435.47 1320.84,1435.47 1331.06,1435.47 1341.28,1435.47 1351.49,1435.47 1361.71,1435.47 1371.93,1435.47 1382.14,1435.47 1392.36,1435.47 1402.58,1435.47 1412.8,1435.47 1423.01,1435.47 1433.23,1435.47 1443.45,1435.47 1453.66,1435.47 1463.88,1435.47 1474.1,1435.47 1484.31,1435.47 1494.53,1435.47 1504.75,1435.47 1514.97,1435.47 1525.18,1435.47 1535.4,1435.47 1545.62,1435.47 1555.83,1435.47 1566.05,1435.47 1576.27,1435.47 1586.48,1435.47 1596.7,1435.47 1606.92,1435.47 1617.13,1435.47 1627.35,1435.47 1637.57,1435.47 1647.79,1435.47 1658,1435.47 1668.22,1435.47 1678.44,1435.47 1688.65,1435.47 1698.87,1435.47 1709.09,1435.47 1719.3,1435.47 1729.52,1435.47 1739.74,1435.47 1749.96,1435.47 1760.17,1435.47 1770.39,1435.47 1780.61,1435.47 1790.82,1435.47 1801.04,1435.47 1811.26,1435.47 1821.47,1435.47 1831.69,1435.47 1841.91,1435.47 1852.12,1435.47 1862.34,1435.47 1872.56,1435.47 1882.78,1435.47 1892.99,1435.47 1903.21,1435.47 1913.43,1435.47 1923.64,1435.47 1933.86,1435.47 1944.08,1435.47 1954.29,1435.47 1964.51,1435.47 1974.73,1435.47 1984.95,1435.47 1995.16,1435.47 2005.38,1435.47 2015.6,1435.47 2025.81,1435.47 2036.03,1435.47 2046.25,1435.47 2056.46,1435.47 2066.68,1435.47 2076.9,1435.47 2087.11,1435.47 2097.33,1435.47 2107.55,1435.47 2117.77,1435.47 2127.98,1435.47 2138.2,1435.47 2148.42,1435.47 2158.63,1435.47 2168.85,1435.47 2179.07,1435.47 2189.28,1435.47 2199.5,1435.47 2209.72,1435.47 2219.94,1435.47 2230.15,1435.47 2240.37,1435.47 2250.59,1435.47 2260.8,1435.47 2271.02,1435.47 2281.24,1435.47 2291.45,1435.47 "/>
<path clip-path="url(#clip330)" d="M258.96 250.738 L527.99 250.738 L527.99 95.2176 L258.96 95.2176  Z" fill="#ffffff" fill-rule="evenodd" fill-opacity="1"/>
<polyline clip-path="url(#clip330)" style="stroke:#000000; stroke-linecap:round; stroke-linejoin:round; stroke-width:4; stroke-opacity:1; fill:none" points="258.96,250.738 527.99,250.738 527.99,95.2176 258.96,95.2176 258.96,250.738 "/>
<polyline clip-path="url(#clip330)" style="stroke:#009af9; stroke-linecap:round; stroke-linejoin:round; stroke-width:4; stroke-opacity:1; fill:none" points="283.027,147.058 427.426,147.058 "/>
<path clip-path="url(#clip330)" d="M465.335 166.745 Q463.53 171.375 461.817 172.787 Q460.104 174.199 457.234 174.199 L453.831 174.199 L453.831 170.634 L456.331 170.634 Q458.09 170.634 459.062 169.8 Q460.035 168.967 461.215 165.865 L461.979 163.921 L451.493 138.412 L456.007 138.412 L464.109 158.689 L472.21 138.412 L476.724 138.412 L465.335 166.745 Z" fill="#000000" fill-rule="nonzero" fill-opacity="1" /><path clip-path="url(#clip330)" d="M484.016 160.402 L491.655 160.402 L491.655 134.037 L483.345 135.703 L483.345 131.444 L491.608 129.778 L496.284 129.778 L496.284 160.402 L503.923 160.402 L503.923 164.338 L484.016 164.338 L484.016 160.402 Z" fill="#000000" fill-rule="nonzero" fill-opacity="1" /><polyline clip-path="url(#clip330)" style="stroke:#e26f46; stroke-linecap:round; stroke-linejoin:round; stroke-width:4; stroke-opacity:1; fill:none" points="283.027,198.898 427.426,198.898 "/>
<path clip-path="url(#clip330)" d="M465.335 218.585 Q463.53 223.215 461.817 224.627 Q460.104 226.039 457.234 226.039 L453.831 226.039 L453.831 222.474 L456.331 222.474 Q458.09 222.474 459.062 221.64 Q460.035 220.807 461.215 217.705 L461.979 215.761 L451.493 190.252 L456.007 190.252 L464.109 210.529 L472.21 190.252 L476.724 190.252 L465.335 218.585 Z" fill="#000000" fill-rule="nonzero" fill-opacity="1" /><path clip-path="url(#clip330)" d="M487.233 212.242 L503.553 212.242 L503.553 216.178 L481.609 216.178 L481.609 212.242 Q484.271 209.488 488.854 204.858 Q493.46 200.205 494.641 198.863 Q496.886 196.34 497.766 194.604 Q498.669 192.844 498.669 191.155 Q498.669 188.4 496.724 186.664 Q494.803 184.928 491.701 184.928 Q489.502 184.928 487.048 185.692 Q484.618 186.455 481.84 188.006 L481.84 183.284 Q484.664 182.15 487.118 181.571 Q489.571 180.993 491.608 180.993 Q496.979 180.993 500.173 183.678 Q503.368 186.363 503.368 190.854 Q503.368 192.983 502.557 194.905 Q501.77 196.803 499.664 199.395 Q499.085 200.067 495.983 203.284 Q492.882 206.479 487.233 212.242 Z" fill="#000000" fill-rule="nonzero" fill-opacity="1" /></svg>
