<?xml version="1.0" encoding="utf-8"?>
<svg xmlns="http://www.w3.org/2000/svg" xmlns:xlink="http://www.w3.org/1999/xlink" width="600" height="400" viewBox="0 0 2400 1600">
<defs>
  <clipPath id="clip570">
    <rect x="0" y="0" width="2400" height="1600"/>
  </clipPath>
</defs>
<path clip-path="url(#clip570)" d="M0 1600 L2400 1600 L2400 0 L0 0  Z" fill="#ffffff" fill-rule="evenodd" fill-opacity="1"/>
<defs>
  <clipPath id="clip571">
    <rect x="480" y="0" width="1681" height="1600"/>
  </clipPath>
</defs>
<path clip-path="url(#clip570)" d="M147.709 1486.45 L2352.76 1486.45 L2352.76 123.472 L147.709 123.472  Z" fill="#ffffff" fill-rule="evenodd" fill-opacity="1"/>
<defs>
  <clipPath id="clip572">
    <rect x="147" y="123" width="2206" height="1364"/>
  </clipPath>
</defs>
<polyline clip-path="url(#clip572)" style="stroke:#000000; stroke-linecap:round; stroke-linejoin:round; stroke-width:2; stroke-opacity:0.1; fill:none" points="210.116,1486.45 210.116,123.472 "/>
<polyline clip-path="url(#clip572)" style="stroke:#000000; stroke-linecap:round; stroke-linejoin:round; stroke-width:2; stroke-opacity:0.1; fill:none" points="730.175,1486.45 730.175,123.472 "/>
<polyline clip-path="url(#clip572)" style="stroke:#000000; stroke-linecap:round; stroke-linejoin:round; stroke-width:2; stroke-opacity:0.1; fill:none" points="1250.23,1486.45 1250.23,123.472 "/>
<polyline clip-path="url(#clip572)" style="stroke:#000000; stroke-linecap:round; stroke-linejoin:round; stroke-width:2; stroke-opacity:0.1; fill:none" points="1770.29,1486.45 1770.29,123.472 "/>
<polyline clip-path="url(#clip572)" style="stroke:#000000; stroke-linecap:round; stroke-linejoin:round; stroke-width:2; stroke-opacity:0.1; fill:none" points="2290.35,1486.45 2290.35,123.472 "/>
<polyline clip-path="url(#clip570)" style="stroke:#000000; stroke-linecap:round; stroke-linejoin:round; stroke-width:4; stroke-opacity:1; fill:none" points="147.709,1486.45 2352.76,1486.45 "/>
<polyline clip-path="url(#clip570)" style="stroke:#000000; stroke-linecap:round; stroke-linejoin:round; stroke-width:4; stroke-opacity:1; fill:none" points="210.116,1486.45 210.116,1467.55 "/>
<polyline clip-path="url(#clip570)" style="stroke:#000000; stroke-linecap:round; stroke-linejoin:round; stroke-width:4; stroke-opacity:1; fill:none" points="730.175,1486.45 730.175,1467.55 "/>
<polyline clip-path="url(#clip570)" style="stroke:#000000; stroke-linecap:round; stroke-linejoin:round; stroke-width:4; stroke-opacity:1; fill:none" points="1250.23,1486.45 1250.23,1467.55 "/>
<polyline clip-path="url(#clip570)" style="stroke:#000000; stroke-linecap:round; stroke-linejoin:round; stroke-width:4; stroke-opacity:1; fill:none" points="1770.29,1486.45 1770.29,1467.55 "/>
<polyline clip-path="url(#clip570)" style="stroke:#000000; stroke-linecap:round; stroke-linejoin:round; stroke-width:4; stroke-opacity:1; fill:none" points="2290.35,1486.45 2290.35,1467.55 "/>
<path clip-path="url(#clip570)" d="M164.179 1532.02 L193.855 1532.02 L193.855 1535.95 L164.179 1535.95 L164.179 1532.02 Z" fill="#000000" fill-rule="nonzero" fill-opacity="1" /><path clip-path="url(#clip570)" d="M204.758 1544.91 L212.396 1544.91 L212.396 1518.55 L204.086 1520.21 L204.086 1515.95 L212.35 1514.29 L217.026 1514.29 L217.026 1544.91 L224.665 1544.91 L224.665 1548.85 L204.758 1548.85 L204.758 1544.91 Z" fill="#000000" fill-rule="nonzero" fill-opacity="1" /><path clip-path="url(#clip570)" d="M244.109 1517.37 Q240.498 1517.37 238.669 1520.93 Q236.864 1524.47 236.864 1531.6 Q236.864 1538.71 238.669 1542.27 Q240.498 1545.82 244.109 1545.82 Q247.743 1545.82 249.549 1542.27 Q251.378 1538.71 251.378 1531.6 Q251.378 1524.47 249.549 1520.93 Q247.743 1517.37 244.109 1517.37 M244.109 1513.66 Q249.919 1513.66 252.975 1518.27 Q256.054 1522.85 256.054 1531.6 Q256.054 1540.33 252.975 1544.94 Q249.919 1549.52 244.109 1549.52 Q238.299 1549.52 235.22 1544.94 Q232.165 1540.33 232.165 1531.6 Q232.165 1522.85 235.22 1518.27 Q238.299 1513.66 244.109 1513.66 Z" fill="#000000" fill-rule="nonzero" fill-opacity="1" /><path clip-path="url(#clip570)" d="M699.816 1532.02 L729.492 1532.02 L729.492 1535.95 L699.816 1535.95 L699.816 1532.02 Z" fill="#000000" fill-rule="nonzero" fill-opacity="1" /><path clip-path="url(#clip570)" d="M739.63 1514.29 L757.987 1514.29 L757.987 1518.22 L743.913 1518.22 L743.913 1526.7 Q744.931 1526.35 745.95 1526.19 Q746.968 1526 747.987 1526 Q753.774 1526 757.154 1529.17 Q760.533 1532.34 760.533 1537.76 Q760.533 1543.34 757.061 1546.44 Q753.589 1549.52 747.269 1549.52 Q745.093 1549.52 742.825 1549.15 Q740.58 1548.78 738.172 1548.04 L738.172 1543.34 Q740.255 1544.47 742.478 1545.03 Q744.7 1545.58 747.177 1545.58 Q751.181 1545.58 753.519 1543.48 Q755.857 1541.37 755.857 1537.76 Q755.857 1534.15 753.519 1532.04 Q751.181 1529.94 747.177 1529.94 Q745.302 1529.94 743.427 1530.35 Q741.575 1530.77 739.63 1531.65 L739.63 1514.29 Z" fill="#000000" fill-rule="nonzero" fill-opacity="1" /><path clip-path="url(#clip570)" d="M1250.23 1517.37 Q1246.62 1517.37 1244.79 1520.93 Q1242.99 1524.47 1242.99 1531.6 Q1242.99 1538.71 1244.79 1542.27 Q1246.62 1545.82 1250.23 1545.82 Q1253.87 1545.82 1255.67 1542.27 Q1257.5 1538.71 1257.5 1531.6 Q1257.5 1524.47 1255.67 1520.93 Q1253.87 1517.37 1250.23 1517.37 M1250.23 1513.66 Q1256.04 1513.66 1259.1 1518.27 Q1262.18 1522.85 1262.18 1531.6 Q1262.18 1540.33 1259.1 1544.94 Q1256.04 1549.52 1250.23 1549.52 Q1244.42 1549.52 1241.34 1544.94 Q1238.29 1540.33 1238.29 1531.6 Q1238.29 1522.85 1241.34 1518.27 Q1244.42 1513.66 1250.23 1513.66 Z" fill="#000000" fill-rule="nonzero" fill-opacity="1" /><path clip-path="url(#clip570)" d="M1760.57 1514.29 L1778.93 1514.29 L1778.93 1518.22 L1764.85 1518.22 L1764.85 1526.7 Q1765.87 1526.35 1766.89 1526.19 Q1767.91 1526 1768.93 1526 Q1774.71 1526 1778.09 1529.17 Q1781.47 1532.34 1781.47 1537.76 Q1781.47 1543.34 1778 1546.44 Q1774.53 1549.52 1768.21 1549.52 Q1766.03 1549.52 1763.76 1549.15 Q1761.52 1548.78 1759.11 1548.04 L1759.11 1543.34 Q1761.19 1544.47 1763.42 1545.03 Q1765.64 1545.58 1768.11 1545.58 Q1772.12 1545.58 1774.46 1543.48 Q1776.8 1541.37 1776.8 1537.76 Q1776.8 1534.15 1774.46 1532.04 Q1772.12 1529.94 1768.11 1529.94 Q1766.24 1529.94 1764.36 1530.35 Q1762.51 1530.77 1760.57 1531.65 L1760.57 1514.29 Z" fill="#000000" fill-rule="nonzero" fill-opacity="1" /><path clip-path="url(#clip570)" d="M2265.04 1544.91 L2272.68 1544.91 L2272.68 1518.55 L2264.37 1520.21 L2264.37 1515.95 L2272.63 1514.29 L2277.31 1514.29 L2277.31 1544.91 L2284.94 1544.91 L2284.94 1548.85 L2265.04 1548.85 L2265.04 1544.91 Z" fill="#000000" fill-rule="nonzero" fill-opacity="1" /><path clip-path="url(#clip570)" d="M2304.39 1517.37 Q2300.78 1517.37 2298.95 1520.93 Q2297.14 1524.47 2297.14 1531.6 Q2297.14 1538.71 2298.95 1542.27 Q2300.78 1545.82 2304.39 1545.82 Q2308.02 1545.82 2309.83 1542.27 Q2311.66 1538.71 2311.66 1531.6 Q2311.66 1524.47 2309.83 1520.93 Q2308.02 1517.37 2304.39 1517.37 M2304.39 1513.66 Q2310.2 1513.66 2313.25 1518.27 Q2316.33 1522.85 2316.33 1531.6 Q2316.33 1540.33 2313.25 1544.94 Q2310.2 1549.52 2304.39 1549.52 Q2298.58 1549.52 2295.5 1544.94 Q2292.44 1540.33 2292.44 1531.6 Q2292.44 1522.85 2295.5 1518.27 Q2298.58 1513.66 2304.39 1513.66 Z" fill="#000000" fill-rule="nonzero" fill-opacity="1" /><polyline clip-path="url(#clip572)" style="stroke:#000000; stroke-linecap:round; stroke-linejoin:round; stroke-width:2; stroke-opacity:0.1; fill:none" points="147.709,1484.37 2352.76,1484.37 "/>
<polyline clip-path="url(#clip572)" style="stroke:#000000; stroke-linecap:round; stroke-linejoin:round; stroke-width:2; stroke-opacity:0.1; fill:none" points="147.709,1138.33 2352.76,1138.33 "/>
<polyline clip-path="url(#clip572)" style="stroke:#000000; stroke-linecap:round; stroke-linejoin:round; stroke-width:2; stroke-opacity:0.1; fill:none" points="147.709,792.285 2352.76,792.285 "/>
<polyline clip-path="url(#clip572)" style="stroke:#000000; stroke-linecap:round; stroke-linejoin:round; stroke-width:2; stroke-opacity:0.1; fill:none" points="147.709,446.241 2352.76,446.241 "/>
<polyline clip-path="url(#clip570)" style="stroke:#000000; stroke-linecap:round; stroke-linejoin:round; stroke-width:4; stroke-opacity:1; fill:none" points="147.709,1486.45 147.709,123.472 "/>
<polyline clip-path="url(#clip570)" style="stroke:#000000; stroke-linecap:round; stroke-linejoin:round; stroke-width:4; stroke-opacity:1; fill:none" points="147.709,1484.37 166.607,1484.37 "/>
<polyline clip-path="url(#clip570)" style="stroke:#000000; stroke-linecap:round; stroke-linejoin:round; stroke-width:4; stroke-opacity:1; fill:none" points="147.709,1138.33 166.607,1138.33 "/>
<polyline clip-path="url(#clip570)" style="stroke:#000000; stroke-linecap:round; stroke-linejoin:round; stroke-width:4; stroke-opacity:1; fill:none" points="147.709,792.285 166.607,792.285 "/>
<polyline clip-path="url(#clip570)" style="stroke:#000000; stroke-linecap:round; stroke-linejoin:round; stroke-width:4; stroke-opacity:1; fill:none" points="147.709,446.241 166.607,446.241 "/>
<path clip-path="url(#clip570)" d="M50.9921 1484.82 L80.6679 1484.82 L80.6679 1488.76 L50.9921 1488.76 L50.9921 1484.82 Z" fill="#000000" fill-rule="nonzero" fill-opacity="1" /><path clip-path="url(#clip570)" d="M90.8067 1467.09 L109.163 1467.09 L109.163 1471.03 L95.0891 1471.03 L95.0891 1479.5 Q96.1076 1479.15 97.1261 1478.99 Q98.1447 1478.81 99.1632 1478.81 Q104.95 1478.81 108.33 1481.98 Q111.709 1485.15 111.709 1490.56 Q111.709 1496.14 108.237 1499.25 Q104.765 1502.32 98.4456 1502.32 Q96.2697 1502.32 94.0012 1501.95 Q91.7558 1501.58 89.3484 1500.84 L89.3484 1496.14 Q91.4317 1497.28 93.6539 1497.83 Q95.8761 1498.39 98.353 1498.39 Q102.358 1498.39 104.696 1496.28 Q107.033 1494.18 107.033 1490.56 Q107.033 1486.95 104.696 1484.85 Q102.358 1482.74 98.353 1482.74 Q96.478 1482.74 94.603 1483.16 Q92.7512 1483.57 90.8067 1484.45 L90.8067 1467.09 Z" fill="#000000" fill-rule="nonzero" fill-opacity="1" /><path clip-path="url(#clip570)" d="M99.765 1124.13 Q96.1539 1124.13 94.3252 1127.69 Q92.5197 1131.23 92.5197 1138.36 Q92.5197 1145.47 94.3252 1149.03 Q96.1539 1152.58 99.765 1152.58 Q103.399 1152.58 105.205 1149.03 Q107.033 1145.47 107.033 1138.36 Q107.033 1131.23 105.205 1127.69 Q103.399 1124.13 99.765 1124.13 M99.765 1120.42 Q105.575 1120.42 108.631 1125.03 Q111.709 1129.61 111.709 1138.36 Q111.709 1147.09 108.631 1151.7 Q105.575 1156.28 99.765 1156.28 Q93.9549 1156.28 90.8762 1151.7 Q87.8206 1147.09 87.8206 1138.36 Q87.8206 1129.61 90.8762 1125.03 Q93.9549 1120.42 99.765 1120.42 Z" fill="#000000" fill-rule="nonzero" fill-opacity="1" /><path clip-path="url(#clip570)" d="M90.8067 775.005 L109.163 775.005 L109.163 778.94 L95.0891 778.94 L95.0891 787.412 Q96.1076 787.065 97.1261 786.903 Q98.1447 786.718 99.1632 786.718 Q104.95 786.718 108.33 789.889 Q111.709 793.06 111.709 798.477 Q111.709 804.056 108.237 807.157 Q104.765 810.236 98.4456 810.236 Q96.2697 810.236 94.0012 809.866 Q91.7558 809.495 89.3484 808.755 L89.3484 804.056 Q91.4317 805.19 93.6539 805.745 Q95.8761 806.301 98.353 806.301 Q102.358 806.301 104.696 804.195 Q107.033 802.088 107.033 798.477 Q107.033 794.866 104.696 792.759 Q102.358 790.653 98.353 790.653 Q96.478 790.653 94.603 791.07 Q92.7512 791.486 90.8067 792.366 L90.8067 775.005 Z" fill="#000000" fill-rule="nonzero" fill-opacity="1" /><path clip-path="url(#clip570)" d="M60.4134 459.586 L68.0522 459.586 L68.0522 433.22 L59.7421 434.887 L59.7421 430.628 L68.0059 428.961 L72.6818 428.961 L72.6818 459.586 L80.3207 459.586 L80.3207 463.521 L60.4134 463.521 L60.4134 459.586 Z" fill="#000000" fill-rule="nonzero" fill-opacity="1" /><path clip-path="url(#clip570)" d="M99.765 432.04 Q96.1539 432.04 94.3252 435.605 Q92.5197 439.146 92.5197 446.276 Q92.5197 453.382 94.3252 456.947 Q96.1539 460.489 99.765 460.489 Q103.399 460.489 105.205 456.947 Q107.033 453.382 107.033 446.276 Q107.033 439.146 105.205 435.605 Q103.399 432.04 99.765 432.04 M99.765 428.336 Q105.575 428.336 108.631 432.942 Q111.709 437.526 111.709 446.276 Q111.709 455.003 108.631 459.609 Q105.575 464.192 99.765 464.192 Q93.9549 464.192 90.8762 459.609 Q87.8206 455.003 87.8206 446.276 Q87.8206 437.526 90.8762 432.942 Q93.9549 428.336 99.765 428.336 Z" fill="#000000" fill-rule="nonzero" fill-opacity="1" /><path clip-path="url(#clip570)" d="M594.796 18.8205 L594.796 65.8515 L604.681 65.8515 Q617.198 65.8515 622.991 60.1802 Q628.824 54.509 628.824 42.2752 Q628.824 30.1225 622.991 24.4918 Q617.198 18.8205 604.681 18.8205 L594.796 18.8205 M586.614 12.096 L603.425 12.096 Q621.006 12.096 629.229 19.4281 Q637.452 26.7198 637.452 42.2752 Q637.452 57.9117 629.189 65.2439 Q620.925 72.576 603.425 72.576 L586.614 72.576 L586.614 12.096 Z" fill="#000000" fill-rule="nonzero" fill-opacity="1" /><path clip-path="url(#clip570)" d="M670.791 49.7694 Q661.758 49.7694 658.274 51.8354 Q654.79 53.9013 654.79 58.8839 Q654.79 62.8538 657.383 65.2034 Q660.016 67.5124 664.512 67.5124 Q670.71 67.5124 674.437 63.1374 Q678.204 58.7219 678.204 51.4303 L678.204 49.7694 L670.791 49.7694 M685.658 46.6907 L685.658 72.576 L678.204 72.576 L678.204 65.6895 Q675.652 69.8214 671.845 71.8063 Q668.037 73.7508 662.527 73.7508 Q655.56 73.7508 651.428 69.8619 Q647.337 65.9325 647.337 59.3701 Q647.337 51.7138 652.441 47.825 Q657.585 43.9361 667.753 43.9361 L678.204 43.9361 L678.204 43.2069 Q678.204 38.0623 674.802 35.2672 Q671.439 32.4315 665.323 32.4315 Q661.434 32.4315 657.747 33.3632 Q654.061 34.295 650.658 36.1584 L650.658 29.2718 Q654.75 27.692 658.598 26.9223 Q662.446 26.1121 666.092 26.1121 Q675.936 26.1121 680.797 31.2163 Q685.658 36.3204 685.658 46.6907 Z" fill="#000000" fill-rule="nonzero" fill-opacity="1" /><path clip-path="url(#clip570)" d="M708.384 14.324 L708.384 27.2059 L723.737 27.2059 L723.737 32.9987 L708.384 32.9987 L708.384 57.6282 Q708.384 63.1779 709.883 64.7578 Q711.422 66.3376 716.08 66.3376 L723.737 66.3376 L723.737 72.576 L716.08 72.576 Q707.452 72.576 704.171 69.3758 Q700.89 66.1351 700.89 57.6282 L700.89 32.9987 L695.421 32.9987 L695.421 27.2059 L700.89 27.2059 L700.89 14.324 L708.384 14.324 Z" fill="#000000" fill-rule="nonzero" fill-opacity="1" /><path clip-path="url(#clip570)" d="M754.159 49.7694 Q745.125 49.7694 741.642 51.8354 Q738.158 53.9013 738.158 58.8839 Q738.158 62.8538 740.75 65.2034 Q743.384 67.5124 747.88 67.5124 Q754.078 67.5124 757.805 63.1374 Q761.572 58.7219 761.572 51.4303 L761.572 49.7694 L754.159 49.7694 M769.026 46.6907 L769.026 72.576 L761.572 72.576 L761.572 65.6895 Q759.02 69.8214 755.212 71.8063 Q751.404 73.7508 745.895 73.7508 Q738.928 73.7508 734.796 69.8619 Q730.704 65.9325 730.704 59.3701 Q730.704 51.7138 735.808 47.825 Q740.953 43.9361 751.121 43.9361 L761.572 43.9361 L761.572 43.2069 Q761.572 38.0623 758.169 35.2672 Q754.807 32.4315 748.69 32.4315 Q744.801 32.4315 741.115 33.3632 Q737.429 34.295 734.026 36.1584 L734.026 29.2718 Q738.117 27.692 741.966 26.9223 Q745.814 26.1121 749.46 26.1121 Q759.304 26.1121 764.165 31.2163 Q769.026 36.3204 769.026 46.6907 Z" fill="#000000" fill-rule="nonzero" fill-opacity="1" /><path clip-path="url(#clip570)" d="M813.302 28.5427 L813.302 35.5912 Q810.142 33.9709 806.74 33.1607 Q803.337 32.3505 799.691 32.3505 Q794.141 32.3505 791.346 34.0519 Q788.592 35.7533 788.592 39.156 Q788.592 41.7486 790.577 43.2475 Q792.561 44.7058 798.557 46.0426 L801.109 46.6097 Q809.049 48.3111 812.37 51.4303 Q815.733 54.509 815.733 60.0587 Q815.733 66.3781 810.71 70.0644 Q805.727 73.7508 796.977 73.7508 Q793.331 73.7508 789.361 73.0216 Q785.432 72.3329 781.057 70.9151 L781.057 63.2184 Q785.189 65.3654 789.199 66.4591 Q793.21 67.5124 797.139 67.5124 Q802.405 67.5124 805.241 65.73 Q808.076 63.9071 808.076 60.6258 Q808.076 57.5877 806.01 55.9673 Q803.985 54.3469 797.058 52.8481 L794.465 52.2405 Q787.538 50.7821 784.46 47.7845 Q781.381 44.7463 781.381 39.4801 Q781.381 33.0797 785.918 29.5959 Q790.455 26.1121 798.8 26.1121 Q802.932 26.1121 806.578 26.7198 Q810.223 27.3274 813.302 28.5427 Z" fill="#000000" fill-rule="nonzero" fill-opacity="1" /><path clip-path="url(#clip570)" d="M866.409 48.0275 L866.409 51.6733 L832.139 51.6733 Q832.625 59.3701 836.757 63.421 Q840.929 67.4314 848.342 67.4314 Q852.636 67.4314 856.647 66.3781 Q860.698 65.3249 864.668 63.2184 L864.668 70.267 Q860.657 71.9684 856.444 72.8596 Q852.231 73.7508 847.897 73.7508 Q837.04 73.7508 830.68 67.4314 Q824.361 61.1119 824.361 50.3365 Q824.361 39.1965 830.356 32.6746 Q836.392 26.1121 846.601 26.1121 Q855.756 26.1121 861.062 32.0264 Q866.409 37.9003 866.409 48.0275 M858.956 45.84 Q858.875 39.7232 855.513 36.0774 Q852.191 32.4315 846.682 32.4315 Q840.443 32.4315 836.676 35.9558 Q832.949 39.4801 832.382 45.8805 L858.956 45.84 Z" fill="#000000" fill-rule="nonzero" fill-opacity="1" /><path clip-path="url(#clip570)" d="M886.016 14.324 L886.016 27.2059 L901.369 27.2059 L901.369 32.9987 L886.016 32.9987 L886.016 57.6282 Q886.016 63.1779 887.515 64.7578 Q889.054 66.3376 893.713 66.3376 L901.369 66.3376 L901.369 72.576 L893.713 72.576 Q885.084 72.576 881.803 69.3758 Q878.522 66.1351 878.522 57.6282 L878.522 32.9987 L873.053 32.9987 L873.053 27.2059 L878.522 27.2059 L878.522 14.324 L886.016 14.324 Z" fill="#000000" fill-rule="nonzero" fill-opacity="1" /><path clip-path="url(#clip570)" d="M960.512 9.54393 L960.512 15.7418 L953.382 15.7418 Q949.372 15.7418 947.792 17.3622 Q946.253 18.9825 946.253 23.1955 L946.253 27.2059 L958.527 27.2059 L958.527 32.9987 L946.253 32.9987 L946.253 72.576 L938.759 72.576 L938.759 32.9987 L931.629 32.9987 L931.629 27.2059 L938.759 27.2059 L938.759 24.0462 Q938.759 16.471 942.283 13.0277 Q945.807 9.54393 953.463 9.54393 L960.512 9.54393 Z" fill="#000000" fill-rule="nonzero" fill-opacity="1" /><path clip-path="url(#clip570)" d="M993.041 34.1734 Q991.785 33.4443 990.286 33.1202 Q988.828 32.7556 987.045 32.7556 Q980.726 32.7556 977.323 36.8875 Q973.961 40.9789 973.961 48.6757 L973.961 72.576 L966.467 72.576 L966.467 27.2059 L973.961 27.2059 L973.961 34.2544 Q976.311 30.1225 980.078 28.1376 Q983.845 26.1121 989.233 26.1121 Q990.003 26.1121 990.934 26.2337 Q991.866 26.3147 993 26.5172 L993.041 34.1734 Z" fill="#000000" fill-rule="nonzero" fill-opacity="1" /><path clip-path="url(#clip570)" d="M1016.62 32.4315 Q1010.62 32.4315 1007.14 37.1306 Q1003.65 41.7891 1003.65 49.9314 Q1003.65 58.0738 1007.1 62.7728 Q1010.58 67.4314 1016.62 67.4314 Q1022.57 67.4314 1026.06 62.7323 Q1029.54 58.0333 1029.54 49.9314 Q1029.54 41.8701 1026.06 37.1711 Q1022.57 32.4315 1016.62 32.4315 M1016.62 26.1121 Q1026.34 26.1121 1031.89 32.4315 Q1037.44 38.7509 1037.44 49.9314 Q1037.44 61.0714 1031.89 67.4314 Q1026.34 73.7508 1016.62 73.7508 Q1006.85 73.7508 1001.3 67.4314 Q995.795 61.0714 995.795 49.9314 Q995.795 38.7509 1001.3 32.4315 Q1006.85 26.1121 1016.62 26.1121 Z" fill="#000000" fill-rule="nonzero" fill-opacity="1" /><path clip-path="url(#clip570)" d="M1085.12 35.9153 Q1087.91 30.8922 1091.8 28.5022 Q1095.69 26.1121 1100.96 26.1121 Q1108.05 26.1121 1111.89 31.0947 Q1115.74 36.0368 1115.74 45.1919 L1115.74 72.576 L1108.25 72.576 L1108.25 45.4349 Q1108.25 38.913 1105.94 35.7533 Q1103.63 32.5936 1098.89 32.5936 Q1093.1 32.5936 1089.74 36.4419 Q1086.37 40.2903 1086.37 46.9338 L1086.37 72.576 L1078.88 72.576 L1078.88 45.4349 Q1078.88 38.8725 1076.57 35.7533 Q1074.26 32.5936 1069.44 32.5936 Q1063.73 32.5936 1060.37 36.4824 Q1057 40.3308 1057 46.9338 L1057 72.576 L1049.51 72.576 L1049.51 27.2059 L1057 27.2059 L1057 34.2544 Q1059.56 30.082 1063.12 28.0971 Q1066.69 26.1121 1071.59 26.1121 Q1076.53 26.1121 1079.97 28.6237 Q1083.46 31.1352 1085.12 35.9153 Z" fill="#000000" fill-rule="nonzero" fill-opacity="1" /><path clip-path="url(#clip570)" d="M1177.52 20.1573 L1166.42 50.2555 L1188.66 50.2555 L1177.52 20.1573 M1172.9 12.096 L1182.18 12.096 L1205.23 72.576 L1196.72 72.576 L1191.21 57.061 L1163.95 57.061 L1158.44 72.576 L1149.81 72.576 L1172.9 12.096 Z" fill="#000000" fill-rule="nonzero" fill-opacity="1" /><path clip-path="url(#clip570)" d="M1251.45 45.1919 L1251.45 72.576 L1243.99 72.576 L1243.99 45.4349 Q1243.99 38.994 1241.48 35.7938 Q1238.97 32.5936 1233.95 32.5936 Q1227.91 32.5936 1224.43 36.4419 Q1220.94 40.2903 1220.94 46.9338 L1220.94 72.576 L1213.45 72.576 L1213.45 27.2059 L1220.94 27.2059 L1220.94 34.2544 Q1223.62 30.163 1227.22 28.1376 Q1230.87 26.1121 1235.61 26.1121 Q1243.43 26.1121 1247.44 30.9732 Q1251.45 35.7938 1251.45 45.1919 Z" fill="#000000" fill-rule="nonzero" fill-opacity="1" /><path clip-path="url(#clip570)" d="M1286.93 49.7694 Q1277.9 49.7694 1274.42 51.8354 Q1270.93 53.9013 1270.93 58.8839 Q1270.93 62.8538 1273.53 65.2034 Q1276.16 67.5124 1280.65 67.5124 Q1286.85 67.5124 1290.58 63.1374 Q1294.35 58.7219 1294.35 51.4303 L1294.35 49.7694 L1286.93 49.7694 M1301.8 46.6907 L1301.8 72.576 L1294.35 72.576 L1294.35 65.6895 Q1291.79 69.8214 1287.99 71.8063 Q1284.18 73.7508 1278.67 73.7508 Q1271.7 73.7508 1267.57 69.8619 Q1263.48 65.9325 1263.48 59.3701 Q1263.48 51.7138 1268.58 47.825 Q1273.73 43.9361 1283.9 43.9361 L1294.35 43.9361 L1294.35 43.2069 Q1294.35 38.0623 1290.94 35.2672 Q1287.58 32.4315 1281.47 32.4315 Q1277.58 32.4315 1273.89 33.3632 Q1270.2 34.295 1266.8 36.1584 L1266.8 29.2718 Q1270.89 27.692 1274.74 26.9223 Q1278.59 26.1121 1282.23 26.1121 Q1292.08 26.1121 1296.94 31.2163 Q1301.8 36.3204 1301.8 46.6907 Z" fill="#000000" fill-rule="nonzero" fill-opacity="1" /><path clip-path="url(#clip570)" d="M1317.15 9.54393 L1324.61 9.54393 L1324.61 72.576 L1317.15 72.576 L1317.15 9.54393 Z" fill="#000000" fill-rule="nonzero" fill-opacity="1" /><path clip-path="url(#clip570)" d="M1359.08 76.7889 Q1355.92 84.8907 1352.92 87.3618 Q1349.93 89.8329 1344.9 89.8329 L1338.95 89.8329 L1338.95 83.5945 L1343.32 83.5945 Q1346.4 83.5945 1348.1 82.1361 Q1349.8 80.6778 1351.87 75.2496 L1353.21 71.8468 L1334.86 27.2059 L1342.76 27.2059 L1356.93 62.6918 L1371.11 27.2059 L1379.01 27.2059 L1359.08 76.7889 Z" fill="#000000" fill-rule="nonzero" fill-opacity="1" /><path clip-path="url(#clip570)" d="M1396.67 14.324 L1396.67 27.2059 L1412.03 27.2059 L1412.03 32.9987 L1396.67 32.9987 L1396.67 57.6282 Q1396.67 63.1779 1398.17 64.7578 Q1399.71 66.3376 1404.37 66.3376 L1412.03 66.3376 L1412.03 72.576 L1404.37 72.576 Q1395.74 72.576 1392.46 69.3758 Q1389.18 66.1351 1389.18 57.6282 L1389.18 32.9987 L1383.71 32.9987 L1383.71 27.2059 L1389.18 27.2059 L1389.18 14.324 L1396.67 14.324 Z" fill="#000000" fill-rule="nonzero" fill-opacity="1" /><path clip-path="url(#clip570)" d="M1421.83 27.2059 L1429.28 27.2059 L1429.28 72.576 L1421.83 72.576 L1421.83 27.2059 M1421.83 9.54393 L1429.28 9.54393 L1429.28 18.9825 L1421.83 18.9825 L1421.83 9.54393 Z" fill="#000000" fill-rule="nonzero" fill-opacity="1" /><path clip-path="url(#clip570)" d="M1477.53 28.9478 L1477.53 35.9153 Q1474.37 34.1734 1471.17 33.3227 Q1468.01 32.4315 1464.77 32.4315 Q1457.52 32.4315 1453.51 37.0496 Q1449.5 41.6271 1449.5 49.9314 Q1449.5 58.2358 1453.51 62.8538 Q1457.52 67.4314 1464.77 67.4314 Q1468.01 67.4314 1471.17 66.5807 Q1474.37 65.6895 1477.53 63.9476 L1477.53 70.8341 Q1474.41 72.2924 1471.05 73.0216 Q1467.73 73.7508 1463.96 73.7508 Q1453.71 73.7508 1447.67 67.3098 Q1441.64 60.8689 1441.64 49.9314 Q1441.64 38.832 1447.71 32.472 Q1453.83 26.1121 1464.44 26.1121 Q1467.89 26.1121 1471.17 26.8413 Q1474.45 27.5299 1477.53 28.9478 Z" fill="#000000" fill-rule="nonzero" fill-opacity="1" /><path clip-path="url(#clip570)" d="M1511.11 49.7694 Q1502.08 49.7694 1498.59 51.8354 Q1495.11 53.9013 1495.11 58.8839 Q1495.11 62.8538 1497.7 65.2034 Q1500.34 67.5124 1504.83 67.5124 Q1511.03 67.5124 1514.76 63.1374 Q1518.52 58.7219 1518.52 51.4303 L1518.52 49.7694 L1511.11 49.7694 M1525.98 46.6907 L1525.98 72.576 L1518.52 72.576 L1518.52 65.6895 Q1515.97 69.8214 1512.16 71.8063 Q1508.36 73.7508 1502.85 73.7508 Q1495.88 73.7508 1491.75 69.8619 Q1487.66 65.9325 1487.66 59.3701 Q1487.66 51.7138 1492.76 47.825 Q1497.9 43.9361 1508.07 43.9361 L1518.52 43.9361 L1518.52 43.2069 Q1518.52 38.0623 1515.12 35.2672 Q1511.76 32.4315 1505.64 32.4315 Q1501.75 32.4315 1498.07 33.3632 Q1494.38 34.295 1490.98 36.1584 L1490.98 29.2718 Q1495.07 27.692 1498.92 26.9223 Q1502.77 26.1121 1506.41 26.1121 Q1516.26 26.1121 1521.12 31.2163 Q1525.98 36.3204 1525.98 46.6907 Z" fill="#000000" fill-rule="nonzero" fill-opacity="1" /><path clip-path="url(#clip570)" d="M1541.33 9.54393 L1548.78 9.54393 L1548.78 72.576 L1541.33 72.576 L1541.33 9.54393 Z" fill="#000000" fill-rule="nonzero" fill-opacity="1" /><path clip-path="url(#clip570)" d="M1627.33 14.0809 L1627.33 22.0612 Q1622.67 19.8332 1618.54 18.7395 Q1614.41 17.6457 1610.56 17.6457 Q1603.88 17.6457 1600.23 20.2383 Q1596.63 22.8309 1596.63 27.611 Q1596.63 31.6214 1599.02 33.6873 Q1601.45 35.7128 1608.17 36.9686 L1613.11 37.9813 Q1622.27 39.7232 1626.6 44.1387 Q1630.98 48.5136 1630.98 55.8863 Q1630.98 64.6767 1625.06 69.2137 Q1619.19 73.7508 1607.81 73.7508 Q1603.51 73.7508 1598.65 72.7785 Q1593.83 71.8063 1588.65 69.9024 L1588.65 61.4765 Q1593.63 64.2716 1598.41 65.6895 Q1603.19 67.1073 1607.81 67.1073 Q1614.81 67.1073 1618.62 64.3527 Q1622.43 61.598 1622.43 56.4939 Q1622.43 52.0379 1619.68 49.5264 Q1616.96 47.0148 1610.72 45.759 L1605.74 44.7868 Q1596.58 42.9639 1592.49 39.075 Q1588.4 35.1862 1588.4 28.2591 Q1588.4 20.2383 1594.03 15.6203 Q1599.7 11.0023 1609.63 11.0023 Q1613.88 11.0023 1618.3 11.7719 Q1622.71 12.5416 1627.33 14.0809 Z" fill="#000000" fill-rule="nonzero" fill-opacity="1" /><path clip-path="url(#clip570)" d="M1660.99 32.4315 Q1655 32.4315 1651.52 37.1306 Q1648.03 41.7891 1648.03 49.9314 Q1648.03 58.0738 1651.47 62.7728 Q1654.96 67.4314 1660.99 67.4314 Q1666.95 67.4314 1670.43 62.7323 Q1673.92 58.0333 1673.92 49.9314 Q1673.92 41.8701 1670.43 37.1711 Q1666.95 32.4315 1660.99 32.4315 M1660.99 26.1121 Q1670.72 26.1121 1676.27 32.4315 Q1681.82 38.7509 1681.82 49.9314 Q1681.82 61.0714 1676.27 67.4314 Q1670.72 73.7508 1660.99 73.7508 Q1651.23 73.7508 1645.68 67.4314 Q1640.17 61.0714 1640.17 49.9314 Q1640.17 38.7509 1645.68 32.4315 Q1651.23 26.1121 1660.99 26.1121 Z" fill="#000000" fill-rule="nonzero" fill-opacity="1" /><path clip-path="url(#clip570)" d="M1694.17 9.54393 L1701.62 9.54393 L1701.62 72.576 L1694.17 72.576 L1694.17 9.54393 Z" fill="#000000" fill-rule="nonzero" fill-opacity="1" /><path clip-path="url(#clip570)" d="M1716.45 54.671 L1716.45 27.2059 L1723.9 27.2059 L1723.9 54.3874 Q1723.9 60.8284 1726.42 64.0691 Q1728.93 67.2693 1733.95 67.2693 Q1739.99 67.2693 1743.47 63.421 Q1747 59.5726 1747 52.9291 L1747 27.2059 L1754.45 27.2059 L1754.45 72.576 L1747 72.576 L1747 65.6084 Q1744.28 69.7404 1740.68 71.7658 Q1737.11 73.7508 1732.37 73.7508 Q1724.55 73.7508 1720.5 68.8897 Q1716.45 64.0286 1716.45 54.671 M1735.21 26.1121 L1735.21 26.1121 Z" fill="#000000" fill-rule="nonzero" fill-opacity="1" /><path clip-path="url(#clip570)" d="M1777.17 14.324 L1777.17 27.2059 L1792.53 27.2059 L1792.53 32.9987 L1777.17 32.9987 L1777.17 57.6282 Q1777.17 63.1779 1778.67 64.7578 Q1780.21 66.3376 1784.87 66.3376 L1792.53 66.3376 L1792.53 72.576 L1784.87 72.576 Q1776.24 72.576 1772.96 69.3758 Q1769.68 66.1351 1769.68 57.6282 L1769.68 32.9987 L1764.21 32.9987 L1764.21 27.2059 L1769.68 27.2059 L1769.68 14.324 L1777.17 14.324 Z" fill="#000000" fill-rule="nonzero" fill-opacity="1" /><path clip-path="url(#clip570)" d="M1802.33 27.2059 L1809.78 27.2059 L1809.78 72.576 L1802.33 72.576 L1802.33 27.2059 M1802.33 9.54393 L1809.78 9.54393 L1809.78 18.9825 L1802.33 18.9825 L1802.33 9.54393 Z" fill="#000000" fill-rule="nonzero" fill-opacity="1" /><path clip-path="url(#clip570)" d="M1842.96 32.4315 Q1836.97 32.4315 1833.48 37.1306 Q1830 41.7891 1830 49.9314 Q1830 58.0738 1833.44 62.7728 Q1836.93 67.4314 1842.96 67.4314 Q1848.92 67.4314 1852.4 62.7323 Q1855.88 58.0333 1855.88 49.9314 Q1855.88 41.8701 1852.4 37.1711 Q1848.92 32.4315 1842.96 32.4315 M1842.96 26.1121 Q1852.68 26.1121 1858.23 32.4315 Q1863.78 38.7509 1863.78 49.9314 Q1863.78 61.0714 1858.23 67.4314 Q1852.68 73.7508 1842.96 73.7508 Q1833.2 73.7508 1827.65 67.4314 Q1822.14 61.0714 1822.14 49.9314 Q1822.14 38.7509 1827.65 32.4315 Q1833.2 26.1121 1842.96 26.1121 Z" fill="#000000" fill-rule="nonzero" fill-opacity="1" /><path clip-path="url(#clip570)" d="M1913.85 45.1919 L1913.85 72.576 L1906.4 72.576 L1906.4 45.4349 Q1906.4 38.994 1903.89 35.7938 Q1901.37 32.5936 1896.35 32.5936 Q1890.32 32.5936 1886.83 36.4419 Q1883.35 40.2903 1883.35 46.9338 L1883.35 72.576 L1875.85 72.576 L1875.85 27.2059 L1883.35 27.2059 L1883.35 34.2544 Q1886.02 30.163 1889.63 28.1376 Q1893.27 26.1121 1898.01 26.1121 Q1905.83 26.1121 1909.84 30.9732 Q1913.85 35.7938 1913.85 45.1919 Z" fill="#000000" fill-rule="nonzero" fill-opacity="1" /><polyline clip-path="url(#clip572)" style="stroke:#009af9; stroke-linecap:round; stroke-linejoin:round; stroke-width:4; stroke-opacity:1; fill:none" points="210.116,1414.79 251.721,1414.6 293.326,1414.32 334.93,1413.91 376.535,1413.3 418.14,1412.38 459.744,1411.01 501.349,1408.98 542.954,1405.94 584.558,1401.43 626.163,1394.73 667.768,1384.79 709.372,1370.1 750.977,1348.48 792.581,1316.86 834.186,1271.11 875.791,1205.87 917.395,1114.87 959,992.101 1000.6,834.535 1042.21,647.129 1083.81,449.402 1125.42,279.728 1167.02,189.403 1208.63,220.556 1250.23,377.032 1291.84,614.394 1333.44,864.394 1375.05,1073.18 1416.65,1220.18 1458.26,1311.22 1499.86,1362.49 1541.47,1389.44 1583.07,1402.92 1624.67,1409.45 1666.28,1412.53 1707.88,1413.96 1749.49,1414.61 1791.09,1414.92 1832.7,1415.05 1874.3,1415.11 1915.91,1415.14 1957.51,1415.15 1999.12,1415.16 2040.72,1415.16 2082.33,1415.16 2123.93,1415.16 2165.53,1415.16 2207.14,1415.16 2248.74,1415.16 2290.35,1415.16 210.116,1414.91 251.721,1414.79 293.326,1414.6 334.93,1414.32 376.535,1413.91 418.14,1413.3 459.744,1412.38 501.349,1411.01 542.954,1408.98 584.558,1405.94 626.163,1401.43 667.768,1394.73 709.372,1384.79 750.977,1370.1 792.581,1348.48 834.186,1316.86 875.791,1271.11 917.395,1205.87 959,1114.87 1000.6,992.101 1042.21,834.535 1083.81,647.129 1125.42,449.402 1167.02,279.728 1208.63,189.403 1250.23,220.556 1291.84,377.032 1333.44,614.394 1375.05,864.394 1416.65,1073.18 1458.26,1220.18 1499.86,1311.22 1541.47,1362.49 1583.07,1389.44 1624.67,1402.92 1666.28,1409.45 1707.88,1412.53 1749.49,1413.96 1791.09,1414.61 1832.7,1414.92 1874.3,1415.05 1915.91,1415.11 1957.51,1415.14 1999.12,1415.15 2040.72,1415.16 2082.33,1415.16 2123.93,1415.16 2165.53,1415.16 2207.14,1415.16 2248.74,1415.16 2290.35,1415.16 210.116,1414.99 251.721,1414.91 293.326,1414.79 334.93,1414.6 376.535,1414.32 418.14,1413.91 459.744,1413.3 501.349,1412.38 542.954,1411.01 584.558,1408.98 626.163,1405.94 667.768,1401.43 709.372,1394.73 750.977,1384.79 792.581,1370.1 834.186,1348.48 875.791,1316.86 917.395,1271.11 959,1205.87 1000.6,1114.87 1042.21,992.101 1083.81,834.535 1125.42,647.129 1167.02,449.402 1208.63,279.728 1250.23,189.403 1291.84,220.556 1333.44,377.032 1375.05,614.394 1416.65,864.394 1458.26,1073.18 1499.86,1220.18 1541.47,1311.22 1583.07,1362.49 1624.67,1389.44 1666.28,1402.92 1707.88,1409.45 1749.49,1412.53 1791.09,1413.96 1832.7,1414.61 1874.3,1414.92 1915.91,1415.05 1957.51,1415.11 1999.12,1415.14 2040.72,1415.15 2082.33,1415.16 2123.93,1415.16 2165.53,1415.16 2207.14,1415.16 2248.74,1415.16 2290.35,1415.16 210.116,1415.05 251.721,1414.99 293.326,1414.91 334.93,1414.79 376.535,1414.6 418.14,1414.32 459.744,1413.91 501.349,1413.3 542.954,1412.38 584.558,1411.01 626.163,1408.98 667.768,1405.94 709.372,1401.43 750.977,1394.73 792.581,1384.79 834.186,1370.1 875.791,1348.48 917.395,1316.86 959,1271.11 1000.6,1205.87 1042.21,1114.87 1083.81,992.101 1125.42,834.535 1167.02,647.129 1208.63,449.402 1250.23,279.728 1291.84,189.403 1333.44,220.556 1375.05,377.032 1416.65,614.394 1458.26,864.394 1499.86,1073.18 1541.47,1220.18 1583.07,1311.22 1624.67,1362.49 1666.28,1389.44 1707.88,1402.92 1749.49,1409.45 1791.09,1412.53 1832.7,1413.96 1874.3,1414.61 1915.91,1414.92 1957.51,1415.05 1999.12,1415.11 2040.72,1415.14 2082.33,1415.15 2123.93,1415.16 2165.53,1415.16 2207.14,1415.16 2248.74,1415.16 2290.35,1415.16 210.116,1415.09 251.721,1415.05 293.326,1414.99 334.93,1414.91 376.535,1414.79 418.14,1414.6 459.744,1414.32 501.349,1413.91 542.954,1413.3 584.558,1412.38 626.163,1411.01 667.768,1408.98 709.372,1405.94 750.977,1401.43 792.581,1394.73 834.186,1384.79 875.791,1370.1 917.395,1348.48 959,1316.86 1000.6,1271.11 1042.21,1205.87 1083.81,1114.87 1125.42,992.101 1167.02,834.535 1208.63,647.129 1250.23,449.402 1291.84,279.728 1333.44,189.403 1375.05,220.556 1416.65,377.032 1458.26,614.394 1499.86,864.394 1541.47,1073.18 1583.07,1220.18 1624.67,1311.22 1666.28,1362.49 1707.88,1389.44 1749.49,1402.92 1791.09,1409.45 1832.7,1412.53 1874.3,1413.96 1915.91,1414.61 1957.51,1414.92 1999.12,1415.05 2040.72,1415.11 2082.33,1415.14 2123.93,1415.15 2165.53,1415.16 2207.14,1415.16 2248.74,1415.16 2290.35,1415.16 210.116,1415.11 251.721,1415.09 293.326,1415.05 334.93,1414.99 376.535,1414.91 418.14,1414.79 459.744,1414.6 501.349,1414.32 542.954,1413.91 584.558,1413.3 626.163,1412.38 667.768,1411.01 709.372,1408.98 750.977,1405.94 792.581,1401.43 834.186,1394.73 875.791,1384.79 917.395,1370.1 959,1348.48 1000.6,1316.86 1042.21,1271.11 1083.81,1205.87 1125.42,1114.87 1167.02,992.101 1208.63,834.535 1250.23,647.129 1291.84,449.402 1333.44,279.728 1375.05,189.403 1416.65,220.556 1458.26,377.032 1499.86,614.394 1541.47,864.394 1583.07,1073.18 1624.67,1220.18 1666.28,1311.22 1707.88,1362.49 1749.49,1389.44 1791.09,1402.92 1832.7,1409.45 1874.3,1412.53 1915.91,1413.96 1957.51,1414.61 1999.12,1414.92 2040.72,1415.05 2082.33,1415.11 2123.93,1415.14 2165.53,1415.15 2207.14,1415.16 2248.74,1415.16 2290.35,1415.16 "/>
<polyline clip-path="url(#clip572)" style="stroke:#e26f46; stroke-linecap:round; stroke-linejoin:round; stroke-width:4; stroke-opacity:1; fill:none" points="210.116,1404.41 251.721,1404.13 293.326,1405.87 334.93,1405.17 376.535,1412.25 418.14,1436 459.744,1430.84 501.349,1427.84 542.954,1415.47 584.558,1395.48 626.163,1402.49 667.768,1382.62 709.372,1364.19 750.977,1360.55 792.581,1310.19 834.186,1256.78 875.791,1205.58 917.395,1116.7 959,996.116 1000.6,845.636 1042.21,650.472 1083.81,467.397 1125.42,308.966 1167.02,162.783 1208.63,261.579 1250.23,366.043 1291.84,625.915 1333.44,874.491 1375.05,1077.51 1416.65,1213.19 1458.26,1306.59 1499.86,1374.07 1541.47,1386.85 1583.07,1397.02 1624.67,1414.44 1666.28,1399.84 1707.88,1417.65 1749.49,1426.44 1791.09,1428.38 1832.7,1438.74 1874.3,1403.83 1915.91,1415.43 1957.51,1424.95 1999.12,1426.4 2040.72,1399.05 2082.33,1406.81 2123.93,1411.56 2165.53,1415.69 2207.14,1411.65 2248.74,1402.56 2290.35,1430.68 210.116,1416.97 251.721,1395.13 293.326,1442.72 334.93,1417.55 376.535,1394.71 418.14,1427.47 459.744,1414.21 501.349,1405.61 542.954,1404.59 584.558,1414.05 626.163,1390.89 667.768,1397.26 709.372,1382.27 750.977,1369.15 792.581,1348.87 834.186,1322.43 875.791,1267.1 917.395,1208.4 959,1114.69 1000.6,991.991 1042.21,834.121 1083.81,662.824 1125.42,430.375 1167.02,325.785 1208.63,200.955 1250.23,194.568 1291.84,409.659 1333.44,619.767 1375.05,857.384 1416.65,1072.06 1458.26,1215.87 1499.86,1301.67 1541.47,1361.48 1583.07,1372.3 1624.67,1388.23 1666.28,1407.2 1707.88,1442.74 1749.49,1417.35 1791.09,1431.35 1832.7,1429.9 1874.3,1412.72 1915.91,1413.74 1957.51,1410.41 1999.12,1397.04 2040.72,1404.44 2082.33,1391.12 2123.93,1407.67 2165.53,1414.3 2207.14,1415.68 2248.74,1399.3 2290.35,1408.59 210.116,1412.14 251.721,1433.49 293.326,1392.91 334.93,1415.04 376.535,1411.65 418.14,1420.04 459.744,1411.34 501.349,1423.99 542.954,1386.01 584.558,1408.89 626.163,1412.41 667.768,1410.09 709.372,1392.37 750.977,1386.22 792.581,1358.79 834.186,1363.24 875.791,1312.48 917.395,1280.34 959,1206.06 1000.6,1115.63 1042.21,997.889 1083.81,818.649 1125.42,649.103 1167.02,474.823 1208.63,233.299 1250.23,203.655 1291.84,162.047 1333.44,359.504 1375.05,618.849 1416.65,865.187 1458.26,1068.66 1499.86,1220.47 1541.47,1303.94 1583.07,1364.09 1624.67,1390.97 1666.28,1405.87 1707.88,1420.5 1749.49,1392.17 1791.09,1399.86 1832.7,1392.74 1874.3,1413.95 1915.91,1404.86 1957.51,1406.01 1999.12,1420.77 2040.72,1406.08 2082.33,1422.27 2123.93,1447.27 2165.53,1411.74 2207.14,1425.12 2248.74,1416.69 2290.35,1422.27 210.116,1437.11 251.721,1411.48 293.326,1419.41 334.93,1447.87 376.535,1403.53 418.14,1430.78 459.744,1426.3 501.349,1404.99 542.954,1404.61 584.558,1410.56 626.163,1421.27 667.768,1430.01 709.372,1400.18 750.977,1367.08 792.581,1372.44 834.186,1368.67 875.791,1339.84 917.395,1309.83 959,1267.47 1000.6,1204.52 1042.21,1116.55 1083.81,980.032 1125.42,823.286 1167.02,623.236 1208.63,412.798 1250.23,355.398 1291.84,246.862 1333.44,189.537 1375.05,393.804 1416.65,632.478 1458.26,877.522 1499.86,1079.25 1541.47,1216.09 1583.07,1319.6 1624.67,1357.48 1666.28,1398.4 1707.88,1426.18 1749.49,1398.83 1791.09,1417.34 1832.7,1392.34 1874.3,1411.66 1915.91,1421.57 1957.51,1408.46 1999.12,1403.76 2040.72,1435.23 2082.33,1412.88 2123.93,1417.63 2165.53,1434.52 2207.14,1405.42 2248.74,1427.17 2290.35,1399.68 210.116,1388.43 251.721,1421.18 293.326,1425.66 334.93,1411.91 376.535,1385.68 418.14,1423.81 459.744,1398.17 501.349,1430.96 542.954,1426.06 584.558,1417.51 626.163,1401.7 667.768,1412 709.372,1415.26 750.977,1417.39 792.581,1402.08 834.186,1396.47 875.791,1376.16 917.395,1354.35 959,1311.56 1000.6,1266.22 1042.21,1199.91 1083.81,1115.31 1125.42,988.362 1167.02,856.141 1208.63,666.809 1250.23,448.336 1291.84,200.11 1333.44,179.899 1375.05,205.172 1416.65,396.67 1458.26,606.112 1499.86,864.338 1541.47,1072.86 1583.07,1223.41 1624.67,1298.29 1666.28,1351.64 1707.88,1393.48 1749.49,1415.27 1791.09,1424.42 1832.7,1386.36 1874.3,1395.25 1915.91,1415.8 1957.51,1399.13 1999.12,1422.15 2040.72,1396.89 2082.33,1408.67 2123.93,1407.9 2165.53,1423.95 2207.14,1394.05 2248.74,1424.37 2290.35,1411.73 210.116,1418.66 251.721,1437.42 293.326,1410.29 334.93,1417.62 376.535,1403.32 418.14,1416.38 459.744,1388.64 501.349,1426.65 542.954,1364.63 584.558,1371.84 626.163,1401.66 667.768,1407.57 709.372,1426.02 750.977,1400.87 792.581,1386.81 834.186,1389.26 875.791,1367.11 917.395,1391.18 959,1347.22 1000.6,1297.51 1042.21,1265.75 1083.81,1204.74 1125.42,1115.18 1167.02,987.094 1208.63,831.991 1250.23,646.128 1291.84,461.055 1333.44,292.605 1375.05,265.258 1416.65,216.105 1458.26,391.989 1499.86,610.359 1541.47,857.029 1583.07,1076.43 1624.67,1222.25 1666.28,1310.23 1707.88,1359.23 1749.49,1400.22 1791.09,1396.54 1832.7,1421.17 1874.3,1405.2 1915.91,1397.21 1957.51,1400.52 1999.12,1412.67 2040.72,1414.66 2082.33,1411.21 2123.93,1439.37 2165.53,1394.38 2207.14,1424.05 2248.74,1405.37 2290.35,1415.09 "/>
<path clip-path="url(#clip570)" d="M2006.32 324.425 L2279.25 324.425 L2279.25 168.905 L2006.32 168.905  Z" fill="#ffffff" fill-rule="evenodd" fill-opacity="1"/>
<polyline clip-path="url(#clip570)" style="stroke:#000000; stroke-linecap:round; stroke-linejoin:round; stroke-width:4; stroke-opacity:1; fill:none" points="2006.32,324.425 2279.25,324.425 2279.25,168.905 2006.32,168.905 2006.32,324.425 "/>
<polyline clip-path="url(#clip570)" style="stroke:#009af9; stroke-linecap:round; stroke-linejoin:round; stroke-width:4; stroke-opacity:1; fill:none" points="2030.82,220.745 2177.82,220.745 "/>
<path clip-path="url(#clip570)" d="M2216.17 240.432 Q2214.36 245.062 2212.65 246.474 Q2210.93 247.886 2208.06 247.886 L2204.66 247.886 L2204.66 244.321 L2207.16 244.321 Q2208.92 244.321 2209.89 243.488 Q2210.87 242.654 2212.05 239.552 L2212.81 237.608 L2202.32 212.099 L2206.84 212.099 L2214.94 232.377 L2223.04 212.099 L2227.55 212.099 L2216.17 240.432 Z" fill="#000000" fill-rule="nonzero" fill-opacity="1" /><path clip-path="url(#clip570)" d="M2234.85 234.089 L2242.49 234.089 L2242.49 207.724 L2234.18 209.391 L2234.18 205.131 L2242.44 203.465 L2247.11 203.465 L2247.11 234.089 L2254.75 234.089 L2254.75 238.025 L2234.85 238.025 L2234.85 234.089 Z" fill="#000000" fill-rule="nonzero" fill-opacity="1" /><polyline clip-path="url(#clip570)" style="stroke:#e26f46; stroke-linecap:round; stroke-linejoin:round; stroke-width:4; stroke-opacity:1; fill:none" points="2030.82,272.585 2177.82,272.585 "/>
<path clip-path="url(#clip570)" d="M2216.17 292.272 Q2214.36 296.902 2212.65 298.314 Q2210.93 299.726 2208.06 299.726 L2204.66 299.726 L2204.66 296.161 L2207.16 296.161 Q2208.92 296.161 2209.89 295.328 Q2210.87 294.494 2212.05 291.392 L2212.81 289.448 L2202.32 263.939 L2206.84 263.939 L2214.94 284.217 L2223.04 263.939 L2227.55 263.939 L2216.17 292.272 Z" fill="#000000" fill-rule="nonzero" fill-opacity="1" /><path clip-path="url(#clip570)" d="M2238.06 285.929 L2254.38 285.929 L2254.38 289.865 L2232.44 289.865 L2232.44 285.929 Q2235.1 283.175 2239.68 278.545 Q2244.29 273.893 2245.47 272.55 Q2247.72 270.027 2248.6 268.291 Q2249.5 266.531 2249.5 264.842 Q2249.5 262.087 2247.55 260.351 Q2245.63 258.615 2242.53 258.615 Q2240.33 258.615 2237.88 259.379 Q2235.45 260.143 2232.67 261.694 L2232.67 256.971 Q2235.49 255.837 2237.95 255.258 Q2240.4 254.68 2242.44 254.68 Q2247.81 254.68 2251 257.365 Q2254.2 260.05 2254.2 264.541 Q2254.2 266.67 2253.39 268.592 Q2252.6 270.49 2250.49 273.082 Q2249.92 273.754 2246.81 276.971 Q2243.71 280.166 2238.06 285.929 Z" fill="#000000" fill-rule="nonzero" fill-opacity="1" /></svg>
