<?xml version="1.0" encoding="utf-8"?>
<svg xmlns="http://www.w3.org/2000/svg" xmlns:xlink="http://www.w3.org/1999/xlink" width="600" height="400" viewBox="0 0 2400 1600">
<defs>
  <clipPath id="clip850">
    <rect x="0" y="0" width="2400" height="1600"/>
  </clipPath>
</defs>
<path clip-path="url(#clip850)" d="M0 1600 L2400 1600 L2400 0 L0 0  Z" fill="#ffffff" fill-rule="evenodd" fill-opacity="1"/>
<defs>
  <clipPath id="clip851">
    <rect x="480" y="0" width="1681" height="1600"/>
  </clipPath>
</defs>
<path clip-path="url(#clip850)" d="M224.584 1486.45 L2352.76 1486.45 L2352.76 47.2441 L224.584 47.2441  Z" fill="#ffffff" fill-rule="evenodd" fill-opacity="1"/>
<defs>
  <clipPath id="clip852">
    <rect x="224" y="47" width="2129" height="1440"/>
  </clipPath>
</defs>
<polyline clip-path="url(#clip852)" style="stroke:#000000; stroke-linecap:round; stroke-linejoin:round; stroke-width:2; stroke-opacity:0.1; fill:none" points="284.815,1486.45 284.815,47.2441 "/>
<polyline clip-path="url(#clip852)" style="stroke:#000000; stroke-linecap:round; stroke-linejoin:round; stroke-width:2; stroke-opacity:0.1; fill:none" points="786.743,1486.45 786.743,47.2441 "/>
<polyline clip-path="url(#clip852)" style="stroke:#000000; stroke-linecap:round; stroke-linejoin:round; stroke-width:2; stroke-opacity:0.1; fill:none" points="1288.67,1486.45 1288.67,47.2441 "/>
<polyline clip-path="url(#clip852)" style="stroke:#000000; stroke-linecap:round; stroke-linejoin:round; stroke-width:2; stroke-opacity:0.1; fill:none" points="1790.6,1486.45 1790.6,47.2441 "/>
<polyline clip-path="url(#clip852)" style="stroke:#000000; stroke-linecap:round; stroke-linejoin:round; stroke-width:2; stroke-opacity:0.1; fill:none" points="2292.52,1486.45 2292.52,47.2441 "/>
<polyline clip-path="url(#clip852)" style="stroke:#000000; stroke-linecap:round; stroke-linejoin:round; stroke-width:2; stroke-opacity:0.1; fill:none" points="224.584,1387.86 2352.76,1387.86 "/>
<polyline clip-path="url(#clip852)" style="stroke:#000000; stroke-linecap:round; stroke-linejoin:round; stroke-width:2; stroke-opacity:0.1; fill:none" points="224.584,1070.81 2352.76,1070.81 "/>
<polyline clip-path="url(#clip852)" style="stroke:#000000; stroke-linecap:round; stroke-linejoin:round; stroke-width:2; stroke-opacity:0.1; fill:none" points="224.584,753.77 2352.76,753.77 "/>
<polyline clip-path="url(#clip852)" style="stroke:#000000; stroke-linecap:round; stroke-linejoin:round; stroke-width:2; stroke-opacity:0.1; fill:none" points="224.584,436.727 2352.76,436.727 "/>
<polyline clip-path="url(#clip852)" style="stroke:#000000; stroke-linecap:round; stroke-linejoin:round; stroke-width:2; stroke-opacity:0.1; fill:none" points="224.584,119.683 2352.76,119.683 "/>
<polyline clip-path="url(#clip850)" style="stroke:#000000; stroke-linecap:round; stroke-linejoin:round; stroke-width:4; stroke-opacity:1; fill:none" points="224.584,1486.45 2352.76,1486.45 "/>
<polyline clip-path="url(#clip850)" style="stroke:#000000; stroke-linecap:round; stroke-linejoin:round; stroke-width:4; stroke-opacity:1; fill:none" points="284.815,1486.45 284.815,1467.55 "/>
<polyline clip-path="url(#clip850)" style="stroke:#000000; stroke-linecap:round; stroke-linejoin:round; stroke-width:4; stroke-opacity:1; fill:none" points="786.743,1486.45 786.743,1467.55 "/>
<polyline clip-path="url(#clip850)" style="stroke:#000000; stroke-linecap:round; stroke-linejoin:round; stroke-width:4; stroke-opacity:1; fill:none" points="1288.67,1486.45 1288.67,1467.55 "/>
<polyline clip-path="url(#clip850)" style="stroke:#000000; stroke-linecap:round; stroke-linejoin:round; stroke-width:4; stroke-opacity:1; fill:none" points="1790.6,1486.45 1790.6,1467.55 "/>
<polyline clip-path="url(#clip850)" style="stroke:#000000; stroke-linecap:round; stroke-linejoin:round; stroke-width:4; stroke-opacity:1; fill:none" points="2292.52,1486.45 2292.52,1467.55 "/>
<path clip-path="url(#clip850)" d="M262.2 1517.37 Q258.589 1517.37 256.76 1520.93 Q254.954 1524.47 254.954 1531.6 Q254.954 1538.71 256.76 1542.27 Q258.589 1545.82 262.2 1545.82 Q265.834 1545.82 267.639 1542.27 Q269.468 1538.71 269.468 1531.6 Q269.468 1524.47 267.639 1520.93 Q265.834 1517.37 262.2 1517.37 M262.2 1513.66 Q268.01 1513.66 271.065 1518.27 Q274.144 1522.85 274.144 1531.6 Q274.144 1540.33 271.065 1544.94 Q268.01 1549.52 262.2 1549.52 Q256.389 1549.52 253.311 1544.94 Q250.255 1540.33 250.255 1531.6 Q250.255 1522.85 253.311 1518.27 Q256.389 1513.66 262.2 1513.66 Z" fill="#000000" fill-rule="nonzero" fill-opacity="1" /><path clip-path="url(#clip850)" d="M282.362 1542.97 L287.246 1542.97 L287.246 1548.85 L282.362 1548.85 L282.362 1542.97 Z" fill="#000000" fill-rule="nonzero" fill-opacity="1" /><path clip-path="url(#clip850)" d="M307.431 1517.37 Q303.82 1517.37 301.991 1520.93 Q300.186 1524.47 300.186 1531.6 Q300.186 1538.71 301.991 1542.27 Q303.82 1545.82 307.431 1545.82 Q311.065 1545.82 312.871 1542.27 Q314.699 1538.71 314.699 1531.6 Q314.699 1524.47 312.871 1520.93 Q311.065 1517.37 307.431 1517.37 M307.431 1513.66 Q313.241 1513.66 316.297 1518.27 Q319.375 1522.85 319.375 1531.6 Q319.375 1540.33 316.297 1544.94 Q313.241 1549.52 307.431 1549.52 Q301.621 1549.52 298.542 1544.94 Q295.487 1540.33 295.487 1531.6 Q295.487 1522.85 298.542 1518.27 Q301.621 1513.66 307.431 1513.66 Z" fill="#000000" fill-rule="nonzero" fill-opacity="1" /><path clip-path="url(#clip850)" d="M764.625 1517.37 Q761.014 1517.37 759.185 1520.93 Q757.379 1524.47 757.379 1531.6 Q757.379 1538.71 759.185 1542.27 Q761.014 1545.82 764.625 1545.82 Q768.259 1545.82 770.064 1542.27 Q771.893 1538.71 771.893 1531.6 Q771.893 1524.47 770.064 1520.93 Q768.259 1517.37 764.625 1517.37 M764.625 1513.66 Q770.435 1513.66 773.49 1518.27 Q776.569 1522.85 776.569 1531.6 Q776.569 1540.33 773.49 1544.94 Q770.435 1549.52 764.625 1549.52 Q758.815 1549.52 755.736 1544.94 Q752.68 1540.33 752.68 1531.6 Q752.68 1522.85 755.736 1518.27 Q758.815 1513.66 764.625 1513.66 Z" fill="#000000" fill-rule="nonzero" fill-opacity="1" /><path clip-path="url(#clip850)" d="M784.787 1542.97 L789.671 1542.97 L789.671 1548.85 L784.787 1548.85 L784.787 1542.97 Z" fill="#000000" fill-rule="nonzero" fill-opacity="1" /><path clip-path="url(#clip850)" d="M799.902 1514.29 L818.259 1514.29 L818.259 1518.22 L804.185 1518.22 L804.185 1526.7 Q805.203 1526.35 806.222 1526.19 Q807.24 1526 808.259 1526 Q814.046 1526 817.425 1529.17 Q820.805 1532.34 820.805 1537.76 Q820.805 1543.34 817.333 1546.44 Q813.861 1549.52 807.541 1549.52 Q805.365 1549.52 803.097 1549.15 Q800.851 1548.78 798.444 1548.04 L798.444 1543.34 Q800.527 1544.47 802.749 1545.03 Q804.972 1545.58 807.449 1545.58 Q811.453 1545.58 813.791 1543.48 Q816.129 1541.37 816.129 1537.76 Q816.129 1534.15 813.791 1532.04 Q811.453 1529.94 807.449 1529.94 Q805.574 1529.94 803.699 1530.35 Q801.847 1530.77 799.902 1531.65 L799.902 1514.29 Z" fill="#000000" fill-rule="nonzero" fill-opacity="1" /><path clip-path="url(#clip850)" d="M1255.82 1544.91 L1263.46 1544.91 L1263.46 1518.55 L1255.15 1520.21 L1255.15 1515.95 L1263.42 1514.29 L1268.09 1514.29 L1268.09 1544.91 L1275.73 1544.91 L1275.73 1548.85 L1255.82 1548.85 L1255.82 1544.91 Z" fill="#000000" fill-rule="nonzero" fill-opacity="1" /><path clip-path="url(#clip850)" d="M1285.17 1542.97 L1290.06 1542.97 L1290.06 1548.85 L1285.17 1548.85 L1285.17 1542.97 Z" fill="#000000" fill-rule="nonzero" fill-opacity="1" /><path clip-path="url(#clip850)" d="M1310.24 1517.37 Q1306.63 1517.37 1304.8 1520.93 Q1303 1524.47 1303 1531.6 Q1303 1538.71 1304.8 1542.27 Q1306.63 1545.82 1310.24 1545.82 Q1313.88 1545.82 1315.68 1542.27 Q1317.51 1538.71 1317.51 1531.6 Q1317.51 1524.47 1315.68 1520.93 Q1313.88 1517.37 1310.24 1517.37 M1310.24 1513.66 Q1316.05 1513.66 1319.11 1518.27 Q1322.19 1522.85 1322.19 1531.6 Q1322.19 1540.33 1319.11 1544.94 Q1316.05 1549.52 1310.24 1549.52 Q1304.43 1549.52 1301.36 1544.94 Q1298.3 1540.33 1298.3 1531.6 Q1298.3 1522.85 1301.36 1518.27 Q1304.43 1513.66 1310.24 1513.66 Z" fill="#000000" fill-rule="nonzero" fill-opacity="1" /><path clip-path="url(#clip850)" d="M1758.25 1544.91 L1765.89 1544.91 L1765.89 1518.55 L1757.58 1520.21 L1757.58 1515.95 L1765.84 1514.29 L1770.52 1514.29 L1770.52 1544.91 L1778.16 1544.91 L1778.16 1548.85 L1758.25 1548.85 L1758.25 1544.91 Z" fill="#000000" fill-rule="nonzero" fill-opacity="1" /><path clip-path="url(#clip850)" d="M1787.6 1542.97 L1792.48 1542.97 L1792.48 1548.85 L1787.6 1548.85 L1787.6 1542.97 Z" fill="#000000" fill-rule="nonzero" fill-opacity="1" /><path clip-path="url(#clip850)" d="M1802.72 1514.29 L1821.07 1514.29 L1821.07 1518.22 L1807 1518.22 L1807 1526.7 Q1808.02 1526.35 1809.03 1526.19 Q1810.05 1526 1811.07 1526 Q1816.86 1526 1820.24 1529.17 Q1823.62 1532.34 1823.62 1537.76 Q1823.62 1543.34 1820.15 1546.44 Q1816.67 1549.52 1810.35 1549.52 Q1808.18 1549.52 1805.91 1549.15 Q1803.66 1548.78 1801.26 1548.04 L1801.26 1543.34 Q1803.34 1544.47 1805.56 1545.03 Q1807.78 1545.58 1810.26 1545.58 Q1814.27 1545.58 1816.6 1543.48 Q1818.94 1541.37 1818.94 1537.76 Q1818.94 1534.15 1816.6 1532.04 Q1814.27 1529.94 1810.26 1529.94 Q1808.39 1529.94 1806.51 1530.35 Q1804.66 1530.77 1802.72 1531.65 L1802.72 1514.29 Z" fill="#000000" fill-rule="nonzero" fill-opacity="1" /><path clip-path="url(#clip850)" d="M2263.76 1544.91 L2280.08 1544.91 L2280.08 1548.85 L2258.14 1548.85 L2258.14 1544.91 Q2260.8 1542.16 2265.38 1537.53 Q2269.99 1532.88 2271.17 1531.53 Q2273.42 1529.01 2274.3 1527.27 Q2275.2 1525.51 2275.2 1523.82 Q2275.2 1521.07 2273.25 1519.33 Q2271.33 1517.6 2268.23 1517.6 Q2266.03 1517.6 2263.58 1518.36 Q2261.15 1519.13 2258.37 1520.68 L2258.37 1515.95 Q2261.19 1514.82 2263.65 1514.24 Q2266.1 1513.66 2268.14 1513.66 Q2273.51 1513.66 2276.7 1516.35 Q2279.9 1519.03 2279.9 1523.52 Q2279.9 1525.65 2279.09 1527.57 Q2278.3 1529.47 2276.19 1532.07 Q2275.61 1532.74 2272.51 1535.95 Q2269.41 1539.15 2263.76 1544.91 Z" fill="#000000" fill-rule="nonzero" fill-opacity="1" /><path clip-path="url(#clip850)" d="M2289.9 1542.97 L2294.78 1542.97 L2294.78 1548.85 L2289.9 1548.85 L2289.9 1542.97 Z" fill="#000000" fill-rule="nonzero" fill-opacity="1" /><path clip-path="url(#clip850)" d="M2314.97 1517.37 Q2311.36 1517.37 2309.53 1520.93 Q2307.72 1524.47 2307.72 1531.6 Q2307.72 1538.71 2309.53 1542.27 Q2311.36 1545.82 2314.97 1545.82 Q2318.6 1545.82 2320.41 1542.27 Q2322.24 1538.71 2322.24 1531.6 Q2322.24 1524.47 2320.41 1520.93 Q2318.6 1517.37 2314.97 1517.37 M2314.97 1513.66 Q2320.78 1513.66 2323.83 1518.27 Q2326.91 1522.85 2326.91 1531.6 Q2326.91 1540.33 2323.83 1544.94 Q2320.78 1549.52 2314.97 1549.52 Q2309.16 1549.52 2306.08 1544.94 Q2303.02 1540.33 2303.02 1531.6 Q2303.02 1522.85 2306.08 1518.27 Q2309.16 1513.66 2314.97 1513.66 Z" fill="#000000" fill-rule="nonzero" fill-opacity="1" /><polyline clip-path="url(#clip850)" style="stroke:#000000; stroke-linecap:round; stroke-linejoin:round; stroke-width:4; stroke-opacity:1; fill:none" points="224.584,1486.45 224.584,47.2441 "/>
<polyline clip-path="url(#clip850)" style="stroke:#000000; stroke-linecap:round; stroke-linejoin:round; stroke-width:4; stroke-opacity:1; fill:none" points="224.584,1387.86 243.482,1387.86 "/>
<polyline clip-path="url(#clip850)" style="stroke:#000000; stroke-linecap:round; stroke-linejoin:round; stroke-width:4; stroke-opacity:1; fill:none" points="224.584,1070.81 243.482,1070.81 "/>
<polyline clip-path="url(#clip850)" style="stroke:#000000; stroke-linecap:round; stroke-linejoin:round; stroke-width:4; stroke-opacity:1; fill:none" points="224.584,753.77 243.482,753.77 "/>
<polyline clip-path="url(#clip850)" style="stroke:#000000; stroke-linecap:round; stroke-linejoin:round; stroke-width:4; stroke-opacity:1; fill:none" points="224.584,436.727 243.482,436.727 "/>
<polyline clip-path="url(#clip850)" style="stroke:#000000; stroke-linecap:round; stroke-linejoin:round; stroke-width:4; stroke-opacity:1; fill:none" points="224.584,119.683 243.482,119.683 "/>
<path clip-path="url(#clip850)" d="M50.9921 1388.31 L80.6679 1388.31 L80.6679 1392.24 L50.9921 1392.24 L50.9921 1388.31 Z" fill="#000000" fill-rule="nonzero" fill-opacity="1" /><path clip-path="url(#clip850)" d="M100.76 1373.66 Q97.1493 1373.66 95.3206 1377.22 Q93.515 1380.76 93.515 1387.89 Q93.515 1395 95.3206 1398.56 Q97.1493 1402.1 100.76 1402.1 Q104.395 1402.1 106.2 1398.56 Q108.029 1395 108.029 1387.89 Q108.029 1380.76 106.2 1377.22 Q104.395 1373.66 100.76 1373.66 M100.76 1369.95 Q106.571 1369.95 109.626 1374.56 Q112.705 1379.14 112.705 1387.89 Q112.705 1396.62 109.626 1401.22 Q106.571 1405.81 100.76 1405.81 Q94.9502 1405.81 91.8715 1401.22 Q88.816 1396.62 88.816 1387.89 Q88.816 1379.14 91.8715 1374.56 Q94.9502 1369.95 100.76 1369.95 Z" fill="#000000" fill-rule="nonzero" fill-opacity="1" /><path clip-path="url(#clip850)" d="M120.922 1399.26 L125.807 1399.26 L125.807 1405.14 L120.922 1405.14 L120.922 1399.26 Z" fill="#000000" fill-rule="nonzero" fill-opacity="1" /><path clip-path="url(#clip850)" d="M145.992 1373.66 Q142.381 1373.66 140.552 1377.22 Q138.746 1380.76 138.746 1387.89 Q138.746 1395 140.552 1398.56 Q142.381 1402.1 145.992 1402.1 Q149.626 1402.1 151.431 1398.56 Q153.26 1395 153.26 1387.89 Q153.26 1380.76 151.431 1377.22 Q149.626 1373.66 145.992 1373.66 M145.992 1369.95 Q151.802 1369.95 154.857 1374.56 Q157.936 1379.14 157.936 1387.89 Q157.936 1396.62 154.857 1401.22 Q151.802 1405.81 145.992 1405.81 Q140.181 1405.81 137.103 1401.22 Q134.047 1396.62 134.047 1387.89 Q134.047 1379.14 137.103 1374.56 Q140.181 1369.95 145.992 1369.95 Z" fill="#000000" fill-rule="nonzero" fill-opacity="1" /><path clip-path="url(#clip850)" d="M179.001 1374.65 L167.195 1393.1 L179.001 1393.1 L179.001 1374.65 M177.774 1370.58 L183.653 1370.58 L183.653 1393.1 L188.584 1393.1 L188.584 1396.99 L183.653 1396.99 L183.653 1405.14 L179.001 1405.14 L179.001 1396.99 L163.399 1396.99 L163.399 1392.47 L177.774 1370.58 Z" fill="#000000" fill-rule="nonzero" fill-opacity="1" /><path clip-path="url(#clip850)" d="M52.1264 1071.26 L81.8021 1071.26 L81.8021 1075.2 L52.1264 1075.2 L52.1264 1071.26 Z" fill="#000000" fill-rule="nonzero" fill-opacity="1" /><path clip-path="url(#clip850)" d="M101.895 1056.61 Q98.2835 1056.61 96.4548 1060.18 Q94.6493 1063.72 94.6493 1070.85 Q94.6493 1077.95 96.4548 1081.52 Q98.2835 1085.06 101.895 1085.06 Q105.529 1085.06 107.334 1081.52 Q109.163 1077.95 109.163 1070.85 Q109.163 1063.72 107.334 1060.18 Q105.529 1056.61 101.895 1056.61 M101.895 1052.91 Q107.705 1052.91 110.76 1057.51 Q113.839 1062.1 113.839 1070.85 Q113.839 1079.57 110.76 1084.18 Q107.705 1088.76 101.895 1088.76 Q96.0845 1088.76 93.0058 1084.18 Q89.9503 1079.57 89.9503 1070.85 Q89.9503 1062.1 93.0058 1057.51 Q96.0845 1052.91 101.895 1052.91 Z" fill="#000000" fill-rule="nonzero" fill-opacity="1" /><path clip-path="url(#clip850)" d="M122.057 1082.21 L126.941 1082.21 L126.941 1088.09 L122.057 1088.09 L122.057 1082.21 Z" fill="#000000" fill-rule="nonzero" fill-opacity="1" /><path clip-path="url(#clip850)" d="M147.126 1056.61 Q143.515 1056.61 141.686 1060.18 Q139.881 1063.72 139.881 1070.85 Q139.881 1077.95 141.686 1081.52 Q143.515 1085.06 147.126 1085.06 Q150.76 1085.06 152.566 1081.52 Q154.394 1077.95 154.394 1070.85 Q154.394 1063.72 152.566 1060.18 Q150.76 1056.61 147.126 1056.61 M147.126 1052.91 Q152.936 1052.91 155.992 1057.51 Q159.07 1062.1 159.07 1070.85 Q159.07 1079.57 155.992 1084.18 Q152.936 1088.76 147.126 1088.76 Q141.316 1088.76 138.237 1084.18 Q135.181 1079.57 135.181 1070.85 Q135.181 1062.1 138.237 1057.51 Q141.316 1052.91 147.126 1052.91 Z" fill="#000000" fill-rule="nonzero" fill-opacity="1" /><path clip-path="url(#clip850)" d="M181.454 1069.46 Q184.811 1070.18 186.686 1072.45 Q188.584 1074.71 188.584 1078.05 Q188.584 1083.16 185.065 1085.96 Q181.547 1088.76 175.066 1088.76 Q172.89 1088.76 170.575 1088.32 Q168.283 1087.91 165.829 1087.05 L165.829 1082.54 Q167.774 1083.67 170.089 1084.25 Q172.404 1084.83 174.927 1084.83 Q179.325 1084.83 181.616 1083.09 Q183.931 1081.36 183.931 1078.05 Q183.931 1074.99 181.778 1073.28 Q179.649 1071.54 175.829 1071.54 L171.802 1071.54 L171.802 1067.7 L176.015 1067.7 Q179.464 1067.7 181.292 1066.33 Q183.121 1064.95 183.121 1062.35 Q183.121 1059.69 181.223 1058.28 Q179.348 1056.84 175.829 1056.84 Q173.908 1056.84 171.709 1057.26 Q169.51 1057.68 166.871 1058.56 L166.871 1054.39 Q169.533 1053.65 171.848 1053.28 Q174.186 1052.91 176.246 1052.91 Q181.57 1052.91 184.672 1055.34 Q187.774 1057.75 187.774 1061.87 Q187.774 1064.74 186.13 1066.73 Q184.487 1068.7 181.454 1069.46 Z" fill="#000000" fill-rule="nonzero" fill-opacity="1" /><path clip-path="url(#clip850)" d="M53.0754 754.221 L82.7512 754.221 L82.7512 758.157 L53.0754 758.157 L53.0754 754.221 Z" fill="#000000" fill-rule="nonzero" fill-opacity="1" /><path clip-path="url(#clip850)" d="M102.844 739.569 Q99.2326 739.569 97.4039 743.134 Q95.5984 746.675 95.5984 753.805 Q95.5984 760.911 97.4039 764.476 Q99.2326 768.018 102.844 768.018 Q106.478 768.018 108.283 764.476 Q110.112 760.911 110.112 753.805 Q110.112 746.675 108.283 743.134 Q106.478 739.569 102.844 739.569 M102.844 735.865 Q108.654 735.865 111.709 740.472 Q114.788 745.055 114.788 753.805 Q114.788 762.532 111.709 767.138 Q108.654 771.721 102.844 771.721 Q97.0335 771.721 93.9549 767.138 Q90.8993 762.532 90.8993 753.805 Q90.8993 745.055 93.9549 740.472 Q97.0335 735.865 102.844 735.865 Z" fill="#000000" fill-rule="nonzero" fill-opacity="1" /><path clip-path="url(#clip850)" d="M123.006 765.17 L127.89 765.17 L127.89 771.05 L123.006 771.05 L123.006 765.17 Z" fill="#000000" fill-rule="nonzero" fill-opacity="1" /><path clip-path="url(#clip850)" d="M148.075 739.569 Q144.464 739.569 142.635 743.134 Q140.83 746.675 140.83 753.805 Q140.83 760.911 142.635 764.476 Q144.464 768.018 148.075 768.018 Q151.709 768.018 153.515 764.476 Q155.343 760.911 155.343 753.805 Q155.343 746.675 153.515 743.134 Q151.709 739.569 148.075 739.569 M148.075 735.865 Q153.885 735.865 156.941 740.472 Q160.019 745.055 160.019 753.805 Q160.019 762.532 156.941 767.138 Q153.885 771.721 148.075 771.721 Q142.265 771.721 139.186 767.138 Q136.131 762.532 136.131 753.805 Q136.131 745.055 139.186 740.472 Q142.265 735.865 148.075 735.865 Z" fill="#000000" fill-rule="nonzero" fill-opacity="1" /><path clip-path="url(#clip850)" d="M172.265 767.115 L188.584 767.115 L188.584 771.05 L166.64 771.05 L166.64 767.115 Q169.302 764.36 173.885 759.731 Q178.491 755.078 179.672 753.735 Q181.917 751.212 182.797 749.476 Q183.7 747.717 183.7 746.027 Q183.7 743.272 181.755 741.536 Q179.834 739.8 176.732 739.8 Q174.533 739.8 172.079 740.564 Q169.649 741.328 166.871 742.879 L166.871 738.157 Q169.695 737.022 172.149 736.444 Q174.603 735.865 176.64 735.865 Q182.01 735.865 185.204 738.55 Q188.399 741.235 188.399 745.726 Q188.399 747.856 187.589 749.777 Q186.802 751.675 184.695 754.268 Q184.116 754.939 181.015 758.157 Q177.913 761.351 172.265 767.115 Z" fill="#000000" fill-rule="nonzero" fill-opacity="1" /><path clip-path="url(#clip850)" d="M52.7051 437.178 L82.3808 437.178 L82.3808 441.113 L52.7051 441.113 L52.7051 437.178 Z" fill="#000000" fill-rule="nonzero" fill-opacity="1" /><path clip-path="url(#clip850)" d="M102.473 422.525 Q98.8622 422.525 97.0335 426.09 Q95.228 429.632 95.228 436.761 Q95.228 443.868 97.0335 447.433 Q98.8622 450.974 102.473 450.974 Q106.108 450.974 107.913 447.433 Q109.742 443.868 109.742 436.761 Q109.742 429.632 107.913 426.09 Q106.108 422.525 102.473 422.525 M102.473 418.822 Q108.283 418.822 111.339 423.428 Q114.418 428.011 114.418 436.761 Q114.418 445.488 111.339 450.095 Q108.283 454.678 102.473 454.678 Q96.6632 454.678 93.5845 450.095 Q90.529 445.488 90.529 436.761 Q90.529 428.011 93.5845 423.428 Q96.6632 418.822 102.473 418.822 Z" fill="#000000" fill-rule="nonzero" fill-opacity="1" /><path clip-path="url(#clip850)" d="M122.635 448.127 L127.519 448.127 L127.519 454.007 L122.635 454.007 L122.635 448.127 Z" fill="#000000" fill-rule="nonzero" fill-opacity="1" /><path clip-path="url(#clip850)" d="M147.705 422.525 Q144.093 422.525 142.265 426.09 Q140.459 429.632 140.459 436.761 Q140.459 443.868 142.265 447.433 Q144.093 450.974 147.705 450.974 Q151.339 450.974 153.144 447.433 Q154.973 443.868 154.973 436.761 Q154.973 429.632 153.144 426.09 Q151.339 422.525 147.705 422.525 M147.705 418.822 Q153.515 418.822 156.57 423.428 Q159.649 428.011 159.649 436.761 Q159.649 445.488 156.57 450.095 Q153.515 454.678 147.705 454.678 Q141.894 454.678 138.816 450.095 Q135.76 445.488 135.76 436.761 Q135.76 428.011 138.816 423.428 Q141.894 418.822 147.705 418.822 Z" fill="#000000" fill-rule="nonzero" fill-opacity="1" /><path clip-path="url(#clip850)" d="M168.677 450.072 L176.316 450.072 L176.316 423.706 L168.005 425.373 L168.005 421.113 L176.269 419.447 L180.945 419.447 L180.945 450.072 L188.584 450.072 L188.584 454.007 L168.677 454.007 L168.677 450.072 Z" fill="#000000" fill-rule="nonzero" fill-opacity="1" /><path clip-path="url(#clip850)" d="M101.246 105.482 Q97.6354 105.482 95.8067 109.047 Q94.0012 112.589 94.0012 119.718 Q94.0012 126.825 95.8067 130.389 Q97.6354 133.931 101.246 133.931 Q104.881 133.931 106.686 130.389 Q108.515 126.825 108.515 119.718 Q108.515 112.589 106.686 109.047 Q104.881 105.482 101.246 105.482 M101.246 101.778 Q107.057 101.778 110.112 106.385 Q113.191 110.968 113.191 119.718 Q113.191 128.445 110.112 133.051 Q107.057 137.635 101.246 137.635 Q95.4363 137.635 92.3576 133.051 Q89.3021 128.445 89.3021 119.718 Q89.3021 110.968 92.3576 106.385 Q95.4363 101.778 101.246 101.778 Z" fill="#000000" fill-rule="nonzero" fill-opacity="1" /><path clip-path="url(#clip850)" d="M121.408 131.084 L126.293 131.084 L126.293 136.963 L121.408 136.963 L121.408 131.084 Z" fill="#000000" fill-rule="nonzero" fill-opacity="1" /><path clip-path="url(#clip850)" d="M146.478 105.482 Q142.867 105.482 141.038 109.047 Q139.232 112.589 139.232 119.718 Q139.232 126.825 141.038 130.389 Q142.867 133.931 146.478 133.931 Q150.112 133.931 151.918 130.389 Q153.746 126.825 153.746 119.718 Q153.746 112.589 151.918 109.047 Q150.112 105.482 146.478 105.482 M146.478 101.778 Q152.288 101.778 155.343 106.385 Q158.422 110.968 158.422 119.718 Q158.422 128.445 155.343 133.051 Q152.288 137.635 146.478 137.635 Q140.668 137.635 137.589 133.051 Q134.533 128.445 134.533 119.718 Q134.533 110.968 137.589 106.385 Q140.668 101.778 146.478 101.778 Z" fill="#000000" fill-rule="nonzero" fill-opacity="1" /><path clip-path="url(#clip850)" d="M176.64 105.482 Q173.029 105.482 171.2 109.047 Q169.394 112.589 169.394 119.718 Q169.394 126.825 171.2 130.389 Q173.029 133.931 176.64 133.931 Q180.274 133.931 182.079 130.389 Q183.908 126.825 183.908 119.718 Q183.908 112.589 182.079 109.047 Q180.274 105.482 176.64 105.482 M176.64 101.778 Q182.45 101.778 185.505 106.385 Q188.584 110.968 188.584 119.718 Q188.584 128.445 185.505 133.051 Q182.45 137.635 176.64 137.635 Q170.829 137.635 167.751 133.051 Q164.695 128.445 164.695 119.718 Q164.695 110.968 167.751 106.385 Q170.829 101.778 176.64 101.778 Z" fill="#000000" fill-rule="nonzero" fill-opacity="1" /><polyline clip-path="url(#clip852)" style="stroke:#009af9; stroke-linecap:round; stroke-linejoin:round; stroke-width:4; stroke-opacity:1; fill:none" points="284.815,119.683 294.854,104.345 304.892,94.5017 314.931,89.3045 324.969,87.9763 335.008,89.8067 345.047,94.1469 355.085,100.405 365.124,108.044 375.162,116.576 385.201,125.564 395.239,134.618 405.278,143.394 415.316,151.594 425.355,158.964 435.393,165.296 445.432,170.43 455.471,174.25 465.509,176.691 475.548,177.738 485.586,177.425 495.625,175.841 505.663,173.128 515.702,169.482 525.74,165.149 535.779,160.422 545.817,155.633 555.856,151.141 565.895,147.312 575.933,144.502 585.972,143.03 596.01,143.153 606.049,145.036 616.087,148.737 626.126,154.192 636.164,161.217 646.203,169.519 656.241,178.729 666.28,188.427 676.319,198.189 686.357,207.619 696.396,216.38 706.434,224.215 716.473,230.957 726.511,236.528 736.55,240.929 746.588,244.235 756.627,246.568 766.666,248.092 776.704,248.992 786.743,249.462 796.781,249.695 806.82,249.874 816.858,250.166 826.897,250.719 836.935,251.656 846.974,253.078 857.012,255.06 867.051,257.654 877.09,260.889 887.128,264.772 897.167,269.294 907.205,274.428 917.244,280.133 927.282,286.358 937.321,293.045 947.359,300.128 957.398,307.543 967.436,315.221 977.475,323.1 987.514,331.12 997.552,339.229 1007.59,347.381 1017.63,355.54 1027.67,363.678 1037.71,371.777 1047.74,379.825 1057.78,387.823 1067.82,395.773 1077.86,403.687 1087.9,411.577 1097.94,419.459 1107.98,427.349 1118.01,435.262 1128.05,443.21 1138.09,451.2 1148.13,459.236 1158.17,467.316 1168.21,475.43 1178.25,483.567 1188.28,491.709 1198.32,499.832 1208.36,507.913 1218.4,515.926 1228.44,523.842 1238.48,531.636 1248.52,539.285 1258.55,546.769 1268.59,554.071 1278.63,561.183 1288.67,568.099 1298.71,574.821 1308.75,581.358 1318.79,587.724 1328.82,593.938 1338.86,600.027 1348.9,606.02 1358.94,611.95 1368.98,617.855 1379.02,623.771 1389.06,629.74 1399.09,635.799 1409.13,641.989 1419.17,648.346 1429.21,654.906 1439.25,661.702 1449.29,668.762 1459.33,676.112 1469.36,683.775 1479.4,691.769 1489.44,700.106 1499.48,708.797 1509.52,717.846 1519.56,727.256 1529.6,737.022 1539.63,747.139 1549.67,757.598 1559.71,768.385 1569.75,779.483 1579.79,790.876 1589.83,802.542 1599.86,814.458 1609.9,826.601 1619.94,838.944 1629.98,851.462 1640.02,864.126 1650.06,876.91 1660.1,889.786 1670.13,902.725 1680.17,915.7 1690.21,928.685 1700.25,941.652 1710.29,954.577 1720.33,967.435 1730.37,980.203 1740.4,992.858 1750.44,1005.38 1760.48,1017.75 1770.52,1029.95 1780.56,1041.97 1790.6,1053.79 1800.64,1065.39 1810.67,1076.77 1820.71,1087.92 1830.75,1098.82 1840.79,1109.48 1850.83,1119.88 1860.87,1130.03 1870.91,1139.93 1880.94,1149.56 1890.98,1158.94 1901.02,1168.07 1911.06,1176.94 1921.1,1185.58 1931.14,1193.97 1941.18,1202.14 1951.21,1210.08 1961.25,1217.81 1971.29,1225.34 1981.33,1232.68 1991.37,1239.84 2001.41,1246.83 2011.45,1253.68 2021.48,1260.38 2031.52,1266.96 2041.56,1273.42 2051.6,1279.8 2061.64,1286.09 2071.68,1292.32 2081.72,1298.51 2091.75,1304.66 2101.79,1310.8 2111.83,1316.94 2121.87,1323.1 2131.91,1329.29 2141.95,1335.54 2151.98,1341.85 2162.02,1348.24 2172.06,1354.73 2182.1,1361.34 2192.14,1368.08 2202.18,1374.96 2212.22,1382 2222.25,1389.21 2232.29,1396.61 2242.33,1404.22 2252.37,1412.04 2262.41,1420.08 2272.45,1428.37 2282.49,1436.91 2292.52,1445.72 "/>
<polyline clip-path="url(#clip852)" style="stroke:#e26f46; stroke-linecap:round; stroke-linejoin:round; stroke-width:4; stroke-opacity:1; fill:none" points="284.815,119.683 294.854,119.683 304.892,119.683 314.931,119.683 324.969,119.683 335.008,119.683 345.047,119.683 355.085,119.683 365.124,119.683 375.162,119.683 385.201,119.683 395.239,119.683 405.278,119.683 415.316,119.683 425.355,119.683 435.393,119.683 445.432,119.683 455.471,119.683 465.509,119.683 475.548,119.683 485.586,119.683 495.625,119.683 505.663,119.683 515.702,119.683 525.74,119.683 535.779,119.683 545.817,119.683 555.856,119.683 565.895,119.683 575.933,119.683 585.972,119.683 596.01,119.683 606.049,119.683 616.087,119.683 626.126,119.683 636.164,119.683 646.203,119.683 656.241,119.683 666.28,119.683 676.319,119.683 686.357,119.683 696.396,119.683 706.434,119.683 716.473,119.683 726.511,119.683 736.55,119.683 746.588,119.683 756.627,119.683 766.666,119.683 776.704,119.683 786.743,119.683 796.781,119.683 806.82,119.683 816.858,119.683 826.897,119.683 836.935,119.683 846.974,119.683 857.012,119.683 867.051,119.683 877.09,119.683 887.128,119.683 897.167,119.683 907.205,119.683 917.244,119.683 927.282,119.683 937.321,119.683 947.359,119.683 957.398,119.683 967.436,119.683 977.475,119.683 987.514,119.683 997.552,119.683 1007.59,119.683 1017.63,119.683 1027.67,119.683 1037.71,119.683 1047.74,119.683 1057.78,119.683 1067.82,119.683 1077.86,119.683 1087.9,119.683 1097.94,119.683 1107.98,119.683 1118.01,119.683 1128.05,119.683 1138.09,119.683 1148.13,119.683 1158.17,119.683 1168.21,119.683 1178.25,119.683 1188.28,119.683 1198.32,119.683 1208.36,119.683 1218.4,119.683 1228.44,119.683 1238.48,119.683 1248.52,119.683 1258.55,119.683 1268.59,119.683 1278.63,119.683 1288.67,119.683 1298.71,119.683 1308.75,119.683 1318.79,119.683 1328.82,119.683 1338.86,119.683 1348.9,119.683 1358.94,119.683 1368.98,119.683 1379.02,119.683 1389.06,119.683 1399.09,119.683 1409.13,119.683 1419.17,119.683 1429.21,119.683 1439.25,119.683 1449.29,119.683 1459.33,119.683 1469.36,119.683 1479.4,119.683 1489.44,119.683 1499.48,119.683 1509.52,119.683 1519.56,119.683 1529.6,119.683 1539.63,119.683 1549.67,119.683 1559.71,119.683 1569.75,119.683 1579.79,119.683 1589.83,119.683 1599.86,119.683 1609.9,119.683 1619.94,119.683 1629.98,119.683 1640.02,119.683 1650.06,119.683 1660.1,119.683 1670.13,119.683 1680.17,119.683 1690.21,119.683 1700.25,119.683 1710.29,119.683 1720.33,119.683 1730.37,119.683 1740.4,119.683 1750.44,119.683 1760.48,119.683 1770.52,119.683 1780.56,119.683 1790.6,119.683 1800.64,119.683 1810.67,119.683 1820.71,119.683 1830.75,119.683 1840.79,119.683 1850.83,119.683 1860.87,119.683 1870.91,119.683 1880.94,119.683 1890.98,119.683 1901.02,119.683 1911.06,119.683 1921.1,119.683 1931.14,119.683 1941.18,119.683 1951.21,119.683 1961.25,119.683 1971.29,119.683 1981.33,119.683 1991.37,119.683 2001.41,119.683 2011.45,119.683 2021.48,119.683 2031.52,119.683 2041.56,119.683 2051.6,119.683 2061.64,119.683 2071.68,119.683 2081.72,119.683 2091.75,119.683 2101.79,119.683 2111.83,119.683 2121.87,119.683 2131.91,119.683 2141.95,119.683 2151.98,119.683 2162.02,119.683 2172.06,119.683 2182.1,119.683 2192.14,119.683 2202.18,119.683 2212.22,119.683 2222.25,119.683 2232.29,119.683 2242.33,119.683 2252.37,119.683 2262.41,119.683 2272.45,119.683 2282.49,119.683 2292.52,119.683 "/>
<path clip-path="url(#clip850)" d="M295.523 1438.47 L560.771 1438.47 L560.771 1282.95 L295.523 1282.95  Z" fill="#ffffff" fill-rule="evenodd" fill-opacity="1"/>
<polyline clip-path="url(#clip850)" style="stroke:#000000; stroke-linecap:round; stroke-linejoin:round; stroke-width:4; stroke-opacity:1; fill:none" points="295.523,1438.47 560.771,1438.47 560.771,1282.95 295.523,1282.95 295.523,1438.47 "/>
<polyline clip-path="url(#clip850)" style="stroke:#009af9; stroke-linecap:round; stroke-linejoin:round; stroke-width:4; stroke-opacity:1; fill:none" points="319.169,1334.79 461.048,1334.79 "/>
<path clip-path="url(#clip850)" d="M498.536 1354.48 Q496.731 1359.11 495.018 1360.52 Q493.305 1361.94 490.435 1361.94 L487.032 1361.94 L487.032 1358.37 L489.532 1358.37 Q491.291 1358.37 492.263 1357.54 Q493.236 1356.7 494.416 1353.6 L495.18 1351.66 L484.694 1326.15 L489.208 1326.15 L497.31 1346.43 L505.411 1326.15 L509.925 1326.15 L498.536 1354.48 Z" fill="#000000" fill-rule="nonzero" fill-opacity="1" /><path clip-path="url(#clip850)" d="M517.217 1348.14 L524.856 1348.14 L524.856 1321.77 L516.546 1323.44 L516.546 1319.18 L524.809 1317.51 L529.485 1317.51 L529.485 1348.14 L537.124 1348.14 L537.124 1352.07 L517.217 1352.07 L517.217 1348.14 Z" fill="#000000" fill-rule="nonzero" fill-opacity="1" /><polyline clip-path="url(#clip850)" style="stroke:#e26f46; stroke-linecap:round; stroke-linejoin:round; stroke-width:4; stroke-opacity:1; fill:none" points="319.169,1386.63 461.048,1386.63 "/>
<path clip-path="url(#clip850)" d="M498.536 1406.32 Q496.731 1410.95 495.018 1412.36 Q493.305 1413.78 490.435 1413.78 L487.032 1413.78 L487.032 1410.21 L489.532 1410.21 Q491.291 1410.21 492.263 1409.38 Q493.236 1408.54 494.416 1405.44 L495.18 1403.5 L484.694 1377.99 L489.208 1377.99 L497.31 1398.27 L505.411 1377.99 L509.925 1377.99 L498.536 1406.32 Z" fill="#000000" fill-rule="nonzero" fill-opacity="1" /><path clip-path="url(#clip850)" d="M520.434 1399.98 L536.754 1399.98 L536.754 1403.91 L514.809 1403.91 L514.809 1399.98 Q517.471 1397.22 522.055 1392.6 Q526.661 1387.94 527.842 1386.6 Q530.087 1384.08 530.967 1382.34 Q531.87 1380.58 531.87 1378.89 Q531.87 1376.14 529.925 1374.4 Q528.004 1372.66 524.902 1372.66 Q522.703 1372.66 520.249 1373.43 Q517.819 1374.19 515.041 1375.74 L515.041 1371.02 Q517.865 1369.89 520.319 1369.31 Q522.772 1368.73 524.809 1368.73 Q530.18 1368.73 533.374 1371.41 Q536.569 1374.1 536.569 1378.59 Q536.569 1380.72 535.758 1382.64 Q534.971 1384.54 532.865 1387.13 Q532.286 1387.8 529.184 1391.02 Q526.083 1394.22 520.434 1399.98 Z" fill="#000000" fill-rule="nonzero" fill-opacity="1" /></svg>
