<?xml version="1.0" encoding="utf-8"?>
<svg xmlns="http://www.w3.org/2000/svg" xmlns:xlink="http://www.w3.org/1999/xlink" width="600" height="400" viewBox="0 0 2400 1600">
<defs>
  <clipPath id="clip720">
    <rect x="0" y="0" width="2400" height="1600"/>
  </clipPath>
</defs>
<path clip-path="url(#clip720)" d="M0 1600 L2400 1600 L2400 0 L0 0  Z" fill="#ffffff" fill-rule="evenodd" fill-opacity="1"/>
<defs>
  <clipPath id="clip721">
    <rect x="480" y="0" width="1681" height="1600"/>
  </clipPath>
</defs>
<path clip-path="url(#clip720)" d="M170.857 1486.45 L2352.76 1486.45 L2352.76 47.2441 L170.857 47.2441  Z" fill="#ffffff" fill-rule="evenodd" fill-opacity="1"/>
<defs>
  <clipPath id="clip722">
    <rect x="170" y="47" width="2183" height="1440"/>
  </clipPath>
</defs>
<polyline clip-path="url(#clip722)" style="stroke:#000000; stroke-linecap:round; stroke-linejoin:round; stroke-width:2; stroke-opacity:0.1; fill:none" points="326.173,1486.45 326.173,47.2441 "/>
<polyline clip-path="url(#clip722)" style="stroke:#000000; stroke-linecap:round; stroke-linejoin:round; stroke-width:2; stroke-opacity:0.1; fill:none" points="793.99,1486.45 793.99,47.2441 "/>
<polyline clip-path="url(#clip722)" style="stroke:#000000; stroke-linecap:round; stroke-linejoin:round; stroke-width:2; stroke-opacity:0.1; fill:none" points="1261.81,1486.45 1261.81,47.2441 "/>
<polyline clip-path="url(#clip722)" style="stroke:#000000; stroke-linecap:round; stroke-linejoin:round; stroke-width:2; stroke-opacity:0.1; fill:none" points="1729.62,1486.45 1729.62,47.2441 "/>
<polyline clip-path="url(#clip722)" style="stroke:#000000; stroke-linecap:round; stroke-linejoin:round; stroke-width:2; stroke-opacity:0.1; fill:none" points="2197.44,1486.45 2197.44,47.2441 "/>
<polyline clip-path="url(#clip720)" style="stroke:#000000; stroke-linecap:round; stroke-linejoin:round; stroke-width:4; stroke-opacity:1; fill:none" points="170.857,1486.45 2352.76,1486.45 "/>
<polyline clip-path="url(#clip720)" style="stroke:#000000; stroke-linecap:round; stroke-linejoin:round; stroke-width:4; stroke-opacity:1; fill:none" points="326.173,1486.45 326.173,1467.55 "/>
<polyline clip-path="url(#clip720)" style="stroke:#000000; stroke-linecap:round; stroke-linejoin:round; stroke-width:4; stroke-opacity:1; fill:none" points="793.99,1486.45 793.99,1467.55 "/>
<polyline clip-path="url(#clip720)" style="stroke:#000000; stroke-linecap:round; stroke-linejoin:round; stroke-width:4; stroke-opacity:1; fill:none" points="1261.81,1486.45 1261.81,1467.55 "/>
<polyline clip-path="url(#clip720)" style="stroke:#000000; stroke-linecap:round; stroke-linejoin:round; stroke-width:4; stroke-opacity:1; fill:none" points="1729.62,1486.45 1729.62,1467.55 "/>
<polyline clip-path="url(#clip720)" style="stroke:#000000; stroke-linecap:round; stroke-linejoin:round; stroke-width:4; stroke-opacity:1; fill:none" points="2197.44,1486.45 2197.44,1467.55 "/>
<path clip-path="url(#clip720)" d="M296.115 1532.02 L325.791 1532.02 L325.791 1535.95 L296.115 1535.95 L296.115 1532.02 Z" fill="#000000" fill-rule="nonzero" fill-opacity="1" /><path clip-path="url(#clip720)" d="M339.911 1544.91 L356.23 1544.91 L356.23 1548.85 L334.286 1548.85 L334.286 1544.91 Q336.948 1542.16 341.531 1537.53 Q346.138 1532.88 347.318 1531.53 Q349.564 1529.01 350.443 1527.27 Q351.346 1525.51 351.346 1523.82 Q351.346 1521.07 349.402 1519.33 Q347.48 1517.6 344.379 1517.6 Q342.18 1517.6 339.726 1518.36 Q337.295 1519.13 334.518 1520.68 L334.518 1515.95 Q337.342 1514.82 339.795 1514.24 Q342.249 1513.66 344.286 1513.66 Q349.656 1513.66 352.851 1516.35 Q356.045 1519.03 356.045 1523.52 Q356.045 1525.65 355.235 1527.57 Q354.448 1529.47 352.342 1532.07 Q351.763 1532.74 348.661 1535.95 Q345.559 1539.15 339.911 1544.91 Z" fill="#000000" fill-rule="nonzero" fill-opacity="1" /><path clip-path="url(#clip720)" d="M763.747 1532.02 L793.423 1532.02 L793.423 1535.95 L763.747 1535.95 L763.747 1532.02 Z" fill="#000000" fill-rule="nonzero" fill-opacity="1" /><path clip-path="url(#clip720)" d="M804.325 1544.91 L811.964 1544.91 L811.964 1518.55 L803.654 1520.21 L803.654 1515.95 L811.918 1514.29 L816.594 1514.29 L816.594 1544.91 L824.233 1544.91 L824.233 1548.85 L804.325 1548.85 L804.325 1544.91 Z" fill="#000000" fill-rule="nonzero" fill-opacity="1" /><path clip-path="url(#clip720)" d="M1261.81 1517.37 Q1258.2 1517.37 1256.37 1520.93 Q1254.56 1524.47 1254.56 1531.6 Q1254.56 1538.71 1256.37 1542.27 Q1258.2 1545.82 1261.81 1545.82 Q1265.44 1545.82 1267.25 1542.27 Q1269.08 1538.71 1269.08 1531.6 Q1269.08 1524.47 1267.25 1520.93 Q1265.44 1517.37 1261.81 1517.37 M1261.81 1513.66 Q1267.62 1513.66 1270.67 1518.27 Q1273.75 1522.85 1273.75 1531.6 Q1273.75 1540.33 1270.67 1544.94 Q1267.62 1549.52 1261.81 1549.52 Q1256 1549.52 1252.92 1544.94 Q1249.86 1540.33 1249.86 1531.6 Q1249.86 1522.85 1252.92 1518.27 Q1256 1513.66 1261.81 1513.66 Z" fill="#000000" fill-rule="nonzero" fill-opacity="1" /><path clip-path="url(#clip720)" d="M1720.01 1544.91 L1727.64 1544.91 L1727.64 1518.55 L1719.33 1520.21 L1719.33 1515.95 L1727.6 1514.29 L1732.27 1514.29 L1732.27 1544.91 L1739.91 1544.91 L1739.91 1548.85 L1720.01 1548.85 L1720.01 1544.91 Z" fill="#000000" fill-rule="nonzero" fill-opacity="1" /><path clip-path="url(#clip720)" d="M2192.09 1544.91 L2208.41 1544.91 L2208.41 1548.85 L2186.47 1548.85 L2186.47 1544.91 Q2189.13 1542.16 2193.71 1537.53 Q2198.32 1532.88 2199.5 1531.53 Q2201.75 1529.01 2202.63 1527.27 Q2203.53 1525.51 2203.53 1523.82 Q2203.53 1521.07 2201.58 1519.33 Q2199.66 1517.6 2196.56 1517.6 Q2194.36 1517.6 2191.91 1518.36 Q2189.48 1519.13 2186.7 1520.68 L2186.7 1515.95 Q2189.52 1514.82 2191.98 1514.24 Q2194.43 1513.66 2196.47 1513.66 Q2201.84 1513.66 2205.03 1516.35 Q2208.23 1519.03 2208.23 1523.52 Q2208.23 1525.65 2207.42 1527.57 Q2206.63 1529.47 2204.52 1532.07 Q2203.95 1532.74 2200.84 1535.95 Q2197.74 1539.15 2192.09 1544.91 Z" fill="#000000" fill-rule="nonzero" fill-opacity="1" /><polyline clip-path="url(#clip722)" style="stroke:#000000; stroke-linecap:round; stroke-linejoin:round; stroke-width:2; stroke-opacity:0.1; fill:none" points="170.857,1445.68 2352.76,1445.68 "/>
<polyline clip-path="url(#clip722)" style="stroke:#000000; stroke-linecap:round; stroke-linejoin:round; stroke-width:2; stroke-opacity:0.1; fill:none" points="170.857,1114.39 2352.76,1114.39 "/>
<polyline clip-path="url(#clip722)" style="stroke:#000000; stroke-linecap:round; stroke-linejoin:round; stroke-width:2; stroke-opacity:0.1; fill:none" points="170.857,783.088 2352.76,783.088 "/>
<polyline clip-path="url(#clip722)" style="stroke:#000000; stroke-linecap:round; stroke-linejoin:round; stroke-width:2; stroke-opacity:0.1; fill:none" points="170.857,451.79 2352.76,451.79 "/>
<polyline clip-path="url(#clip722)" style="stroke:#000000; stroke-linecap:round; stroke-linejoin:round; stroke-width:2; stroke-opacity:0.1; fill:none" points="170.857,120.492 2352.76,120.492 "/>
<polyline clip-path="url(#clip720)" style="stroke:#000000; stroke-linecap:round; stroke-linejoin:round; stroke-width:4; stroke-opacity:1; fill:none" points="170.857,1486.45 170.857,47.2441 "/>
<polyline clip-path="url(#clip720)" style="stroke:#000000; stroke-linecap:round; stroke-linejoin:round; stroke-width:4; stroke-opacity:1; fill:none" points="170.857,1445.68 189.755,1445.68 "/>
<polyline clip-path="url(#clip720)" style="stroke:#000000; stroke-linecap:round; stroke-linejoin:round; stroke-width:4; stroke-opacity:1; fill:none" points="170.857,1114.39 189.755,1114.39 "/>
<polyline clip-path="url(#clip720)" style="stroke:#000000; stroke-linecap:round; stroke-linejoin:round; stroke-width:4; stroke-opacity:1; fill:none" points="170.857,783.088 189.755,783.088 "/>
<polyline clip-path="url(#clip720)" style="stroke:#000000; stroke-linecap:round; stroke-linejoin:round; stroke-width:4; stroke-opacity:1; fill:none" points="170.857,451.79 189.755,451.79 "/>
<polyline clip-path="url(#clip720)" style="stroke:#000000; stroke-linecap:round; stroke-linejoin:round; stroke-width:4; stroke-opacity:1; fill:none" points="170.857,120.492 189.755,120.492 "/>
<path clip-path="url(#clip720)" d="M122.913 1431.48 Q119.302 1431.48 117.473 1435.05 Q115.668 1438.59 115.668 1445.72 Q115.668 1452.82 117.473 1456.39 Q119.302 1459.93 122.913 1459.93 Q126.547 1459.93 128.353 1456.39 Q130.182 1452.82 130.182 1445.72 Q130.182 1438.59 128.353 1435.05 Q126.547 1431.48 122.913 1431.48 M122.913 1427.78 Q128.723 1427.78 131.779 1432.38 Q134.857 1436.97 134.857 1445.72 Q134.857 1454.45 131.779 1459.05 Q128.723 1463.63 122.913 1463.63 Q117.103 1463.63 114.024 1459.05 Q110.969 1454.45 110.969 1445.72 Q110.969 1436.97 114.024 1432.38 Q117.103 1427.78 122.913 1427.78 Z" fill="#000000" fill-rule="nonzero" fill-opacity="1" /><path clip-path="url(#clip720)" d="M82.7975 1097.11 L101.154 1097.11 L101.154 1101.04 L87.0799 1101.04 L87.0799 1109.51 Q88.0984 1109.17 89.1169 1109 Q90.1354 1108.82 91.1539 1108.82 Q96.941 1108.82 100.321 1111.99 Q103.7 1115.16 103.7 1120.58 Q103.7 1126.16 100.228 1129.26 Q96.7558 1132.34 90.4364 1132.34 Q88.2604 1132.34 85.9919 1131.97 Q83.7466 1131.6 81.3392 1130.86 L81.3392 1126.16 Q83.4225 1127.29 85.6447 1127.85 Q87.8669 1128.4 90.3438 1128.4 Q94.3484 1128.4 96.6863 1126.3 Q99.0243 1124.19 99.0243 1120.58 Q99.0243 1116.97 96.6863 1114.86 Q94.3484 1112.75 90.3438 1112.75 Q88.4688 1112.75 86.5938 1113.17 Q84.7419 1113.59 82.7975 1114.47 L82.7975 1097.11 Z" fill="#000000" fill-rule="nonzero" fill-opacity="1" /><path clip-path="url(#clip720)" d="M122.913 1100.18 Q119.302 1100.18 117.473 1103.75 Q115.668 1107.29 115.668 1114.42 Q115.668 1121.53 117.473 1125.09 Q119.302 1128.63 122.913 1128.63 Q126.547 1128.63 128.353 1125.09 Q130.182 1121.53 130.182 1114.42 Q130.182 1107.29 128.353 1103.75 Q126.547 1100.18 122.913 1100.18 M122.913 1096.48 Q128.723 1096.48 131.779 1101.09 Q134.857 1105.67 134.857 1114.42 Q134.857 1123.15 131.779 1127.75 Q128.723 1132.34 122.913 1132.34 Q117.103 1132.34 114.024 1127.75 Q110.969 1123.15 110.969 1114.42 Q110.969 1105.67 114.024 1101.09 Q117.103 1096.48 122.913 1096.48 Z" fill="#000000" fill-rule="nonzero" fill-opacity="1" /><path clip-path="url(#clip720)" d="M53.3995 796.433 L61.0384 796.433 L61.0384 770.067 L52.7282 771.734 L52.7282 767.475 L60.9921 765.808 L65.668 765.808 L65.668 796.433 L73.3068 796.433 L73.3068 800.368 L53.3995 800.368 L53.3995 796.433 Z" fill="#000000" fill-rule="nonzero" fill-opacity="1" /><path clip-path="url(#clip720)" d="M92.7512 768.887 Q89.1401 768.887 87.3114 772.451 Q85.5058 775.993 85.5058 783.123 Q85.5058 790.229 87.3114 793.794 Q89.1401 797.336 92.7512 797.336 Q96.3854 797.336 98.1909 793.794 Q100.02 790.229 100.02 783.123 Q100.02 775.993 98.1909 772.451 Q96.3854 768.887 92.7512 768.887 M92.7512 765.183 Q98.5613 765.183 101.617 769.789 Q104.696 774.373 104.696 783.123 Q104.696 791.849 101.617 796.456 Q98.5613 801.039 92.7512 801.039 Q86.941 801.039 83.8623 796.456 Q80.8068 791.849 80.8068 783.123 Q80.8068 774.373 83.8623 769.789 Q86.941 765.183 92.7512 765.183 Z" fill="#000000" fill-rule="nonzero" fill-opacity="1" /><path clip-path="url(#clip720)" d="M122.913 768.887 Q119.302 768.887 117.473 772.451 Q115.668 775.993 115.668 783.123 Q115.668 790.229 117.473 793.794 Q119.302 797.336 122.913 797.336 Q126.547 797.336 128.353 793.794 Q130.182 790.229 130.182 783.123 Q130.182 775.993 128.353 772.451 Q126.547 768.887 122.913 768.887 M122.913 765.183 Q128.723 765.183 131.779 769.789 Q134.857 774.373 134.857 783.123 Q134.857 791.849 131.779 796.456 Q128.723 801.039 122.913 801.039 Q117.103 801.039 114.024 796.456 Q110.969 791.849 110.969 783.123 Q110.969 774.373 114.024 769.789 Q117.103 765.183 122.913 765.183 Z" fill="#000000" fill-rule="nonzero" fill-opacity="1" /><path clip-path="url(#clip720)" d="M53.3995 465.135 L61.0384 465.135 L61.0384 438.769 L52.7282 440.436 L52.7282 436.177 L60.9921 434.51 L65.668 434.51 L65.668 465.135 L73.3068 465.135 L73.3068 469.07 L53.3995 469.07 L53.3995 465.135 Z" fill="#000000" fill-rule="nonzero" fill-opacity="1" /><path clip-path="url(#clip720)" d="M82.7975 434.51 L101.154 434.51 L101.154 438.445 L87.0799 438.445 L87.0799 446.917 Q88.0984 446.57 89.1169 446.408 Q90.1354 446.223 91.1539 446.223 Q96.941 446.223 100.321 449.394 Q103.7 452.566 103.7 457.982 Q103.7 463.561 100.228 466.663 Q96.7558 469.741 90.4364 469.741 Q88.2604 469.741 85.9919 469.371 Q83.7466 469.001 81.3392 468.26 L81.3392 463.561 Q83.4225 464.695 85.6447 465.251 Q87.8669 465.806 90.3438 465.806 Q94.3484 465.806 96.6863 463.7 Q99.0243 461.593 99.0243 457.982 Q99.0243 454.371 96.6863 452.265 Q94.3484 450.158 90.3438 450.158 Q88.4688 450.158 86.5938 450.575 Q84.7419 450.992 82.7975 451.871 L82.7975 434.51 Z" fill="#000000" fill-rule="nonzero" fill-opacity="1" /><path clip-path="url(#clip720)" d="M122.913 437.589 Q119.302 437.589 117.473 441.154 Q115.668 444.695 115.668 451.825 Q115.668 458.931 117.473 462.496 Q119.302 466.038 122.913 466.038 Q126.547 466.038 128.353 462.496 Q130.182 458.931 130.182 451.825 Q130.182 444.695 128.353 441.154 Q126.547 437.589 122.913 437.589 M122.913 433.885 Q128.723 433.885 131.779 438.492 Q134.857 443.075 134.857 451.825 Q134.857 460.552 131.779 465.158 Q128.723 469.741 122.913 469.741 Q117.103 469.741 114.024 465.158 Q110.969 460.552 110.969 451.825 Q110.969 443.075 114.024 438.492 Q117.103 433.885 122.913 433.885 Z" fill="#000000" fill-rule="nonzero" fill-opacity="1" /><path clip-path="url(#clip720)" d="M56.6171 133.837 L72.9365 133.837 L72.9365 137.772 L50.9921 137.772 L50.9921 133.837 Q53.6541 131.083 58.2375 126.453 Q62.8439 121.8 64.0245 120.458 Q66.2698 117.935 67.1494 116.198 Q68.0522 114.439 68.0522 112.749 Q68.0522 109.995 66.1078 108.259 Q64.1865 106.523 61.0847 106.523 Q58.8856 106.523 56.4319 107.286 Q54.0014 108.05 51.2236 109.601 L51.2236 104.879 Q54.0477 103.745 56.5014 103.166 Q58.955 102.587 60.9921 102.587 Q66.3624 102.587 69.5568 105.273 Q72.7513 107.958 72.7513 112.448 Q72.7513 114.578 71.9411 116.499 Q71.1541 118.397 69.0476 120.99 Q68.4689 121.661 65.367 124.879 Q62.2652 128.073 56.6171 133.837 Z" fill="#000000" fill-rule="nonzero" fill-opacity="1" /><path clip-path="url(#clip720)" d="M92.7512 106.291 Q89.1401 106.291 87.3114 109.856 Q85.5058 113.397 85.5058 120.527 Q85.5058 127.634 87.3114 131.198 Q89.1401 134.74 92.7512 134.74 Q96.3854 134.74 98.1909 131.198 Q100.02 127.634 100.02 120.527 Q100.02 113.397 98.1909 109.856 Q96.3854 106.291 92.7512 106.291 M92.7512 102.587 Q98.5613 102.587 101.617 107.194 Q104.696 111.777 104.696 120.527 Q104.696 129.254 101.617 133.86 Q98.5613 138.444 92.7512 138.444 Q86.941 138.444 83.8623 133.86 Q80.8068 129.254 80.8068 120.527 Q80.8068 111.777 83.8623 107.194 Q86.941 102.587 92.7512 102.587 Z" fill="#000000" fill-rule="nonzero" fill-opacity="1" /><path clip-path="url(#clip720)" d="M122.913 106.291 Q119.302 106.291 117.473 109.856 Q115.668 113.397 115.668 120.527 Q115.668 127.634 117.473 131.198 Q119.302 134.74 122.913 134.74 Q126.547 134.74 128.353 131.198 Q130.182 127.634 130.182 120.527 Q130.182 113.397 128.353 109.856 Q126.547 106.291 122.913 106.291 M122.913 102.587 Q128.723 102.587 131.779 107.194 Q134.857 111.777 134.857 120.527 Q134.857 129.254 131.779 133.86 Q128.723 138.444 122.913 138.444 Q117.103 138.444 114.024 133.86 Q110.969 129.254 110.969 120.527 Q110.969 111.777 114.024 107.194 Q117.103 102.587 122.913 102.587 Z" fill="#000000" fill-rule="nonzero" fill-opacity="1" /><polyline clip-path="url(#clip722)" style="stroke:#009af9; stroke-linecap:round; stroke-linejoin:round; stroke-width:4; stroke-opacity:1; fill:none" points="232.609,1445.68 237.287,1445.68 241.966,1445.68 246.644,1445.68 251.322,1445.68 256,1445.68 260.678,1445.68 265.356,1445.68 270.035,1445.68 274.713,1445.68 279.391,1445.68 284.069,1445.68 288.747,1445.68 293.425,1445.68 298.104,1445.68 302.782,1445.68 307.46,1445.68 312.138,1445.68 316.816,1445.68 321.494,1445.67 326.173,1445.67 330.851,1445.67 335.529,1445.66 340.207,1445.65 344.885,1445.65 349.564,1445.64 354.242,1445.62 358.92,1445.61 363.598,1445.58 368.276,1445.56 372.954,1445.53 377.633,1445.49 382.311,1445.44 386.989,1445.38 391.667,1445.3 396.345,1445.21 401.023,1445.1 405.702,1444.97 410.38,1444.82 415.058,1444.63 419.736,1444.41 424.414,1444.14 429.092,1443.83 433.771,1443.46 438.449,1443.03 443.127,1442.53 447.805,1441.94 452.483,1441.26 457.161,1440.47 461.84,1439.56 466.518,1438.52 471.196,1437.33 475.874,1435.97 480.552,1434.42 485.23,1432.66 489.909,1430.68 494.587,1428.45 499.265,1425.95 503.943,1423.15 508.621,1420.03 513.299,1416.56 517.978,1412.72 522.656,1408.47 527.334,1403.79 532.012,1398.65 536.69,1393.01 541.368,1386.86 546.047,1380.17 550.725,1372.89 555.403,1365.02 560.081,1356.51 564.759,1347.36 569.438,1337.52 574.116,1326.98 578.794,1315.72 583.472,1303.73 588.15,1290.98 592.828,1277.46 597.507,1263.17 602.185,1248.09 606.863,1232.23 611.541,1215.58 616.219,1198.14 620.897,1179.93 625.576,1160.96 630.254,1141.23 634.932,1120.77 639.61,1099.59 644.288,1077.73 648.966,1055.21 653.645,1032.07 658.323,1008.34 663.001,984.058 667.679,959.268 672.357,934.016 677.035,908.348 681.714,882.314 686.392,855.967 691.07,829.358 695.748,802.545 700.426,775.582 705.104,748.527 709.783,721.437 714.461,694.371 719.139,667.385 723.817,640.538 728.495,613.886 733.173,587.485 737.852,561.389 742.53,535.653 747.208,510.326 751.886,485.459 756.564,461.099 761.242,437.291 765.921,414.078 770.599,391.499 775.277,369.592 779.955,348.392 784.633,327.929 789.311,308.233 793.99,289.327 798.668,271.236 803.346,253.978 808.024,237.569 812.702,222.022 817.381,207.349 822.059,193.555 826.737,180.646 831.415,168.623 836.093,157.486 840.771,147.23 845.45,137.851 850.128,129.339 854.806,121.685 859.484,114.876 864.162,108.898 868.84,103.735 873.519,99.3694 878.197,95.7815 882.875,92.9511 887.553,90.8565 892.231,89.475 896.909,88.7828 901.588,88.7555 906.266,89.3678 910.944,90.594 915.622,92.4079 920.3,94.7831 924.978,97.6927 929.657,101.11 934.335,105.008 939.013,109.36 943.691,114.138 948.369,119.318 953.047,124.872 957.726,130.774 962.404,137 967.082,143.524 971.76,150.321 976.438,157.368 981.116,164.642 985.795,172.118 990.473,179.777 995.151,187.595 999.829,195.552 1004.51,203.628 1009.19,211.804 1013.86,220.061 1018.54,228.381 1023.22,236.746 1027.9,245.141 1032.58,253.549 1037.25,261.955 1041.93,270.344 1046.61,278.704 1051.29,287.02 1055.97,295.28 1060.65,303.473 1065.32,311.586 1070,319.611 1074.68,327.535 1079.36,335.351 1084.04,343.049 1088.71,350.62 1093.39,358.057 1098.07,365.352 1102.75,372.499 1107.43,379.49 1112.11,386.32 1116.78,392.983 1121.46,399.474 1126.14,405.787 1130.82,411.919 1135.5,417.864 1140.17,423.62 1144.85,429.181 1149.53,434.546 1154.21,439.71 1158.89,444.672 1163.57,449.428 1168.24,453.975 1172.92,458.313 1177.6,462.438 1182.28,466.348 1186.96,470.043 1191.63,473.521 1196.31,476.78 1200.99,479.819 1205.67,482.637 1210.35,485.233 1215.02,487.606 1219.7,489.755 1224.38,491.679 1229.06,493.379 1233.74,494.853 1238.42,496.101 1243.09,497.122 1247.77,497.917 1252.45,498.485 1257.13,498.826 1261.81,498.939 1266.48,498.826 1271.16,498.485 1275.84,497.917 1280.52,497.122 1285.2,496.101 1289.88,494.853 1294.55,493.379 1299.23,491.679 1303.91,489.755 1308.59,487.606 1313.27,485.233 1317.94,482.637 1322.62,479.819 1327.3,476.78 1331.98,473.521 1336.66,470.043 1341.34,466.348 1346.01,462.438 1350.69,458.313 1355.37,453.975 1360.05,449.428 1364.73,444.672 1369.4,439.71 1374.08,434.546 1378.76,429.181 1383.44,423.62 1388.12,417.864 1392.8,411.919 1397.47,405.787 1402.15,399.474 1406.83,392.983 1411.51,386.32 1416.19,379.49 1420.86,372.499 1425.54,365.352 1430.22,358.057 1434.9,350.62 1439.58,343.049 1444.26,335.351 1448.93,327.535 1453.61,319.611 1458.29,311.586 1462.97,303.473 1467.65,295.28 1472.32,287.02 1477,278.704 1481.68,270.344 1486.36,261.955 1491.04,253.549 1495.72,245.141 1500.39,236.746 1505.07,228.381 1509.75,220.061 1514.43,211.804 1519.11,203.628 1523.78,195.552 1528.46,187.595 1533.14,179.777 1537.82,172.118 1542.5,164.642 1547.18,157.368 1551.85,150.321 1556.53,143.524 1561.21,137 1565.89,130.774 1570.57,124.872 1575.24,119.318 1579.92,114.138 1584.6,109.36 1589.28,105.008 1593.96,101.11 1598.63,97.6927 1603.31,94.7831 1607.99,92.4079 1612.67,90.594 1617.35,89.3678 1622.03,88.7555 1626.7,88.7828 1631.38,89.475 1636.06,90.8565 1640.74,92.9511 1645.42,95.7815 1650.09,99.3694 1654.77,103.735 1659.45,108.898 1664.13,114.876 1668.81,121.685 1673.49,129.339 1678.16,137.851 1682.84,147.23 1687.52,157.486 1692.2,168.623 1696.88,180.646 1701.55,193.555 1706.23,207.349 1710.91,222.022 1715.59,237.569 1720.27,253.978 1724.95,271.236 1729.62,289.327 1734.3,308.233 1738.98,327.929 1743.66,348.392 1748.34,369.592 1753.01,391.499 1757.69,414.078 1762.37,437.291 1767.05,461.099 1771.73,485.459 1776.41,510.326 1781.08,535.653 1785.76,561.389 1790.44,587.485 1795.12,613.886 1799.8,640.538 1804.47,667.385 1809.15,694.371 1813.83,721.437 1818.51,748.527 1823.19,775.582 1827.87,802.545 1832.54,829.358 1837.22,855.967 1841.9,882.314 1846.58,908.348 1851.26,934.016 1855.93,959.268 1860.61,984.058 1865.29,1008.34 1869.97,1032.07 1874.65,1055.21 1879.33,1077.73 1884,1099.59 1888.68,1120.77 1893.36,1141.23 1898.04,1160.96 1902.72,1179.93 1907.39,1198.14 1912.07,1215.58 1916.75,1232.23 1921.43,1248.09 1926.11,1263.17 1930.78,1277.46 1935.46,1290.98 1940.14,1303.73 1944.82,1315.72 1949.5,1326.98 1954.18,1337.52 1958.85,1347.36 1963.53,1356.51 1968.21,1365.02 1972.89,1372.89 1977.57,1380.17 1982.24,1386.86 1986.92,1393.01 1991.6,1398.65 1996.28,1403.79 2000.96,1408.47 2005.64,1412.72 2010.31,1416.56 2014.99,1420.03 2019.67,1423.15 2024.35,1425.95 2029.03,1428.45 2033.7,1430.68 2038.38,1432.66 2043.06,1434.42 2047.74,1435.97 2052.42,1437.33 2057.1,1438.52 2061.77,1439.56 2066.45,1440.47 2071.13,1441.26 2075.81,1441.94 2080.49,1442.53 2085.16,1443.03 2089.84,1443.46 2094.52,1443.83 2099.2,1444.14 2103.88,1444.41 2108.56,1444.63 2113.23,1444.82 2117.91,1444.97 2122.59,1445.1 2127.27,1445.21 2131.95,1445.3 2136.62,1445.38 2141.3,1445.44 2145.98,1445.49 2150.66,1445.53 2155.34,1445.56 2160.02,1445.58 2164.69,1445.61 2169.37,1445.62 2174.05,1445.64 2178.73,1445.65 2183.41,1445.65 2188.08,1445.66 2192.76,1445.67 2197.44,1445.67 2202.12,1445.67 2206.8,1445.68 2211.48,1445.68 2216.15,1445.68 2220.83,1445.68 2225.51,1445.68 2230.19,1445.68 2234.87,1445.68 2239.54,1445.68 2244.22,1445.68 2248.9,1445.68 2253.58,1445.68 2258.26,1445.68 2262.94,1445.68 2267.61,1445.68 2272.29,1445.68 2276.97,1445.68 2281.65,1445.68 2286.33,1445.68 2291,1445.68 "/>
<polyline clip-path="url(#clip722)" style="stroke:#e26f46; stroke-linecap:round; stroke-linejoin:round; stroke-width:4; stroke-opacity:1; fill:none" points="232.609,1445.67 237.287,1445.67 241.966,1445.67 246.644,1445.67 251.322,1445.67 256,1445.67 260.678,1445.67 265.356,1445.67 270.035,1445.67 274.713,1445.67 279.391,1445.67 284.069,1445.67 288.747,1445.67 293.425,1445.67 298.104,1445.67 302.782,1445.66 307.46,1445.66 312.138,1445.66 316.816,1445.66 321.494,1445.66 326.173,1445.65 330.851,1445.65 335.529,1445.64 340.207,1445.64 344.885,1445.63 349.564,1445.62 354.242,1445.6 358.92,1445.59 363.598,1445.57 368.276,1445.54 372.954,1445.51 377.633,1445.46 382.311,1445.41 386.989,1445.35 391.667,1445.28 396.345,1445.19 401.023,1445.08 405.702,1444.95 410.38,1444.79 415.058,1444.6 419.736,1444.38 424.414,1444.12 429.092,1443.8 433.771,1443.43 438.449,1443 443.127,1442.49 447.805,1441.9 452.483,1441.22 457.161,1440.43 461.84,1439.52 466.518,1438.48 471.196,1437.28 475.874,1435.92 480.552,1434.36 485.23,1432.61 489.909,1430.62 494.587,1428.39 499.265,1425.89 503.943,1423.08 508.621,1419.96 513.299,1416.49 517.978,1412.64 522.656,1408.38 527.334,1403.7 532.012,1398.55 536.69,1392.92 541.368,1386.76 546.047,1380.06 550.725,1372.78 555.403,1364.9 560.081,1356.38 564.759,1347.22 569.438,1337.37 574.116,1326.82 578.794,1315.55 583.472,1303.55 588.15,1290.78 592.828,1277.26 597.507,1262.95 602.185,1247.86 606.863,1231.99 611.541,1215.33 616.219,1197.88 620.897,1179.66 625.576,1160.67 630.254,1140.93 634.932,1120.45 639.61,1099.27 644.288,1077.39 648.966,1054.86 653.645,1031.7 658.323,1007.95 663.001,983.65 667.679,958.844 672.357,933.574 677.035,907.889 681.714,881.838 686.392,855.474 691.07,828.849 695.748,802.02 700.426,775.042 705.104,747.972 709.783,720.867 714.461,693.786 719.139,666.785 723.817,639.922 728.495,613.254 733.173,586.837 737.852,560.726 742.53,534.974 747.208,509.633 751.886,484.752 756.564,460.38 761.242,436.561 765.921,413.338 770.599,390.75 775.277,368.835 779.955,347.625 784.633,327.154 789.311,307.448 793.99,288.535 798.668,270.435 803.346,253.17 808.024,236.754 812.702,221.203 817.381,206.526 822.059,192.729 826.737,179.819 831.415,167.795 836.093,156.658 840.771,146.403 845.45,137.024 850.128,128.513 854.806,120.86 859.484,114.053 864.162,108.077 868.84,102.917 873.519,98.5548 878.197,94.9713 882.875,92.1461 887.553,90.0573 892.231,88.6821 896.909,87.9966 901.588,87.9763 906.266,88.5958 910.944,89.8293 915.622,91.6508 920.3,94.0336 924.978,96.9511 929.657,100.376 934.335,104.283 939.013,108.644 943.691,113.432 948.369,118.621 953.047,124.185 957.726,130.099 962.404,136.336 967.082,142.871 971.76,149.68 976.438,156.738 981.116,164.024 985.795,171.512 990.473,179.182 995.151,187.012 999.829,194.98 1004.51,203.067 1009.19,211.254 1013.86,219.521 1018.54,227.852 1023.22,236.227 1027.9,244.632 1032.58,253.05 1037.25,261.466 1041.93,269.866 1046.61,278.236 1051.29,286.563 1055.97,294.834 1060.65,303.038 1065.32,311.163 1070,319.199 1074.68,327.135 1079.36,334.963 1084.04,342.672 1088.71,350.256 1093.39,357.704 1098.07,365.011 1102.75,372.169 1107.43,379.172 1112.11,386.012 1116.78,392.685 1121.46,399.186 1126.14,405.508 1130.82,411.649 1135.5,417.603 1140.17,423.366 1144.85,428.935 1149.53,434.307 1154.21,439.478 1158.89,444.446 1163.57,449.208 1168.24,453.761 1172.92,458.105 1177.6,462.236 1182.28,466.153 1186.96,469.855 1191.63,473.339 1196.31,476.606 1200.99,479.652 1205.67,482.478 1210.35,485.083 1215.02,487.465 1219.7,489.624 1224.38,491.559 1229.06,493.27 1233.74,494.755 1238.42,496.015 1243.09,497.05 1247.77,497.857 1252.45,498.439 1257.13,498.793 1261.81,498.92 1266.48,498.82 1271.16,498.493 1275.84,497.939 1280.52,497.157 1285.2,496.149 1289.88,494.913 1294.55,493.451 1299.23,491.763 1303.91,489.849 1308.59,487.71 1313.27,485.347 1317.94,482.76 1322.62,479.95 1327.3,476.918 1331.98,473.666 1336.66,470.194 1341.34,466.505 1346.01,462.6 1350.69,458.48 1355.37,454.148 1360.05,449.606 1364.73,444.855 1369.4,439.9 1374.08,434.741 1378.76,429.383 1383.44,423.829 1388.12,418.081 1392.8,412.145 1397.47,406.022 1402.15,399.719 1406.83,393.239 1411.51,386.588 1416.19,379.77 1420.86,372.792 1425.54,365.658 1430.22,358.377 1434.9,350.953 1439.58,343.396 1444.26,335.712 1448.93,327.91 1453.61,319.998 1458.29,311.987 1462.97,303.886 1467.65,295.705 1472.32,287.457 1477,279.152 1481.68,270.803 1486.36,262.425 1491.04,254.03 1495.72,245.632 1500.39,237.249 1505.07,228.894 1509.75,220.585 1514.43,212.34 1519.11,204.176 1523.78,196.112 1528.46,188.168 1533.14,180.362 1537.82,172.717 1542.5,165.254 1547.18,157.994 1551.85,150.96 1556.53,144.175 1561.21,137.664 1565.89,131.45 1570.57,125.559 1575.24,120.016 1579.92,114.847 1584.6,110.078 1589.28,105.736 1593.96,101.847 1598.63,98.4393 1603.31,95.5386 1607.99,93.1724 1612.67,91.3674 1617.35,90.1502 1622.03,89.5469 1626.7,89.5832 1631.38,90.2842 1636.06,91.6741 1640.74,93.7765 1645.42,96.614 1650.09,100.208 1654.77,104.579 1659.45,109.747 1664.13,115.728 1668.81,122.539 1673.49,130.195 1678.16,138.708 1682.84,148.089 1687.52,158.345 1692.2,169.483 1696.88,181.506 1701.55,194.415 1706.23,208.208 1710.91,222.88 1715.59,238.424 1720.27,254.829 1724.95,272.083 1729.62,290.168 1734.3,309.066 1738.98,328.755 1743.66,349.21 1748.34,370.402 1753.01,392.299 1757.69,414.868 1762.37,438.071 1767.05,461.868 1771.73,486.216 1776.41,511.07 1781.08,536.383 1785.76,562.105 1790.44,588.185 1795.12,614.571 1799.8,641.206 1804.47,668.037 1809.15,695.006 1813.83,722.056 1818.51,749.129 1823.19,776.167 1827.87,803.112 1832.54,829.908 1837.22,856.498 1841.9,882.828 1846.58,908.844 1851.26,934.495 1855.93,959.73 1860.61,984.503 1865.29,1008.77 1869.97,1032.49 1874.65,1055.61 1879.33,1078.12 1884,1099.96 1888.68,1121.12 1893.36,1141.57 1898.04,1161.28 1902.72,1180.24 1907.39,1198.44 1912.07,1215.86 1916.75,1232.49 1921.43,1248.35 1926.11,1263.41 1930.78,1277.69 1935.46,1291.2 1940.14,1303.94 1944.82,1315.93 1949.5,1327.18 1954.18,1337.7 1958.85,1347.53 1963.53,1356.68 1968.21,1365.18 1972.89,1373.04 1977.57,1380.31 1982.24,1387 1986.92,1393.14 1991.6,1398.77 1996.28,1403.91 2000.96,1408.59 2005.64,1412.83 2010.31,1416.68 2014.99,1420.14 2019.67,1423.26 2024.35,1426.05 2029.03,1428.55 2033.7,1430.77 2038.38,1432.75 2043.06,1434.5 2047.74,1436.04 2052.42,1437.4 2057.1,1438.59 2061.77,1439.63 2066.45,1440.53 2071.13,1441.32 2075.81,1442 2080.49,1442.58 2085.16,1443.09 2089.84,1443.52 2094.52,1443.89 2099.2,1444.2 2103.88,1444.47 2108.56,1444.7 2113.23,1444.88 2117.91,1445.04 2122.59,1445.17 2127.27,1445.28 2131.95,1445.37 2136.62,1445.44 2141.3,1445.5 2145.98,1445.55 2150.66,1445.59 2155.34,1445.62 2160.02,1445.64 2164.69,1445.66 2169.37,1445.67 2174.05,1445.68 2178.73,1445.69 2183.41,1445.7 2188.08,1445.7 2192.76,1445.7 2197.44,1445.7 2202.12,1445.7 2206.8,1445.71 2211.48,1445.71 2216.15,1445.71 2220.83,1445.71 2225.51,1445.71 2230.19,1445.71 2234.87,1445.71 2239.54,1445.71 2244.22,1445.71 2248.9,1445.71 2253.58,1445.71 2258.26,1445.71 2262.94,1445.71 2267.61,1445.71 2272.29,1445.72 2276.97,1445.72 2281.65,1445.72 2286.33,1445.72 2291,1445.71 "/>
<path clip-path="url(#clip720)" d="M1880.43 250.738 L2280.03 250.738 L2280.03 95.2176 L1880.43 95.2176  Z" fill="#ffffff" fill-rule="evenodd" fill-opacity="1"/>
<polyline clip-path="url(#clip720)" style="stroke:#000000; stroke-linecap:round; stroke-linejoin:round; stroke-width:4; stroke-opacity:1; fill:none" points="1880.43,250.738 2280.03,250.738 2280.03,95.2176 1880.43,95.2176 1880.43,250.738 "/>
<polyline clip-path="url(#clip720)" style="stroke:#009af9; stroke-linecap:round; stroke-linejoin:round; stroke-width:4; stroke-opacity:1; fill:none" points="1904.67,147.058 2050.13,147.058 "/>
<path clip-path="url(#clip720)" d="M2087.77 151.305 Q2082.61 151.305 2080.62 152.486 Q2078.63 153.666 2078.63 156.514 Q2078.63 158.782 2080.11 160.125 Q2081.62 161.444 2084.19 161.444 Q2087.73 161.444 2089.86 158.944 Q2092.01 156.421 2092.01 152.254 L2092.01 151.305 L2087.77 151.305 M2096.27 149.546 L2096.27 164.338 L2092.01 164.338 L2092.01 160.402 Q2090.55 162.763 2088.38 163.898 Q2086.2 165.009 2083.05 165.009 Q2079.07 165.009 2076.71 162.787 Q2074.37 160.541 2074.37 156.791 Q2074.37 152.416 2077.29 150.194 Q2080.23 147.972 2086.04 147.972 L2092.01 147.972 L2092.01 147.555 Q2092.01 144.615 2090.07 143.018 Q2088.14 141.398 2084.65 141.398 Q2082.43 141.398 2080.32 141.93 Q2078.21 142.463 2076.27 143.527 L2076.27 139.592 Q2078.61 138.69 2080.81 138.25 Q2083.01 137.787 2085.09 137.787 Q2090.71 137.787 2093.49 140.703 Q2096.27 143.62 2096.27 149.546 Z" fill="#000000" fill-rule="nonzero" fill-opacity="1" /><path clip-path="url(#clip720)" d="M2126.59 148.689 L2126.59 164.338 L2122.33 164.338 L2122.33 148.828 Q2122.33 145.148 2120.9 143.319 Q2119.46 141.49 2116.59 141.49 Q2113.14 141.49 2111.15 143.69 Q2109.16 145.889 2109.16 149.685 L2109.16 164.338 L2104.88 164.338 L2104.88 138.412 L2109.16 138.412 L2109.16 142.44 Q2110.69 140.102 2112.75 138.944 Q2114.83 137.787 2117.54 137.787 Q2122.01 137.787 2124.3 140.565 Q2126.59 143.319 2126.59 148.689 Z" fill="#000000" fill-rule="nonzero" fill-opacity="1" /><path clip-path="url(#clip720)" d="M2146.87 151.305 Q2141.71 151.305 2139.72 152.486 Q2137.73 153.666 2137.73 156.514 Q2137.73 158.782 2139.21 160.125 Q2140.71 161.444 2143.28 161.444 Q2146.82 161.444 2148.95 158.944 Q2151.11 156.421 2151.11 152.254 L2151.11 151.305 L2146.87 151.305 M2155.37 149.546 L2155.37 164.338 L2151.11 164.338 L2151.11 160.402 Q2149.65 162.763 2147.47 163.898 Q2145.3 165.009 2142.15 165.009 Q2138.17 165.009 2135.81 162.787 Q2133.47 160.541 2133.47 156.791 Q2133.47 152.416 2136.39 150.194 Q2139.32 147.972 2145.14 147.972 L2151.11 147.972 L2151.11 147.555 Q2151.11 144.615 2149.16 143.018 Q2147.24 141.398 2143.75 141.398 Q2141.52 141.398 2139.42 141.93 Q2137.31 142.463 2135.37 143.527 L2135.37 139.592 Q2137.7 138.69 2139.9 138.25 Q2142.1 137.787 2144.19 137.787 Q2149.81 137.787 2152.59 140.703 Q2155.37 143.62 2155.37 149.546 Z" fill="#000000" fill-rule="nonzero" fill-opacity="1" /><path clip-path="url(#clip720)" d="M2164.14 128.319 L2168.4 128.319 L2168.4 164.338 L2164.14 164.338 L2164.14 128.319 Z" fill="#000000" fill-rule="nonzero" fill-opacity="1" /><path clip-path="url(#clip720)" d="M2188.1 166.745 Q2186.29 171.375 2184.58 172.787 Q2182.87 174.199 2180 174.199 L2176.59 174.199 L2176.59 170.634 L2179.09 170.634 Q2180.85 170.634 2181.82 169.8 Q2182.8 168.967 2183.98 165.865 L2184.74 163.921 L2174.26 138.412 L2178.77 138.412 L2186.87 158.689 L2194.97 138.412 L2199.49 138.412 L2188.1 166.745 Z" fill="#000000" fill-rule="nonzero" fill-opacity="1" /><path clip-path="url(#clip720)" d="M2209.58 131.051 L2209.58 138.412 L2218.35 138.412 L2218.35 141.722 L2209.58 141.722 L2209.58 155.796 Q2209.58 158.967 2210.44 159.87 Q2211.32 160.773 2213.98 160.773 L2218.35 160.773 L2218.35 164.338 L2213.98 164.338 Q2209.05 164.338 2207.17 162.509 Q2205.3 160.657 2205.3 155.796 L2205.3 141.722 L2202.17 141.722 L2202.17 138.412 L2205.3 138.412 L2205.3 131.051 L2209.58 131.051 Z" fill="#000000" fill-rule="nonzero" fill-opacity="1" /><path clip-path="url(#clip720)" d="M2223.95 138.412 L2228.21 138.412 L2228.21 164.338 L2223.95 164.338 L2223.95 138.412 M2223.95 128.319 L2228.21 128.319 L2228.21 133.713 L2223.95 133.713 L2223.95 128.319 Z" fill="#000000" fill-rule="nonzero" fill-opacity="1" /><path clip-path="url(#clip720)" d="M2255.78 139.407 L2255.78 143.389 Q2253.98 142.393 2252.15 141.907 Q2250.34 141.398 2248.49 141.398 Q2244.35 141.398 2242.06 144.037 Q2239.76 146.652 2239.76 151.398 Q2239.76 156.143 2242.06 158.782 Q2244.35 161.398 2248.49 161.398 Q2250.34 161.398 2252.15 160.912 Q2253.98 160.402 2255.78 159.407 L2255.78 163.342 Q2254 164.176 2252.08 164.592 Q2250.18 165.009 2248.03 165.009 Q2242.17 165.009 2238.72 161.328 Q2235.27 157.648 2235.27 151.398 Q2235.27 145.055 2238.75 141.421 Q2242.24 137.787 2248.31 137.787 Q2250.27 137.787 2252.15 138.203 Q2254.02 138.597 2255.78 139.407 Z" fill="#000000" fill-rule="nonzero" fill-opacity="1" /><polyline clip-path="url(#clip720)" style="stroke:#e26f46; stroke-linecap:round; stroke-linejoin:round; stroke-width:4; stroke-opacity:1; fill:none" points="1904.67,198.898 2050.13,198.898 "/>
<path clip-path="url(#clip720)" d="M2078.65 212.289 L2078.65 226.039 L2074.37 226.039 L2074.37 190.252 L2078.65 190.252 L2078.65 194.187 Q2080 191.872 2082.03 190.761 Q2084.09 189.627 2086.94 189.627 Q2091.66 189.627 2094.6 193.377 Q2097.57 197.127 2097.57 203.238 Q2097.57 209.349 2094.6 213.099 Q2091.66 216.849 2086.94 216.849 Q2084.09 216.849 2082.03 215.738 Q2080 214.603 2078.65 212.289 M2093.14 203.238 Q2093.14 198.539 2091.2 195.877 Q2089.28 193.192 2085.9 193.192 Q2082.52 193.192 2080.58 195.877 Q2078.65 198.539 2078.65 203.238 Q2078.65 207.937 2080.58 210.622 Q2082.52 213.284 2085.9 213.284 Q2089.28 213.284 2091.2 210.622 Q2093.14 207.937 2093.14 203.238 Z" fill="#000000" fill-rule="nonzero" fill-opacity="1" /><path clip-path="url(#clip720)" d="M2119.65 194.233 Q2118.93 193.817 2118.08 193.631 Q2117.24 193.423 2116.22 193.423 Q2112.61 193.423 2110.67 195.784 Q2108.75 198.122 2108.75 202.52 L2108.75 216.178 L2104.46 216.178 L2104.46 190.252 L2108.75 190.252 L2108.75 194.28 Q2110.09 191.918 2112.24 190.784 Q2114.39 189.627 2117.47 189.627 Q2117.91 189.627 2118.45 189.696 Q2118.98 189.743 2119.63 189.858 L2119.65 194.233 Z" fill="#000000" fill-rule="nonzero" fill-opacity="1" /><path clip-path="url(#clip720)" d="M2145.25 202.15 L2145.25 204.233 L2125.67 204.233 Q2125.95 208.631 2128.31 210.946 Q2130.69 213.238 2134.93 213.238 Q2137.38 213.238 2139.67 212.636 Q2141.99 212.034 2144.26 210.83 L2144.26 214.858 Q2141.96 215.83 2139.56 216.34 Q2137.15 216.849 2134.67 216.849 Q2128.47 216.849 2124.83 213.238 Q2121.22 209.627 2121.22 203.469 Q2121.22 197.104 2124.65 193.377 Q2128.1 189.627 2133.93 189.627 Q2139.16 189.627 2142.2 193.006 Q2145.25 196.363 2145.25 202.15 M2140.99 200.9 Q2140.95 197.405 2139.02 195.321 Q2137.13 193.238 2133.98 193.238 Q2130.41 193.238 2128.26 195.252 Q2126.13 197.266 2125.81 200.923 L2140.99 200.9 Z" fill="#000000" fill-rule="nonzero" fill-opacity="1" /><path clip-path="url(#clip720)" d="M2169.3 194.187 L2169.3 180.159 L2173.56 180.159 L2173.56 216.178 L2169.3 216.178 L2169.3 212.289 Q2167.96 214.603 2165.9 215.738 Q2163.86 216.849 2160.99 216.849 Q2156.29 216.849 2153.33 213.099 Q2150.39 209.349 2150.39 203.238 Q2150.39 197.127 2153.33 193.377 Q2156.29 189.627 2160.99 189.627 Q2163.86 189.627 2165.9 190.761 Q2167.96 191.872 2169.3 194.187 M2154.79 203.238 Q2154.79 207.937 2156.71 210.622 Q2158.65 213.284 2162.03 213.284 Q2165.41 213.284 2167.36 210.622 Q2169.3 207.937 2169.3 203.238 Q2169.3 198.539 2167.36 195.877 Q2165.41 193.192 2162.03 193.192 Q2158.65 193.192 2156.71 195.877 Q2154.79 198.539 2154.79 203.238 Z" fill="#000000" fill-rule="nonzero" fill-opacity="1" /><path clip-path="url(#clip720)" d="M2182.33 190.252 L2186.59 190.252 L2186.59 216.178 L2182.33 216.178 L2182.33 190.252 M2182.33 180.159 L2186.59 180.159 L2186.59 185.553 L2182.33 185.553 L2182.33 180.159 Z" fill="#000000" fill-rule="nonzero" fill-opacity="1" /><path clip-path="url(#clip720)" d="M2214.16 191.247 L2214.16 195.229 Q2212.36 194.233 2210.53 193.747 Q2208.72 193.238 2206.87 193.238 Q2202.73 193.238 2200.44 195.877 Q2198.14 198.492 2198.14 203.238 Q2198.14 207.983 2200.44 210.622 Q2202.73 213.238 2206.87 213.238 Q2208.72 213.238 2210.53 212.752 Q2212.36 212.242 2214.16 211.247 L2214.16 215.182 Q2212.38 216.016 2210.46 216.432 Q2208.56 216.849 2206.41 216.849 Q2200.55 216.849 2197.1 213.168 Q2193.65 209.488 2193.65 203.238 Q2193.65 196.895 2197.13 193.261 Q2200.62 189.627 2206.69 189.627 Q2208.65 189.627 2210.53 190.043 Q2212.4 190.437 2214.16 191.247 Z" fill="#000000" fill-rule="nonzero" fill-opacity="1" /><path clip-path="url(#clip720)" d="M2225.78 182.891 L2225.78 190.252 L2234.56 190.252 L2234.56 193.562 L2225.78 193.562 L2225.78 207.636 Q2225.78 210.807 2226.64 211.71 Q2227.52 212.613 2230.18 212.613 L2234.56 212.613 L2234.56 216.178 L2230.18 216.178 Q2225.25 216.178 2223.38 214.349 Q2221.5 212.497 2221.5 207.636 L2221.5 193.562 L2218.38 193.562 L2218.38 190.252 L2221.5 190.252 L2221.5 182.891 L2225.78 182.891 Z" fill="#000000" fill-rule="nonzero" fill-opacity="1" /></svg>
