<?xml version="1.0" encoding="utf-8"?>
<svg xmlns="http://www.w3.org/2000/svg" xmlns:xlink="http://www.w3.org/1999/xlink" width="600" height="400" viewBox="0 0 2400 1600">
<defs>
  <clipPath id="clip410">
    <rect x="0" y="0" width="2400" height="1600"/>
  </clipPath>
</defs>
<path clip-path="url(#clip410)" d="M0 1600 L2400 1600 L2400 0 L0 0  Z" fill="#ffffff" fill-rule="evenodd" fill-opacity="1"/>
<defs>
  <clipPath id="clip411">
    <rect x="480" y="0" width="1681" height="1600"/>
  </clipPath>
</defs>
<path clip-path="url(#clip410)" d="M184.191 1423.18 L2352.76 1423.18 L2352.76 47.2441 L184.191 47.2441  Z" fill="#ffffff" fill-rule="evenodd" fill-opacity="1"/>
<defs>
  <clipPath id="clip412">
    <rect x="184" y="47" width="2170" height="1377"/>
  </clipPath>
</defs>
<polyline clip-path="url(#clip412)" style="stroke:#000000; stroke-linecap:round; stroke-linejoin:round; stroke-width:2; stroke-opacity:0.1; fill:none" points="184.191,1423.18 184.191,47.2441 "/>
<polyline clip-path="url(#clip412)" style="stroke:#000000; stroke-linecap:round; stroke-linejoin:round; stroke-width:2; stroke-opacity:0.1; fill:none" points="726.332,1423.18 726.332,47.2441 "/>
<polyline clip-path="url(#clip412)" style="stroke:#000000; stroke-linecap:round; stroke-linejoin:round; stroke-width:2; stroke-opacity:0.1; fill:none" points="1268.47,1423.18 1268.47,47.2441 "/>
<polyline clip-path="url(#clip412)" style="stroke:#000000; stroke-linecap:round; stroke-linejoin:round; stroke-width:2; stroke-opacity:0.1; fill:none" points="1810.61,1423.18 1810.61,47.2441 "/>
<polyline clip-path="url(#clip412)" style="stroke:#000000; stroke-linecap:round; stroke-linejoin:round; stroke-width:2; stroke-opacity:0.1; fill:none" points="2352.76,1423.18 2352.76,47.2441 "/>
<polyline clip-path="url(#clip410)" style="stroke:#000000; stroke-linecap:round; stroke-linejoin:round; stroke-width:4; stroke-opacity:1; fill:none" points="184.191,1423.18 2352.76,1423.18 "/>
<polyline clip-path="url(#clip410)" style="stroke:#000000; stroke-linecap:round; stroke-linejoin:round; stroke-width:4; stroke-opacity:1; fill:none" points="184.191,1423.18 184.191,1404.28 "/>
<polyline clip-path="url(#clip410)" style="stroke:#000000; stroke-linecap:round; stroke-linejoin:round; stroke-width:4; stroke-opacity:1; fill:none" points="726.332,1423.18 726.332,1404.28 "/>
<polyline clip-path="url(#clip410)" style="stroke:#000000; stroke-linecap:round; stroke-linejoin:round; stroke-width:4; stroke-opacity:1; fill:none" points="1268.47,1423.18 1268.47,1404.28 "/>
<polyline clip-path="url(#clip410)" style="stroke:#000000; stroke-linecap:round; stroke-linejoin:round; stroke-width:4; stroke-opacity:1; fill:none" points="1810.61,1423.18 1810.61,1404.28 "/>
<polyline clip-path="url(#clip410)" style="stroke:#000000; stroke-linecap:round; stroke-linejoin:round; stroke-width:4; stroke-opacity:1; fill:none" points="2352.76,1423.18 2352.76,1404.28 "/>
<path clip-path="url(#clip410)" d="M184.191 1454.1 Q180.58 1454.1 178.751 1457.66 Q176.945 1461.2 176.945 1468.33 Q176.945 1475.44 178.751 1479.01 Q180.58 1482.55 184.191 1482.55 Q187.825 1482.55 189.63 1479.01 Q191.459 1475.44 191.459 1468.33 Q191.459 1461.2 189.63 1457.66 Q187.825 1454.1 184.191 1454.1 M184.191 1450.39 Q190.001 1450.39 193.056 1455 Q196.135 1459.58 196.135 1468.33 Q196.135 1477.06 193.056 1481.67 Q190.001 1486.25 184.191 1486.25 Q178.381 1486.25 175.302 1481.67 Q172.246 1477.06 172.246 1468.33 Q172.246 1459.58 175.302 1455 Q178.381 1450.39 184.191 1450.39 Z" fill="#000000" fill-rule="nonzero" fill-opacity="1" /><path clip-path="url(#clip410)" d="M716.714 1481.64 L724.353 1481.64 L724.353 1455.28 L716.043 1456.95 L716.043 1452.69 L724.307 1451.02 L728.982 1451.02 L728.982 1481.64 L736.621 1481.64 L736.621 1485.58 L716.714 1485.58 L716.714 1481.64 Z" fill="#000000" fill-rule="nonzero" fill-opacity="1" /><path clip-path="url(#clip410)" d="M1263.13 1481.64 L1279.45 1481.64 L1279.45 1485.58 L1257.5 1485.58 L1257.5 1481.64 Q1260.16 1478.89 1264.75 1474.26 Q1269.35 1469.61 1270.53 1468.27 Q1272.78 1465.74 1273.66 1464.01 Q1274.56 1462.25 1274.56 1460.56 Q1274.56 1457.8 1272.62 1456.07 Q1270.7 1454.33 1267.59 1454.33 Q1265.39 1454.33 1262.94 1455.09 Q1260.51 1455.86 1257.73 1457.41 L1257.73 1452.69 Q1260.56 1451.55 1263.01 1450.97 Q1265.46 1450.39 1267.5 1450.39 Q1272.87 1450.39 1276.07 1453.08 Q1279.26 1455.77 1279.26 1460.26 Q1279.26 1462.39 1278.45 1464.31 Q1277.66 1466.2 1275.56 1468.8 Q1274.98 1469.47 1271.88 1472.69 Q1268.77 1475.88 1263.13 1481.64 Z" fill="#000000" fill-rule="nonzero" fill-opacity="1" /><path clip-path="url(#clip410)" d="M1814.86 1466.95 Q1818.22 1467.66 1820.09 1469.93 Q1821.99 1472.2 1821.99 1475.53 Q1821.99 1480.65 1818.47 1483.45 Q1814.95 1486.25 1808.47 1486.25 Q1806.3 1486.25 1803.98 1485.81 Q1801.69 1485.39 1799.24 1484.54 L1799.24 1480.02 Q1801.18 1481.16 1803.5 1481.74 Q1805.81 1482.32 1808.33 1482.32 Q1812.73 1482.32 1815.02 1480.58 Q1817.34 1478.84 1817.34 1475.53 Q1817.34 1472.48 1815.19 1470.77 Q1813.06 1469.03 1809.24 1469.03 L1805.21 1469.03 L1805.21 1465.19 L1809.42 1465.19 Q1812.87 1465.19 1814.7 1463.82 Q1816.53 1462.43 1816.53 1459.84 Q1816.53 1457.18 1814.63 1455.77 Q1812.76 1454.33 1809.24 1454.33 Q1807.32 1454.33 1805.12 1454.75 Q1802.92 1455.16 1800.28 1456.04 L1800.28 1451.88 Q1802.94 1451.14 1805.26 1450.77 Q1807.59 1450.39 1809.65 1450.39 Q1814.98 1450.39 1818.08 1452.83 Q1821.18 1455.23 1821.18 1459.35 Q1821.18 1462.22 1819.54 1464.21 Q1817.89 1466.18 1814.86 1466.95 Z" fill="#000000" fill-rule="nonzero" fill-opacity="1" /><path clip-path="url(#clip410)" d="M2355.77 1455.09 L2343.96 1473.54 L2355.77 1473.54 L2355.77 1455.09 M2354.54 1451.02 L2360.42 1451.02 L2360.42 1473.54 L2365.35 1473.54 L2365.35 1477.43 L2360.42 1477.43 L2360.42 1485.58 L2355.77 1485.58 L2355.77 1477.43 L2340.16 1477.43 L2340.16 1472.92 L2354.54 1451.02 Z" fill="#000000" fill-rule="nonzero" fill-opacity="1" /><path clip-path="url(#clip410)" d="M1267.53 1522.27 L1267.53 1532.4 L1279.6 1532.4 L1279.6 1536.95 L1267.53 1536.95 L1267.53 1556.3 Q1267.53 1560.66 1268.71 1561.9 Q1269.92 1563.14 1273.58 1563.14 L1279.6 1563.14 L1279.6 1568.04 L1273.58 1568.04 Q1266.8 1568.04 1264.22 1565.53 Q1261.65 1562.98 1261.65 1556.3 L1261.65 1536.95 L1257.35 1536.95 L1257.35 1532.4 L1261.65 1532.4 L1261.65 1522.27 L1267.53 1522.27 Z" fill="#000000" fill-rule="nonzero" fill-opacity="1" /><polyline clip-path="url(#clip412)" style="stroke:#000000; stroke-linecap:round; stroke-linejoin:round; stroke-width:2; stroke-opacity:0.1; fill:none" points="184.191,1318.12 2352.76,1318.12 "/>
<polyline clip-path="url(#clip412)" style="stroke:#000000; stroke-linecap:round; stroke-linejoin:round; stroke-width:2; stroke-opacity:0.1; fill:none" points="184.191,1019.75 2352.76,1019.75 "/>
<polyline clip-path="url(#clip412)" style="stroke:#000000; stroke-linecap:round; stroke-linejoin:round; stroke-width:2; stroke-opacity:0.1; fill:none" points="184.191,721.375 2352.76,721.375 "/>
<polyline clip-path="url(#clip412)" style="stroke:#000000; stroke-linecap:round; stroke-linejoin:round; stroke-width:2; stroke-opacity:0.1; fill:none" points="184.191,423.001 2352.76,423.001 "/>
<polyline clip-path="url(#clip412)" style="stroke:#000000; stroke-linecap:round; stroke-linejoin:round; stroke-width:2; stroke-opacity:0.1; fill:none" points="184.191,124.627 2352.76,124.627 "/>
<polyline clip-path="url(#clip410)" style="stroke:#000000; stroke-linecap:round; stroke-linejoin:round; stroke-width:4; stroke-opacity:1; fill:none" points="184.191,1423.18 184.191,47.2441 "/>
<polyline clip-path="url(#clip410)" style="stroke:#000000; stroke-linecap:round; stroke-linejoin:round; stroke-width:4; stroke-opacity:1; fill:none" points="184.191,1318.12 203.088,1318.12 "/>
<polyline clip-path="url(#clip410)" style="stroke:#000000; stroke-linecap:round; stroke-linejoin:round; stroke-width:4; stroke-opacity:1; fill:none" points="184.191,1019.75 203.088,1019.75 "/>
<polyline clip-path="url(#clip410)" style="stroke:#000000; stroke-linecap:round; stroke-linejoin:round; stroke-width:4; stroke-opacity:1; fill:none" points="184.191,721.375 203.088,721.375 "/>
<polyline clip-path="url(#clip410)" style="stroke:#000000; stroke-linecap:round; stroke-linejoin:round; stroke-width:4; stroke-opacity:1; fill:none" points="184.191,423.001 203.088,423.001 "/>
<polyline clip-path="url(#clip410)" style="stroke:#000000; stroke-linecap:round; stroke-linejoin:round; stroke-width:4; stroke-opacity:1; fill:none" points="184.191,124.627 203.088,124.627 "/>
<path clip-path="url(#clip410)" d="M91.0151 1303.92 Q87.404 1303.92 85.5753 1307.49 Q83.7697 1311.03 83.7697 1318.16 Q83.7697 1325.26 85.5753 1328.83 Q87.404 1332.37 91.0151 1332.37 Q94.6493 1332.37 96.4548 1328.83 Q98.2835 1325.26 98.2835 1318.16 Q98.2835 1311.03 96.4548 1307.49 Q94.6493 1303.92 91.0151 1303.92 M91.0151 1300.22 Q96.8252 1300.22 99.8808 1304.82 Q102.959 1309.41 102.959 1318.16 Q102.959 1326.88 99.8808 1331.49 Q96.8252 1336.07 91.0151 1336.07 Q85.2049 1336.07 82.1262 1331.49 Q79.0707 1326.88 79.0707 1318.16 Q79.0707 1309.41 82.1262 1304.82 Q85.2049 1300.22 91.0151 1300.22 Z" fill="#000000" fill-rule="nonzero" fill-opacity="1" /><path clip-path="url(#clip410)" d="M111.177 1329.52 L116.061 1329.52 L116.061 1335.4 L111.177 1335.4 L111.177 1329.52 Z" fill="#000000" fill-rule="nonzero" fill-opacity="1" /><path clip-path="url(#clip410)" d="M136.246 1303.92 Q132.635 1303.92 130.807 1307.49 Q129.001 1311.03 129.001 1318.16 Q129.001 1325.26 130.807 1328.83 Q132.635 1332.37 136.246 1332.37 Q139.881 1332.37 141.686 1328.83 Q143.515 1325.26 143.515 1318.16 Q143.515 1311.03 141.686 1307.49 Q139.881 1303.92 136.246 1303.92 M136.246 1300.22 Q142.056 1300.22 145.112 1304.82 Q148.191 1309.41 148.191 1318.16 Q148.191 1326.88 145.112 1331.49 Q142.056 1336.07 136.246 1336.07 Q130.436 1336.07 127.357 1331.49 Q124.302 1326.88 124.302 1318.16 Q124.302 1309.41 127.357 1304.82 Q130.436 1300.22 136.246 1300.22 Z" fill="#000000" fill-rule="nonzero" fill-opacity="1" /><path clip-path="url(#clip410)" d="M86.0382 1033.09 L102.358 1033.09 L102.358 1037.03 L80.4133 1037.03 L80.4133 1033.09 Q83.0753 1030.34 87.6586 1025.71 Q92.2651 1021.06 93.4456 1019.71 Q95.691 1017.19 96.5706 1015.45 Q97.4734 1013.7 97.4734 1012.01 Q97.4734 1009.25 95.5289 1007.51 Q93.6076 1005.78 90.5058 1005.78 Q88.3067 1005.78 85.8531 1006.54 Q83.4225 1007.31 80.6447 1008.86 L80.6447 1004.14 Q83.4688 1003 85.9225 1002.42 Q88.3762 1001.84 90.4132 1001.84 Q95.7836 1001.84 98.978 1004.53 Q102.172 1007.21 102.172 1011.7 Q102.172 1013.83 101.362 1015.76 Q100.575 1017.65 98.4687 1020.25 Q97.89 1020.92 94.7882 1024.14 Q91.6864 1027.33 86.0382 1033.09 Z" fill="#000000" fill-rule="nonzero" fill-opacity="1" /><path clip-path="url(#clip410)" d="M112.172 1031.15 L117.057 1031.15 L117.057 1037.03 L112.172 1037.03 L112.172 1031.15 Z" fill="#000000" fill-rule="nonzero" fill-opacity="1" /><path clip-path="url(#clip410)" d="M127.288 1002.47 L145.644 1002.47 L145.644 1006.4 L131.57 1006.4 L131.57 1014.88 Q132.589 1014.53 133.607 1014.37 Q134.626 1014.18 135.644 1014.18 Q141.431 1014.18 144.811 1017.35 Q148.191 1020.52 148.191 1025.94 Q148.191 1031.52 144.718 1034.62 Q141.246 1037.7 134.927 1037.7 Q132.751 1037.7 130.482 1037.33 Q128.237 1036.96 125.83 1036.22 L125.83 1031.52 Q127.913 1032.65 130.135 1033.21 Q132.357 1033.76 134.834 1033.76 Q138.839 1033.76 141.177 1031.66 Q143.515 1029.55 143.515 1025.94 Q143.515 1022.33 141.177 1020.22 Q138.839 1018.12 134.834 1018.12 Q132.959 1018.12 131.084 1018.53 Q129.232 1018.95 127.288 1019.83 L127.288 1002.47 Z" fill="#000000" fill-rule="nonzero" fill-opacity="1" /><path clip-path="url(#clip410)" d="M81.0614 704.095 L99.4178 704.095 L99.4178 708.03 L85.3438 708.03 L85.3438 716.502 Q86.3623 716.155 87.3808 715.993 Q88.3993 715.808 89.4178 715.808 Q95.2049 715.808 98.5845 718.979 Q101.964 722.15 101.964 727.567 Q101.964 733.146 98.4919 736.247 Q95.0197 739.326 88.7003 739.326 Q86.5243 739.326 84.2558 738.956 Q82.0105 738.585 79.6031 737.845 L79.6031 733.146 Q81.6864 734.28 83.9086 734.835 Q86.1308 735.391 88.6077 735.391 Q92.6123 735.391 94.9502 733.284 Q97.2882 731.178 97.2882 727.567 Q97.2882 723.956 94.9502 721.849 Q92.6123 719.743 88.6077 719.743 Q86.7327 719.743 84.8577 720.159 Q83.0058 720.576 81.0614 721.456 L81.0614 704.095 Z" fill="#000000" fill-rule="nonzero" fill-opacity="1" /><path clip-path="url(#clip410)" d="M111.177 732.775 L116.061 732.775 L116.061 738.655 L111.177 738.655 L111.177 732.775 Z" fill="#000000" fill-rule="nonzero" fill-opacity="1" /><path clip-path="url(#clip410)" d="M136.246 707.173 Q132.635 707.173 130.807 710.738 Q129.001 714.28 129.001 721.409 Q129.001 728.516 130.807 732.081 Q132.635 735.622 136.246 735.622 Q139.881 735.622 141.686 732.081 Q143.515 728.516 143.515 721.409 Q143.515 714.28 141.686 710.738 Q139.881 707.173 136.246 707.173 M136.246 703.47 Q142.056 703.47 145.112 708.076 Q148.191 712.66 148.191 721.409 Q148.191 730.136 145.112 734.743 Q142.056 739.326 136.246 739.326 Q130.436 739.326 127.357 734.743 Q124.302 730.136 124.302 721.409 Q124.302 712.66 127.357 708.076 Q130.436 703.47 136.246 703.47 Z" fill="#000000" fill-rule="nonzero" fill-opacity="1" /><path clip-path="url(#clip410)" d="M80.8299 405.721 L103.052 405.721 L103.052 407.712 L90.5058 440.281 L85.6216 440.281 L97.4271 409.656 L80.8299 409.656 L80.8299 405.721 Z" fill="#000000" fill-rule="nonzero" fill-opacity="1" /><path clip-path="url(#clip410)" d="M112.172 434.401 L117.057 434.401 L117.057 440.281 L112.172 440.281 L112.172 434.401 Z" fill="#000000" fill-rule="nonzero" fill-opacity="1" /><path clip-path="url(#clip410)" d="M127.288 405.721 L145.644 405.721 L145.644 409.656 L131.57 409.656 L131.57 418.128 Q132.589 417.781 133.607 417.619 Q134.626 417.434 135.644 417.434 Q141.431 417.434 144.811 420.605 Q148.191 423.776 148.191 429.193 Q148.191 434.772 144.718 437.873 Q141.246 440.952 134.927 440.952 Q132.751 440.952 130.482 440.582 Q128.237 440.211 125.83 439.471 L125.83 434.772 Q127.913 435.906 130.135 436.461 Q132.357 437.017 134.834 437.017 Q138.839 437.017 141.177 434.911 Q143.515 432.804 143.515 429.193 Q143.515 425.582 141.177 423.475 Q138.839 421.369 134.834 421.369 Q132.959 421.369 131.084 421.786 Q129.232 422.202 127.288 423.082 L127.288 405.721 Z" fill="#000000" fill-rule="nonzero" fill-opacity="1" /><path clip-path="url(#clip410)" d="M51.6634 137.972 L59.3023 137.972 L59.3023 111.606 L50.9921 113.273 L50.9921 109.014 L59.256 107.347 L63.9319 107.347 L63.9319 137.972 L71.5707 137.972 L71.5707 141.907 L51.6634 141.907 L51.6634 137.972 Z" fill="#000000" fill-rule="nonzero" fill-opacity="1" /><path clip-path="url(#clip410)" d="M91.0151 110.426 Q87.404 110.426 85.5753 113.99 Q83.7697 117.532 83.7697 124.662 Q83.7697 131.768 85.5753 135.333 Q87.404 138.875 91.0151 138.875 Q94.6493 138.875 96.4548 135.333 Q98.2835 131.768 98.2835 124.662 Q98.2835 117.532 96.4548 113.99 Q94.6493 110.426 91.0151 110.426 M91.0151 106.722 Q96.8252 106.722 99.8808 111.328 Q102.959 115.912 102.959 124.662 Q102.959 133.389 99.8808 137.995 Q96.8252 142.578 91.0151 142.578 Q85.2049 142.578 82.1262 137.995 Q79.0707 133.389 79.0707 124.662 Q79.0707 115.912 82.1262 111.328 Q85.2049 106.722 91.0151 106.722 Z" fill="#000000" fill-rule="nonzero" fill-opacity="1" /><path clip-path="url(#clip410)" d="M111.177 136.027 L116.061 136.027 L116.061 141.907 L111.177 141.907 L111.177 136.027 Z" fill="#000000" fill-rule="nonzero" fill-opacity="1" /><path clip-path="url(#clip410)" d="M136.246 110.426 Q132.635 110.426 130.807 113.99 Q129.001 117.532 129.001 124.662 Q129.001 131.768 130.807 135.333 Q132.635 138.875 136.246 138.875 Q139.881 138.875 141.686 135.333 Q143.515 131.768 143.515 124.662 Q143.515 117.532 141.686 113.99 Q139.881 110.426 136.246 110.426 M136.246 106.722 Q142.056 106.722 145.112 111.328 Q148.191 115.912 148.191 124.662 Q148.191 133.389 145.112 137.995 Q142.056 142.578 136.246 142.578 Q130.436 142.578 127.357 137.995 Q124.302 133.389 124.302 124.662 Q124.302 115.912 127.357 111.328 Q130.436 106.722 136.246 106.722 Z" fill="#000000" fill-rule="nonzero" fill-opacity="1" /><polyline clip-path="url(#clip412)" style="stroke:#009af9; stroke-linecap:round; stroke-linejoin:round; stroke-width:4; stroke-opacity:1; fill:none" points="184.191,1212.34 189.612,1216.82 195.034,1248.52 200.455,1164.63 205.876,1208.75 211.298,1210.09 216.719,1191.22 222.141,1227.4 227.562,1228.51 232.983,1190.11 238.405,1210.18 243.826,1203.86 249.248,1141.67 254.669,1155.01 260.09,1192.95 265.512,1218.96 270.933,1176.19 276.355,1280.58 281.776,1211.08 287.198,1220.24 292.619,1202.81 298.04,1179.8 303.462,1223.12 308.883,1212.65 314.305,1217.03 319.726,1238.03 325.147,1151.79 330.569,1151.7 335.99,1115.2 341.412,1218.36 346.833,1182.43 352.254,1120.35 357.676,1169.77 363.097,1154.33 368.519,1140.51 373.94,1145.68 379.362,1215.26 384.783,1108.96 390.204,1136.08 395.626,1158.85 401.047,1167.23 406.469,1139.32 411.89,1098.15 417.311,1216.26 422.733,1158.04 428.154,1094.69 433.576,1154 438.997,1083.2 444.419,1083.79 449.84,1162.74 455.261,1105.19 460.683,1152.49 466.104,1165.82 471.526,1194.21 476.947,1139.61 482.368,1151.36 487.79,1044.08 493.211,1109.63 498.633,1150.45 504.054,1124.43 509.475,1029.11 514.897,1113.32 520.318,1107.54 525.74,1133.24 531.161,1084.09 536.583,1209.15 542.004,1013.72 547.425,1032.55 552.847,1201.89 558.268,1115.31 563.69,1059.5 569.111,1085.5 574.532,1120.86 579.954,1053.05 585.375,1034.75 590.797,1081.42 596.218,972.638 601.639,991.597 607.061,1098.45 612.482,1110.91 617.904,992.612 623.325,960.666 628.747,1116.31 634.168,1173.24 639.589,1038.6 645.011,1384.24 650.432,976.895 655.854,902.849 661.275,1126.27 666.696,1094.15 672.118,884.409 677.539,1067.69 682.961,1023.25 688.382,942.056 693.804,922.834 699.225,1002.89 704.646,991.401 710.068,1011.06 715.489,830.774 720.911,1036.67 726.332,882.423 731.753,999.672 737.175,1241.12 742.596,1020.27 748.018,870.36 753.439,1199.56 758.86,982.241 764.282,1046.29 769.703,881.207 775.125,912.912 780.546,883.339 785.968,1082.18 791.389,976.11 796.81,1155.75 802.232,920.362 807.653,836.294 813.075,964.396 818.496,895.789 823.917,863.923 829.339,692.454 834.76,809.348 840.182,1036.59 845.603,795.306 851.024,1092.34 856.446,976.813 861.867,872.115 867.289,838.968 872.71,799.808 878.132,1151.97 883.553,811.208 888.974,517.222 894.396,748.526 899.817,611.389 905.239,858.054 910.66,920.768 916.081,912.654 921.503,731.968 926.924,765.956 932.346,821.395 937.767,689.758 943.189,1004.52 948.61,1113.07 954.031,614.948 959.453,881.943 964.874,874.566 970.296,766.847 975.717,790.067 981.138,666.202 986.56,617.335 991.981,379.145 997.403,750.241 1002.82,718.769 1008.25,634.598 1013.67,638.615 1019.09,762.78 1024.51,466.795 1029.93,682.923 1035.35,426.728 1040.77,412.226 1046.2,678.803 1051.62,664.293 1057.04,701.287 1062.46,608.37 1067.88,896.866 1073.3,625.995 1078.72,995.726 1084.15,715.919 1089.57,776.933 1094.99,576.542 1100.41,545.048 1105.83,118.443 1111.25,671.161 1116.67,535.515 1122.1,1058.97 1127.52,273.333 1132.94,89.8137 1138.36,148.846 1143.78,1146.15 1149.2,375.868 1154.62,572.969 1160.05,690.528 1165.47,298.678 1170.89,762.204 1176.31,585.745 1181.73,553.856 1187.15,420.229 1192.57,817.651 1197.99,337.18 1203.42,413.442 1208.84,696.299 1214.26,453.785 1219.68,531.915 1225.1,719.955 1230.52,606.883 1235.94,523.964 1241.37,394.807 1246.79,918.371 1252.21,315.944 1257.63,455.991 1263.05,86.1857 1268.47,1144.23 1273.89,571.094 1279.32,562.287 1284.74,516.272 1290.16,822.541 1295.58,640.369 1301,620.342 1306.42,357.622 1311.84,375.686 1317.27,701.141 1322.69,745.727 1328.11,652.587 1333.53,765.926 1338.95,414.571 1344.37,453.956 1349.79,557.443 1355.22,368.528 1360.64,530.686 1366.06,781.776 1371.48,611.391 1376.9,472.893 1382.32,986.181 1387.74,431.504 1393.17,808.267 1398.59,626.213 1404.01,966.139 1409.43,811.992 1414.85,641.005 1420.27,904.243 1425.69,901.345 1431.12,668.942 1436.54,787.579 1441.96,999.405 1447.38,748.005 1452.8,784.058 1458.22,911.759 1463.64,921.031 1469.07,732.884 1474.49,868.712 1479.91,814.517 1485.33,1011.51 1490.75,949.019 1496.17,969.932 1501.59,1004.46 1507.02,1108.96 1512.44,981.37 1517.86,1114.84 1523.28,1029.06 1528.7,1146.21 1534.12,938.906 1539.54,1030.25 1544.97,1030.41 1550.39,1155.47 1555.81,993.672 1561.23,1085.61 1566.65,1167.78 1572.07,1108.24 1577.49,1091.06 1582.92,1036.1 1588.34,1100.76 1593.76,1143.59 1599.18,1208.08 1604.6,1195.94 1610.02,1108.3 1615.44,1173.49 1620.87,1202.91 1626.29,1108.83 1631.71,1153.47 1637.13,1165.26 1642.55,1146.07 1647.97,1097.42 1653.39,1135.83 1658.82,1198.03 1664.24,1202.8 1669.66,1097.82 1675.08,1255.63 1680.5,1216.51 1685.92,1239.99 1691.34,1165.3 1696.76,1163.52 1702.19,1184.91 1707.61,1245.26 1713.03,1204.5 1718.45,1131.38 1723.87,1176.6 1729.29,1204.99 1734.71,1213.6 1740.14,1112.3 1745.56,1222.65 1750.98,1211.74 1756.4,1225.68 1761.82,1156.16 1767.24,1148.43 1772.66,1215.42 1778.09,1260.59 1783.51,1180.19 1788.93,1174.67 1794.35,1216.07 1799.77,1199.01 1805.19,1204.22 1810.61,1145.66 1816.04,1213.35 1821.46,1199.04 1826.88,1200.5 1832.3,1228.82 1837.72,1176.31 1843.14,1184.18 1848.56,1223.7 1853.99,1244.89 1859.41,1236.39 1864.83,1175.25 1870.25,1209.26 1875.67,1226.68 1881.09,1231.04 1886.51,1220.77 1891.94,1236.33 1897.36,1290.5 1902.78,1274.67 1908.2,1095.38 1913.62,1250.88 1919.04,1201.5 1924.46,1173.18 1929.89,1196.19 1935.31,1155.52 1940.73,1169.45 1946.15,1137.2 1951.57,1181.35 1956.99,1244.36 1962.41,1242.35 1967.84,1159.93 1973.26,1204.49 1978.68,1153.47 1984.1,1170.86 1989.52,1164.47 1994.94,1166.83 2000.36,1155.82 2005.79,1201.52 2011.21,1091.57 2016.63,1236.12 2022.05,1178.08 2027.47,1240.6 2032.89,1255.54 2038.31,1188.98 2043.74,1157.2 2049.16,1184.16 2054.58,1192.26 2060,1193.65 2065.42,1135.04 2070.84,1193.36 2076.26,1209.56 2081.69,1232.52 2087.11,1149.68 2092.53,1229.25 2097.95,1158.77 2103.37,1209.09 2108.79,1187.04 2114.21,1061.88 2119.64,1268.98 2125.06,1182.11 2130.48,1149.74 2135.9,1129.64 2141.32,1202.03 2146.74,1230.93 2152.16,1165.22 2157.59,1184.99 2163.01,1142.43 2168.43,1091.41 2173.85,1136.9 2179.27,1128.93 2184.69,1183.96 2190.11,1101.8 2195.53,1160 2200.96,1142.69 2206.38,1170.01 2211.8,1151.77 2217.22,1139.29 2222.64,1163.15 2228.06,1122.58 2233.48,1241.16 2238.91,1221.97 2244.33,1077.21 2249.75,1233.75 2255.17,1091.86 2260.59,1144.31 2266.01,1123.76 2271.43,1191.85 2276.86,1185.96 2282.28,1115.86 2287.7,1199.33 2293.12,1160.9 2298.54,1182.09 2303.96,1127.85 2309.38,1121.42 2314.81,1048.47 2320.23,1067.04 2325.65,1190.82 2331.07,1093.58 2336.49,1105.35 2341.91,1065.94 2347.33,1154.2 2352.76,1118.69 "/>
<polyline clip-path="url(#clip412)" style="stroke:#e26f46; stroke-linecap:round; stroke-linejoin:round; stroke-width:4; stroke-opacity:1; fill:none" points="184.191,1179.86 189.612,1229.49 195.034,1173.86 200.455,1267.68 205.876,1202.1 211.298,1188.66 216.719,1206.32 222.141,1235.75 227.562,1219.36 232.983,1226.11 238.405,1234.83 243.826,1189.6 249.248,1188.52 254.669,1233.32 260.09,1214.15 265.512,1271.22 270.933,1256.91 276.355,1200.59 281.776,1258.98 287.198,1216.89 292.619,1200.27 298.04,1199.4 303.462,1289.22 308.883,1241.09 314.305,1200.96 319.726,1277.42 325.147,1237.96 330.569,1211.67 335.99,1250.8 341.412,1235.83 346.833,1289.47 352.254,1254.71 357.676,1268.57 363.097,1285.45 368.519,1238.12 373.94,1251.64 379.362,1261.26 384.783,1257.58 390.204,1279.4 395.626,1229.61 401.047,1254.47 406.469,1263.15 411.89,1297.62 417.311,1251.56 422.733,1253.69 428.154,1287.27 433.576,1271.84 438.997,1287.59 444.419,1268.97 449.84,1263.71 455.261,1255.08 460.683,1285.07 466.104,1285.7 471.526,1246.07 476.947,1268.99 482.368,1262.65 487.79,1284.7 493.211,1283.62 498.633,1289.68 504.054,1254.96 509.475,1271.25 514.897,1265.7 520.318,1276.11 525.74,1277.34 531.161,1302.63 536.583,1276.51 542.004,1287.95 547.425,1304.86 552.847,1288.39 558.268,1262.68 563.69,1271.26 569.111,1292.15 574.532,1290.59 579.954,1291.21 585.375,1277.72 590.797,1295.02 596.218,1279.08 601.639,1292.19 607.061,1270.66 612.482,1288.22 617.904,1280.11 623.325,1277.18 628.747,1274.5 634.168,1275.25 639.589,1282.29 645.011,1284.99 650.432,1286.24 655.854,1300.72 661.275,1263.28 666.696,1289.22 672.118,1292.71 677.539,1292.46 682.961,1286.08 688.382,1288.18 693.804,1267.21 699.225,1271.58 704.646,1269 710.068,1279.16 715.489,1270.94 720.911,1293.6 726.332,1292.51 731.753,1287.9 737.175,1294.9 742.596,1284.91 748.018,1286.55 753.439,1284.7 758.86,1301.7 764.282,1272.1 769.703,1299.08 775.125,1279.13 780.546,1280.76 785.968,1287.87 791.389,1286.46 796.81,1291.03 802.232,1282.23 807.653,1281.42 813.075,1287.98 818.496,1281.17 823.917,1292.73 829.339,1273.96 834.76,1282.79 840.182,1304.97 845.603,1301.32 851.024,1297.38 856.446,1286.62 861.867,1275.54 867.289,1281.46 872.71,1297.07 878.132,1275.14 883.553,1281.67 888.974,1296.07 894.396,1267.42 899.817,1292.17 905.239,1278.63 910.66,1296.52 916.081,1278.96 921.503,1281.28 926.924,1270.71 932.346,1289.31 937.767,1275.88 943.189,1260.59 948.61,1287.33 954.031,1271.6 959.453,1297.71 964.874,1272.1 970.296,1287.32 975.717,1254.79 981.138,1253.42 986.56,1284.3 991.981,1278.77 997.403,1262.66 1002.82,1270.8 1008.25,1256.46 1013.67,1275.92 1019.09,1273.24 1024.51,1241.52 1029.93,1275.47 1035.35,1254.54 1040.77,1292.82 1046.2,1255.8 1051.62,1271.6 1057.04,1252.18 1062.46,1279.74 1067.88,1242.7 1073.3,1252.1 1078.72,1232.18 1084.15,1240.55 1089.57,1277.61 1094.99,1212.05 1100.41,1229.83 1105.83,1232.04 1111.25,1244.87 1116.67,1241.56 1122.1,1224.47 1127.52,1216.21 1132.94,1214.47 1138.36,1202.07 1143.78,1198.97 1149.2,1159.92 1154.62,1175.54 1160.05,1238.19 1165.47,1181.72 1170.89,1179.3 1176.31,1136.29 1181.73,1185.96 1187.15,1166.79 1192.57,1149.53 1197.99,1177.59 1203.42,1207.32 1208.84,1158.09 1214.26,1195.5 1219.68,1079.79 1225.1,1085.78 1230.52,1206.63 1235.94,1195.57 1241.37,1176.33 1246.79,1250.2 1252.21,1178.13 1257.63,1016.67 1263.05,1158.98 1268.47,1002.61 1273.89,1127.36 1279.32,1145.43 1284.74,1040.31 1290.16,1251.32 1295.58,1115.43 1301,1032.96 1306.42,900.003 1311.84,938.766 1317.27,1040.83 1322.69,1010.19 1328.11,1145.29 1333.53,968.744 1338.95,1077.7 1344.37,856.004 1349.79,992.998 1355.22,1057.92 1360.64,888.366 1366.06,1021.15 1371.48,1077.54 1376.9,999.566 1382.32,655.26 1387.74,610.26 1393.17,762.159 1398.59,949.512 1404.01,1109.2 1409.43,804.929 1414.85,668.972 1420.27,813.368 1425.69,758.6 1431.12,803.935 1436.54,702.542 1441.96,809.047 1447.38,697.168 1452.8,690.552 1458.22,542.844 1463.64,826.554 1469.07,656.446 1474.49,596.349 1479.91,774.994 1485.33,827.205 1490.75,673.44 1496.17,1138.9 1501.59,679.954 1507.02,962.378 1512.44,724.766 1517.86,678.112 1523.28,786.926 1528.7,809.415 1534.12,817.102 1539.54,699.571 1544.97,520.03 1550.39,500.349 1555.81,610.111 1561.23,703.679 1566.65,845.052 1572.07,766.112 1577.49,988.482 1582.92,994.455 1588.34,1096.47 1593.76,1005.07 1599.18,925.534 1604.6,1004.67 1610.02,765.33 1615.44,758 1620.87,773.851 1626.29,780.582 1631.71,1013.32 1637.13,921.897 1642.55,912.331 1647.97,899.065 1653.39,914.579 1658.82,1002.85 1664.24,966.472 1669.66,691.794 1675.08,760.184 1680.5,895.914 1685.92,983.592 1691.34,859.309 1696.76,1199.91 1702.19,1048.46 1707.61,845.327 1713.03,875.062 1718.45,984.969 1723.87,957.852 1729.29,1092.02 1734.71,948.72 1740.14,1104.53 1745.56,868.101 1750.98,1091.78 1756.4,976.385 1761.82,914.453 1767.24,1060.4 1772.66,978.171 1778.09,1140.72 1783.51,1100.52 1788.93,1084.14 1794.35,1056.54 1799.77,1247.81 1805.19,1079.4 1810.61,1181.88 1816.04,1094.33 1821.46,1157.29 1826.88,1142.81 1832.3,1188.03 1837.72,1118.38 1843.14,1102.01 1848.56,1193.74 1853.99,1052.02 1859.41,1130.33 1864.83,1063.01 1870.25,1105.42 1875.67,1025.73 1881.09,1095.59 1886.51,1113.29 1891.94,1102.88 1897.36,1183.86 1902.78,1216.13 1908.2,1191.59 1913.62,1166.98 1919.04,1069.12 1924.46,1183.75 1929.89,1158.55 1935.31,1167.57 1940.73,1213.61 1946.15,1249.19 1951.57,1163.64 1956.99,1190.73 1962.41,1181.57 1967.84,1193.9 1973.26,1198.07 1978.68,1240.86 1984.1,1149.61 1989.52,1204.57 1994.94,1151.46 2000.36,1238.27 2005.79,1196.73 2011.21,1255.08 2016.63,1265.97 2022.05,1253.28 2027.47,1208.29 2032.89,1227.95 2038.31,1167.32 2043.74,1206.23 2049.16,1219.51 2054.58,1190.39 2060,1209.98 2065.42,1230.35 2070.84,1216.53 2076.26,1221.47 2081.69,1255.23 2087.11,1217.68 2092.53,1233.42 2097.95,1248.82 2103.37,1263.59 2108.79,1222.08 2114.21,1227.59 2119.64,1240.09 2125.06,1220.66 2130.48,1248.06 2135.9,1215.02 2141.32,1240.81 2146.74,1257.51 2152.16,1261.94 2157.59,1244.37 2163.01,1236.74 2168.43,1280.76 2173.85,1238.31 2179.27,1248.57 2184.69,1262.85 2190.11,1251.95 2195.53,1252.16 2200.96,1264.41 2206.38,1276.24 2211.8,1267.55 2217.22,1266.48 2222.64,1259.48 2228.06,1261.41 2233.48,1271.74 2238.91,1265.09 2244.33,1252.16 2249.75,1254.6 2255.17,1286.71 2260.59,1266.77 2266.01,1258.67 2271.43,1267.68 2276.86,1236.72 2282.28,1284.66 2287.7,1270.2 2293.12,1280.04 2298.54,1289.35 2303.96,1276.5 2309.38,1289.47 2314.81,1263.73 2320.23,1262.65 2325.65,1257.79 2331.07,1266.52 2336.49,1265.9 2341.91,1276.35 2347.33,1283.68 2352.76,1292.73 "/>
<polyline clip-path="url(#clip412)" style="stroke:#3da44d; stroke-linecap:round; stroke-linejoin:round; stroke-width:4; stroke-opacity:1; fill:none" points="184.191,1198.77 189.612,1198.16 195.034,1197.53 200.455,1196.86 205.876,1196.17 211.298,1195.46 216.719,1194.71 222.141,1193.95 227.562,1193.15 232.983,1192.33 238.405,1191.48 243.826,1190.61 249.248,1189.71 254.669,1188.79 260.09,1187.84 265.512,1186.86 270.933,1185.86 276.355,1184.83 281.776,1183.77 287.198,1182.69 292.619,1181.58 298.04,1180.45 303.462,1179.29 308.883,1178.1 314.305,1176.89 319.726,1175.65 325.147,1174.38 330.569,1173.08 335.99,1171.76 341.412,1170.41 346.833,1169.03 352.254,1167.63 357.676,1166.2 363.097,1164.74 368.519,1163.25 373.94,1161.73 379.362,1160.18 384.783,1158.6 390.204,1157 395.626,1155.37 401.047,1153.7 406.469,1152.01 411.89,1150.28 417.311,1148.53 422.733,1146.74 428.154,1144.93 433.576,1143.08 438.997,1141.2 444.419,1139.29 449.84,1137.35 455.261,1135.37 460.683,1133.36 466.104,1131.32 471.526,1129.25 476.947,1127.14 482.368,1125 487.79,1122.82 493.211,1120.61 498.633,1118.36 504.054,1116.08 509.475,1113.76 514.897,1111.41 520.318,1109.02 525.74,1106.59 531.161,1104.13 536.583,1101.63 542.004,1099.09 547.425,1096.51 552.847,1093.9 558.268,1091.24 563.69,1088.54 569.111,1085.81 574.532,1083.03 579.954,1080.22 585.375,1077.36 590.797,1074.46 596.218,1071.52 601.639,1068.54 607.061,1065.51 612.482,1062.44 617.904,1059.33 623.325,1056.17 628.747,1052.97 634.168,1049.72 639.589,1046.43 645.011,1043.09 650.432,1039.7 655.854,1036.27 661.275,1032.79 666.696,1029.26 672.118,1025.69 677.539,1022.06 682.961,1018.39 688.382,1014.67 693.804,1010.89 699.225,1007.07 704.646,1003.2 710.068,999.273 715.489,995.296 720.911,991.268 726.332,987.187 731.753,983.054 737.175,978.866 742.596,974.625 748.018,970.33 753.439,965.98 758.86,961.575 764.282,957.114 769.703,952.598 775.125,948.025 780.546,943.397 785.968,938.712 791.389,933.97 796.81,929.171 802.232,924.314 807.653,919.401 813.075,914.429 818.496,909.4 823.917,904.314 829.339,899.169 834.76,893.966 840.182,888.705 845.603,883.386 851.024,878.009 856.446,872.573 861.867,867.08 867.289,861.528 872.71,855.918 878.132,850.253 883.553,844.534 888.974,838.758 894.396,832.927 899.817,827.041 905.239,821.098 910.66,815.101 916.081,809.048 921.503,802.941 926.924,796.78 932.346,790.566 937.767,784.302 943.189,777.987 948.61,771.623 954.031,765.212 959.453,758.757 964.874,752.258 970.296,745.718 975.717,739.14 981.138,732.525 986.56,725.878 991.981,719.2 997.403,712.495 1002.82,705.767 1008.25,699.018 1013.67,692.252 1019.09,685.473 1024.51,678.685 1029.93,671.892 1035.35,665.099 1040.77,658.31 1046.2,651.529 1051.62,644.762 1057.04,638.014 1062.46,631.29 1067.88,624.588 1073.3,617.913 1078.72,611.275 1084.15,604.686 1089.57,598.158 1094.99,591.701 1100.41,585.329 1105.83,579.054 1111.25,572.888 1116.67,566.845 1122.1,560.938 1127.52,555.18 1132.94,549.586 1138.36,544.17 1143.78,538.946 1149.2,533.929 1154.62,529.134 1160.05,524.577 1165.47,520.274 1170.89,516.24 1176.31,512.491 1181.73,509.045 1187.15,505.917 1192.57,503.127 1197.99,500.69 1203.42,498.624 1208.84,496.949 1214.26,495.681 1219.68,494.84 1225.1,494.445 1230.52,494.515 1235.94,495.069 1241.37,496.128 1246.79,497.711 1252.21,499.839 1257.63,502.533 1263.05,505.814 1268.47,509.709 1273.89,514.223 1279.32,519.355 1284.74,525.102 1290.16,531.456 1295.58,538.411 1301,545.958 1306.42,554.083 1311.84,562.774 1317.27,572.014 1322.69,581.786 1328.11,592.07 1333.53,602.844 1338.95,614.084 1344.37,625.764 1349.79,637.856 1355.22,650.33 1360.64,663.154 1366.06,676.294 1371.48,689.714 1376.9,703.376 1382.32,717.24 1387.74,731.262 1393.17,745.4 1398.59,759.607 1404.01,773.835 1409.43,788.033 1414.85,802.158 1420.27,816.197 1425.69,830.118 1431.12,843.889 1436.54,857.479 1441.96,870.86 1447.38,884.006 1452.8,896.894 1458.22,909.503 1463.64,921.815 1469.07,933.813 1474.49,945.484 1479.91,956.816 1485.33,967.8 1490.75,978.431 1496.17,988.704 1501.59,998.618 1507.02,1008.17 1512.44,1017.37 1517.86,1026.22 1523.28,1034.73 1528.7,1042.9 1534.12,1050.76 1539.54,1058.31 1544.97,1065.58 1550.39,1072.57 1555.81,1079.26 1561.23,1085.68 1566.65,1091.82 1572.07,1097.7 1577.49,1103.32 1582.92,1108.7 1588.34,1113.85 1593.76,1118.77 1599.18,1123.47 1604.6,1127.97 1610.02,1132.26 1615.44,1136.35 1620.87,1140.27 1626.29,1144 1631.71,1147.56 1637.13,1150.95 1642.55,1154.19 1647.97,1157.28 1653.39,1160.21 1658.82,1163.01 1664.24,1165.67 1669.66,1168.2 1675.08,1170.61 1680.5,1172.9 1685.92,1175.07 1691.34,1177.14 1696.76,1179.11 1702.19,1180.97 1707.61,1182.74 1713.03,1184.42 1718.45,1186.01 1723.87,1187.51 1729.29,1188.93 1734.71,1190.27 1740.14,1191.54 1745.56,1192.74 1750.98,1193.86 1756.4,1194.92 1761.82,1195.91 1767.24,1196.84 1772.66,1197.71 1778.09,1198.52 1783.51,1199.28 1788.93,1199.98 1794.35,1200.63 1799.77,1201.22 1805.19,1201.77 1810.61,1202.27 1816.04,1202.73 1821.46,1203.13 1826.88,1203.5 1832.3,1203.81 1837.72,1204.09 1843.14,1204.32 1848.56,1204.52 1853.99,1204.68 1859.41,1204.8 1864.83,1204.88 1870.25,1204.92 1875.67,1204.93 1881.09,1204.91 1886.51,1204.85 1891.94,1204.76 1897.36,1204.63 1902.78,1204.47 1908.2,1204.28 1913.62,1204.06 1919.04,1203.81 1924.46,1203.53 1929.89,1203.22 1935.31,1202.88 1940.73,1202.51 1946.15,1202.11 1951.57,1201.68 1956.99,1201.23 1962.41,1200.74 1967.84,1200.23 1973.26,1199.69 1978.68,1199.13 1984.1,1198.54 1989.52,1197.92 1994.94,1197.28 2000.36,1196.6 2005.79,1195.91 2011.21,1195.18 2016.63,1194.43 2022.05,1193.66 2027.47,1192.86 2032.89,1192.03 2038.31,1191.17 2043.74,1190.29 2049.16,1189.39 2054.58,1188.45 2060,1187.5 2065.42,1186.51 2070.84,1185.5 2076.26,1184.46 2081.69,1183.4 2087.11,1182.31 2092.53,1181.19 2097.95,1180.05 2103.37,1178.88 2108.79,1177.68 2114.21,1176.46 2119.64,1175.21 2125.06,1173.93 2130.48,1172.63 2135.9,1171.3 2141.32,1169.94 2146.74,1168.55 2152.16,1167.14 2157.59,1165.69 2163.01,1164.22 2168.43,1162.72 2173.85,1161.2 2179.27,1159.64 2184.69,1158.06 2190.11,1156.44 2195.53,1154.8 2200.96,1153.12 2206.38,1151.42 2211.8,1149.69 2217.22,1147.92 2222.64,1146.13 2228.06,1144.3 2233.48,1142.44 2238.91,1140.55 2244.33,1138.63 2249.75,1136.68 2255.17,1134.69 2260.59,1132.68 2266.01,1130.62 2271.43,1128.54 2276.86,1126.42 2282.28,1124.27 2287.7,1122.08 2293.12,1119.86 2298.54,1117.6 2303.96,1115.31 2309.38,1112.98 2314.81,1110.61 2320.23,1108.21 2325.65,1105.77 2331.07,1103.3 2336.49,1100.78 2341.91,1098.23 2347.33,1095.64 2352.76,1093.01 "/>
<polyline clip-path="url(#clip412)" style="stroke:#c271d2; stroke-linecap:round; stroke-linejoin:round; stroke-width:4; stroke-opacity:1; fill:none" points="184.191,1198.77 189.612,1201.13 195.034,1203.44 200.455,1205.7 205.876,1207.9 211.298,1210.06 216.719,1212.17 222.141,1214.22 227.562,1216.24 232.983,1218.2 238.405,1220.13 243.826,1222 249.248,1223.84 254.669,1225.63 260.09,1227.39 265.512,1229.1 270.933,1230.77 276.355,1232.4 281.776,1234 287.198,1235.56 292.619,1237.08 298.04,1238.56 303.462,1240.02 308.883,1241.43 314.305,1242.82 319.726,1244.17 325.147,1245.49 330.569,1246.78 335.99,1248.04 341.412,1249.27 346.833,1250.46 352.254,1251.63 357.676,1252.78 363.097,1253.89 368.519,1254.98 373.94,1256.04 379.362,1257.08 384.783,1258.09 390.204,1259.08 395.626,1260.04 401.047,1260.98 406.469,1261.89 411.89,1262.79 417.311,1263.66 422.733,1264.51 428.154,1265.33 433.576,1266.14 438.997,1266.93 444.419,1267.69 449.84,1268.44 455.261,1269.17 460.683,1269.88 466.104,1270.57 471.526,1271.24 476.947,1271.9 482.368,1272.54 487.79,1273.16 493.211,1273.77 498.633,1274.35 504.054,1274.93 509.475,1275.48 514.897,1276.02 520.318,1276.55 525.74,1277.06 531.161,1277.56 536.583,1278.04 542.004,1278.51 547.425,1278.96 552.847,1279.41 558.268,1279.83 563.69,1280.25 569.111,1280.65 574.532,1281.04 579.954,1281.41 585.375,1281.78 590.797,1282.13 596.218,1282.47 601.639,1282.79 607.061,1283.11 612.482,1283.41 617.904,1283.7 623.325,1283.98 628.747,1284.25 634.168,1284.51 639.589,1284.76 645.011,1284.99 650.432,1285.22 655.854,1285.43 661.275,1285.64 666.696,1285.83 672.118,1286.01 677.539,1286.18 682.961,1286.34 688.382,1286.49 693.804,1286.63 699.225,1286.76 704.646,1286.88 710.068,1286.99 715.489,1287.08 720.911,1287.17 726.332,1287.24 731.753,1287.31 737.175,1287.36 742.596,1287.4 748.018,1287.44 753.439,1287.46 758.86,1287.47 764.282,1287.46 769.703,1287.45 775.125,1287.43 780.546,1287.39 785.968,1287.34 791.389,1287.28 796.81,1287.21 802.232,1287.12 807.653,1287.02 813.075,1286.91 818.496,1286.78 823.917,1286.64 829.339,1286.49 834.76,1286.32 840.182,1286.14 845.603,1285.94 851.024,1285.72 856.446,1285.49 861.867,1285.24 867.289,1284.98 872.71,1284.7 878.132,1284.39 883.553,1284.07 888.974,1283.73 894.396,1283.37 899.817,1282.98 905.239,1282.57 910.66,1282.15 916.081,1281.69 921.503,1281.22 926.924,1280.72 932.346,1280.19 937.767,1279.64 943.189,1279.06 948.61,1278.45 954.031,1277.81 959.453,1277.14 964.874,1276.43 970.296,1275.69 975.717,1274.92 981.138,1274.1 986.56,1273.25 991.981,1272.35 997.403,1271.4 1002.82,1270.41 1008.25,1269.38 1013.67,1268.28 1019.09,1267.14 1024.51,1265.94 1029.93,1264.68 1035.35,1263.35 1040.77,1261.97 1046.2,1260.51 1051.62,1258.98 1057.04,1257.38 1062.46,1255.7 1067.88,1253.95 1073.3,1252.11 1078.72,1250.2 1084.15,1248.19 1089.57,1246.08 1094.99,1243.87 1100.41,1241.55 1105.83,1239.1 1111.25,1236.52 1116.67,1233.81 1122.1,1230.96 1127.52,1227.96 1132.94,1224.81 1138.36,1221.49 1143.78,1218.01 1149.2,1214.35 1154.62,1210.51 1160.05,1206.48 1165.47,1202.26 1170.89,1197.84 1176.31,1193.21 1181.73,1188.37 1187.15,1183.31 1192.57,1178.04 1197.99,1172.53 1203.42,1166.78 1208.84,1160.8 1214.26,1154.57 1219.68,1148.09 1225.1,1141.35 1230.52,1134.35 1235.94,1127.09 1241.37,1119.55 1246.79,1111.73 1252.21,1103.64 1257.63,1095.26 1263.05,1086.58 1268.47,1077.59 1273.89,1068.3 1279.32,1058.74 1284.74,1048.93 1290.16,1038.89 1295.58,1028.66 1301,1018.27 1306.42,1007.73 1311.84,997.075 1317.27,986.338 1322.69,975.545 1328.11,964.725 1333.53,953.908 1338.95,943.124 1344.37,932.403 1349.79,921.776 1355.22,911.275 1360.64,900.932 1366.06,890.778 1371.48,880.847 1376.9,871.171 1382.32,861.783 1387.74,852.719 1393.17,844.012 1398.59,835.697 1404.01,827.81 1409.43,820.385 1414.85,813.454 1420.27,807.018 1425.69,801.092 1431.12,795.689 1436.54,790.821 1441.96,786.496 1447.38,782.721 1452.8,779.501 1458.22,776.837 1463.64,774.728 1469.07,773.171 1474.49,772.16 1479.91,771.688 1485.33,771.743 1490.75,772.312 1496.17,773.381 1501.59,774.932 1507.02,776.944 1512.44,779.394 1517.86,782.257 1523.28,785.506 1528.7,789.111 1534.12,793.04 1539.54,797.256 1544.97,801.724 1550.39,806.421 1555.81,811.364 1561.23,816.535 1566.65,821.913 1572.07,827.48 1577.49,833.218 1582.92,839.109 1588.34,845.138 1593.76,851.287 1599.18,857.542 1604.6,863.888 1610.02,870.31 1615.44,876.797 1620.87,883.336 1626.29,889.914 1631.71,896.522 1637.13,903.147 1642.55,909.782 1647.97,916.416 1653.39,923.043 1658.82,929.653 1664.24,936.241 1669.66,942.8 1675.08,949.325 1680.5,955.806 1685.92,962.238 1691.34,968.616 1696.76,974.937 1702.19,981.198 1707.61,987.395 1713.03,993.527 1718.45,999.589 1723.87,1005.58 1729.29,1011.5 1734.71,1017.34 1740.14,1023.1 1745.56,1028.78 1750.98,1034.39 1756.4,1039.9 1761.82,1045.34 1767.24,1050.69 1772.66,1055.95 1778.09,1061.13 1783.51,1066.22 1788.93,1071.23 1794.35,1076.15 1799.77,1080.98 1805.19,1085.73 1810.61,1090.39 1816.04,1094.96 1821.46,1099.45 1826.88,1103.86 1832.3,1108.19 1837.72,1112.44 1843.14,1116.6 1848.56,1120.68 1853.99,1124.69 1859.41,1128.61 1864.83,1132.46 1870.25,1136.23 1875.67,1139.92 1881.09,1143.54 1886.51,1147.09 1891.94,1150.56 1897.36,1153.96 1902.78,1157.29 1908.2,1160.55 1913.62,1163.74 1919.04,1166.86 1924.46,1169.92 1929.89,1172.91 1935.31,1175.84 1940.73,1178.7 1946.15,1181.5 1951.57,1184.24 1956.99,1186.92 1962.41,1189.55 1967.84,1192.11 1973.26,1194.62 1978.68,1197.07 1984.1,1199.47 1989.52,1201.81 1994.94,1204.1 2000.36,1206.34 2005.79,1208.53 2011.21,1210.67 2016.63,1212.77 2022.05,1214.81 2027.47,1216.81 2032.89,1218.76 2038.31,1220.67 2043.74,1222.54 2049.16,1224.36 2054.58,1226.14 2060,1227.88 2065.42,1229.58 2070.84,1231.24 2076.26,1232.86 2081.69,1234.45 2087.11,1235.99 2092.53,1237.5 2097.95,1238.98 2103.37,1240.42 2108.79,1241.83 2114.21,1243.21 2119.64,1244.55 2125.06,1245.86 2130.48,1247.14 2135.9,1248.39 2141.32,1249.61 2146.74,1250.8 2152.16,1251.96 2157.59,1253.1 2163.01,1254.21 2168.43,1255.29 2173.85,1256.34 2179.27,1257.37 2184.69,1258.37 2190.11,1259.35 2195.53,1260.31 2200.96,1261.24 2206.38,1262.15 2211.8,1263.03 2217.22,1263.9 2222.64,1264.74 2228.06,1265.56 2233.48,1266.36 2238.91,1267.14 2244.33,1267.91 2249.75,1268.65 2255.17,1269.37 2260.59,1270.07 2266.01,1270.76 2271.43,1271.43 2276.86,1272.08 2282.28,1272.71 2287.7,1273.33 2293.12,1273.93 2298.54,1274.51 2303.96,1275.08 2309.38,1275.63 2314.81,1276.17 2320.23,1276.69 2325.65,1277.2 2331.07,1277.69 2336.49,1278.17 2341.91,1278.63 2347.33,1279.08 2352.76,1279.52 "/>
<path clip-path="url(#clip410)" d="M1901.23 352.309 L2280.47 352.309 L2280.47 93.1086 L1901.23 93.1086  Z" fill="#ffffff" fill-rule="evenodd" fill-opacity="1"/>
<polyline clip-path="url(#clip410)" style="stroke:#000000; stroke-linecap:round; stroke-linejoin:round; stroke-width:4; stroke-opacity:1; fill:none" points="1901.23,352.309 2280.47,352.309 2280.47,93.1086 1901.23,93.1086 1901.23,352.309 "/>
<polyline clip-path="url(#clip410)" style="stroke:#009af9; stroke-linecap:round; stroke-linejoin:round; stroke-width:4; stroke-opacity:1; fill:none" points="1925.33,144.949 2069.9,144.949 "/>
<path clip-path="url(#clip410)" d="M2115.7 146.581 L2115.7 162.229 L2111.45 162.229 L2111.45 146.719 Q2111.45 143.039 2110.01 141.21 Q2108.58 139.382 2105.7 139.382 Q2102.26 139.382 2100.26 141.581 Q2098.27 143.78 2098.27 147.576 L2098.27 162.229 L2093.99 162.229 L2093.99 136.303 L2098.27 136.303 L2098.27 140.331 Q2099.8 137.993 2101.86 136.835 Q2103.95 135.678 2106.65 135.678 Q2111.12 135.678 2113.41 138.456 Q2115.7 141.21 2115.7 146.581 Z" fill="#000000" fill-rule="nonzero" fill-opacity="1" /><path clip-path="url(#clip410)" d="M2134.25 139.289 Q2130.82 139.289 2128.83 141.974 Q2126.84 144.636 2126.84 149.289 Q2126.84 153.942 2128.81 156.627 Q2130.8 159.289 2134.25 159.289 Q2137.65 159.289 2139.64 156.604 Q2141.63 153.918 2141.63 149.289 Q2141.63 144.682 2139.64 141.997 Q2137.65 139.289 2134.25 139.289 M2134.25 135.678 Q2139.8 135.678 2142.97 139.289 Q2146.14 142.9 2146.14 149.289 Q2146.14 155.655 2142.97 159.289 Q2139.8 162.9 2134.25 162.9 Q2128.67 162.9 2125.5 159.289 Q2122.35 155.655 2122.35 149.289 Q2122.35 142.9 2125.5 139.289 Q2128.67 135.678 2134.25 135.678 Z" fill="#000000" fill-rule="nonzero" fill-opacity="1" /><path clip-path="url(#clip410)" d="M2153.2 136.303 L2157.46 136.303 L2157.46 162.229 L2153.2 162.229 L2153.2 136.303 M2153.2 126.21 L2157.46 126.21 L2157.46 131.604 L2153.2 131.604 L2153.2 126.21 Z" fill="#000000" fill-rule="nonzero" fill-opacity="1" /><path clip-path="url(#clip410)" d="M2182.9 137.067 L2182.9 141.094 Q2181.1 140.169 2179.15 139.706 Q2177.21 139.243 2175.13 139.243 Q2171.95 139.243 2170.36 140.215 Q2168.78 141.187 2168.78 143.131 Q2168.78 144.613 2169.92 145.469 Q2171.05 146.303 2174.48 147.067 L2175.94 147.391 Q2180.47 148.363 2182.37 150.145 Q2184.29 151.905 2184.29 155.076 Q2184.29 158.687 2181.42 160.793 Q2178.57 162.9 2173.57 162.9 Q2171.49 162.9 2169.22 162.483 Q2166.98 162.09 2164.48 161.28 L2164.48 156.881 Q2166.84 158.108 2169.13 158.733 Q2171.42 159.335 2173.67 159.335 Q2176.68 159.335 2178.3 158.317 Q2179.92 157.275 2179.92 155.4 Q2179.92 153.664 2178.74 152.738 Q2177.58 151.812 2173.62 150.956 L2172.14 150.608 Q2168.18 149.775 2166.42 148.062 Q2164.66 146.326 2164.66 143.317 Q2164.66 139.659 2167.26 137.669 Q2169.85 135.678 2174.62 135.678 Q2176.98 135.678 2179.06 136.025 Q2181.14 136.372 2182.9 137.067 Z" fill="#000000" fill-rule="nonzero" fill-opacity="1" /><path clip-path="url(#clip410)" d="M2201.86 164.636 Q2200.06 169.266 2198.34 170.678 Q2196.63 172.09 2193.76 172.09 L2190.36 172.09 L2190.36 168.525 L2192.86 168.525 Q2194.62 168.525 2195.59 167.692 Q2196.56 166.858 2197.74 163.756 L2198.51 161.812 L2188.02 136.303 L2192.53 136.303 L2200.63 156.581 L2208.74 136.303 L2213.25 136.303 L2201.86 164.636 Z" fill="#000000" fill-rule="nonzero" fill-opacity="1" /><path clip-path="url(#clip410)" d="M2255.75 136.303 L2246.38 148.919 L2256.24 162.229 L2251.21 162.229 L2243.67 152.043 L2236.12 162.229 L2231.1 162.229 L2241.17 148.664 L2231.95 136.303 L2236.98 136.303 L2243.85 145.539 L2250.73 136.303 L2255.75 136.303 Z" fill="#000000" fill-rule="nonzero" fill-opacity="1" /><polyline clip-path="url(#clip410)" style="stroke:#e26f46; stroke-linecap:round; stroke-linejoin:round; stroke-width:4; stroke-opacity:1; fill:none" points="1925.33,196.789 2069.9,196.789 "/>
<path clip-path="url(#clip410)" d="M2115.7 198.421 L2115.7 214.069 L2111.45 214.069 L2111.45 198.559 Q2111.45 194.879 2110.01 193.05 Q2108.58 191.222 2105.7 191.222 Q2102.26 191.222 2100.26 193.421 Q2098.27 195.62 2098.27 199.416 L2098.27 214.069 L2093.99 214.069 L2093.99 188.143 L2098.27 188.143 L2098.27 192.171 Q2099.8 189.833 2101.86 188.675 Q2103.95 187.518 2106.65 187.518 Q2111.12 187.518 2113.41 190.296 Q2115.7 193.05 2115.7 198.421 Z" fill="#000000" fill-rule="nonzero" fill-opacity="1" /><path clip-path="url(#clip410)" d="M2134.25 191.129 Q2130.82 191.129 2128.83 193.814 Q2126.84 196.476 2126.84 201.129 Q2126.84 205.782 2128.81 208.467 Q2130.8 211.129 2134.25 211.129 Q2137.65 211.129 2139.64 208.444 Q2141.63 205.758 2141.63 201.129 Q2141.63 196.522 2139.64 193.837 Q2137.65 191.129 2134.25 191.129 M2134.25 187.518 Q2139.8 187.518 2142.97 191.129 Q2146.14 194.74 2146.14 201.129 Q2146.14 207.495 2142.97 211.129 Q2139.8 214.74 2134.25 214.74 Q2128.67 214.74 2125.5 211.129 Q2122.35 207.495 2122.35 201.129 Q2122.35 194.74 2125.5 191.129 Q2128.67 187.518 2134.25 187.518 Z" fill="#000000" fill-rule="nonzero" fill-opacity="1" /><path clip-path="url(#clip410)" d="M2153.2 188.143 L2157.46 188.143 L2157.46 214.069 L2153.2 214.069 L2153.2 188.143 M2153.2 178.05 L2157.46 178.05 L2157.46 183.444 L2153.2 183.444 L2153.2 178.05 Z" fill="#000000" fill-rule="nonzero" fill-opacity="1" /><path clip-path="url(#clip410)" d="M2182.9 188.907 L2182.9 192.934 Q2181.1 192.009 2179.15 191.546 Q2177.21 191.083 2175.13 191.083 Q2171.95 191.083 2170.36 192.055 Q2168.78 193.027 2168.78 194.971 Q2168.78 196.453 2169.92 197.309 Q2171.05 198.143 2174.48 198.907 L2175.94 199.231 Q2180.47 200.203 2182.37 201.985 Q2184.29 203.745 2184.29 206.916 Q2184.29 210.527 2181.42 212.633 Q2178.57 214.74 2173.57 214.74 Q2171.49 214.74 2169.22 214.323 Q2166.98 213.93 2164.48 213.12 L2164.48 208.721 Q2166.84 209.948 2169.13 210.573 Q2171.42 211.175 2173.67 211.175 Q2176.68 211.175 2178.3 210.157 Q2179.92 209.115 2179.92 207.24 Q2179.92 205.504 2178.74 204.578 Q2177.58 203.652 2173.62 202.796 L2172.14 202.448 Q2168.18 201.615 2166.42 199.902 Q2164.66 198.166 2164.66 195.157 Q2164.66 191.499 2167.26 189.509 Q2169.85 187.518 2174.62 187.518 Q2176.98 187.518 2179.06 187.865 Q2181.14 188.212 2182.9 188.907 Z" fill="#000000" fill-rule="nonzero" fill-opacity="1" /><path clip-path="url(#clip410)" d="M2201.86 216.476 Q2200.06 221.106 2198.34 222.518 Q2196.63 223.93 2193.76 223.93 L2190.36 223.93 L2190.36 220.365 L2192.86 220.365 Q2194.62 220.365 2195.59 219.532 Q2196.56 218.698 2197.74 215.596 L2198.51 213.652 L2188.02 188.143 L2192.53 188.143 L2200.63 208.421 L2208.74 188.143 L2213.25 188.143 L2201.86 216.476 Z" fill="#000000" fill-rule="nonzero" fill-opacity="1" /><path clip-path="url(#clip410)" d="M2244.99 216.476 Q2243.18 221.106 2241.47 222.518 Q2239.75 223.93 2236.88 223.93 L2233.48 223.93 L2233.48 220.365 L2235.98 220.365 Q2237.74 220.365 2238.71 219.532 Q2239.69 218.698 2240.87 215.596 L2241.63 213.652 L2231.14 188.143 L2235.66 188.143 L2243.76 208.421 L2251.86 188.143 L2256.38 188.143 L2244.99 216.476 Z" fill="#000000" fill-rule="nonzero" fill-opacity="1" /><polyline clip-path="url(#clip410)" style="stroke:#3da44d; stroke-linecap:round; stroke-linejoin:round; stroke-width:4; stroke-opacity:1; fill:none" points="1925.33,248.629 2069.9,248.629 "/>
<path clip-path="url(#clip410)" d="M2118.64 239.983 L2109.27 252.599 L2119.13 265.909 L2114.11 265.909 L2106.56 255.723 L2099.01 265.909 L2093.99 265.909 L2104.06 252.344 L2094.85 239.983 L2099.87 239.983 L2106.75 249.219 L2113.62 239.983 L2118.64 239.983 Z" fill="#000000" fill-rule="nonzero" fill-opacity="1" /><polyline clip-path="url(#clip410)" style="stroke:#c271d2; stroke-linecap:round; stroke-linejoin:round; stroke-width:4; stroke-opacity:1; fill:none" points="1925.33,300.469 2069.9,300.469 "/>
<path clip-path="url(#clip410)" d="M2107.83 320.156 Q2106.03 324.786 2104.32 326.198 Q2102.6 327.61 2099.73 327.61 L2096.33 327.61 L2096.33 324.045 L2098.83 324.045 Q2100.59 324.045 2101.56 323.212 Q2102.53 322.378 2103.71 319.276 L2104.48 317.332 L2093.99 291.823 L2098.51 291.823 L2106.61 312.101 L2114.71 291.823 L2119.22 291.823 L2107.83 320.156 Z" fill="#000000" fill-rule="nonzero" fill-opacity="1" /></svg>
