<?xml version="1.0" encoding="utf-8"?>
<svg xmlns="http://www.w3.org/2000/svg" xmlns:xlink="http://www.w3.org/1999/xlink" width="600" height="400" viewBox="0 0 2400 1600">
<defs>
  <clipPath id="clip880">
    <rect x="0" y="0" width="2400" height="1600"/>
  </clipPath>
</defs>
<path clip-path="url(#clip880)" d="M0 1600 L2400 1600 L2400 0 L0 0  Z" fill="#ffffff" fill-rule="evenodd" fill-opacity="1"/>
<defs>
  <clipPath id="clip881">
    <rect x="480" y="0" width="1681" height="1600"/>
  </clipPath>
</defs>
<path clip-path="url(#clip880)" d="M184.191 1423.18 L2352.76 1423.18 L2352.76 47.2441 L184.191 47.2441  Z" fill="#ffffff" fill-rule="evenodd" fill-opacity="1"/>
<defs>
  <clipPath id="clip882">
    <rect x="184" y="47" width="2170" height="1377"/>
  </clipPath>
</defs>
<polyline clip-path="url(#clip882)" style="stroke:#000000; stroke-linecap:round; stroke-linejoin:round; stroke-width:2; stroke-opacity:0.1; fill:none" points="184.191,1423.18 184.191,47.2441 "/>
<polyline clip-path="url(#clip882)" style="stroke:#000000; stroke-linecap:round; stroke-linejoin:round; stroke-width:2; stroke-opacity:0.1; fill:none" points="726.332,1423.18 726.332,47.2441 "/>
<polyline clip-path="url(#clip882)" style="stroke:#000000; stroke-linecap:round; stroke-linejoin:round; stroke-width:2; stroke-opacity:0.1; fill:none" points="1268.47,1423.18 1268.47,47.2441 "/>
<polyline clip-path="url(#clip882)" style="stroke:#000000; stroke-linecap:round; stroke-linejoin:round; stroke-width:2; stroke-opacity:0.1; fill:none" points="1810.61,1423.18 1810.61,47.2441 "/>
<polyline clip-path="url(#clip882)" style="stroke:#000000; stroke-linecap:round; stroke-linejoin:round; stroke-width:2; stroke-opacity:0.1; fill:none" points="2352.76,1423.18 2352.76,47.2441 "/>
<polyline clip-path="url(#clip880)" style="stroke:#000000; stroke-linecap:round; stroke-linejoin:round; stroke-width:4; stroke-opacity:1; fill:none" points="184.191,1423.18 2352.76,1423.18 "/>
<polyline clip-path="url(#clip880)" style="stroke:#000000; stroke-linecap:round; stroke-linejoin:round; stroke-width:4; stroke-opacity:1; fill:none" points="184.191,1423.18 184.191,1404.28 "/>
<polyline clip-path="url(#clip880)" style="stroke:#000000; stroke-linecap:round; stroke-linejoin:round; stroke-width:4; stroke-opacity:1; fill:none" points="726.332,1423.18 726.332,1404.28 "/>
<polyline clip-path="url(#clip880)" style="stroke:#000000; stroke-linecap:round; stroke-linejoin:round; stroke-width:4; stroke-opacity:1; fill:none" points="1268.47,1423.18 1268.47,1404.28 "/>
<polyline clip-path="url(#clip880)" style="stroke:#000000; stroke-linecap:round; stroke-linejoin:round; stroke-width:4; stroke-opacity:1; fill:none" points="1810.61,1423.18 1810.61,1404.28 "/>
<polyline clip-path="url(#clip880)" style="stroke:#000000; stroke-linecap:round; stroke-linejoin:round; stroke-width:4; stroke-opacity:1; fill:none" points="2352.76,1423.18 2352.76,1404.28 "/>
<path clip-path="url(#clip880)" d="M184.191 1454.1 Q180.58 1454.1 178.751 1457.66 Q176.945 1461.2 176.945 1468.33 Q176.945 1475.44 178.751 1479.01 Q180.58 1482.55 184.191 1482.55 Q187.825 1482.55 189.63 1479.01 Q191.459 1475.44 191.459 1468.33 Q191.459 1461.2 189.63 1457.66 Q187.825 1454.1 184.191 1454.1 M184.191 1450.39 Q190.001 1450.39 193.056 1455 Q196.135 1459.58 196.135 1468.33 Q196.135 1477.06 193.056 1481.67 Q190.001 1486.25 184.191 1486.25 Q178.381 1486.25 175.302 1481.67 Q172.246 1477.06 172.246 1468.33 Q172.246 1459.58 175.302 1455 Q178.381 1450.39 184.191 1450.39 Z" fill="#000000" fill-rule="nonzero" fill-opacity="1" /><path clip-path="url(#clip880)" d="M716.714 1481.64 L724.353 1481.64 L724.353 1455.28 L716.043 1456.95 L716.043 1452.69 L724.307 1451.02 L728.982 1451.02 L728.982 1481.64 L736.621 1481.64 L736.621 1485.58 L716.714 1485.58 L716.714 1481.64 Z" fill="#000000" fill-rule="nonzero" fill-opacity="1" /><path clip-path="url(#clip880)" d="M1263.13 1481.64 L1279.45 1481.64 L1279.45 1485.58 L1257.5 1485.58 L1257.5 1481.64 Q1260.16 1478.89 1264.75 1474.26 Q1269.35 1469.61 1270.53 1468.27 Q1272.78 1465.74 1273.66 1464.01 Q1274.56 1462.25 1274.56 1460.56 Q1274.56 1457.8 1272.62 1456.07 Q1270.7 1454.33 1267.59 1454.33 Q1265.39 1454.33 1262.94 1455.09 Q1260.51 1455.86 1257.73 1457.41 L1257.73 1452.69 Q1260.56 1451.55 1263.01 1450.97 Q1265.46 1450.39 1267.5 1450.39 Q1272.87 1450.39 1276.07 1453.08 Q1279.26 1455.77 1279.26 1460.26 Q1279.26 1462.39 1278.45 1464.31 Q1277.66 1466.2 1275.56 1468.8 Q1274.98 1469.47 1271.88 1472.69 Q1268.77 1475.88 1263.13 1481.64 Z" fill="#000000" fill-rule="nonzero" fill-opacity="1" /><path clip-path="url(#clip880)" d="M1814.86 1466.95 Q1818.22 1467.66 1820.09 1469.93 Q1821.99 1472.2 1821.99 1475.53 Q1821.99 1480.65 1818.47 1483.45 Q1814.95 1486.25 1808.47 1486.25 Q1806.3 1486.25 1803.98 1485.81 Q1801.69 1485.39 1799.24 1484.54 L1799.24 1480.02 Q1801.18 1481.16 1803.5 1481.74 Q1805.81 1482.32 1808.33 1482.32 Q1812.73 1482.32 1815.02 1480.58 Q1817.34 1478.84 1817.34 1475.53 Q1817.34 1472.48 1815.19 1470.77 Q1813.06 1469.03 1809.24 1469.03 L1805.21 1469.03 L1805.21 1465.19 L1809.42 1465.19 Q1812.87 1465.19 1814.7 1463.82 Q1816.53 1462.43 1816.53 1459.84 Q1816.53 1457.18 1814.63 1455.77 Q1812.76 1454.33 1809.24 1454.33 Q1807.32 1454.33 1805.12 1454.75 Q1802.92 1455.16 1800.28 1456.04 L1800.28 1451.88 Q1802.94 1451.14 1805.26 1450.77 Q1807.59 1450.39 1809.65 1450.39 Q1814.98 1450.39 1818.08 1452.83 Q1821.18 1455.23 1821.18 1459.35 Q1821.18 1462.22 1819.54 1464.21 Q1817.89 1466.18 1814.86 1466.95 Z" fill="#000000" fill-rule="nonzero" fill-opacity="1" /><path clip-path="url(#clip880)" d="M2355.77 1455.09 L2343.96 1473.54 L2355.77 1473.54 L2355.77 1455.09 M2354.54 1451.02 L2360.42 1451.02 L2360.42 1473.54 L2365.35 1473.54 L2365.35 1477.43 L2360.42 1477.43 L2360.42 1485.58 L2355.77 1485.58 L2355.77 1477.43 L2340.16 1477.43 L2340.16 1472.92 L2354.54 1451.02 Z" fill="#000000" fill-rule="nonzero" fill-opacity="1" /><path clip-path="url(#clip880)" d="M1267.53 1522.27 L1267.53 1532.4 L1279.6 1532.4 L1279.6 1536.95 L1267.53 1536.95 L1267.53 1556.3 Q1267.53 1560.66 1268.71 1561.9 Q1269.92 1563.14 1273.58 1563.14 L1279.6 1563.14 L1279.6 1568.04 L1273.58 1568.04 Q1266.8 1568.04 1264.22 1565.53 Q1261.65 1562.98 1261.65 1556.3 L1261.65 1536.95 L1257.35 1536.95 L1257.35 1532.4 L1261.65 1532.4 L1261.65 1522.27 L1267.53 1522.27 Z" fill="#000000" fill-rule="nonzero" fill-opacity="1" /><polyline clip-path="url(#clip882)" style="stroke:#000000; stroke-linecap:round; stroke-linejoin:round; stroke-width:2; stroke-opacity:0.1; fill:none" points="184.191,1381.18 2352.76,1381.18 "/>
<polyline clip-path="url(#clip882)" style="stroke:#000000; stroke-linecap:round; stroke-linejoin:round; stroke-width:2; stroke-opacity:0.1; fill:none" points="184.191,1092.42 2352.76,1092.42 "/>
<polyline clip-path="url(#clip882)" style="stroke:#000000; stroke-linecap:round; stroke-linejoin:round; stroke-width:2; stroke-opacity:0.1; fill:none" points="184.191,803.648 2352.76,803.648 "/>
<polyline clip-path="url(#clip882)" style="stroke:#000000; stroke-linecap:round; stroke-linejoin:round; stroke-width:2; stroke-opacity:0.1; fill:none" points="184.191,514.88 2352.76,514.88 "/>
<polyline clip-path="url(#clip882)" style="stroke:#000000; stroke-linecap:round; stroke-linejoin:round; stroke-width:2; stroke-opacity:0.1; fill:none" points="184.191,226.112 2352.76,226.112 "/>
<polyline clip-path="url(#clip880)" style="stroke:#000000; stroke-linecap:round; stroke-linejoin:round; stroke-width:4; stroke-opacity:1; fill:none" points="184.191,1423.18 184.191,47.2441 "/>
<polyline clip-path="url(#clip880)" style="stroke:#000000; stroke-linecap:round; stroke-linejoin:round; stroke-width:4; stroke-opacity:1; fill:none" points="184.191,1381.18 203.088,1381.18 "/>
<polyline clip-path="url(#clip880)" style="stroke:#000000; stroke-linecap:round; stroke-linejoin:round; stroke-width:4; stroke-opacity:1; fill:none" points="184.191,1092.42 203.088,1092.42 "/>
<polyline clip-path="url(#clip880)" style="stroke:#000000; stroke-linecap:round; stroke-linejoin:round; stroke-width:4; stroke-opacity:1; fill:none" points="184.191,803.648 203.088,803.648 "/>
<polyline clip-path="url(#clip880)" style="stroke:#000000; stroke-linecap:round; stroke-linejoin:round; stroke-width:4; stroke-opacity:1; fill:none" points="184.191,514.88 203.088,514.88 "/>
<polyline clip-path="url(#clip880)" style="stroke:#000000; stroke-linecap:round; stroke-linejoin:round; stroke-width:4; stroke-opacity:1; fill:none" points="184.191,226.112 203.088,226.112 "/>
<path clip-path="url(#clip880)" d="M91.0151 1366.98 Q87.404 1366.98 85.5753 1370.55 Q83.7697 1374.09 83.7697 1381.22 Q83.7697 1388.33 85.5753 1391.89 Q87.404 1395.43 91.0151 1395.43 Q94.6493 1395.43 96.4548 1391.89 Q98.2835 1388.33 98.2835 1381.22 Q98.2835 1374.09 96.4548 1370.55 Q94.6493 1366.98 91.0151 1366.98 M91.0151 1363.28 Q96.8252 1363.28 99.8808 1367.89 Q102.959 1372.47 102.959 1381.22 Q102.959 1389.95 99.8808 1394.55 Q96.8252 1399.14 91.0151 1399.14 Q85.2049 1399.14 82.1262 1394.55 Q79.0707 1389.95 79.0707 1381.22 Q79.0707 1372.47 82.1262 1367.89 Q85.2049 1363.28 91.0151 1363.28 Z" fill="#000000" fill-rule="nonzero" fill-opacity="1" /><path clip-path="url(#clip880)" d="M111.177 1392.58 L116.061 1392.58 L116.061 1398.46 L111.177 1398.46 L111.177 1392.58 Z" fill="#000000" fill-rule="nonzero" fill-opacity="1" /><path clip-path="url(#clip880)" d="M136.246 1366.98 Q132.635 1366.98 130.807 1370.55 Q129.001 1374.09 129.001 1381.22 Q129.001 1388.33 130.807 1391.89 Q132.635 1395.43 136.246 1395.43 Q139.881 1395.43 141.686 1391.89 Q143.515 1388.33 143.515 1381.22 Q143.515 1374.09 141.686 1370.55 Q139.881 1366.98 136.246 1366.98 M136.246 1363.28 Q142.056 1363.28 145.112 1367.89 Q148.191 1372.47 148.191 1381.22 Q148.191 1389.95 145.112 1394.55 Q142.056 1399.14 136.246 1399.14 Q130.436 1399.14 127.357 1394.55 Q124.302 1389.95 124.302 1381.22 Q124.302 1372.47 127.357 1367.89 Q130.436 1363.28 136.246 1363.28 Z" fill="#000000" fill-rule="nonzero" fill-opacity="1" /><path clip-path="url(#clip880)" d="M86.0382 1105.76 L102.358 1105.76 L102.358 1109.7 L80.4133 1109.7 L80.4133 1105.76 Q83.0753 1103.01 87.6586 1098.38 Q92.2651 1093.72 93.4456 1092.38 Q95.691 1089.86 96.5706 1088.12 Q97.4734 1086.36 97.4734 1084.67 Q97.4734 1081.92 95.5289 1080.18 Q93.6076 1078.45 90.5058 1078.45 Q88.3067 1078.45 85.8531 1079.21 Q83.4225 1079.97 80.6447 1081.53 L80.6447 1076.8 Q83.4688 1075.67 85.9225 1075.09 Q88.3762 1074.51 90.4132 1074.51 Q95.7836 1074.51 98.978 1077.2 Q102.172 1079.88 102.172 1084.37 Q102.172 1086.5 101.362 1088.42 Q100.575 1090.32 98.4687 1092.91 Q97.89 1093.59 94.7882 1096.8 Q91.6864 1100 86.0382 1105.76 Z" fill="#000000" fill-rule="nonzero" fill-opacity="1" /><path clip-path="url(#clip880)" d="M112.172 1103.82 L117.057 1103.82 L117.057 1109.7 L112.172 1109.7 L112.172 1103.82 Z" fill="#000000" fill-rule="nonzero" fill-opacity="1" /><path clip-path="url(#clip880)" d="M127.288 1075.14 L145.644 1075.14 L145.644 1079.07 L131.57 1079.07 L131.57 1087.54 Q132.589 1087.2 133.607 1087.03 Q134.626 1086.85 135.644 1086.85 Q141.431 1086.85 144.811 1090.02 Q148.191 1093.19 148.191 1098.61 Q148.191 1104.19 144.718 1107.29 Q141.246 1110.37 134.927 1110.37 Q132.751 1110.37 130.482 1110 Q128.237 1109.63 125.83 1108.89 L125.83 1104.19 Q127.913 1105.32 130.135 1105.88 Q132.357 1106.43 134.834 1106.43 Q138.839 1106.43 141.177 1104.33 Q143.515 1102.22 143.515 1098.61 Q143.515 1095 141.177 1092.89 Q138.839 1090.78 134.834 1090.78 Q132.959 1090.78 131.084 1091.2 Q129.232 1091.62 127.288 1092.5 L127.288 1075.14 Z" fill="#000000" fill-rule="nonzero" fill-opacity="1" /><path clip-path="url(#clip880)" d="M81.0614 786.368 L99.4178 786.368 L99.4178 790.304 L85.3438 790.304 L85.3438 798.776 Q86.3623 798.429 87.3808 798.267 Q88.3993 798.081 89.4178 798.081 Q95.2049 798.081 98.5845 801.253 Q101.964 804.424 101.964 809.841 Q101.964 815.419 98.4919 818.521 Q95.0197 821.6 88.7003 821.6 Q86.5243 821.6 84.2558 821.229 Q82.0105 820.859 79.6031 820.118 L79.6031 815.419 Q81.6864 816.553 83.9086 817.109 Q86.1308 817.665 88.6077 817.665 Q92.6123 817.665 94.9502 815.558 Q97.2882 813.452 97.2882 809.841 Q97.2882 806.229 94.9502 804.123 Q92.6123 802.017 88.6077 802.017 Q86.7327 802.017 84.8577 802.433 Q83.0058 802.85 81.0614 803.729 L81.0614 786.368 Z" fill="#000000" fill-rule="nonzero" fill-opacity="1" /><path clip-path="url(#clip880)" d="M111.177 815.049 L116.061 815.049 L116.061 820.928 L111.177 820.928 L111.177 815.049 Z" fill="#000000" fill-rule="nonzero" fill-opacity="1" /><path clip-path="url(#clip880)" d="M136.246 789.447 Q132.635 789.447 130.807 793.012 Q129.001 796.554 129.001 803.683 Q129.001 810.79 130.807 814.354 Q132.635 817.896 136.246 817.896 Q139.881 817.896 141.686 814.354 Q143.515 810.79 143.515 803.683 Q143.515 796.554 141.686 793.012 Q139.881 789.447 136.246 789.447 M136.246 785.743 Q142.056 785.743 145.112 790.35 Q148.191 794.933 148.191 803.683 Q148.191 812.41 145.112 817.016 Q142.056 821.6 136.246 821.6 Q130.436 821.6 127.357 817.016 Q124.302 812.41 124.302 803.683 Q124.302 794.933 127.357 790.35 Q130.436 785.743 136.246 785.743 Z" fill="#000000" fill-rule="nonzero" fill-opacity="1" /><path clip-path="url(#clip880)" d="M80.8299 497.6 L103.052 497.6 L103.052 499.591 L90.5058 532.16 L85.6216 532.16 L97.4271 501.536 L80.8299 501.536 L80.8299 497.6 Z" fill="#000000" fill-rule="nonzero" fill-opacity="1" /><path clip-path="url(#clip880)" d="M112.172 526.281 L117.057 526.281 L117.057 532.16 L112.172 532.16 L112.172 526.281 Z" fill="#000000" fill-rule="nonzero" fill-opacity="1" /><path clip-path="url(#clip880)" d="M127.288 497.6 L145.644 497.6 L145.644 501.536 L131.57 501.536 L131.57 510.008 Q132.589 509.661 133.607 509.499 Q134.626 509.313 135.644 509.313 Q141.431 509.313 144.811 512.485 Q148.191 515.656 148.191 521.073 Q148.191 526.651 144.718 529.753 Q141.246 532.832 134.927 532.832 Q132.751 532.832 130.482 532.461 Q128.237 532.091 125.83 531.35 L125.83 526.651 Q127.913 527.785 130.135 528.341 Q132.357 528.897 134.834 528.897 Q138.839 528.897 141.177 526.79 Q143.515 524.684 143.515 521.073 Q143.515 517.461 141.177 515.355 Q138.839 513.248 134.834 513.248 Q132.959 513.248 131.084 513.665 Q129.232 514.082 127.288 514.961 L127.288 497.6 Z" fill="#000000" fill-rule="nonzero" fill-opacity="1" /><path clip-path="url(#clip880)" d="M51.6634 239.457 L59.3023 239.457 L59.3023 213.092 L50.9921 214.758 L50.9921 210.499 L59.256 208.832 L63.9319 208.832 L63.9319 239.457 L71.5707 239.457 L71.5707 243.392 L51.6634 243.392 L51.6634 239.457 Z" fill="#000000" fill-rule="nonzero" fill-opacity="1" /><path clip-path="url(#clip880)" d="M91.0151 211.911 Q87.404 211.911 85.5753 215.476 Q83.7697 219.018 83.7697 226.147 Q83.7697 233.254 85.5753 236.818 Q87.404 240.36 91.0151 240.36 Q94.6493 240.36 96.4548 236.818 Q98.2835 233.254 98.2835 226.147 Q98.2835 219.018 96.4548 215.476 Q94.6493 211.911 91.0151 211.911 M91.0151 208.207 Q96.8252 208.207 99.8808 212.814 Q102.959 217.397 102.959 226.147 Q102.959 234.874 99.8808 239.48 Q96.8252 244.064 91.0151 244.064 Q85.2049 244.064 82.1262 239.48 Q79.0707 234.874 79.0707 226.147 Q79.0707 217.397 82.1262 212.814 Q85.2049 208.207 91.0151 208.207 Z" fill="#000000" fill-rule="nonzero" fill-opacity="1" /><path clip-path="url(#clip880)" d="M111.177 237.513 L116.061 237.513 L116.061 243.392 L111.177 243.392 L111.177 237.513 Z" fill="#000000" fill-rule="nonzero" fill-opacity="1" /><path clip-path="url(#clip880)" d="M136.246 211.911 Q132.635 211.911 130.807 215.476 Q129.001 219.018 129.001 226.147 Q129.001 233.254 130.807 236.818 Q132.635 240.36 136.246 240.36 Q139.881 240.36 141.686 236.818 Q143.515 233.254 143.515 226.147 Q143.515 219.018 141.686 215.476 Q139.881 211.911 136.246 211.911 M136.246 208.207 Q142.056 208.207 145.112 212.814 Q148.191 217.397 148.191 226.147 Q148.191 234.874 145.112 239.48 Q142.056 244.064 136.246 244.064 Q130.436 244.064 127.357 239.48 Q124.302 234.874 124.302 226.147 Q124.302 217.397 127.357 212.814 Q130.436 208.207 136.246 208.207 Z" fill="#000000" fill-rule="nonzero" fill-opacity="1" /><polyline clip-path="url(#clip882)" style="stroke:#009af9; stroke-linecap:round; stroke-linejoin:round; stroke-width:4; stroke-opacity:1; fill:none" points="184.191,1305.27 189.612,1266.09 195.034,1280.39 200.455,1267.43 205.876,1332.64 211.298,1220.57 216.719,1288.2 222.141,1309.38 227.562,1273.56 232.983,1275.94 238.405,1279.7 243.826,1247.23 249.248,1227.58 254.669,1279.76 260.09,1271.61 265.512,1289.86 270.933,1288.12 276.355,1190.19 281.776,1256.79 287.198,1205.1 292.619,1255.91 298.04,1167.65 303.462,1202.92 308.883,1190.27 314.305,1291.44 319.726,1238.49 325.147,1185.57 330.569,1211.88 335.99,1249.07 341.412,1230.61 346.833,1239.74 352.254,1250.57 357.676,1258.92 363.097,1175.1 368.519,1218.45 373.94,1143.01 379.362,1179.7 384.783,1233.85 390.204,1185.29 395.626,1189.61 401.047,1300.96 406.469,1233.15 411.89,1213.55 417.311,1144.03 422.733,1212.63 428.154,1230.49 433.576,1198.03 438.997,1195.73 444.419,1168.7 449.84,1248.51 455.261,1189.44 460.683,1230.34 466.104,1237.46 471.526,1223.99 476.947,1224.19 482.368,1140.77 487.79,1161.63 493.211,1115.04 498.633,1111.97 504.054,1133.45 509.475,1210.56 514.897,1171.41 520.318,1183.33 525.74,1250.34 531.161,1191.33 536.583,1194.98 542.004,1089.91 547.425,1166.55 552.847,1105.93 558.268,1228.52 563.69,1151.97 569.111,1183.94 574.532,1130.19 579.954,1147.49 585.375,1220.46 590.797,1167.01 596.218,1027.65 601.639,1154.76 607.061,1188.43 612.482,1210.23 617.904,1091.52 623.325,1069.38 628.747,1270.81 634.168,1188.85 639.589,970.948 645.011,1150.56 650.432,948.687 655.854,970.982 661.275,1076.55 666.696,972.157 672.118,1094.43 677.539,1140.28 682.961,1092.51 688.382,1101.95 693.804,984.675 699.225,1080.85 704.646,1245.96 710.068,933.84 715.489,1073.88 720.911,975.94 726.332,986.218 731.753,936.002 737.175,1044.57 742.596,1216.78 748.018,1045.13 753.439,1077.75 758.86,964.4 764.282,1128.91 769.703,1188.47 775.125,831.048 780.546,911.056 785.968,1121.28 791.389,1035.12 796.81,1065.83 802.232,1034.61 807.653,916.004 813.075,933.598 818.496,1069.95 823.917,1022.57 829.339,1384.24 834.76,1000.43 840.182,1107.48 845.603,919.352 851.024,828.747 856.446,862.549 861.867,868.26 867.289,786.286 872.71,1016.26 878.132,983.475 883.553,1081.58 888.974,1108.35 894.396,1082.77 899.817,926.901 905.239,894.963 910.66,790.766 916.081,881.684 921.503,959.36 926.924,697.273 932.346,1207.64 937.767,882.013 943.189,846.931 948.61,618.596 954.031,679.549 959.453,928.114 964.874,1022.3 970.296,855.939 975.717,933.812 981.138,1078.55 986.56,1087.65 991.981,797.531 997.403,1241.21 1002.82,811.397 1008.25,1011.92 1013.67,1002.68 1019.09,635.309 1024.51,807.871 1029.93,687.276 1035.35,443.004 1040.77,688.136 1046.2,701.233 1051.62,572.324 1057.04,1097.68 1062.46,737.429 1067.88,759.47 1073.3,471.119 1078.72,933.127 1084.15,473.433 1089.57,944.844 1094.99,396.961 1100.41,320.894 1105.83,317.465 1111.25,743.892 1116.67,714.744 1122.1,631.7 1127.52,680.53 1132.94,393.651 1138.36,857.537 1143.78,505.129 1149.2,687.021 1154.62,745.736 1160.05,276.481 1165.47,740.579 1170.89,825.438 1176.31,407.167 1181.73,655.289 1187.15,686.035 1192.57,693.088 1197.99,388.218 1203.42,1005.51 1208.84,794.41 1214.26,418.871 1219.68,563.828 1225.1,86.1857 1230.52,1106.57 1235.94,577.798 1241.37,609.466 1246.79,653.942 1252.21,650.812 1257.63,1098.28 1263.05,425.009 1268.47,304.913 1273.89,811.091 1279.32,268.591 1284.74,1132.02 1290.16,305.367 1295.58,593.276 1301,681.61 1306.42,431.557 1311.84,786.911 1317.27,867.737 1322.69,910.869 1328.11,798.195 1333.53,721.317 1338.95,690.887 1344.37,844.185 1349.79,570.414 1355.22,514.753 1360.64,489.274 1366.06,1252.2 1371.48,1071.99 1376.9,1007.56 1382.32,795.718 1387.74,1015.11 1393.17,1065.15 1398.59,879.863 1404.01,1016.03 1409.43,763.648 1414.85,918.006 1420.27,882.099 1425.69,830.76 1431.12,900.665 1436.54,976.017 1441.96,1135.36 1447.38,946.894 1452.8,845.408 1458.22,1292.96 1463.64,1140.72 1469.07,985.044 1474.49,1111.71 1479.91,1119.99 1485.33,1033.48 1490.75,1128.25 1496.17,1043.95 1501.59,1211.62 1507.02,1135.74 1512.44,1207.65 1517.86,1221.19 1523.28,1164.83 1528.7,1100.31 1534.12,1272.65 1539.54,1170.28 1544.97,1065.93 1550.39,1143.87 1555.81,1160.58 1561.23,1180.38 1566.65,1134.92 1572.07,1187.3 1577.49,1376.05 1582.92,1154.17 1588.34,1262.42 1593.76,1223.08 1599.18,1263.03 1604.6,1209.45 1610.02,1236.75 1615.44,1119.64 1620.87,1326.83 1626.29,1265.5 1631.71,1339.36 1637.13,1227.07 1642.55,1191.97 1647.97,1205.2 1653.39,1252.2 1658.82,1240.31 1664.24,1180.45 1669.66,1212.08 1675.08,1221.32 1680.5,1217.51 1685.92,1264.04 1691.34,1330.91 1696.76,1214.33 1702.19,1280.05 1707.61,1228.27 1713.03,1255.08 1718.45,1267.68 1723.87,1215.08 1729.29,1209.62 1734.71,1271.72 1740.14,1263.92 1745.56,1309.03 1750.98,1250.34 1756.4,1286.1 1761.82,1320.81 1767.24,1288.24 1772.66,1255.45 1778.09,1266.62 1783.51,1293.99 1788.93,1228.09 1794.35,1300.55 1799.77,1361.6 1805.19,1264.63 1810.61,1272.82 1816.04,1278.16 1821.46,1284.81 1826.88,1275.26 1832.3,1236.91 1837.72,1238.12 1843.14,1200.81 1848.56,1232.13 1853.99,1320.02 1859.41,1242.84 1864.83,1218.73 1870.25,1250.61 1875.67,1273.44 1881.09,1355.97 1886.51,1234.31 1891.94,1246.29 1897.36,1284.97 1902.78,1238.93 1908.2,1275.04 1913.62,1265.06 1919.04,1290.12 1924.46,1304.43 1929.89,1282.97 1935.31,1327.16 1940.73,1314.57 1946.15,1316.42 1951.57,1291.96 1956.99,1230.33 1962.41,1233.93 1967.84,1297.05 1973.26,1271.83 1978.68,1223.85 1984.1,1296.65 1989.52,1268.12 1994.94,1245.47 2000.36,1278.62 2005.79,1214.22 2011.21,1266.08 2016.63,1175.38 2022.05,1271.12 2027.47,1295.11 2032.89,1223.2 2038.31,1321.39 2043.74,1133.13 2049.16,1210.15 2054.58,1207.74 2060,1211.96 2065.42,1270.32 2070.84,1259.15 2076.26,1277.81 2081.69,1251.04 2087.11,1352.24 2092.53,1209.76 2097.95,1210.65 2103.37,1201.27 2108.79,1255.06 2114.21,1271.5 2119.64,1262.86 2125.06,1237.68 2130.48,1184.33 2135.9,1237.13 2141.32,1225.99 2146.74,1273.13 2152.16,1236.48 2157.59,1282.03 2163.01,1208.81 2168.43,1207.81 2173.85,1296 2179.27,1220.26 2184.69,1206.24 2190.11,1161.9 2195.53,1213.42 2200.96,1193.63 2206.38,1258.02 2211.8,1176.04 2217.22,1282.5 2222.64,1183.9 2228.06,1200.7 2233.48,1198.72 2238.91,1229.12 2244.33,1226.79 2249.75,1183.11 2255.17,1164.32 2260.59,1244.8 2266.01,1268.43 2271.43,1238.8 2276.86,1141.15 2282.28,1209.03 2287.7,1188.51 2293.12,1075.18 2298.54,1093.29 2303.96,1150.65 2309.38,1251.79 2314.81,1190.78 2320.23,1232.49 2325.65,1170.1 2331.07,1192.6 2336.49,1149.54 2341.91,1188.78 2347.33,1179.87 2352.76,1364.04 "/>
<polyline clip-path="url(#clip882)" style="stroke:#e26f46; stroke-linecap:round; stroke-linejoin:round; stroke-width:4; stroke-opacity:1; fill:none" points="184.191,1295.79 189.612,1292.23 195.034,1268.65 200.455,1216.98 205.876,1265.67 211.298,1340.55 216.719,1279.17 222.141,1297.22 227.562,1263.08 232.983,1280.97 238.405,1320.95 243.826,1260.54 249.248,1290.28 254.669,1306.72 260.09,1329.08 265.512,1295.13 270.933,1285.94 276.355,1270.11 281.776,1312.18 287.198,1329.6 292.619,1283.14 298.04,1297.41 303.462,1303.91 308.883,1307.58 314.305,1291.58 319.726,1343.13 325.147,1332.1 330.569,1296.79 335.99,1313.76 341.412,1281.65 346.833,1343.77 352.254,1308.04 357.676,1289.91 363.097,1271.45 368.519,1332.08 373.94,1324.08 379.362,1345.92 384.783,1323.76 390.204,1316.36 395.626,1334.17 401.047,1331.85 406.469,1328.32 411.89,1344.85 417.311,1337.55 422.733,1339.26 428.154,1309.97 433.576,1326.53 438.997,1329.64 444.419,1323.72 449.84,1336.13 455.261,1353.83 460.683,1348.88 466.104,1335.34 471.526,1331.2 476.947,1331.72 482.368,1316.56 487.79,1344.1 493.211,1347.86 498.633,1338.66 504.054,1323.54 509.475,1346.68 514.897,1334.07 520.318,1340.1 525.74,1347.48 531.161,1320.92 536.583,1354.2 542.004,1345.7 547.425,1341.55 552.847,1347.4 558.268,1352.39 563.69,1353.27 569.111,1352.49 574.532,1335.77 579.954,1349.3 585.375,1346.7 590.797,1367.47 596.218,1334.45 601.639,1334.13 607.061,1353.26 612.482,1342.37 617.904,1347 623.325,1357.48 628.747,1342.96 634.168,1338.15 639.589,1357.77 645.011,1348.74 650.432,1340.94 655.854,1361.57 661.275,1349.16 666.696,1340.33 672.118,1351.4 677.539,1346.39 682.961,1348.47 688.382,1334.61 693.804,1363.24 699.225,1357.22 704.646,1346.06 710.068,1358.52 715.489,1342.52 720.911,1362.61 726.332,1338.17 731.753,1361.43 737.175,1352.39 742.596,1333.57 748.018,1352.2 753.439,1345.84 758.86,1355.28 764.282,1361.67 769.703,1349.47 775.125,1349.15 780.546,1357.11 785.968,1336.34 791.389,1350.78 796.81,1361.94 802.232,1359.05 807.653,1338.57 813.075,1350.62 818.496,1355.33 823.917,1348.36 829.339,1351.76 834.76,1353.85 840.182,1358.62 845.603,1329.5 851.024,1347.68 856.446,1349.52 861.867,1341.1 867.289,1345.87 872.71,1356.77 878.132,1326.06 883.553,1356.47 888.974,1350.11 894.396,1343.33 899.817,1353.43 905.239,1345.86 910.66,1339.15 916.081,1324.85 921.503,1329.67 926.924,1348.62 932.346,1322.6 937.767,1345.53 943.189,1334.99 948.61,1353.41 954.031,1344.31 959.453,1341.64 964.874,1339.57 970.296,1334.61 975.717,1336.42 981.138,1337.51 986.56,1326.19 991.981,1354.82 997.403,1345.51 1002.82,1334.6 1008.25,1344.76 1013.67,1332.25 1019.09,1321.97 1024.51,1363.55 1029.93,1314.32 1035.35,1330.46 1040.77,1333.78 1046.2,1355.95 1051.62,1329.57 1057.04,1319.37 1062.46,1340.9 1067.88,1306.86 1073.3,1319.27 1078.72,1302.26 1084.15,1296.37 1089.57,1286.07 1094.99,1304.58 1100.41,1286.31 1105.83,1303.95 1111.25,1328.06 1116.67,1307.14 1122.1,1335.88 1127.52,1286.45 1132.94,1306.57 1138.36,1312.96 1143.78,1310.2 1149.2,1270.1 1154.62,1273 1160.05,1249.92 1165.47,1266.8 1170.89,1314.37 1176.31,1290.3 1181.73,1314.51 1187.15,1325.12 1192.57,1279.07 1197.99,1329.97 1203.42,1171.14 1208.84,1219.33 1214.26,1199.71 1219.68,1338.54 1225.1,1223.11 1230.52,1165.01 1235.94,1189.79 1241.37,1165.5 1246.79,1130.4 1252.21,1320.7 1257.63,1224.96 1263.05,1180.88 1268.47,1116.69 1273.89,1175.83 1279.32,1157.55 1284.74,1244.67 1290.16,1195 1295.58,1167.44 1301,1004.83 1306.42,1021.54 1311.84,1119.41 1317.27,1138.78 1322.69,918.79 1328.11,1019.29 1333.53,1089.57 1338.95,963.785 1344.37,1109.89 1349.79,1155.62 1355.22,1184.5 1360.64,1032.42 1366.06,1047.32 1371.48,671.169 1376.9,940.665 1382.32,1080.99 1387.74,856.321 1393.17,928.944 1398.59,881.351 1404.01,710.768 1409.43,671.821 1414.85,887.437 1420.27,1041.98 1425.69,947.475 1431.12,791.373 1436.54,876.05 1441.96,902.239 1447.38,981.98 1452.8,764.787 1458.22,580.099 1463.64,889.348 1469.07,1029.74 1474.49,609.245 1479.91,785.833 1485.33,900.363 1490.75,907.895 1496.17,1011.69 1501.59,1065.14 1507.02,610.059 1512.44,868.817 1517.86,779.306 1523.28,724.758 1528.7,968.648 1534.12,859.663 1539.54,719.062 1544.97,669.578 1550.39,936.561 1555.81,987.504 1561.23,1085.22 1566.65,850.123 1572.07,857.492 1577.49,915.027 1582.92,959.091 1588.34,867.682 1593.76,1027.51 1599.18,878.833 1604.6,853.545 1610.02,1054.7 1615.44,700.931 1620.87,1001.55 1626.29,958.94 1631.71,1168.18 1637.13,850.174 1642.55,872.778 1647.97,1190.53 1653.39,1120.61 1658.82,877.055 1664.24,990.558 1669.66,934.137 1675.08,1112.7 1680.5,903.139 1685.92,995.289 1691.34,1019.7 1696.76,1028 1702.19,898.413 1707.61,996.826 1713.03,1069.12 1718.45,921.585 1723.87,972.101 1729.29,1072.15 1734.71,1088.93 1740.14,1107.8 1745.56,906.1 1750.98,1187.45 1756.4,1212.17 1761.82,1173.06 1767.24,1188.76 1772.66,1187.18 1778.09,1165.61 1783.51,1240.46 1788.93,1140.66 1794.35,1130.21 1799.77,1153.14 1805.19,1170.22 1810.61,1094.34 1816.04,1196.41 1821.46,1190.72 1826.88,1211.32 1832.3,1106.63 1837.72,1230.27 1843.14,1117.19 1848.56,1183.52 1853.99,1116.88 1859.41,1296.37 1864.83,1172.11 1870.25,1276.34 1875.67,1248.67 1881.09,1248.03 1886.51,1237.69 1891.94,1199.89 1897.36,1213.39 1902.78,1271.51 1908.2,1258.26 1913.62,1210.06 1919.04,1171.29 1924.46,1177.76 1929.89,1245.05 1935.31,1230.45 1940.73,1159.19 1946.15,1197.52 1951.57,1228.62 1956.99,1269.76 1962.41,1208.8 1967.84,1205.17 1973.26,1263.38 1978.68,1259.74 1984.1,1294.12 1989.52,1256.83 1994.94,1305.36 2000.36,1304.37 2005.79,1311.68 2011.21,1289.47 2016.63,1286.2 2022.05,1270.94 2027.47,1237.69 2032.89,1255.76 2038.31,1271.98 2043.74,1326.87 2049.16,1314.19 2054.58,1241.11 2060,1278.89 2065.42,1294.81 2070.84,1309.06 2076.26,1287.22 2081.69,1285.52 2087.11,1299.4 2092.53,1306.78 2097.95,1311.49 2103.37,1282.72 2108.79,1315.52 2114.21,1323.86 2119.64,1295.51 2125.06,1317.12 2130.48,1305.08 2135.9,1320.3 2141.32,1324.34 2146.74,1313.96 2152.16,1336.32 2157.59,1318.12 2163.01,1331.63 2168.43,1319.69 2173.85,1336.88 2179.27,1319.64 2184.69,1305.8 2190.11,1314.84 2195.53,1324.98 2200.96,1309.81 2206.38,1311.97 2211.8,1320.75 2217.22,1354.28 2222.64,1332.68 2228.06,1324.12 2233.48,1325.31 2238.91,1341.34 2244.33,1313.27 2249.75,1332.34 2255.17,1346.37 2260.59,1323.31 2266.01,1333.2 2271.43,1343.69 2276.86,1332.29 2282.28,1326.54 2287.7,1325.52 2293.12,1335.38 2298.54,1355.67 2303.96,1333.86 2309.38,1331.37 2314.81,1337.93 2320.23,1345.35 2325.65,1330.74 2331.07,1333.17 2336.49,1347.82 2341.91,1336.34 2347.33,1358.54 2352.76,1343.2 "/>
<polyline clip-path="url(#clip882)" style="stroke:#3da44d; stroke-linecap:round; stroke-linejoin:round; stroke-width:4; stroke-opacity:1; fill:none" points="184.191,1265.68 189.612,1265.09 195.034,1264.47 200.455,1263.83 205.876,1263.16 211.298,1262.47 216.719,1261.75 222.141,1261.01 227.562,1260.24 232.983,1259.44 238.405,1258.62 243.826,1257.78 249.248,1256.91 254.669,1256.01 260.09,1255.09 265.512,1254.15 270.933,1253.18 276.355,1252.18 281.776,1251.16 287.198,1250.11 292.619,1249.04 298.04,1247.94 303.462,1246.82 308.883,1245.67 314.305,1244.5 319.726,1243.3 325.147,1242.07 330.569,1240.82 335.99,1239.54 341.412,1238.23 346.833,1236.9 352.254,1235.54 357.676,1234.15 363.097,1232.74 368.519,1231.29 373.94,1229.82 379.362,1228.33 384.783,1226.8 390.204,1225.25 395.626,1223.67 401.047,1222.06 406.469,1220.42 411.89,1218.75 417.311,1217.05 422.733,1215.32 428.154,1213.56 433.576,1211.78 438.997,1209.96 444.419,1208.11 449.84,1206.23 455.261,1204.32 460.683,1202.37 466.104,1200.4 471.526,1198.39 476.947,1196.35 482.368,1194.28 487.79,1192.17 493.211,1190.03 498.633,1187.86 504.054,1185.65 509.475,1183.41 514.897,1181.13 520.318,1178.81 525.74,1176.47 531.161,1174.08 536.583,1171.66 542.004,1169.2 547.425,1166.71 552.847,1164.18 558.268,1161.61 563.69,1159 569.111,1156.35 574.532,1153.66 579.954,1150.94 585.375,1148.17 590.797,1145.37 596.218,1142.52 601.639,1139.63 607.061,1136.7 612.482,1133.73 617.904,1130.72 623.325,1127.66 628.747,1124.56 634.168,1121.42 639.589,1118.23 645.011,1115 650.432,1111.73 655.854,1108.4 661.275,1105.04 666.696,1101.62 672.118,1098.16 677.539,1094.66 682.961,1091.1 688.382,1087.5 693.804,1083.85 699.225,1080.15 704.646,1076.4 710.068,1072.6 715.489,1068.75 720.911,1064.85 726.332,1060.9 731.753,1056.9 737.175,1052.85 742.596,1048.75 748.018,1044.59 753.439,1040.38 758.86,1036.12 764.282,1031.8 769.703,1027.43 775.125,1023 780.546,1018.52 785.968,1013.99 791.389,1009.4 796.81,1004.75 802.232,1000.05 807.653,995.299 813.075,990.488 818.496,985.621 823.917,980.698 829.339,975.719 834.76,970.683 840.182,965.592 845.603,960.444 851.024,955.24 856.446,949.979 861.867,944.663 867.289,939.29 872.71,933.861 878.132,928.378 883.553,922.842 888.974,917.253 894.396,911.61 899.817,905.913 905.239,900.161 910.66,894.357 916.081,888.499 921.503,882.588 926.924,876.626 932.346,870.613 937.767,864.549 943.189,858.438 948.61,852.279 954.031,846.075 959.453,839.827 964.874,833.537 970.296,827.208 975.717,820.841 981.138,814.44 986.56,808.007 991.981,801.544 997.403,795.055 1002.82,788.543 1008.25,782.011 1013.67,775.463 1019.09,768.902 1024.51,762.333 1029.93,755.759 1035.35,749.184 1040.77,742.614 1046.2,736.051 1051.62,729.502 1057.04,722.972 1062.46,716.464 1067.88,709.978 1073.3,703.518 1078.72,697.093 1084.15,690.717 1089.57,684.398 1094.99,678.15 1100.41,671.983 1105.83,665.909 1111.25,659.942 1116.67,654.094 1122.1,648.377 1127.52,642.804 1132.94,637.39 1138.36,632.149 1143.78,627.093 1149.2,622.237 1154.62,617.597 1160.05,613.187 1165.47,609.022 1170.89,605.117 1176.31,601.49 1181.73,598.154 1187.15,595.128 1192.57,592.427 1197.99,590.068 1203.42,588.069 1208.84,586.447 1214.26,585.221 1219.68,584.407 1225.1,584.024 1230.52,584.092 1235.94,584.628 1241.37,585.653 1246.79,587.185 1252.21,589.245 1257.63,591.852 1263.05,595.027 1268.47,598.797 1273.89,603.166 1279.32,608.133 1284.74,613.694 1290.16,619.844 1295.58,626.575 1301,633.879 1306.42,641.743 1311.84,650.154 1317.27,659.096 1322.69,668.554 1328.11,678.507 1333.53,688.934 1338.95,699.812 1344.37,711.116 1349.79,722.819 1355.22,734.891 1360.64,747.302 1366.06,760.019 1371.48,773.007 1376.9,786.229 1382.32,799.646 1387.74,813.218 1393.17,826.901 1398.59,840.65 1404.01,854.42 1409.43,868.161 1414.85,881.831 1420.27,895.418 1425.69,908.891 1431.12,922.218 1436.54,935.371 1441.96,948.321 1447.38,961.044 1452.8,973.517 1458.22,985.721 1463.64,997.636 1469.07,1009.25 1474.49,1020.54 1479.91,1031.51 1485.33,1042.14 1490.75,1052.43 1496.17,1062.37 1501.59,1071.97 1507.02,1081.21 1512.44,1090.12 1517.86,1098.68 1523.28,1106.91 1528.7,1114.82 1534.12,1122.43 1539.54,1129.74 1544.97,1136.77 1550.39,1143.53 1555.81,1150.02 1561.23,1156.22 1566.65,1162.17 1572.07,1167.86 1577.49,1173.3 1582.92,1178.51 1588.34,1183.49 1593.76,1188.25 1599.18,1192.8 1604.6,1197.15 1610.02,1201.3 1615.44,1205.27 1620.87,1209.05 1626.29,1212.67 1631.71,1216.11 1637.13,1219.4 1642.55,1222.53 1647.97,1225.52 1653.39,1228.36 1658.82,1231.06 1664.24,1233.64 1669.66,1236.09 1675.08,1238.42 1680.5,1240.63 1685.92,1242.74 1691.34,1244.74 1696.76,1246.64 1702.19,1248.45 1707.61,1250.16 1713.03,1251.78 1718.45,1253.32 1723.87,1254.78 1729.29,1256.15 1734.71,1257.45 1740.14,1258.68 1745.56,1259.83 1750.98,1260.92 1756.4,1261.95 1761.82,1262.91 1767.24,1263.81 1772.66,1264.65 1778.09,1265.43 1783.51,1266.16 1788.93,1266.84 1794.35,1267.47 1799.77,1268.05 1805.19,1268.58 1810.61,1269.06 1816.04,1269.5 1821.46,1269.9 1826.88,1270.25 1832.3,1270.56 1837.72,1270.82 1843.14,1271.05 1848.56,1271.24 1853.99,1271.39 1859.41,1271.51 1864.83,1271.59 1870.25,1271.63 1875.67,1271.64 1881.09,1271.62 1886.51,1271.56 1891.94,1271.47 1897.36,1271.35 1902.78,1271.19 1908.2,1271.01 1913.62,1270.8 1919.04,1270.55 1924.46,1270.28 1929.89,1269.98 1935.31,1269.65 1940.73,1269.29 1946.15,1268.9 1951.57,1268.49 1956.99,1268.05 1962.41,1267.58 1967.84,1267.09 1973.26,1266.57 1978.68,1266.02 1984.1,1265.45 1989.52,1264.85 1994.94,1264.23 2000.36,1263.58 2005.79,1262.9 2011.21,1262.2 2016.63,1261.48 2022.05,1260.73 2027.47,1259.95 2032.89,1259.15 2038.31,1258.32 2043.74,1257.47 2049.16,1256.59 2054.58,1255.69 2060,1254.76 2065.42,1253.81 2070.84,1252.83 2076.26,1251.83 2081.69,1250.8 2087.11,1249.74 2092.53,1248.66 2097.95,1247.56 2103.37,1246.42 2108.79,1245.27 2114.21,1244.08 2119.64,1242.87 2125.06,1241.64 2130.48,1240.38 2135.9,1239.09 2141.32,1237.77 2146.74,1236.43 2152.16,1235.06 2157.59,1233.66 2163.01,1232.24 2168.43,1230.79 2173.85,1229.31 2179.27,1227.81 2184.69,1226.27 2190.11,1224.71 2195.53,1223.12 2200.96,1221.5 2206.38,1219.85 2211.8,1218.17 2217.22,1216.46 2222.64,1214.73 2228.06,1212.96 2233.48,1211.16 2238.91,1209.33 2244.33,1207.47 2249.75,1205.58 2255.17,1203.66 2260.59,1201.71 2266.01,1199.72 2271.43,1197.7 2276.86,1195.65 2282.28,1193.57 2287.7,1191.45 2293.12,1189.3 2298.54,1187.12 2303.96,1184.9 2309.38,1182.64 2314.81,1180.35 2320.23,1178.03 2325.65,1175.67 2331.07,1173.27 2336.49,1170.84 2341.91,1168.37 2347.33,1165.87 2352.76,1163.32 "/>
<polyline clip-path="url(#clip882)" style="stroke:#c271d2; stroke-linecap:round; stroke-linejoin:round; stroke-width:4; stroke-opacity:1; fill:none" points="184.191,1265.68 189.612,1267.96 195.034,1270.19 200.455,1272.38 205.876,1274.51 211.298,1276.6 216.719,1278.64 222.141,1280.63 227.562,1282.58 232.983,1284.48 238.405,1286.34 243.826,1288.16 249.248,1289.94 254.669,1291.67 260.09,1293.37 265.512,1295.02 270.933,1296.64 276.355,1298.22 281.776,1299.77 287.198,1301.28 292.619,1302.75 298.04,1304.19 303.462,1305.59 308.883,1306.96 314.305,1308.3 319.726,1309.61 325.147,1310.89 330.569,1312.14 335.99,1313.36 341.412,1314.54 346.833,1315.7 352.254,1316.84 357.676,1317.94 363.097,1319.02 368.519,1320.07 373.94,1321.1 379.362,1322.11 384.783,1323.08 390.204,1324.04 395.626,1324.97 401.047,1325.88 406.469,1326.76 411.89,1327.63 417.311,1328.47 422.733,1329.29 428.154,1330.09 433.576,1330.88 438.997,1331.64 444.419,1332.38 449.84,1333.1 455.261,1333.81 460.683,1334.5 466.104,1335.16 471.526,1335.82 476.947,1336.45 482.368,1337.07 487.79,1337.67 493.211,1338.26 498.633,1338.82 504.054,1339.38 509.475,1339.92 514.897,1340.44 520.318,1340.95 525.74,1341.45 531.161,1341.93 536.583,1342.39 542.004,1342.85 547.425,1343.29 552.847,1343.71 558.268,1344.13 563.69,1344.53 569.111,1344.92 574.532,1345.29 579.954,1345.66 585.375,1346.01 590.797,1346.35 596.218,1346.68 601.639,1346.99 607.061,1347.3 612.482,1347.59 617.904,1347.87 623.325,1348.15 628.747,1348.41 634.168,1348.66 639.589,1348.89 645.011,1349.12 650.432,1349.34 655.854,1349.55 661.275,1349.74 666.696,1349.93 672.118,1350.11 677.539,1350.27 682.961,1350.43 688.382,1350.57 693.804,1350.71 699.225,1350.83 704.646,1350.95 710.068,1351.05 715.489,1351.14 720.911,1351.23 726.332,1351.3 731.753,1351.36 737.175,1351.41 742.596,1351.46 748.018,1351.49 753.439,1351.51 758.86,1351.52 764.282,1351.51 769.703,1351.5 775.125,1351.48 780.546,1351.44 785.968,1351.39 791.389,1351.34 796.81,1351.26 802.232,1351.18 807.653,1351.09 813.075,1350.98 818.496,1350.86 823.917,1350.72 829.339,1350.57 834.76,1350.41 840.182,1350.23 845.603,1350.04 851.024,1349.83 856.446,1349.61 861.867,1349.37 867.289,1349.11 872.71,1348.84 878.132,1348.54 883.553,1348.23 888.974,1347.9 894.396,1347.55 899.817,1347.17 905.239,1346.78 910.66,1346.37 916.081,1345.93 921.503,1345.47 926.924,1344.98 932.346,1344.48 937.767,1343.94 943.189,1343.38 948.61,1342.79 954.031,1342.17 959.453,1341.52 964.874,1340.84 970.296,1340.12 975.717,1339.37 981.138,1338.58 986.56,1337.75 991.981,1336.88 997.403,1335.97 1002.82,1335.01 1008.25,1334.01 1013.67,1332.95 1019.09,1331.84 1024.51,1330.68 1029.93,1329.46 1035.35,1328.18 1040.77,1326.84 1046.2,1325.43 1051.62,1323.95 1057.04,1322.4 1062.46,1320.77 1067.88,1319.07 1073.3,1317.3 1078.72,1315.45 1084.15,1313.5 1089.57,1311.47 1094.99,1309.32 1100.41,1307.07 1105.83,1304.7 1111.25,1302.21 1116.67,1299.59 1122.1,1296.83 1127.52,1293.93 1132.94,1290.87 1138.36,1287.66 1143.78,1284.29 1149.2,1280.75 1154.62,1277.03 1160.05,1273.14 1165.47,1269.05 1170.89,1264.77 1176.31,1260.29 1181.73,1255.61 1187.15,1250.72 1192.57,1245.61 1197.99,1240.28 1203.42,1234.72 1208.84,1228.93 1214.26,1222.9 1219.68,1216.62 1225.1,1210.1 1230.52,1203.33 1235.94,1196.3 1241.37,1189 1246.79,1181.44 1252.21,1173.61 1257.63,1165.49 1263.05,1157.1 1268.47,1148.4 1273.89,1139.41 1279.32,1130.15 1284.74,1120.66 1290.16,1110.95 1295.58,1101.05 1301,1090.98 1306.42,1080.78 1311.84,1070.47 1317.27,1060.08 1322.69,1049.64 1328.11,1039.16 1333.53,1028.7 1338.95,1018.26 1344.37,1007.88 1349.79,997.598 1355.22,987.435 1360.64,977.425 1366.06,967.598 1371.48,957.986 1376.9,948.622 1382.32,939.537 1387.74,930.764 1393.17,922.338 1398.59,914.291 1404.01,906.657 1409.43,899.472 1414.85,892.763 1420.27,886.535 1425.69,880.799 1431.12,875.57 1436.54,870.858 1441.96,866.673 1447.38,863.02 1452.8,859.904 1458.22,857.325 1463.64,855.284 1469.07,853.777 1474.49,852.799 1479.91,852.342 1485.33,852.395 1490.75,852.946 1496.17,853.981 1501.59,855.481 1507.02,857.428 1512.44,859.8 1517.86,862.571 1523.28,865.715 1528.7,869.204 1534.12,873.006 1539.54,877.087 1544.97,881.411 1550.39,885.957 1555.81,890.741 1561.23,895.745 1566.65,900.95 1572.07,906.338 1577.49,911.891 1582.92,917.593 1588.34,923.427 1593.76,929.378 1599.18,935.432 1604.6,941.573 1610.02,947.789 1615.44,954.067 1620.87,960.396 1626.29,966.762 1631.71,973.157 1637.13,979.569 1642.55,985.99 1647.97,992.411 1653.39,998.824 1658.82,1005.22 1664.24,1011.6 1669.66,1017.95 1675.08,1024.26 1680.5,1030.53 1685.92,1036.76 1691.34,1042.93 1696.76,1049.05 1702.19,1055.11 1707.61,1061.1 1713.03,1067.04 1718.45,1072.91 1723.87,1078.7 1729.29,1084.43 1734.71,1090.08 1740.14,1095.66 1745.56,1101.16 1750.98,1106.58 1756.4,1111.92 1761.82,1117.18 1767.24,1122.36 1772.66,1127.46 1778.09,1132.47 1783.51,1137.4 1788.93,1142.24 1794.35,1147 1799.77,1151.68 1805.19,1156.27 1810.61,1160.78 1816.04,1165.21 1821.46,1169.56 1826.88,1173.82 1832.3,1178.01 1837.72,1182.12 1843.14,1186.15 1848.56,1190.1 1853.99,1193.98 1859.41,1197.78 1864.83,1201.5 1870.25,1205.15 1875.67,1208.72 1881.09,1212.22 1886.51,1215.65 1891.94,1219.02 1897.36,1222.31 1902.78,1225.53 1908.2,1228.68 1913.62,1231.77 1919.04,1234.79 1924.46,1237.75 1929.89,1240.65 1935.31,1243.48 1940.73,1246.25 1946.15,1248.96 1951.57,1251.62 1956.99,1254.21 1962.41,1256.75 1967.84,1259.23 1973.26,1261.66 1978.68,1264.03 1984.1,1266.35 1989.52,1268.62 1994.94,1270.83 2000.36,1273 2005.79,1275.12 2011.21,1277.19 2016.63,1279.22 2022.05,1281.2 2027.47,1283.13 2032.89,1285.02 2038.31,1286.87 2043.74,1288.68 2049.16,1290.44 2054.58,1292.16 2060,1293.85 2065.42,1295.49 2070.84,1297.1 2076.26,1298.67 2081.69,1300.2 2087.11,1301.7 2092.53,1303.16 2097.95,1304.59 2103.37,1305.99 2108.79,1307.35 2114.21,1308.68 2119.64,1309.98 2125.06,1311.25 2130.48,1312.49 2135.9,1313.7 2141.32,1314.88 2146.74,1316.03 2152.16,1317.16 2157.59,1318.25 2163.01,1319.33 2168.43,1320.37 2173.85,1321.39 2179.27,1322.39 2184.69,1323.36 2190.11,1324.31 2195.53,1325.23 2200.96,1326.13 2206.38,1327.01 2211.8,1327.87 2217.22,1328.71 2222.64,1329.52 2228.06,1330.32 2233.48,1331.09 2238.91,1331.85 2244.33,1332.58 2249.75,1333.3 2255.17,1334 2260.59,1334.68 2266.01,1335.35 2271.43,1335.99 2276.86,1336.62 2282.28,1337.23 2287.7,1337.83 2293.12,1338.41 2298.54,1338.98 2303.96,1339.53 2309.38,1340.06 2314.81,1340.58 2320.23,1341.09 2325.65,1341.58 2331.07,1342.05 2336.49,1342.52 2341.91,1342.96 2347.33,1343.4 2352.76,1343.82 "/>
<path clip-path="url(#clip880)" d="M1901.23 352.309 L2280.47 352.309 L2280.47 93.1086 L1901.23 93.1086  Z" fill="#ffffff" fill-rule="evenodd" fill-opacity="1"/>
<polyline clip-path="url(#clip880)" style="stroke:#000000; stroke-linecap:round; stroke-linejoin:round; stroke-width:4; stroke-opacity:1; fill:none" points="1901.23,352.309 2280.47,352.309 2280.47,93.1086 1901.23,93.1086 1901.23,352.309 "/>
<polyline clip-path="url(#clip880)" style="stroke:#009af9; stroke-linecap:round; stroke-linejoin:round; stroke-width:4; stroke-opacity:1; fill:none" points="1925.33,144.949 2069.9,144.949 "/>
<path clip-path="url(#clip880)" d="M2115.7 146.581 L2115.7 162.229 L2111.45 162.229 L2111.45 146.719 Q2111.45 143.039 2110.01 141.21 Q2108.58 139.382 2105.7 139.382 Q2102.26 139.382 2100.26 141.581 Q2098.27 143.78 2098.27 147.576 L2098.27 162.229 L2093.99 162.229 L2093.99 136.303 L2098.27 136.303 L2098.27 140.331 Q2099.8 137.993 2101.86 136.835 Q2103.95 135.678 2106.65 135.678 Q2111.12 135.678 2113.41 138.456 Q2115.7 141.21 2115.7 146.581 Z" fill="#000000" fill-rule="nonzero" fill-opacity="1" /><path clip-path="url(#clip880)" d="M2134.25 139.289 Q2130.82 139.289 2128.83 141.974 Q2126.84 144.636 2126.84 149.289 Q2126.84 153.942 2128.81 156.627 Q2130.8 159.289 2134.25 159.289 Q2137.65 159.289 2139.64 156.604 Q2141.63 153.918 2141.63 149.289 Q2141.63 144.682 2139.64 141.997 Q2137.65 139.289 2134.25 139.289 M2134.25 135.678 Q2139.8 135.678 2142.97 139.289 Q2146.14 142.9 2146.14 149.289 Q2146.14 155.655 2142.97 159.289 Q2139.8 162.9 2134.25 162.9 Q2128.67 162.9 2125.5 159.289 Q2122.35 155.655 2122.35 149.289 Q2122.35 142.9 2125.5 139.289 Q2128.67 135.678 2134.25 135.678 Z" fill="#000000" fill-rule="nonzero" fill-opacity="1" /><path clip-path="url(#clip880)" d="M2153.2 136.303 L2157.46 136.303 L2157.46 162.229 L2153.2 162.229 L2153.2 136.303 M2153.2 126.21 L2157.46 126.21 L2157.46 131.604 L2153.2 131.604 L2153.2 126.21 Z" fill="#000000" fill-rule="nonzero" fill-opacity="1" /><path clip-path="url(#clip880)" d="M2182.9 137.067 L2182.9 141.094 Q2181.1 140.169 2179.15 139.706 Q2177.21 139.243 2175.13 139.243 Q2171.95 139.243 2170.36 140.215 Q2168.78 141.187 2168.78 143.131 Q2168.78 144.613 2169.92 145.469 Q2171.05 146.303 2174.48 147.067 L2175.94 147.391 Q2180.47 148.363 2182.37 150.145 Q2184.29 151.905 2184.29 155.076 Q2184.29 158.687 2181.42 160.793 Q2178.57 162.9 2173.57 162.9 Q2171.49 162.9 2169.22 162.483 Q2166.98 162.09 2164.48 161.28 L2164.48 156.881 Q2166.84 158.108 2169.13 158.733 Q2171.42 159.335 2173.67 159.335 Q2176.68 159.335 2178.3 158.317 Q2179.92 157.275 2179.92 155.4 Q2179.92 153.664 2178.74 152.738 Q2177.58 151.812 2173.62 150.956 L2172.14 150.608 Q2168.18 149.775 2166.42 148.062 Q2164.66 146.326 2164.66 143.317 Q2164.66 139.659 2167.26 137.669 Q2169.85 135.678 2174.62 135.678 Q2176.98 135.678 2179.06 136.025 Q2181.14 136.372 2182.9 137.067 Z" fill="#000000" fill-rule="nonzero" fill-opacity="1" /><path clip-path="url(#clip880)" d="M2201.86 164.636 Q2200.06 169.266 2198.34 170.678 Q2196.63 172.09 2193.76 172.09 L2190.36 172.09 L2190.36 168.525 L2192.86 168.525 Q2194.62 168.525 2195.59 167.692 Q2196.56 166.858 2197.74 163.756 L2198.51 161.812 L2188.02 136.303 L2192.53 136.303 L2200.63 156.581 L2208.74 136.303 L2213.25 136.303 L2201.86 164.636 Z" fill="#000000" fill-rule="nonzero" fill-opacity="1" /><path clip-path="url(#clip880)" d="M2255.75 136.303 L2246.38 148.919 L2256.24 162.229 L2251.21 162.229 L2243.67 152.043 L2236.12 162.229 L2231.1 162.229 L2241.17 148.664 L2231.95 136.303 L2236.98 136.303 L2243.85 145.539 L2250.73 136.303 L2255.75 136.303 Z" fill="#000000" fill-rule="nonzero" fill-opacity="1" /><polyline clip-path="url(#clip880)" style="stroke:#e26f46; stroke-linecap:round; stroke-linejoin:round; stroke-width:4; stroke-opacity:1; fill:none" points="1925.33,196.789 2069.9,196.789 "/>
<path clip-path="url(#clip880)" d="M2115.7 198.421 L2115.7 214.069 L2111.45 214.069 L2111.45 198.559 Q2111.45 194.879 2110.01 193.05 Q2108.58 191.222 2105.7 191.222 Q2102.26 191.222 2100.26 193.421 Q2098.27 195.62 2098.27 199.416 L2098.27 214.069 L2093.99 214.069 L2093.99 188.143 L2098.27 188.143 L2098.27 192.171 Q2099.8 189.833 2101.86 188.675 Q2103.95 187.518 2106.65 187.518 Q2111.12 187.518 2113.41 190.296 Q2115.7 193.05 2115.7 198.421 Z" fill="#000000" fill-rule="nonzero" fill-opacity="1" /><path clip-path="url(#clip880)" d="M2134.25 191.129 Q2130.82 191.129 2128.83 193.814 Q2126.84 196.476 2126.84 201.129 Q2126.84 205.782 2128.81 208.467 Q2130.8 211.129 2134.25 211.129 Q2137.65 211.129 2139.64 208.444 Q2141.63 205.758 2141.63 201.129 Q2141.63 196.522 2139.64 193.837 Q2137.65 191.129 2134.25 191.129 M2134.25 187.518 Q2139.8 187.518 2142.97 191.129 Q2146.14 194.74 2146.14 201.129 Q2146.14 207.495 2142.97 211.129 Q2139.8 214.74 2134.25 214.74 Q2128.67 214.74 2125.5 211.129 Q2122.35 207.495 2122.35 201.129 Q2122.35 194.74 2125.5 191.129 Q2128.67 187.518 2134.25 187.518 Z" fill="#000000" fill-rule="nonzero" fill-opacity="1" /><path clip-path="url(#clip880)" d="M2153.2 188.143 L2157.46 188.143 L2157.46 214.069 L2153.2 214.069 L2153.2 188.143 M2153.2 178.05 L2157.46 178.05 L2157.46 183.444 L2153.2 183.444 L2153.2 178.05 Z" fill="#000000" fill-rule="nonzero" fill-opacity="1" /><path clip-path="url(#clip880)" d="M2182.9 188.907 L2182.9 192.934 Q2181.1 192.009 2179.15 191.546 Q2177.21 191.083 2175.13 191.083 Q2171.95 191.083 2170.36 192.055 Q2168.78 193.027 2168.78 194.971 Q2168.78 196.453 2169.92 197.309 Q2171.05 198.143 2174.48 198.907 L2175.94 199.231 Q2180.47 200.203 2182.37 201.985 Q2184.29 203.745 2184.29 206.916 Q2184.29 210.527 2181.42 212.633 Q2178.57 214.74 2173.57 214.74 Q2171.49 214.74 2169.22 214.323 Q2166.98 213.93 2164.48 213.12 L2164.48 208.721 Q2166.84 209.948 2169.13 210.573 Q2171.42 211.175 2173.67 211.175 Q2176.68 211.175 2178.3 210.157 Q2179.92 209.115 2179.92 207.24 Q2179.92 205.504 2178.74 204.578 Q2177.58 203.652 2173.62 202.796 L2172.14 202.448 Q2168.18 201.615 2166.42 199.902 Q2164.66 198.166 2164.66 195.157 Q2164.66 191.499 2167.26 189.509 Q2169.85 187.518 2174.62 187.518 Q2176.98 187.518 2179.06 187.865 Q2181.14 188.212 2182.9 188.907 Z" fill="#000000" fill-rule="nonzero" fill-opacity="1" /><path clip-path="url(#clip880)" d="M2201.86 216.476 Q2200.06 221.106 2198.34 222.518 Q2196.63 223.93 2193.76 223.93 L2190.36 223.93 L2190.36 220.365 L2192.86 220.365 Q2194.62 220.365 2195.59 219.532 Q2196.56 218.698 2197.74 215.596 L2198.51 213.652 L2188.02 188.143 L2192.53 188.143 L2200.63 208.421 L2208.74 188.143 L2213.25 188.143 L2201.86 216.476 Z" fill="#000000" fill-rule="nonzero" fill-opacity="1" /><path clip-path="url(#clip880)" d="M2244.99 216.476 Q2243.18 221.106 2241.47 222.518 Q2239.75 223.93 2236.88 223.93 L2233.48 223.93 L2233.48 220.365 L2235.98 220.365 Q2237.74 220.365 2238.71 219.532 Q2239.69 218.698 2240.87 215.596 L2241.63 213.652 L2231.14 188.143 L2235.66 188.143 L2243.76 208.421 L2251.86 188.143 L2256.38 188.143 L2244.99 216.476 Z" fill="#000000" fill-rule="nonzero" fill-opacity="1" /><polyline clip-path="url(#clip880)" style="stroke:#3da44d; stroke-linecap:round; stroke-linejoin:round; stroke-width:4; stroke-opacity:1; fill:none" points="1925.33,248.629 2069.9,248.629 "/>
<path clip-path="url(#clip880)" d="M2118.64 239.983 L2109.27 252.599 L2119.13 265.909 L2114.11 265.909 L2106.56 255.723 L2099.01 265.909 L2093.99 265.909 L2104.06 252.344 L2094.85 239.983 L2099.87 239.983 L2106.75 249.219 L2113.62 239.983 L2118.64 239.983 Z" fill="#000000" fill-rule="nonzero" fill-opacity="1" /><polyline clip-path="url(#clip880)" style="stroke:#c271d2; stroke-linecap:round; stroke-linejoin:round; stroke-width:4; stroke-opacity:1; fill:none" points="1925.33,300.469 2069.9,300.469 "/>
<path clip-path="url(#clip880)" d="M2107.83 320.156 Q2106.03 324.786 2104.32 326.198 Q2102.6 327.61 2099.73 327.61 L2096.33 327.61 L2096.33 324.045 L2098.83 324.045 Q2100.59 324.045 2101.56 323.212 Q2102.53 322.378 2103.71 319.276 L2104.48 317.332 L2093.99 291.823 L2098.51 291.823 L2106.61 312.101 L2114.71 291.823 L2119.22 291.823 L2107.83 320.156 Z" fill="#000000" fill-rule="nonzero" fill-opacity="1" /></svg>
