<?xml version="1.0" encoding="utf-8"?>
<svg xmlns="http://www.w3.org/2000/svg" xmlns:xlink="http://www.w3.org/1999/xlink" width="600" height="400" viewBox="0 0 2400 1600">
<defs>
  <clipPath id="clip000">
    <rect x="0" y="0" width="2400" height="1600"/>
  </clipPath>
</defs>
<path clip-path="url(#clip000)" d="M0 1600 L2400 1600 L2400 0 L0 0  Z" fill="#ffffff" fill-rule="evenodd" fill-opacity="1"/>
<defs>
  <clipPath id="clip001">
    <rect x="480" y="0" width="1681" height="1600"/>
  </clipPath>
</defs>
<path clip-path="url(#clip000)" d="M170.857 1486.45 L2352.76 1486.45 L2352.76 47.2441 L170.857 47.2441  Z" fill="#ffffff" fill-rule="evenodd" fill-opacity="1"/>
<defs>
  <clipPath id="clip002">
    <rect x="170" y="47" width="2183" height="1440"/>
  </clipPath>
</defs>
<polyline clip-path="url(#clip002)" style="stroke:#000000; stroke-linecap:round; stroke-linejoin:round; stroke-width:2; stroke-opacity:0.1; fill:none" points="326.173,1486.45 326.173,47.2441 "/>
<polyline clip-path="url(#clip002)" style="stroke:#000000; stroke-linecap:round; stroke-linejoin:round; stroke-width:2; stroke-opacity:0.1; fill:none" points="793.99,1486.45 793.99,47.2441 "/>
<polyline clip-path="url(#clip002)" style="stroke:#000000; stroke-linecap:round; stroke-linejoin:round; stroke-width:2; stroke-opacity:0.1; fill:none" points="1261.81,1486.45 1261.81,47.2441 "/>
<polyline clip-path="url(#clip002)" style="stroke:#000000; stroke-linecap:round; stroke-linejoin:round; stroke-width:2; stroke-opacity:0.1; fill:none" points="1729.62,1486.45 1729.62,47.2441 "/>
<polyline clip-path="url(#clip002)" style="stroke:#000000; stroke-linecap:round; stroke-linejoin:round; stroke-width:2; stroke-opacity:0.1; fill:none" points="2197.44,1486.45 2197.44,47.2441 "/>
<polyline clip-path="url(#clip000)" style="stroke:#000000; stroke-linecap:round; stroke-linejoin:round; stroke-width:4; stroke-opacity:1; fill:none" points="170.857,1486.45 2352.76,1486.45 "/>
<polyline clip-path="url(#clip000)" style="stroke:#000000; stroke-linecap:round; stroke-linejoin:round; stroke-width:4; stroke-opacity:1; fill:none" points="326.173,1486.45 326.173,1467.55 "/>
<polyline clip-path="url(#clip000)" style="stroke:#000000; stroke-linecap:round; stroke-linejoin:round; stroke-width:4; stroke-opacity:1; fill:none" points="793.99,1486.45 793.99,1467.55 "/>
<polyline clip-path="url(#clip000)" style="stroke:#000000; stroke-linecap:round; stroke-linejoin:round; stroke-width:4; stroke-opacity:1; fill:none" points="1261.81,1486.45 1261.81,1467.55 "/>
<polyline clip-path="url(#clip000)" style="stroke:#000000; stroke-linecap:round; stroke-linejoin:round; stroke-width:4; stroke-opacity:1; fill:none" points="1729.62,1486.45 1729.62,1467.55 "/>
<polyline clip-path="url(#clip000)" style="stroke:#000000; stroke-linecap:round; stroke-linejoin:round; stroke-width:4; stroke-opacity:1; fill:none" points="2197.44,1486.45 2197.44,1467.55 "/>
<path clip-path="url(#clip000)" d="M296.115 1532.02 L325.791 1532.02 L325.791 1535.95 L296.115 1535.95 L296.115 1532.02 Z" fill="#000000" fill-rule="nonzero" fill-opacity="1" /><path clip-path="url(#clip000)" d="M339.911 1544.91 L356.23 1544.91 L356.23 1548.85 L334.286 1548.85 L334.286 1544.91 Q336.948 1542.16 341.531 1537.53 Q346.138 1532.88 347.318 1531.53 Q349.564 1529.01 350.443 1527.27 Q351.346 1525.51 351.346 1523.82 Q351.346 1521.07 349.402 1519.33 Q347.48 1517.6 344.379 1517.6 Q342.18 1517.6 339.726 1518.36 Q337.295 1519.13 334.518 1520.68 L334.518 1515.95 Q337.342 1514.82 339.795 1514.24 Q342.249 1513.66 344.286 1513.66 Q349.656 1513.66 352.851 1516.35 Q356.045 1519.03 356.045 1523.52 Q356.045 1525.65 355.235 1527.57 Q354.448 1529.47 352.342 1532.07 Q351.763 1532.74 348.661 1535.95 Q345.559 1539.15 339.911 1544.91 Z" fill="#000000" fill-rule="nonzero" fill-opacity="1" /><path clip-path="url(#clip000)" d="M763.747 1532.02 L793.423 1532.02 L793.423 1535.95 L763.747 1535.95 L763.747 1532.02 Z" fill="#000000" fill-rule="nonzero" fill-opacity="1" /><path clip-path="url(#clip000)" d="M804.325 1544.91 L811.964 1544.91 L811.964 1518.55 L803.654 1520.21 L803.654 1515.95 L811.918 1514.29 L816.594 1514.29 L816.594 1544.91 L824.233 1544.91 L824.233 1548.85 L804.325 1548.85 L804.325 1544.91 Z" fill="#000000" fill-rule="nonzero" fill-opacity="1" /><path clip-path="url(#clip000)" d="M1261.81 1517.37 Q1258.2 1517.37 1256.37 1520.93 Q1254.56 1524.47 1254.56 1531.6 Q1254.56 1538.71 1256.37 1542.27 Q1258.2 1545.82 1261.81 1545.82 Q1265.44 1545.82 1267.25 1542.27 Q1269.08 1538.71 1269.08 1531.6 Q1269.08 1524.47 1267.25 1520.93 Q1265.44 1517.37 1261.81 1517.37 M1261.81 1513.66 Q1267.62 1513.66 1270.67 1518.27 Q1273.75 1522.85 1273.75 1531.6 Q1273.75 1540.33 1270.67 1544.94 Q1267.62 1549.52 1261.81 1549.52 Q1256 1549.52 1252.92 1544.94 Q1249.86 1540.33 1249.86 1531.6 Q1249.86 1522.85 1252.92 1518.27 Q1256 1513.66 1261.81 1513.66 Z" fill="#000000" fill-rule="nonzero" fill-opacity="1" /><path clip-path="url(#clip000)" d="M1720.01 1544.91 L1727.64 1544.91 L1727.64 1518.55 L1719.33 1520.21 L1719.33 1515.95 L1727.6 1514.29 L1732.27 1514.29 L1732.27 1544.91 L1739.91 1544.91 L1739.91 1548.85 L1720.01 1548.85 L1720.01 1544.91 Z" fill="#000000" fill-rule="nonzero" fill-opacity="1" /><path clip-path="url(#clip000)" d="M2192.09 1544.91 L2208.41 1544.91 L2208.41 1548.85 L2186.47 1548.85 L2186.47 1544.91 Q2189.13 1542.16 2193.71 1537.53 Q2198.32 1532.88 2199.5 1531.53 Q2201.75 1529.01 2202.63 1527.27 Q2203.53 1525.51 2203.53 1523.82 Q2203.53 1521.07 2201.58 1519.33 Q2199.66 1517.6 2196.56 1517.6 Q2194.36 1517.6 2191.91 1518.36 Q2189.48 1519.13 2186.7 1520.68 L2186.7 1515.95 Q2189.52 1514.82 2191.98 1514.24 Q2194.43 1513.66 2196.47 1513.66 Q2201.84 1513.66 2205.03 1516.35 Q2208.23 1519.03 2208.23 1523.52 Q2208.23 1525.65 2207.42 1527.57 Q2206.63 1529.47 2204.52 1532.07 Q2203.95 1532.74 2200.84 1535.95 Q2197.74 1539.15 2192.09 1544.91 Z" fill="#000000" fill-rule="nonzero" fill-opacity="1" /><polyline clip-path="url(#clip002)" style="stroke:#000000; stroke-linecap:round; stroke-linejoin:round; stroke-width:2; stroke-opacity:0.1; fill:none" points="170.857,1445.15 2352.76,1445.15 "/>
<polyline clip-path="url(#clip002)" style="stroke:#000000; stroke-linecap:round; stroke-linejoin:round; stroke-width:2; stroke-opacity:0.1; fill:none" points="170.857,1117.99 2352.76,1117.99 "/>
<polyline clip-path="url(#clip002)" style="stroke:#000000; stroke-linecap:round; stroke-linejoin:round; stroke-width:2; stroke-opacity:0.1; fill:none" points="170.857,790.825 2352.76,790.825 "/>
<polyline clip-path="url(#clip002)" style="stroke:#000000; stroke-linecap:round; stroke-linejoin:round; stroke-width:2; stroke-opacity:0.1; fill:none" points="170.857,463.661 2352.76,463.661 "/>
<polyline clip-path="url(#clip002)" style="stroke:#000000; stroke-linecap:round; stroke-linejoin:round; stroke-width:2; stroke-opacity:0.1; fill:none" points="170.857,136.498 2352.76,136.498 "/>
<polyline clip-path="url(#clip000)" style="stroke:#000000; stroke-linecap:round; stroke-linejoin:round; stroke-width:4; stroke-opacity:1; fill:none" points="170.857,1486.45 170.857,47.2441 "/>
<polyline clip-path="url(#clip000)" style="stroke:#000000; stroke-linecap:round; stroke-linejoin:round; stroke-width:4; stroke-opacity:1; fill:none" points="170.857,1445.15 189.755,1445.15 "/>
<polyline clip-path="url(#clip000)" style="stroke:#000000; stroke-linecap:round; stroke-linejoin:round; stroke-width:4; stroke-opacity:1; fill:none" points="170.857,1117.99 189.755,1117.99 "/>
<polyline clip-path="url(#clip000)" style="stroke:#000000; stroke-linecap:round; stroke-linejoin:round; stroke-width:4; stroke-opacity:1; fill:none" points="170.857,790.825 189.755,790.825 "/>
<polyline clip-path="url(#clip000)" style="stroke:#000000; stroke-linecap:round; stroke-linejoin:round; stroke-width:4; stroke-opacity:1; fill:none" points="170.857,463.661 189.755,463.661 "/>
<polyline clip-path="url(#clip000)" style="stroke:#000000; stroke-linecap:round; stroke-linejoin:round; stroke-width:4; stroke-opacity:1; fill:none" points="170.857,136.498 189.755,136.498 "/>
<path clip-path="url(#clip000)" d="M122.913 1430.95 Q119.302 1430.95 117.473 1434.52 Q115.668 1438.06 115.668 1445.19 Q115.668 1452.29 117.473 1455.86 Q119.302 1459.4 122.913 1459.4 Q126.547 1459.4 128.353 1455.86 Q130.182 1452.29 130.182 1445.19 Q130.182 1438.06 128.353 1434.52 Q126.547 1430.95 122.913 1430.95 M122.913 1427.25 Q128.723 1427.25 131.779 1431.85 Q134.857 1436.44 134.857 1445.19 Q134.857 1453.91 131.779 1458.52 Q128.723 1463.1 122.913 1463.1 Q117.103 1463.1 114.024 1458.52 Q110.969 1453.91 110.969 1445.19 Q110.969 1436.44 114.024 1431.85 Q117.103 1427.25 122.913 1427.25 Z" fill="#000000" fill-rule="nonzero" fill-opacity="1" /><path clip-path="url(#clip000)" d="M82.7975 1100.71 L101.154 1100.71 L101.154 1104.64 L87.0799 1104.64 L87.0799 1113.12 Q88.0984 1112.77 89.1169 1112.61 Q90.1354 1112.42 91.1539 1112.42 Q96.941 1112.42 100.321 1115.59 Q103.7 1118.76 103.7 1124.18 Q103.7 1129.76 100.228 1132.86 Q96.7558 1135.94 90.4364 1135.94 Q88.2604 1135.94 85.9919 1135.57 Q83.7466 1135.2 81.3392 1134.46 L81.3392 1129.76 Q83.4225 1130.89 85.6447 1131.45 Q87.8669 1132 90.3438 1132 Q94.3484 1132 96.6863 1129.9 Q99.0243 1127.79 99.0243 1124.18 Q99.0243 1120.57 96.6863 1118.46 Q94.3484 1116.36 90.3438 1116.36 Q88.4688 1116.36 86.5938 1116.77 Q84.7419 1117.19 82.7975 1118.07 L82.7975 1100.71 Z" fill="#000000" fill-rule="nonzero" fill-opacity="1" /><path clip-path="url(#clip000)" d="M122.913 1103.79 Q119.302 1103.79 117.473 1107.35 Q115.668 1110.89 115.668 1118.02 Q115.668 1125.13 117.473 1128.69 Q119.302 1132.24 122.913 1132.24 Q126.547 1132.24 128.353 1128.69 Q130.182 1125.13 130.182 1118.02 Q130.182 1110.89 128.353 1107.35 Q126.547 1103.79 122.913 1103.79 M122.913 1100.08 Q128.723 1100.08 131.779 1104.69 Q134.857 1109.27 134.857 1118.02 Q134.857 1126.75 131.779 1131.36 Q128.723 1135.94 122.913 1135.94 Q117.103 1135.94 114.024 1131.36 Q110.969 1126.75 110.969 1118.02 Q110.969 1109.27 114.024 1104.69 Q117.103 1100.08 122.913 1100.08 Z" fill="#000000" fill-rule="nonzero" fill-opacity="1" /><path clip-path="url(#clip000)" d="M53.3995 804.169 L61.0384 804.169 L61.0384 777.804 L52.7282 779.471 L52.7282 775.211 L60.9921 773.545 L65.668 773.545 L65.668 804.169 L73.3068 804.169 L73.3068 808.105 L53.3995 808.105 L53.3995 804.169 Z" fill="#000000" fill-rule="nonzero" fill-opacity="1" /><path clip-path="url(#clip000)" d="M92.7512 776.623 Q89.1401 776.623 87.3114 780.188 Q85.5058 783.73 85.5058 790.859 Q85.5058 797.966 87.3114 801.531 Q89.1401 805.072 92.7512 805.072 Q96.3854 805.072 98.1909 801.531 Q100.02 797.966 100.02 790.859 Q100.02 783.73 98.1909 780.188 Q96.3854 776.623 92.7512 776.623 M92.7512 772.92 Q98.5613 772.92 101.617 777.526 Q104.696 782.109 104.696 790.859 Q104.696 799.586 101.617 804.193 Q98.5613 808.776 92.7512 808.776 Q86.941 808.776 83.8623 804.193 Q80.8068 799.586 80.8068 790.859 Q80.8068 782.109 83.8623 777.526 Q86.941 772.92 92.7512 772.92 Z" fill="#000000" fill-rule="nonzero" fill-opacity="1" /><path clip-path="url(#clip000)" d="M122.913 776.623 Q119.302 776.623 117.473 780.188 Q115.668 783.73 115.668 790.859 Q115.668 797.966 117.473 801.531 Q119.302 805.072 122.913 805.072 Q126.547 805.072 128.353 801.531 Q130.182 797.966 130.182 790.859 Q130.182 783.73 128.353 780.188 Q126.547 776.623 122.913 776.623 M122.913 772.92 Q128.723 772.92 131.779 777.526 Q134.857 782.109 134.857 790.859 Q134.857 799.586 131.779 804.193 Q128.723 808.776 122.913 808.776 Q117.103 808.776 114.024 804.193 Q110.969 799.586 110.969 790.859 Q110.969 782.109 114.024 777.526 Q117.103 772.92 122.913 772.92 Z" fill="#000000" fill-rule="nonzero" fill-opacity="1" /><path clip-path="url(#clip000)" d="M53.3995 477.006 L61.0384 477.006 L61.0384 450.64 L52.7282 452.307 L52.7282 448.048 L60.9921 446.381 L65.668 446.381 L65.668 477.006 L73.3068 477.006 L73.3068 480.941 L53.3995 480.941 L53.3995 477.006 Z" fill="#000000" fill-rule="nonzero" fill-opacity="1" /><path clip-path="url(#clip000)" d="M82.7975 446.381 L101.154 446.381 L101.154 450.316 L87.0799 450.316 L87.0799 458.788 Q88.0984 458.441 89.1169 458.279 Q90.1354 458.094 91.1539 458.094 Q96.941 458.094 100.321 461.265 Q103.7 464.437 103.7 469.853 Q103.7 475.432 100.228 478.534 Q96.7558 481.612 90.4364 481.612 Q88.2604 481.612 85.9919 481.242 Q83.7466 480.872 81.3392 480.131 L81.3392 475.432 Q83.4225 476.566 85.6447 477.122 Q87.8669 477.677 90.3438 477.677 Q94.3484 477.677 96.6863 475.571 Q99.0243 473.464 99.0243 469.853 Q99.0243 466.242 96.6863 464.136 Q94.3484 462.029 90.3438 462.029 Q88.4688 462.029 86.5938 462.446 Q84.7419 462.863 82.7975 463.742 L82.7975 446.381 Z" fill="#000000" fill-rule="nonzero" fill-opacity="1" /><path clip-path="url(#clip000)" d="M122.913 449.46 Q119.302 449.46 117.473 453.025 Q115.668 456.566 115.668 463.696 Q115.668 470.802 117.473 474.367 Q119.302 477.909 122.913 477.909 Q126.547 477.909 128.353 474.367 Q130.182 470.802 130.182 463.696 Q130.182 456.566 128.353 453.025 Q126.547 449.46 122.913 449.46 M122.913 445.756 Q128.723 445.756 131.779 450.363 Q134.857 454.946 134.857 463.696 Q134.857 472.423 131.779 477.029 Q128.723 481.612 122.913 481.612 Q117.103 481.612 114.024 477.029 Q110.969 472.423 110.969 463.696 Q110.969 454.946 114.024 450.363 Q117.103 445.756 122.913 445.756 Z" fill="#000000" fill-rule="nonzero" fill-opacity="1" /><path clip-path="url(#clip000)" d="M56.6171 149.842 L72.9365 149.842 L72.9365 153.778 L50.9921 153.778 L50.9921 149.842 Q53.6541 147.088 58.2375 142.458 Q62.8439 137.806 64.0245 136.463 Q66.2698 133.94 67.1494 132.204 Q68.0522 130.444 68.0522 128.755 Q68.0522 126 66.1078 124.264 Q64.1865 122.528 61.0847 122.528 Q58.8856 122.528 56.4319 123.292 Q54.0014 124.056 51.2236 125.606 L51.2236 120.884 Q54.0477 119.75 56.5014 119.171 Q58.955 118.593 60.9921 118.593 Q66.3624 118.593 69.5568 121.278 Q72.7513 123.963 72.7513 128.454 Q72.7513 130.583 71.9411 132.505 Q71.1541 134.403 69.0476 136.995 Q68.4689 137.667 65.367 140.884 Q62.2652 144.079 56.6171 149.842 Z" fill="#000000" fill-rule="nonzero" fill-opacity="1" /><path clip-path="url(#clip000)" d="M92.7512 122.296 Q89.1401 122.296 87.3114 125.861 Q85.5058 129.403 85.5058 136.532 Q85.5058 143.639 87.3114 147.204 Q89.1401 150.745 92.7512 150.745 Q96.3854 150.745 98.1909 147.204 Q100.02 143.639 100.02 136.532 Q100.02 129.403 98.1909 125.861 Q96.3854 122.296 92.7512 122.296 M92.7512 118.593 Q98.5613 118.593 101.617 123.199 Q104.696 127.782 104.696 136.532 Q104.696 145.259 101.617 149.866 Q98.5613 154.449 92.7512 154.449 Q86.941 154.449 83.8623 149.866 Q80.8068 145.259 80.8068 136.532 Q80.8068 127.782 83.8623 123.199 Q86.941 118.593 92.7512 118.593 Z" fill="#000000" fill-rule="nonzero" fill-opacity="1" /><path clip-path="url(#clip000)" d="M122.913 122.296 Q119.302 122.296 117.473 125.861 Q115.668 129.403 115.668 136.532 Q115.668 143.639 117.473 147.204 Q119.302 150.745 122.913 150.745 Q126.547 150.745 128.353 147.204 Q130.182 143.639 130.182 136.532 Q130.182 129.403 128.353 125.861 Q126.547 122.296 122.913 122.296 M122.913 118.593 Q128.723 118.593 131.779 123.199 Q134.857 127.782 134.857 136.532 Q134.857 145.259 131.779 149.866 Q128.723 154.449 122.913 154.449 Q117.103 154.449 114.024 149.866 Q110.969 145.259 110.969 136.532 Q110.969 127.782 114.024 123.199 Q117.103 118.593 122.913 118.593 Z" fill="#000000" fill-rule="nonzero" fill-opacity="1" /><polyline clip-path="url(#clip002)" style="stroke:#009af9; stroke-linecap:round; stroke-linejoin:round; stroke-width:4; stroke-opacity:1; fill:none" points="232.609,1445.15 237.287,1445.15 241.966,1445.15 246.644,1445.15 251.322,1445.15 256,1445.15 260.678,1445.15 265.356,1445.15 270.035,1445.15 274.713,1445.15 279.391,1445.15 284.069,1445.15 288.747,1445.15 293.425,1445.15 298.104,1445.15 302.782,1445.15 307.46,1445.15 312.138,1445.15 316.816,1445.14 321.494,1445.14 326.173,1445.14 330.851,1445.13 335.529,1445.13 340.207,1445.12 344.885,1445.12 349.564,1445.1 354.242,1445.09 358.92,1445.07 363.598,1445.05 368.276,1445.03 372.954,1445 377.633,1444.96 382.311,1444.91 386.989,1444.85 391.667,1444.78 396.345,1444.69 401.023,1444.58 405.702,1444.45 410.38,1444.3 415.058,1444.11 419.736,1443.89 424.414,1443.63 429.092,1443.32 433.771,1442.96 438.449,1442.53 443.127,1442.04 447.805,1441.46 452.483,1440.78 457.161,1440 461.84,1439.11 466.518,1438.08 471.196,1436.9 475.874,1435.56 480.552,1434.03 485.23,1432.3 489.909,1430.34 494.587,1428.14 499.265,1425.67 503.943,1422.9 508.621,1419.82 513.299,1416.39 517.978,1412.6 522.656,1408.4 527.334,1403.78 532.012,1398.7 536.69,1393.14 541.368,1387.07 546.047,1380.45 550.725,1373.27 555.403,1365.49 560.081,1357.1 564.759,1348.05 569.438,1338.34 574.116,1327.93 578.794,1316.81 583.472,1304.97 588.15,1292.38 592.828,1279.03 597.507,1264.91 602.185,1250.02 606.863,1234.36 611.541,1217.92 616.219,1200.7 620.897,1182.72 625.576,1163.98 630.254,1144.5 634.932,1124.29 639.61,1103.38 644.288,1081.79 648.966,1059.55 653.645,1036.7 658.323,1013.27 663.001,989.287 667.679,964.806 672.357,939.869 677.035,914.522 681.714,888.813 686.392,862.794 691.07,836.518 695.748,810.039 700.426,783.412 705.104,756.695 709.783,729.943 714.461,703.215 719.139,676.566 723.817,650.054 728.495,623.734 733.173,597.663 737.852,571.893 742.53,546.477 747.208,521.466 751.886,496.91 756.564,472.853 761.242,449.343 765.921,426.419 770.599,404.122 775.277,382.489 779.955,361.553 784.633,341.346 789.311,321.895 793.99,303.226 798.668,285.36 803.346,268.317 808.024,252.113 812.702,236.761 817.381,222.27 822.059,208.649 826.737,195.901 831.415,184.028 836.093,173.029 840.771,162.902 845.45,153.639 850.128,145.234 854.806,137.676 859.484,130.952 864.162,125.048 868.84,119.95 873.519,115.638 878.197,112.095 882.875,109.3 887.553,107.232 892.231,105.867 896.909,105.184 901.588,105.157 906.266,105.761 910.944,106.972 915.622,108.764 920.3,111.109 924.978,113.982 929.657,117.357 934.335,121.206 939.013,125.504 943.691,130.223 948.369,135.338 953.047,140.823 957.726,146.651 962.404,152.799 967.082,159.242 971.76,165.954 976.438,172.913 981.116,180.096 985.795,187.479 990.473,195.042 995.151,202.763 999.829,210.621 1004.51,218.596 1009.19,226.67 1013.86,234.824 1018.54,243.04 1023.22,251.301 1027.9,259.591 1032.58,267.893 1037.25,276.194 1041.93,284.479 1046.61,292.734 1051.29,300.947 1055.97,309.104 1060.65,317.194 1065.32,325.207 1070,333.131 1074.68,340.957 1079.36,348.675 1084.04,356.277 1088.71,363.754 1093.39,371.098 1098.07,378.302 1102.75,385.359 1107.43,392.264 1112.11,399.008 1116.78,405.588 1121.46,411.998 1126.14,418.232 1130.82,424.287 1135.5,430.159 1140.17,435.842 1144.85,441.334 1149.53,446.632 1154.21,451.732 1158.89,456.632 1163.57,461.328 1168.24,465.819 1172.92,470.102 1177.6,474.176 1182.28,478.038 1186.96,481.687 1191.63,485.121 1196.31,488.339 1200.99,491.34 1205.67,494.123 1210.35,496.686 1215.02,499.03 1219.7,501.152 1224.38,503.053 1229.06,504.731 1233.74,506.186 1238.42,507.419 1243.09,508.427 1247.77,509.212 1252.45,509.773 1257.13,510.11 1261.81,510.222 1266.48,510.11 1271.16,509.773 1275.84,509.212 1280.52,508.427 1285.2,507.419 1289.88,506.186 1294.55,504.731 1299.23,503.053 1303.91,501.152 1308.59,499.03 1313.27,496.686 1317.94,494.123 1322.62,491.34 1327.3,488.339 1331.98,485.121 1336.66,481.687 1341.34,478.038 1346.01,474.176 1350.69,470.102 1355.37,465.819 1360.05,461.328 1364.73,456.632 1369.4,451.732 1374.08,446.632 1378.76,441.334 1383.44,435.842 1388.12,430.159 1392.8,424.287 1397.47,418.232 1402.15,411.998 1406.83,405.588 1411.51,399.008 1416.19,392.264 1420.86,385.359 1425.54,378.302 1430.22,371.098 1434.9,363.754 1439.58,356.277 1444.26,348.675 1448.93,340.957 1453.61,333.131 1458.29,325.207 1462.97,317.194 1467.65,309.104 1472.32,300.947 1477,292.734 1481.68,284.479 1486.36,276.194 1491.04,267.893 1495.72,259.591 1500.39,251.301 1505.07,243.04 1509.75,234.824 1514.43,226.67 1519.11,218.596 1523.78,210.621 1528.46,202.763 1533.14,195.042 1537.82,187.479 1542.5,180.096 1547.18,172.913 1551.85,165.954 1556.53,159.242 1561.21,152.799 1565.89,146.651 1570.57,140.823 1575.24,135.338 1579.92,130.223 1584.6,125.504 1589.28,121.206 1593.96,117.357 1598.63,113.982 1603.31,111.109 1607.99,108.764 1612.67,106.972 1617.35,105.761 1622.03,105.157 1626.7,105.184 1631.38,105.867 1636.06,107.232 1640.74,109.3 1645.42,112.095 1650.09,115.638 1654.77,119.95 1659.45,125.048 1664.13,130.952 1668.81,137.676 1673.49,145.234 1678.16,153.639 1682.84,162.902 1687.52,173.029 1692.2,184.028 1696.88,195.901 1701.55,208.649 1706.23,222.27 1710.91,236.761 1715.59,252.113 1720.27,268.317 1724.95,285.36 1729.62,303.226 1734.3,321.895 1738.98,341.346 1743.66,361.553 1748.34,382.489 1753.01,404.122 1757.69,426.419 1762.37,449.343 1767.05,472.853 1771.73,496.91 1776.41,521.466 1781.08,546.477 1785.76,571.893 1790.44,597.663 1795.12,623.734 1799.8,650.054 1804.47,676.566 1809.15,703.215 1813.83,729.943 1818.51,756.695 1823.19,783.412 1827.87,810.039 1832.54,836.518 1837.22,862.794 1841.9,888.813 1846.58,914.522 1851.26,939.869 1855.93,964.806 1860.61,989.287 1865.29,1013.27 1869.97,1036.7 1874.65,1059.55 1879.33,1081.79 1884,1103.38 1888.68,1124.29 1893.36,1144.5 1898.04,1163.98 1902.72,1182.72 1907.39,1200.7 1912.07,1217.92 1916.75,1234.36 1921.43,1250.02 1926.11,1264.91 1930.78,1279.03 1935.46,1292.38 1940.14,1304.97 1944.82,1316.81 1949.5,1327.93 1954.18,1338.34 1958.85,1348.05 1963.53,1357.1 1968.21,1365.49 1972.89,1373.27 1977.57,1380.45 1982.24,1387.07 1986.92,1393.14 1991.6,1398.7 1996.28,1403.78 2000.96,1408.4 2005.64,1412.6 2010.31,1416.39 2014.99,1419.82 2019.67,1422.9 2024.35,1425.67 2029.03,1428.14 2033.7,1430.34 2038.38,1432.3 2043.06,1434.03 2047.74,1435.56 2052.42,1436.9 2057.1,1438.08 2061.77,1439.11 2066.45,1440 2071.13,1440.78 2075.81,1441.46 2080.49,1442.04 2085.16,1442.53 2089.84,1442.96 2094.52,1443.32 2099.2,1443.63 2103.88,1443.89 2108.56,1444.11 2113.23,1444.3 2117.91,1444.45 2122.59,1444.58 2127.27,1444.69 2131.95,1444.78 2136.62,1444.85 2141.3,1444.91 2145.98,1444.96 2150.66,1445 2155.34,1445.03 2160.02,1445.05 2164.69,1445.07 2169.37,1445.09 2174.05,1445.1 2178.73,1445.12 2183.41,1445.12 2188.08,1445.13 2192.76,1445.13 2197.44,1445.14 2202.12,1445.14 2206.8,1445.14 2211.48,1445.15 2216.15,1445.15 2220.83,1445.15 2225.51,1445.15 2230.19,1445.15 2234.87,1445.15 2239.54,1445.15 2244.22,1445.15 2248.9,1445.15 2253.58,1445.15 2258.26,1445.15 2262.94,1445.15 2267.61,1445.15 2272.29,1445.15 2276.97,1445.15 2281.65,1445.15 2286.33,1445.15 2291,1445.15 "/>
<polyline clip-path="url(#clip002)" style="stroke:#e26f46; stroke-linecap:round; stroke-linejoin:round; stroke-width:4; stroke-opacity:1; fill:none" points="232.609,1444.78 237.287,1444.78 241.966,1444.77 246.644,1444.76 251.322,1444.76 256,1444.75 260.678,1444.74 265.356,1444.73 270.035,1444.72 274.713,1444.72 279.391,1444.71 284.069,1444.7 288.747,1444.69 293.425,1444.68 298.104,1444.67 302.782,1444.66 307.46,1444.65 312.138,1444.63 316.816,1444.62 321.494,1444.61 326.173,1444.59 330.851,1444.58 335.529,1444.56 340.207,1444.54 344.885,1444.52 349.564,1444.5 354.242,1444.47 358.92,1444.44 363.598,1444.41 368.276,1444.37 372.954,1444.32 377.633,1444.26 382.311,1444.2 386.989,1444.12 391.667,1444.03 396.345,1443.92 401.023,1443.79 405.702,1443.64 410.38,1443.46 415.058,1443.25 419.736,1443 424.414,1442.71 429.092,1442.37 433.771,1441.98 438.449,1441.52 443.127,1440.98 447.805,1440.36 452.483,1439.65 457.161,1438.83 461.84,1437.89 466.518,1436.81 471.196,1435.58 475.874,1434.17 480.552,1432.58 485.23,1430.79 489.909,1428.76 494.587,1426.48 499.265,1423.93 503.943,1421.08 508.621,1417.9 513.299,1414.38 517.978,1410.47 522.656,1406.16 527.334,1401.42 532.012,1396.21 536.69,1390.51 541.368,1384.29 546.047,1377.52 550.725,1370.18 555.403,1362.22 560.081,1353.64 564.759,1344.4 569.438,1334.48 574.116,1323.86 578.794,1312.52 583.472,1300.44 588.15,1287.6 592.828,1274 597.507,1259.62 602.185,1244.46 606.863,1228.51 611.541,1211.77 616.219,1194.25 620.897,1175.95 625.576,1156.89 630.254,1137.07 634.932,1116.53 639.61,1095.28 644.288,1073.34 648.966,1050.75 653.645,1027.54 658.323,1003.74 663.001,979.391 667.679,954.541 672.357,929.232 677.035,903.513 681.714,877.434 686.392,851.046 691.07,824.403 695.748,797.561 700.426,770.576 705.104,743.505 709.783,716.405 714.461,689.335 719.139,662.352 723.817,635.513 728.495,608.877 733.173,582.498 737.852,556.431 742.53,530.731 747.208,505.448 751.886,480.632 756.564,456.33 761.242,432.587 765.921,409.445 770.599,386.943 775.277,365.119 779.955,344.007 784.633,323.639 789.311,304.041 793.99,285.241 798.668,267.26 803.346,250.117 808.024,233.829 812.702,218.408 817.381,203.865 822.059,190.206 826.737,177.435 831.415,165.555 836.093,154.564 840.771,144.457 845.45,135.23 850.128,126.873 854.806,119.377 859.484,112.728 864.162,106.913 868.84,101.914 873.519,97.7144 878.197,94.2943 882.875,91.6329 887.553,89.7081 892.231,88.4972 896.909,87.9763 901.588,88.1209 906.266,88.9056 910.944,90.3043 915.622,92.2907 920.3,94.8379 924.978,97.9193 929.657,101.508 934.335,105.577 939.013,110.1 943.691,115.049 948.369,120.397 953.047,126.119 957.726,132.188 962.404,138.58 967.082,145.27 971.76,152.232 976.438,159.442 981.116,166.877 985.795,174.514 990.473,182.331 995.151,190.307 999.829,198.422 1004.51,206.654 1009.19,214.985 1013.86,223.395 1018.54,231.867 1023.22,240.384 1027.9,248.928 1032.58,257.485 1037.25,266.039 1041.93,274.576 1046.61,283.081 1051.29,291.543 1055.97,299.948 1060.65,308.284 1065.32,316.541 1070,324.708 1074.68,332.773 1079.36,340.729 1084.04,348.567 1088.71,356.278 1093.39,363.855 1098.07,371.29 1102.75,378.576 1107.43,385.707 1112.11,392.676 1116.78,399.479 1121.46,406.108 1126.14,412.56 1130.82,418.829 1135.5,424.913 1140.17,430.808 1144.85,436.51 1149.53,442.016 1154.21,447.323 1158.89,452.429 1163.57,457.33 1168.24,462.024 1172.92,466.508 1177.6,470.782 1182.28,474.841 1186.96,478.686 1191.63,482.314 1196.31,485.725 1200.99,488.918 1205.67,491.892 1210.35,494.646 1215.02,497.179 1219.7,499.491 1224.38,501.581 1229.06,503.448 1233.74,505.092 1238.42,506.513 1243.09,507.71 1247.77,508.682 1252.45,509.43 1257.13,509.952 1261.81,510.25 1266.48,510.324 1271.16,510.172 1275.84,509.796 1280.52,509.196 1285.2,508.373 1289.88,507.326 1294.55,506.057 1299.23,504.566 1303.91,502.854 1308.59,500.921 1313.27,498.768 1317.94,496.396 1322.62,493.807 1327.3,491.001 1331.98,487.979 1336.66,484.742 1341.34,481.293 1346.01,477.631 1350.69,473.759 1355.37,469.679 1360.05,465.392 1364.73,460.901 1369.4,456.208 1374.08,451.315 1378.76,446.226 1383.44,440.944 1388.12,435.472 1392.8,429.814 1397.47,423.974 1402.15,417.957 1406.83,411.767 1411.51,405.409 1416.19,398.89 1420.86,392.213 1425.54,385.386 1430.22,378.415 1434.9,371.306 1439.58,364.066 1444.26,356.704 1448.93,349.226 1453.61,341.642 1458.29,333.961 1462.97,326.192 1467.65,318.346 1472.32,310.434 1477,302.469 1481.68,294.463 1486.36,286.428 1491.04,278.38 1495.72,270.332 1500.39,262.298 1505.07,254.295 1509.75,246.338 1514.43,238.444 1519.11,230.629 1523.78,222.912 1528.46,215.311 1533.14,207.846 1537.82,200.538 1542.5,193.408 1547.18,186.478 1551.85,179.771 1556.53,173.31 1561.21,167.118 1565.89,161.219 1570.57,155.636 1575.24,150.393 1579.92,145.515 1584.6,141.027 1589.28,136.956 1593.96,133.327 1598.63,130.169 1603.31,127.507 1607.99,125.367 1612.67,123.777 1617.35,122.759 1622.03,122.339 1626.7,122.541 1631.38,123.389 1636.06,124.908 1640.74,127.121 1645.42,130.052 1650.09,133.721 1654.77,138.148 1659.45,143.35 1664.13,149.344 1668.81,156.145 1673.49,163.766 1678.16,172.221 1682.84,181.521 1687.52,191.672 1692.2,202.68 1696.88,214.547 1701.55,227.273 1706.23,240.857 1710.91,255.293 1715.59,270.576 1720.27,286.694 1724.95,303.636 1729.62,321.386 1734.3,339.924 1738.98,359.228 1743.66,379.273 1748.34,400.03 1753.01,421.469 1757.69,443.556 1762.37,466.255 1767.05,489.527 1771.73,513.33 1776.41,537.621 1781.08,562.354 1785.76,587.48 1790.44,612.949 1795.12,638.71 1799.8,664.708 1804.47,690.89 1809.15,717.2 1813.83,743.582 1818.51,769.98 1823.19,796.338 1827.87,822.6 1832.54,848.711 1837.22,874.615 1841.9,900.261 1846.58,925.595 1851.26,950.568 1855.93,975.13 1860.61,999.237 1865.29,1022.84 1869.97,1045.91 1874.65,1068.4 1879.33,1090.28 1884,1111.51 1888.68,1132.07 1893.36,1151.94 1898.04,1171.09 1902.72,1189.5 1907.39,1207.17 1912.07,1224.07 1916.75,1240.22 1921.43,1255.6 1926.11,1270.2 1930.78,1284.05 1935.46,1297.14 1940.14,1309.48 1944.82,1321.09 1949.5,1331.98 1954.18,1342.17 1958.85,1351.68 1963.53,1360.53 1968.21,1368.74 1972.89,1376.34 1977.57,1383.36 1982.24,1389.81 1986.92,1395.74 1991.6,1401.16 1996.28,1406.11 2000.96,1410.61 2005.64,1414.69 2010.31,1418.39 2014.99,1421.71 2019.67,1424.7 2024.35,1427.38 2029.03,1429.77 2033.7,1431.9 2038.38,1433.79 2043.06,1435.45 2047.74,1436.92 2052.42,1438.21 2057.1,1439.33 2061.77,1440.31 2066.45,1441.16 2071.13,1441.9 2075.81,1442.53 2080.49,1443.07 2085.16,1443.53 2089.84,1443.93 2094.52,1444.26 2099.2,1444.54 2103.88,1444.77 2108.56,1444.97 2113.23,1445.13 2117.91,1445.26 2122.59,1445.37 2127.27,1445.45 2131.95,1445.52 2136.62,1445.58 2141.3,1445.62 2145.98,1445.65 2150.66,1445.68 2155.34,1445.7 2160.02,1445.71 2164.69,1445.71 2169.37,1445.72 2174.05,1445.72 2178.73,1445.71 2183.41,1445.71 2188.08,1445.7 2192.76,1445.69 2197.44,1445.69 2202.12,1445.68 2206.8,1445.67 2211.48,1445.66 2216.15,1445.65 2220.83,1445.64 2225.51,1445.63 2230.19,1445.62 2234.87,1445.61 2239.54,1445.6 2244.22,1445.59 2248.9,1445.58 2253.58,1445.57 2258.26,1445.57 2262.94,1445.56 2267.61,1445.55 2272.29,1445.55 2276.97,1445.54 2281.65,1445.53 2286.33,1445.53 2291,1445.52 "/>
<path clip-path="url(#clip000)" d="M1880.43 250.738 L2280.03 250.738 L2280.03 95.2176 L1880.43 95.2176  Z" fill="#ffffff" fill-rule="evenodd" fill-opacity="1"/>
<polyline clip-path="url(#clip000)" style="stroke:#000000; stroke-linecap:round; stroke-linejoin:round; stroke-width:4; stroke-opacity:1; fill:none" points="1880.43,250.738 2280.03,250.738 2280.03,95.2176 1880.43,95.2176 1880.43,250.738 "/>
<polyline clip-path="url(#clip000)" style="stroke:#009af9; stroke-linecap:round; stroke-linejoin:round; stroke-width:4; stroke-opacity:1; fill:none" points="1904.67,147.058 2050.13,147.058 "/>
<path clip-path="url(#clip000)" d="M2087.77 151.305 Q2082.61 151.305 2080.62 152.486 Q2078.63 153.666 2078.63 156.514 Q2078.63 158.782 2080.11 160.125 Q2081.62 161.444 2084.19 161.444 Q2087.73 161.444 2089.86 158.944 Q2092.01 156.421 2092.01 152.254 L2092.01 151.305 L2087.77 151.305 M2096.27 149.546 L2096.27 164.338 L2092.01 164.338 L2092.01 160.402 Q2090.55 162.763 2088.38 163.898 Q2086.2 165.009 2083.05 165.009 Q2079.07 165.009 2076.71 162.787 Q2074.37 160.541 2074.37 156.791 Q2074.37 152.416 2077.29 150.194 Q2080.23 147.972 2086.04 147.972 L2092.01 147.972 L2092.01 147.555 Q2092.01 144.615 2090.07 143.018 Q2088.14 141.398 2084.65 141.398 Q2082.43 141.398 2080.32 141.93 Q2078.21 142.463 2076.27 143.527 L2076.27 139.592 Q2078.61 138.69 2080.81 138.25 Q2083.01 137.787 2085.09 137.787 Q2090.71 137.787 2093.49 140.703 Q2096.27 143.62 2096.27 149.546 Z" fill="#000000" fill-rule="nonzero" fill-opacity="1" /><path clip-path="url(#clip000)" d="M2126.59 148.689 L2126.59 164.338 L2122.33 164.338 L2122.33 148.828 Q2122.33 145.148 2120.9 143.319 Q2119.46 141.49 2116.59 141.49 Q2113.14 141.49 2111.15 143.69 Q2109.16 145.889 2109.16 149.685 L2109.16 164.338 L2104.88 164.338 L2104.88 138.412 L2109.16 138.412 L2109.16 142.44 Q2110.69 140.102 2112.75 138.944 Q2114.83 137.787 2117.54 137.787 Q2122.01 137.787 2124.3 140.565 Q2126.59 143.319 2126.59 148.689 Z" fill="#000000" fill-rule="nonzero" fill-opacity="1" /><path clip-path="url(#clip000)" d="M2146.87 151.305 Q2141.71 151.305 2139.72 152.486 Q2137.73 153.666 2137.73 156.514 Q2137.73 158.782 2139.21 160.125 Q2140.71 161.444 2143.28 161.444 Q2146.82 161.444 2148.95 158.944 Q2151.11 156.421 2151.11 152.254 L2151.11 151.305 L2146.87 151.305 M2155.37 149.546 L2155.37 164.338 L2151.11 164.338 L2151.11 160.402 Q2149.65 162.763 2147.47 163.898 Q2145.3 165.009 2142.15 165.009 Q2138.17 165.009 2135.81 162.787 Q2133.47 160.541 2133.47 156.791 Q2133.47 152.416 2136.39 150.194 Q2139.32 147.972 2145.14 147.972 L2151.11 147.972 L2151.11 147.555 Q2151.11 144.615 2149.16 143.018 Q2147.24 141.398 2143.75 141.398 Q2141.52 141.398 2139.42 141.93 Q2137.31 142.463 2135.37 143.527 L2135.37 139.592 Q2137.7 138.69 2139.9 138.25 Q2142.1 137.787 2144.19 137.787 Q2149.81 137.787 2152.59 140.703 Q2155.37 143.62 2155.37 149.546 Z" fill="#000000" fill-rule="nonzero" fill-opacity="1" /><path clip-path="url(#clip000)" d="M2164.14 128.319 L2168.4 128.319 L2168.4 164.338 L2164.14 164.338 L2164.14 128.319 Z" fill="#000000" fill-rule="nonzero" fill-opacity="1" /><path clip-path="url(#clip000)" d="M2188.1 166.745 Q2186.29 171.375 2184.58 172.787 Q2182.87 174.199 2180 174.199 L2176.59 174.199 L2176.59 170.634 L2179.09 170.634 Q2180.85 170.634 2181.82 169.8 Q2182.8 168.967 2183.98 165.865 L2184.74 163.921 L2174.26 138.412 L2178.77 138.412 L2186.87 158.689 L2194.97 138.412 L2199.49 138.412 L2188.1 166.745 Z" fill="#000000" fill-rule="nonzero" fill-opacity="1" /><path clip-path="url(#clip000)" d="M2209.58 131.051 L2209.58 138.412 L2218.35 138.412 L2218.35 141.722 L2209.58 141.722 L2209.58 155.796 Q2209.58 158.967 2210.44 159.87 Q2211.32 160.773 2213.98 160.773 L2218.35 160.773 L2218.35 164.338 L2213.98 164.338 Q2209.05 164.338 2207.17 162.509 Q2205.3 160.657 2205.3 155.796 L2205.3 141.722 L2202.17 141.722 L2202.17 138.412 L2205.3 138.412 L2205.3 131.051 L2209.58 131.051 Z" fill="#000000" fill-rule="nonzero" fill-opacity="1" /><path clip-path="url(#clip000)" d="M2223.95 138.412 L2228.21 138.412 L2228.21 164.338 L2223.95 164.338 L2223.95 138.412 M2223.95 128.319 L2228.21 128.319 L2228.21 133.713 L2223.95 133.713 L2223.95 128.319 Z" fill="#000000" fill-rule="nonzero" fill-opacity="1" /><path clip-path="url(#clip000)" d="M2255.78 139.407 L2255.78 143.389 Q2253.98 142.393 2252.15 141.907 Q2250.34 141.398 2248.49 141.398 Q2244.35 141.398 2242.06 144.037 Q2239.76 146.652 2239.76 151.398 Q2239.76 156.143 2242.06 158.782 Q2244.35 161.398 2248.49 161.398 Q2250.34 161.398 2252.15 160.912 Q2253.98 160.402 2255.78 159.407 L2255.78 163.342 Q2254 164.176 2252.08 164.592 Q2250.18 165.009 2248.03 165.009 Q2242.17 165.009 2238.72 161.328 Q2235.27 157.648 2235.27 151.398 Q2235.27 145.055 2238.75 141.421 Q2242.24 137.787 2248.31 137.787 Q2250.27 137.787 2252.15 138.203 Q2254.02 138.597 2255.78 139.407 Z" fill="#000000" fill-rule="nonzero" fill-opacity="1" /><polyline clip-path="url(#clip000)" style="stroke:#e26f46; stroke-linecap:round; stroke-linejoin:round; stroke-width:4; stroke-opacity:1; fill:none" points="1904.67,198.898 2050.13,198.898 "/>
<path clip-path="url(#clip000)" d="M2078.65 212.289 L2078.65 226.039 L2074.37 226.039 L2074.37 190.252 L2078.65 190.252 L2078.65 194.187 Q2080 191.872 2082.03 190.761 Q2084.09 189.627 2086.94 189.627 Q2091.66 189.627 2094.6 193.377 Q2097.57 197.127 2097.57 203.238 Q2097.57 209.349 2094.6 213.099 Q2091.66 216.849 2086.94 216.849 Q2084.09 216.849 2082.03 215.738 Q2080 214.603 2078.65 212.289 M2093.14 203.238 Q2093.14 198.539 2091.2 195.877 Q2089.28 193.192 2085.9 193.192 Q2082.52 193.192 2080.58 195.877 Q2078.65 198.539 2078.65 203.238 Q2078.65 207.937 2080.58 210.622 Q2082.52 213.284 2085.9 213.284 Q2089.28 213.284 2091.2 210.622 Q2093.14 207.937 2093.14 203.238 Z" fill="#000000" fill-rule="nonzero" fill-opacity="1" /><path clip-path="url(#clip000)" d="M2119.65 194.233 Q2118.93 193.817 2118.08 193.631 Q2117.24 193.423 2116.22 193.423 Q2112.61 193.423 2110.67 195.784 Q2108.75 198.122 2108.75 202.52 L2108.75 216.178 L2104.46 216.178 L2104.46 190.252 L2108.75 190.252 L2108.75 194.28 Q2110.09 191.918 2112.24 190.784 Q2114.39 189.627 2117.47 189.627 Q2117.91 189.627 2118.45 189.696 Q2118.98 189.743 2119.63 189.858 L2119.65 194.233 Z" fill="#000000" fill-rule="nonzero" fill-opacity="1" /><path clip-path="url(#clip000)" d="M2145.25 202.15 L2145.25 204.233 L2125.67 204.233 Q2125.95 208.631 2128.31 210.946 Q2130.69 213.238 2134.93 213.238 Q2137.38 213.238 2139.67 212.636 Q2141.99 212.034 2144.26 210.83 L2144.26 214.858 Q2141.96 215.83 2139.56 216.34 Q2137.15 216.849 2134.67 216.849 Q2128.47 216.849 2124.83 213.238 Q2121.22 209.627 2121.22 203.469 Q2121.22 197.104 2124.65 193.377 Q2128.1 189.627 2133.93 189.627 Q2139.16 189.627 2142.2 193.006 Q2145.25 196.363 2145.25 202.15 M2140.99 200.9 Q2140.95 197.405 2139.02 195.321 Q2137.13 193.238 2133.98 193.238 Q2130.41 193.238 2128.26 195.252 Q2126.13 197.266 2125.81 200.923 L2140.99 200.9 Z" fill="#000000" fill-rule="nonzero" fill-opacity="1" /><path clip-path="url(#clip000)" d="M2169.3 194.187 L2169.3 180.159 L2173.56 180.159 L2173.56 216.178 L2169.3 216.178 L2169.3 212.289 Q2167.96 214.603 2165.9 215.738 Q2163.86 216.849 2160.99 216.849 Q2156.29 216.849 2153.33 213.099 Q2150.39 209.349 2150.39 203.238 Q2150.39 197.127 2153.33 193.377 Q2156.29 189.627 2160.99 189.627 Q2163.86 189.627 2165.9 190.761 Q2167.96 191.872 2169.3 194.187 M2154.79 203.238 Q2154.79 207.937 2156.71 210.622 Q2158.65 213.284 2162.03 213.284 Q2165.41 213.284 2167.36 210.622 Q2169.3 207.937 2169.3 203.238 Q2169.3 198.539 2167.36 195.877 Q2165.41 193.192 2162.03 193.192 Q2158.65 193.192 2156.71 195.877 Q2154.79 198.539 2154.79 203.238 Z" fill="#000000" fill-rule="nonzero" fill-opacity="1" /><path clip-path="url(#clip000)" d="M2182.33 190.252 L2186.59 190.252 L2186.59 216.178 L2182.33 216.178 L2182.33 190.252 M2182.33 180.159 L2186.59 180.159 L2186.59 185.553 L2182.33 185.553 L2182.33 180.159 Z" fill="#000000" fill-rule="nonzero" fill-opacity="1" /><path clip-path="url(#clip000)" d="M2214.16 191.247 L2214.16 195.229 Q2212.36 194.233 2210.53 193.747 Q2208.72 193.238 2206.87 193.238 Q2202.73 193.238 2200.44 195.877 Q2198.14 198.492 2198.14 203.238 Q2198.14 207.983 2200.44 210.622 Q2202.73 213.238 2206.87 213.238 Q2208.72 213.238 2210.53 212.752 Q2212.36 212.242 2214.16 211.247 L2214.16 215.182 Q2212.38 216.016 2210.46 216.432 Q2208.56 216.849 2206.41 216.849 Q2200.55 216.849 2197.1 213.168 Q2193.65 209.488 2193.65 203.238 Q2193.65 196.895 2197.13 193.261 Q2200.62 189.627 2206.69 189.627 Q2208.65 189.627 2210.53 190.043 Q2212.4 190.437 2214.16 191.247 Z" fill="#000000" fill-rule="nonzero" fill-opacity="1" /><path clip-path="url(#clip000)" d="M2225.78 182.891 L2225.78 190.252 L2234.56 190.252 L2234.56 193.562 L2225.78 193.562 L2225.78 207.636 Q2225.78 210.807 2226.64 211.71 Q2227.52 212.613 2230.18 212.613 L2234.56 212.613 L2234.56 216.178 L2230.18 216.178 Q2225.25 216.178 2223.38 214.349 Q2221.5 212.497 2221.5 207.636 L2221.5 193.562 L2218.38 193.562 L2218.38 190.252 L2221.5 190.252 L2221.5 182.891 L2225.78 182.891 Z" fill="#000000" fill-rule="nonzero" fill-opacity="1" /></svg>
