<?xml version="1.0" encoding="utf-8"?>
<svg xmlns="http://www.w3.org/2000/svg" xmlns:xlink="http://www.w3.org/1999/xlink" width="600" height="400" viewBox="0 0 2400 1600">
<defs>
  <clipPath id="clip660">
    <rect x="0" y="0" width="2400" height="1600"/>
  </clipPath>
</defs>
<path clip-path="url(#clip660)" d="M0 1600 L2400 1600 L2400 0 L0 0  Z" fill="#ffffff" fill-rule="evenodd" fill-opacity="1"/>
<defs>
  <clipPath id="clip661">
    <rect x="480" y="0" width="1681" height="1600"/>
  </clipPath>
</defs>
<path clip-path="url(#clip660)" d="M224.098 686.448 L1152.76 686.448 L1152.76 123.472 L224.098 123.472  Z" fill="#ffffff" fill-rule="evenodd" fill-opacity="1"/>
<defs>
  <clipPath id="clip662">
    <rect x="224" y="123" width="930" height="564"/>
  </clipPath>
</defs>
<polyline clip-path="url(#clip662)" style="stroke:#000000; stroke-linecap:round; stroke-linejoin:round; stroke-width:2; stroke-opacity:0.1; fill:none" points="250.381,686.448 250.381,123.472 "/>
<polyline clip-path="url(#clip662)" style="stroke:#000000; stroke-linecap:round; stroke-linejoin:round; stroke-width:2; stroke-opacity:0.1; fill:none" points="469.404,686.448 469.404,123.472 "/>
<polyline clip-path="url(#clip662)" style="stroke:#000000; stroke-linecap:round; stroke-linejoin:round; stroke-width:2; stroke-opacity:0.1; fill:none" points="688.427,686.448 688.427,123.472 "/>
<polyline clip-path="url(#clip662)" style="stroke:#000000; stroke-linecap:round; stroke-linejoin:round; stroke-width:2; stroke-opacity:0.1; fill:none" points="907.45,686.448 907.45,123.472 "/>
<polyline clip-path="url(#clip662)" style="stroke:#000000; stroke-linecap:round; stroke-linejoin:round; stroke-width:2; stroke-opacity:0.1; fill:none" points="1126.47,686.448 1126.47,123.472 "/>
<polyline clip-path="url(#clip660)" style="stroke:#000000; stroke-linecap:round; stroke-linejoin:round; stroke-width:4; stroke-opacity:1; fill:none" points="224.098,686.448 1152.76,686.448 "/>
<polyline clip-path="url(#clip660)" style="stroke:#000000; stroke-linecap:round; stroke-linejoin:round; stroke-width:4; stroke-opacity:1; fill:none" points="250.381,686.448 250.381,667.55 "/>
<polyline clip-path="url(#clip660)" style="stroke:#000000; stroke-linecap:round; stroke-linejoin:round; stroke-width:4; stroke-opacity:1; fill:none" points="469.404,686.448 469.404,667.55 "/>
<polyline clip-path="url(#clip660)" style="stroke:#000000; stroke-linecap:round; stroke-linejoin:round; stroke-width:4; stroke-opacity:1; fill:none" points="688.427,686.448 688.427,667.55 "/>
<polyline clip-path="url(#clip660)" style="stroke:#000000; stroke-linecap:round; stroke-linejoin:round; stroke-width:4; stroke-opacity:1; fill:none" points="907.45,686.448 907.45,667.55 "/>
<polyline clip-path="url(#clip660)" style="stroke:#000000; stroke-linecap:round; stroke-linejoin:round; stroke-width:4; stroke-opacity:1; fill:none" points="1126.47,686.448 1126.47,667.55 "/>
<path clip-path="url(#clip660)" d="M196.909 732.019 L226.584 732.019 L226.584 735.954 L196.909 735.954 L196.909 732.019 Z" fill="#000000" fill-rule="nonzero" fill-opacity="1" /><path clip-path="url(#clip660)" d="M237.487 744.913 L245.126 744.913 L245.126 718.547 L236.816 720.214 L236.816 715.955 L245.08 714.288 L249.756 714.288 L249.756 744.913 L257.394 744.913 L257.394 748.848 L237.487 748.848 L237.487 744.913 Z" fill="#000000" fill-rule="nonzero" fill-opacity="1" /><path clip-path="url(#clip660)" d="M266.839 742.968 L271.723 742.968 L271.723 748.848 L266.839 748.848 L266.839 742.968 Z" fill="#000000" fill-rule="nonzero" fill-opacity="1" /><path clip-path="url(#clip660)" d="M291.908 717.367 Q288.297 717.367 286.468 720.931 Q284.663 724.473 284.663 731.603 Q284.663 738.709 286.468 742.274 Q288.297 745.815 291.908 745.815 Q295.542 745.815 297.348 742.274 Q299.177 738.709 299.177 731.603 Q299.177 724.473 297.348 720.931 Q295.542 717.367 291.908 717.367 M291.908 713.663 Q297.718 713.663 300.774 718.269 Q303.853 722.853 303.853 731.603 Q303.853 740.329 300.774 744.936 Q297.718 749.519 291.908 749.519 Q286.098 749.519 283.019 744.936 Q279.964 740.329 279.964 731.603 Q279.964 722.853 283.019 718.269 Q286.098 713.663 291.908 713.663 Z" fill="#000000" fill-rule="nonzero" fill-opacity="1" /><path clip-path="url(#clip660)" d="M416.43 732.019 L446.105 732.019 L446.105 735.954 L416.43 735.954 L416.43 732.019 Z" fill="#000000" fill-rule="nonzero" fill-opacity="1" /><path clip-path="url(#clip660)" d="M466.198 717.367 Q462.587 717.367 460.758 720.931 Q458.952 724.473 458.952 731.603 Q458.952 738.709 460.758 742.274 Q462.587 745.815 466.198 745.815 Q469.832 745.815 471.638 742.274 Q473.466 738.709 473.466 731.603 Q473.466 724.473 471.638 720.931 Q469.832 717.367 466.198 717.367 M466.198 713.663 Q472.008 713.663 475.063 718.269 Q478.142 722.853 478.142 731.603 Q478.142 740.329 475.063 744.936 Q472.008 749.519 466.198 749.519 Q460.388 749.519 457.309 744.936 Q454.253 740.329 454.253 731.603 Q454.253 722.853 457.309 718.269 Q460.388 713.663 466.198 713.663 Z" fill="#000000" fill-rule="nonzero" fill-opacity="1" /><path clip-path="url(#clip660)" d="M486.36 742.968 L491.244 742.968 L491.244 748.848 L486.36 748.848 L486.36 742.968 Z" fill="#000000" fill-rule="nonzero" fill-opacity="1" /><path clip-path="url(#clip660)" d="M501.475 714.288 L519.832 714.288 L519.832 718.223 L505.758 718.223 L505.758 726.695 Q506.776 726.348 507.795 726.186 Q508.813 726.001 509.832 726.001 Q515.619 726.001 518.998 729.172 Q522.378 732.343 522.378 737.76 Q522.378 743.339 518.906 746.44 Q515.434 749.519 509.114 749.519 Q506.938 749.519 504.67 749.149 Q502.424 748.778 500.017 748.038 L500.017 743.339 Q502.1 744.473 504.323 745.028 Q506.545 745.584 509.022 745.584 Q513.026 745.584 515.364 743.478 Q517.702 741.371 517.702 737.76 Q517.702 734.149 515.364 732.042 Q513.026 729.936 509.022 729.936 Q507.147 729.936 505.272 730.353 Q503.42 730.769 501.475 731.649 L501.475 714.288 Z" fill="#000000" fill-rule="nonzero" fill-opacity="1" /><path clip-path="url(#clip660)" d="M665.811 717.367 Q662.2 717.367 660.371 720.931 Q658.566 724.473 658.566 731.603 Q658.566 738.709 660.371 742.274 Q662.2 745.815 665.811 745.815 Q669.446 745.815 671.251 742.274 Q673.08 738.709 673.08 731.603 Q673.08 724.473 671.251 720.931 Q669.446 717.367 665.811 717.367 M665.811 713.663 Q671.621 713.663 674.677 718.269 Q677.756 722.853 677.756 731.603 Q677.756 740.329 674.677 744.936 Q671.621 749.519 665.811 749.519 Q660.001 749.519 656.922 744.936 Q653.867 740.329 653.867 731.603 Q653.867 722.853 656.922 718.269 Q660.001 713.663 665.811 713.663 Z" fill="#000000" fill-rule="nonzero" fill-opacity="1" /><path clip-path="url(#clip660)" d="M685.973 742.968 L690.857 742.968 L690.857 748.848 L685.973 748.848 L685.973 742.968 Z" fill="#000000" fill-rule="nonzero" fill-opacity="1" /><path clip-path="url(#clip660)" d="M711.043 717.367 Q707.431 717.367 705.603 720.931 Q703.797 724.473 703.797 731.603 Q703.797 738.709 705.603 742.274 Q707.431 745.815 711.043 745.815 Q714.677 745.815 716.482 742.274 Q718.311 738.709 718.311 731.603 Q718.311 724.473 716.482 720.931 Q714.677 717.367 711.043 717.367 M711.043 713.663 Q716.853 713.663 719.908 718.269 Q722.987 722.853 722.987 731.603 Q722.987 740.329 719.908 744.936 Q716.853 749.519 711.043 749.519 Q705.232 749.519 702.154 744.936 Q699.098 740.329 699.098 731.603 Q699.098 722.853 702.154 718.269 Q705.232 713.663 711.043 713.663 Z" fill="#000000" fill-rule="nonzero" fill-opacity="1" /><path clip-path="url(#clip660)" d="M885.332 717.367 Q881.721 717.367 879.892 720.931 Q878.087 724.473 878.087 731.603 Q878.087 738.709 879.892 742.274 Q881.721 745.815 885.332 745.815 Q888.966 745.815 890.772 742.274 Q892.601 738.709 892.601 731.603 Q892.601 724.473 890.772 720.931 Q888.966 717.367 885.332 717.367 M885.332 713.663 Q891.142 713.663 894.198 718.269 Q897.276 722.853 897.276 731.603 Q897.276 740.329 894.198 744.936 Q891.142 749.519 885.332 749.519 Q879.522 749.519 876.443 744.936 Q873.388 740.329 873.388 731.603 Q873.388 722.853 876.443 718.269 Q879.522 713.663 885.332 713.663 Z" fill="#000000" fill-rule="nonzero" fill-opacity="1" /><path clip-path="url(#clip660)" d="M905.494 742.968 L910.378 742.968 L910.378 748.848 L905.494 748.848 L905.494 742.968 Z" fill="#000000" fill-rule="nonzero" fill-opacity="1" /><path clip-path="url(#clip660)" d="M920.61 714.288 L938.966 714.288 L938.966 718.223 L924.892 718.223 L924.892 726.695 Q925.911 726.348 926.929 726.186 Q927.948 726.001 928.966 726.001 Q934.753 726.001 938.133 729.172 Q941.512 732.343 941.512 737.76 Q941.512 743.339 938.04 746.44 Q934.568 749.519 928.249 749.519 Q926.073 749.519 923.804 749.149 Q921.559 748.778 919.151 748.038 L919.151 743.339 Q921.235 744.473 923.457 745.028 Q925.679 745.584 928.156 745.584 Q932.161 745.584 934.498 743.478 Q936.836 741.371 936.836 737.76 Q936.836 734.149 934.498 732.042 Q932.161 729.936 928.156 729.936 Q926.281 729.936 924.406 730.353 Q922.554 730.769 920.61 731.649 L920.61 714.288 Z" fill="#000000" fill-rule="nonzero" fill-opacity="1" /><path clip-path="url(#clip660)" d="M1093.63 744.913 L1101.26 744.913 L1101.26 718.547 L1092.95 720.214 L1092.95 715.955 L1101.22 714.288 L1105.89 714.288 L1105.89 744.913 L1113.53 744.913 L1113.53 748.848 L1093.63 748.848 L1093.63 744.913 Z" fill="#000000" fill-rule="nonzero" fill-opacity="1" /><path clip-path="url(#clip660)" d="M1122.98 742.968 L1127.86 742.968 L1127.86 748.848 L1122.98 748.848 L1122.98 742.968 Z" fill="#000000" fill-rule="nonzero" fill-opacity="1" /><path clip-path="url(#clip660)" d="M1148.05 717.367 Q1144.44 717.367 1142.61 720.931 Q1140.8 724.473 1140.8 731.603 Q1140.8 738.709 1142.61 742.274 Q1144.44 745.815 1148.05 745.815 Q1151.68 745.815 1153.49 742.274 Q1155.32 738.709 1155.32 731.603 Q1155.32 724.473 1153.49 720.931 Q1151.68 717.367 1148.05 717.367 M1148.05 713.663 Q1153.86 713.663 1156.91 718.269 Q1159.99 722.853 1159.99 731.603 Q1159.99 740.329 1156.91 744.936 Q1153.86 749.519 1148.05 749.519 Q1142.24 749.519 1139.16 744.936 Q1136.1 740.329 1136.1 731.603 Q1136.1 722.853 1139.16 718.269 Q1142.24 713.663 1148.05 713.663 Z" fill="#000000" fill-rule="nonzero" fill-opacity="1" /><polyline clip-path="url(#clip662)" style="stroke:#000000; stroke-linecap:round; stroke-linejoin:round; stroke-width:2; stroke-opacity:0.1; fill:none" points="224.098,595.593 1152.76,595.593 "/>
<polyline clip-path="url(#clip662)" style="stroke:#000000; stroke-linecap:round; stroke-linejoin:round; stroke-width:2; stroke-opacity:0.1; fill:none" points="224.098,500.716 1152.76,500.716 "/>
<polyline clip-path="url(#clip662)" style="stroke:#000000; stroke-linecap:round; stroke-linejoin:round; stroke-width:2; stroke-opacity:0.1; fill:none" points="224.098,405.839 1152.76,405.839 "/>
<polyline clip-path="url(#clip662)" style="stroke:#000000; stroke-linecap:round; stroke-linejoin:round; stroke-width:2; stroke-opacity:0.1; fill:none" points="224.098,310.962 1152.76,310.962 "/>
<polyline clip-path="url(#clip662)" style="stroke:#000000; stroke-linecap:round; stroke-linejoin:round; stroke-width:2; stroke-opacity:0.1; fill:none" points="224.098,216.084 1152.76,216.084 "/>
<polyline clip-path="url(#clip660)" style="stroke:#000000; stroke-linecap:round; stroke-linejoin:round; stroke-width:4; stroke-opacity:1; fill:none" points="224.098,686.448 224.098,123.472 "/>
<polyline clip-path="url(#clip660)" style="stroke:#000000; stroke-linecap:round; stroke-linejoin:round; stroke-width:4; stroke-opacity:1; fill:none" points="224.098,595.593 242.996,595.593 "/>
<polyline clip-path="url(#clip660)" style="stroke:#000000; stroke-linecap:round; stroke-linejoin:round; stroke-width:4; stroke-opacity:1; fill:none" points="224.098,500.716 242.996,500.716 "/>
<polyline clip-path="url(#clip660)" style="stroke:#000000; stroke-linecap:round; stroke-linejoin:round; stroke-width:4; stroke-opacity:1; fill:none" points="224.098,405.839 242.996,405.839 "/>
<polyline clip-path="url(#clip660)" style="stroke:#000000; stroke-linecap:round; stroke-linejoin:round; stroke-width:4; stroke-opacity:1; fill:none" points="224.098,310.962 242.996,310.962 "/>
<polyline clip-path="url(#clip660)" style="stroke:#000000; stroke-linecap:round; stroke-linejoin:round; stroke-width:4; stroke-opacity:1; fill:none" points="224.098,216.084 242.996,216.084 "/>
<path clip-path="url(#clip660)" d="M50.9921 596.044 L80.6679 596.044 L80.6679 599.98 L50.9921 599.98 L50.9921 596.044 Z" fill="#000000" fill-rule="nonzero" fill-opacity="1" /><path clip-path="url(#clip660)" d="M100.76 581.392 Q97.1493 581.392 95.3206 584.956 Q93.515 588.498 93.515 595.628 Q93.515 602.734 95.3206 606.299 Q97.1493 609.841 100.76 609.841 Q104.395 609.841 106.2 606.299 Q108.029 602.734 108.029 595.628 Q108.029 588.498 106.2 584.956 Q104.395 581.392 100.76 581.392 M100.76 577.688 Q106.571 577.688 109.626 582.294 Q112.705 586.878 112.705 595.628 Q112.705 604.355 109.626 608.961 Q106.571 613.544 100.76 613.544 Q94.9502 613.544 91.8715 608.961 Q88.816 604.355 88.816 595.628 Q88.816 586.878 91.8715 582.294 Q94.9502 577.688 100.76 577.688 Z" fill="#000000" fill-rule="nonzero" fill-opacity="1" /><path clip-path="url(#clip660)" d="M120.922 606.993 L125.807 606.993 L125.807 612.873 L120.922 612.873 L120.922 606.993 Z" fill="#000000" fill-rule="nonzero" fill-opacity="1" /><path clip-path="url(#clip660)" d="M136.038 578.313 L154.394 578.313 L154.394 582.248 L140.32 582.248 L140.32 590.72 Q141.339 590.373 142.357 590.211 Q143.376 590.026 144.394 590.026 Q150.181 590.026 153.561 593.197 Q156.941 596.368 156.941 601.785 Q156.941 607.364 153.468 610.466 Q149.996 613.544 143.677 613.544 Q141.501 613.544 139.232 613.174 Q136.987 612.804 134.58 612.063 L134.58 607.364 Q136.663 608.498 138.885 609.054 Q141.107 609.609 143.584 609.609 Q147.589 609.609 149.927 607.503 Q152.265 605.396 152.265 601.785 Q152.265 598.174 149.927 596.068 Q147.589 593.961 143.584 593.961 Q141.709 593.961 139.834 594.378 Q137.982 594.794 136.038 595.674 L136.038 578.313 Z" fill="#000000" fill-rule="nonzero" fill-opacity="1" /><path clip-path="url(#clip660)" d="M176.153 581.392 Q172.542 581.392 170.714 584.956 Q168.908 588.498 168.908 595.628 Q168.908 602.734 170.714 606.299 Q172.542 609.841 176.153 609.841 Q179.788 609.841 181.593 606.299 Q183.422 602.734 183.422 595.628 Q183.422 588.498 181.593 584.956 Q179.788 581.392 176.153 581.392 M176.153 577.688 Q181.964 577.688 185.019 582.294 Q188.098 586.878 188.098 595.628 Q188.098 604.355 185.019 608.961 Q181.964 613.544 176.153 613.544 Q170.343 613.544 167.265 608.961 Q164.209 604.355 164.209 595.628 Q164.209 586.878 167.265 582.294 Q170.343 577.688 176.153 577.688 Z" fill="#000000" fill-rule="nonzero" fill-opacity="1" /><path clip-path="url(#clip660)" d="M51.9875 501.167 L81.6633 501.167 L81.6633 505.102 L51.9875 505.102 L51.9875 501.167 Z" fill="#000000" fill-rule="nonzero" fill-opacity="1" /><path clip-path="url(#clip660)" d="M101.756 486.515 Q98.1447 486.515 96.316 490.079 Q94.5104 493.621 94.5104 500.751 Q94.5104 507.857 96.316 511.422 Q98.1447 514.963 101.756 514.963 Q105.39 514.963 107.196 511.422 Q109.024 507.857 109.024 500.751 Q109.024 493.621 107.196 490.079 Q105.39 486.515 101.756 486.515 M101.756 482.811 Q107.566 482.811 110.621 487.417 Q113.7 492.001 113.7 500.751 Q113.7 509.477 110.621 514.084 Q107.566 518.667 101.756 518.667 Q95.9456 518.667 92.8669 514.084 Q89.8114 509.477 89.8114 500.751 Q89.8114 492.001 92.8669 487.417 Q95.9456 482.811 101.756 482.811 Z" fill="#000000" fill-rule="nonzero" fill-opacity="1" /><path clip-path="url(#clip660)" d="M121.918 512.116 L126.802 512.116 L126.802 517.996 L121.918 517.996 L121.918 512.116 Z" fill="#000000" fill-rule="nonzero" fill-opacity="1" /><path clip-path="url(#clip660)" d="M141.015 514.061 L157.334 514.061 L157.334 517.996 L135.39 517.996 L135.39 514.061 Q138.052 511.306 142.635 506.676 Q147.242 502.024 148.422 500.681 Q150.668 498.158 151.547 496.422 Q152.45 494.663 152.45 492.973 Q152.45 490.218 150.505 488.482 Q148.584 486.746 145.482 486.746 Q143.283 486.746 140.83 487.51 Q138.399 488.274 135.621 489.825 L135.621 485.102 Q138.445 483.968 140.899 483.39 Q143.353 482.811 145.39 482.811 Q150.76 482.811 153.955 485.496 Q157.149 488.181 157.149 492.672 Q157.149 494.801 156.339 496.723 Q155.552 498.621 153.445 501.214 Q152.867 501.885 149.765 505.102 Q146.663 508.297 141.015 514.061 Z" fill="#000000" fill-rule="nonzero" fill-opacity="1" /><path clip-path="url(#clip660)" d="M167.195 483.436 L185.552 483.436 L185.552 487.371 L171.478 487.371 L171.478 495.843 Q172.496 495.496 173.515 495.334 Q174.533 495.149 175.552 495.149 Q181.339 495.149 184.718 498.32 Q188.098 501.491 188.098 506.908 Q188.098 512.487 184.626 515.588 Q181.153 518.667 174.834 518.667 Q172.658 518.667 170.39 518.297 Q168.144 517.926 165.737 517.186 L165.737 512.487 Q167.82 513.621 170.042 514.176 Q172.265 514.732 174.741 514.732 Q178.746 514.732 181.084 512.625 Q183.422 510.519 183.422 506.908 Q183.422 503.297 181.084 501.19 Q178.746 499.084 174.741 499.084 Q172.866 499.084 170.991 499.501 Q169.14 499.917 167.195 500.797 L167.195 483.436 Z" fill="#000000" fill-rule="nonzero" fill-opacity="1" /><path clip-path="url(#clip660)" d="M100.76 391.637 Q97.1493 391.637 95.3206 395.202 Q93.515 398.744 93.515 405.873 Q93.515 412.98 95.3206 416.545 Q97.1493 420.086 100.76 420.086 Q104.395 420.086 106.2 416.545 Q108.029 412.98 108.029 405.873 Q108.029 398.744 106.2 395.202 Q104.395 391.637 100.76 391.637 M100.76 387.934 Q106.571 387.934 109.626 392.54 Q112.705 397.123 112.705 405.873 Q112.705 414.6 109.626 419.207 Q106.571 423.79 100.76 423.79 Q94.9502 423.79 91.8715 419.207 Q88.816 414.6 88.816 405.873 Q88.816 397.123 91.8715 392.54 Q94.9502 387.934 100.76 387.934 Z" fill="#000000" fill-rule="nonzero" fill-opacity="1" /><path clip-path="url(#clip660)" d="M120.922 417.239 L125.807 417.239 L125.807 423.119 L120.922 423.119 L120.922 417.239 Z" fill="#000000" fill-rule="nonzero" fill-opacity="1" /><path clip-path="url(#clip660)" d="M145.992 391.637 Q142.381 391.637 140.552 395.202 Q138.746 398.744 138.746 405.873 Q138.746 412.98 140.552 416.545 Q142.381 420.086 145.992 420.086 Q149.626 420.086 151.431 416.545 Q153.26 412.98 153.26 405.873 Q153.26 398.744 151.431 395.202 Q149.626 391.637 145.992 391.637 M145.992 387.934 Q151.802 387.934 154.857 392.54 Q157.936 397.123 157.936 405.873 Q157.936 414.6 154.857 419.207 Q151.802 423.79 145.992 423.79 Q140.181 423.79 137.103 419.207 Q134.047 414.6 134.047 405.873 Q134.047 397.123 137.103 392.54 Q140.181 387.934 145.992 387.934 Z" fill="#000000" fill-rule="nonzero" fill-opacity="1" /><path clip-path="url(#clip660)" d="M176.153 391.637 Q172.542 391.637 170.714 395.202 Q168.908 398.744 168.908 405.873 Q168.908 412.98 170.714 416.545 Q172.542 420.086 176.153 420.086 Q179.788 420.086 181.593 416.545 Q183.422 412.98 183.422 405.873 Q183.422 398.744 181.593 395.202 Q179.788 391.637 176.153 391.637 M176.153 387.934 Q181.964 387.934 185.019 392.54 Q188.098 397.123 188.098 405.873 Q188.098 414.6 185.019 419.207 Q181.964 423.79 176.153 423.79 Q170.343 423.79 167.265 419.207 Q164.209 414.6 164.209 405.873 Q164.209 397.123 167.265 392.54 Q170.343 387.934 176.153 387.934 Z" fill="#000000" fill-rule="nonzero" fill-opacity="1" /><path clip-path="url(#clip660)" d="M101.756 296.76 Q98.1447 296.76 96.316 300.325 Q94.5104 303.867 94.5104 310.996 Q94.5104 318.103 96.316 321.667 Q98.1447 325.209 101.756 325.209 Q105.39 325.209 107.196 321.667 Q109.024 318.103 109.024 310.996 Q109.024 303.867 107.196 300.325 Q105.39 296.76 101.756 296.76 M101.756 293.057 Q107.566 293.057 110.621 297.663 Q113.7 302.246 113.7 310.996 Q113.7 319.723 110.621 324.329 Q107.566 328.913 101.756 328.913 Q95.9456 328.913 92.8669 324.329 Q89.8114 319.723 89.8114 310.996 Q89.8114 302.246 92.8669 297.663 Q95.9456 293.057 101.756 293.057 Z" fill="#000000" fill-rule="nonzero" fill-opacity="1" /><path clip-path="url(#clip660)" d="M121.918 322.362 L126.802 322.362 L126.802 328.242 L121.918 328.242 L121.918 322.362 Z" fill="#000000" fill-rule="nonzero" fill-opacity="1" /><path clip-path="url(#clip660)" d="M141.015 324.306 L157.334 324.306 L157.334 328.242 L135.39 328.242 L135.39 324.306 Q138.052 321.552 142.635 316.922 Q147.242 312.269 148.422 310.927 Q150.668 308.404 151.547 306.668 Q152.45 304.908 152.45 303.218 Q152.45 300.464 150.505 298.728 Q148.584 296.992 145.482 296.992 Q143.283 296.992 140.83 297.756 Q138.399 298.519 135.621 300.07 L135.621 295.348 Q138.445 294.214 140.899 293.635 Q143.353 293.057 145.39 293.057 Q150.76 293.057 153.955 295.742 Q157.149 298.427 157.149 302.918 Q157.149 305.047 156.339 306.968 Q155.552 308.867 153.445 311.459 Q152.867 312.13 149.765 315.348 Q146.663 318.542 141.015 324.306 Z" fill="#000000" fill-rule="nonzero" fill-opacity="1" /><path clip-path="url(#clip660)" d="M167.195 293.682 L185.552 293.682 L185.552 297.617 L171.478 297.617 L171.478 306.089 Q172.496 305.742 173.515 305.58 Q174.533 305.394 175.552 305.394 Q181.339 305.394 184.718 308.566 Q188.098 311.737 188.098 317.154 Q188.098 322.732 184.626 325.834 Q181.153 328.913 174.834 328.913 Q172.658 328.913 170.39 328.542 Q168.144 328.172 165.737 327.431 L165.737 322.732 Q167.82 323.867 170.042 324.422 Q172.265 324.978 174.741 324.978 Q178.746 324.978 181.084 322.871 Q183.422 320.765 183.422 317.154 Q183.422 313.543 181.084 311.436 Q178.746 309.33 174.741 309.33 Q172.866 309.33 170.991 309.746 Q169.14 310.163 167.195 311.043 L167.195 293.682 Z" fill="#000000" fill-rule="nonzero" fill-opacity="1" /><path clip-path="url(#clip660)" d="M100.76 201.883 Q97.1493 201.883 95.3206 205.448 Q93.515 208.989 93.515 216.119 Q93.515 223.226 95.3206 226.79 Q97.1493 230.332 100.76 230.332 Q104.395 230.332 106.2 226.79 Q108.029 223.226 108.029 216.119 Q108.029 208.989 106.2 205.448 Q104.395 201.883 100.76 201.883 M100.76 198.179 Q106.571 198.179 109.626 202.786 Q112.705 207.369 112.705 216.119 Q112.705 224.846 109.626 229.452 Q106.571 234.036 100.76 234.036 Q94.9502 234.036 91.8715 229.452 Q88.816 224.846 88.816 216.119 Q88.816 207.369 91.8715 202.786 Q94.9502 198.179 100.76 198.179 Z" fill="#000000" fill-rule="nonzero" fill-opacity="1" /><path clip-path="url(#clip660)" d="M120.922 227.485 L125.807 227.485 L125.807 233.364 L120.922 233.364 L120.922 227.485 Z" fill="#000000" fill-rule="nonzero" fill-opacity="1" /><path clip-path="url(#clip660)" d="M136.038 198.804 L154.394 198.804 L154.394 202.74 L140.32 202.74 L140.32 211.212 Q141.339 210.864 142.357 210.702 Q143.376 210.517 144.394 210.517 Q150.181 210.517 153.561 213.689 Q156.941 216.86 156.941 222.276 Q156.941 227.855 153.468 230.957 Q149.996 234.036 143.677 234.036 Q141.501 234.036 139.232 233.665 Q136.987 233.295 134.58 232.554 L134.58 227.855 Q136.663 228.989 138.885 229.545 Q141.107 230.1 143.584 230.1 Q147.589 230.1 149.927 227.994 Q152.265 225.888 152.265 222.276 Q152.265 218.665 149.927 216.559 Q147.589 214.452 143.584 214.452 Q141.709 214.452 139.834 214.869 Q137.982 215.286 136.038 216.165 L136.038 198.804 Z" fill="#000000" fill-rule="nonzero" fill-opacity="1" /><path clip-path="url(#clip660)" d="M176.153 201.883 Q172.542 201.883 170.714 205.448 Q168.908 208.989 168.908 216.119 Q168.908 223.226 170.714 226.79 Q172.542 230.332 176.153 230.332 Q179.788 230.332 181.593 226.79 Q183.422 223.226 183.422 216.119 Q183.422 208.989 181.593 205.448 Q179.788 201.883 176.153 201.883 M176.153 198.179 Q181.964 198.179 185.019 202.786 Q188.098 207.369 188.098 216.119 Q188.098 224.846 185.019 229.452 Q181.964 234.036 176.153 234.036 Q170.343 234.036 167.265 229.452 Q164.209 224.846 164.209 216.119 Q164.209 207.369 167.265 202.786 Q170.343 198.179 176.153 198.179 Z" fill="#000000" fill-rule="nonzero" fill-opacity="1" /><path clip-path="url(#clip660)" d="M562.97 14.324 L562.97 27.2059 L578.323 27.2059 L578.323 32.9987 L562.97 32.9987 L562.97 57.6282 Q562.97 63.1779 564.469 64.7578 Q566.009 66.3376 570.667 66.3376 L578.323 66.3376 L578.323 72.576 L570.667 72.576 Q562.039 72.576 558.757 69.3758 Q555.476 66.1351 555.476 57.6282 L555.476 32.9987 L550.007 32.9987 L550.007 27.2059 L555.476 27.2059 L555.476 14.324 L562.97 14.324 Z" fill="#000000" fill-rule="nonzero" fill-opacity="1" /><path clip-path="url(#clip660)" d="M615.47 34.9026 L667.403 34.9026 L667.403 41.7081 L615.47 41.7081 L615.47 34.9026 M615.47 51.4303 L667.403 51.4303 L667.403 58.3168 L615.47 58.3168 L615.47 51.4303 Z" fill="#000000" fill-rule="nonzero" fill-opacity="1" /><path clip-path="url(#clip660)" d="M728.936 17.4837 Q722.617 17.4837 719.416 23.7221 Q716.257 29.92 716.257 42.3968 Q716.257 54.833 719.416 61.0714 Q722.617 67.2693 728.936 67.2693 Q735.296 67.2693 738.456 61.0714 Q741.656 54.833 741.656 42.3968 Q741.656 29.92 738.456 23.7221 Q735.296 17.4837 728.936 17.4837 M728.936 11.0023 Q739.104 11.0023 744.451 19.0636 Q749.839 27.0843 749.839 42.3968 Q749.839 57.6687 744.451 65.73 Q739.104 73.7508 728.936 73.7508 Q718.768 73.7508 713.38 65.73 Q708.033 57.6687 708.033 42.3968 Q708.033 27.0843 713.38 19.0636 Q718.768 11.0023 728.936 11.0023 Z" fill="#000000" fill-rule="nonzero" fill-opacity="1" /><path clip-path="url(#clip660)" d="M764.219 62.2867 L772.767 62.2867 L772.767 72.576 L764.219 72.576 L764.219 62.2867 Z" fill="#000000" fill-rule="nonzero" fill-opacity="1" /><path clip-path="url(#clip660)" d="M792.009 65.6895 L805.376 65.6895 L805.376 19.5497 L790.834 22.4663 L790.834 15.0127 L805.295 12.096 L813.478 12.096 L813.478 65.6895 L826.846 65.6895 L826.846 72.576 L792.009 72.576 L792.009 65.6895 Z" fill="#000000" fill-rule="nonzero" fill-opacity="1" /><polyline clip-path="url(#clip662)" style="stroke:#009af9; stroke-linecap:round; stroke-linejoin:round; stroke-width:4; stroke-opacity:1; fill:none" points="250.381,404.188 254.761,392.682 259.142,381.256 263.522,369.923 267.902,358.696 272.283,347.591 276.663,336.621 281.044,325.802 285.424,315.151 289.805,304.685 294.185,294.419 298.566,284.372 302.946,274.559 307.327,264.999 311.707,255.707 316.088,246.7 320.468,237.993 324.849,229.601 329.229,221.539 333.609,213.82 337.99,206.456 342.37,199.457 346.751,192.834 351.131,186.594 355.512,180.745 359.892,175.292 364.273,170.238 368.653,165.585 373.034,161.334 377.414,157.482 381.795,154.027 386.175,150.964 390.555,148.285 394.936,145.982 399.316,144.046 403.697,142.465 408.077,141.226 412.458,140.316 416.838,139.72 421.219,139.422 425.599,139.405 429.98,139.654 434.36,140.151 438.741,140.88 443.121,141.824 447.501,142.967 451.882,144.293 456.262,145.789 460.643,147.44 465.023,149.235 469.404,151.164 473.784,153.216 478.165,155.386 482.545,157.666 486.926,160.054 491.306,162.548 495.687,165.147 500.067,167.854 504.447,170.671 508.828,173.604 513.208,176.657 517.589,179.838 521.969,183.154 526.35,186.61 530.73,190.213 535.111,193.969 539.491,197.879 543.872,201.946 548.252,206.168 552.633,210.545 557.013,215.073 561.393,219.749 565.774,224.571 570.154,229.542 574.535,234.674 578.915,239.985 583.296,245.505 587.676,251.276 592.057,257.343 596.437,263.749 600.818,270.529 605.198,277.694 609.579,285.232 613.959,293.099 618.339,301.228 622.72,309.53 627.1,317.91 631.481,326.271 635.861,334.528 640.242,342.609 644.622,350.461 649.003,358.049 653.383,365.355 657.764,372.378 662.144,379.126 666.525,385.616 670.905,391.874 675.286,397.925 679.666,403.799 684.046,409.524 688.427,415.129 692.807,420.64 697.188,426.081 701.568,431.475 705.949,436.84 710.329,442.196 714.71,447.556 719.09,452.934 723.471,458.341 727.851,463.784 732.232,469.272 736.612,474.809 740.992,480.398 745.373,486.041 749.753,491.74 754.134,497.492 758.514,503.296 762.895,509.148 767.275,515.043 771.656,520.976 776.036,526.938 780.417,532.924 784.797,538.923 789.178,544.925 793.558,550.92 797.938,556.897 802.319,562.844 806.699,568.747 811.08,574.595 815.46,580.373 819.841,586.067 824.221,591.666 828.602,597.153 832.982,602.517 837.363,607.744 841.743,612.821 846.124,617.735 850.504,622.476 854.884,627.033 859.265,631.394 863.645,635.553 868.026,639.5 872.406,643.228 876.787,646.732 881.167,650.007 885.548,653.048 889.928,655.853 894.309,658.419 898.689,660.743 903.07,662.825 907.45,664.664 911.83,666.256 916.211,667.602 920.591,668.698 924.972,669.541 929.352,670.129 933.733,670.455 938.113,670.515 942.494,670.3 946.874,669.804 951.255,669.018 955.635,667.932 960.016,666.537 964.396,664.824 968.776,662.783 973.157,660.406 977.537,657.687 981.918,654.621 986.298,651.204 990.679,647.437 995.059,643.321 999.44,638.862 1003.82,634.067 1008.2,628.946 1012.58,623.513 1016.96,617.784 1021.34,611.775 1025.72,605.507 1030.1,599.001 1034.48,592.278 1038.86,585.361 1043.24,578.273 1047.62,571.037 1052.01,563.677 1056.39,556.214 1060.77,548.669 1065.15,541.063 1069.53,533.414 1073.91,525.741 1078.29,518.059 1082.67,510.384 1087.05,502.728 1091.43,495.103 1095.81,487.52 1100.19,479.988 1104.57,472.514 1108.95,465.105 1113.33,457.766 1117.71,450.501 1122.09,443.313 1126.47,436.203 "/>
<path clip-path="url(#clip660)" d="M976.505 245.918 L1121.8 245.918 L1121.8 142.238 L976.505 142.238  Z" fill="#ffffff" fill-rule="evenodd" fill-opacity="1"/>
<polyline clip-path="url(#clip660)" style="stroke:#000000; stroke-linecap:round; stroke-linejoin:round; stroke-width:4; stroke-opacity:1; fill:none" points="976.505,245.918 1121.8,245.918 1121.8,142.238 976.505,142.238 976.505,245.918 "/>
<polyline clip-path="url(#clip660)" style="stroke:#009af9; stroke-linecap:round; stroke-linejoin:round; stroke-width:4; stroke-opacity:1; fill:none" points="986.823,194.078 1048.73,194.078 "/>
<path clip-path="url(#clip660)" d="M1072.89 213.765 Q1071.09 218.395 1069.38 219.807 Q1067.66 221.219 1064.79 221.219 L1061.39 221.219 L1061.39 217.654 L1063.89 217.654 Q1065.65 217.654 1066.62 216.821 Q1067.59 215.988 1068.77 212.886 L1069.54 210.941 L1059.05 185.432 L1063.57 185.432 L1071.67 205.71 L1079.77 185.432 L1084.28 185.432 L1072.89 213.765 Z" fill="#000000" fill-rule="nonzero" fill-opacity="1" /><path clip-path="url(#clip660)" d="M1091.57 207.423 L1099.21 207.423 L1099.21 181.057 L1090.9 182.724 L1090.9 178.465 L1099.17 176.798 L1103.84 176.798 L1103.84 207.423 L1111.48 207.423 L1111.48 211.358 L1091.57 211.358 L1091.57 207.423 Z" fill="#000000" fill-rule="nonzero" fill-opacity="1" /><path clip-path="url(#clip660)" d="M1424.1 686.448 L2352.76 686.448 L2352.76 123.472 L1424.1 123.472  Z" fill="#ffffff" fill-rule="evenodd" fill-opacity="1"/>
<defs>
  <clipPath id="clip663">
    <rect x="1424" y="123" width="930" height="564"/>
  </clipPath>
</defs>
<polyline clip-path="url(#clip663)" style="stroke:#000000; stroke-linecap:round; stroke-linejoin:round; stroke-width:2; stroke-opacity:0.1; fill:none" points="1450.38,686.448 1450.38,123.472 "/>
<polyline clip-path="url(#clip663)" style="stroke:#000000; stroke-linecap:round; stroke-linejoin:round; stroke-width:2; stroke-opacity:0.1; fill:none" points="1669.4,686.448 1669.4,123.472 "/>
<polyline clip-path="url(#clip663)" style="stroke:#000000; stroke-linecap:round; stroke-linejoin:round; stroke-width:2; stroke-opacity:0.1; fill:none" points="1888.43,686.448 1888.43,123.472 "/>
<polyline clip-path="url(#clip663)" style="stroke:#000000; stroke-linecap:round; stroke-linejoin:round; stroke-width:2; stroke-opacity:0.1; fill:none" points="2107.45,686.448 2107.45,123.472 "/>
<polyline clip-path="url(#clip663)" style="stroke:#000000; stroke-linecap:round; stroke-linejoin:round; stroke-width:2; stroke-opacity:0.1; fill:none" points="2326.47,686.448 2326.47,123.472 "/>
<polyline clip-path="url(#clip660)" style="stroke:#000000; stroke-linecap:round; stroke-linejoin:round; stroke-width:4; stroke-opacity:1; fill:none" points="1424.1,686.448 2352.76,686.448 "/>
<polyline clip-path="url(#clip660)" style="stroke:#000000; stroke-linecap:round; stroke-linejoin:round; stroke-width:4; stroke-opacity:1; fill:none" points="1450.38,686.448 1450.38,667.55 "/>
<polyline clip-path="url(#clip660)" style="stroke:#000000; stroke-linecap:round; stroke-linejoin:round; stroke-width:4; stroke-opacity:1; fill:none" points="1669.4,686.448 1669.4,667.55 "/>
<polyline clip-path="url(#clip660)" style="stroke:#000000; stroke-linecap:round; stroke-linejoin:round; stroke-width:4; stroke-opacity:1; fill:none" points="1888.43,686.448 1888.43,667.55 "/>
<polyline clip-path="url(#clip660)" style="stroke:#000000; stroke-linecap:round; stroke-linejoin:round; stroke-width:4; stroke-opacity:1; fill:none" points="2107.45,686.448 2107.45,667.55 "/>
<polyline clip-path="url(#clip660)" style="stroke:#000000; stroke-linecap:round; stroke-linejoin:round; stroke-width:4; stroke-opacity:1; fill:none" points="2326.47,686.448 2326.47,667.55 "/>
<path clip-path="url(#clip660)" d="M1396.91 732.019 L1426.58 732.019 L1426.58 735.954 L1396.91 735.954 L1396.91 732.019 Z" fill="#000000" fill-rule="nonzero" fill-opacity="1" /><path clip-path="url(#clip660)" d="M1437.49 744.913 L1445.13 744.913 L1445.13 718.547 L1436.82 720.214 L1436.82 715.955 L1445.08 714.288 L1449.76 714.288 L1449.76 744.913 L1457.39 744.913 L1457.39 748.848 L1437.49 748.848 L1437.49 744.913 Z" fill="#000000" fill-rule="nonzero" fill-opacity="1" /><path clip-path="url(#clip660)" d="M1466.84 742.968 L1471.72 742.968 L1471.72 748.848 L1466.84 748.848 L1466.84 742.968 Z" fill="#000000" fill-rule="nonzero" fill-opacity="1" /><path clip-path="url(#clip660)" d="M1491.91 717.367 Q1488.3 717.367 1486.47 720.931 Q1484.66 724.473 1484.66 731.603 Q1484.66 738.709 1486.47 742.274 Q1488.3 745.815 1491.91 745.815 Q1495.54 745.815 1497.35 742.274 Q1499.18 738.709 1499.18 731.603 Q1499.18 724.473 1497.35 720.931 Q1495.54 717.367 1491.91 717.367 M1491.91 713.663 Q1497.72 713.663 1500.77 718.269 Q1503.85 722.853 1503.85 731.603 Q1503.85 740.329 1500.77 744.936 Q1497.72 749.519 1491.91 749.519 Q1486.1 749.519 1483.02 744.936 Q1479.96 740.329 1479.96 731.603 Q1479.96 722.853 1483.02 718.269 Q1486.1 713.663 1491.91 713.663 Z" fill="#000000" fill-rule="nonzero" fill-opacity="1" /><path clip-path="url(#clip660)" d="M1616.43 732.019 L1646.11 732.019 L1646.11 735.954 L1616.43 735.954 L1616.43 732.019 Z" fill="#000000" fill-rule="nonzero" fill-opacity="1" /><path clip-path="url(#clip660)" d="M1666.2 717.367 Q1662.59 717.367 1660.76 720.931 Q1658.95 724.473 1658.95 731.603 Q1658.95 738.709 1660.76 742.274 Q1662.59 745.815 1666.2 745.815 Q1669.83 745.815 1671.64 742.274 Q1673.47 738.709 1673.47 731.603 Q1673.47 724.473 1671.64 720.931 Q1669.83 717.367 1666.2 717.367 M1666.2 713.663 Q1672.01 713.663 1675.06 718.269 Q1678.14 722.853 1678.14 731.603 Q1678.14 740.329 1675.06 744.936 Q1672.01 749.519 1666.2 749.519 Q1660.39 749.519 1657.31 744.936 Q1654.25 740.329 1654.25 731.603 Q1654.25 722.853 1657.31 718.269 Q1660.39 713.663 1666.2 713.663 Z" fill="#000000" fill-rule="nonzero" fill-opacity="1" /><path clip-path="url(#clip660)" d="M1686.36 742.968 L1691.24 742.968 L1691.24 748.848 L1686.36 748.848 L1686.36 742.968 Z" fill="#000000" fill-rule="nonzero" fill-opacity="1" /><path clip-path="url(#clip660)" d="M1701.48 714.288 L1719.83 714.288 L1719.83 718.223 L1705.76 718.223 L1705.76 726.695 Q1706.78 726.348 1707.79 726.186 Q1708.81 726.001 1709.83 726.001 Q1715.62 726.001 1719 729.172 Q1722.38 732.343 1722.38 737.76 Q1722.38 743.339 1718.91 746.44 Q1715.43 749.519 1709.11 749.519 Q1706.94 749.519 1704.67 749.149 Q1702.42 748.778 1700.02 748.038 L1700.02 743.339 Q1702.1 744.473 1704.32 745.028 Q1706.54 745.584 1709.02 745.584 Q1713.03 745.584 1715.36 743.478 Q1717.7 741.371 1717.7 737.76 Q1717.7 734.149 1715.36 732.042 Q1713.03 729.936 1709.02 729.936 Q1707.15 729.936 1705.27 730.353 Q1703.42 730.769 1701.48 731.649 L1701.48 714.288 Z" fill="#000000" fill-rule="nonzero" fill-opacity="1" /><path clip-path="url(#clip660)" d="M1865.81 717.367 Q1862.2 717.367 1860.37 720.931 Q1858.57 724.473 1858.57 731.603 Q1858.57 738.709 1860.37 742.274 Q1862.2 745.815 1865.81 745.815 Q1869.45 745.815 1871.25 742.274 Q1873.08 738.709 1873.08 731.603 Q1873.08 724.473 1871.25 720.931 Q1869.45 717.367 1865.81 717.367 M1865.81 713.663 Q1871.62 713.663 1874.68 718.269 Q1877.76 722.853 1877.76 731.603 Q1877.76 740.329 1874.68 744.936 Q1871.62 749.519 1865.81 749.519 Q1860 749.519 1856.92 744.936 Q1853.87 740.329 1853.87 731.603 Q1853.87 722.853 1856.92 718.269 Q1860 713.663 1865.81 713.663 Z" fill="#000000" fill-rule="nonzero" fill-opacity="1" /><path clip-path="url(#clip660)" d="M1885.97 742.968 L1890.86 742.968 L1890.86 748.848 L1885.97 748.848 L1885.97 742.968 Z" fill="#000000" fill-rule="nonzero" fill-opacity="1" /><path clip-path="url(#clip660)" d="M1911.04 717.367 Q1907.43 717.367 1905.6 720.931 Q1903.8 724.473 1903.8 731.603 Q1903.8 738.709 1905.6 742.274 Q1907.43 745.815 1911.04 745.815 Q1914.68 745.815 1916.48 742.274 Q1918.31 738.709 1918.31 731.603 Q1918.31 724.473 1916.48 720.931 Q1914.68 717.367 1911.04 717.367 M1911.04 713.663 Q1916.85 713.663 1919.91 718.269 Q1922.99 722.853 1922.99 731.603 Q1922.99 740.329 1919.91 744.936 Q1916.85 749.519 1911.04 749.519 Q1905.23 749.519 1902.15 744.936 Q1899.1 740.329 1899.1 731.603 Q1899.1 722.853 1902.15 718.269 Q1905.23 713.663 1911.04 713.663 Z" fill="#000000" fill-rule="nonzero" fill-opacity="1" /><path clip-path="url(#clip660)" d="M2085.33 717.367 Q2081.72 717.367 2079.89 720.931 Q2078.09 724.473 2078.09 731.603 Q2078.09 738.709 2079.89 742.274 Q2081.72 745.815 2085.33 745.815 Q2088.97 745.815 2090.77 742.274 Q2092.6 738.709 2092.6 731.603 Q2092.6 724.473 2090.77 720.931 Q2088.97 717.367 2085.33 717.367 M2085.33 713.663 Q2091.14 713.663 2094.2 718.269 Q2097.28 722.853 2097.28 731.603 Q2097.28 740.329 2094.2 744.936 Q2091.14 749.519 2085.33 749.519 Q2079.52 749.519 2076.44 744.936 Q2073.39 740.329 2073.39 731.603 Q2073.39 722.853 2076.44 718.269 Q2079.52 713.663 2085.33 713.663 Z" fill="#000000" fill-rule="nonzero" fill-opacity="1" /><path clip-path="url(#clip660)" d="M2105.49 742.968 L2110.38 742.968 L2110.38 748.848 L2105.49 748.848 L2105.49 742.968 Z" fill="#000000" fill-rule="nonzero" fill-opacity="1" /><path clip-path="url(#clip660)" d="M2120.61 714.288 L2138.97 714.288 L2138.97 718.223 L2124.89 718.223 L2124.89 726.695 Q2125.91 726.348 2126.93 726.186 Q2127.95 726.001 2128.97 726.001 Q2134.75 726.001 2138.13 729.172 Q2141.51 732.343 2141.51 737.76 Q2141.51 743.339 2138.04 746.44 Q2134.57 749.519 2128.25 749.519 Q2126.07 749.519 2123.8 749.149 Q2121.56 748.778 2119.15 748.038 L2119.15 743.339 Q2121.23 744.473 2123.46 745.028 Q2125.68 745.584 2128.16 745.584 Q2132.16 745.584 2134.5 743.478 Q2136.84 741.371 2136.84 737.76 Q2136.84 734.149 2134.5 732.042 Q2132.16 729.936 2128.16 729.936 Q2126.28 729.936 2124.41 730.353 Q2122.55 730.769 2120.61 731.649 L2120.61 714.288 Z" fill="#000000" fill-rule="nonzero" fill-opacity="1" /><path clip-path="url(#clip660)" d="M2293.63 744.913 L2301.26 744.913 L2301.26 718.547 L2292.95 720.214 L2292.95 715.955 L2301.22 714.288 L2305.89 714.288 L2305.89 744.913 L2313.53 744.913 L2313.53 748.848 L2293.63 748.848 L2293.63 744.913 Z" fill="#000000" fill-rule="nonzero" fill-opacity="1" /><path clip-path="url(#clip660)" d="M2322.98 742.968 L2327.86 742.968 L2327.86 748.848 L2322.98 748.848 L2322.98 742.968 Z" fill="#000000" fill-rule="nonzero" fill-opacity="1" /><path clip-path="url(#clip660)" d="M2348.05 717.367 Q2344.44 717.367 2342.61 720.931 Q2340.8 724.473 2340.8 731.603 Q2340.8 738.709 2342.61 742.274 Q2344.44 745.815 2348.05 745.815 Q2351.68 745.815 2353.49 742.274 Q2355.32 738.709 2355.32 731.603 Q2355.32 724.473 2353.49 720.931 Q2351.68 717.367 2348.05 717.367 M2348.05 713.663 Q2353.86 713.663 2356.91 718.269 Q2359.99 722.853 2359.99 731.603 Q2359.99 740.329 2356.91 744.936 Q2353.86 749.519 2348.05 749.519 Q2342.24 749.519 2339.16 744.936 Q2336.1 740.329 2336.1 731.603 Q2336.1 722.853 2339.16 718.269 Q2342.24 713.663 2348.05 713.663 Z" fill="#000000" fill-rule="nonzero" fill-opacity="1" /><polyline clip-path="url(#clip663)" style="stroke:#000000; stroke-linecap:round; stroke-linejoin:round; stroke-width:2; stroke-opacity:0.1; fill:none" points="1424.1,599.496 2352.76,599.496 "/>
<polyline clip-path="url(#clip663)" style="stroke:#000000; stroke-linecap:round; stroke-linejoin:round; stroke-width:2; stroke-opacity:0.1; fill:none" points="1424.1,501.5 2352.76,501.5 "/>
<polyline clip-path="url(#clip663)" style="stroke:#000000; stroke-linecap:round; stroke-linejoin:round; stroke-width:2; stroke-opacity:0.1; fill:none" points="1424.1,403.503 2352.76,403.503 "/>
<polyline clip-path="url(#clip663)" style="stroke:#000000; stroke-linecap:round; stroke-linejoin:round; stroke-width:2; stroke-opacity:0.1; fill:none" points="1424.1,305.507 2352.76,305.507 "/>
<polyline clip-path="url(#clip663)" style="stroke:#000000; stroke-linecap:round; stroke-linejoin:round; stroke-width:2; stroke-opacity:0.1; fill:none" points="1424.1,207.511 2352.76,207.511 "/>
<polyline clip-path="url(#clip660)" style="stroke:#000000; stroke-linecap:round; stroke-linejoin:round; stroke-width:4; stroke-opacity:1; fill:none" points="1424.1,686.448 1424.1,123.472 "/>
<polyline clip-path="url(#clip660)" style="stroke:#000000; stroke-linecap:round; stroke-linejoin:round; stroke-width:4; stroke-opacity:1; fill:none" points="1424.1,599.496 1443,599.496 "/>
<polyline clip-path="url(#clip660)" style="stroke:#000000; stroke-linecap:round; stroke-linejoin:round; stroke-width:4; stroke-opacity:1; fill:none" points="1424.1,501.5 1443,501.5 "/>
<polyline clip-path="url(#clip660)" style="stroke:#000000; stroke-linecap:round; stroke-linejoin:round; stroke-width:4; stroke-opacity:1; fill:none" points="1424.1,403.503 1443,403.503 "/>
<polyline clip-path="url(#clip660)" style="stroke:#000000; stroke-linecap:round; stroke-linejoin:round; stroke-width:4; stroke-opacity:1; fill:none" points="1424.1,305.507 1443,305.507 "/>
<polyline clip-path="url(#clip660)" style="stroke:#000000; stroke-linecap:round; stroke-linejoin:round; stroke-width:4; stroke-opacity:1; fill:none" points="1424.1,207.511 1443,207.511 "/>
<path clip-path="url(#clip660)" d="M1250.99 599.948 L1280.67 599.948 L1280.67 603.883 L1250.99 603.883 L1250.99 599.948 Z" fill="#000000" fill-rule="nonzero" fill-opacity="1" /><path clip-path="url(#clip660)" d="M1300.76 585.295 Q1297.15 585.295 1295.32 588.86 Q1293.52 592.402 1293.52 599.531 Q1293.52 606.638 1295.32 610.202 Q1297.15 613.744 1300.76 613.744 Q1304.39 613.744 1306.2 610.202 Q1308.03 606.638 1308.03 599.531 Q1308.03 592.402 1306.2 588.86 Q1304.39 585.295 1300.76 585.295 M1300.76 581.591 Q1306.57 581.591 1309.63 586.198 Q1312.7 590.781 1312.7 599.531 Q1312.7 608.258 1309.63 612.864 Q1306.57 617.448 1300.76 617.448 Q1294.95 617.448 1291.87 612.864 Q1288.82 608.258 1288.82 599.531 Q1288.82 590.781 1291.87 586.198 Q1294.95 581.591 1300.76 581.591 Z" fill="#000000" fill-rule="nonzero" fill-opacity="1" /><path clip-path="url(#clip660)" d="M1320.92 610.897 L1325.81 610.897 L1325.81 616.776 L1320.92 616.776 L1320.92 610.897 Z" fill="#000000" fill-rule="nonzero" fill-opacity="1" /><path clip-path="url(#clip660)" d="M1336.04 582.216 L1354.39 582.216 L1354.39 586.152 L1340.32 586.152 L1340.32 594.624 Q1341.34 594.277 1342.36 594.115 Q1343.38 593.929 1344.39 593.929 Q1350.18 593.929 1353.56 597.101 Q1356.94 600.272 1356.94 605.689 Q1356.94 611.267 1353.47 614.369 Q1350 617.448 1343.68 617.448 Q1341.5 617.448 1339.23 617.077 Q1336.99 616.707 1334.58 615.966 L1334.58 611.267 Q1336.66 612.401 1338.89 612.957 Q1341.11 613.513 1343.58 613.513 Q1347.59 613.513 1349.93 611.406 Q1352.26 609.3 1352.26 605.689 Q1352.26 602.077 1349.93 599.971 Q1347.59 597.865 1343.58 597.865 Q1341.71 597.865 1339.83 598.281 Q1337.98 598.698 1336.04 599.577 L1336.04 582.216 Z" fill="#000000" fill-rule="nonzero" fill-opacity="1" /><path clip-path="url(#clip660)" d="M1376.15 585.295 Q1372.54 585.295 1370.71 588.86 Q1368.91 592.402 1368.91 599.531 Q1368.91 606.638 1370.71 610.202 Q1372.54 613.744 1376.15 613.744 Q1379.79 613.744 1381.59 610.202 Q1383.42 606.638 1383.42 599.531 Q1383.42 592.402 1381.59 588.86 Q1379.79 585.295 1376.15 585.295 M1376.15 581.591 Q1381.96 581.591 1385.02 586.198 Q1388.1 590.781 1388.1 599.531 Q1388.1 608.258 1385.02 612.864 Q1381.96 617.448 1376.15 617.448 Q1370.34 617.448 1367.26 612.864 Q1364.21 608.258 1364.21 599.531 Q1364.21 590.781 1367.26 586.198 Q1370.34 581.591 1376.15 581.591 Z" fill="#000000" fill-rule="nonzero" fill-opacity="1" /><path clip-path="url(#clip660)" d="M1251.99 501.951 L1281.66 501.951 L1281.66 505.887 L1251.99 505.887 L1251.99 501.951 Z" fill="#000000" fill-rule="nonzero" fill-opacity="1" /><path clip-path="url(#clip660)" d="M1301.76 487.299 Q1298.14 487.299 1296.32 490.863 Q1294.51 494.405 1294.51 501.535 Q1294.51 508.641 1296.32 512.206 Q1298.14 515.748 1301.76 515.748 Q1305.39 515.748 1307.2 512.206 Q1309.02 508.641 1309.02 501.535 Q1309.02 494.405 1307.2 490.863 Q1305.39 487.299 1301.76 487.299 M1301.76 483.595 Q1307.57 483.595 1310.62 488.201 Q1313.7 492.785 1313.7 501.535 Q1313.7 510.261 1310.62 514.868 Q1307.57 519.451 1301.76 519.451 Q1295.95 519.451 1292.87 514.868 Q1289.81 510.261 1289.81 501.535 Q1289.81 492.785 1292.87 488.201 Q1295.95 483.595 1301.76 483.595 Z" fill="#000000" fill-rule="nonzero" fill-opacity="1" /><path clip-path="url(#clip660)" d="M1321.92 512.9 L1326.8 512.9 L1326.8 518.78 L1321.92 518.78 L1321.92 512.9 Z" fill="#000000" fill-rule="nonzero" fill-opacity="1" /><path clip-path="url(#clip660)" d="M1341.01 514.845 L1357.33 514.845 L1357.33 518.78 L1335.39 518.78 L1335.39 514.845 Q1338.05 512.09 1342.64 507.461 Q1347.24 502.808 1348.42 501.465 Q1350.67 498.942 1351.55 497.206 Q1352.45 495.447 1352.45 493.757 Q1352.45 491.002 1350.51 489.266 Q1348.58 487.53 1345.48 487.53 Q1343.28 487.53 1340.83 488.294 Q1338.4 489.058 1335.62 490.609 L1335.62 485.887 Q1338.45 484.752 1340.9 484.174 Q1343.35 483.595 1345.39 483.595 Q1350.76 483.595 1353.95 486.28 Q1357.15 488.965 1357.15 493.456 Q1357.15 495.586 1356.34 497.507 Q1355.55 499.405 1353.45 501.998 Q1352.87 502.669 1349.76 505.887 Q1346.66 509.081 1341.01 514.845 Z" fill="#000000" fill-rule="nonzero" fill-opacity="1" /><path clip-path="url(#clip660)" d="M1367.2 484.22 L1385.55 484.22 L1385.55 488.155 L1371.48 488.155 L1371.48 496.627 Q1372.5 496.28 1373.51 496.118 Q1374.53 495.933 1375.55 495.933 Q1381.34 495.933 1384.72 499.104 Q1388.1 502.275 1388.1 507.692 Q1388.1 513.271 1384.63 516.373 Q1381.15 519.451 1374.83 519.451 Q1372.66 519.451 1370.39 519.081 Q1368.14 518.711 1365.74 517.97 L1365.74 513.271 Q1367.82 514.405 1370.04 514.961 Q1372.26 515.516 1374.74 515.516 Q1378.75 515.516 1381.08 513.41 Q1383.42 511.303 1383.42 507.692 Q1383.42 504.081 1381.08 501.975 Q1378.75 499.868 1374.74 499.868 Q1372.87 499.868 1370.99 500.285 Q1369.14 500.701 1367.2 501.581 L1367.2 484.22 Z" fill="#000000" fill-rule="nonzero" fill-opacity="1" /><path clip-path="url(#clip660)" d="M1300.76 389.302 Q1297.15 389.302 1295.32 392.867 Q1293.52 396.409 1293.52 403.538 Q1293.52 410.645 1295.32 414.209 Q1297.15 417.751 1300.76 417.751 Q1304.39 417.751 1306.2 414.209 Q1308.03 410.645 1308.03 403.538 Q1308.03 396.409 1306.2 392.867 Q1304.39 389.302 1300.76 389.302 M1300.76 385.599 Q1306.57 385.599 1309.63 390.205 Q1312.7 394.788 1312.7 403.538 Q1312.7 412.265 1309.63 416.871 Q1306.57 421.455 1300.76 421.455 Q1294.95 421.455 1291.87 416.871 Q1288.82 412.265 1288.82 403.538 Q1288.82 394.788 1291.87 390.205 Q1294.95 385.599 1300.76 385.599 Z" fill="#000000" fill-rule="nonzero" fill-opacity="1" /><path clip-path="url(#clip660)" d="M1320.92 414.904 L1325.81 414.904 L1325.81 420.783 L1320.92 420.783 L1320.92 414.904 Z" fill="#000000" fill-rule="nonzero" fill-opacity="1" /><path clip-path="url(#clip660)" d="M1345.99 389.302 Q1342.38 389.302 1340.55 392.867 Q1338.75 396.409 1338.75 403.538 Q1338.75 410.645 1340.55 414.209 Q1342.38 417.751 1345.99 417.751 Q1349.63 417.751 1351.43 414.209 Q1353.26 410.645 1353.26 403.538 Q1353.26 396.409 1351.43 392.867 Q1349.63 389.302 1345.99 389.302 M1345.99 385.599 Q1351.8 385.599 1354.86 390.205 Q1357.94 394.788 1357.94 403.538 Q1357.94 412.265 1354.86 416.871 Q1351.8 421.455 1345.99 421.455 Q1340.18 421.455 1337.1 416.871 Q1334.05 412.265 1334.05 403.538 Q1334.05 394.788 1337.1 390.205 Q1340.18 385.599 1345.99 385.599 Z" fill="#000000" fill-rule="nonzero" fill-opacity="1" /><path clip-path="url(#clip660)" d="M1376.15 389.302 Q1372.54 389.302 1370.71 392.867 Q1368.91 396.409 1368.91 403.538 Q1368.91 410.645 1370.71 414.209 Q1372.54 417.751 1376.15 417.751 Q1379.79 417.751 1381.59 414.209 Q1383.42 410.645 1383.42 403.538 Q1383.42 396.409 1381.59 392.867 Q1379.79 389.302 1376.15 389.302 M1376.15 385.599 Q1381.96 385.599 1385.02 390.205 Q1388.1 394.788 1388.1 403.538 Q1388.1 412.265 1385.02 416.871 Q1381.96 421.455 1376.15 421.455 Q1370.34 421.455 1367.26 416.871 Q1364.21 412.265 1364.21 403.538 Q1364.21 394.788 1367.26 390.205 Q1370.34 385.599 1376.15 385.599 Z" fill="#000000" fill-rule="nonzero" fill-opacity="1" /><path clip-path="url(#clip660)" d="M1301.76 291.306 Q1298.14 291.306 1296.32 294.871 Q1294.51 298.412 1294.51 305.542 Q1294.51 312.648 1296.32 316.213 Q1298.14 319.755 1301.76 319.755 Q1305.39 319.755 1307.2 316.213 Q1309.02 312.648 1309.02 305.542 Q1309.02 298.412 1307.2 294.871 Q1305.39 291.306 1301.76 291.306 M1301.76 287.602 Q1307.57 287.602 1310.62 292.208 Q1313.7 296.792 1313.7 305.542 Q1313.7 314.269 1310.62 318.875 Q1307.57 323.458 1301.76 323.458 Q1295.95 323.458 1292.87 318.875 Q1289.81 314.269 1289.81 305.542 Q1289.81 296.792 1292.87 292.208 Q1295.95 287.602 1301.76 287.602 Z" fill="#000000" fill-rule="nonzero" fill-opacity="1" /><path clip-path="url(#clip660)" d="M1321.92 316.907 L1326.8 316.907 L1326.8 322.787 L1321.92 322.787 L1321.92 316.907 Z" fill="#000000" fill-rule="nonzero" fill-opacity="1" /><path clip-path="url(#clip660)" d="M1341.01 318.852 L1357.33 318.852 L1357.33 322.787 L1335.39 322.787 L1335.39 318.852 Q1338.05 316.097 1342.64 311.468 Q1347.24 306.815 1348.42 305.472 Q1350.67 302.949 1351.55 301.213 Q1352.45 299.454 1352.45 297.764 Q1352.45 295.009 1350.51 293.273 Q1348.58 291.537 1345.48 291.537 Q1343.28 291.537 1340.83 292.301 Q1338.4 293.065 1335.62 294.616 L1335.62 289.894 Q1338.45 288.759 1340.9 288.181 Q1343.35 287.602 1345.39 287.602 Q1350.76 287.602 1353.95 290.287 Q1357.15 292.972 1357.15 297.463 Q1357.15 299.593 1356.34 301.514 Q1355.55 303.412 1353.45 306.005 Q1352.87 306.676 1349.76 309.894 Q1346.66 313.088 1341.01 318.852 Z" fill="#000000" fill-rule="nonzero" fill-opacity="1" /><path clip-path="url(#clip660)" d="M1367.2 288.227 L1385.55 288.227 L1385.55 292.162 L1371.48 292.162 L1371.48 300.634 Q1372.5 300.287 1373.51 300.125 Q1374.53 299.94 1375.55 299.94 Q1381.34 299.94 1384.72 303.111 Q1388.1 306.282 1388.1 311.699 Q1388.1 317.278 1384.63 320.38 Q1381.15 323.458 1374.83 323.458 Q1372.66 323.458 1370.39 323.088 Q1368.14 322.718 1365.74 321.977 L1365.74 317.278 Q1367.82 318.412 1370.04 318.968 Q1372.26 319.523 1374.74 319.523 Q1378.75 319.523 1381.08 317.417 Q1383.42 315.31 1383.42 311.699 Q1383.42 308.088 1381.08 305.982 Q1378.75 303.875 1374.74 303.875 Q1372.87 303.875 1370.99 304.292 Q1369.14 304.708 1367.2 305.588 L1367.2 288.227 Z" fill="#000000" fill-rule="nonzero" fill-opacity="1" /><path clip-path="url(#clip660)" d="M1300.76 193.309 Q1297.15 193.309 1295.32 196.874 Q1293.52 200.416 1293.52 207.545 Q1293.52 214.652 1295.32 218.217 Q1297.15 221.758 1300.76 221.758 Q1304.39 221.758 1306.2 218.217 Q1308.03 214.652 1308.03 207.545 Q1308.03 200.416 1306.2 196.874 Q1304.39 193.309 1300.76 193.309 M1300.76 189.606 Q1306.57 189.606 1309.63 194.212 Q1312.7 198.795 1312.7 207.545 Q1312.7 216.272 1309.63 220.879 Q1306.57 225.462 1300.76 225.462 Q1294.95 225.462 1291.87 220.879 Q1288.82 216.272 1288.82 207.545 Q1288.82 198.795 1291.87 194.212 Q1294.95 189.606 1300.76 189.606 Z" fill="#000000" fill-rule="nonzero" fill-opacity="1" /><path clip-path="url(#clip660)" d="M1320.92 218.911 L1325.81 218.911 L1325.81 224.791 L1320.92 224.791 L1320.92 218.911 Z" fill="#000000" fill-rule="nonzero" fill-opacity="1" /><path clip-path="url(#clip660)" d="M1336.04 190.231 L1354.39 190.231 L1354.39 194.166 L1340.32 194.166 L1340.32 202.638 Q1341.34 202.291 1342.36 202.129 Q1343.38 201.943 1344.39 201.943 Q1350.18 201.943 1353.56 205.115 Q1356.94 208.286 1356.94 213.703 Q1356.94 219.281 1353.47 222.383 Q1350 225.462 1343.68 225.462 Q1341.5 225.462 1339.23 225.091 Q1336.99 224.721 1334.58 223.98 L1334.58 219.281 Q1336.66 220.416 1338.89 220.971 Q1341.11 221.527 1343.58 221.527 Q1347.59 221.527 1349.93 219.42 Q1352.26 217.314 1352.26 213.703 Q1352.26 210.092 1349.93 207.985 Q1347.59 205.879 1343.58 205.879 Q1341.71 205.879 1339.83 206.295 Q1337.98 206.712 1336.04 207.592 L1336.04 190.231 Z" fill="#000000" fill-rule="nonzero" fill-opacity="1" /><path clip-path="url(#clip660)" d="M1376.15 193.309 Q1372.54 193.309 1370.71 196.874 Q1368.91 200.416 1368.91 207.545 Q1368.91 214.652 1370.71 218.217 Q1372.54 221.758 1376.15 221.758 Q1379.79 221.758 1381.59 218.217 Q1383.42 214.652 1383.42 207.545 Q1383.42 200.416 1381.59 196.874 Q1379.79 193.309 1376.15 193.309 M1376.15 189.606 Q1381.96 189.606 1385.02 194.212 Q1388.1 198.795 1388.1 207.545 Q1388.1 216.272 1385.02 220.879 Q1381.96 225.462 1376.15 225.462 Q1370.34 225.462 1367.26 220.879 Q1364.21 216.272 1364.21 207.545 Q1364.21 198.795 1367.26 194.212 Q1370.34 189.606 1376.15 189.606 Z" fill="#000000" fill-rule="nonzero" fill-opacity="1" /><path clip-path="url(#clip660)" d="M1762.77 14.324 L1762.77 27.2059 L1778.12 27.2059 L1778.12 32.9987 L1762.77 32.9987 L1762.77 57.6282 Q1762.77 63.1779 1764.27 64.7578 Q1765.81 66.3376 1770.46 66.3376 L1778.12 66.3376 L1778.12 72.576 L1770.46 72.576 Q1761.84 72.576 1758.55 69.3758 Q1755.27 66.1351 1755.27 57.6282 L1755.27 32.9987 L1749.8 32.9987 L1749.8 27.2059 L1755.27 27.2059 L1755.27 14.324 L1762.77 14.324 Z" fill="#000000" fill-rule="nonzero" fill-opacity="1" /><path clip-path="url(#clip660)" d="M1815.27 34.9026 L1867.2 34.9026 L1867.2 41.7081 L1815.27 41.7081 L1815.27 34.9026 M1815.27 51.4303 L1867.2 51.4303 L1867.2 58.3168 L1815.27 58.3168 L1815.27 51.4303 Z" fill="#000000" fill-rule="nonzero" fill-opacity="1" /><path clip-path="url(#clip660)" d="M1928.73 17.4837 Q1922.41 17.4837 1919.21 23.7221 Q1916.05 29.92 1916.05 42.3968 Q1916.05 54.833 1919.21 61.0714 Q1922.41 67.2693 1928.73 67.2693 Q1935.09 67.2693 1938.25 61.0714 Q1941.45 54.833 1941.45 42.3968 Q1941.45 29.92 1938.25 23.7221 Q1935.09 17.4837 1928.73 17.4837 M1928.73 11.0023 Q1938.9 11.0023 1944.25 19.0636 Q1949.64 27.0843 1949.64 42.3968 Q1949.64 57.6687 1944.25 65.73 Q1938.9 73.7508 1928.73 73.7508 Q1918.57 73.7508 1913.18 65.73 Q1907.83 57.6687 1907.83 42.3968 Q1907.83 27.0843 1913.18 19.0636 Q1918.57 11.0023 1928.73 11.0023 Z" fill="#000000" fill-rule="nonzero" fill-opacity="1" /><path clip-path="url(#clip660)" d="M1964.02 62.2867 L1972.56 62.2867 L1972.56 72.576 L1964.02 72.576 L1964.02 62.2867 Z" fill="#000000" fill-rule="nonzero" fill-opacity="1" /><path clip-path="url(#clip660)" d="M1990.47 12.096 L2022.59 12.096 L2022.59 18.9825 L1997.96 18.9825 L1997.96 33.8088 Q1999.75 33.2012 2001.53 32.9176 Q2003.31 32.5936 2005.09 32.5936 Q2015.22 32.5936 2021.13 38.1433 Q2027.05 43.6931 2027.05 53.1722 Q2027.05 62.9348 2020.97 68.3631 Q2014.9 73.7508 2003.84 73.7508 Q2000.03 73.7508 1996.06 73.1026 Q1992.13 72.4545 1987.92 71.1582 L1987.92 62.9348 Q1991.56 64.9198 1995.45 65.892 Q1999.34 66.8642 2003.68 66.8642 Q2010.68 66.8642 2014.77 63.1779 Q2018.87 59.4916 2018.87 53.1722 Q2018.87 46.8528 2014.77 43.1664 Q2010.68 39.4801 2003.68 39.4801 Q2000.39 39.4801 1997.11 40.2093 Q1993.87 40.9384 1990.47 42.4778 L1990.47 12.096 Z" fill="#000000" fill-rule="nonzero" fill-opacity="1" /><polyline clip-path="url(#clip663)" style="stroke:#009af9; stroke-linecap:round; stroke-linejoin:round; stroke-width:4; stroke-opacity:1; fill:none" points="1450.38,404.364 1454.76,394.541 1459.14,384.744 1463.52,374.979 1467.9,365.256 1472.28,355.584 1476.66,345.973 1481.04,336.434 1485.42,326.978 1489.8,317.617 1494.19,308.364 1498.57,299.233 1502.95,290.237 1507.33,281.39 1511.71,272.707 1516.09,264.202 1520.47,255.888 1524.85,247.782 1529.23,239.896 1533.61,232.244 1537.99,224.84 1542.37,217.697 1546.75,210.825 1551.13,204.238 1555.51,197.945 1559.89,191.955 1564.27,186.277 1568.65,180.919 1573.03,175.886 1577.41,171.184 1581.79,166.815 1586.17,162.782 1590.56,159.086 1594.94,155.726 1599.32,152.699 1603.7,150.003 1608.08,147.633 1612.46,145.581 1616.84,143.842 1621.22,142.405 1625.6,141.263 1629.98,140.403 1634.36,139.815 1638.74,139.486 1643.12,139.405 1647.5,139.56 1651.88,139.936 1656.26,140.523 1660.64,141.308 1665.02,142.279 1669.4,143.427 1673.78,144.742 1678.16,146.214 1682.55,147.838 1686.93,149.607 1691.31,151.518 1695.69,153.567 1700.07,155.755 1704.45,158.081 1708.83,160.549 1713.21,163.161 1717.59,165.924 1721.97,168.842 1726.35,171.923 1730.73,175.171 1735.11,178.594 1739.49,182.195 1743.87,185.979 1748.25,189.946 1752.63,194.096 1757.01,198.427 1761.39,202.935 1765.77,207.617 1770.15,212.471 1774.53,217.498 1778.92,222.708 1783.3,228.12 1787.68,233.766 1792.06,239.689 1796.44,245.942 1800.82,252.577 1805.2,259.639 1809.58,267.155 1813.96,275.124 1818.34,283.511 1822.72,292.253 1827.1,301.263 1831.48,310.437 1835.86,319.669 1840.24,328.859 1844.62,337.92 1849,346.785 1853.38,355.405 1857.76,363.752 1862.14,371.815 1866.52,379.595 1870.91,387.106 1875.29,394.368 1879.67,401.406 1884.05,408.248 1888.43,414.922 1892.81,421.457 1897.19,427.88 1901.57,434.214 1905.95,440.483 1910.33,446.705 1914.71,452.898 1919.09,459.077 1923.47,465.252 1927.85,471.434 1932.23,477.629 1936.61,483.842 1940.99,490.076 1945.37,496.331 1949.75,502.608 1954.13,508.903 1958.51,515.212 1962.89,521.529 1967.28,527.849 1971.66,534.162 1976.04,540.459 1980.42,546.731 1984.8,552.967 1989.18,559.155 1993.56,565.282 1997.94,571.337 2002.32,577.306 2006.7,583.176 2011.08,588.934 2015.46,594.568 2019.84,600.064 2024.22,605.411 2028.6,610.597 2032.98,615.611 2037.36,620.442 2041.74,625.083 2046.12,629.523 2050.5,633.757 2054.88,637.778 2059.26,641.58 2063.65,645.16 2068.03,648.514 2072.41,651.639 2076.79,654.533 2081.17,657.195 2085.55,659.623 2089.93,661.815 2094.31,663.77 2098.69,665.486 2103.07,666.96 2107.45,668.187 2111.83,669.163 2116.21,669.881 2120.59,670.334 2124.97,670.515 2129.35,670.412 2133.73,670.017 2138.11,669.318 2142.49,668.305 2146.87,666.967 2151.25,665.295 2155.64,663.279 2160.02,660.913 2164.4,658.192 2168.78,655.113 2173.16,651.677 2177.54,647.885 2181.92,643.745 2186.3,639.264 2190.68,634.454 2195.06,629.33 2199.44,623.907 2203.82,618.205 2208.2,612.243 2212.58,606.044 2216.96,599.628 2221.34,593.02 2225.72,586.242 2230.1,579.318 2234.48,572.269 2238.86,565.118 2243.24,557.886 2247.62,550.591 2252.01,543.253 2256.39,535.888 2260.77,528.512 2265.15,521.139 2269.53,513.781 2273.91,506.45 2278.29,499.155 2282.67,491.905 2287.05,484.706 2291.43,477.565 2295.81,470.486 2300.19,463.472 2304.57,456.527 2308.95,449.652 2313.33,442.847 2317.71,436.114 2322.09,429.452 2326.47,422.86 "/>
<path clip-path="url(#clip660)" d="M2176.5 245.918 L2321.8 245.918 L2321.8 142.238 L2176.5 142.238  Z" fill="#ffffff" fill-rule="evenodd" fill-opacity="1"/>
<polyline clip-path="url(#clip660)" style="stroke:#000000; stroke-linecap:round; stroke-linejoin:round; stroke-width:4; stroke-opacity:1; fill:none" points="2176.5,245.918 2321.8,245.918 2321.8,142.238 2176.5,142.238 2176.5,245.918 "/>
<polyline clip-path="url(#clip660)" style="stroke:#009af9; stroke-linecap:round; stroke-linejoin:round; stroke-width:4; stroke-opacity:1; fill:none" points="2186.82,194.078 2248.73,194.078 "/>
<path clip-path="url(#clip660)" d="M2272.89 213.765 Q2271.09 218.395 2269.38 219.807 Q2267.66 221.219 2264.79 221.219 L2261.39 221.219 L2261.39 217.654 L2263.89 217.654 Q2265.65 217.654 2266.62 216.821 Q2267.59 215.988 2268.77 212.886 L2269.54 210.941 L2259.05 185.432 L2263.57 185.432 L2271.67 205.71 L2279.77 185.432 L2284.28 185.432 L2272.89 213.765 Z" fill="#000000" fill-rule="nonzero" fill-opacity="1" /><path clip-path="url(#clip660)" d="M2291.57 207.423 L2299.21 207.423 L2299.21 181.057 L2290.9 182.724 L2290.9 178.465 L2299.17 176.798 L2303.84 176.798 L2303.84 207.423 L2311.48 207.423 L2311.48 211.358 L2291.57 211.358 L2291.57 207.423 Z" fill="#000000" fill-rule="nonzero" fill-opacity="1" /><path clip-path="url(#clip660)" d="M224.098 1486.45 L1152.76 1486.45 L1152.76 923.472 L224.098 923.472  Z" fill="#ffffff" fill-rule="evenodd" fill-opacity="1"/>
<defs>
  <clipPath id="clip664">
    <rect x="224" y="923" width="930" height="564"/>
  </clipPath>
</defs>
<polyline clip-path="url(#clip664)" style="stroke:#000000; stroke-linecap:round; stroke-linejoin:round; stroke-width:2; stroke-opacity:0.1; fill:none" points="250.381,1486.45 250.381,923.472 "/>
<polyline clip-path="url(#clip664)" style="stroke:#000000; stroke-linecap:round; stroke-linejoin:round; stroke-width:2; stroke-opacity:0.1; fill:none" points="469.404,1486.45 469.404,923.472 "/>
<polyline clip-path="url(#clip664)" style="stroke:#000000; stroke-linecap:round; stroke-linejoin:round; stroke-width:2; stroke-opacity:0.1; fill:none" points="688.427,1486.45 688.427,923.472 "/>
<polyline clip-path="url(#clip664)" style="stroke:#000000; stroke-linecap:round; stroke-linejoin:round; stroke-width:2; stroke-opacity:0.1; fill:none" points="907.45,1486.45 907.45,923.472 "/>
<polyline clip-path="url(#clip664)" style="stroke:#000000; stroke-linecap:round; stroke-linejoin:round; stroke-width:2; stroke-opacity:0.1; fill:none" points="1126.47,1486.45 1126.47,923.472 "/>
<polyline clip-path="url(#clip660)" style="stroke:#000000; stroke-linecap:round; stroke-linejoin:round; stroke-width:4; stroke-opacity:1; fill:none" points="224.098,1486.45 1152.76,1486.45 "/>
<polyline clip-path="url(#clip660)" style="stroke:#000000; stroke-linecap:round; stroke-linejoin:round; stroke-width:4; stroke-opacity:1; fill:none" points="250.381,1486.45 250.381,1467.55 "/>
<polyline clip-path="url(#clip660)" style="stroke:#000000; stroke-linecap:round; stroke-linejoin:round; stroke-width:4; stroke-opacity:1; fill:none" points="469.404,1486.45 469.404,1467.55 "/>
<polyline clip-path="url(#clip660)" style="stroke:#000000; stroke-linecap:round; stroke-linejoin:round; stroke-width:4; stroke-opacity:1; fill:none" points="688.427,1486.45 688.427,1467.55 "/>
<polyline clip-path="url(#clip660)" style="stroke:#000000; stroke-linecap:round; stroke-linejoin:round; stroke-width:4; stroke-opacity:1; fill:none" points="907.45,1486.45 907.45,1467.55 "/>
<polyline clip-path="url(#clip660)" style="stroke:#000000; stroke-linecap:round; stroke-linejoin:round; stroke-width:4; stroke-opacity:1; fill:none" points="1126.47,1486.45 1126.47,1467.55 "/>
<path clip-path="url(#clip660)" d="M196.909 1532.02 L226.584 1532.02 L226.584 1535.95 L196.909 1535.95 L196.909 1532.02 Z" fill="#000000" fill-rule="nonzero" fill-opacity="1" /><path clip-path="url(#clip660)" d="M237.487 1544.91 L245.126 1544.91 L245.126 1518.55 L236.816 1520.21 L236.816 1515.95 L245.08 1514.29 L249.756 1514.29 L249.756 1544.91 L257.394 1544.91 L257.394 1548.85 L237.487 1548.85 L237.487 1544.91 Z" fill="#000000" fill-rule="nonzero" fill-opacity="1" /><path clip-path="url(#clip660)" d="M266.839 1542.97 L271.723 1542.97 L271.723 1548.85 L266.839 1548.85 L266.839 1542.97 Z" fill="#000000" fill-rule="nonzero" fill-opacity="1" /><path clip-path="url(#clip660)" d="M291.908 1517.37 Q288.297 1517.37 286.468 1520.93 Q284.663 1524.47 284.663 1531.6 Q284.663 1538.71 286.468 1542.27 Q288.297 1545.82 291.908 1545.82 Q295.542 1545.82 297.348 1542.27 Q299.177 1538.71 299.177 1531.6 Q299.177 1524.47 297.348 1520.93 Q295.542 1517.37 291.908 1517.37 M291.908 1513.66 Q297.718 1513.66 300.774 1518.27 Q303.853 1522.85 303.853 1531.6 Q303.853 1540.33 300.774 1544.94 Q297.718 1549.52 291.908 1549.52 Q286.098 1549.52 283.019 1544.94 Q279.964 1540.33 279.964 1531.6 Q279.964 1522.85 283.019 1518.27 Q286.098 1513.66 291.908 1513.66 Z" fill="#000000" fill-rule="nonzero" fill-opacity="1" /><path clip-path="url(#clip660)" d="M416.43 1532.02 L446.105 1532.02 L446.105 1535.95 L416.43 1535.95 L416.43 1532.02 Z" fill="#000000" fill-rule="nonzero" fill-opacity="1" /><path clip-path="url(#clip660)" d="M466.198 1517.37 Q462.587 1517.37 460.758 1520.93 Q458.952 1524.47 458.952 1531.6 Q458.952 1538.71 460.758 1542.27 Q462.587 1545.82 466.198 1545.82 Q469.832 1545.82 471.638 1542.27 Q473.466 1538.71 473.466 1531.6 Q473.466 1524.47 471.638 1520.93 Q469.832 1517.37 466.198 1517.37 M466.198 1513.66 Q472.008 1513.66 475.063 1518.27 Q478.142 1522.85 478.142 1531.6 Q478.142 1540.33 475.063 1544.94 Q472.008 1549.52 466.198 1549.52 Q460.388 1549.52 457.309 1544.94 Q454.253 1540.33 454.253 1531.6 Q454.253 1522.85 457.309 1518.27 Q460.388 1513.66 466.198 1513.66 Z" fill="#000000" fill-rule="nonzero" fill-opacity="1" /><path clip-path="url(#clip660)" d="M486.36 1542.97 L491.244 1542.97 L491.244 1548.85 L486.36 1548.85 L486.36 1542.97 Z" fill="#000000" fill-rule="nonzero" fill-opacity="1" /><path clip-path="url(#clip660)" d="M501.475 1514.29 L519.832 1514.29 L519.832 1518.22 L505.758 1518.22 L505.758 1526.7 Q506.776 1526.35 507.795 1526.19 Q508.813 1526 509.832 1526 Q515.619 1526 518.998 1529.17 Q522.378 1532.34 522.378 1537.76 Q522.378 1543.34 518.906 1546.44 Q515.434 1549.52 509.114 1549.52 Q506.938 1549.52 504.67 1549.15 Q502.424 1548.78 500.017 1548.04 L500.017 1543.34 Q502.1 1544.47 504.323 1545.03 Q506.545 1545.58 509.022 1545.58 Q513.026 1545.58 515.364 1543.48 Q517.702 1541.37 517.702 1537.76 Q517.702 1534.15 515.364 1532.04 Q513.026 1529.94 509.022 1529.94 Q507.147 1529.94 505.272 1530.35 Q503.42 1530.77 501.475 1531.65 L501.475 1514.29 Z" fill="#000000" fill-rule="nonzero" fill-opacity="1" /><path clip-path="url(#clip660)" d="M665.811 1517.37 Q662.2 1517.37 660.371 1520.93 Q658.566 1524.47 658.566 1531.6 Q658.566 1538.71 660.371 1542.27 Q662.2 1545.82 665.811 1545.82 Q669.446 1545.82 671.251 1542.27 Q673.08 1538.71 673.08 1531.6 Q673.08 1524.47 671.251 1520.93 Q669.446 1517.37 665.811 1517.37 M665.811 1513.66 Q671.621 1513.66 674.677 1518.27 Q677.756 1522.85 677.756 1531.6 Q677.756 1540.33 674.677 1544.94 Q671.621 1549.52 665.811 1549.52 Q660.001 1549.52 656.922 1544.94 Q653.867 1540.33 653.867 1531.6 Q653.867 1522.85 656.922 1518.27 Q660.001 1513.66 665.811 1513.66 Z" fill="#000000" fill-rule="nonzero" fill-opacity="1" /><path clip-path="url(#clip660)" d="M685.973 1542.97 L690.857 1542.97 L690.857 1548.85 L685.973 1548.85 L685.973 1542.97 Z" fill="#000000" fill-rule="nonzero" fill-opacity="1" /><path clip-path="url(#clip660)" d="M711.043 1517.37 Q707.431 1517.37 705.603 1520.93 Q703.797 1524.47 703.797 1531.6 Q703.797 1538.71 705.603 1542.27 Q707.431 1545.82 711.043 1545.82 Q714.677 1545.82 716.482 1542.27 Q718.311 1538.71 718.311 1531.6 Q718.311 1524.47 716.482 1520.93 Q714.677 1517.37 711.043 1517.37 M711.043 1513.66 Q716.853 1513.66 719.908 1518.27 Q722.987 1522.85 722.987 1531.6 Q722.987 1540.33 719.908 1544.94 Q716.853 1549.52 711.043 1549.52 Q705.232 1549.52 702.154 1544.94 Q699.098 1540.33 699.098 1531.6 Q699.098 1522.85 702.154 1518.27 Q705.232 1513.66 711.043 1513.66 Z" fill="#000000" fill-rule="nonzero" fill-opacity="1" /><path clip-path="url(#clip660)" d="M885.332 1517.37 Q881.721 1517.37 879.892 1520.93 Q878.087 1524.47 878.087 1531.6 Q878.087 1538.71 879.892 1542.27 Q881.721 1545.82 885.332 1545.82 Q888.966 1545.82 890.772 1542.27 Q892.601 1538.71 892.601 1531.6 Q892.601 1524.47 890.772 1520.93 Q888.966 1517.37 885.332 1517.37 M885.332 1513.66 Q891.142 1513.66 894.198 1518.27 Q897.276 1522.85 897.276 1531.6 Q897.276 1540.33 894.198 1544.94 Q891.142 1549.52 885.332 1549.52 Q879.522 1549.52 876.443 1544.94 Q873.388 1540.33 873.388 1531.6 Q873.388 1522.85 876.443 1518.27 Q879.522 1513.66 885.332 1513.66 Z" fill="#000000" fill-rule="nonzero" fill-opacity="1" /><path clip-path="url(#clip660)" d="M905.494 1542.97 L910.378 1542.97 L910.378 1548.85 L905.494 1548.85 L905.494 1542.97 Z" fill="#000000" fill-rule="nonzero" fill-opacity="1" /><path clip-path="url(#clip660)" d="M920.61 1514.29 L938.966 1514.29 L938.966 1518.22 L924.892 1518.22 L924.892 1526.7 Q925.911 1526.35 926.929 1526.19 Q927.948 1526 928.966 1526 Q934.753 1526 938.133 1529.17 Q941.512 1532.34 941.512 1537.76 Q941.512 1543.34 938.04 1546.44 Q934.568 1549.52 928.249 1549.52 Q926.073 1549.52 923.804 1549.15 Q921.559 1548.78 919.151 1548.04 L919.151 1543.34 Q921.235 1544.47 923.457 1545.03 Q925.679 1545.58 928.156 1545.58 Q932.161 1545.58 934.498 1543.48 Q936.836 1541.37 936.836 1537.76 Q936.836 1534.15 934.498 1532.04 Q932.161 1529.94 928.156 1529.94 Q926.281 1529.94 924.406 1530.35 Q922.554 1530.77 920.61 1531.65 L920.61 1514.29 Z" fill="#000000" fill-rule="nonzero" fill-opacity="1" /><path clip-path="url(#clip660)" d="M1093.63 1544.91 L1101.26 1544.91 L1101.26 1518.55 L1092.95 1520.21 L1092.95 1515.95 L1101.22 1514.29 L1105.89 1514.29 L1105.89 1544.91 L1113.53 1544.91 L1113.53 1548.85 L1093.63 1548.85 L1093.63 1544.91 Z" fill="#000000" fill-rule="nonzero" fill-opacity="1" /><path clip-path="url(#clip660)" d="M1122.98 1542.97 L1127.86 1542.97 L1127.86 1548.85 L1122.98 1548.85 L1122.98 1542.97 Z" fill="#000000" fill-rule="nonzero" fill-opacity="1" /><path clip-path="url(#clip660)" d="M1148.05 1517.37 Q1144.44 1517.37 1142.61 1520.93 Q1140.8 1524.47 1140.8 1531.6 Q1140.8 1538.71 1142.61 1542.27 Q1144.44 1545.82 1148.05 1545.82 Q1151.68 1545.82 1153.49 1542.27 Q1155.32 1538.71 1155.32 1531.6 Q1155.32 1524.47 1153.49 1520.93 Q1151.68 1517.37 1148.05 1517.37 M1148.05 1513.66 Q1153.86 1513.66 1156.91 1518.27 Q1159.99 1522.85 1159.99 1531.6 Q1159.99 1540.33 1156.91 1544.94 Q1153.86 1549.52 1148.05 1549.52 Q1142.24 1549.52 1139.16 1544.94 Q1136.1 1540.33 1136.1 1531.6 Q1136.1 1522.85 1139.16 1518.27 Q1142.24 1513.66 1148.05 1513.66 Z" fill="#000000" fill-rule="nonzero" fill-opacity="1" /><polyline clip-path="url(#clip664)" style="stroke:#000000; stroke-linecap:round; stroke-linejoin:round; stroke-width:2; stroke-opacity:0.1; fill:none" points="224.098,1429.49 1152.76,1429.49 "/>
<polyline clip-path="url(#clip664)" style="stroke:#000000; stroke-linecap:round; stroke-linejoin:round; stroke-width:2; stroke-opacity:0.1; fill:none" points="224.098,1314.35 1152.76,1314.35 "/>
<polyline clip-path="url(#clip664)" style="stroke:#000000; stroke-linecap:round; stroke-linejoin:round; stroke-width:2; stroke-opacity:0.1; fill:none" points="224.098,1199.22 1152.76,1199.22 "/>
<polyline clip-path="url(#clip664)" style="stroke:#000000; stroke-linecap:round; stroke-linejoin:round; stroke-width:2; stroke-opacity:0.1; fill:none" points="224.098,1084.08 1152.76,1084.08 "/>
<polyline clip-path="url(#clip664)" style="stroke:#000000; stroke-linecap:round; stroke-linejoin:round; stroke-width:2; stroke-opacity:0.1; fill:none" points="224.098,968.946 1152.76,968.946 "/>
<polyline clip-path="url(#clip660)" style="stroke:#000000; stroke-linecap:round; stroke-linejoin:round; stroke-width:4; stroke-opacity:1; fill:none" points="224.098,1486.45 224.098,923.472 "/>
<polyline clip-path="url(#clip660)" style="stroke:#000000; stroke-linecap:round; stroke-linejoin:round; stroke-width:4; stroke-opacity:1; fill:none" points="224.098,1429.49 242.996,1429.49 "/>
<polyline clip-path="url(#clip660)" style="stroke:#000000; stroke-linecap:round; stroke-linejoin:round; stroke-width:4; stroke-opacity:1; fill:none" points="224.098,1314.35 242.996,1314.35 "/>
<polyline clip-path="url(#clip660)" style="stroke:#000000; stroke-linecap:round; stroke-linejoin:round; stroke-width:4; stroke-opacity:1; fill:none" points="224.098,1199.22 242.996,1199.22 "/>
<polyline clip-path="url(#clip660)" style="stroke:#000000; stroke-linecap:round; stroke-linejoin:round; stroke-width:4; stroke-opacity:1; fill:none" points="224.098,1084.08 242.996,1084.08 "/>
<polyline clip-path="url(#clip660)" style="stroke:#000000; stroke-linecap:round; stroke-linejoin:round; stroke-width:4; stroke-opacity:1; fill:none" points="224.098,968.946 242.996,968.946 "/>
<path clip-path="url(#clip660)" d="M50.9921 1429.94 L80.6679 1429.94 L80.6679 1433.88 L50.9921 1433.88 L50.9921 1429.94 Z" fill="#000000" fill-rule="nonzero" fill-opacity="1" /><path clip-path="url(#clip660)" d="M100.76 1415.29 Q97.1493 1415.29 95.3206 1418.85 Q93.515 1422.4 93.515 1429.52 Q93.515 1436.63 95.3206 1440.2 Q97.1493 1443.74 100.76 1443.74 Q104.395 1443.74 106.2 1440.2 Q108.029 1436.63 108.029 1429.52 Q108.029 1422.4 106.2 1418.85 Q104.395 1415.29 100.76 1415.29 M100.76 1411.59 Q106.571 1411.59 109.626 1416.19 Q112.705 1420.77 112.705 1429.52 Q112.705 1438.25 109.626 1442.86 Q106.571 1447.44 100.76 1447.44 Q94.9502 1447.44 91.8715 1442.86 Q88.816 1438.25 88.816 1429.52 Q88.816 1420.77 91.8715 1416.19 Q94.9502 1411.59 100.76 1411.59 Z" fill="#000000" fill-rule="nonzero" fill-opacity="1" /><path clip-path="url(#clip660)" d="M120.922 1440.89 L125.807 1440.89 L125.807 1446.77 L120.922 1446.77 L120.922 1440.89 Z" fill="#000000" fill-rule="nonzero" fill-opacity="1" /><path clip-path="url(#clip660)" d="M136.038 1412.21 L154.394 1412.21 L154.394 1416.15 L140.32 1416.15 L140.32 1424.62 Q141.339 1424.27 142.357 1424.11 Q143.376 1423.92 144.394 1423.92 Q150.181 1423.92 153.561 1427.09 Q156.941 1430.27 156.941 1435.68 Q156.941 1441.26 153.468 1444.36 Q149.996 1447.44 143.677 1447.44 Q141.501 1447.44 139.232 1447.07 Q136.987 1446.7 134.58 1445.96 L134.58 1441.26 Q136.663 1442.4 138.885 1442.95 Q141.107 1443.51 143.584 1443.51 Q147.589 1443.51 149.927 1441.4 Q152.265 1439.29 152.265 1435.68 Q152.265 1432.07 149.927 1429.96 Q147.589 1427.86 143.584 1427.86 Q141.709 1427.86 139.834 1428.27 Q137.982 1428.69 136.038 1429.57 L136.038 1412.21 Z" fill="#000000" fill-rule="nonzero" fill-opacity="1" /><path clip-path="url(#clip660)" d="M176.153 1415.29 Q172.542 1415.29 170.714 1418.85 Q168.908 1422.4 168.908 1429.52 Q168.908 1436.63 170.714 1440.2 Q172.542 1443.74 176.153 1443.74 Q179.788 1443.74 181.593 1440.2 Q183.422 1436.63 183.422 1429.52 Q183.422 1422.4 181.593 1418.85 Q179.788 1415.29 176.153 1415.29 M176.153 1411.59 Q181.964 1411.59 185.019 1416.19 Q188.098 1420.77 188.098 1429.52 Q188.098 1438.25 185.019 1442.86 Q181.964 1447.44 176.153 1447.44 Q170.343 1447.44 167.265 1442.86 Q164.209 1438.25 164.209 1429.52 Q164.209 1420.77 167.265 1416.19 Q170.343 1411.59 176.153 1411.59 Z" fill="#000000" fill-rule="nonzero" fill-opacity="1" /><path clip-path="url(#clip660)" d="M51.9875 1314.81 L81.6633 1314.81 L81.6633 1318.74 L51.9875 1318.74 L51.9875 1314.81 Z" fill="#000000" fill-rule="nonzero" fill-opacity="1" /><path clip-path="url(#clip660)" d="M101.756 1300.15 Q98.1447 1300.15 96.316 1303.72 Q94.5104 1307.26 94.5104 1314.39 Q94.5104 1321.5 96.316 1325.06 Q98.1447 1328.6 101.756 1328.6 Q105.39 1328.6 107.196 1325.06 Q109.024 1321.5 109.024 1314.39 Q109.024 1307.26 107.196 1303.72 Q105.39 1300.15 101.756 1300.15 M101.756 1296.45 Q107.566 1296.45 110.621 1301.06 Q113.7 1305.64 113.7 1314.39 Q113.7 1323.12 110.621 1327.72 Q107.566 1332.31 101.756 1332.31 Q95.9456 1332.31 92.8669 1327.72 Q89.8114 1323.12 89.8114 1314.39 Q89.8114 1305.64 92.8669 1301.06 Q95.9456 1296.45 101.756 1296.45 Z" fill="#000000" fill-rule="nonzero" fill-opacity="1" /><path clip-path="url(#clip660)" d="M121.918 1325.75 L126.802 1325.75 L126.802 1331.63 L121.918 1331.63 L121.918 1325.75 Z" fill="#000000" fill-rule="nonzero" fill-opacity="1" /><path clip-path="url(#clip660)" d="M141.015 1327.7 L157.334 1327.7 L157.334 1331.63 L135.39 1331.63 L135.39 1327.7 Q138.052 1324.94 142.635 1320.31 Q147.242 1315.66 148.422 1314.32 Q150.668 1311.8 151.547 1310.06 Q152.45 1308.3 152.45 1306.61 Q152.45 1303.86 150.505 1302.12 Q148.584 1300.38 145.482 1300.38 Q143.283 1300.38 140.83 1301.15 Q138.399 1301.91 135.621 1303.46 L135.621 1298.74 Q138.445 1297.61 140.899 1297.03 Q143.353 1296.45 145.39 1296.45 Q150.76 1296.45 153.955 1299.13 Q157.149 1301.82 157.149 1306.31 Q157.149 1308.44 156.339 1310.36 Q155.552 1312.26 153.445 1314.85 Q152.867 1315.52 149.765 1318.74 Q146.663 1321.94 141.015 1327.7 Z" fill="#000000" fill-rule="nonzero" fill-opacity="1" /><path clip-path="url(#clip660)" d="M167.195 1297.07 L185.552 1297.07 L185.552 1301.01 L171.478 1301.01 L171.478 1309.48 Q172.496 1309.13 173.515 1308.97 Q174.533 1308.79 175.552 1308.79 Q181.339 1308.79 184.718 1311.96 Q188.098 1315.13 188.098 1320.55 Q188.098 1326.12 184.626 1329.23 Q181.153 1332.31 174.834 1332.31 Q172.658 1332.31 170.39 1331.94 Q168.144 1331.56 165.737 1330.82 L165.737 1326.12 Q167.82 1327.26 170.042 1327.81 Q172.265 1328.37 174.741 1328.37 Q178.746 1328.37 181.084 1326.26 Q183.422 1324.16 183.422 1320.55 Q183.422 1316.94 181.084 1314.83 Q178.746 1312.72 174.741 1312.72 Q172.866 1312.72 170.991 1313.14 Q169.14 1313.56 167.195 1314.44 L167.195 1297.07 Z" fill="#000000" fill-rule="nonzero" fill-opacity="1" /><path clip-path="url(#clip660)" d="M100.76 1185.02 Q97.1493 1185.02 95.3206 1188.58 Q93.515 1192.12 93.515 1199.25 Q93.515 1206.36 95.3206 1209.92 Q97.1493 1213.47 100.76 1213.47 Q104.395 1213.47 106.2 1209.92 Q108.029 1206.36 108.029 1199.25 Q108.029 1192.12 106.2 1188.58 Q104.395 1185.02 100.76 1185.02 M100.76 1181.31 Q106.571 1181.31 109.626 1185.92 Q112.705 1190.5 112.705 1199.25 Q112.705 1207.98 109.626 1212.59 Q106.571 1217.17 100.76 1217.17 Q94.9502 1217.17 91.8715 1212.59 Q88.816 1207.98 88.816 1199.25 Q88.816 1190.5 91.8715 1185.92 Q94.9502 1181.31 100.76 1181.31 Z" fill="#000000" fill-rule="nonzero" fill-opacity="1" /><path clip-path="url(#clip660)" d="M120.922 1210.62 L125.807 1210.62 L125.807 1216.5 L120.922 1216.5 L120.922 1210.62 Z" fill="#000000" fill-rule="nonzero" fill-opacity="1" /><path clip-path="url(#clip660)" d="M145.992 1185.02 Q142.381 1185.02 140.552 1188.58 Q138.746 1192.12 138.746 1199.25 Q138.746 1206.36 140.552 1209.92 Q142.381 1213.47 145.992 1213.47 Q149.626 1213.47 151.431 1209.92 Q153.26 1206.36 153.26 1199.25 Q153.26 1192.12 151.431 1188.58 Q149.626 1185.02 145.992 1185.02 M145.992 1181.31 Q151.802 1181.31 154.857 1185.92 Q157.936 1190.5 157.936 1199.25 Q157.936 1207.98 154.857 1212.59 Q151.802 1217.17 145.992 1217.17 Q140.181 1217.17 137.103 1212.59 Q134.047 1207.98 134.047 1199.25 Q134.047 1190.5 137.103 1185.92 Q140.181 1181.31 145.992 1181.31 Z" fill="#000000" fill-rule="nonzero" fill-opacity="1" /><path clip-path="url(#clip660)" d="M176.153 1185.02 Q172.542 1185.02 170.714 1188.58 Q168.908 1192.12 168.908 1199.25 Q168.908 1206.36 170.714 1209.92 Q172.542 1213.47 176.153 1213.47 Q179.788 1213.47 181.593 1209.92 Q183.422 1206.36 183.422 1199.25 Q183.422 1192.12 181.593 1188.58 Q179.788 1185.02 176.153 1185.02 M176.153 1181.31 Q181.964 1181.31 185.019 1185.92 Q188.098 1190.5 188.098 1199.25 Q188.098 1207.98 185.019 1212.59 Q181.964 1217.17 176.153 1217.17 Q170.343 1217.17 167.265 1212.59 Q164.209 1207.98 164.209 1199.25 Q164.209 1190.5 167.265 1185.92 Q170.343 1181.31 176.153 1181.31 Z" fill="#000000" fill-rule="nonzero" fill-opacity="1" /><path clip-path="url(#clip660)" d="M101.756 1069.88 Q98.1447 1069.88 96.316 1073.45 Q94.5104 1076.99 94.5104 1084.12 Q94.5104 1091.22 96.316 1094.79 Q98.1447 1098.33 101.756 1098.33 Q105.39 1098.33 107.196 1094.79 Q109.024 1091.22 109.024 1084.12 Q109.024 1076.99 107.196 1073.45 Q105.39 1069.88 101.756 1069.88 M101.756 1066.18 Q107.566 1066.18 110.621 1070.78 Q113.7 1075.37 113.7 1084.12 Q113.7 1092.84 110.621 1097.45 Q107.566 1102.03 101.756 1102.03 Q95.9456 1102.03 92.8669 1097.45 Q89.8114 1092.84 89.8114 1084.12 Q89.8114 1075.37 92.8669 1070.78 Q95.9456 1066.18 101.756 1066.18 Z" fill="#000000" fill-rule="nonzero" fill-opacity="1" /><path clip-path="url(#clip660)" d="M121.918 1095.48 L126.802 1095.48 L126.802 1101.36 L121.918 1101.36 L121.918 1095.48 Z" fill="#000000" fill-rule="nonzero" fill-opacity="1" /><path clip-path="url(#clip660)" d="M141.015 1097.43 L157.334 1097.43 L157.334 1101.36 L135.39 1101.36 L135.39 1097.43 Q138.052 1094.67 142.635 1090.04 Q147.242 1085.39 148.422 1084.05 Q150.668 1081.52 151.547 1079.79 Q152.45 1078.03 152.45 1076.34 Q152.45 1073.58 150.505 1071.85 Q148.584 1070.11 145.482 1070.11 Q143.283 1070.11 140.83 1070.88 Q138.399 1071.64 135.621 1073.19 L135.621 1068.47 Q138.445 1067.33 140.899 1066.76 Q143.353 1066.18 145.39 1066.18 Q150.76 1066.18 153.955 1068.86 Q157.149 1071.55 157.149 1076.04 Q157.149 1078.17 156.339 1080.09 Q155.552 1081.99 153.445 1084.58 Q152.867 1085.25 149.765 1088.47 Q146.663 1091.66 141.015 1097.43 Z" fill="#000000" fill-rule="nonzero" fill-opacity="1" /><path clip-path="url(#clip660)" d="M167.195 1066.8 L185.552 1066.8 L185.552 1070.74 L171.478 1070.74 L171.478 1079.21 Q172.496 1078.86 173.515 1078.7 Q174.533 1078.52 175.552 1078.52 Q181.339 1078.52 184.718 1081.69 Q188.098 1084.86 188.098 1090.27 Q188.098 1095.85 184.626 1098.95 Q181.153 1102.03 174.834 1102.03 Q172.658 1102.03 170.39 1101.66 Q168.144 1101.29 165.737 1100.55 L165.737 1095.85 Q167.82 1096.99 170.042 1097.54 Q172.265 1098.1 174.741 1098.1 Q178.746 1098.1 181.084 1095.99 Q183.422 1093.89 183.422 1090.27 Q183.422 1086.66 181.084 1084.56 Q178.746 1082.45 174.741 1082.45 Q172.866 1082.45 170.991 1082.87 Q169.14 1083.28 167.195 1084.16 L167.195 1066.8 Z" fill="#000000" fill-rule="nonzero" fill-opacity="1" /><path clip-path="url(#clip660)" d="M100.76 954.745 Q97.1493 954.745 95.3206 958.31 Q93.515 961.851 93.515 968.981 Q93.515 976.087 95.3206 979.652 Q97.1493 983.194 100.76 983.194 Q104.395 983.194 106.2 979.652 Q108.029 976.087 108.029 968.981 Q108.029 961.851 106.2 958.31 Q104.395 954.745 100.76 954.745 M100.76 951.041 Q106.571 951.041 109.626 955.648 Q112.705 960.231 112.705 968.981 Q112.705 977.708 109.626 982.314 Q106.571 986.898 100.76 986.898 Q94.9502 986.898 91.8715 982.314 Q88.816 977.708 88.816 968.981 Q88.816 960.231 91.8715 955.648 Q94.9502 951.041 100.76 951.041 Z" fill="#000000" fill-rule="nonzero" fill-opacity="1" /><path clip-path="url(#clip660)" d="M120.922 980.347 L125.807 980.347 L125.807 986.226 L120.922 986.226 L120.922 980.347 Z" fill="#000000" fill-rule="nonzero" fill-opacity="1" /><path clip-path="url(#clip660)" d="M136.038 951.666 L154.394 951.666 L154.394 955.601 L140.32 955.601 L140.32 964.074 Q141.339 963.726 142.357 963.564 Q143.376 963.379 144.394 963.379 Q150.181 963.379 153.561 966.55 Q156.941 969.722 156.941 975.138 Q156.941 980.717 153.468 983.819 Q149.996 986.898 143.677 986.898 Q141.501 986.898 139.232 986.527 Q136.987 986.157 134.58 985.416 L134.58 980.717 Q136.663 981.851 138.885 982.407 Q141.107 982.962 143.584 982.962 Q147.589 982.962 149.927 980.856 Q152.265 978.749 152.265 975.138 Q152.265 971.527 149.927 969.421 Q147.589 967.314 143.584 967.314 Q141.709 967.314 139.834 967.731 Q137.982 968.148 136.038 969.027 L136.038 951.666 Z" fill="#000000" fill-rule="nonzero" fill-opacity="1" /><path clip-path="url(#clip660)" d="M176.153 954.745 Q172.542 954.745 170.714 958.31 Q168.908 961.851 168.908 968.981 Q168.908 976.087 170.714 979.652 Q172.542 983.194 176.153 983.194 Q179.788 983.194 181.593 979.652 Q183.422 976.087 183.422 968.981 Q183.422 961.851 181.593 958.31 Q179.788 954.745 176.153 954.745 M176.153 951.041 Q181.964 951.041 185.019 955.648 Q188.098 960.231 188.098 968.981 Q188.098 977.708 185.019 982.314 Q181.964 986.898 176.153 986.898 Q170.343 986.898 167.265 982.314 Q164.209 977.708 164.209 968.981 Q164.209 960.231 167.265 955.648 Q170.343 951.041 176.153 951.041 Z" fill="#000000" fill-rule="nonzero" fill-opacity="1" /><path clip-path="url(#clip660)" d="M602.548 814.324 L602.548 827.206 L617.901 827.206 L617.901 832.999 L602.548 832.999 L602.548 857.628 Q602.548 863.178 604.047 864.758 Q605.586 866.338 610.244 866.338 L617.901 866.338 L617.901 872.576 L610.244 872.576 Q601.616 872.576 598.335 869.376 Q595.054 866.135 595.054 857.628 L595.054 832.999 L589.585 832.999 L589.585 827.206 L595.054 827.206 L595.054 814.324 L602.548 814.324 Z" fill="#000000" fill-rule="nonzero" fill-opacity="1" /><path clip-path="url(#clip660)" d="M655.047 834.903 L706.98 834.903 L706.98 841.708 L655.047 841.708 L655.047 834.903 M655.047 851.43 L706.98 851.43 L706.98 858.317 L655.047 858.317 L655.047 851.43 Z" fill="#000000" fill-rule="nonzero" fill-opacity="1" /><path clip-path="url(#clip660)" d="M752.431 865.689 L765.799 865.689 L765.799 819.55 L751.256 822.466 L751.256 815.013 L765.718 812.096 L773.901 812.096 L773.901 865.689 L787.269 865.689 L787.269 872.576 L752.431 872.576 L752.431 865.689 Z" fill="#000000" fill-rule="nonzero" fill-opacity="1" /><polyline clip-path="url(#clip664)" style="stroke:#009af9; stroke-linecap:round; stroke-linejoin:round; stroke-width:4; stroke-opacity:1; fill:none" points="250.381,1196.71 254.761,1193.42 259.142,1190.13 263.522,1186.84 267.902,1183.55 272.283,1180.27 276.663,1177 281.044,1173.73 285.424,1170.46 289.805,1167.19 294.185,1163.93 298.566,1160.66 302.946,1157.41 307.327,1154.15 311.707,1150.89 316.088,1147.64 320.468,1144.38 324.849,1141.12 329.229,1137.86 333.609,1134.6 337.99,1131.33 342.37,1128.05 346.751,1124.77 351.131,1121.48 355.512,1118.18 359.892,1114.86 364.273,1111.53 368.653,1108.19 373.034,1104.83 377.414,1101.46 381.795,1098.06 386.175,1094.64 390.555,1091.19 394.936,1087.73 399.316,1084.23 403.697,1080.71 408.077,1077.16 412.458,1073.57 416.838,1069.96 421.219,1066.31 425.599,1062.64 429.98,1058.93 434.36,1055.18 438.741,1051.41 443.121,1047.6 447.501,1043.77 451.882,1039.9 456.262,1036.01 460.643,1032.1 465.023,1028.16 469.404,1024.21 473.784,1020.24 478.165,1016.27 482.545,1012.29 486.926,1008.32 491.306,1004.35 495.687,1000.4 500.067,996.478 504.447,992.585 508.828,988.732 513.208,984.93 517.589,981.188 521.969,977.516 526.35,973.927 530.73,970.431 535.111,967.042 539.491,963.773 543.872,960.639 548.252,957.653 552.633,954.832 557.013,952.193 561.393,949.753 565.774,947.528 570.154,945.539 574.535,943.802 578.915,942.334 583.296,941.151 587.676,940.265 592.057,939.683 596.437,939.405 600.818,939.425 605.198,939.721 609.579,940.261 613.959,941 618.339,941.878 622.72,942.836 627.1,943.821 631.481,944.818 635.861,945.888 640.242,947.217 644.622,949.181 649.003,952.404 653.383,957.783 657.764,966.454 662.144,979.66 666.525,998.512 670.905,1023.69 675.286,1055.19 679.666,1092.19 684.046,1133.16 688.427,1176.14 692.807,1219.11 697.188,1260.3 701.568,1298.38 705.949,1332.51 710.329,1362.28 714.71,1387.64 719.09,1408.77 723.471,1425.99 727.851,1439.71 732.232,1450.34 736.612,1458.29 740.992,1463.96 745.373,1467.68 749.753,1469.78 754.134,1470.51 758.514,1470.13 762.895,1468.84 767.275,1466.8 771.656,1464.16 776.036,1461.06 780.417,1457.6 784.797,1453.87 789.178,1449.95 793.558,1445.89 797.938,1441.75 802.319,1437.58 806.699,1433.41 811.08,1429.27 815.46,1425.17 819.841,1421.15 824.221,1417.22 828.602,1413.37 832.982,1409.63 837.363,1406 841.743,1402.47 846.124,1399.06 850.504,1395.76 854.884,1392.56 859.265,1389.46 863.645,1386.47 868.026,1383.57 872.406,1380.76 876.787,1378.02 881.167,1375.37 885.548,1372.78 889.928,1370.26 894.309,1367.79 898.689,1365.36 903.07,1362.98 907.45,1360.63 911.83,1358.3 916.211,1356 920.591,1353.7 924.972,1351.42 929.352,1349.13 933.733,1346.83 938.113,1344.53 942.494,1342.2 946.874,1339.86 951.255,1337.48 955.635,1335.08 960.016,1332.64 964.396,1330.15 968.776,1327.63 973.157,1325.05 977.537,1322.43 981.918,1319.75 986.298,1317.01 990.679,1314.22 995.059,1311.36 999.44,1308.44 1003.82,1305.46 1008.2,1302.41 1012.58,1299.29 1016.96,1296.1 1021.34,1292.85 1025.72,1289.52 1030.1,1286.12 1034.48,1282.65 1038.86,1279.11 1043.24,1275.49 1047.62,1271.8 1052.01,1268.04 1056.39,1264.21 1060.77,1260.3 1065.15,1256.32 1069.53,1252.28 1073.91,1248.16 1078.29,1243.97 1082.67,1239.71 1087.05,1235.38 1091.43,1230.98 1095.81,1226.52 1100.19,1221.99 1104.57,1217.39 1108.95,1212.73 1113.33,1208.01 1117.71,1203.22 1122.09,1198.38 1126.47,1193.47 "/>
<path clip-path="url(#clip660)" d="M976.505 1045.92 L1121.8 1045.92 L1121.8 942.238 L976.505 942.238  Z" fill="#ffffff" fill-rule="evenodd" fill-opacity="1"/>
<polyline clip-path="url(#clip660)" style="stroke:#000000; stroke-linecap:round; stroke-linejoin:round; stroke-width:4; stroke-opacity:1; fill:none" points="976.505,1045.92 1121.8,1045.92 1121.8,942.238 976.505,942.238 976.505,1045.92 "/>
<polyline clip-path="url(#clip660)" style="stroke:#009af9; stroke-linecap:round; stroke-linejoin:round; stroke-width:4; stroke-opacity:1; fill:none" points="986.823,994.078 1048.73,994.078 "/>
<path clip-path="url(#clip660)" d="M1072.89 1013.77 Q1071.09 1018.39 1069.38 1019.81 Q1067.66 1021.22 1064.79 1021.22 L1061.39 1021.22 L1061.39 1017.65 L1063.89 1017.65 Q1065.65 1017.65 1066.62 1016.82 Q1067.59 1015.99 1068.77 1012.89 L1069.54 1010.94 L1059.05 985.432 L1063.57 985.432 L1071.67 1005.71 L1079.77 985.432 L1084.28 985.432 L1072.89 1013.77 Z" fill="#000000" fill-rule="nonzero" fill-opacity="1" /><path clip-path="url(#clip660)" d="M1091.57 1007.42 L1099.21 1007.42 L1099.21 981.057 L1090.9 982.724 L1090.9 978.465 L1099.17 976.798 L1103.84 976.798 L1103.84 1007.42 L1111.48 1007.42 L1111.48 1011.36 L1091.57 1011.36 L1091.57 1007.42 Z" fill="#000000" fill-rule="nonzero" fill-opacity="1" /></svg>
