<?xml version="1.0" encoding="utf-8"?>
<svg xmlns="http://www.w3.org/2000/svg" xmlns:xlink="http://www.w3.org/1999/xlink" width="600" height="400" viewBox="0 0 2400 1600">
<defs>
  <clipPath id="clip010">
    <rect x="0" y="0" width="2400" height="1600"/>
  </clipPath>
</defs>
<path clip-path="url(#clip010)" d="M0 1600 L2400 1600 L2400 0 L0 0  Z" fill="#ffffff" fill-rule="evenodd" fill-opacity="1"/>
<defs>
  <clipPath id="clip011">
    <rect x="480" y="0" width="1681" height="1600"/>
  </clipPath>
</defs>
<path clip-path="url(#clip010)" d="M170.857 1486.45 L2352.76 1486.45 L2352.76 47.2441 L170.857 47.2441  Z" fill="#ffffff" fill-rule="evenodd" fill-opacity="1"/>
<defs>
  <clipPath id="clip012">
    <rect x="170" y="47" width="2183" height="1440"/>
  </clipPath>
</defs>
<polyline clip-path="url(#clip012)" style="stroke:#000000; stroke-linecap:round; stroke-linejoin:round; stroke-width:2; stroke-opacity:0.1; fill:none" points="326.173,1486.45 326.173,47.2441 "/>
<polyline clip-path="url(#clip012)" style="stroke:#000000; stroke-linecap:round; stroke-linejoin:round; stroke-width:2; stroke-opacity:0.1; fill:none" points="793.99,1486.45 793.99,47.2441 "/>
<polyline clip-path="url(#clip012)" style="stroke:#000000; stroke-linecap:round; stroke-linejoin:round; stroke-width:2; stroke-opacity:0.1; fill:none" points="1261.81,1486.45 1261.81,47.2441 "/>
<polyline clip-path="url(#clip012)" style="stroke:#000000; stroke-linecap:round; stroke-linejoin:round; stroke-width:2; stroke-opacity:0.1; fill:none" points="1729.62,1486.45 1729.62,47.2441 "/>
<polyline clip-path="url(#clip012)" style="stroke:#000000; stroke-linecap:round; stroke-linejoin:round; stroke-width:2; stroke-opacity:0.1; fill:none" points="2197.44,1486.45 2197.44,47.2441 "/>
<polyline clip-path="url(#clip010)" style="stroke:#000000; stroke-linecap:round; stroke-linejoin:round; stroke-width:4; stroke-opacity:1; fill:none" points="170.857,1486.45 2352.76,1486.45 "/>
<polyline clip-path="url(#clip010)" style="stroke:#000000; stroke-linecap:round; stroke-linejoin:round; stroke-width:4; stroke-opacity:1; fill:none" points="326.173,1486.45 326.173,1467.55 "/>
<polyline clip-path="url(#clip010)" style="stroke:#000000; stroke-linecap:round; stroke-linejoin:round; stroke-width:4; stroke-opacity:1; fill:none" points="793.99,1486.45 793.99,1467.55 "/>
<polyline clip-path="url(#clip010)" style="stroke:#000000; stroke-linecap:round; stroke-linejoin:round; stroke-width:4; stroke-opacity:1; fill:none" points="1261.81,1486.45 1261.81,1467.55 "/>
<polyline clip-path="url(#clip010)" style="stroke:#000000; stroke-linecap:round; stroke-linejoin:round; stroke-width:4; stroke-opacity:1; fill:none" points="1729.62,1486.45 1729.62,1467.55 "/>
<polyline clip-path="url(#clip010)" style="stroke:#000000; stroke-linecap:round; stroke-linejoin:round; stroke-width:4; stroke-opacity:1; fill:none" points="2197.44,1486.45 2197.44,1467.55 "/>
<path clip-path="url(#clip010)" d="M296.115 1532.02 L325.791 1532.02 L325.791 1535.95 L296.115 1535.95 L296.115 1532.02 Z" fill="#000000" fill-rule="nonzero" fill-opacity="1" /><path clip-path="url(#clip010)" d="M339.911 1544.91 L356.23 1544.91 L356.23 1548.85 L334.286 1548.85 L334.286 1544.91 Q336.948 1542.16 341.531 1537.53 Q346.138 1532.88 347.318 1531.53 Q349.564 1529.01 350.443 1527.27 Q351.346 1525.51 351.346 1523.82 Q351.346 1521.07 349.402 1519.33 Q347.48 1517.6 344.379 1517.6 Q342.18 1517.6 339.726 1518.36 Q337.295 1519.13 334.518 1520.68 L334.518 1515.95 Q337.342 1514.82 339.795 1514.24 Q342.249 1513.66 344.286 1513.66 Q349.656 1513.66 352.851 1516.35 Q356.045 1519.03 356.045 1523.52 Q356.045 1525.65 355.235 1527.57 Q354.448 1529.47 352.342 1532.07 Q351.763 1532.74 348.661 1535.95 Q345.559 1539.15 339.911 1544.91 Z" fill="#000000" fill-rule="nonzero" fill-opacity="1" /><path clip-path="url(#clip010)" d="M763.747 1532.02 L793.423 1532.02 L793.423 1535.95 L763.747 1535.95 L763.747 1532.02 Z" fill="#000000" fill-rule="nonzero" fill-opacity="1" /><path clip-path="url(#clip010)" d="M804.325 1544.91 L811.964 1544.91 L811.964 1518.55 L803.654 1520.21 L803.654 1515.95 L811.918 1514.29 L816.594 1514.29 L816.594 1544.91 L824.233 1544.91 L824.233 1548.85 L804.325 1548.85 L804.325 1544.91 Z" fill="#000000" fill-rule="nonzero" fill-opacity="1" /><path clip-path="url(#clip010)" d="M1261.81 1517.37 Q1258.2 1517.37 1256.37 1520.93 Q1254.56 1524.47 1254.56 1531.6 Q1254.56 1538.71 1256.37 1542.27 Q1258.2 1545.82 1261.81 1545.82 Q1265.44 1545.82 1267.25 1542.27 Q1269.08 1538.71 1269.08 1531.6 Q1269.08 1524.47 1267.25 1520.93 Q1265.44 1517.37 1261.81 1517.37 M1261.81 1513.66 Q1267.62 1513.66 1270.67 1518.27 Q1273.75 1522.85 1273.75 1531.6 Q1273.75 1540.33 1270.67 1544.94 Q1267.62 1549.52 1261.81 1549.52 Q1256 1549.52 1252.92 1544.94 Q1249.86 1540.33 1249.86 1531.6 Q1249.86 1522.85 1252.92 1518.27 Q1256 1513.66 1261.81 1513.66 Z" fill="#000000" fill-rule="nonzero" fill-opacity="1" /><path clip-path="url(#clip010)" d="M1720.01 1544.91 L1727.64 1544.91 L1727.64 1518.55 L1719.33 1520.21 L1719.33 1515.95 L1727.6 1514.29 L1732.27 1514.29 L1732.27 1544.91 L1739.91 1544.91 L1739.91 1548.85 L1720.01 1548.85 L1720.01 1544.91 Z" fill="#000000" fill-rule="nonzero" fill-opacity="1" /><path clip-path="url(#clip010)" d="M2192.09 1544.91 L2208.41 1544.91 L2208.41 1548.85 L2186.47 1548.85 L2186.47 1544.91 Q2189.13 1542.16 2193.71 1537.53 Q2198.32 1532.88 2199.5 1531.53 Q2201.75 1529.01 2202.63 1527.27 Q2203.53 1525.51 2203.53 1523.82 Q2203.53 1521.07 2201.58 1519.33 Q2199.66 1517.6 2196.56 1517.6 Q2194.36 1517.6 2191.91 1518.36 Q2189.48 1519.13 2186.7 1520.68 L2186.7 1515.95 Q2189.52 1514.82 2191.98 1514.24 Q2194.43 1513.66 2196.47 1513.66 Q2201.84 1513.66 2205.03 1516.35 Q2208.23 1519.03 2208.23 1523.52 Q2208.23 1525.65 2207.42 1527.57 Q2206.63 1529.47 2204.52 1532.07 Q2203.95 1532.74 2200.84 1535.95 Q2197.74 1539.15 2192.09 1544.91 Z" fill="#000000" fill-rule="nonzero" fill-opacity="1" /><polyline clip-path="url(#clip012)" style="stroke:#000000; stroke-linecap:round; stroke-linejoin:round; stroke-width:2; stroke-opacity:0.1; fill:none" points="170.857,1428.41 2352.76,1428.41 "/>
<polyline clip-path="url(#clip012)" style="stroke:#000000; stroke-linecap:round; stroke-linejoin:round; stroke-width:2; stroke-opacity:0.1; fill:none" points="170.857,1101.14 2352.76,1101.14 "/>
<polyline clip-path="url(#clip012)" style="stroke:#000000; stroke-linecap:round; stroke-linejoin:round; stroke-width:2; stroke-opacity:0.1; fill:none" points="170.857,773.868 2352.76,773.868 "/>
<polyline clip-path="url(#clip012)" style="stroke:#000000; stroke-linecap:round; stroke-linejoin:round; stroke-width:2; stroke-opacity:0.1; fill:none" points="170.857,446.598 2352.76,446.598 "/>
<polyline clip-path="url(#clip012)" style="stroke:#000000; stroke-linecap:round; stroke-linejoin:round; stroke-width:2; stroke-opacity:0.1; fill:none" points="170.857,119.327 2352.76,119.327 "/>
<polyline clip-path="url(#clip010)" style="stroke:#000000; stroke-linecap:round; stroke-linejoin:round; stroke-width:4; stroke-opacity:1; fill:none" points="170.857,1486.45 170.857,47.2441 "/>
<polyline clip-path="url(#clip010)" style="stroke:#000000; stroke-linecap:round; stroke-linejoin:round; stroke-width:4; stroke-opacity:1; fill:none" points="170.857,1428.41 189.755,1428.41 "/>
<polyline clip-path="url(#clip010)" style="stroke:#000000; stroke-linecap:round; stroke-linejoin:round; stroke-width:4; stroke-opacity:1; fill:none" points="170.857,1101.14 189.755,1101.14 "/>
<polyline clip-path="url(#clip010)" style="stroke:#000000; stroke-linecap:round; stroke-linejoin:round; stroke-width:4; stroke-opacity:1; fill:none" points="170.857,773.868 189.755,773.868 "/>
<polyline clip-path="url(#clip010)" style="stroke:#000000; stroke-linecap:round; stroke-linejoin:round; stroke-width:4; stroke-opacity:1; fill:none" points="170.857,446.598 189.755,446.598 "/>
<polyline clip-path="url(#clip010)" style="stroke:#000000; stroke-linecap:round; stroke-linejoin:round; stroke-width:4; stroke-opacity:1; fill:none" points="170.857,119.327 189.755,119.327 "/>
<path clip-path="url(#clip010)" d="M122.913 1414.21 Q119.302 1414.21 117.473 1417.77 Q115.668 1421.31 115.668 1428.44 Q115.668 1435.55 117.473 1439.11 Q119.302 1442.66 122.913 1442.66 Q126.547 1442.66 128.353 1439.11 Q130.182 1435.55 130.182 1428.44 Q130.182 1421.31 128.353 1417.77 Q126.547 1414.21 122.913 1414.21 M122.913 1410.5 Q128.723 1410.5 131.779 1415.11 Q134.857 1419.69 134.857 1428.44 Q134.857 1437.17 131.779 1441.78 Q128.723 1446.36 122.913 1446.36 Q117.103 1446.36 114.024 1441.78 Q110.969 1437.17 110.969 1428.44 Q110.969 1419.69 114.024 1415.11 Q117.103 1410.5 122.913 1410.5 Z" fill="#000000" fill-rule="nonzero" fill-opacity="1" /><path clip-path="url(#clip010)" d="M82.7975 1083.86 L101.154 1083.86 L101.154 1087.79 L87.0799 1087.79 L87.0799 1096.27 Q88.0984 1095.92 89.1169 1095.76 Q90.1354 1095.57 91.1539 1095.57 Q96.941 1095.57 100.321 1098.74 Q103.7 1101.91 103.7 1107.33 Q103.7 1112.91 100.228 1116.01 Q96.7558 1119.09 90.4364 1119.09 Q88.2604 1119.09 85.9919 1118.72 Q83.7466 1118.35 81.3392 1117.61 L81.3392 1112.91 Q83.4225 1114.04 85.6447 1114.6 Q87.8669 1115.15 90.3438 1115.15 Q94.3484 1115.15 96.6863 1113.05 Q99.0243 1110.94 99.0243 1107.33 Q99.0243 1103.72 96.6863 1101.61 Q94.3484 1099.51 90.3438 1099.51 Q88.4688 1099.51 86.5938 1099.92 Q84.7419 1100.34 82.7975 1101.22 L82.7975 1083.86 Z" fill="#000000" fill-rule="nonzero" fill-opacity="1" /><path clip-path="url(#clip010)" d="M122.913 1086.94 Q119.302 1086.94 117.473 1090.5 Q115.668 1094.04 115.668 1101.17 Q115.668 1108.28 117.473 1111.84 Q119.302 1115.39 122.913 1115.39 Q126.547 1115.39 128.353 1111.84 Q130.182 1108.28 130.182 1101.17 Q130.182 1094.04 128.353 1090.5 Q126.547 1086.94 122.913 1086.94 M122.913 1083.23 Q128.723 1083.23 131.779 1087.84 Q134.857 1092.42 134.857 1101.17 Q134.857 1109.9 131.779 1114.51 Q128.723 1119.09 122.913 1119.09 Q117.103 1119.09 114.024 1114.51 Q110.969 1109.9 110.969 1101.17 Q110.969 1092.42 114.024 1087.84 Q117.103 1083.23 122.913 1083.23 Z" fill="#000000" fill-rule="nonzero" fill-opacity="1" /><path clip-path="url(#clip010)" d="M53.3995 787.213 L61.0384 787.213 L61.0384 760.847 L52.7282 762.514 L52.7282 758.254 L60.9921 756.588 L65.668 756.588 L65.668 787.213 L73.3068 787.213 L73.3068 791.148 L53.3995 791.148 L53.3995 787.213 Z" fill="#000000" fill-rule="nonzero" fill-opacity="1" /><path clip-path="url(#clip010)" d="M92.7512 759.666 Q89.1401 759.666 87.3114 763.231 Q85.5058 766.773 85.5058 773.902 Q85.5058 781.009 87.3114 784.574 Q89.1401 788.115 92.7512 788.115 Q96.3854 788.115 98.1909 784.574 Q100.02 781.009 100.02 773.902 Q100.02 766.773 98.1909 763.231 Q96.3854 759.666 92.7512 759.666 M92.7512 755.963 Q98.5613 755.963 101.617 760.569 Q104.696 765.153 104.696 773.902 Q104.696 782.629 101.617 787.236 Q98.5613 791.819 92.7512 791.819 Q86.941 791.819 83.8623 787.236 Q80.8068 782.629 80.8068 773.902 Q80.8068 765.153 83.8623 760.569 Q86.941 755.963 92.7512 755.963 Z" fill="#000000" fill-rule="nonzero" fill-opacity="1" /><path clip-path="url(#clip010)" d="M122.913 759.666 Q119.302 759.666 117.473 763.231 Q115.668 766.773 115.668 773.902 Q115.668 781.009 117.473 784.574 Q119.302 788.115 122.913 788.115 Q126.547 788.115 128.353 784.574 Q130.182 781.009 130.182 773.902 Q130.182 766.773 128.353 763.231 Q126.547 759.666 122.913 759.666 M122.913 755.963 Q128.723 755.963 131.779 760.569 Q134.857 765.153 134.857 773.902 Q134.857 782.629 131.779 787.236 Q128.723 791.819 122.913 791.819 Q117.103 791.819 114.024 787.236 Q110.969 782.629 110.969 773.902 Q110.969 765.153 114.024 760.569 Q117.103 755.963 122.913 755.963 Z" fill="#000000" fill-rule="nonzero" fill-opacity="1" /><path clip-path="url(#clip010)" d="M53.3995 459.942 L61.0384 459.942 L61.0384 433.577 L52.7282 435.243 L52.7282 430.984 L60.9921 429.318 L65.668 429.318 L65.668 459.942 L73.3068 459.942 L73.3068 463.878 L53.3995 463.878 L53.3995 459.942 Z" fill="#000000" fill-rule="nonzero" fill-opacity="1" /><path clip-path="url(#clip010)" d="M82.7975 429.318 L101.154 429.318 L101.154 433.253 L87.0799 433.253 L87.0799 441.725 Q88.0984 441.378 89.1169 441.216 Q90.1354 441.03 91.1539 441.03 Q96.941 441.03 100.321 444.202 Q103.7 447.373 103.7 452.79 Q103.7 458.368 100.228 461.47 Q96.7558 464.549 90.4364 464.549 Q88.2604 464.549 85.9919 464.178 Q83.7466 463.808 81.3392 463.067 L81.3392 458.368 Q83.4225 459.503 85.6447 460.058 Q87.8669 460.614 90.3438 460.614 Q94.3484 460.614 96.6863 458.507 Q99.0243 456.401 99.0243 452.79 Q99.0243 449.179 96.6863 447.072 Q94.3484 444.966 90.3438 444.966 Q88.4688 444.966 86.5938 445.382 Q84.7419 445.799 82.7975 446.679 L82.7975 429.318 Z" fill="#000000" fill-rule="nonzero" fill-opacity="1" /><path clip-path="url(#clip010)" d="M122.913 432.396 Q119.302 432.396 117.473 435.961 Q115.668 439.503 115.668 446.632 Q115.668 453.739 117.473 457.304 Q119.302 460.845 122.913 460.845 Q126.547 460.845 128.353 457.304 Q130.182 453.739 130.182 446.632 Q130.182 439.503 128.353 435.961 Q126.547 432.396 122.913 432.396 M122.913 428.693 Q128.723 428.693 131.779 433.299 Q134.857 437.882 134.857 446.632 Q134.857 455.359 131.779 459.966 Q128.723 464.549 122.913 464.549 Q117.103 464.549 114.024 459.966 Q110.969 455.359 110.969 446.632 Q110.969 437.882 114.024 433.299 Q117.103 428.693 122.913 428.693 Z" fill="#000000" fill-rule="nonzero" fill-opacity="1" /><path clip-path="url(#clip010)" d="M56.6171 132.672 L72.9365 132.672 L72.9365 136.607 L50.9921 136.607 L50.9921 132.672 Q53.6541 129.918 58.2375 125.288 Q62.8439 120.635 64.0245 119.293 Q66.2698 116.769 67.1494 115.033 Q68.0522 113.274 68.0522 111.584 Q68.0522 108.83 66.1078 107.094 Q64.1865 105.358 61.0847 105.358 Q58.8856 105.358 56.4319 106.121 Q54.0014 106.885 51.2236 108.436 L51.2236 103.714 Q54.0477 102.58 56.5014 102.001 Q58.955 101.422 60.9921 101.422 Q66.3624 101.422 69.5568 104.108 Q72.7513 106.793 72.7513 111.283 Q72.7513 113.413 71.9411 115.334 Q71.1541 117.232 69.0476 119.825 Q68.4689 120.496 65.367 123.714 Q62.2652 126.908 56.6171 132.672 Z" fill="#000000" fill-rule="nonzero" fill-opacity="1" /><path clip-path="url(#clip010)" d="M92.7512 105.126 Q89.1401 105.126 87.3114 108.691 Q85.5058 112.232 85.5058 119.362 Q85.5058 126.469 87.3114 130.033 Q89.1401 133.575 92.7512 133.575 Q96.3854 133.575 98.1909 130.033 Q100.02 126.469 100.02 119.362 Q100.02 112.232 98.1909 108.691 Q96.3854 105.126 92.7512 105.126 M92.7512 101.422 Q98.5613 101.422 101.617 106.029 Q104.696 110.612 104.696 119.362 Q104.696 128.089 101.617 132.695 Q98.5613 137.279 92.7512 137.279 Q86.941 137.279 83.8623 132.695 Q80.8068 128.089 80.8068 119.362 Q80.8068 110.612 83.8623 106.029 Q86.941 101.422 92.7512 101.422 Z" fill="#000000" fill-rule="nonzero" fill-opacity="1" /><path clip-path="url(#clip010)" d="M122.913 105.126 Q119.302 105.126 117.473 108.691 Q115.668 112.232 115.668 119.362 Q115.668 126.469 117.473 130.033 Q119.302 133.575 122.913 133.575 Q126.547 133.575 128.353 130.033 Q130.182 126.469 130.182 119.362 Q130.182 112.232 128.353 108.691 Q126.547 105.126 122.913 105.126 M122.913 101.422 Q128.723 101.422 131.779 106.029 Q134.857 110.612 134.857 119.362 Q134.857 128.089 131.779 132.695 Q128.723 137.279 122.913 137.279 Q117.103 137.279 114.024 132.695 Q110.969 128.089 110.969 119.362 Q110.969 110.612 114.024 106.029 Q117.103 101.422 122.913 101.422 Z" fill="#000000" fill-rule="nonzero" fill-opacity="1" /><polyline clip-path="url(#clip012)" style="stroke:#009af9; stroke-linecap:round; stroke-linejoin:round; stroke-width:4; stroke-opacity:1; fill:none" points="232.609,1428.41 237.287,1428.41 241.966,1428.41 246.644,1428.41 251.322,1428.41 256,1428.41 260.678,1428.41 265.356,1428.41 270.035,1428.41 274.713,1428.41 279.391,1428.41 284.069,1428.41 288.747,1428.41 293.425,1428.41 298.104,1428.41 302.782,1428.41 307.46,1428.4 312.138,1428.4 316.816,1428.4 321.494,1428.4 326.173,1428.4 330.851,1428.39 335.529,1428.39 340.207,1428.38 344.885,1428.37 349.564,1428.36 354.242,1428.35 358.92,1428.33 363.598,1428.31 368.276,1428.28 372.954,1428.25 377.633,1428.21 382.311,1428.16 386.989,1428.1 391.667,1428.03 396.345,1427.94 401.023,1427.84 405.702,1427.71 410.38,1427.55 415.058,1427.37 419.736,1427.15 424.414,1426.89 429.092,1426.58 433.771,1426.22 438.449,1425.79 443.127,1425.29 447.805,1424.71 452.483,1424.04 457.161,1423.26 461.84,1422.36 466.518,1421.33 471.196,1420.15 475.874,1418.81 480.552,1417.28 485.23,1415.55 489.909,1413.59 494.587,1411.39 499.265,1408.92 503.943,1406.15 508.621,1403.07 513.299,1399.64 517.978,1395.84 522.656,1391.65 527.334,1387.02 532.012,1381.94 536.69,1376.38 541.368,1370.3 546.047,1363.69 550.725,1356.5 555.403,1348.72 560.081,1340.32 564.759,1331.28 569.438,1321.56 574.116,1311.15 578.794,1300.03 583.472,1288.18 588.15,1275.58 592.828,1262.23 597.507,1248.11 602.185,1233.22 606.863,1217.55 611.541,1201.1 616.219,1183.88 620.897,1165.89 625.576,1147.14 630.254,1127.65 634.932,1107.44 639.61,1086.52 644.288,1064.93 648.966,1042.69 653.645,1019.82 658.323,996.381 663.001,972.394 667.679,947.906 672.357,922.961 677.035,897.605 681.714,871.888 686.392,845.86 691.07,819.576 695.748,793.088 700.426,766.453 705.104,739.727 709.783,712.967 714.461,686.229 719.139,659.572 723.817,633.051 728.495,606.723 733.173,580.643 737.852,554.864 742.53,529.44 747.208,504.422 751.886,479.857 756.564,455.793 761.242,432.274 765.921,409.343 770.599,387.039 775.277,365.399 779.955,344.456 784.633,324.242 789.311,304.785 793.99,286.11 798.668,268.238 803.346,251.19 808.024,234.981 812.702,219.623 817.381,205.128 822.059,191.502 826.737,178.75 831.415,166.873 836.093,155.871 840.771,145.74 845.45,136.475 850.128,128.067 854.806,120.506 859.484,113.78 864.162,107.874 868.84,102.774 873.519,98.4612 878.197,94.9169 882.875,92.1209 887.553,90.0518 892.231,88.6871 896.909,88.0033 901.588,87.9763 906.266,88.5811 910.944,89.7925 915.622,91.5843 920.3,93.9306 924.978,96.8048 929.657,100.181 934.335,104.031 939.013,108.33 943.691,113.051 948.369,118.167 953.047,123.654 957.726,129.484 962.404,135.634 967.082,142.079 971.76,148.794 976.438,155.755 981.116,162.94 985.795,170.326 990.473,177.891 995.151,185.614 999.829,193.474 1004.51,201.453 1009.19,209.529 1013.86,217.685 1018.54,225.904 1023.22,234.168 1027.9,242.46 1032.58,250.766 1037.25,259.07 1041.93,267.357 1046.61,275.615 1051.29,283.83 1055.97,291.99 1060.65,300.083 1065.32,308.098 1070,316.025 1074.68,323.853 1079.36,331.574 1084.04,339.178 1088.71,346.658 1093.39,354.004 1098.07,361.211 1102.75,368.27 1107.43,375.177 1112.11,381.924 1116.78,388.506 1121.46,394.917 1126.14,401.154 1130.82,407.211 1135.5,413.084 1140.17,418.769 1144.85,424.264 1149.53,429.563 1154.21,434.665 1158.89,439.566 1163.57,444.264 1168.24,448.756 1172.92,453.041 1177.6,457.116 1182.28,460.979 1186.96,464.629 1191.63,468.064 1196.31,471.284 1200.99,474.286 1205.67,477.069 1210.35,479.634 1215.02,481.978 1219.7,484.101 1224.38,486.002 1229.06,487.681 1233.74,489.137 1238.42,490.369 1243.09,491.378 1247.77,492.164 1252.45,492.725 1257.13,493.061 1261.81,493.173 1266.48,493.061 1271.16,492.725 1275.84,492.164 1280.52,491.378 1285.2,490.369 1289.88,489.137 1294.55,487.681 1299.23,486.002 1303.91,484.101 1308.59,481.978 1313.27,479.634 1317.94,477.069 1322.62,474.286 1327.3,471.284 1331.98,468.064 1336.66,464.629 1341.34,460.979 1346.01,457.116 1350.69,453.041 1355.37,448.756 1360.05,444.264 1364.73,439.566 1369.4,434.665 1374.08,429.563 1378.76,424.264 1383.44,418.769 1388.12,413.084 1392.8,407.211 1397.47,401.154 1402.15,394.917 1406.83,388.506 1411.51,381.924 1416.19,375.177 1420.86,368.27 1425.54,361.211 1430.22,354.004 1434.9,346.658 1439.58,339.178 1444.26,331.574 1448.93,323.853 1453.61,316.025 1458.29,308.098 1462.97,300.083 1467.65,291.99 1472.32,283.83 1477,275.615 1481.68,267.357 1486.36,259.07 1491.04,250.766 1495.72,242.46 1500.39,234.168 1505.07,225.904 1509.75,217.685 1514.43,209.529 1519.11,201.453 1523.78,193.474 1528.46,185.614 1533.14,177.891 1537.82,170.326 1542.5,162.94 1547.18,155.755 1551.85,148.794 1556.53,142.079 1561.21,135.634 1565.89,129.484 1570.57,123.654 1575.24,118.167 1579.92,113.051 1584.6,108.33 1589.28,104.031 1593.96,100.181 1598.63,96.8048 1603.31,93.9306 1607.99,91.5843 1612.67,89.7925 1617.35,88.5811 1622.03,87.9763 1626.7,88.0033 1631.38,88.6871 1636.06,90.0518 1640.74,92.1209 1645.42,94.9169 1650.09,98.4612 1654.77,102.774 1659.45,107.874 1664.13,113.78 1668.81,120.506 1673.49,128.067 1678.16,136.475 1682.84,145.74 1687.52,155.871 1692.2,166.873 1696.88,178.75 1701.55,191.502 1706.23,205.128 1710.91,219.623 1715.59,234.981 1720.27,251.19 1724.95,268.238 1729.62,286.11 1734.3,304.785 1738.98,324.242 1743.66,344.456 1748.34,365.399 1753.01,387.039 1757.69,409.343 1762.37,432.274 1767.05,455.793 1771.73,479.857 1776.41,504.422 1781.08,529.44 1785.76,554.864 1790.44,580.643 1795.12,606.723 1799.8,633.051 1804.47,659.572 1809.15,686.229 1813.83,712.967 1818.51,739.727 1823.19,766.453 1827.87,793.088 1832.54,819.576 1837.22,845.86 1841.9,871.888 1846.58,897.605 1851.26,922.961 1855.93,947.906 1860.61,972.394 1865.29,996.381 1869.97,1019.82 1874.65,1042.69 1879.33,1064.93 1884,1086.52 1888.68,1107.44 1893.36,1127.65 1898.04,1147.14 1902.72,1165.89 1907.39,1183.88 1912.07,1201.1 1916.75,1217.55 1921.43,1233.22 1926.11,1248.11 1930.78,1262.23 1935.46,1275.58 1940.14,1288.18 1944.82,1300.03 1949.5,1311.15 1954.18,1321.56 1958.85,1331.28 1963.53,1340.32 1968.21,1348.72 1972.89,1356.5 1977.57,1363.69 1982.24,1370.3 1986.92,1376.38 1991.6,1381.94 1996.28,1387.02 2000.96,1391.65 2005.64,1395.84 2010.31,1399.64 2014.99,1403.07 2019.67,1406.15 2024.35,1408.92 2029.03,1411.39 2033.7,1413.59 2038.38,1415.55 2043.06,1417.28 2047.74,1418.81 2052.42,1420.15 2057.1,1421.33 2061.77,1422.36 2066.45,1423.26 2071.13,1424.04 2075.81,1424.71 2080.49,1425.29 2085.16,1425.79 2089.84,1426.22 2094.52,1426.58 2099.2,1426.89 2103.88,1427.15 2108.56,1427.37 2113.23,1427.55 2117.91,1427.71 2122.59,1427.84 2127.27,1427.94 2131.95,1428.03 2136.62,1428.1 2141.3,1428.16 2145.98,1428.21 2150.66,1428.25 2155.34,1428.28 2160.02,1428.31 2164.69,1428.33 2169.37,1428.35 2174.05,1428.36 2178.73,1428.37 2183.41,1428.38 2188.08,1428.39 2192.76,1428.39 2197.44,1428.4 2202.12,1428.4 2206.8,1428.4 2211.48,1428.4 2216.15,1428.4 2220.83,1428.41 2225.51,1428.41 2230.19,1428.41 2234.87,1428.41 2239.54,1428.41 2244.22,1428.41 2248.9,1428.41 2253.58,1428.41 2258.26,1428.41 2262.94,1428.41 2267.61,1428.41 2272.29,1428.41 2276.97,1428.41 2281.65,1428.41 2286.33,1428.41 2291,1428.41 "/>
<polyline clip-path="url(#clip012)" style="stroke:#e26f46; stroke-linecap:round; stroke-linejoin:round; stroke-width:4; stroke-opacity:1; fill:none" points="232.609,1428.41 237.287,1428.41 241.966,1428.41 246.644,1428.41 251.322,1428.4 256,1428.4 260.678,1428.4 265.356,1428.41 270.035,1428.41 274.713,1428.42 279.391,1428.44 284.069,1428.46 288.747,1428.49 293.425,1428.52 298.104,1428.57 302.782,1428.63 307.46,1428.71 312.138,1428.8 316.816,1428.92 321.494,1429.06 326.173,1429.22 330.851,1429.43 335.529,1429.68 340.207,1429.98 344.885,1430.34 349.564,1430.78 354.242,1431.32 358.92,1431.99 363.598,1432.82 368.276,1433.85 372.954,1435.12 377.633,1436.68 382.311,1438.57 386.989,1440.73 391.667,1443 396.345,1444.96 401.023,1445.72 405.702,1443.71 410.38,1436.55 415.058,1421.14 419.736,1394.51 424.414,1355.99 429.092,1310.23 433.771,1267.39 438.449,1236.63 443.127,1219.77 447.805,1213.62 452.483,1215.98 457.161,1228.87 461.84,1254.23 466.518,1283.65 471.196,1305.16 475.874,1314.05 480.552,1311.11 485.23,1298.84 489.909,1279.5 494.587,1254.73 499.265,1225.67 503.943,1193.2 508.621,1158.13 513.299,1121.22 517.978,1083.27 522.656,1045.08 527.334,1007.49 532.012,971.357 536.69,937.497 541.368,906.624 546.047,879.229 550.725,855.511 555.403,835.365 560.081,818.452 564.759,804.292 569.438,792.35 574.116,782.085 578.794,772.965 583.472,764.441 588.15,755.916 592.828,746.686 597.507,735.909 602.185,722.611 606.863,705.81 611.541,684.821 616.219,659.716 620.897,631.71 625.576,603.071 630.254,576.384 634.932,553.609 639.61,535.563 644.288,522.057 648.966,512.342 653.645,505.526 658.323,500.807 663.001,497.554 667.679,495.309 672.357,493.749 677.035,492.654 681.714,491.876 686.392,491.312 691.07,490.893 695.748,490.572 700.426,490.312 705.104,490.086 709.783,489.875 714.461,489.656 719.139,489.413 723.817,489.125 728.495,488.77 733.173,488.323 737.852,487.756 742.53,487.035 747.208,486.12 751.886,484.967 756.564,483.524 761.242,481.734 765.921,479.534 770.599,476.857 775.277,473.636 779.955,469.809 784.633,465.321 789.311,460.136 793.99,454.239 798.668,447.651 803.346,440.429 808.024,432.674 812.702,424.526 817.381,416.156 822.059,407.757 826.737,399.523 831.415,391.637 836.093,384.252 840.771,377.481 845.45,371.396 850.128,366.027 854.806,361.367 859.484,357.383 864.162,354.019 868.84,351.212 873.519,348.893 878.197,346.992 882.875,345.446 887.553,344.197 892.231,343.195 896.909,342.397 901.588,341.766 906.266,341.272 910.944,340.891 915.622,340.603 920.3,340.392 924.978,340.244 929.657,340.145 934.335,340.084 939.013,340.047 943.691,340.019 948.369,339.984 953.047,339.925 957.726,339.829 962.404,339.687 967.082,339.497 971.76,339.268 976.438,339.015 981.116,338.756 985.795,338.508 990.473,338.281 995.151,338.081 999.829,337.91 1004.51,337.766 1009.19,337.646 1013.86,337.546 1018.54,337.464 1023.22,337.398 1027.9,337.347 1032.58,337.311 1037.25,337.288 1041.93,337.279 1046.61,337.282 1051.29,337.298 1055.97,337.324 1060.65,337.358 1065.32,337.399 1070,337.445 1074.68,337.493 1079.36,337.544 1084.04,337.6 1088.71,337.665 1093.39,337.747 1098.07,337.857 1102.75,338.011 1107.43,338.234 1112.11,338.568 1116.78,339.077 1121.46,339.867 1126.14,341.102 1130.82,343.025 1135.5,345.95 1140.17,350.199 1144.85,355.948 1149.53,363.018 1154.21,370.774 1158.89,378.257 1163.57,384.51 1168.24,388.855 1172.92,390.993 1177.6,390.955 1182.28,389.016 1186.96,385.619 1191.63,381.298 1196.31,376.601 1200.99,372.001 1205.67,367.846 1210.35,364.334 1215.02,361.538 1219.7,359.444 1224.38,357.986 1229.06,357.071 1233.74,356.592 1238.42,356.431 1243.09,356.468 1247.77,356.577 1252.45,356.642 1257.13,356.564 1261.81,356.271 1266.48,355.724 1271.16,354.918 1275.84,353.878 1280.52,352.654 1285.2,351.31 1289.88,349.911 1294.55,348.519 1299.23,347.186 1303.91,345.949 1308.59,344.83 1313.27,343.839 1317.94,342.976 1322.62,342.234 1327.3,341.601 1331.98,341.064 1336.66,340.612 1341.34,340.231 1346.01,339.911 1350.69,339.642 1355.37,339.418 1360.05,339.231 1364.73,339.077 1369.4,338.952 1374.08,338.852 1378.76,338.776 1383.44,338.72 1388.12,338.684 1392.8,338.667 1397.47,338.668 1402.15,338.688 1406.83,338.726 1411.51,338.782 1416.19,338.859 1420.86,338.956 1425.54,339.075 1430.22,339.216 1434.9,339.381 1439.58,339.571 1444.26,339.787 1448.93,340.028 1453.61,340.296 1458.29,340.588 1462.97,340.905 1467.65,341.243 1472.32,341.602 1477,341.977 1481.68,342.365 1486.36,342.763 1491.04,343.167 1495.72,343.573 1500.39,343.977 1505.07,344.375 1509.75,344.765 1514.43,345.143 1519.11,345.509 1523.78,345.861 1528.46,346.198 1533.14,346.521 1537.82,346.831 1542.5,347.13 1547.18,347.423 1551.85,347.714 1556.53,348.009 1561.21,348.316 1565.89,348.648 1570.57,349.017 1575.24,349.443 1579.92,349.947 1584.6,350.563 1589.28,351.332 1593.96,352.31 1598.63,353.575 1603.31,355.235 1607.99,357.44 1612.67,360.399 1617.35,364.406 1622.03,369.867 1626.7,377.329 1631.38,387.495 1636.06,401.178 1640.74,419.066 1645.42,441.203 1650.09,466.559 1654.77,493.466 1659.45,520.699 1664.13,547.954 1668.81,575.487 1673.49,603.615 1678.16,632.435 1682.84,661.716 1687.52,690.891 1692.2,719.156 1696.88,745.657 1701.55,769.676 1706.23,790.76 1710.91,808.737 1715.59,823.672 1720.27,835.793 1724.95,845.413 1729.62,852.874 1734.3,858.514 1738.98,862.641 1743.66,865.528 1748.34,867.409 1753.01,868.481 1757.69,868.907 1762.37,868.823 1767.05,868.34 1771.73,867.549 1776.41,866.524 1781.08,865.327 1785.76,864.009 1790.44,862.615 1795.12,861.18 1799.8,859.738 1804.47,858.318 1809.15,856.948 1813.83,855.655 1818.51,854.466 1823.19,853.409 1827.87,852.516 1832.54,851.82 1837.22,851.363 1841.9,851.189 1846.58,851.353 1851.26,851.924 1855.93,852.981 1860.61,854.625 1865.29,856.982 1869.97,860.208 1874.65,864.497 1879.33,870.095 1884,877.306 1888.68,886.501 1893.36,898.124 1898.04,912.684 1902.72,930.711 1907.39,952.685 1912.07,978.876 1916.75,1009.13 1921.43,1042.64 1926.11,1077.84 1930.78,1112.56 1935.46,1144.59 1940.14,1172.26 1944.82,1194.89 1949.5,1212.78 1954.18,1226.93 1958.85,1238.59 1963.53,1248.84 1968.21,1258.45 1972.89,1267.83 1977.57,1277.16 1982.24,1286.48 1986.92,1295.66 1991.6,1304.42 1996.28,1312.44 2000.96,1319.74 2005.64,1326.99 2010.31,1335.44 2014.99,1346.08 2019.67,1358.53 2024.35,1371.23 2029.03,1382.69 2033.7,1392.23 2038.38,1399.84 2043.06,1405.8 2047.74,1410.46 2052.42,1414.13 2057.1,1417.04 2061.77,1419.34 2066.45,1421.18 2071.13,1422.64 2075.81,1423.8 2080.49,1424.72 2085.16,1425.45 2089.84,1426.04 2094.52,1426.5 2099.2,1426.87 2103.88,1427.17 2108.56,1427.41 2113.23,1427.6 2117.91,1427.76 2122.59,1427.88 2127.27,1427.98 2131.95,1428.07 2136.62,1428.13 2141.3,1428.19 2145.98,1428.23 2150.66,1428.27 2155.34,1428.29 2160.02,1428.32 2164.69,1428.34 2169.37,1428.35 2174.05,1428.36 2178.73,1428.37 2183.41,1428.38 2188.08,1428.39 2192.76,1428.39 2197.44,1428.4 2202.12,1428.4 2206.8,1428.4 2211.48,1428.4 2216.15,1428.4 2220.83,1428.41 2225.51,1428.41 2230.19,1428.41 2234.87,1428.41 2239.54,1428.41 2244.22,1428.41 2248.9,1428.41 2253.58,1428.41 2258.26,1428.41 2262.94,1428.41 2267.61,1428.41 2272.29,1428.41 2276.97,1428.41 2281.65,1428.41 2286.33,1428.41 2291,1428.41 "/>
<path clip-path="url(#clip010)" d="M1880.43 250.738 L2280.03 250.738 L2280.03 95.2176 L1880.43 95.2176  Z" fill="#ffffff" fill-rule="evenodd" fill-opacity="1"/>
<polyline clip-path="url(#clip010)" style="stroke:#000000; stroke-linecap:round; stroke-linejoin:round; stroke-width:4; stroke-opacity:1; fill:none" points="1880.43,250.738 2280.03,250.738 2280.03,95.2176 1880.43,95.2176 1880.43,250.738 "/>
<polyline clip-path="url(#clip010)" style="stroke:#009af9; stroke-linecap:round; stroke-linejoin:round; stroke-width:4; stroke-opacity:1; fill:none" points="1904.67,147.058 2050.13,147.058 "/>
<path clip-path="url(#clip010)" d="M2087.77 151.305 Q2082.61 151.305 2080.62 152.486 Q2078.63 153.666 2078.63 156.514 Q2078.63 158.782 2080.11 160.125 Q2081.62 161.444 2084.19 161.444 Q2087.73 161.444 2089.86 158.944 Q2092.01 156.421 2092.01 152.254 L2092.01 151.305 L2087.77 151.305 M2096.27 149.546 L2096.27 164.338 L2092.01 164.338 L2092.01 160.402 Q2090.55 162.763 2088.38 163.898 Q2086.2 165.009 2083.05 165.009 Q2079.07 165.009 2076.71 162.787 Q2074.37 160.541 2074.37 156.791 Q2074.37 152.416 2077.29 150.194 Q2080.23 147.972 2086.04 147.972 L2092.01 147.972 L2092.01 147.555 Q2092.01 144.615 2090.07 143.018 Q2088.14 141.398 2084.65 141.398 Q2082.43 141.398 2080.32 141.93 Q2078.21 142.463 2076.27 143.527 L2076.27 139.592 Q2078.61 138.69 2080.81 138.25 Q2083.01 137.787 2085.09 137.787 Q2090.71 137.787 2093.49 140.703 Q2096.27 143.62 2096.27 149.546 Z" fill="#000000" fill-rule="nonzero" fill-opacity="1" /><path clip-path="url(#clip010)" d="M2126.59 148.689 L2126.59 164.338 L2122.33 164.338 L2122.33 148.828 Q2122.33 145.148 2120.9 143.319 Q2119.46 141.49 2116.59 141.49 Q2113.14 141.49 2111.15 143.69 Q2109.16 145.889 2109.16 149.685 L2109.16 164.338 L2104.88 164.338 L2104.88 138.412 L2109.16 138.412 L2109.16 142.44 Q2110.69 140.102 2112.75 138.944 Q2114.83 137.787 2117.54 137.787 Q2122.01 137.787 2124.3 140.565 Q2126.59 143.319 2126.59 148.689 Z" fill="#000000" fill-rule="nonzero" fill-opacity="1" /><path clip-path="url(#clip010)" d="M2146.87 151.305 Q2141.71 151.305 2139.72 152.486 Q2137.73 153.666 2137.73 156.514 Q2137.73 158.782 2139.21 160.125 Q2140.71 161.444 2143.28 161.444 Q2146.82 161.444 2148.95 158.944 Q2151.11 156.421 2151.11 152.254 L2151.11 151.305 L2146.87 151.305 M2155.37 149.546 L2155.37 164.338 L2151.11 164.338 L2151.11 160.402 Q2149.65 162.763 2147.47 163.898 Q2145.3 165.009 2142.15 165.009 Q2138.17 165.009 2135.81 162.787 Q2133.47 160.541 2133.47 156.791 Q2133.47 152.416 2136.39 150.194 Q2139.32 147.972 2145.14 147.972 L2151.11 147.972 L2151.11 147.555 Q2151.11 144.615 2149.16 143.018 Q2147.24 141.398 2143.75 141.398 Q2141.52 141.398 2139.42 141.93 Q2137.31 142.463 2135.37 143.527 L2135.37 139.592 Q2137.7 138.69 2139.9 138.25 Q2142.1 137.787 2144.19 137.787 Q2149.81 137.787 2152.59 140.703 Q2155.37 143.62 2155.37 149.546 Z" fill="#000000" fill-rule="nonzero" fill-opacity="1" /><path clip-path="url(#clip010)" d="M2164.14 128.319 L2168.4 128.319 L2168.4 164.338 L2164.14 164.338 L2164.14 128.319 Z" fill="#000000" fill-rule="nonzero" fill-opacity="1" /><path clip-path="url(#clip010)" d="M2188.1 166.745 Q2186.29 171.375 2184.58 172.787 Q2182.87 174.199 2180 174.199 L2176.59 174.199 L2176.59 170.634 L2179.09 170.634 Q2180.85 170.634 2181.82 169.8 Q2182.8 168.967 2183.98 165.865 L2184.74 163.921 L2174.26 138.412 L2178.77 138.412 L2186.87 158.689 L2194.97 138.412 L2199.49 138.412 L2188.1 166.745 Z" fill="#000000" fill-rule="nonzero" fill-opacity="1" /><path clip-path="url(#clip010)" d="M2209.58 131.051 L2209.58 138.412 L2218.35 138.412 L2218.35 141.722 L2209.58 141.722 L2209.58 155.796 Q2209.58 158.967 2210.44 159.87 Q2211.32 160.773 2213.98 160.773 L2218.35 160.773 L2218.35 164.338 L2213.98 164.338 Q2209.05 164.338 2207.17 162.509 Q2205.3 160.657 2205.3 155.796 L2205.3 141.722 L2202.17 141.722 L2202.17 138.412 L2205.3 138.412 L2205.3 131.051 L2209.58 131.051 Z" fill="#000000" fill-rule="nonzero" fill-opacity="1" /><path clip-path="url(#clip010)" d="M2223.95 138.412 L2228.21 138.412 L2228.21 164.338 L2223.95 164.338 L2223.95 138.412 M2223.95 128.319 L2228.21 128.319 L2228.21 133.713 L2223.95 133.713 L2223.95 128.319 Z" fill="#000000" fill-rule="nonzero" fill-opacity="1" /><path clip-path="url(#clip010)" d="M2255.78 139.407 L2255.78 143.389 Q2253.98 142.393 2252.15 141.907 Q2250.34 141.398 2248.49 141.398 Q2244.35 141.398 2242.06 144.037 Q2239.76 146.652 2239.76 151.398 Q2239.76 156.143 2242.06 158.782 Q2244.35 161.398 2248.49 161.398 Q2250.34 161.398 2252.15 160.912 Q2253.98 160.402 2255.78 159.407 L2255.78 163.342 Q2254 164.176 2252.08 164.592 Q2250.18 165.009 2248.03 165.009 Q2242.17 165.009 2238.72 161.328 Q2235.27 157.648 2235.27 151.398 Q2235.27 145.055 2238.75 141.421 Q2242.24 137.787 2248.31 137.787 Q2250.27 137.787 2252.15 138.203 Q2254.02 138.597 2255.78 139.407 Z" fill="#000000" fill-rule="nonzero" fill-opacity="1" /><polyline clip-path="url(#clip010)" style="stroke:#e26f46; stroke-linecap:round; stroke-linejoin:round; stroke-width:4; stroke-opacity:1; fill:none" points="1904.67,198.898 2050.13,198.898 "/>
<path clip-path="url(#clip010)" d="M2078.65 212.289 L2078.65 226.039 L2074.37 226.039 L2074.37 190.252 L2078.65 190.252 L2078.65 194.187 Q2080 191.872 2082.03 190.761 Q2084.09 189.627 2086.94 189.627 Q2091.66 189.627 2094.6 193.377 Q2097.57 197.127 2097.57 203.238 Q2097.57 209.349 2094.6 213.099 Q2091.66 216.849 2086.94 216.849 Q2084.09 216.849 2082.03 215.738 Q2080 214.603 2078.65 212.289 M2093.14 203.238 Q2093.14 198.539 2091.2 195.877 Q2089.28 193.192 2085.9 193.192 Q2082.52 193.192 2080.58 195.877 Q2078.65 198.539 2078.65 203.238 Q2078.65 207.937 2080.58 210.622 Q2082.52 213.284 2085.9 213.284 Q2089.28 213.284 2091.2 210.622 Q2093.14 207.937 2093.14 203.238 Z" fill="#000000" fill-rule="nonzero" fill-opacity="1" /><path clip-path="url(#clip010)" d="M2119.65 194.233 Q2118.93 193.817 2118.08 193.631 Q2117.24 193.423 2116.22 193.423 Q2112.61 193.423 2110.67 195.784 Q2108.75 198.122 2108.75 202.52 L2108.75 216.178 L2104.46 216.178 L2104.46 190.252 L2108.75 190.252 L2108.75 194.28 Q2110.09 191.918 2112.24 190.784 Q2114.39 189.627 2117.47 189.627 Q2117.91 189.627 2118.45 189.696 Q2118.98 189.743 2119.63 189.858 L2119.65 194.233 Z" fill="#000000" fill-rule="nonzero" fill-opacity="1" /><path clip-path="url(#clip010)" d="M2145.25 202.15 L2145.25 204.233 L2125.67 204.233 Q2125.95 208.631 2128.31 210.946 Q2130.69 213.238 2134.93 213.238 Q2137.38 213.238 2139.67 212.636 Q2141.99 212.034 2144.26 210.83 L2144.26 214.858 Q2141.96 215.83 2139.56 216.34 Q2137.15 216.849 2134.67 216.849 Q2128.47 216.849 2124.83 213.238 Q2121.22 209.627 2121.22 203.469 Q2121.22 197.104 2124.65 193.377 Q2128.1 189.627 2133.93 189.627 Q2139.16 189.627 2142.2 193.006 Q2145.25 196.363 2145.25 202.15 M2140.99 200.9 Q2140.95 197.405 2139.02 195.321 Q2137.13 193.238 2133.98 193.238 Q2130.41 193.238 2128.26 195.252 Q2126.13 197.266 2125.81 200.923 L2140.99 200.9 Z" fill="#000000" fill-rule="nonzero" fill-opacity="1" /><path clip-path="url(#clip010)" d="M2169.3 194.187 L2169.3 180.159 L2173.56 180.159 L2173.56 216.178 L2169.3 216.178 L2169.3 212.289 Q2167.96 214.603 2165.9 215.738 Q2163.86 216.849 2160.99 216.849 Q2156.29 216.849 2153.33 213.099 Q2150.39 209.349 2150.39 203.238 Q2150.39 197.127 2153.33 193.377 Q2156.29 189.627 2160.99 189.627 Q2163.86 189.627 2165.9 190.761 Q2167.96 191.872 2169.3 194.187 M2154.79 203.238 Q2154.79 207.937 2156.71 210.622 Q2158.65 213.284 2162.03 213.284 Q2165.41 213.284 2167.36 210.622 Q2169.3 207.937 2169.3 203.238 Q2169.3 198.539 2167.36 195.877 Q2165.41 193.192 2162.03 193.192 Q2158.65 193.192 2156.71 195.877 Q2154.79 198.539 2154.79 203.238 Z" fill="#000000" fill-rule="nonzero" fill-opacity="1" /><path clip-path="url(#clip010)" d="M2182.33 190.252 L2186.59 190.252 L2186.59 216.178 L2182.33 216.178 L2182.33 190.252 M2182.33 180.159 L2186.59 180.159 L2186.59 185.553 L2182.33 185.553 L2182.33 180.159 Z" fill="#000000" fill-rule="nonzero" fill-opacity="1" /><path clip-path="url(#clip010)" d="M2214.16 191.247 L2214.16 195.229 Q2212.36 194.233 2210.53 193.747 Q2208.72 193.238 2206.87 193.238 Q2202.73 193.238 2200.44 195.877 Q2198.14 198.492 2198.14 203.238 Q2198.14 207.983 2200.44 210.622 Q2202.73 213.238 2206.87 213.238 Q2208.72 213.238 2210.53 212.752 Q2212.36 212.242 2214.16 211.247 L2214.16 215.182 Q2212.38 216.016 2210.46 216.432 Q2208.56 216.849 2206.41 216.849 Q2200.55 216.849 2197.1 213.168 Q2193.65 209.488 2193.65 203.238 Q2193.65 196.895 2197.13 193.261 Q2200.62 189.627 2206.69 189.627 Q2208.65 189.627 2210.53 190.043 Q2212.4 190.437 2214.16 191.247 Z" fill="#000000" fill-rule="nonzero" fill-opacity="1" /><path clip-path="url(#clip010)" d="M2225.78 182.891 L2225.78 190.252 L2234.56 190.252 L2234.56 193.562 L2225.78 193.562 L2225.78 207.636 Q2225.78 210.807 2226.64 211.71 Q2227.52 212.613 2230.18 212.613 L2234.56 212.613 L2234.56 216.178 L2230.18 216.178 Q2225.25 216.178 2223.38 214.349 Q2221.5 212.497 2221.5 207.636 L2221.5 193.562 L2218.38 193.562 L2218.38 190.252 L2221.5 190.252 L2221.5 182.891 L2225.78 182.891 Z" fill="#000000" fill-rule="nonzero" fill-opacity="1" /></svg>
