<?xml version="1.0" encoding="utf-8"?>
<svg xmlns="http://www.w3.org/2000/svg" xmlns:xlink="http://www.w3.org/1999/xlink" width="600" height="400" viewBox="0 0 2400 1600">
<defs>
  <clipPath id="clip710">
    <rect x="0" y="0" width="2400" height="1600"/>
  </clipPath>
</defs>
<path clip-path="url(#clip710)" d="M0 1600 L2400 1600 L2400 0 L0 0  Z" fill="#ffffff" fill-rule="evenodd" fill-opacity="1"/>
<defs>
  <clipPath id="clip711">
    <rect x="480" y="0" width="1681" height="1600"/>
  </clipPath>
</defs>
<path clip-path="url(#clip710)" d="M223.103 1486.45 L2352.76 1486.45 L2352.76 47.2441 L223.103 47.2441  Z" fill="#ffffff" fill-rule="evenodd" fill-opacity="1"/>
<defs>
  <clipPath id="clip712">
    <rect x="223" y="47" width="2131" height="1440"/>
  </clipPath>
</defs>
<polyline clip-path="url(#clip712)" style="stroke:#000000; stroke-linecap:round; stroke-linejoin:round; stroke-width:2; stroke-opacity:0.1; fill:none" points="283.376,1486.45 283.376,47.2441 "/>
<polyline clip-path="url(#clip712)" style="stroke:#000000; stroke-linecap:round; stroke-linejoin:round; stroke-width:2; stroke-opacity:0.1; fill:none" points="785.652,1486.45 785.652,47.2441 "/>
<polyline clip-path="url(#clip712)" style="stroke:#000000; stroke-linecap:round; stroke-linejoin:round; stroke-width:2; stroke-opacity:0.1; fill:none" points="1287.93,1486.45 1287.93,47.2441 "/>
<polyline clip-path="url(#clip712)" style="stroke:#000000; stroke-linecap:round; stroke-linejoin:round; stroke-width:2; stroke-opacity:0.1; fill:none" points="1790.21,1486.45 1790.21,47.2441 "/>
<polyline clip-path="url(#clip712)" style="stroke:#000000; stroke-linecap:round; stroke-linejoin:round; stroke-width:2; stroke-opacity:0.1; fill:none" points="2292.48,1486.45 2292.48,47.2441 "/>
<polyline clip-path="url(#clip712)" style="stroke:#000000; stroke-linecap:round; stroke-linejoin:round; stroke-width:2; stroke-opacity:0.1; fill:none" points="223.103,1440.33 2352.76,1440.33 "/>
<polyline clip-path="url(#clip712)" style="stroke:#000000; stroke-linecap:round; stroke-linejoin:round; stroke-width:2; stroke-opacity:0.1; fill:none" points="223.103,1220.2 2352.76,1220.2 "/>
<polyline clip-path="url(#clip712)" style="stroke:#000000; stroke-linecap:round; stroke-linejoin:round; stroke-width:2; stroke-opacity:0.1; fill:none" points="223.103,1000.06 2352.76,1000.06 "/>
<polyline clip-path="url(#clip712)" style="stroke:#000000; stroke-linecap:round; stroke-linejoin:round; stroke-width:2; stroke-opacity:0.1; fill:none" points="223.103,779.925 2352.76,779.925 "/>
<polyline clip-path="url(#clip712)" style="stroke:#000000; stroke-linecap:round; stroke-linejoin:round; stroke-width:2; stroke-opacity:0.1; fill:none" points="223.103,559.789 2352.76,559.789 "/>
<polyline clip-path="url(#clip712)" style="stroke:#000000; stroke-linecap:round; stroke-linejoin:round; stroke-width:2; stroke-opacity:0.1; fill:none" points="223.103,339.653 2352.76,339.653 "/>
<polyline clip-path="url(#clip712)" style="stroke:#000000; stroke-linecap:round; stroke-linejoin:round; stroke-width:2; stroke-opacity:0.1; fill:none" points="223.103,119.517 2352.76,119.517 "/>
<polyline clip-path="url(#clip710)" style="stroke:#000000; stroke-linecap:round; stroke-linejoin:round; stroke-width:4; stroke-opacity:1; fill:none" points="223.103,1486.45 2352.76,1486.45 "/>
<polyline clip-path="url(#clip710)" style="stroke:#000000; stroke-linecap:round; stroke-linejoin:round; stroke-width:4; stroke-opacity:1; fill:none" points="283.376,1486.45 283.376,1467.55 "/>
<polyline clip-path="url(#clip710)" style="stroke:#000000; stroke-linecap:round; stroke-linejoin:round; stroke-width:4; stroke-opacity:1; fill:none" points="785.652,1486.45 785.652,1467.55 "/>
<polyline clip-path="url(#clip710)" style="stroke:#000000; stroke-linecap:round; stroke-linejoin:round; stroke-width:4; stroke-opacity:1; fill:none" points="1287.93,1486.45 1287.93,1467.55 "/>
<polyline clip-path="url(#clip710)" style="stroke:#000000; stroke-linecap:round; stroke-linejoin:round; stroke-width:4; stroke-opacity:1; fill:none" points="1790.21,1486.45 1790.21,1467.55 "/>
<polyline clip-path="url(#clip710)" style="stroke:#000000; stroke-linecap:round; stroke-linejoin:round; stroke-width:4; stroke-opacity:1; fill:none" points="2292.48,1486.45 2292.48,1467.55 "/>
<path clip-path="url(#clip710)" d="M260.76 1517.37 Q257.149 1517.37 255.32 1520.93 Q253.515 1524.47 253.515 1531.6 Q253.515 1538.71 255.32 1542.27 Q257.149 1545.82 260.76 1545.82 Q264.394 1545.82 266.2 1542.27 Q268.029 1538.71 268.029 1531.6 Q268.029 1524.47 266.2 1520.93 Q264.394 1517.37 260.76 1517.37 M260.76 1513.66 Q266.57 1513.66 269.626 1518.27 Q272.704 1522.85 272.704 1531.6 Q272.704 1540.33 269.626 1544.94 Q266.57 1549.52 260.76 1549.52 Q254.95 1549.52 251.871 1544.94 Q248.816 1540.33 248.816 1531.6 Q248.816 1522.85 251.871 1518.27 Q254.95 1513.66 260.76 1513.66 Z" fill="#000000" fill-rule="nonzero" fill-opacity="1" /><path clip-path="url(#clip710)" d="M280.922 1542.97 L285.806 1542.97 L285.806 1548.85 L280.922 1548.85 L280.922 1542.97 Z" fill="#000000" fill-rule="nonzero" fill-opacity="1" /><path clip-path="url(#clip710)" d="M305.991 1517.37 Q302.38 1517.37 300.552 1520.93 Q298.746 1524.47 298.746 1531.6 Q298.746 1538.71 300.552 1542.27 Q302.38 1545.82 305.991 1545.82 Q309.626 1545.82 311.431 1542.27 Q313.26 1538.71 313.26 1531.6 Q313.26 1524.47 311.431 1520.93 Q309.626 1517.37 305.991 1517.37 M305.991 1513.66 Q311.801 1513.66 314.857 1518.27 Q317.936 1522.85 317.936 1531.6 Q317.936 1540.33 314.857 1544.94 Q311.801 1549.52 305.991 1549.52 Q300.181 1549.52 297.102 1544.94 Q294.047 1540.33 294.047 1531.6 Q294.047 1522.85 297.102 1518.27 Q300.181 1513.66 305.991 1513.66 Z" fill="#000000" fill-rule="nonzero" fill-opacity="1" /><path clip-path="url(#clip710)" d="M763.535 1517.37 Q759.923 1517.37 758.095 1520.93 Q756.289 1524.47 756.289 1531.6 Q756.289 1538.71 758.095 1542.27 Q759.923 1545.82 763.535 1545.82 Q767.169 1545.82 768.974 1542.27 Q770.803 1538.71 770.803 1531.6 Q770.803 1524.47 768.974 1520.93 Q767.169 1517.37 763.535 1517.37 M763.535 1513.66 Q769.345 1513.66 772.4 1518.27 Q775.479 1522.85 775.479 1531.6 Q775.479 1540.33 772.4 1544.94 Q769.345 1549.52 763.535 1549.52 Q757.724 1549.52 754.646 1544.94 Q751.59 1540.33 751.59 1531.6 Q751.59 1522.85 754.646 1518.27 Q757.724 1513.66 763.535 1513.66 Z" fill="#000000" fill-rule="nonzero" fill-opacity="1" /><path clip-path="url(#clip710)" d="M783.696 1542.97 L788.581 1542.97 L788.581 1548.85 L783.696 1548.85 L783.696 1542.97 Z" fill="#000000" fill-rule="nonzero" fill-opacity="1" /><path clip-path="url(#clip710)" d="M798.812 1514.29 L817.168 1514.29 L817.168 1518.22 L803.094 1518.22 L803.094 1526.7 Q804.113 1526.35 805.132 1526.19 Q806.15 1526 807.169 1526 Q812.956 1526 816.335 1529.17 Q819.715 1532.34 819.715 1537.76 Q819.715 1543.34 816.243 1546.44 Q812.77 1549.52 806.451 1549.52 Q804.275 1549.52 802.007 1549.15 Q799.761 1548.78 797.354 1548.04 L797.354 1543.34 Q799.437 1544.47 801.659 1545.03 Q803.882 1545.58 806.358 1545.58 Q810.363 1545.58 812.701 1543.48 Q815.039 1541.37 815.039 1537.76 Q815.039 1534.15 812.701 1532.04 Q810.363 1529.94 806.358 1529.94 Q804.483 1529.94 802.608 1530.35 Q800.757 1530.77 798.812 1531.65 L798.812 1514.29 Z" fill="#000000" fill-rule="nonzero" fill-opacity="1" /><path clip-path="url(#clip710)" d="M1255.08 1544.91 L1262.72 1544.91 L1262.72 1518.55 L1254.41 1520.21 L1254.41 1515.95 L1262.67 1514.29 L1267.35 1514.29 L1267.35 1544.91 L1274.99 1544.91 L1274.99 1548.85 L1255.08 1548.85 L1255.08 1544.91 Z" fill="#000000" fill-rule="nonzero" fill-opacity="1" /><path clip-path="url(#clip710)" d="M1284.43 1542.97 L1289.32 1542.97 L1289.32 1548.85 L1284.43 1548.85 L1284.43 1542.97 Z" fill="#000000" fill-rule="nonzero" fill-opacity="1" /><path clip-path="url(#clip710)" d="M1309.5 1517.37 Q1305.89 1517.37 1304.06 1520.93 Q1302.26 1524.47 1302.26 1531.6 Q1302.26 1538.71 1304.06 1542.27 Q1305.89 1545.82 1309.5 1545.82 Q1313.14 1545.82 1314.94 1542.27 Q1316.77 1538.71 1316.77 1531.6 Q1316.77 1524.47 1314.94 1520.93 Q1313.14 1517.37 1309.5 1517.37 M1309.5 1513.66 Q1315.31 1513.66 1318.37 1518.27 Q1321.45 1522.85 1321.45 1531.6 Q1321.45 1540.33 1318.37 1544.94 Q1315.31 1549.52 1309.5 1549.52 Q1303.69 1549.52 1300.61 1544.94 Q1297.56 1540.33 1297.56 1531.6 Q1297.56 1522.85 1300.61 1518.27 Q1303.69 1513.66 1309.5 1513.66 Z" fill="#000000" fill-rule="nonzero" fill-opacity="1" /><path clip-path="url(#clip710)" d="M1757.86 1544.91 L1765.5 1544.91 L1765.5 1518.55 L1757.19 1520.21 L1757.19 1515.95 L1765.45 1514.29 L1770.13 1514.29 L1770.13 1544.91 L1777.76 1544.91 L1777.76 1548.85 L1757.86 1548.85 L1757.86 1544.91 Z" fill="#000000" fill-rule="nonzero" fill-opacity="1" /><path clip-path="url(#clip710)" d="M1787.21 1542.97 L1792.09 1542.97 L1792.09 1548.85 L1787.21 1548.85 L1787.21 1542.97 Z" fill="#000000" fill-rule="nonzero" fill-opacity="1" /><path clip-path="url(#clip710)" d="M1802.32 1514.29 L1820.68 1514.29 L1820.68 1518.22 L1806.61 1518.22 L1806.61 1526.7 Q1807.62 1526.35 1808.64 1526.19 Q1809.66 1526 1810.68 1526 Q1816.47 1526 1819.85 1529.17 Q1823.23 1532.34 1823.23 1537.76 Q1823.23 1543.34 1819.75 1546.44 Q1816.28 1549.52 1809.96 1549.52 Q1807.79 1549.52 1805.52 1549.15 Q1803.27 1548.78 1800.87 1548.04 L1800.87 1543.34 Q1802.95 1544.47 1805.17 1545.03 Q1807.39 1545.58 1809.87 1545.58 Q1813.87 1545.58 1816.21 1543.48 Q1818.55 1541.37 1818.55 1537.76 Q1818.55 1534.15 1816.21 1532.04 Q1813.87 1529.94 1809.87 1529.94 Q1808 1529.94 1806.12 1530.35 Q1804.27 1530.77 1802.32 1531.65 L1802.32 1514.29 Z" fill="#000000" fill-rule="nonzero" fill-opacity="1" /><path clip-path="url(#clip710)" d="M2263.72 1544.91 L2280.04 1544.91 L2280.04 1548.85 L2258.1 1548.85 L2258.1 1544.91 Q2260.76 1542.16 2265.34 1537.53 Q2269.95 1532.88 2271.13 1531.53 Q2273.37 1529.01 2274.25 1527.27 Q2275.16 1525.51 2275.16 1523.82 Q2275.16 1521.07 2273.21 1519.33 Q2271.29 1517.6 2268.19 1517.6 Q2265.99 1517.6 2263.54 1518.36 Q2261.11 1519.13 2258.33 1520.68 L2258.33 1515.95 Q2261.15 1514.82 2263.61 1514.24 Q2266.06 1513.66 2268.1 1513.66 Q2273.47 1513.66 2276.66 1516.35 Q2279.86 1519.03 2279.86 1523.52 Q2279.86 1525.65 2279.05 1527.57 Q2278.26 1529.47 2276.15 1532.07 Q2275.57 1532.74 2272.47 1535.95 Q2269.37 1539.15 2263.72 1544.91 Z" fill="#000000" fill-rule="nonzero" fill-opacity="1" /><path clip-path="url(#clip710)" d="M2289.86 1542.97 L2294.74 1542.97 L2294.74 1548.85 L2289.86 1548.85 L2289.86 1542.97 Z" fill="#000000" fill-rule="nonzero" fill-opacity="1" /><path clip-path="url(#clip710)" d="M2314.92 1517.37 Q2311.31 1517.37 2309.48 1520.93 Q2307.68 1524.47 2307.68 1531.6 Q2307.68 1538.71 2309.48 1542.27 Q2311.31 1545.82 2314.92 1545.82 Q2318.56 1545.82 2320.36 1542.27 Q2322.19 1538.71 2322.19 1531.6 Q2322.19 1524.47 2320.36 1520.93 Q2318.56 1517.37 2314.92 1517.37 M2314.92 1513.66 Q2320.73 1513.66 2323.79 1518.27 Q2326.87 1522.85 2326.87 1531.6 Q2326.87 1540.33 2323.79 1544.94 Q2320.73 1549.52 2314.92 1549.52 Q2309.11 1549.52 2306.04 1544.94 Q2302.98 1540.33 2302.98 1531.6 Q2302.98 1522.85 2306.04 1518.27 Q2309.11 1513.66 2314.92 1513.66 Z" fill="#000000" fill-rule="nonzero" fill-opacity="1" /><polyline clip-path="url(#clip710)" style="stroke:#000000; stroke-linecap:round; stroke-linejoin:round; stroke-width:4; stroke-opacity:1; fill:none" points="223.103,1486.45 223.103,47.2441 "/>
<polyline clip-path="url(#clip710)" style="stroke:#000000; stroke-linecap:round; stroke-linejoin:round; stroke-width:4; stroke-opacity:1; fill:none" points="223.103,1440.33 242,1440.33 "/>
<polyline clip-path="url(#clip710)" style="stroke:#000000; stroke-linecap:round; stroke-linejoin:round; stroke-width:4; stroke-opacity:1; fill:none" points="223.103,1220.2 242,1220.2 "/>
<polyline clip-path="url(#clip710)" style="stroke:#000000; stroke-linecap:round; stroke-linejoin:round; stroke-width:4; stroke-opacity:1; fill:none" points="223.103,1000.06 242,1000.06 "/>
<polyline clip-path="url(#clip710)" style="stroke:#000000; stroke-linecap:round; stroke-linejoin:round; stroke-width:4; stroke-opacity:1; fill:none" points="223.103,779.925 242,779.925 "/>
<polyline clip-path="url(#clip710)" style="stroke:#000000; stroke-linecap:round; stroke-linejoin:round; stroke-width:4; stroke-opacity:1; fill:none" points="223.103,559.789 242,559.789 "/>
<polyline clip-path="url(#clip710)" style="stroke:#000000; stroke-linecap:round; stroke-linejoin:round; stroke-width:4; stroke-opacity:1; fill:none" points="223.103,339.653 242,339.653 "/>
<polyline clip-path="url(#clip710)" style="stroke:#000000; stroke-linecap:round; stroke-linejoin:round; stroke-width:4; stroke-opacity:1; fill:none" points="223.103,119.517 242,119.517 "/>
<path clip-path="url(#clip710)" d="M50.9921 1440.78 L80.6679 1440.78 L80.6679 1444.72 L50.9921 1444.72 L50.9921 1440.78 Z" fill="#000000" fill-rule="nonzero" fill-opacity="1" /><path clip-path="url(#clip710)" d="M100.76 1426.13 Q97.1493 1426.13 95.3206 1429.7 Q93.515 1433.24 93.515 1440.37 Q93.515 1447.47 95.3206 1451.04 Q97.1493 1454.58 100.76 1454.58 Q104.395 1454.58 106.2 1451.04 Q108.029 1447.47 108.029 1440.37 Q108.029 1433.24 106.2 1429.7 Q104.395 1426.13 100.76 1426.13 M100.76 1422.43 Q106.571 1422.43 109.626 1427.03 Q112.705 1431.62 112.705 1440.37 Q112.705 1449.09 109.626 1453.7 Q106.571 1458.28 100.76 1458.28 Q94.9502 1458.28 91.8715 1453.7 Q88.816 1449.09 88.816 1440.37 Q88.816 1431.62 91.8715 1427.03 Q94.9502 1422.43 100.76 1422.43 Z" fill="#000000" fill-rule="nonzero" fill-opacity="1" /><path clip-path="url(#clip710)" d="M120.922 1451.73 L125.807 1451.73 L125.807 1457.61 L120.922 1457.61 L120.922 1451.73 Z" fill="#000000" fill-rule="nonzero" fill-opacity="1" /><path clip-path="url(#clip710)" d="M145.992 1426.13 Q142.381 1426.13 140.552 1429.7 Q138.746 1433.24 138.746 1440.37 Q138.746 1447.47 140.552 1451.04 Q142.381 1454.58 145.992 1454.58 Q149.626 1454.58 151.431 1451.04 Q153.26 1447.47 153.26 1440.37 Q153.26 1433.24 151.431 1429.7 Q149.626 1426.13 145.992 1426.13 M145.992 1422.43 Q151.802 1422.43 154.857 1427.03 Q157.936 1431.62 157.936 1440.37 Q157.936 1449.09 154.857 1453.7 Q151.802 1458.28 145.992 1458.28 Q140.181 1458.28 137.103 1453.7 Q134.047 1449.09 134.047 1440.37 Q134.047 1431.62 137.103 1427.03 Q140.181 1422.43 145.992 1422.43 Z" fill="#000000" fill-rule="nonzero" fill-opacity="1" /><path clip-path="url(#clip710)" d="M166.2 1423.05 L184.556 1423.05 L184.556 1426.99 L170.482 1426.99 L170.482 1435.46 Q171.501 1435.11 172.519 1434.95 Q173.538 1434.77 174.556 1434.77 Q180.343 1434.77 183.723 1437.94 Q187.103 1441.11 187.103 1446.53 Q187.103 1452.1 183.63 1455.21 Q180.158 1458.28 173.839 1458.28 Q171.663 1458.28 169.394 1457.91 Q167.149 1457.54 164.742 1456.8 L164.742 1452.1 Q166.825 1453.24 169.047 1453.79 Q171.269 1454.35 173.746 1454.35 Q177.751 1454.35 180.089 1452.24 Q182.427 1450.14 182.427 1446.53 Q182.427 1442.91 180.089 1440.81 Q177.751 1438.7 173.746 1438.7 Q171.871 1438.7 169.996 1439.12 Q168.144 1439.53 166.2 1440.41 L166.2 1423.05 Z" fill="#000000" fill-rule="nonzero" fill-opacity="1" /><path clip-path="url(#clip710)" d="M99.765 1206 Q96.1539 1206 94.3252 1209.56 Q92.5197 1213.1 92.5197 1220.23 Q92.5197 1227.34 94.3252 1230.9 Q96.1539 1234.44 99.765 1234.44 Q103.399 1234.44 105.205 1230.9 Q107.033 1227.34 107.033 1220.23 Q107.033 1213.1 105.205 1209.56 Q103.399 1206 99.765 1206 M99.765 1202.29 Q105.575 1202.29 108.631 1206.9 Q111.709 1211.48 111.709 1220.23 Q111.709 1228.96 108.631 1233.57 Q105.575 1238.15 99.765 1238.15 Q93.9549 1238.15 90.8762 1233.57 Q87.8206 1228.96 87.8206 1220.23 Q87.8206 1211.48 90.8762 1206.9 Q93.9549 1202.29 99.765 1202.29 Z" fill="#000000" fill-rule="nonzero" fill-opacity="1" /><path clip-path="url(#clip710)" d="M119.927 1231.6 L124.811 1231.6 L124.811 1237.48 L119.927 1237.48 L119.927 1231.6 Z" fill="#000000" fill-rule="nonzero" fill-opacity="1" /><path clip-path="url(#clip710)" d="M144.996 1206 Q141.385 1206 139.556 1209.56 Q137.751 1213.1 137.751 1220.23 Q137.751 1227.34 139.556 1230.9 Q141.385 1234.44 144.996 1234.44 Q148.63 1234.44 150.436 1230.9 Q152.265 1227.34 152.265 1220.23 Q152.265 1213.1 150.436 1209.56 Q148.63 1206 144.996 1206 M144.996 1202.29 Q150.806 1202.29 153.862 1206.9 Q156.941 1211.48 156.941 1220.23 Q156.941 1228.96 153.862 1233.57 Q150.806 1238.15 144.996 1238.15 Q139.186 1238.15 136.107 1233.57 Q133.052 1228.96 133.052 1220.23 Q133.052 1211.48 136.107 1206.9 Q139.186 1202.29 144.996 1202.29 Z" fill="#000000" fill-rule="nonzero" fill-opacity="1" /><path clip-path="url(#clip710)" d="M175.158 1206 Q171.547 1206 169.718 1209.56 Q167.913 1213.1 167.913 1220.23 Q167.913 1227.34 169.718 1230.9 Q171.547 1234.44 175.158 1234.44 Q178.792 1234.44 180.598 1230.9 Q182.427 1227.34 182.427 1220.23 Q182.427 1213.1 180.598 1209.56 Q178.792 1206 175.158 1206 M175.158 1202.29 Q180.968 1202.29 184.024 1206.9 Q187.103 1211.48 187.103 1220.23 Q187.103 1228.96 184.024 1233.57 Q180.968 1238.15 175.158 1238.15 Q169.348 1238.15 166.269 1233.57 Q163.214 1228.96 163.214 1220.23 Q163.214 1211.48 166.269 1206.9 Q169.348 1202.29 175.158 1202.29 Z" fill="#000000" fill-rule="nonzero" fill-opacity="1" /><path clip-path="url(#clip710)" d="M100.76 985.86 Q97.1493 985.86 95.3206 989.425 Q93.515 992.966 93.515 1000.1 Q93.515 1007.2 95.3206 1010.77 Q97.1493 1014.31 100.76 1014.31 Q104.395 1014.31 106.2 1010.77 Q108.029 1007.2 108.029 1000.1 Q108.029 992.966 106.2 989.425 Q104.395 985.86 100.76 985.86 M100.76 982.156 Q106.571 982.156 109.626 986.763 Q112.705 991.346 112.705 1000.1 Q112.705 1008.82 109.626 1013.43 Q106.571 1018.01 100.76 1018.01 Q94.9502 1018.01 91.8715 1013.43 Q88.816 1008.82 88.816 1000.1 Q88.816 991.346 91.8715 986.763 Q94.9502 982.156 100.76 982.156 Z" fill="#000000" fill-rule="nonzero" fill-opacity="1" /><path clip-path="url(#clip710)" d="M120.922 1011.46 L125.807 1011.46 L125.807 1017.34 L120.922 1017.34 L120.922 1011.46 Z" fill="#000000" fill-rule="nonzero" fill-opacity="1" /><path clip-path="url(#clip710)" d="M145.992 985.86 Q142.381 985.86 140.552 989.425 Q138.746 992.966 138.746 1000.1 Q138.746 1007.2 140.552 1010.77 Q142.381 1014.31 145.992 1014.31 Q149.626 1014.31 151.431 1010.77 Q153.26 1007.2 153.26 1000.1 Q153.26 992.966 151.431 989.425 Q149.626 985.86 145.992 985.86 M145.992 982.156 Q151.802 982.156 154.857 986.763 Q157.936 991.346 157.936 1000.1 Q157.936 1008.82 154.857 1013.43 Q151.802 1018.01 145.992 1018.01 Q140.181 1018.01 137.103 1013.43 Q134.047 1008.82 134.047 1000.1 Q134.047 991.346 137.103 986.763 Q140.181 982.156 145.992 982.156 Z" fill="#000000" fill-rule="nonzero" fill-opacity="1" /><path clip-path="url(#clip710)" d="M166.2 982.781 L184.556 982.781 L184.556 986.717 L170.482 986.717 L170.482 995.189 Q171.501 994.841 172.519 994.679 Q173.538 994.494 174.556 994.494 Q180.343 994.494 183.723 997.666 Q187.103 1000.84 187.103 1006.25 Q187.103 1011.83 183.63 1014.93 Q180.158 1018.01 173.839 1018.01 Q171.663 1018.01 169.394 1017.64 Q167.149 1017.27 164.742 1016.53 L164.742 1011.83 Q166.825 1012.97 169.047 1013.52 Q171.269 1014.08 173.746 1014.08 Q177.751 1014.08 180.089 1011.97 Q182.427 1009.86 182.427 1006.25 Q182.427 1002.64 180.089 1000.54 Q177.751 998.429 173.746 998.429 Q171.871 998.429 169.996 998.846 Q168.144 999.263 166.2 1000.14 L166.2 982.781 Z" fill="#000000" fill-rule="nonzero" fill-opacity="1" /><path clip-path="url(#clip710)" d="M99.765 765.724 Q96.1539 765.724 94.3252 769.289 Q92.5197 772.831 92.5197 779.96 Q92.5197 787.067 94.3252 790.631 Q96.1539 794.173 99.765 794.173 Q103.399 794.173 105.205 790.631 Q107.033 787.067 107.033 779.96 Q107.033 772.831 105.205 769.289 Q103.399 765.724 99.765 765.724 M99.765 762.02 Q105.575 762.02 108.631 766.627 Q111.709 771.21 111.709 779.96 Q111.709 788.687 108.631 793.293 Q105.575 797.877 99.765 797.877 Q93.9549 797.877 90.8762 793.293 Q87.8206 788.687 87.8206 779.96 Q87.8206 771.21 90.8762 766.627 Q93.9549 762.02 99.765 762.02 Z" fill="#000000" fill-rule="nonzero" fill-opacity="1" /><path clip-path="url(#clip710)" d="M119.927 791.326 L124.811 791.326 L124.811 797.205 L119.927 797.205 L119.927 791.326 Z" fill="#000000" fill-rule="nonzero" fill-opacity="1" /><path clip-path="url(#clip710)" d="M135.806 793.27 L143.445 793.27 L143.445 766.905 L135.135 768.571 L135.135 764.312 L143.399 762.645 L148.075 762.645 L148.075 793.27 L155.714 793.27 L155.714 797.205 L135.806 797.205 L135.806 793.27 Z" fill="#000000" fill-rule="nonzero" fill-opacity="1" /><path clip-path="url(#clip710)" d="M175.158 765.724 Q171.547 765.724 169.718 769.289 Q167.913 772.831 167.913 779.96 Q167.913 787.067 169.718 790.631 Q171.547 794.173 175.158 794.173 Q178.792 794.173 180.598 790.631 Q182.427 787.067 182.427 779.96 Q182.427 772.831 180.598 769.289 Q178.792 765.724 175.158 765.724 M175.158 762.02 Q180.968 762.02 184.024 766.627 Q187.103 771.21 187.103 779.96 Q187.103 788.687 184.024 793.293 Q180.968 797.877 175.158 797.877 Q169.348 797.877 166.269 793.293 Q163.214 788.687 163.214 779.96 Q163.214 771.21 166.269 766.627 Q169.348 762.02 175.158 762.02 Z" fill="#000000" fill-rule="nonzero" fill-opacity="1" /><path clip-path="url(#clip710)" d="M100.76 545.588 Q97.1493 545.588 95.3206 549.153 Q93.515 552.695 93.515 559.824 Q93.515 566.931 95.3206 570.495 Q97.1493 574.037 100.76 574.037 Q104.395 574.037 106.2 570.495 Q108.029 566.931 108.029 559.824 Q108.029 552.695 106.2 549.153 Q104.395 545.588 100.76 545.588 M100.76 541.884 Q106.571 541.884 109.626 546.491 Q112.705 551.074 112.705 559.824 Q112.705 568.551 109.626 573.157 Q106.571 577.741 100.76 577.741 Q94.9502 577.741 91.8715 573.157 Q88.816 568.551 88.816 559.824 Q88.816 551.074 91.8715 546.491 Q94.9502 541.884 100.76 541.884 Z" fill="#000000" fill-rule="nonzero" fill-opacity="1" /><path clip-path="url(#clip710)" d="M120.922 571.19 L125.807 571.19 L125.807 577.069 L120.922 577.069 L120.922 571.19 Z" fill="#000000" fill-rule="nonzero" fill-opacity="1" /><path clip-path="url(#clip710)" d="M136.802 573.134 L144.441 573.134 L144.441 546.769 L136.131 548.435 L136.131 544.176 L144.394 542.509 L149.07 542.509 L149.07 573.134 L156.709 573.134 L156.709 577.069 L136.802 577.069 L136.802 573.134 Z" fill="#000000" fill-rule="nonzero" fill-opacity="1" /><path clip-path="url(#clip710)" d="M166.2 542.509 L184.556 542.509 L184.556 546.445 L170.482 546.445 L170.482 554.917 Q171.501 554.57 172.519 554.407 Q173.538 554.222 174.556 554.222 Q180.343 554.222 183.723 557.394 Q187.103 560.565 187.103 565.981 Q187.103 571.56 183.63 574.662 Q180.158 577.741 173.839 577.741 Q171.663 577.741 169.394 577.37 Q167.149 577 164.742 576.259 L164.742 571.56 Q166.825 572.694 169.047 573.25 Q171.269 573.806 173.746 573.806 Q177.751 573.806 180.089 571.699 Q182.427 569.593 182.427 565.981 Q182.427 562.37 180.089 560.264 Q177.751 558.157 173.746 558.157 Q171.871 558.157 169.996 558.574 Q168.144 558.991 166.2 559.87 L166.2 542.509 Z" fill="#000000" fill-rule="nonzero" fill-opacity="1" /><path clip-path="url(#clip710)" d="M99.765 325.452 Q96.1539 325.452 94.3252 329.017 Q92.5197 332.559 92.5197 339.688 Q92.5197 346.795 94.3252 350.359 Q96.1539 353.901 99.765 353.901 Q103.399 353.901 105.205 350.359 Q107.033 346.795 107.033 339.688 Q107.033 332.559 105.205 329.017 Q103.399 325.452 99.765 325.452 M99.765 321.748 Q105.575 321.748 108.631 326.355 Q111.709 330.938 111.709 339.688 Q111.709 348.415 108.631 353.021 Q105.575 357.605 99.765 357.605 Q93.9549 357.605 90.8762 353.021 Q87.8206 348.415 87.8206 339.688 Q87.8206 330.938 90.8762 326.355 Q93.9549 321.748 99.765 321.748 Z" fill="#000000" fill-rule="nonzero" fill-opacity="1" /><path clip-path="url(#clip710)" d="M119.927 351.054 L124.811 351.054 L124.811 356.933 L119.927 356.933 L119.927 351.054 Z" fill="#000000" fill-rule="nonzero" fill-opacity="1" /><path clip-path="url(#clip710)" d="M139.024 352.998 L155.343 352.998 L155.343 356.933 L133.399 356.933 L133.399 352.998 Q136.061 350.244 140.644 345.614 Q145.251 340.961 146.431 339.619 Q148.677 337.096 149.556 335.359 Q150.459 333.6 150.459 331.91 Q150.459 329.156 148.515 327.42 Q146.593 325.684 143.492 325.684 Q141.293 325.684 138.839 326.447 Q136.408 327.211 133.631 328.762 L133.631 324.04 Q136.455 322.906 138.908 322.327 Q141.362 321.748 143.399 321.748 Q148.769 321.748 151.964 324.434 Q155.158 327.119 155.158 331.609 Q155.158 333.739 154.348 335.66 Q153.561 337.559 151.455 340.151 Q150.876 340.822 147.774 344.04 Q144.672 347.234 139.024 352.998 Z" fill="#000000" fill-rule="nonzero" fill-opacity="1" /><path clip-path="url(#clip710)" d="M175.158 325.452 Q171.547 325.452 169.718 329.017 Q167.913 332.559 167.913 339.688 Q167.913 346.795 169.718 350.359 Q171.547 353.901 175.158 353.901 Q178.792 353.901 180.598 350.359 Q182.427 346.795 182.427 339.688 Q182.427 332.559 180.598 329.017 Q178.792 325.452 175.158 325.452 M175.158 321.748 Q180.968 321.748 184.024 326.355 Q187.103 330.938 187.103 339.688 Q187.103 348.415 184.024 353.021 Q180.968 357.605 175.158 357.605 Q169.348 357.605 166.269 353.021 Q163.214 348.415 163.214 339.688 Q163.214 330.938 166.269 326.355 Q169.348 321.748 175.158 321.748 Z" fill="#000000" fill-rule="nonzero" fill-opacity="1" /><path clip-path="url(#clip710)" d="M100.76 105.316 Q97.1493 105.316 95.3206 108.881 Q93.515 112.423 93.515 119.552 Q93.515 126.659 95.3206 130.223 Q97.1493 133.765 100.76 133.765 Q104.395 133.765 106.2 130.223 Q108.029 126.659 108.029 119.552 Q108.029 112.423 106.2 108.881 Q104.395 105.316 100.76 105.316 M100.76 101.612 Q106.571 101.612 109.626 106.219 Q112.705 110.802 112.705 119.552 Q112.705 128.279 109.626 132.885 Q106.571 137.469 100.76 137.469 Q94.9502 137.469 91.8715 132.885 Q88.816 128.279 88.816 119.552 Q88.816 110.802 91.8715 106.219 Q94.9502 101.612 100.76 101.612 Z" fill="#000000" fill-rule="nonzero" fill-opacity="1" /><path clip-path="url(#clip710)" d="M120.922 130.918 L125.807 130.918 L125.807 136.797 L120.922 136.797 L120.922 130.918 Z" fill="#000000" fill-rule="nonzero" fill-opacity="1" /><path clip-path="url(#clip710)" d="M140.019 132.862 L156.339 132.862 L156.339 136.797 L134.394 136.797 L134.394 132.862 Q137.056 130.108 141.64 125.478 Q146.246 120.825 147.427 119.483 Q149.672 116.96 150.552 115.223 Q151.455 113.464 151.455 111.774 Q151.455 109.02 149.51 107.284 Q147.589 105.548 144.487 105.548 Q142.288 105.548 139.834 106.311 Q137.404 107.075 134.626 108.626 L134.626 103.904 Q137.45 102.77 139.904 102.191 Q142.357 101.612 144.394 101.612 Q149.765 101.612 152.959 104.298 Q156.154 106.983 156.154 111.473 Q156.154 113.603 155.343 115.524 Q154.556 117.423 152.45 120.015 Q151.871 120.686 148.769 123.904 Q145.668 127.098 140.019 132.862 Z" fill="#000000" fill-rule="nonzero" fill-opacity="1" /><path clip-path="url(#clip710)" d="M166.2 102.237 L184.556 102.237 L184.556 106.173 L170.482 106.173 L170.482 114.645 Q171.501 114.298 172.519 114.135 Q173.538 113.95 174.556 113.95 Q180.343 113.95 183.723 117.122 Q187.103 120.293 187.103 125.71 Q187.103 131.288 183.63 134.39 Q180.158 137.469 173.839 137.469 Q171.663 137.469 169.394 137.098 Q167.149 136.728 164.742 135.987 L164.742 131.288 Q166.825 132.422 169.047 132.978 Q171.269 133.534 173.746 133.534 Q177.751 133.534 180.089 131.427 Q182.427 129.321 182.427 125.71 Q182.427 122.098 180.089 119.992 Q177.751 117.885 173.746 117.885 Q171.871 117.885 169.996 118.302 Q168.144 118.719 166.2 119.598 L166.2 102.237 Z" fill="#000000" fill-rule="nonzero" fill-opacity="1" /><polyline clip-path="url(#clip712)" style="stroke:#009af9; stroke-linecap:round; stroke-linejoin:round; stroke-width:4; stroke-opacity:1; fill:none" points="283.376,1220.2 293.421,1176.61 303.467,1133.91 313.512,1092.1 323.558,1051.17 333.603,1011.15 343.649,972.014 353.694,933.78 363.74,896.445 373.786,860.009 383.831,824.473 393.877,789.837 403.922,756.099 413.968,723.26 424.013,691.316 434.059,660.267 444.104,630.11 454.15,600.842 464.195,572.46 474.241,544.961 484.286,518.34 494.332,492.595 504.377,467.719 514.423,443.708 524.469,420.557 534.514,398.26 544.56,376.812 554.605,356.206 564.651,336.435 574.696,317.494 584.742,299.374 594.787,282.069 604.833,265.571 614.878,249.873 624.924,234.965 634.969,220.84 645.015,207.49 655.061,194.906 665.106,183.078 675.152,171.997 685.197,161.655 695.243,152.042 705.288,143.148 715.334,134.963 725.379,127.478 735.425,120.681 745.47,114.564 755.516,109.115 765.561,104.323 775.607,100.179 785.652,96.6718 795.698,93.7899 805.744,91.5226 815.789,89.859 825.835,88.7878 835.88,88.2979 845.926,88.378 855.971,89.0168 866.017,90.2029 876.062,91.9248 886.108,94.1712 896.153,96.9305 906.199,100.191 916.244,103.942 926.29,108.17 936.335,112.866 946.381,118.017 956.427,123.611 966.472,129.637 976.518,136.084 986.563,142.94 996.609,150.194 1006.65,157.833 1016.7,165.847 1026.75,174.224 1036.79,182.953 1046.84,192.023 1056.88,201.422 1066.93,211.14 1076.97,221.164 1087.02,231.484 1097.06,242.09 1107.11,252.97 1117.16,264.113 1127.2,275.508 1137.25,287.146 1147.29,299.015 1157.34,311.105 1167.38,323.406 1177.43,335.907 1187.47,348.598 1197.52,361.469 1207.56,374.511 1217.61,387.713 1227.66,401.065 1237.7,414.559 1247.75,428.184 1257.79,441.932 1267.84,455.792 1277.88,469.757 1287.93,483.816 1297.97,497.962 1308.02,512.185 1318.07,526.477 1328.11,540.829 1338.16,555.234 1348.2,569.682 1358.25,584.166 1368.29,598.678 1378.34,613.211 1388.38,627.756 1398.43,642.307 1408.48,656.855 1418.52,671.394 1428.57,685.917 1438.61,700.417 1448.66,714.887 1458.7,729.321 1468.75,743.712 1478.79,758.054 1488.84,772.34 1498.89,786.566 1508.93,800.724 1518.98,814.81 1529.02,828.817 1539.07,842.741 1549.11,856.576 1559.16,870.317 1569.2,883.959 1579.25,897.497 1589.3,910.927 1599.34,924.244 1609.39,937.444 1619.43,950.523 1629.48,963.476 1639.52,976.3 1649.57,988.99 1659.61,1001.54 1669.66,1013.96 1679.71,1026.23 1689.75,1038.35 1699.8,1050.32 1709.84,1062.14 1719.89,1073.81 1729.93,1085.31 1739.98,1096.66 1750.02,1107.84 1760.07,1118.85 1770.11,1129.7 1780.16,1140.38 1790.21,1150.88 1800.25,1161.21 1810.3,1171.37 1820.34,1181.35 1830.39,1191.15 1840.43,1200.77 1850.48,1210.21 1860.52,1219.47 1870.57,1228.54 1880.62,1237.43 1890.66,1246.14 1900.71,1254.66 1910.75,1263 1920.8,1271.15 1930.84,1279.11 1940.89,1286.89 1950.93,1294.48 1960.98,1301.88 1971.03,1309.09 1981.07,1316.12 1991.12,1322.96 2001.16,1329.62 2011.21,1336.09 2021.25,1342.37 2031.3,1348.47 2041.34,1354.39 2051.39,1360.12 2061.44,1365.67 2071.48,1371.03 2081.53,1376.22 2091.57,1381.22 2101.62,1386.05 2111.66,1390.7 2121.71,1395.17 2131.75,1399.47 2141.8,1403.59 2151.85,1407.54 2161.89,1411.32 2171.94,1414.93 2181.98,1418.38 2192.03,1421.65 2202.07,1424.77 2212.12,1427.72 2222.16,1430.5 2232.21,1433.13 2242.26,1435.6 2252.3,1437.92 2262.35,1440.08 2272.39,1442.09 2282.44,1443.95 2292.48,1445.67 "/>
<polyline clip-path="url(#clip712)" style="stroke:#e26f46; stroke-linecap:round; stroke-linejoin:round; stroke-width:4; stroke-opacity:1; fill:none" points="283.376,1220.45 293.421,1176.84 303.467,1134.12 313.512,1092.29 323.558,1051.36 333.603,1011.34 343.649,972.21 353.694,933.984 363.74,896.659 373.786,860.235 383.831,824.711 393.877,790.087 403.922,756.362 413.968,723.533 424.013,691.6 434.059,660.559 444.104,630.409 454.15,601.146 464.195,572.766 474.241,545.267 484.286,518.644 494.332,492.894 504.377,468.011 514.423,443.991 524.469,420.828 534.514,398.517 544.56,377.053 554.605,356.429 564.651,336.638 574.696,317.675 584.742,299.533 594.787,282.204 604.833,265.681 614.878,249.957 624.924,235.023 634.969,220.871 645.015,207.494 655.061,194.882 665.106,183.028 675.152,171.921 685.197,161.553 695.243,151.915 705.288,142.996 715.334,134.788 725.379,127.281 735.425,120.464 745.47,114.328 755.516,108.861 765.561,104.055 775.607,99.897 785.652,96.3778 795.698,93.4862 805.744,91.2113 815.789,89.5421 825.835,88.4675 835.88,87.9763 845.926,88.0572 855.971,88.699 866.017,89.8901 876.062,91.6192 886.108,93.8748 896.153,96.6452 906.199,99.9189 916.244,103.684 926.29,107.93 936.335,112.644 946.381,117.814 956.427,123.43 966.472,129.479 976.518,135.949 986.563,142.83 996.609,150.109 1006.65,157.775 1016.7,165.816 1026.75,174.221 1036.79,182.979 1046.84,192.077 1056.88,201.504 1066.93,211.25 1076.97,221.302 1087.02,231.65 1097.06,242.283 1107.11,253.189 1117.16,264.357 1127.2,275.778 1137.25,287.439 1147.29,299.33 1157.34,311.441 1167.38,323.761 1177.43,336.28 1187.47,348.988 1197.52,361.874 1207.56,374.928 1217.61,388.141 1227.66,401.502 1237.7,415.003 1247.75,428.633 1257.79,442.383 1267.84,456.244 1277.88,470.206 1287.93,484.262 1297.97,498.401 1308.02,512.615 1318.07,526.896 1328.11,541.235 1338.16,555.624 1348.2,570.055 1358.25,584.52 1368.29,599.01 1378.34,613.519 1388.38,628.039 1398.43,642.562 1408.48,657.081 1418.52,671.59 1428.57,686.08 1438.61,700.546 1448.66,714.981 1458.7,729.378 1468.75,743.732 1478.79,758.035 1488.84,772.283 1498.89,786.468 1508.93,800.586 1518.98,814.631 1529.02,828.597 1539.07,842.48 1549.11,856.274 1559.16,869.975 1569.2,883.577 1579.25,897.076 1589.3,910.467 1599.34,923.747 1609.39,936.91 1619.43,949.953 1629.48,962.873 1639.52,975.664 1649.57,988.324 1659.61,1000.85 1669.66,1013.24 1679.71,1025.48 1689.75,1037.58 1699.8,1049.53 1709.84,1061.34 1719.89,1072.98 1729.93,1084.48 1739.98,1095.81 1750.02,1106.99 1760.07,1118 1770.11,1128.85 1780.16,1139.53 1790.21,1150.04 1800.25,1160.38 1810.3,1170.55 1820.34,1180.54 1830.39,1190.36 1840.43,1200 1850.48,1209.47 1860.52,1218.75 1870.57,1227.86 1880.62,1236.78 1890.66,1245.53 1900.71,1254.09 1910.75,1262.46 1920.8,1270.66 1930.84,1278.67 1940.89,1286.49 1950.93,1294.13 1960.98,1301.58 1971.03,1308.85 1981.07,1315.94 1991.12,1322.83 2001.16,1329.54 2011.21,1336.07 2021.25,1342.41 2031.3,1348.57 2041.34,1354.54 2051.39,1360.32 2061.44,1365.92 2071.48,1371.34 2081.53,1376.58 2091.57,1381.63 2101.62,1386.5 2111.66,1391.19 2121.71,1395.7 2131.75,1400.03 2141.8,1404.18 2151.85,1408.16 2161.89,1411.96 2171.94,1415.58 2181.98,1419.02 2192.03,1422.3 2202.07,1425.4 2212.12,1428.32 2222.16,1431.08 2232.21,1433.67 2242.26,1436.09 2252.3,1438.34 2262.35,1440.43 2272.39,1442.36 2282.44,1444.12 2292.48,1445.72 "/>
<path clip-path="url(#clip710)" d="M1632.21 250.738 L2281.77 250.738 L2281.77 95.2176 L1632.21 95.2176  Z" fill="#ffffff" fill-rule="evenodd" fill-opacity="1"/>
<polyline clip-path="url(#clip710)" style="stroke:#000000; stroke-linecap:round; stroke-linejoin:round; stroke-width:4; stroke-opacity:1; fill:none" points="1632.21,250.738 2281.77,250.738 2281.77,95.2176 1632.21,95.2176 1632.21,250.738 "/>
<polyline clip-path="url(#clip710)" style="stroke:#009af9; stroke-linecap:round; stroke-linejoin:round; stroke-width:4; stroke-opacity:1; fill:none" points="1655.87,147.058 1797.85,147.058 "/>
<path clip-path="url(#clip710)" d="M1837.34 134.384 L1831 151.583 L1843.71 151.583 L1837.34 134.384 M1834.7 129.778 L1840.01 129.778 L1853.18 164.338 L1848.32 164.338 L1845.17 155.472 L1829.59 155.472 L1826.44 164.338 L1821.51 164.338 L1834.7 129.778 Z" fill="#000000" fill-rule="nonzero" fill-opacity="1" /><path clip-path="url(#clip710)" d="M1879.59 148.689 L1879.59 164.338 L1875.33 164.338 L1875.33 148.828 Q1875.33 145.148 1873.89 143.319 Q1872.46 141.49 1869.59 141.49 Q1866.14 141.49 1864.15 143.69 Q1862.16 145.889 1862.16 149.685 L1862.16 164.338 L1857.88 164.338 L1857.88 138.412 L1862.16 138.412 L1862.16 142.44 Q1863.69 140.102 1865.75 138.944 Q1867.83 137.787 1870.54 137.787 Q1875 137.787 1877.3 140.565 Q1879.59 143.319 1879.59 148.689 Z" fill="#000000" fill-rule="nonzero" fill-opacity="1" /><path clip-path="url(#clip710)" d="M1899.87 151.305 Q1894.7 151.305 1892.71 152.486 Q1890.72 153.666 1890.72 156.514 Q1890.72 158.782 1892.2 160.125 Q1893.71 161.444 1896.28 161.444 Q1899.82 161.444 1901.95 158.944 Q1904.1 156.421 1904.1 152.254 L1904.1 151.305 L1899.87 151.305 M1908.36 149.546 L1908.36 164.338 L1904.1 164.338 L1904.1 160.402 Q1902.64 162.763 1900.47 163.898 Q1898.29 165.009 1895.14 165.009 Q1891.16 165.009 1888.8 162.787 Q1886.46 160.541 1886.46 156.791 Q1886.46 152.416 1889.38 150.194 Q1892.32 147.972 1898.13 147.972 L1904.1 147.972 L1904.1 147.555 Q1904.1 144.615 1902.16 143.018 Q1900.24 141.398 1896.74 141.398 Q1894.52 141.398 1892.41 141.93 Q1890.31 142.463 1888.36 143.527 L1888.36 139.592 Q1890.7 138.69 1892.9 138.25 Q1895.1 137.787 1897.18 137.787 Q1902.81 137.787 1905.58 140.703 Q1908.36 143.62 1908.36 149.546 Z" fill="#000000" fill-rule="nonzero" fill-opacity="1" /><path clip-path="url(#clip710)" d="M1917.13 128.319 L1921.39 128.319 L1921.39 164.338 L1917.13 164.338 L1917.13 128.319 Z" fill="#000000" fill-rule="nonzero" fill-opacity="1" /><path clip-path="url(#clip710)" d="M1941.09 166.745 Q1939.29 171.375 1937.57 172.787 Q1935.86 174.199 1932.99 174.199 L1929.59 174.199 L1929.59 170.634 L1932.09 170.634 Q1933.85 170.634 1934.82 169.8 Q1935.79 168.967 1936.97 165.865 L1937.74 163.921 L1927.25 138.412 L1931.76 138.412 L1939.87 158.689 L1947.97 138.412 L1952.48 138.412 L1941.09 166.745 Z" fill="#000000" fill-rule="nonzero" fill-opacity="1" /><path clip-path="url(#clip710)" d="M1962.57 131.051 L1962.57 138.412 L1971.35 138.412 L1971.35 141.722 L1962.57 141.722 L1962.57 155.796 Q1962.57 158.967 1963.43 159.87 Q1964.31 160.773 1966.97 160.773 L1971.35 160.773 L1971.35 164.338 L1966.97 164.338 Q1962.04 164.338 1960.17 162.509 Q1958.29 160.657 1958.29 155.796 L1958.29 141.722 L1955.17 141.722 L1955.17 138.412 L1958.29 138.412 L1958.29 131.051 L1962.57 131.051 Z" fill="#000000" fill-rule="nonzero" fill-opacity="1" /><path clip-path="url(#clip710)" d="M1976.95 138.412 L1981.21 138.412 L1981.21 164.338 L1976.95 164.338 L1976.95 138.412 M1976.95 128.319 L1981.21 128.319 L1981.21 133.713 L1976.95 133.713 L1976.95 128.319 Z" fill="#000000" fill-rule="nonzero" fill-opacity="1" /><path clip-path="url(#clip710)" d="M2008.78 139.407 L2008.78 143.389 Q2006.97 142.393 2005.14 141.907 Q2003.34 141.398 2001.49 141.398 Q1997.34 141.398 1995.05 144.037 Q1992.76 146.652 1992.76 151.398 Q1992.76 156.143 1995.05 158.782 Q1997.34 161.398 2001.49 161.398 Q2003.34 161.398 2005.14 160.912 Q2006.97 160.402 2008.78 159.407 L2008.78 163.342 Q2006.99 164.176 2005.07 164.592 Q2003.18 165.009 2001.02 165.009 Q1995.17 165.009 1991.72 161.328 Q1988.27 157.648 1988.27 151.398 Q1988.27 145.055 1991.74 141.421 Q1995.24 137.787 2001.3 137.787 Q2003.27 137.787 2005.14 138.203 Q2007.02 138.597 2008.78 139.407 Z" fill="#000000" fill-rule="nonzero" fill-opacity="1" /><path clip-path="url(#clip710)" d="M2027.97 151.305 Q2022.8 151.305 2020.81 152.486 Q2018.82 153.666 2018.82 156.514 Q2018.82 158.782 2020.3 160.125 Q2021.81 161.444 2024.38 161.444 Q2027.92 161.444 2030.05 158.944 Q2032.2 156.421 2032.2 152.254 L2032.2 151.305 L2027.97 151.305 M2036.46 149.546 L2036.46 164.338 L2032.2 164.338 L2032.2 160.402 Q2030.74 162.763 2028.57 163.898 Q2026.39 165.009 2023.24 165.009 Q2019.26 165.009 2016.9 162.787 Q2014.56 160.541 2014.56 156.791 Q2014.56 152.416 2017.48 150.194 Q2020.42 147.972 2026.23 147.972 L2032.2 147.972 L2032.2 147.555 Q2032.2 144.615 2030.26 143.018 Q2028.34 141.398 2024.84 141.398 Q2022.62 141.398 2020.51 141.93 Q2018.41 142.463 2016.46 143.527 L2016.46 139.592 Q2018.8 138.69 2021 138.25 Q2023.2 137.787 2025.28 137.787 Q2030.91 137.787 2033.68 140.703 Q2036.46 143.62 2036.46 149.546 Z" fill="#000000" fill-rule="nonzero" fill-opacity="1" /><path clip-path="url(#clip710)" d="M2045.24 128.319 L2049.49 128.319 L2049.49 164.338 L2045.24 164.338 L2045.24 128.319 Z" fill="#000000" fill-rule="nonzero" fill-opacity="1" /><path clip-path="url(#clip710)" d="M2094.38 130.912 L2094.38 135.472 Q2091.72 134.199 2089.36 133.574 Q2086.99 132.949 2084.8 132.949 Q2080.98 132.949 2078.89 134.43 Q2076.83 135.912 2076.83 138.643 Q2076.83 140.935 2078.2 142.115 Q2079.59 143.273 2083.43 143.99 L2086.25 144.569 Q2091.49 145.565 2093.96 148.088 Q2096.46 150.588 2096.46 154.801 Q2096.46 159.824 2093.08 162.416 Q2089.73 165.009 2083.22 165.009 Q2080.77 165.009 2077.99 164.453 Q2075.24 163.898 2072.27 162.81 L2072.27 157.995 Q2075.12 159.592 2077.85 160.402 Q2080.58 161.213 2083.22 161.213 Q2087.23 161.213 2089.4 159.639 Q2091.58 158.064 2091.58 155.148 Q2091.58 152.602 2090 151.166 Q2088.45 149.731 2084.89 149.014 L2082.04 148.458 Q2076.81 147.416 2074.47 145.194 Q2072.13 142.972 2072.13 139.014 Q2072.13 134.43 2075.35 131.791 Q2078.59 129.153 2084.26 129.153 Q2086.69 129.153 2089.22 129.592 Q2091.74 130.032 2094.38 130.912 Z" fill="#000000" fill-rule="nonzero" fill-opacity="1" /><path clip-path="url(#clip710)" d="M2113.61 141.398 Q2110.19 141.398 2108.2 144.083 Q2106.21 146.745 2106.21 151.398 Q2106.21 156.051 2108.17 158.736 Q2110.17 161.398 2113.61 161.398 Q2117.02 161.398 2119.01 158.713 Q2121 156.027 2121 151.398 Q2121 146.791 2119.01 144.106 Q2117.02 141.398 2113.61 141.398 M2113.61 137.787 Q2119.17 137.787 2122.34 141.398 Q2125.51 145.009 2125.51 151.398 Q2125.51 157.764 2122.34 161.398 Q2119.17 165.009 2113.61 165.009 Q2108.04 165.009 2104.86 161.398 Q2101.72 157.764 2101.72 151.398 Q2101.72 145.009 2104.86 141.398 Q2108.04 137.787 2113.61 137.787 Z" fill="#000000" fill-rule="nonzero" fill-opacity="1" /><path clip-path="url(#clip710)" d="M2132.57 128.319 L2136.83 128.319 L2136.83 164.338 L2132.57 164.338 L2132.57 128.319 Z" fill="#000000" fill-rule="nonzero" fill-opacity="1" /><path clip-path="url(#clip710)" d="M2145.3 154.106 L2145.3 138.412 L2149.56 138.412 L2149.56 153.944 Q2149.56 157.625 2151 159.476 Q2152.43 161.305 2155.3 161.305 Q2158.75 161.305 2160.74 159.106 Q2162.76 156.907 2162.76 153.111 L2162.76 138.412 L2167.02 138.412 L2167.02 164.338 L2162.76 164.338 L2162.76 160.356 Q2161.21 162.717 2159.15 163.875 Q2157.11 165.009 2154.4 165.009 Q2149.93 165.009 2147.62 162.231 Q2145.3 159.453 2145.3 154.106 M2156.02 137.787 L2156.02 137.787 Z" fill="#000000" fill-rule="nonzero" fill-opacity="1" /><path clip-path="url(#clip710)" d="M2180 131.051 L2180 138.412 L2188.78 138.412 L2188.78 141.722 L2180 141.722 L2180 155.796 Q2180 158.967 2180.86 159.87 Q2181.74 160.773 2184.4 160.773 L2188.78 160.773 L2188.78 164.338 L2184.4 164.338 Q2179.47 164.338 2177.6 162.509 Q2175.72 160.657 2175.72 155.796 L2175.72 141.722 L2172.6 141.722 L2172.6 138.412 L2175.72 138.412 L2175.72 131.051 L2180 131.051 Z" fill="#000000" fill-rule="nonzero" fill-opacity="1" /><path clip-path="url(#clip710)" d="M2194.38 138.412 L2198.64 138.412 L2198.64 164.338 L2194.38 164.338 L2194.38 138.412 M2194.38 128.319 L2198.64 128.319 L2198.64 133.713 L2194.38 133.713 L2194.38 128.319 Z" fill="#000000" fill-rule="nonzero" fill-opacity="1" /><path clip-path="url(#clip710)" d="M2217.6 141.398 Q2214.17 141.398 2212.18 144.083 Q2210.19 146.745 2210.19 151.398 Q2210.19 156.051 2212.16 158.736 Q2214.15 161.398 2217.6 161.398 Q2221 161.398 2222.99 158.713 Q2224.98 156.027 2224.98 151.398 Q2224.98 146.791 2222.99 144.106 Q2221 141.398 2217.6 141.398 M2217.6 137.787 Q2223.15 137.787 2226.32 141.398 Q2229.49 145.009 2229.49 151.398 Q2229.49 157.764 2226.32 161.398 Q2223.15 165.009 2217.6 165.009 Q2212.02 165.009 2208.85 161.398 Q2205.7 157.764 2205.7 151.398 Q2205.7 145.009 2208.85 141.398 Q2212.02 137.787 2217.6 137.787 Z" fill="#000000" fill-rule="nonzero" fill-opacity="1" /><path clip-path="url(#clip710)" d="M2258.1 148.689 L2258.1 164.338 L2253.85 164.338 L2253.85 148.828 Q2253.85 145.148 2252.41 143.319 Q2250.98 141.49 2248.1 141.49 Q2244.66 141.49 2242.66 143.69 Q2240.67 145.889 2240.67 149.685 L2240.67 164.338 L2236.39 164.338 L2236.39 138.412 L2240.67 138.412 L2240.67 142.44 Q2242.2 140.102 2244.26 138.944 Q2246.35 137.787 2249.05 137.787 Q2253.52 137.787 2255.81 140.565 Q2258.1 143.319 2258.1 148.689 Z" fill="#000000" fill-rule="nonzero" fill-opacity="1" /><polyline clip-path="url(#clip710)" style="stroke:#e26f46; stroke-linecap:round; stroke-linejoin:round; stroke-width:4; stroke-opacity:1; fill:none" points="1655.87,198.898 1797.85,198.898 "/>
<path clip-path="url(#clip710)" d="M1826.19 185.46 L1826.19 198.446 L1832.07 198.446 Q1835.33 198.446 1837.11 196.756 Q1838.89 195.067 1838.89 191.942 Q1838.89 188.84 1837.11 187.15 Q1835.33 185.46 1832.07 185.46 L1826.19 185.46 M1821.51 181.618 L1832.07 181.618 Q1837.88 181.618 1840.84 184.256 Q1843.82 186.872 1843.82 191.942 Q1843.82 197.057 1840.84 199.673 Q1837.88 202.289 1832.07 202.289 L1826.19 202.289 L1826.19 216.178 L1821.51 216.178 L1821.51 181.618 Z" fill="#000000" fill-rule="nonzero" fill-opacity="1" /><path clip-path="url(#clip710)" d="M1850.1 181.618 L1854.77 181.618 L1854.77 216.178 L1850.1 216.178 L1850.1 181.618 Z" fill="#000000" fill-rule="nonzero" fill-opacity="1" /><path clip-path="url(#clip710)" d="M1864.08 181.618 L1870.38 181.618 L1885.7 210.529 L1885.7 181.618 L1890.24 181.618 L1890.24 216.178 L1883.94 216.178 L1868.62 187.266 L1868.62 216.178 L1864.08 216.178 L1864.08 181.618 Z" fill="#000000" fill-rule="nonzero" fill-opacity="1" /><path clip-path="url(#clip710)" d="M1899.54 181.618 L1905.84 181.618 L1921.16 210.529 L1921.16 181.618 L1925.7 181.618 L1925.7 216.178 L1919.4 216.178 L1904.08 187.266 L1904.08 216.178 L1899.54 216.178 L1899.54 181.618 Z" fill="#000000" fill-rule="nonzero" fill-opacity="1" /><path clip-path="url(#clip710)" d="M1970.79 182.752 L1970.79 187.312 Q1968.13 186.039 1965.77 185.414 Q1963.41 184.789 1961.21 184.789 Q1957.39 184.789 1955.31 186.27 Q1953.25 187.752 1953.25 190.483 Q1953.25 192.775 1954.61 193.955 Q1956 195.113 1959.84 195.83 L1962.67 196.409 Q1967.9 197.405 1970.37 199.928 Q1972.87 202.428 1972.87 206.641 Q1972.87 211.664 1969.5 214.256 Q1966.14 216.849 1959.63 216.849 Q1957.18 216.849 1954.4 216.293 Q1951.65 215.738 1948.69 214.65 L1948.69 209.835 Q1951.53 211.432 1954.26 212.242 Q1957 213.053 1959.63 213.053 Q1963.64 213.053 1965.81 211.479 Q1967.99 209.904 1967.99 206.988 Q1967.99 204.442 1966.42 203.006 Q1964.87 201.571 1961.3 200.854 L1958.45 200.298 Q1953.22 199.256 1950.88 197.034 Q1948.55 194.812 1948.55 190.854 Q1948.55 186.27 1951.76 183.631 Q1955 180.993 1960.68 180.993 Q1963.11 180.993 1965.63 181.432 Q1968.15 181.872 1970.79 182.752 Z" fill="#000000" fill-rule="nonzero" fill-opacity="1" /><path clip-path="url(#clip710)" d="M1990.03 193.238 Q1986.6 193.238 1984.61 195.923 Q1982.62 198.585 1982.62 203.238 Q1982.62 207.891 1984.59 210.576 Q1986.58 213.238 1990.03 213.238 Q1993.43 213.238 1995.42 210.553 Q1997.41 207.867 1997.41 203.238 Q1997.41 198.631 1995.42 195.946 Q1993.43 193.238 1990.03 193.238 M1990.03 189.627 Q1995.58 189.627 1998.75 193.238 Q2001.93 196.849 2001.93 203.238 Q2001.93 209.604 1998.75 213.238 Q1995.58 216.849 1990.03 216.849 Q1984.45 216.849 1981.28 213.238 Q1978.13 209.604 1978.13 203.238 Q1978.13 196.849 1981.28 193.238 Q1984.45 189.627 1990.03 189.627 Z" fill="#000000" fill-rule="nonzero" fill-opacity="1" /><path clip-path="url(#clip710)" d="M2008.99 180.159 L2013.24 180.159 L2013.24 216.178 L2008.99 216.178 L2008.99 180.159 Z" fill="#000000" fill-rule="nonzero" fill-opacity="1" /><path clip-path="url(#clip710)" d="M2021.72 205.946 L2021.72 190.252 L2025.98 190.252 L2025.98 205.784 Q2025.98 209.465 2027.41 211.316 Q2028.85 213.145 2031.72 213.145 Q2035.17 213.145 2037.16 210.946 Q2039.17 208.747 2039.17 204.951 L2039.17 190.252 L2043.43 190.252 L2043.43 216.178 L2039.17 216.178 L2039.17 212.196 Q2037.62 214.557 2035.56 215.715 Q2033.52 216.849 2030.81 216.849 Q2026.35 216.849 2024.03 214.071 Q2021.72 211.293 2021.72 205.946 M2032.43 189.627 L2032.43 189.627 Z" fill="#000000" fill-rule="nonzero" fill-opacity="1" /><path clip-path="url(#clip710)" d="M2056.42 182.891 L2056.42 190.252 L2065.19 190.252 L2065.19 193.562 L2056.42 193.562 L2056.42 207.636 Q2056.42 210.807 2057.27 211.71 Q2058.15 212.613 2060.81 212.613 L2065.19 212.613 L2065.19 216.178 L2060.81 216.178 Q2055.88 216.178 2054.01 214.349 Q2052.13 212.497 2052.13 207.636 L2052.13 193.562 L2049.01 193.562 L2049.01 190.252 L2052.13 190.252 L2052.13 182.891 L2056.42 182.891 Z" fill="#000000" fill-rule="nonzero" fill-opacity="1" /><path clip-path="url(#clip710)" d="M2070.79 190.252 L2075.05 190.252 L2075.05 216.178 L2070.79 216.178 L2070.79 190.252 M2070.79 180.159 L2075.05 180.159 L2075.05 185.553 L2070.79 185.553 L2070.79 180.159 Z" fill="#000000" fill-rule="nonzero" fill-opacity="1" /><path clip-path="url(#clip710)" d="M2094.01 193.238 Q2090.58 193.238 2088.59 195.923 Q2086.6 198.585 2086.6 203.238 Q2086.6 207.891 2088.57 210.576 Q2090.56 213.238 2094.01 213.238 Q2097.41 213.238 2099.4 210.553 Q2101.39 207.867 2101.39 203.238 Q2101.39 198.631 2099.4 195.946 Q2097.41 193.238 2094.01 193.238 M2094.01 189.627 Q2099.56 189.627 2102.74 193.238 Q2105.91 196.849 2105.91 203.238 Q2105.91 209.604 2102.74 213.238 Q2099.56 216.849 2094.01 216.849 Q2088.43 216.849 2085.26 213.238 Q2082.11 209.604 2082.11 203.238 Q2082.11 196.849 2085.26 193.238 Q2088.43 189.627 2094.01 189.627 Z" fill="#000000" fill-rule="nonzero" fill-opacity="1" /><path clip-path="url(#clip710)" d="M2134.52 200.529 L2134.52 216.178 L2130.26 216.178 L2130.26 200.668 Q2130.26 196.988 2128.82 195.159 Q2127.39 193.33 2124.52 193.33 Q2121.07 193.33 2119.08 195.53 Q2117.09 197.729 2117.09 201.525 L2117.09 216.178 L2112.8 216.178 L2112.8 190.252 L2117.09 190.252 L2117.09 194.28 Q2118.61 191.942 2120.67 190.784 Q2122.76 189.627 2125.47 189.627 Q2129.93 189.627 2132.23 192.405 Q2134.52 195.159 2134.52 200.529 Z" fill="#000000" fill-rule="nonzero" fill-opacity="1" /></svg>
