<?xml version="1.0" encoding="utf-8"?>
<svg xmlns="http://www.w3.org/2000/svg" xmlns:xlink="http://www.w3.org/1999/xlink" width="600" height="400" viewBox="0 0 2400 1600">
<defs>
  <clipPath id="clip420">
    <rect x="0" y="0" width="2400" height="1600"/>
  </clipPath>
</defs>
<path clip-path="url(#clip420)" d="M0 1600 L2400 1600 L2400 0 L0 0  Z" fill="#ffffff" fill-rule="evenodd" fill-opacity="1"/>
<defs>
  <clipPath id="clip421">
    <rect x="480" y="0" width="1681" height="1600"/>
  </clipPath>
</defs>
<path clip-path="url(#clip420)" d="M223.45 1486.45 L2352.76 1486.45 L2352.76 47.2441 L223.45 47.2441  Z" fill="#ffffff" fill-rule="evenodd" fill-opacity="1"/>
<defs>
  <clipPath id="clip422">
    <rect x="223" y="47" width="2130" height="1440"/>
  </clipPath>
</defs>
<polyline clip-path="url(#clip422)" style="stroke:#000000; stroke-linecap:round; stroke-linejoin:round; stroke-width:2; stroke-opacity:0.1; fill:none" points="283.713,1486.45 283.713,47.2441 "/>
<polyline clip-path="url(#clip422)" style="stroke:#000000; stroke-linecap:round; stroke-linejoin:round; stroke-width:2; stroke-opacity:0.1; fill:none" points="785.908,1486.45 785.908,47.2441 "/>
<polyline clip-path="url(#clip422)" style="stroke:#000000; stroke-linecap:round; stroke-linejoin:round; stroke-width:2; stroke-opacity:0.1; fill:none" points="1288.1,1486.45 1288.1,47.2441 "/>
<polyline clip-path="url(#clip422)" style="stroke:#000000; stroke-linecap:round; stroke-linejoin:round; stroke-width:2; stroke-opacity:0.1; fill:none" points="1790.3,1486.45 1790.3,47.2441 "/>
<polyline clip-path="url(#clip422)" style="stroke:#000000; stroke-linecap:round; stroke-linejoin:round; stroke-width:2; stroke-opacity:0.1; fill:none" points="2292.49,1486.45 2292.49,47.2441 "/>
<polyline clip-path="url(#clip422)" style="stroke:#000000; stroke-linecap:round; stroke-linejoin:round; stroke-width:2; stroke-opacity:0.1; fill:none" points="223.45,1180.29 2352.76,1180.29 "/>
<polyline clip-path="url(#clip422)" style="stroke:#000000; stroke-linecap:round; stroke-linejoin:round; stroke-width:2; stroke-opacity:0.1; fill:none" points="223.45,827.953 2352.76,827.953 "/>
<polyline clip-path="url(#clip422)" style="stroke:#000000; stroke-linecap:round; stroke-linejoin:round; stroke-width:2; stroke-opacity:0.1; fill:none" points="223.45,475.613 2352.76,475.613 "/>
<polyline clip-path="url(#clip422)" style="stroke:#000000; stroke-linecap:round; stroke-linejoin:round; stroke-width:2; stroke-opacity:0.1; fill:none" points="223.45,123.272 2352.76,123.272 "/>
<polyline clip-path="url(#clip420)" style="stroke:#000000; stroke-linecap:round; stroke-linejoin:round; stroke-width:4; stroke-opacity:1; fill:none" points="223.45,1486.45 2352.76,1486.45 "/>
<polyline clip-path="url(#clip420)" style="stroke:#000000; stroke-linecap:round; stroke-linejoin:round; stroke-width:4; stroke-opacity:1; fill:none" points="283.713,1486.45 283.713,1467.55 "/>
<polyline clip-path="url(#clip420)" style="stroke:#000000; stroke-linecap:round; stroke-linejoin:round; stroke-width:4; stroke-opacity:1; fill:none" points="785.908,1486.45 785.908,1467.55 "/>
<polyline clip-path="url(#clip420)" style="stroke:#000000; stroke-linecap:round; stroke-linejoin:round; stroke-width:4; stroke-opacity:1; fill:none" points="1288.1,1486.45 1288.1,1467.55 "/>
<polyline clip-path="url(#clip420)" style="stroke:#000000; stroke-linecap:round; stroke-linejoin:round; stroke-width:4; stroke-opacity:1; fill:none" points="1790.3,1486.45 1790.3,1467.55 "/>
<polyline clip-path="url(#clip420)" style="stroke:#000000; stroke-linecap:round; stroke-linejoin:round; stroke-width:4; stroke-opacity:1; fill:none" points="2292.49,1486.45 2292.49,1467.55 "/>
<path clip-path="url(#clip420)" d="M261.097 1517.37 Q257.486 1517.37 255.658 1520.93 Q253.852 1524.47 253.852 1531.6 Q253.852 1538.71 255.658 1542.27 Q257.486 1545.82 261.097 1545.82 Q264.732 1545.82 266.537 1542.27 Q268.366 1538.71 268.366 1531.6 Q268.366 1524.47 266.537 1520.93 Q264.732 1517.37 261.097 1517.37 M261.097 1513.66 Q266.908 1513.66 269.963 1518.27 Q273.042 1522.85 273.042 1531.6 Q273.042 1540.33 269.963 1544.94 Q266.908 1549.52 261.097 1549.52 Q255.287 1549.52 252.209 1544.94 Q249.153 1540.33 249.153 1531.6 Q249.153 1522.85 252.209 1518.27 Q255.287 1513.66 261.097 1513.66 Z" fill="#000000" fill-rule="nonzero" fill-opacity="1" /><path clip-path="url(#clip420)" d="M281.259 1542.97 L286.144 1542.97 L286.144 1548.85 L281.259 1548.85 L281.259 1542.97 Z" fill="#000000" fill-rule="nonzero" fill-opacity="1" /><path clip-path="url(#clip420)" d="M306.329 1517.37 Q302.718 1517.37 300.889 1520.93 Q299.083 1524.47 299.083 1531.6 Q299.083 1538.71 300.889 1542.27 Q302.718 1545.82 306.329 1545.82 Q309.963 1545.82 311.769 1542.27 Q313.597 1538.71 313.597 1531.6 Q313.597 1524.47 311.769 1520.93 Q309.963 1517.37 306.329 1517.37 M306.329 1513.66 Q312.139 1513.66 315.194 1518.27 Q318.273 1522.85 318.273 1531.6 Q318.273 1540.33 315.194 1544.94 Q312.139 1549.52 306.329 1549.52 Q300.519 1549.52 297.44 1544.94 Q294.384 1540.33 294.384 1531.6 Q294.384 1522.85 297.44 1518.27 Q300.519 1513.66 306.329 1513.66 Z" fill="#000000" fill-rule="nonzero" fill-opacity="1" /><path clip-path="url(#clip420)" d="M763.79 1517.37 Q760.179 1517.37 758.35 1520.93 Q756.545 1524.47 756.545 1531.6 Q756.545 1538.71 758.35 1542.27 Q760.179 1545.82 763.79 1545.82 Q767.424 1545.82 769.23 1542.27 Q771.059 1538.71 771.059 1531.6 Q771.059 1524.47 769.23 1520.93 Q767.424 1517.37 763.79 1517.37 M763.79 1513.66 Q769.6 1513.66 772.656 1518.27 Q775.734 1522.85 775.734 1531.6 Q775.734 1540.33 772.656 1544.94 Q769.6 1549.52 763.79 1549.52 Q757.98 1549.52 754.901 1544.94 Q751.846 1540.33 751.846 1531.6 Q751.846 1522.85 754.901 1518.27 Q757.98 1513.66 763.79 1513.66 Z" fill="#000000" fill-rule="nonzero" fill-opacity="1" /><path clip-path="url(#clip420)" d="M783.952 1542.97 L788.836 1542.97 L788.836 1548.85 L783.952 1548.85 L783.952 1542.97 Z" fill="#000000" fill-rule="nonzero" fill-opacity="1" /><path clip-path="url(#clip420)" d="M799.068 1514.29 L817.424 1514.29 L817.424 1518.22 L803.35 1518.22 L803.35 1526.7 Q804.369 1526.35 805.387 1526.19 Q806.406 1526 807.424 1526 Q813.211 1526 816.591 1529.17 Q819.97 1532.34 819.97 1537.76 Q819.97 1543.34 816.498 1546.44 Q813.026 1549.52 806.706 1549.52 Q804.531 1549.52 802.262 1549.15 Q800.017 1548.78 797.609 1548.04 L797.609 1543.34 Q799.693 1544.47 801.915 1545.03 Q804.137 1545.58 806.614 1545.58 Q810.618 1545.58 812.956 1543.48 Q815.294 1541.37 815.294 1537.76 Q815.294 1534.15 812.956 1532.04 Q810.618 1529.94 806.614 1529.94 Q804.739 1529.94 802.864 1530.35 Q801.012 1530.77 799.068 1531.65 L799.068 1514.29 Z" fill="#000000" fill-rule="nonzero" fill-opacity="1" /><path clip-path="url(#clip420)" d="M1255.26 1544.91 L1262.89 1544.91 L1262.89 1518.55 L1254.58 1520.21 L1254.58 1515.95 L1262.85 1514.29 L1267.52 1514.29 L1267.52 1544.91 L1275.16 1544.91 L1275.16 1548.85 L1255.26 1548.85 L1255.26 1544.91 Z" fill="#000000" fill-rule="nonzero" fill-opacity="1" /><path clip-path="url(#clip420)" d="M1284.61 1542.97 L1289.49 1542.97 L1289.49 1548.85 L1284.61 1548.85 L1284.61 1542.97 Z" fill="#000000" fill-rule="nonzero" fill-opacity="1" /><path clip-path="url(#clip420)" d="M1309.68 1517.37 Q1306.07 1517.37 1304.24 1520.93 Q1302.43 1524.47 1302.43 1531.6 Q1302.43 1538.71 1304.24 1542.27 Q1306.07 1545.82 1309.68 1545.82 Q1313.31 1545.82 1315.12 1542.27 Q1316.95 1538.71 1316.95 1531.6 Q1316.95 1524.47 1315.12 1520.93 Q1313.31 1517.37 1309.68 1517.37 M1309.68 1513.66 Q1315.49 1513.66 1318.54 1518.27 Q1321.62 1522.85 1321.62 1531.6 Q1321.62 1540.33 1318.54 1544.94 Q1315.49 1549.52 1309.68 1549.52 Q1303.87 1549.52 1300.79 1544.94 Q1297.73 1540.33 1297.73 1531.6 Q1297.73 1522.85 1300.79 1518.27 Q1303.87 1513.66 1309.68 1513.66 Z" fill="#000000" fill-rule="nonzero" fill-opacity="1" /><path clip-path="url(#clip420)" d="M1757.95 1544.91 L1765.59 1544.91 L1765.59 1518.55 L1757.28 1520.21 L1757.28 1515.95 L1765.54 1514.29 L1770.22 1514.29 L1770.22 1544.91 L1777.86 1544.91 L1777.86 1548.85 L1757.95 1548.85 L1757.95 1544.91 Z" fill="#000000" fill-rule="nonzero" fill-opacity="1" /><path clip-path="url(#clip420)" d="M1787.3 1542.97 L1792.18 1542.97 L1792.18 1548.85 L1787.3 1548.85 L1787.3 1542.97 Z" fill="#000000" fill-rule="nonzero" fill-opacity="1" /><path clip-path="url(#clip420)" d="M1802.42 1514.29 L1820.77 1514.29 L1820.77 1518.22 L1806.7 1518.22 L1806.7 1526.7 Q1807.72 1526.35 1808.74 1526.19 Q1809.75 1526 1810.77 1526 Q1816.56 1526 1819.94 1529.17 Q1823.32 1532.34 1823.32 1537.76 Q1823.32 1543.34 1819.85 1546.44 Q1816.37 1549.52 1810.05 1549.52 Q1807.88 1549.52 1805.61 1549.15 Q1803.36 1548.78 1800.96 1548.04 L1800.96 1543.34 Q1803.04 1544.47 1805.26 1545.03 Q1807.49 1545.58 1809.96 1545.58 Q1813.97 1545.58 1816.3 1543.48 Q1818.64 1541.37 1818.64 1537.76 Q1818.64 1534.15 1816.3 1532.04 Q1813.97 1529.94 1809.96 1529.94 Q1808.09 1529.94 1806.21 1530.35 Q1804.36 1530.77 1802.42 1531.65 L1802.42 1514.29 Z" fill="#000000" fill-rule="nonzero" fill-opacity="1" /><path clip-path="url(#clip420)" d="M2263.73 1544.91 L2280.05 1544.91 L2280.05 1548.85 L2258.11 1548.85 L2258.11 1544.91 Q2260.77 1542.16 2265.35 1537.53 Q2269.96 1532.88 2271.14 1531.53 Q2273.38 1529.01 2274.26 1527.27 Q2275.17 1525.51 2275.17 1523.82 Q2275.17 1521.07 2273.22 1519.33 Q2271.3 1517.6 2268.2 1517.6 Q2266 1517.6 2263.55 1518.36 Q2261.12 1519.13 2258.34 1520.68 L2258.34 1515.95 Q2261.16 1514.82 2263.62 1514.24 Q2266.07 1513.66 2268.11 1513.66 Q2273.48 1513.66 2276.67 1516.35 Q2279.87 1519.03 2279.87 1523.52 Q2279.87 1525.65 2279.06 1527.57 Q2278.27 1529.47 2276.16 1532.07 Q2275.58 1532.74 2272.48 1535.95 Q2269.38 1539.15 2263.73 1544.91 Z" fill="#000000" fill-rule="nonzero" fill-opacity="1" /><path clip-path="url(#clip420)" d="M2289.87 1542.97 L2294.75 1542.97 L2294.75 1548.85 L2289.87 1548.85 L2289.87 1542.97 Z" fill="#000000" fill-rule="nonzero" fill-opacity="1" /><path clip-path="url(#clip420)" d="M2314.93 1517.37 Q2311.32 1517.37 2309.49 1520.93 Q2307.69 1524.47 2307.69 1531.6 Q2307.69 1538.71 2309.49 1542.27 Q2311.32 1545.82 2314.93 1545.82 Q2318.57 1545.82 2320.37 1542.27 Q2322.2 1538.71 2322.2 1531.6 Q2322.2 1524.47 2320.37 1520.93 Q2318.57 1517.37 2314.93 1517.37 M2314.93 1513.66 Q2320.74 1513.66 2323.8 1518.27 Q2326.88 1522.85 2326.88 1531.6 Q2326.88 1540.33 2323.8 1544.94 Q2320.74 1549.52 2314.93 1549.52 Q2309.12 1549.52 2306.05 1544.94 Q2302.99 1540.33 2302.99 1531.6 Q2302.99 1522.85 2306.05 1518.27 Q2309.12 1513.66 2314.93 1513.66 Z" fill="#000000" fill-rule="nonzero" fill-opacity="1" /><polyline clip-path="url(#clip420)" style="stroke:#000000; stroke-linecap:round; stroke-linejoin:round; stroke-width:4; stroke-opacity:1; fill:none" points="223.45,1486.45 223.45,47.2441 "/>
<polyline clip-path="url(#clip420)" style="stroke:#000000; stroke-linecap:round; stroke-linejoin:round; stroke-width:4; stroke-opacity:1; fill:none" points="223.45,1180.29 242.347,1180.29 "/>
<polyline clip-path="url(#clip420)" style="stroke:#000000; stroke-linecap:round; stroke-linejoin:round; stroke-width:4; stroke-opacity:1; fill:none" points="223.45,827.953 242.347,827.953 "/>
<polyline clip-path="url(#clip420)" style="stroke:#000000; stroke-linecap:round; stroke-linejoin:round; stroke-width:4; stroke-opacity:1; fill:none" points="223.45,475.613 242.347,475.613 "/>
<polyline clip-path="url(#clip420)" style="stroke:#000000; stroke-linecap:round; stroke-linejoin:round; stroke-width:4; stroke-opacity:1; fill:none" points="223.45,123.272 242.347,123.272 "/>
<path clip-path="url(#clip420)" d="M50.9921 1180.75 L80.6679 1180.75 L80.6679 1184.68 L50.9921 1184.68 L50.9921 1180.75 Z" fill="#000000" fill-rule="nonzero" fill-opacity="1" /><path clip-path="url(#clip420)" d="M100.76 1166.09 Q97.1493 1166.09 95.3206 1169.66 Q93.515 1173.2 93.515 1180.33 Q93.515 1187.44 95.3206 1191 Q97.1493 1194.54 100.76 1194.54 Q104.395 1194.54 106.2 1191 Q108.029 1187.44 108.029 1180.33 Q108.029 1173.2 106.2 1169.66 Q104.395 1166.09 100.76 1166.09 M100.76 1162.39 Q106.571 1162.39 109.626 1167 Q112.705 1171.58 112.705 1180.33 Q112.705 1189.06 109.626 1193.66 Q106.571 1198.25 100.76 1198.25 Q94.9502 1198.25 91.8715 1193.66 Q88.816 1189.06 88.816 1180.33 Q88.816 1171.58 91.8715 1167 Q94.9502 1162.39 100.76 1162.39 Z" fill="#000000" fill-rule="nonzero" fill-opacity="1" /><path clip-path="url(#clip420)" d="M120.922 1191.69 L125.807 1191.69 L125.807 1197.57 L120.922 1197.57 L120.922 1191.69 Z" fill="#000000" fill-rule="nonzero" fill-opacity="1" /><path clip-path="url(#clip420)" d="M145.992 1166.09 Q142.381 1166.09 140.552 1169.66 Q138.746 1173.2 138.746 1180.33 Q138.746 1187.44 140.552 1191 Q142.381 1194.54 145.992 1194.54 Q149.626 1194.54 151.431 1191 Q153.26 1187.44 153.26 1180.33 Q153.26 1173.2 151.431 1169.66 Q149.626 1166.09 145.992 1166.09 M145.992 1162.39 Q151.802 1162.39 154.857 1167 Q157.936 1171.58 157.936 1180.33 Q157.936 1189.06 154.857 1193.66 Q151.802 1198.25 145.992 1198.25 Q140.181 1198.25 137.103 1193.66 Q134.047 1189.06 134.047 1180.33 Q134.047 1171.58 137.103 1167 Q140.181 1162.39 145.992 1162.39 Z" fill="#000000" fill-rule="nonzero" fill-opacity="1" /><path clip-path="url(#clip420)" d="M180.32 1178.94 Q183.677 1179.66 185.552 1181.93 Q187.45 1184.19 187.45 1187.53 Q187.45 1192.64 183.931 1195.44 Q180.413 1198.25 173.931 1198.25 Q171.755 1198.25 169.441 1197.81 Q167.149 1197.39 164.695 1196.53 L164.695 1192.02 Q166.64 1193.15 168.954 1193.73 Q171.269 1194.31 173.792 1194.31 Q178.191 1194.31 180.482 1192.57 Q182.797 1190.84 182.797 1187.53 Q182.797 1184.47 180.644 1182.76 Q178.515 1181.02 174.695 1181.02 L170.667 1181.02 L170.667 1177.18 L174.88 1177.18 Q178.329 1177.18 180.158 1175.81 Q181.987 1174.43 181.987 1171.83 Q181.987 1169.17 180.089 1167.76 Q178.214 1166.32 174.695 1166.32 Q172.774 1166.32 170.575 1166.74 Q168.376 1167.16 165.737 1168.04 L165.737 1163.87 Q168.399 1163.13 170.714 1162.76 Q173.052 1162.39 175.112 1162.39 Q180.436 1162.39 183.538 1164.82 Q186.64 1167.23 186.64 1171.35 Q186.64 1174.22 184.996 1176.21 Q183.353 1178.18 180.32 1178.94 Z" fill="#000000" fill-rule="nonzero" fill-opacity="1" /><path clip-path="url(#clip420)" d="M51.9412 828.405 L81.617 828.405 L81.617 832.34 L51.9412 832.34 L51.9412 828.405 Z" fill="#000000" fill-rule="nonzero" fill-opacity="1" /><path clip-path="url(#clip420)" d="M101.709 813.752 Q98.0984 813.752 96.2697 817.317 Q94.4641 820.858 94.4641 827.988 Q94.4641 835.094 96.2697 838.659 Q98.0984 842.201 101.709 842.201 Q105.344 842.201 107.149 838.659 Q108.978 835.094 108.978 827.988 Q108.978 820.858 107.149 817.317 Q105.344 813.752 101.709 813.752 M101.709 810.048 Q107.52 810.048 110.575 814.655 Q113.654 819.238 113.654 827.988 Q113.654 836.715 110.575 841.321 Q107.52 845.905 101.709 845.905 Q95.8993 845.905 92.8206 841.321 Q89.7651 836.715 89.7651 827.988 Q89.7651 819.238 92.8206 814.655 Q95.8993 810.048 101.709 810.048 Z" fill="#000000" fill-rule="nonzero" fill-opacity="1" /><path clip-path="url(#clip420)" d="M121.871 839.354 L126.756 839.354 L126.756 845.233 L121.871 845.233 L121.871 839.354 Z" fill="#000000" fill-rule="nonzero" fill-opacity="1" /><path clip-path="url(#clip420)" d="M146.941 813.752 Q143.33 813.752 141.501 817.317 Q139.695 820.858 139.695 827.988 Q139.695 835.094 141.501 838.659 Q143.33 842.201 146.941 842.201 Q150.575 842.201 152.38 838.659 Q154.209 835.094 154.209 827.988 Q154.209 820.858 152.38 817.317 Q150.575 813.752 146.941 813.752 M146.941 810.048 Q152.751 810.048 155.806 814.655 Q158.885 819.238 158.885 827.988 Q158.885 836.715 155.806 841.321 Q152.751 845.905 146.941 845.905 Q141.131 845.905 138.052 841.321 Q134.996 836.715 134.996 827.988 Q134.996 819.238 138.052 814.655 Q141.131 810.048 146.941 810.048 Z" fill="#000000" fill-rule="nonzero" fill-opacity="1" /><path clip-path="url(#clip420)" d="M171.13 841.298 L187.45 841.298 L187.45 845.233 L165.505 845.233 L165.505 841.298 Q168.167 838.543 172.751 833.914 Q177.357 829.261 178.538 827.919 Q180.783 825.395 181.663 823.659 Q182.565 821.9 182.565 820.21 Q182.565 817.456 180.621 815.72 Q178.7 813.983 175.598 813.983 Q173.399 813.983 170.945 814.747 Q168.515 815.511 165.737 817.062 L165.737 812.34 Q168.561 811.206 171.015 810.627 Q173.468 810.048 175.505 810.048 Q180.876 810.048 184.07 812.733 Q187.265 815.419 187.265 819.909 Q187.265 822.039 186.454 823.96 Q185.667 825.858 183.561 828.451 Q182.982 829.122 179.88 832.34 Q176.778 835.534 171.13 841.298 Z" fill="#000000" fill-rule="nonzero" fill-opacity="1" /><path clip-path="url(#clip420)" d="M51.5708 476.064 L81.2466 476.064 L81.2466 479.999 L51.5708 479.999 L51.5708 476.064 Z" fill="#000000" fill-rule="nonzero" fill-opacity="1" /><path clip-path="url(#clip420)" d="M101.339 461.411 Q97.728 461.411 95.8993 464.976 Q94.0937 468.518 94.0937 475.647 Q94.0937 482.754 95.8993 486.318 Q97.728 489.86 101.339 489.86 Q104.973 489.86 106.779 486.318 Q108.608 482.754 108.608 475.647 Q108.608 468.518 106.779 464.976 Q104.973 461.411 101.339 461.411 M101.339 457.708 Q107.149 457.708 110.205 462.314 Q113.283 466.897 113.283 475.647 Q113.283 484.374 110.205 488.981 Q107.149 493.564 101.339 493.564 Q95.5289 493.564 92.4502 488.981 Q89.3947 484.374 89.3947 475.647 Q89.3947 466.897 92.4502 462.314 Q95.5289 457.708 101.339 457.708 Z" fill="#000000" fill-rule="nonzero" fill-opacity="1" /><path clip-path="url(#clip420)" d="M121.501 487.013 L126.385 487.013 L126.385 492.893 L121.501 492.893 L121.501 487.013 Z" fill="#000000" fill-rule="nonzero" fill-opacity="1" /><path clip-path="url(#clip420)" d="M146.57 461.411 Q142.959 461.411 141.131 464.976 Q139.325 468.518 139.325 475.647 Q139.325 482.754 141.131 486.318 Q142.959 489.86 146.57 489.86 Q150.205 489.86 152.01 486.318 Q153.839 482.754 153.839 475.647 Q153.839 468.518 152.01 464.976 Q150.205 461.411 146.57 461.411 M146.57 457.708 Q152.38 457.708 155.436 462.314 Q158.515 466.897 158.515 475.647 Q158.515 484.374 155.436 488.981 Q152.38 493.564 146.57 493.564 Q140.76 493.564 137.681 488.981 Q134.626 484.374 134.626 475.647 Q134.626 466.897 137.681 462.314 Q140.76 457.708 146.57 457.708 Z" fill="#000000" fill-rule="nonzero" fill-opacity="1" /><path clip-path="url(#clip420)" d="M167.542 488.957 L175.181 488.957 L175.181 462.592 L166.871 464.258 L166.871 459.999 L175.135 458.333 L179.811 458.333 L179.811 488.957 L187.45 488.957 L187.45 492.893 L167.542 492.893 L167.542 488.957 Z" fill="#000000" fill-rule="nonzero" fill-opacity="1" /><path clip-path="url(#clip420)" d="M100.112 109.07 Q96.5011 109.07 94.6724 112.635 Q92.8669 116.177 92.8669 123.307 Q92.8669 130.413 94.6724 133.978 Q96.5011 137.519 100.112 137.519 Q103.746 137.519 105.552 133.978 Q107.381 130.413 107.381 123.307 Q107.381 116.177 105.552 112.635 Q103.746 109.07 100.112 109.07 M100.112 105.367 Q105.922 105.367 108.978 109.973 Q112.057 114.557 112.057 123.307 Q112.057 132.033 108.978 136.64 Q105.922 141.223 100.112 141.223 Q94.3021 141.223 91.2234 136.64 Q88.1679 132.033 88.1679 123.307 Q88.1679 114.557 91.2234 109.973 Q94.3021 105.367 100.112 105.367 Z" fill="#000000" fill-rule="nonzero" fill-opacity="1" /><path clip-path="url(#clip420)" d="M120.274 134.672 L125.158 134.672 L125.158 140.552 L120.274 140.552 L120.274 134.672 Z" fill="#000000" fill-rule="nonzero" fill-opacity="1" /><path clip-path="url(#clip420)" d="M145.343 109.07 Q141.732 109.07 139.904 112.635 Q138.098 116.177 138.098 123.307 Q138.098 130.413 139.904 133.978 Q141.732 137.519 145.343 137.519 Q148.978 137.519 150.783 133.978 Q152.612 130.413 152.612 123.307 Q152.612 116.177 150.783 112.635 Q148.978 109.07 145.343 109.07 M145.343 105.367 Q151.154 105.367 154.209 109.973 Q157.288 114.557 157.288 123.307 Q157.288 132.033 154.209 136.64 Q151.154 141.223 145.343 141.223 Q139.533 141.223 136.455 136.64 Q133.399 132.033 133.399 123.307 Q133.399 114.557 136.455 109.973 Q139.533 105.367 145.343 105.367 Z" fill="#000000" fill-rule="nonzero" fill-opacity="1" /><path clip-path="url(#clip420)" d="M175.505 109.07 Q171.894 109.07 170.066 112.635 Q168.26 116.177 168.26 123.307 Q168.26 130.413 170.066 133.978 Q171.894 137.519 175.505 137.519 Q179.14 137.519 180.945 133.978 Q182.774 130.413 182.774 123.307 Q182.774 116.177 180.945 112.635 Q179.14 109.07 175.505 109.07 M175.505 105.367 Q181.316 105.367 184.371 109.973 Q187.45 114.557 187.45 123.307 Q187.45 132.033 184.371 136.64 Q181.316 141.223 175.505 141.223 Q169.695 141.223 166.617 136.64 Q163.561 132.033 163.561 123.307 Q163.561 114.557 166.617 109.973 Q169.695 105.367 175.505 105.367 Z" fill="#000000" fill-rule="nonzero" fill-opacity="1" /><polyline clip-path="url(#clip422)" style="stroke:#009af9; stroke-linecap:round; stroke-linejoin:round; stroke-width:4; stroke-opacity:1; fill:none" points="283.713,123.272 293.757,106.323 303.801,95.4065 313.845,89.5786 323.889,87.9763 333.933,89.8106 343.976,94.3612 354.02,100.972 364.064,109.045 374.108,118.043 384.152,127.479 394.196,136.922 404.24,145.992 414.284,154.357 424.328,161.738 434.372,167.907 444.415,172.686 454.459,175.949 464.503,177.626 474.547,177.702 484.591,176.219 494.635,173.279 504.679,169.043 514.723,163.734 524.767,157.63 534.811,151.065 544.854,144.412 554.898,138.079 564.942,132.484 574.986,128.03 585.03,125.082 595.074,123.934 605.118,124.779 615.162,127.689 625.206,132.595 635.25,139.295 645.293,147.465 655.337,156.686 665.381,166.486 675.425,176.383 685.469,185.927 695.513,194.732 705.557,202.501 715.601,209.036 725.645,214.241 735.688,218.112 745.732,220.721 755.776,222.203 765.82,222.735 775.864,222.519 785.908,221.77 795.952,220.703 805.996,219.522 816.04,218.413 826.084,217.543 836.127,217.051 846.171,217.05 856.215,217.627 866.259,218.843 876.303,220.733 886.347,223.309 896.391,226.561 906.435,230.465 916.479,234.979 926.523,240.048 936.566,245.61 946.61,251.599 956.654,257.941 966.698,264.568 976.742,271.411 986.786,278.407 996.83,285.501 1006.87,292.644 1016.92,299.798 1026.96,306.936 1037.01,314.039 1047.05,321.097 1057.09,328.112 1067.14,335.09 1077.18,342.043 1087.22,348.99 1097.27,355.95 1107.31,362.941 1117.36,369.982 1127.4,377.089 1137.44,384.271 1147.49,391.534 1157.53,398.877 1167.58,406.293 1177.62,413.769 1187.66,421.287 1197.71,428.823 1207.75,436.352 1217.8,443.845 1227.84,451.274 1237.88,458.61 1247.93,465.829 1257.97,472.908 1268.02,479.832 1278.06,486.59 1288.1,493.175 1298.15,499.592 1308.19,505.847 1318.23,511.958 1328.28,517.946 1338.32,523.838 1348.37,529.667 1358.41,535.468 1368.45,541.281 1378.5,547.149 1388.54,553.112 1398.59,559.214 1408.63,565.496 1418.67,571.999 1428.72,578.76 1438.76,585.815 1448.81,593.193 1458.85,600.922 1468.89,609.026 1478.94,617.521 1488.98,626.423 1499.02,635.74 1509.07,645.477 1519.11,655.634 1529.16,666.206 1539.2,677.186 1549.24,688.56 1559.29,700.315 1569.33,712.431 1579.38,724.887 1589.42,737.659 1599.46,750.721 1609.51,764.045 1619.55,777.603 1629.6,791.364 1639.64,805.297 1649.68,819.372 1659.73,833.556 1669.77,847.818 1679.81,862.128 1689.86,876.455 1699.9,890.77 1709.95,905.044 1719.99,919.249 1730.03,933.359 1740.08,947.351 1750.12,961.2 1760.17,974.886 1770.21,988.388 1780.25,1001.69 1790.3,1014.77 1800.34,1027.62 1810.39,1040.23 1820.43,1052.58 1830.47,1064.66 1840.52,1076.47 1850.56,1088.01 1860.6,1099.26 1870.65,1110.24 1880.69,1120.93 1890.74,1131.33 1900.78,1141.46 1910.82,1151.31 1920.87,1160.89 1930.91,1170.21 1940.96,1179.27 1951,1188.09 1961.04,1196.67 1971.09,1205.02 1981.13,1213.17 1991.18,1221.11 2001.22,1228.86 2011.26,1236.45 2021.31,1243.87 2031.35,1251.15 2041.4,1258.31 2051.44,1265.36 2061.48,1272.31 2071.53,1279.19 2081.57,1286.01 2091.61,1292.79 2101.66,1299.54 2111.7,1306.29 2121.75,1313.05 2131.79,1319.83 2141.83,1326.66 2151.88,1333.56 2161.92,1340.53 2171.97,1347.6 2182.01,1354.78 2192.05,1362.1 2202.1,1369.56 2212.14,1377.18 2222.19,1384.98 2232.23,1392.97 2242.27,1401.16 2252.32,1409.58 2262.36,1418.23 2272.4,1427.13 2282.45,1436.29 2292.49,1445.72 "/>
<polyline clip-path="url(#clip422)" style="stroke:#e26f46; stroke-linecap:round; stroke-linejoin:round; stroke-width:4; stroke-opacity:1; fill:none" points="283.713,123.272 293.757,123.272 303.801,123.272 313.845,123.272 323.889,123.272 333.933,123.272 343.976,123.272 354.02,123.272 364.064,123.272 374.108,123.272 384.152,123.272 394.196,123.272 404.24,123.272 414.284,123.272 424.328,123.272 434.372,123.272 444.415,123.272 454.459,123.272 464.503,123.272 474.547,123.272 484.591,123.272 494.635,123.272 504.679,123.272 514.723,123.272 524.767,123.272 534.811,123.272 544.854,123.272 554.898,123.272 564.942,123.272 574.986,123.272 585.03,123.272 595.074,123.272 605.118,123.272 615.162,123.272 625.206,123.272 635.25,123.272 645.293,123.272 655.337,123.272 665.381,123.272 675.425,123.272 685.469,123.272 695.513,123.272 705.557,123.272 715.601,123.272 725.645,123.272 735.688,123.272 745.732,123.272 755.776,123.272 765.82,123.272 775.864,123.272 785.908,123.272 795.952,123.272 805.996,123.272 816.04,123.272 826.084,123.272 836.127,123.272 846.171,123.272 856.215,123.272 866.259,123.272 876.303,123.272 886.347,123.272 896.391,123.272 906.435,123.272 916.479,123.272 926.523,123.272 936.566,123.272 946.61,123.272 956.654,123.272 966.698,123.272 976.742,123.272 986.786,123.272 996.83,123.272 1006.87,123.272 1016.92,123.272 1026.96,123.272 1037.01,123.272 1047.05,123.272 1057.09,123.272 1067.14,123.272 1077.18,123.272 1087.22,123.272 1097.27,123.272 1107.31,123.272 1117.36,123.272 1127.4,123.272 1137.44,123.272 1147.49,123.272 1157.53,123.272 1167.58,123.272 1177.62,123.272 1187.66,123.272 1197.71,123.272 1207.75,123.272 1217.8,123.272 1227.84,123.272 1237.88,123.272 1247.93,123.272 1257.97,123.272 1268.02,123.272 1278.06,123.272 1288.1,123.272 1298.15,123.272 1308.19,123.272 1318.23,123.272 1328.28,123.272 1338.32,123.272 1348.37,123.272 1358.41,123.272 1368.45,123.272 1378.5,123.272 1388.54,123.272 1398.59,123.272 1408.63,123.272 1418.67,123.272 1428.72,123.272 1438.76,123.272 1448.81,123.272 1458.85,123.272 1468.89,123.272 1478.94,123.272 1488.98,123.272 1499.02,123.272 1509.07,123.272 1519.11,123.272 1529.16,123.272 1539.2,123.272 1549.24,123.272 1559.29,123.272 1569.33,123.272 1579.38,123.272 1589.42,123.272 1599.46,123.272 1609.51,123.272 1619.55,123.272 1629.6,123.272 1639.64,123.272 1649.68,123.272 1659.73,123.272 1669.77,123.272 1679.81,123.272 1689.86,123.272 1699.9,123.272 1709.95,123.272 1719.99,123.272 1730.03,123.272 1740.08,123.272 1750.12,123.272 1760.17,123.272 1770.21,123.272 1780.25,123.272 1790.3,123.272 1800.34,123.272 1810.39,123.272 1820.43,123.272 1830.47,123.272 1840.52,123.272 1850.56,123.272 1860.6,123.272 1870.65,123.272 1880.69,123.272 1890.74,123.272 1900.78,123.272 1910.82,123.272 1920.87,123.272 1930.91,123.272 1940.96,123.272 1951,123.272 1961.04,123.272 1971.09,123.272 1981.13,123.272 1991.18,123.272 2001.22,123.272 2011.26,123.272 2021.31,123.272 2031.35,123.272 2041.4,123.272 2051.44,123.272 2061.48,123.272 2071.53,123.272 2081.57,123.272 2091.61,123.272 2101.66,123.272 2111.7,123.272 2121.75,123.272 2131.79,123.272 2141.83,123.272 2151.88,123.272 2161.92,123.272 2171.97,123.272 2182.01,123.272 2192.05,123.272 2202.1,123.272 2212.14,123.272 2222.19,123.272 2232.23,123.272 2242.27,123.272 2252.32,123.272 2262.36,123.272 2272.4,123.272 2282.45,123.272 2292.49,123.272 "/>
<path clip-path="url(#clip420)" d="M294.427 1438.47 L559.787 1438.47 L559.787 1282.95 L294.427 1282.95  Z" fill="#ffffff" fill-rule="evenodd" fill-opacity="1"/>
<polyline clip-path="url(#clip420)" style="stroke:#000000; stroke-linecap:round; stroke-linejoin:round; stroke-width:4; stroke-opacity:1; fill:none" points="294.427,1438.47 559.787,1438.47 559.787,1282.95 294.427,1282.95 294.427,1438.47 "/>
<polyline clip-path="url(#clip420)" style="stroke:#009af9; stroke-linecap:round; stroke-linejoin:round; stroke-width:4; stroke-opacity:1; fill:none" points="318.086,1334.79 460.039,1334.79 "/>
<path clip-path="url(#clip420)" d="M497.541 1354.48 Q495.735 1359.11 494.022 1360.52 Q492.309 1361.94 489.439 1361.94 L486.036 1361.94 L486.036 1358.37 L488.536 1358.37 Q490.295 1358.37 491.268 1357.54 Q492.24 1356.7 493.42 1353.6 L494.184 1351.66 L483.698 1326.15 L488.212 1326.15 L496.314 1346.43 L504.416 1326.15 L508.93 1326.15 L497.541 1354.48 Z" fill="#000000" fill-rule="nonzero" fill-opacity="1" /><path clip-path="url(#clip420)" d="M516.221 1348.14 L523.86 1348.14 L523.86 1321.77 L515.55 1323.44 L515.55 1319.18 L523.814 1317.51 L528.49 1317.51 L528.49 1348.14 L536.129 1348.14 L536.129 1352.07 L516.221 1352.07 L516.221 1348.14 Z" fill="#000000" fill-rule="nonzero" fill-opacity="1" /><polyline clip-path="url(#clip420)" style="stroke:#e26f46; stroke-linecap:round; stroke-linejoin:round; stroke-width:4; stroke-opacity:1; fill:none" points="318.086,1386.63 460.039,1386.63 "/>
<path clip-path="url(#clip420)" d="M497.541 1406.32 Q495.735 1410.95 494.022 1412.36 Q492.309 1413.78 489.439 1413.78 L486.036 1413.78 L486.036 1410.21 L488.536 1410.21 Q490.295 1410.21 491.268 1409.38 Q492.24 1408.54 493.42 1405.44 L494.184 1403.5 L483.698 1377.99 L488.212 1377.99 L496.314 1398.27 L504.416 1377.99 L508.93 1377.99 L497.541 1406.32 Z" fill="#000000" fill-rule="nonzero" fill-opacity="1" /><path clip-path="url(#clip420)" d="M519.439 1399.98 L535.758 1399.98 L535.758 1403.91 L513.814 1403.91 L513.814 1399.98 Q516.476 1397.22 521.059 1392.6 Q525.666 1387.94 526.846 1386.6 Q529.092 1384.08 529.971 1382.34 Q530.874 1380.58 530.874 1378.89 Q530.874 1376.14 528.93 1374.4 Q527.008 1372.66 523.906 1372.66 Q521.707 1372.66 519.254 1373.43 Q516.823 1374.19 514.045 1375.74 L514.045 1371.02 Q516.869 1369.89 519.323 1369.31 Q521.777 1368.73 523.814 1368.73 Q529.184 1368.73 532.379 1371.41 Q535.573 1374.1 535.573 1378.59 Q535.573 1380.72 534.763 1382.64 Q533.976 1384.54 531.869 1387.13 Q531.291 1387.8 528.189 1391.02 Q525.087 1394.22 519.439 1399.98 Z" fill="#000000" fill-rule="nonzero" fill-opacity="1" /></svg>
