<?xml version="1.0" encoding="utf-8"?>
<svg xmlns="http://www.w3.org/2000/svg" xmlns:xlink="http://www.w3.org/1999/xlink" width="600" height="400" viewBox="0 0 2400 1600">
<defs>
  <clipPath id="clip590">
    <rect x="0" y="0" width="2400" height="1600"/>
  </clipPath>
</defs>
<path clip-path="url(#clip590)" d="M0 1600 L2400 1600 L2400 0 L0 0  Z" fill="#ffffff" fill-rule="evenodd" fill-opacity="1"/>
<defs>
  <clipPath id="clip591">
    <rect x="480" y="0" width="1681" height="1600"/>
  </clipPath>
</defs>
<path clip-path="url(#clip590)" d="M224.098 686.448 L1152.76 686.448 L1152.76 123.472 L224.098 123.472  Z" fill="#ffffff" fill-rule="evenodd" fill-opacity="1"/>
<defs>
  <clipPath id="clip592">
    <rect x="224" y="123" width="930" height="564"/>
  </clipPath>
</defs>
<polyline clip-path="url(#clip592)" style="stroke:#000000; stroke-linecap:round; stroke-linejoin:round; stroke-width:2; stroke-opacity:0.1; fill:none" points="250.381,686.448 250.381,123.472 "/>
<polyline clip-path="url(#clip592)" style="stroke:#000000; stroke-linecap:round; stroke-linejoin:round; stroke-width:2; stroke-opacity:0.1; fill:none" points="469.404,686.448 469.404,123.472 "/>
<polyline clip-path="url(#clip592)" style="stroke:#000000; stroke-linecap:round; stroke-linejoin:round; stroke-width:2; stroke-opacity:0.1; fill:none" points="688.427,686.448 688.427,123.472 "/>
<polyline clip-path="url(#clip592)" style="stroke:#000000; stroke-linecap:round; stroke-linejoin:round; stroke-width:2; stroke-opacity:0.1; fill:none" points="907.45,686.448 907.45,123.472 "/>
<polyline clip-path="url(#clip592)" style="stroke:#000000; stroke-linecap:round; stroke-linejoin:round; stroke-width:2; stroke-opacity:0.1; fill:none" points="1126.47,686.448 1126.47,123.472 "/>
<polyline clip-path="url(#clip592)" style="stroke:#000000; stroke-linecap:round; stroke-linejoin:round; stroke-width:2; stroke-opacity:0.1; fill:none" points="224.098,643.137 1152.76,643.137 "/>
<polyline clip-path="url(#clip592)" style="stroke:#000000; stroke-linecap:round; stroke-linejoin:round; stroke-width:2; stroke-opacity:0.1; fill:none" points="224.098,567.204 1152.76,567.204 "/>
<polyline clip-path="url(#clip592)" style="stroke:#000000; stroke-linecap:round; stroke-linejoin:round; stroke-width:2; stroke-opacity:0.1; fill:none" points="224.098,491.272 1152.76,491.272 "/>
<polyline clip-path="url(#clip592)" style="stroke:#000000; stroke-linecap:round; stroke-linejoin:round; stroke-width:2; stroke-opacity:0.1; fill:none" points="224.098,415.339 1152.76,415.339 "/>
<polyline clip-path="url(#clip592)" style="stroke:#000000; stroke-linecap:round; stroke-linejoin:round; stroke-width:2; stroke-opacity:0.1; fill:none" points="224.098,339.406 1152.76,339.406 "/>
<polyline clip-path="url(#clip592)" style="stroke:#000000; stroke-linecap:round; stroke-linejoin:round; stroke-width:2; stroke-opacity:0.1; fill:none" points="224.098,263.474 1152.76,263.474 "/>
<polyline clip-path="url(#clip592)" style="stroke:#000000; stroke-linecap:round; stroke-linejoin:round; stroke-width:2; stroke-opacity:0.1; fill:none" points="224.098,187.541 1152.76,187.541 "/>
<polyline clip-path="url(#clip590)" style="stroke:#000000; stroke-linecap:round; stroke-linejoin:round; stroke-width:4; stroke-opacity:1; fill:none" points="224.098,686.448 1152.76,686.448 "/>
<polyline clip-path="url(#clip590)" style="stroke:#000000; stroke-linecap:round; stroke-linejoin:round; stroke-width:4; stroke-opacity:1; fill:none" points="250.381,686.448 250.381,667.55 "/>
<polyline clip-path="url(#clip590)" style="stroke:#000000; stroke-linecap:round; stroke-linejoin:round; stroke-width:4; stroke-opacity:1; fill:none" points="469.404,686.448 469.404,667.55 "/>
<polyline clip-path="url(#clip590)" style="stroke:#000000; stroke-linecap:round; stroke-linejoin:round; stroke-width:4; stroke-opacity:1; fill:none" points="688.427,686.448 688.427,667.55 "/>
<polyline clip-path="url(#clip590)" style="stroke:#000000; stroke-linecap:round; stroke-linejoin:round; stroke-width:4; stroke-opacity:1; fill:none" points="907.45,686.448 907.45,667.55 "/>
<polyline clip-path="url(#clip590)" style="stroke:#000000; stroke-linecap:round; stroke-linejoin:round; stroke-width:4; stroke-opacity:1; fill:none" points="1126.47,686.448 1126.47,667.55 "/>
<path clip-path="url(#clip590)" d="M196.909 732.019 L226.584 732.019 L226.584 735.954 L196.909 735.954 L196.909 732.019 Z" fill="#000000" fill-rule="nonzero" fill-opacity="1" /><path clip-path="url(#clip590)" d="M237.487 744.913 L245.126 744.913 L245.126 718.547 L236.816 720.214 L236.816 715.955 L245.08 714.288 L249.756 714.288 L249.756 744.913 L257.394 744.913 L257.394 748.848 L237.487 748.848 L237.487 744.913 Z" fill="#000000" fill-rule="nonzero" fill-opacity="1" /><path clip-path="url(#clip590)" d="M266.839 742.968 L271.723 742.968 L271.723 748.848 L266.839 748.848 L266.839 742.968 Z" fill="#000000" fill-rule="nonzero" fill-opacity="1" /><path clip-path="url(#clip590)" d="M291.908 717.367 Q288.297 717.367 286.468 720.931 Q284.663 724.473 284.663 731.603 Q284.663 738.709 286.468 742.274 Q288.297 745.815 291.908 745.815 Q295.542 745.815 297.348 742.274 Q299.177 738.709 299.177 731.603 Q299.177 724.473 297.348 720.931 Q295.542 717.367 291.908 717.367 M291.908 713.663 Q297.718 713.663 300.774 718.269 Q303.853 722.853 303.853 731.603 Q303.853 740.329 300.774 744.936 Q297.718 749.519 291.908 749.519 Q286.098 749.519 283.019 744.936 Q279.964 740.329 279.964 731.603 Q279.964 722.853 283.019 718.269 Q286.098 713.663 291.908 713.663 Z" fill="#000000" fill-rule="nonzero" fill-opacity="1" /><path clip-path="url(#clip590)" d="M416.43 732.019 L446.105 732.019 L446.105 735.954 L416.43 735.954 L416.43 732.019 Z" fill="#000000" fill-rule="nonzero" fill-opacity="1" /><path clip-path="url(#clip590)" d="M466.198 717.367 Q462.587 717.367 460.758 720.931 Q458.952 724.473 458.952 731.603 Q458.952 738.709 460.758 742.274 Q462.587 745.815 466.198 745.815 Q469.832 745.815 471.638 742.274 Q473.466 738.709 473.466 731.603 Q473.466 724.473 471.638 720.931 Q469.832 717.367 466.198 717.367 M466.198 713.663 Q472.008 713.663 475.063 718.269 Q478.142 722.853 478.142 731.603 Q478.142 740.329 475.063 744.936 Q472.008 749.519 466.198 749.519 Q460.388 749.519 457.309 744.936 Q454.253 740.329 454.253 731.603 Q454.253 722.853 457.309 718.269 Q460.388 713.663 466.198 713.663 Z" fill="#000000" fill-rule="nonzero" fill-opacity="1" /><path clip-path="url(#clip590)" d="M486.36 742.968 L491.244 742.968 L491.244 748.848 L486.36 748.848 L486.36 742.968 Z" fill="#000000" fill-rule="nonzero" fill-opacity="1" /><path clip-path="url(#clip590)" d="M501.475 714.288 L519.832 714.288 L519.832 718.223 L505.758 718.223 L505.758 726.695 Q506.776 726.348 507.795 726.186 Q508.813 726.001 509.832 726.001 Q515.619 726.001 518.998 729.172 Q522.378 732.343 522.378 737.76 Q522.378 743.339 518.906 746.44 Q515.434 749.519 509.114 749.519 Q506.938 749.519 504.67 749.149 Q502.424 748.778 500.017 748.038 L500.017 743.339 Q502.1 744.473 504.323 745.028 Q506.545 745.584 509.022 745.584 Q513.026 745.584 515.364 743.478 Q517.702 741.371 517.702 737.76 Q517.702 734.149 515.364 732.042 Q513.026 729.936 509.022 729.936 Q507.147 729.936 505.272 730.353 Q503.42 730.769 501.475 731.649 L501.475 714.288 Z" fill="#000000" fill-rule="nonzero" fill-opacity="1" /><path clip-path="url(#clip590)" d="M665.811 717.367 Q662.2 717.367 660.371 720.931 Q658.566 724.473 658.566 731.603 Q658.566 738.709 660.371 742.274 Q662.2 745.815 665.811 745.815 Q669.446 745.815 671.251 742.274 Q673.08 738.709 673.08 731.603 Q673.08 724.473 671.251 720.931 Q669.446 717.367 665.811 717.367 M665.811 713.663 Q671.621 713.663 674.677 718.269 Q677.756 722.853 677.756 731.603 Q677.756 740.329 674.677 744.936 Q671.621 749.519 665.811 749.519 Q660.001 749.519 656.922 744.936 Q653.867 740.329 653.867 731.603 Q653.867 722.853 656.922 718.269 Q660.001 713.663 665.811 713.663 Z" fill="#000000" fill-rule="nonzero" fill-opacity="1" /><path clip-path="url(#clip590)" d="M685.973 742.968 L690.857 742.968 L690.857 748.848 L685.973 748.848 L685.973 742.968 Z" fill="#000000" fill-rule="nonzero" fill-opacity="1" /><path clip-path="url(#clip590)" d="M711.043 717.367 Q707.431 717.367 705.603 720.931 Q703.797 724.473 703.797 731.603 Q703.797 738.709 705.603 742.274 Q707.431 745.815 711.043 745.815 Q714.677 745.815 716.482 742.274 Q718.311 738.709 718.311 731.603 Q718.311 724.473 716.482 720.931 Q714.677 717.367 711.043 717.367 M711.043 713.663 Q716.853 713.663 719.908 718.269 Q722.987 722.853 722.987 731.603 Q722.987 740.329 719.908 744.936 Q716.853 749.519 711.043 749.519 Q705.232 749.519 702.154 744.936 Q699.098 740.329 699.098 731.603 Q699.098 722.853 702.154 718.269 Q705.232 713.663 711.043 713.663 Z" fill="#000000" fill-rule="nonzero" fill-opacity="1" /><path clip-path="url(#clip590)" d="M885.332 717.367 Q881.721 717.367 879.892 720.931 Q878.087 724.473 878.087 731.603 Q878.087 738.709 879.892 742.274 Q881.721 745.815 885.332 745.815 Q888.966 745.815 890.772 742.274 Q892.601 738.709 892.601 731.603 Q892.601 724.473 890.772 720.931 Q888.966 717.367 885.332 717.367 M885.332 713.663 Q891.142 713.663 894.198 718.269 Q897.276 722.853 897.276 731.603 Q897.276 740.329 894.198 744.936 Q891.142 749.519 885.332 749.519 Q879.522 749.519 876.443 744.936 Q873.388 740.329 873.388 731.603 Q873.388 722.853 876.443 718.269 Q879.522 713.663 885.332 713.663 Z" fill="#000000" fill-rule="nonzero" fill-opacity="1" /><path clip-path="url(#clip590)" d="M905.494 742.968 L910.378 742.968 L910.378 748.848 L905.494 748.848 L905.494 742.968 Z" fill="#000000" fill-rule="nonzero" fill-opacity="1" /><path clip-path="url(#clip590)" d="M920.61 714.288 L938.966 714.288 L938.966 718.223 L924.892 718.223 L924.892 726.695 Q925.911 726.348 926.929 726.186 Q927.948 726.001 928.966 726.001 Q934.753 726.001 938.133 729.172 Q941.512 732.343 941.512 737.76 Q941.512 743.339 938.04 746.44 Q934.568 749.519 928.249 749.519 Q926.073 749.519 923.804 749.149 Q921.559 748.778 919.151 748.038 L919.151 743.339 Q921.235 744.473 923.457 745.028 Q925.679 745.584 928.156 745.584 Q932.161 745.584 934.498 743.478 Q936.836 741.371 936.836 737.76 Q936.836 734.149 934.498 732.042 Q932.161 729.936 928.156 729.936 Q926.281 729.936 924.406 730.353 Q922.554 730.769 920.61 731.649 L920.61 714.288 Z" fill="#000000" fill-rule="nonzero" fill-opacity="1" /><path clip-path="url(#clip590)" d="M1093.63 744.913 L1101.26 744.913 L1101.26 718.547 L1092.95 720.214 L1092.95 715.955 L1101.22 714.288 L1105.89 714.288 L1105.89 744.913 L1113.53 744.913 L1113.53 748.848 L1093.63 748.848 L1093.63 744.913 Z" fill="#000000" fill-rule="nonzero" fill-opacity="1" /><path clip-path="url(#clip590)" d="M1122.98 742.968 L1127.86 742.968 L1127.86 748.848 L1122.98 748.848 L1122.98 742.968 Z" fill="#000000" fill-rule="nonzero" fill-opacity="1" /><path clip-path="url(#clip590)" d="M1148.05 717.367 Q1144.44 717.367 1142.61 720.931 Q1140.8 724.473 1140.8 731.603 Q1140.8 738.709 1142.61 742.274 Q1144.44 745.815 1148.05 745.815 Q1151.68 745.815 1153.49 742.274 Q1155.32 738.709 1155.32 731.603 Q1155.32 724.473 1153.49 720.931 Q1151.68 717.367 1148.05 717.367 M1148.05 713.663 Q1153.86 713.663 1156.91 718.269 Q1159.99 722.853 1159.99 731.603 Q1159.99 740.329 1156.91 744.936 Q1153.86 749.519 1148.05 749.519 Q1142.24 749.519 1139.16 744.936 Q1136.1 740.329 1136.1 731.603 Q1136.1 722.853 1139.16 718.269 Q1142.24 713.663 1148.05 713.663 Z" fill="#000000" fill-rule="nonzero" fill-opacity="1" /><polyline clip-path="url(#clip590)" style="stroke:#000000; stroke-linecap:round; stroke-linejoin:round; stroke-width:4; stroke-opacity:1; fill:none" points="224.098,686.448 224.098,123.472 "/>
<polyline clip-path="url(#clip590)" style="stroke:#000000; stroke-linecap:round; stroke-linejoin:round; stroke-width:4; stroke-opacity:1; fill:none" points="224.098,643.137 242.996,643.137 "/>
<polyline clip-path="url(#clip590)" style="stroke:#000000; stroke-linecap:round; stroke-linejoin:round; stroke-width:4; stroke-opacity:1; fill:none" points="224.098,567.204 242.996,567.204 "/>
<polyline clip-path="url(#clip590)" style="stroke:#000000; stroke-linecap:round; stroke-linejoin:round; stroke-width:4; stroke-opacity:1; fill:none" points="224.098,491.272 242.996,491.272 "/>
<polyline clip-path="url(#clip590)" style="stroke:#000000; stroke-linecap:round; stroke-linejoin:round; stroke-width:4; stroke-opacity:1; fill:none" points="224.098,415.339 242.996,415.339 "/>
<polyline clip-path="url(#clip590)" style="stroke:#000000; stroke-linecap:round; stroke-linejoin:round; stroke-width:4; stroke-opacity:1; fill:none" points="224.098,339.406 242.996,339.406 "/>
<polyline clip-path="url(#clip590)" style="stroke:#000000; stroke-linecap:round; stroke-linejoin:round; stroke-width:4; stroke-opacity:1; fill:none" points="224.098,263.474 242.996,263.474 "/>
<polyline clip-path="url(#clip590)" style="stroke:#000000; stroke-linecap:round; stroke-linejoin:round; stroke-width:4; stroke-opacity:1; fill:none" points="224.098,187.541 242.996,187.541 "/>
<path clip-path="url(#clip590)" d="M80.992 643.588 L110.668 643.588 L110.668 647.523 L80.992 647.523 L80.992 643.588 Z" fill="#000000" fill-rule="nonzero" fill-opacity="1" /><path clip-path="url(#clip590)" d="M130.76 628.935 Q127.149 628.935 125.32 632.5 Q123.515 636.042 123.515 643.171 Q123.515 650.278 125.32 653.842 Q127.149 657.384 130.76 657.384 Q134.394 657.384 136.2 653.842 Q138.029 650.278 138.029 643.171 Q138.029 636.042 136.2 632.5 Q134.394 628.935 130.76 628.935 M130.76 625.232 Q136.57 625.232 139.626 629.838 Q142.705 634.421 142.705 643.171 Q142.705 651.898 139.626 656.505 Q136.57 661.088 130.76 661.088 Q124.95 661.088 121.871 656.505 Q118.816 651.898 118.816 643.171 Q118.816 634.421 121.871 629.838 Q124.95 625.232 130.76 625.232 Z" fill="#000000" fill-rule="nonzero" fill-opacity="1" /><path clip-path="url(#clip590)" d="M150.922 654.537 L155.806 654.537 L155.806 660.417 L150.922 660.417 L150.922 654.537 Z" fill="#000000" fill-rule="nonzero" fill-opacity="1" /><path clip-path="url(#clip590)" d="M176.57 641.273 Q173.422 641.273 171.57 643.426 Q169.741 645.579 169.741 649.329 Q169.741 653.055 171.57 655.231 Q173.422 657.384 176.57 657.384 Q179.718 657.384 181.547 655.231 Q183.399 653.055 183.399 649.329 Q183.399 645.579 181.547 643.426 Q179.718 641.273 176.57 641.273 M185.853 626.62 L185.853 630.88 Q184.093 630.046 182.288 629.607 Q180.505 629.167 178.746 629.167 Q174.116 629.167 171.663 632.292 Q169.232 635.417 168.885 641.736 Q170.251 639.722 172.311 638.657 Q174.371 637.569 176.848 637.569 Q182.056 637.569 185.065 640.741 Q188.098 643.889 188.098 649.329 Q188.098 654.653 184.95 657.87 Q181.802 661.088 176.57 661.088 Q170.575 661.088 167.404 656.505 Q164.232 651.898 164.232 643.171 Q164.232 634.977 168.121 630.116 Q172.01 625.232 178.561 625.232 Q180.32 625.232 182.103 625.579 Q183.908 625.926 185.853 626.62 Z" fill="#000000" fill-rule="nonzero" fill-opacity="1" /><path clip-path="url(#clip590)" d="M80.6679 567.655 L110.344 567.655 L110.344 571.591 L80.6679 571.591 L80.6679 567.655 Z" fill="#000000" fill-rule="nonzero" fill-opacity="1" /><path clip-path="url(#clip590)" d="M130.436 553.003 Q126.825 553.003 124.996 556.568 Q123.191 560.109 123.191 567.239 Q123.191 574.345 124.996 577.91 Q126.825 581.452 130.436 581.452 Q134.07 581.452 135.876 577.91 Q137.705 574.345 137.705 567.239 Q137.705 560.109 135.876 556.568 Q134.07 553.003 130.436 553.003 M130.436 549.299 Q136.246 549.299 139.302 553.905 Q142.381 558.489 142.381 567.239 Q142.381 575.966 139.302 580.572 Q136.246 585.155 130.436 585.155 Q124.626 585.155 121.547 580.572 Q118.492 575.966 118.492 567.239 Q118.492 558.489 121.547 553.905 Q124.626 549.299 130.436 549.299 Z" fill="#000000" fill-rule="nonzero" fill-opacity="1" /><path clip-path="url(#clip590)" d="M150.598 578.604 L155.482 578.604 L155.482 584.484 L150.598 584.484 L150.598 578.604 Z" fill="#000000" fill-rule="nonzero" fill-opacity="1" /><path clip-path="url(#clip590)" d="M178.515 553.998 L166.709 572.447 L178.515 572.447 L178.515 553.998 M177.288 549.924 L183.167 549.924 L183.167 572.447 L188.098 572.447 L188.098 576.336 L183.167 576.336 L183.167 584.484 L178.515 584.484 L178.515 576.336 L162.913 576.336 L162.913 571.822 L177.288 549.924 Z" fill="#000000" fill-rule="nonzero" fill-opacity="1" /><path clip-path="url(#clip590)" d="M82.7512 491.723 L112.427 491.723 L112.427 495.658 L82.7512 495.658 L82.7512 491.723 Z" fill="#000000" fill-rule="nonzero" fill-opacity="1" /><path clip-path="url(#clip590)" d="M132.519 477.07 Q128.908 477.07 127.08 480.635 Q125.274 484.177 125.274 491.306 Q125.274 498.413 127.08 501.977 Q128.908 505.519 132.519 505.519 Q136.154 505.519 137.959 501.977 Q139.788 498.413 139.788 491.306 Q139.788 484.177 137.959 480.635 Q136.154 477.07 132.519 477.07 M132.519 473.367 Q138.33 473.367 141.385 477.973 Q144.464 482.556 144.464 491.306 Q144.464 500.033 141.385 504.639 Q138.33 509.223 132.519 509.223 Q126.709 509.223 123.631 504.639 Q120.575 500.033 120.575 491.306 Q120.575 482.556 123.631 477.973 Q126.709 473.367 132.519 473.367 Z" fill="#000000" fill-rule="nonzero" fill-opacity="1" /><path clip-path="url(#clip590)" d="M152.681 502.672 L157.566 502.672 L157.566 508.552 L152.681 508.552 L152.681 502.672 Z" fill="#000000" fill-rule="nonzero" fill-opacity="1" /><path clip-path="url(#clip590)" d="M171.779 504.616 L188.098 504.616 L188.098 508.552 L166.154 508.552 L166.154 504.616 Q168.816 501.862 173.399 497.232 Q178.005 492.579 179.186 491.237 Q181.431 488.714 182.311 486.978 Q183.214 485.218 183.214 483.528 Q183.214 480.774 181.269 479.038 Q179.348 477.302 176.246 477.302 Q174.047 477.302 171.593 478.066 Q169.163 478.829 166.385 480.38 L166.385 475.658 Q169.209 474.524 171.663 473.945 Q174.116 473.367 176.153 473.367 Q181.524 473.367 184.718 476.052 Q187.913 478.737 187.913 483.228 Q187.913 485.357 187.103 487.278 Q186.315 489.177 184.209 491.769 Q183.63 492.44 180.528 495.658 Q177.427 498.852 171.779 504.616 Z" fill="#000000" fill-rule="nonzero" fill-opacity="1" /><path clip-path="url(#clip590)" d="M130.922 401.138 Q127.311 401.138 125.482 404.702 Q123.677 408.244 123.677 415.374 Q123.677 422.48 125.482 426.045 Q127.311 429.587 130.922 429.587 Q134.556 429.587 136.362 426.045 Q138.191 422.48 138.191 415.374 Q138.191 408.244 136.362 404.702 Q134.556 401.138 130.922 401.138 M130.922 397.434 Q136.732 397.434 139.788 402.04 Q142.867 406.624 142.867 415.374 Q142.867 424.101 139.788 428.707 Q136.732 433.29 130.922 433.29 Q125.112 433.29 122.033 428.707 Q118.978 424.101 118.978 415.374 Q118.978 406.624 122.033 402.04 Q125.112 397.434 130.922 397.434 Z" fill="#000000" fill-rule="nonzero" fill-opacity="1" /><path clip-path="url(#clip590)" d="M151.084 426.739 L155.968 426.739 L155.968 432.619 L151.084 432.619 L151.084 426.739 Z" fill="#000000" fill-rule="nonzero" fill-opacity="1" /><path clip-path="url(#clip590)" d="M176.153 401.138 Q172.542 401.138 170.714 404.702 Q168.908 408.244 168.908 415.374 Q168.908 422.48 170.714 426.045 Q172.542 429.587 176.153 429.587 Q179.788 429.587 181.593 426.045 Q183.422 422.48 183.422 415.374 Q183.422 408.244 181.593 404.702 Q179.788 401.138 176.153 401.138 M176.153 397.434 Q181.964 397.434 185.019 402.04 Q188.098 406.624 188.098 415.374 Q188.098 424.101 185.019 428.707 Q181.964 433.29 176.153 433.29 Q170.343 433.29 167.265 428.707 Q164.209 424.101 164.209 415.374 Q164.209 406.624 167.265 402.04 Q170.343 397.434 176.153 397.434 Z" fill="#000000" fill-rule="nonzero" fill-opacity="1" /><path clip-path="url(#clip590)" d="M132.519 325.205 Q128.908 325.205 127.08 328.77 Q125.274 332.312 125.274 339.441 Q125.274 346.548 127.08 350.112 Q128.908 353.654 132.519 353.654 Q136.154 353.654 137.959 350.112 Q139.788 346.548 139.788 339.441 Q139.788 332.312 137.959 328.77 Q136.154 325.205 132.519 325.205 M132.519 321.501 Q138.33 321.501 141.385 326.108 Q144.464 330.691 144.464 339.441 Q144.464 348.168 141.385 352.774 Q138.33 357.358 132.519 357.358 Q126.709 357.358 123.631 352.774 Q120.575 348.168 120.575 339.441 Q120.575 330.691 123.631 326.108 Q126.709 321.501 132.519 321.501 Z" fill="#000000" fill-rule="nonzero" fill-opacity="1" /><path clip-path="url(#clip590)" d="M152.681 350.807 L157.566 350.807 L157.566 356.686 L152.681 356.686 L152.681 350.807 Z" fill="#000000" fill-rule="nonzero" fill-opacity="1" /><path clip-path="url(#clip590)" d="M171.779 352.751 L188.098 352.751 L188.098 356.686 L166.154 356.686 L166.154 352.751 Q168.816 349.997 173.399 345.367 Q178.005 340.714 179.186 339.372 Q181.431 336.849 182.311 335.113 Q183.214 333.353 183.214 331.663 Q183.214 328.909 181.269 327.173 Q179.348 325.437 176.246 325.437 Q174.047 325.437 171.593 326.201 Q169.163 326.964 166.385 328.515 L166.385 323.793 Q169.209 322.659 171.663 322.08 Q174.116 321.501 176.153 321.501 Q181.524 321.501 184.718 324.187 Q187.913 326.872 187.913 331.363 Q187.913 333.492 187.103 335.413 Q186.315 337.312 184.209 339.904 Q183.63 340.575 180.528 343.793 Q177.427 346.987 171.779 352.751 Z" fill="#000000" fill-rule="nonzero" fill-opacity="1" /><path clip-path="url(#clip590)" d="M130.436 249.273 Q126.825 249.273 124.996 252.837 Q123.191 256.379 123.191 263.509 Q123.191 270.615 124.996 274.18 Q126.825 277.722 130.436 277.722 Q134.07 277.722 135.876 274.18 Q137.705 270.615 137.705 263.509 Q137.705 256.379 135.876 252.837 Q134.07 249.273 130.436 249.273 M130.436 245.569 Q136.246 245.569 139.302 250.175 Q142.381 254.759 142.381 263.509 Q142.381 272.235 139.302 276.842 Q136.246 281.425 130.436 281.425 Q124.626 281.425 121.547 276.842 Q118.492 272.235 118.492 263.509 Q118.492 254.759 121.547 250.175 Q124.626 245.569 130.436 245.569 Z" fill="#000000" fill-rule="nonzero" fill-opacity="1" /><path clip-path="url(#clip590)" d="M150.598 274.874 L155.482 274.874 L155.482 280.754 L150.598 280.754 L150.598 274.874 Z" fill="#000000" fill-rule="nonzero" fill-opacity="1" /><path clip-path="url(#clip590)" d="M178.515 250.268 L166.709 268.717 L178.515 268.717 L178.515 250.268 M177.288 246.194 L183.167 246.194 L183.167 268.717 L188.098 268.717 L188.098 272.606 L183.167 272.606 L183.167 280.754 L178.515 280.754 L178.515 272.606 L162.913 272.606 L162.913 268.092 L177.288 246.194 Z" fill="#000000" fill-rule="nonzero" fill-opacity="1" /><path clip-path="url(#clip590)" d="M130.76 173.34 Q127.149 173.34 125.32 176.905 Q123.515 180.447 123.515 187.576 Q123.515 194.683 125.32 198.247 Q127.149 201.789 130.76 201.789 Q134.394 201.789 136.2 198.247 Q138.029 194.683 138.029 187.576 Q138.029 180.447 136.2 176.905 Q134.394 173.34 130.76 173.34 M130.76 169.636 Q136.57 169.636 139.626 174.243 Q142.705 178.826 142.705 187.576 Q142.705 196.303 139.626 200.909 Q136.57 205.493 130.76 205.493 Q124.95 205.493 121.871 200.909 Q118.816 196.303 118.816 187.576 Q118.816 178.826 121.871 174.243 Q124.95 169.636 130.76 169.636 Z" fill="#000000" fill-rule="nonzero" fill-opacity="1" /><path clip-path="url(#clip590)" d="M150.922 198.942 L155.806 198.942 L155.806 204.821 L150.922 204.821 L150.922 198.942 Z" fill="#000000" fill-rule="nonzero" fill-opacity="1" /><path clip-path="url(#clip590)" d="M176.57 185.678 Q173.422 185.678 171.57 187.831 Q169.741 189.984 169.741 193.734 Q169.741 197.46 171.57 199.636 Q173.422 201.789 176.57 201.789 Q179.718 201.789 181.547 199.636 Q183.399 197.46 183.399 193.734 Q183.399 189.984 181.547 187.831 Q179.718 185.678 176.57 185.678 M185.853 171.025 L185.853 175.285 Q184.093 174.451 182.288 174.011 Q180.505 173.572 178.746 173.572 Q174.116 173.572 171.663 176.697 Q169.232 179.822 168.885 186.141 Q170.251 184.127 172.311 183.062 Q174.371 181.974 176.848 181.974 Q182.056 181.974 185.065 185.146 Q188.098 188.294 188.098 193.734 Q188.098 199.058 184.95 202.275 Q181.802 205.493 176.57 205.493 Q170.575 205.493 167.404 200.909 Q164.232 196.303 164.232 187.576 Q164.232 179.382 168.121 174.521 Q172.01 169.636 178.561 169.636 Q180.32 169.636 182.103 169.984 Q183.908 170.331 185.853 171.025 Z" fill="#000000" fill-rule="nonzero" fill-opacity="1" /><path clip-path="url(#clip590)" d="M562.97 14.324 L562.97 27.2059 L578.323 27.2059 L578.323 32.9987 L562.97 32.9987 L562.97 57.6282 Q562.97 63.1779 564.469 64.7578 Q566.009 66.3376 570.667 66.3376 L578.323 66.3376 L578.323 72.576 L570.667 72.576 Q562.039 72.576 558.757 69.3758 Q555.476 66.1351 555.476 57.6282 L555.476 32.9987 L550.007 32.9987 L550.007 27.2059 L555.476 27.2059 L555.476 14.324 L562.97 14.324 Z" fill="#000000" fill-rule="nonzero" fill-opacity="1" /><path clip-path="url(#clip590)" d="M615.47 34.9026 L667.403 34.9026 L667.403 41.7081 L615.47 41.7081 L615.47 34.9026 M615.47 51.4303 L667.403 51.4303 L667.403 58.3168 L615.47 58.3168 L615.47 51.4303 Z" fill="#000000" fill-rule="nonzero" fill-opacity="1" /><path clip-path="url(#clip590)" d="M728.936 17.4837 Q722.617 17.4837 719.416 23.7221 Q716.257 29.92 716.257 42.3968 Q716.257 54.833 719.416 61.0714 Q722.617 67.2693 728.936 67.2693 Q735.296 67.2693 738.456 61.0714 Q741.656 54.833 741.656 42.3968 Q741.656 29.92 738.456 23.7221 Q735.296 17.4837 728.936 17.4837 M728.936 11.0023 Q739.104 11.0023 744.451 19.0636 Q749.839 27.0843 749.839 42.3968 Q749.839 57.6687 744.451 65.73 Q739.104 73.7508 728.936 73.7508 Q718.768 73.7508 713.38 65.73 Q708.033 57.6687 708.033 42.3968 Q708.033 27.0843 713.38 19.0636 Q718.768 11.0023 728.936 11.0023 Z" fill="#000000" fill-rule="nonzero" fill-opacity="1" /><path clip-path="url(#clip590)" d="M764.219 62.2867 L772.767 62.2867 L772.767 72.576 L764.219 72.576 L764.219 62.2867 Z" fill="#000000" fill-rule="nonzero" fill-opacity="1" /><path clip-path="url(#clip590)" d="M792.009 65.6895 L805.376 65.6895 L805.376 19.5497 L790.834 22.4663 L790.834 15.0127 L805.295 12.096 L813.478 12.096 L813.478 65.6895 L826.846 65.6895 L826.846 72.576 L792.009 72.576 L792.009 65.6895 Z" fill="#000000" fill-rule="nonzero" fill-opacity="1" /><polyline clip-path="url(#clip592)" style="stroke:#009af9; stroke-linecap:round; stroke-linejoin:round; stroke-width:4; stroke-opacity:1; fill:none" points="250.381,401.747 254.761,391.06 259.142,380.436 263.522,369.895 267.902,359.459 272.283,349.149 276.663,338.985 281.044,328.99 285.424,319.182 289.805,309.58 294.185,300.203 298.566,291.064 302.946,282.179 307.327,273.558 311.707,265.211 316.088,257.144 320.468,249.362 324.849,241.868 329.229,234.66 333.609,227.736 337.99,221.093 342.37,214.725 346.751,208.626 351.131,202.787 355.512,197.201 359.892,191.861 364.273,186.76 368.653,181.892 373.034,177.254 377.414,172.843 381.795,168.659 386.175,164.705 390.555,160.987 394.936,157.512 399.316,154.291 403.697,151.337 408.077,148.666 412.458,146.294 416.838,144.241 421.219,142.525 425.599,141.166 429.98,140.183 434.36,139.591 438.741,139.405 443.121,139.638 447.501,140.296 451.882,141.383 456.262,142.897 460.643,144.831 465.023,147.174 469.404,149.908 473.784,153.012 478.165,156.458 482.545,160.219 486.926,164.259 491.306,168.545 495.687,173.04 500.067,177.708 504.447,182.513 508.828,187.422 513.208,192.403 517.589,197.426 521.969,202.466 526.35,207.501 530.73,212.513 535.111,217.485 539.491,222.408 543.872,227.273 548.252,232.075 552.633,236.813 557.013,241.487 561.393,246.101 565.774,250.657 570.154,255.164 574.535,259.628 578.915,264.059 583.296,268.464 587.676,272.855 592.057,277.241 596.437,281.632 600.818,286.041 605.198,290.476 609.579,294.95 613.959,299.472 618.339,304.054 622.72,308.708 627.1,313.444 631.481,318.276 635.861,323.216 640.242,328.28 644.622,333.484 649.003,338.847 653.383,344.392 657.764,350.145 662.144,356.139 666.525,362.411 670.905,369.006 675.286,375.974 679.666,383.37 684.046,391.253 688.427,399.678 692.807,408.687 697.188,418.3 701.568,428.494 705.949,439.186 710.329,450.225 714.71,461.378 719.09,472.352 723.471,482.82 727.851,492.471 732.232,501.072 736.612,508.508 740.992,514.805 745.373,520.125 749.753,524.725 754.134,528.902 758.514,532.938 762.895,537.055 767.275,541.387 771.656,545.979 776.036,550.806 780.417,555.803 784.797,560.888 789.178,565.983 793.558,571.026 797.938,575.972 802.319,580.793 806.699,585.474 811.08,590.008 815.46,594.396 819.841,598.641 824.221,602.748 828.602,606.723 832.982,610.573 837.363,614.304 841.743,617.921 846.124,621.428 850.504,624.83 854.884,628.13 859.265,631.329 863.645,634.429 868.026,637.43 872.406,640.333 876.787,643.135 881.167,645.835 885.548,648.428 889.928,650.912 894.309,653.282 898.689,655.532 903.07,657.657 907.45,659.648 911.83,661.5 916.211,663.204 920.591,664.753 924.972,666.137 929.352,667.349 933.733,668.38 938.113,669.22 942.494,669.862 946.874,670.296 951.255,670.515 955.635,670.509 960.016,670.272 964.396,669.794 968.776,669.07 973.157,668.092 977.537,666.854 981.918,665.35 986.298,663.573 990.679,661.52 995.059,659.186 999.44,656.567 1003.82,653.66 1008.2,650.463 1012.58,646.975 1016.96,643.193 1021.34,639.118 1025.72,634.751 1030.1,630.091 1034.48,625.14 1038.86,619.897 1043.24,614.363 1047.62,608.539 1052.01,602.421 1056.39,596.007 1060.77,589.29 1065.15,582.263 1069.53,574.91 1073.91,567.215 1078.29,559.151 1082.67,550.684 1087.05,541.77 1091.43,532.349 1095.81,522.345 1100.19,511.659 1104.57,500.161 1108.95,487.684 1113.33,474.012 1117.71,458.864 1122.09,441.872 1126.47,422.555 "/>
<path clip-path="url(#clip590)" d="M976.505 245.918 L1121.8 245.918 L1121.8 142.238 L976.505 142.238  Z" fill="#ffffff" fill-rule="evenodd" fill-opacity="1"/>
<polyline clip-path="url(#clip590)" style="stroke:#000000; stroke-linecap:round; stroke-linejoin:round; stroke-width:4; stroke-opacity:1; fill:none" points="976.505,245.918 1121.8,245.918 1121.8,142.238 976.505,142.238 976.505,245.918 "/>
<polyline clip-path="url(#clip590)" style="stroke:#009af9; stroke-linecap:round; stroke-linejoin:round; stroke-width:4; stroke-opacity:1; fill:none" points="986.823,194.078 1048.73,194.078 "/>
<path clip-path="url(#clip590)" d="M1072.89 213.765 Q1071.09 218.395 1069.38 219.807 Q1067.66 221.219 1064.79 221.219 L1061.39 221.219 L1061.39 217.654 L1063.89 217.654 Q1065.65 217.654 1066.62 216.821 Q1067.59 215.988 1068.77 212.886 L1069.54 210.941 L1059.05 185.432 L1063.57 185.432 L1071.67 205.71 L1079.77 185.432 L1084.28 185.432 L1072.89 213.765 Z" fill="#000000" fill-rule="nonzero" fill-opacity="1" /><path clip-path="url(#clip590)" d="M1091.57 207.423 L1099.21 207.423 L1099.21 181.057 L1090.9 182.724 L1090.9 178.465 L1099.17 176.798 L1103.84 176.798 L1103.84 207.423 L1111.48 207.423 L1111.48 211.358 L1091.57 211.358 L1091.57 207.423 Z" fill="#000000" fill-rule="nonzero" fill-opacity="1" /><path clip-path="url(#clip590)" d="M1424.1 686.448 L2352.76 686.448 L2352.76 123.472 L1424.1 123.472  Z" fill="#ffffff" fill-rule="evenodd" fill-opacity="1"/>
<defs>
  <clipPath id="clip593">
    <rect x="1424" y="123" width="930" height="564"/>
  </clipPath>
</defs>
<polyline clip-path="url(#clip593)" style="stroke:#000000; stroke-linecap:round; stroke-linejoin:round; stroke-width:2; stroke-opacity:0.1; fill:none" points="1450.38,686.448 1450.38,123.472 "/>
<polyline clip-path="url(#clip593)" style="stroke:#000000; stroke-linecap:round; stroke-linejoin:round; stroke-width:2; stroke-opacity:0.1; fill:none" points="1669.4,686.448 1669.4,123.472 "/>
<polyline clip-path="url(#clip593)" style="stroke:#000000; stroke-linecap:round; stroke-linejoin:round; stroke-width:2; stroke-opacity:0.1; fill:none" points="1888.43,686.448 1888.43,123.472 "/>
<polyline clip-path="url(#clip593)" style="stroke:#000000; stroke-linecap:round; stroke-linejoin:round; stroke-width:2; stroke-opacity:0.1; fill:none" points="2107.45,686.448 2107.45,123.472 "/>
<polyline clip-path="url(#clip593)" style="stroke:#000000; stroke-linecap:round; stroke-linejoin:round; stroke-width:2; stroke-opacity:0.1; fill:none" points="2326.47,686.448 2326.47,123.472 "/>
<polyline clip-path="url(#clip593)" style="stroke:#000000; stroke-linecap:round; stroke-linejoin:round; stroke-width:2; stroke-opacity:0.1; fill:none" points="1424.1,608.8 2352.76,608.8 "/>
<polyline clip-path="url(#clip593)" style="stroke:#000000; stroke-linecap:round; stroke-linejoin:round; stroke-width:2; stroke-opacity:0.1; fill:none" points="1424.1,510.885 2352.76,510.885 "/>
<polyline clip-path="url(#clip593)" style="stroke:#000000; stroke-linecap:round; stroke-linejoin:round; stroke-width:2; stroke-opacity:0.1; fill:none" points="1424.1,412.971 2352.76,412.971 "/>
<polyline clip-path="url(#clip593)" style="stroke:#000000; stroke-linecap:round; stroke-linejoin:round; stroke-width:2; stroke-opacity:0.1; fill:none" points="1424.1,315.056 2352.76,315.056 "/>
<polyline clip-path="url(#clip593)" style="stroke:#000000; stroke-linecap:round; stroke-linejoin:round; stroke-width:2; stroke-opacity:0.1; fill:none" points="1424.1,217.142 2352.76,217.142 "/>
<polyline clip-path="url(#clip590)" style="stroke:#000000; stroke-linecap:round; stroke-linejoin:round; stroke-width:4; stroke-opacity:1; fill:none" points="1424.1,686.448 2352.76,686.448 "/>
<polyline clip-path="url(#clip590)" style="stroke:#000000; stroke-linecap:round; stroke-linejoin:round; stroke-width:4; stroke-opacity:1; fill:none" points="1450.38,686.448 1450.38,667.55 "/>
<polyline clip-path="url(#clip590)" style="stroke:#000000; stroke-linecap:round; stroke-linejoin:round; stroke-width:4; stroke-opacity:1; fill:none" points="1669.4,686.448 1669.4,667.55 "/>
<polyline clip-path="url(#clip590)" style="stroke:#000000; stroke-linecap:round; stroke-linejoin:round; stroke-width:4; stroke-opacity:1; fill:none" points="1888.43,686.448 1888.43,667.55 "/>
<polyline clip-path="url(#clip590)" style="stroke:#000000; stroke-linecap:round; stroke-linejoin:round; stroke-width:4; stroke-opacity:1; fill:none" points="2107.45,686.448 2107.45,667.55 "/>
<polyline clip-path="url(#clip590)" style="stroke:#000000; stroke-linecap:round; stroke-linejoin:round; stroke-width:4; stroke-opacity:1; fill:none" points="2326.47,686.448 2326.47,667.55 "/>
<path clip-path="url(#clip590)" d="M1396.91 732.019 L1426.58 732.019 L1426.58 735.954 L1396.91 735.954 L1396.91 732.019 Z" fill="#000000" fill-rule="nonzero" fill-opacity="1" /><path clip-path="url(#clip590)" d="M1437.49 744.913 L1445.13 744.913 L1445.13 718.547 L1436.82 720.214 L1436.82 715.955 L1445.08 714.288 L1449.76 714.288 L1449.76 744.913 L1457.39 744.913 L1457.39 748.848 L1437.49 748.848 L1437.49 744.913 Z" fill="#000000" fill-rule="nonzero" fill-opacity="1" /><path clip-path="url(#clip590)" d="M1466.84 742.968 L1471.72 742.968 L1471.72 748.848 L1466.84 748.848 L1466.84 742.968 Z" fill="#000000" fill-rule="nonzero" fill-opacity="1" /><path clip-path="url(#clip590)" d="M1491.91 717.367 Q1488.3 717.367 1486.47 720.931 Q1484.66 724.473 1484.66 731.603 Q1484.66 738.709 1486.47 742.274 Q1488.3 745.815 1491.91 745.815 Q1495.54 745.815 1497.35 742.274 Q1499.18 738.709 1499.18 731.603 Q1499.18 724.473 1497.35 720.931 Q1495.54 717.367 1491.91 717.367 M1491.91 713.663 Q1497.72 713.663 1500.77 718.269 Q1503.85 722.853 1503.85 731.603 Q1503.85 740.329 1500.77 744.936 Q1497.72 749.519 1491.91 749.519 Q1486.1 749.519 1483.02 744.936 Q1479.96 740.329 1479.96 731.603 Q1479.96 722.853 1483.02 718.269 Q1486.1 713.663 1491.91 713.663 Z" fill="#000000" fill-rule="nonzero" fill-opacity="1" /><path clip-path="url(#clip590)" d="M1616.43 732.019 L1646.11 732.019 L1646.11 735.954 L1616.43 735.954 L1616.43 732.019 Z" fill="#000000" fill-rule="nonzero" fill-opacity="1" /><path clip-path="url(#clip590)" d="M1666.2 717.367 Q1662.59 717.367 1660.76 720.931 Q1658.95 724.473 1658.95 731.603 Q1658.95 738.709 1660.76 742.274 Q1662.59 745.815 1666.2 745.815 Q1669.83 745.815 1671.64 742.274 Q1673.47 738.709 1673.47 731.603 Q1673.47 724.473 1671.64 720.931 Q1669.83 717.367 1666.2 717.367 M1666.2 713.663 Q1672.01 713.663 1675.06 718.269 Q1678.14 722.853 1678.14 731.603 Q1678.14 740.329 1675.06 744.936 Q1672.01 749.519 1666.2 749.519 Q1660.39 749.519 1657.31 744.936 Q1654.25 740.329 1654.25 731.603 Q1654.25 722.853 1657.31 718.269 Q1660.39 713.663 1666.2 713.663 Z" fill="#000000" fill-rule="nonzero" fill-opacity="1" /><path clip-path="url(#clip590)" d="M1686.36 742.968 L1691.24 742.968 L1691.24 748.848 L1686.36 748.848 L1686.36 742.968 Z" fill="#000000" fill-rule="nonzero" fill-opacity="1" /><path clip-path="url(#clip590)" d="M1701.48 714.288 L1719.83 714.288 L1719.83 718.223 L1705.76 718.223 L1705.76 726.695 Q1706.78 726.348 1707.79 726.186 Q1708.81 726.001 1709.83 726.001 Q1715.62 726.001 1719 729.172 Q1722.38 732.343 1722.38 737.76 Q1722.38 743.339 1718.91 746.44 Q1715.43 749.519 1709.11 749.519 Q1706.94 749.519 1704.67 749.149 Q1702.42 748.778 1700.02 748.038 L1700.02 743.339 Q1702.1 744.473 1704.32 745.028 Q1706.54 745.584 1709.02 745.584 Q1713.03 745.584 1715.36 743.478 Q1717.7 741.371 1717.7 737.76 Q1717.7 734.149 1715.36 732.042 Q1713.03 729.936 1709.02 729.936 Q1707.15 729.936 1705.27 730.353 Q1703.42 730.769 1701.48 731.649 L1701.48 714.288 Z" fill="#000000" fill-rule="nonzero" fill-opacity="1" /><path clip-path="url(#clip590)" d="M1865.81 717.367 Q1862.2 717.367 1860.37 720.931 Q1858.57 724.473 1858.57 731.603 Q1858.57 738.709 1860.37 742.274 Q1862.2 745.815 1865.81 745.815 Q1869.45 745.815 1871.25 742.274 Q1873.08 738.709 1873.08 731.603 Q1873.08 724.473 1871.25 720.931 Q1869.45 717.367 1865.81 717.367 M1865.81 713.663 Q1871.62 713.663 1874.68 718.269 Q1877.76 722.853 1877.76 731.603 Q1877.76 740.329 1874.68 744.936 Q1871.62 749.519 1865.81 749.519 Q1860 749.519 1856.92 744.936 Q1853.87 740.329 1853.87 731.603 Q1853.87 722.853 1856.92 718.269 Q1860 713.663 1865.81 713.663 Z" fill="#000000" fill-rule="nonzero" fill-opacity="1" /><path clip-path="url(#clip590)" d="M1885.97 742.968 L1890.86 742.968 L1890.86 748.848 L1885.97 748.848 L1885.97 742.968 Z" fill="#000000" fill-rule="nonzero" fill-opacity="1" /><path clip-path="url(#clip590)" d="M1911.04 717.367 Q1907.43 717.367 1905.6 720.931 Q1903.8 724.473 1903.8 731.603 Q1903.8 738.709 1905.6 742.274 Q1907.43 745.815 1911.04 745.815 Q1914.68 745.815 1916.48 742.274 Q1918.31 738.709 1918.31 731.603 Q1918.31 724.473 1916.48 720.931 Q1914.68 717.367 1911.04 717.367 M1911.04 713.663 Q1916.85 713.663 1919.91 718.269 Q1922.99 722.853 1922.99 731.603 Q1922.99 740.329 1919.91 744.936 Q1916.85 749.519 1911.04 749.519 Q1905.23 749.519 1902.15 744.936 Q1899.1 740.329 1899.1 731.603 Q1899.1 722.853 1902.15 718.269 Q1905.23 713.663 1911.04 713.663 Z" fill="#000000" fill-rule="nonzero" fill-opacity="1" /><path clip-path="url(#clip590)" d="M2085.33 717.367 Q2081.72 717.367 2079.89 720.931 Q2078.09 724.473 2078.09 731.603 Q2078.09 738.709 2079.89 742.274 Q2081.72 745.815 2085.33 745.815 Q2088.97 745.815 2090.77 742.274 Q2092.6 738.709 2092.6 731.603 Q2092.6 724.473 2090.77 720.931 Q2088.97 717.367 2085.33 717.367 M2085.33 713.663 Q2091.14 713.663 2094.2 718.269 Q2097.28 722.853 2097.28 731.603 Q2097.28 740.329 2094.2 744.936 Q2091.14 749.519 2085.33 749.519 Q2079.52 749.519 2076.44 744.936 Q2073.39 740.329 2073.39 731.603 Q2073.39 722.853 2076.44 718.269 Q2079.52 713.663 2085.33 713.663 Z" fill="#000000" fill-rule="nonzero" fill-opacity="1" /><path clip-path="url(#clip590)" d="M2105.49 742.968 L2110.38 742.968 L2110.38 748.848 L2105.49 748.848 L2105.49 742.968 Z" fill="#000000" fill-rule="nonzero" fill-opacity="1" /><path clip-path="url(#clip590)" d="M2120.61 714.288 L2138.97 714.288 L2138.97 718.223 L2124.89 718.223 L2124.89 726.695 Q2125.91 726.348 2126.93 726.186 Q2127.95 726.001 2128.97 726.001 Q2134.75 726.001 2138.13 729.172 Q2141.51 732.343 2141.51 737.76 Q2141.51 743.339 2138.04 746.44 Q2134.57 749.519 2128.25 749.519 Q2126.07 749.519 2123.8 749.149 Q2121.56 748.778 2119.15 748.038 L2119.15 743.339 Q2121.23 744.473 2123.46 745.028 Q2125.68 745.584 2128.16 745.584 Q2132.16 745.584 2134.5 743.478 Q2136.84 741.371 2136.84 737.76 Q2136.84 734.149 2134.5 732.042 Q2132.16 729.936 2128.16 729.936 Q2126.28 729.936 2124.41 730.353 Q2122.55 730.769 2120.61 731.649 L2120.61 714.288 Z" fill="#000000" fill-rule="nonzero" fill-opacity="1" /><path clip-path="url(#clip590)" d="M2293.63 744.913 L2301.26 744.913 L2301.26 718.547 L2292.95 720.214 L2292.95 715.955 L2301.22 714.288 L2305.89 714.288 L2305.89 744.913 L2313.53 744.913 L2313.53 748.848 L2293.63 748.848 L2293.63 744.913 Z" fill="#000000" fill-rule="nonzero" fill-opacity="1" /><path clip-path="url(#clip590)" d="M2322.98 742.968 L2327.86 742.968 L2327.86 748.848 L2322.98 748.848 L2322.98 742.968 Z" fill="#000000" fill-rule="nonzero" fill-opacity="1" /><path clip-path="url(#clip590)" d="M2348.05 717.367 Q2344.44 717.367 2342.61 720.931 Q2340.8 724.473 2340.8 731.603 Q2340.8 738.709 2342.61 742.274 Q2344.44 745.815 2348.05 745.815 Q2351.68 745.815 2353.49 742.274 Q2355.32 738.709 2355.32 731.603 Q2355.32 724.473 2353.49 720.931 Q2351.68 717.367 2348.05 717.367 M2348.05 713.663 Q2353.86 713.663 2356.91 718.269 Q2359.99 722.853 2359.99 731.603 Q2359.99 740.329 2356.91 744.936 Q2353.86 749.519 2348.05 749.519 Q2342.24 749.519 2339.16 744.936 Q2336.1 740.329 2336.1 731.603 Q2336.1 722.853 2339.16 718.269 Q2342.24 713.663 2348.05 713.663 Z" fill="#000000" fill-rule="nonzero" fill-opacity="1" /><polyline clip-path="url(#clip590)" style="stroke:#000000; stroke-linecap:round; stroke-linejoin:round; stroke-width:4; stroke-opacity:1; fill:none" points="1424.1,686.448 1424.1,123.472 "/>
<polyline clip-path="url(#clip590)" style="stroke:#000000; stroke-linecap:round; stroke-linejoin:round; stroke-width:4; stroke-opacity:1; fill:none" points="1424.1,608.8 1443,608.8 "/>
<polyline clip-path="url(#clip590)" style="stroke:#000000; stroke-linecap:round; stroke-linejoin:round; stroke-width:4; stroke-opacity:1; fill:none" points="1424.1,510.885 1443,510.885 "/>
<polyline clip-path="url(#clip590)" style="stroke:#000000; stroke-linecap:round; stroke-linejoin:round; stroke-width:4; stroke-opacity:1; fill:none" points="1424.1,412.971 1443,412.971 "/>
<polyline clip-path="url(#clip590)" style="stroke:#000000; stroke-linecap:round; stroke-linejoin:round; stroke-width:4; stroke-opacity:1; fill:none" points="1424.1,315.056 1443,315.056 "/>
<polyline clip-path="url(#clip590)" style="stroke:#000000; stroke-linecap:round; stroke-linejoin:round; stroke-width:4; stroke-opacity:1; fill:none" points="1424.1,217.142 1443,217.142 "/>
<path clip-path="url(#clip590)" d="M1250.99 609.251 L1280.67 609.251 L1280.67 613.186 L1250.99 613.186 L1250.99 609.251 Z" fill="#000000" fill-rule="nonzero" fill-opacity="1" /><path clip-path="url(#clip590)" d="M1300.76 594.598 Q1297.15 594.598 1295.32 598.163 Q1293.52 601.705 1293.52 608.834 Q1293.52 615.941 1295.32 619.506 Q1297.15 623.047 1300.76 623.047 Q1304.39 623.047 1306.2 619.506 Q1308.03 615.941 1308.03 608.834 Q1308.03 601.705 1306.2 598.163 Q1304.39 594.598 1300.76 594.598 M1300.76 590.895 Q1306.57 590.895 1309.63 595.501 Q1312.7 600.084 1312.7 608.834 Q1312.7 617.561 1309.63 622.168 Q1306.57 626.751 1300.76 626.751 Q1294.95 626.751 1291.87 622.168 Q1288.82 617.561 1288.82 608.834 Q1288.82 600.084 1291.87 595.501 Q1294.95 590.895 1300.76 590.895 Z" fill="#000000" fill-rule="nonzero" fill-opacity="1" /><path clip-path="url(#clip590)" d="M1320.92 620.2 L1325.81 620.2 L1325.81 626.08 L1320.92 626.08 L1320.92 620.2 Z" fill="#000000" fill-rule="nonzero" fill-opacity="1" /><path clip-path="url(#clip590)" d="M1336.04 591.52 L1354.39 591.52 L1354.39 595.455 L1340.32 595.455 L1340.32 603.927 Q1341.34 603.58 1342.36 603.418 Q1343.38 603.233 1344.39 603.233 Q1350.18 603.233 1353.56 606.404 Q1356.94 609.575 1356.94 614.992 Q1356.94 620.571 1353.47 623.672 Q1350 626.751 1343.68 626.751 Q1341.5 626.751 1339.23 626.381 Q1336.99 626.01 1334.58 625.27 L1334.58 620.571 Q1336.66 621.705 1338.89 622.26 Q1341.11 622.816 1343.58 622.816 Q1347.59 622.816 1349.93 620.709 Q1352.26 618.603 1352.26 614.992 Q1352.26 611.381 1349.93 609.274 Q1347.59 607.168 1343.58 607.168 Q1341.71 607.168 1339.83 607.584 Q1337.98 608.001 1336.04 608.881 L1336.04 591.52 Z" fill="#000000" fill-rule="nonzero" fill-opacity="1" /><path clip-path="url(#clip590)" d="M1376.15 594.598 Q1372.54 594.598 1370.71 598.163 Q1368.91 601.705 1368.91 608.834 Q1368.91 615.941 1370.71 619.506 Q1372.54 623.047 1376.15 623.047 Q1379.79 623.047 1381.59 619.506 Q1383.42 615.941 1383.42 608.834 Q1383.42 601.705 1381.59 598.163 Q1379.79 594.598 1376.15 594.598 M1376.15 590.895 Q1381.96 590.895 1385.02 595.501 Q1388.1 600.084 1388.1 608.834 Q1388.1 617.561 1385.02 622.168 Q1381.96 626.751 1376.15 626.751 Q1370.34 626.751 1367.26 622.168 Q1364.21 617.561 1364.21 608.834 Q1364.21 600.084 1367.26 595.501 Q1370.34 590.895 1376.15 590.895 Z" fill="#000000" fill-rule="nonzero" fill-opacity="1" /><path clip-path="url(#clip590)" d="M1251.99 511.337 L1281.66 511.337 L1281.66 515.272 L1251.99 515.272 L1251.99 511.337 Z" fill="#000000" fill-rule="nonzero" fill-opacity="1" /><path clip-path="url(#clip590)" d="M1301.76 496.684 Q1298.14 496.684 1296.32 500.249 Q1294.51 503.79 1294.51 510.92 Q1294.51 518.026 1296.32 521.591 Q1298.14 525.133 1301.76 525.133 Q1305.39 525.133 1307.2 521.591 Q1309.02 518.026 1309.02 510.92 Q1309.02 503.79 1307.2 500.249 Q1305.39 496.684 1301.76 496.684 M1301.76 492.98 Q1307.57 492.98 1310.62 497.587 Q1313.7 502.17 1313.7 510.92 Q1313.7 519.647 1310.62 524.253 Q1307.57 528.837 1301.76 528.837 Q1295.95 528.837 1292.87 524.253 Q1289.81 519.647 1289.81 510.92 Q1289.81 502.17 1292.87 497.587 Q1295.95 492.98 1301.76 492.98 Z" fill="#000000" fill-rule="nonzero" fill-opacity="1" /><path clip-path="url(#clip590)" d="M1321.92 522.286 L1326.8 522.286 L1326.8 528.165 L1321.92 528.165 L1321.92 522.286 Z" fill="#000000" fill-rule="nonzero" fill-opacity="1" /><path clip-path="url(#clip590)" d="M1341.01 524.23 L1357.33 524.23 L1357.33 528.165 L1335.39 528.165 L1335.39 524.23 Q1338.05 521.475 1342.64 516.846 Q1347.24 512.193 1348.42 510.851 Q1350.67 508.327 1351.55 506.591 Q1352.45 504.832 1352.45 503.142 Q1352.45 500.388 1350.51 498.652 Q1348.58 496.915 1345.48 496.915 Q1343.28 496.915 1340.83 497.679 Q1338.4 498.443 1335.62 499.994 L1335.62 495.272 Q1338.45 494.138 1340.9 493.559 Q1343.35 492.98 1345.39 492.98 Q1350.76 492.98 1353.95 495.665 Q1357.15 498.351 1357.15 502.841 Q1357.15 504.971 1356.34 506.892 Q1355.55 508.79 1353.45 511.383 Q1352.87 512.054 1349.76 515.272 Q1346.66 518.466 1341.01 524.23 Z" fill="#000000" fill-rule="nonzero" fill-opacity="1" /><path clip-path="url(#clip590)" d="M1367.2 493.605 L1385.55 493.605 L1385.55 497.54 L1371.48 497.54 L1371.48 506.013 Q1372.5 505.665 1373.51 505.503 Q1374.53 505.318 1375.55 505.318 Q1381.34 505.318 1384.72 508.489 Q1388.1 511.661 1388.1 517.077 Q1388.1 522.656 1384.63 525.758 Q1381.15 528.837 1374.83 528.837 Q1372.66 528.837 1370.39 528.466 Q1368.14 528.096 1365.74 527.355 L1365.74 522.656 Q1367.82 523.79 1370.04 524.346 Q1372.26 524.901 1374.74 524.901 Q1378.75 524.901 1381.08 522.795 Q1383.42 520.688 1383.42 517.077 Q1383.42 513.466 1381.08 511.36 Q1378.75 509.253 1374.74 509.253 Q1372.87 509.253 1370.99 509.67 Q1369.14 510.087 1367.2 510.966 L1367.2 493.605 Z" fill="#000000" fill-rule="nonzero" fill-opacity="1" /><path clip-path="url(#clip590)" d="M1300.76 398.769 Q1297.15 398.769 1295.32 402.334 Q1293.52 405.876 1293.52 413.005 Q1293.52 420.112 1295.32 423.677 Q1297.15 427.218 1300.76 427.218 Q1304.39 427.218 1306.2 423.677 Q1308.03 420.112 1308.03 413.005 Q1308.03 405.876 1306.2 402.334 Q1304.39 398.769 1300.76 398.769 M1300.76 395.066 Q1306.57 395.066 1309.63 399.672 Q1312.7 404.256 1312.7 413.005 Q1312.7 421.732 1309.63 426.339 Q1306.57 430.922 1300.76 430.922 Q1294.95 430.922 1291.87 426.339 Q1288.82 421.732 1288.82 413.005 Q1288.82 404.256 1291.87 399.672 Q1294.95 395.066 1300.76 395.066 Z" fill="#000000" fill-rule="nonzero" fill-opacity="1" /><path clip-path="url(#clip590)" d="M1320.92 424.371 L1325.81 424.371 L1325.81 430.251 L1320.92 430.251 L1320.92 424.371 Z" fill="#000000" fill-rule="nonzero" fill-opacity="1" /><path clip-path="url(#clip590)" d="M1345.99 398.769 Q1342.38 398.769 1340.55 402.334 Q1338.75 405.876 1338.75 413.005 Q1338.75 420.112 1340.55 423.677 Q1342.38 427.218 1345.99 427.218 Q1349.63 427.218 1351.43 423.677 Q1353.26 420.112 1353.26 413.005 Q1353.26 405.876 1351.43 402.334 Q1349.63 398.769 1345.99 398.769 M1345.99 395.066 Q1351.8 395.066 1354.86 399.672 Q1357.94 404.256 1357.94 413.005 Q1357.94 421.732 1354.86 426.339 Q1351.8 430.922 1345.99 430.922 Q1340.18 430.922 1337.1 426.339 Q1334.05 421.732 1334.05 413.005 Q1334.05 404.256 1337.1 399.672 Q1340.18 395.066 1345.99 395.066 Z" fill="#000000" fill-rule="nonzero" fill-opacity="1" /><path clip-path="url(#clip590)" d="M1376.15 398.769 Q1372.54 398.769 1370.71 402.334 Q1368.91 405.876 1368.91 413.005 Q1368.91 420.112 1370.71 423.677 Q1372.54 427.218 1376.15 427.218 Q1379.79 427.218 1381.59 423.677 Q1383.42 420.112 1383.42 413.005 Q1383.42 405.876 1381.59 402.334 Q1379.79 398.769 1376.15 398.769 M1376.15 395.066 Q1381.96 395.066 1385.02 399.672 Q1388.1 404.256 1388.1 413.005 Q1388.1 421.732 1385.02 426.339 Q1381.96 430.922 1376.15 430.922 Q1370.34 430.922 1367.26 426.339 Q1364.21 421.732 1364.21 413.005 Q1364.21 404.256 1367.26 399.672 Q1370.34 395.066 1376.15 395.066 Z" fill="#000000" fill-rule="nonzero" fill-opacity="1" /><path clip-path="url(#clip590)" d="M1301.76 300.855 Q1298.14 300.855 1296.32 304.42 Q1294.51 307.961 1294.51 315.091 Q1294.51 322.197 1296.32 325.762 Q1298.14 329.304 1301.76 329.304 Q1305.39 329.304 1307.2 325.762 Q1309.02 322.197 1309.02 315.091 Q1309.02 307.961 1307.2 304.42 Q1305.39 300.855 1301.76 300.855 M1301.76 297.151 Q1307.57 297.151 1310.62 301.758 Q1313.7 306.341 1313.7 315.091 Q1313.7 323.818 1310.62 328.424 Q1307.57 333.008 1301.76 333.008 Q1295.95 333.008 1292.87 328.424 Q1289.81 323.818 1289.81 315.091 Q1289.81 306.341 1292.87 301.758 Q1295.95 297.151 1301.76 297.151 Z" fill="#000000" fill-rule="nonzero" fill-opacity="1" /><path clip-path="url(#clip590)" d="M1321.92 326.457 L1326.8 326.457 L1326.8 332.336 L1321.92 332.336 L1321.92 326.457 Z" fill="#000000" fill-rule="nonzero" fill-opacity="1" /><path clip-path="url(#clip590)" d="M1341.01 328.401 L1357.33 328.401 L1357.33 332.336 L1335.39 332.336 L1335.39 328.401 Q1338.05 325.647 1342.64 321.017 Q1347.24 316.364 1348.42 315.022 Q1350.67 312.498 1351.55 310.762 Q1352.45 309.003 1352.45 307.313 Q1352.45 304.559 1350.51 302.823 Q1348.58 301.086 1345.48 301.086 Q1343.28 301.086 1340.83 301.85 Q1338.4 302.614 1335.62 304.165 L1335.62 299.443 Q1338.45 298.309 1340.9 297.73 Q1343.35 297.151 1345.39 297.151 Q1350.76 297.151 1353.95 299.836 Q1357.15 302.522 1357.15 307.012 Q1357.15 309.142 1356.34 311.063 Q1355.55 312.961 1353.45 315.554 Q1352.87 316.225 1349.76 319.443 Q1346.66 322.637 1341.01 328.401 Z" fill="#000000" fill-rule="nonzero" fill-opacity="1" /><path clip-path="url(#clip590)" d="M1367.2 297.776 L1385.55 297.776 L1385.55 301.711 L1371.48 301.711 L1371.48 310.184 Q1372.5 309.836 1373.51 309.674 Q1374.53 309.489 1375.55 309.489 Q1381.34 309.489 1384.72 312.66 Q1388.1 315.832 1388.1 321.248 Q1388.1 326.827 1384.63 329.929 Q1381.15 333.008 1374.83 333.008 Q1372.66 333.008 1370.39 332.637 Q1368.14 332.267 1365.74 331.526 L1365.74 326.827 Q1367.82 327.961 1370.04 328.517 Q1372.26 329.072 1374.74 329.072 Q1378.75 329.072 1381.08 326.966 Q1383.42 324.859 1383.42 321.248 Q1383.42 317.637 1381.08 315.531 Q1378.75 313.424 1374.74 313.424 Q1372.87 313.424 1370.99 313.841 Q1369.14 314.258 1367.2 315.137 L1367.2 297.776 Z" fill="#000000" fill-rule="nonzero" fill-opacity="1" /><path clip-path="url(#clip590)" d="M1300.76 202.94 Q1297.15 202.94 1295.32 206.505 Q1293.52 210.047 1293.52 217.177 Q1293.52 224.283 1295.32 227.848 Q1297.15 231.389 1300.76 231.389 Q1304.39 231.389 1306.2 227.848 Q1308.03 224.283 1308.03 217.177 Q1308.03 210.047 1306.2 206.505 Q1304.39 202.94 1300.76 202.94 M1300.76 199.237 Q1306.57 199.237 1309.63 203.843 Q1312.7 208.427 1312.7 217.177 Q1312.7 225.903 1309.63 230.51 Q1306.57 235.093 1300.76 235.093 Q1294.95 235.093 1291.87 230.51 Q1288.82 225.903 1288.82 217.177 Q1288.82 208.427 1291.87 203.843 Q1294.95 199.237 1300.76 199.237 Z" fill="#000000" fill-rule="nonzero" fill-opacity="1" /><path clip-path="url(#clip590)" d="M1320.92 228.542 L1325.81 228.542 L1325.81 234.422 L1320.92 234.422 L1320.92 228.542 Z" fill="#000000" fill-rule="nonzero" fill-opacity="1" /><path clip-path="url(#clip590)" d="M1336.04 199.862 L1354.39 199.862 L1354.39 203.797 L1340.32 203.797 L1340.32 212.269 Q1341.34 211.922 1342.36 211.76 Q1343.38 211.575 1344.39 211.575 Q1350.18 211.575 1353.56 214.746 Q1356.94 217.917 1356.94 223.334 Q1356.94 228.913 1353.47 232.014 Q1350 235.093 1343.68 235.093 Q1341.5 235.093 1339.23 234.723 Q1336.99 234.352 1334.58 233.612 L1334.58 228.913 Q1336.66 230.047 1338.89 230.602 Q1341.11 231.158 1343.58 231.158 Q1347.59 231.158 1349.93 229.051 Q1352.26 226.945 1352.26 223.334 Q1352.26 219.723 1349.93 217.616 Q1347.59 215.51 1343.58 215.51 Q1341.71 215.51 1339.83 215.927 Q1337.98 216.343 1336.04 217.223 L1336.04 199.862 Z" fill="#000000" fill-rule="nonzero" fill-opacity="1" /><path clip-path="url(#clip590)" d="M1376.15 202.94 Q1372.54 202.94 1370.71 206.505 Q1368.91 210.047 1368.91 217.177 Q1368.91 224.283 1370.71 227.848 Q1372.54 231.389 1376.15 231.389 Q1379.79 231.389 1381.59 227.848 Q1383.42 224.283 1383.42 217.177 Q1383.42 210.047 1381.59 206.505 Q1379.79 202.94 1376.15 202.94 M1376.15 199.237 Q1381.96 199.237 1385.02 203.843 Q1388.1 208.427 1388.1 217.177 Q1388.1 225.903 1385.02 230.51 Q1381.96 235.093 1376.15 235.093 Q1370.34 235.093 1367.26 230.51 Q1364.21 225.903 1364.21 217.177 Q1364.21 208.427 1367.26 203.843 Q1370.34 199.237 1376.15 199.237 Z" fill="#000000" fill-rule="nonzero" fill-opacity="1" /><path clip-path="url(#clip590)" d="M1762.77 14.324 L1762.77 27.2059 L1778.12 27.2059 L1778.12 32.9987 L1762.77 32.9987 L1762.77 57.6282 Q1762.77 63.1779 1764.27 64.7578 Q1765.81 66.3376 1770.46 66.3376 L1778.12 66.3376 L1778.12 72.576 L1770.46 72.576 Q1761.84 72.576 1758.55 69.3758 Q1755.27 66.1351 1755.27 57.6282 L1755.27 32.9987 L1749.8 32.9987 L1749.8 27.2059 L1755.27 27.2059 L1755.27 14.324 L1762.77 14.324 Z" fill="#000000" fill-rule="nonzero" fill-opacity="1" /><path clip-path="url(#clip590)" d="M1815.27 34.9026 L1867.2 34.9026 L1867.2 41.7081 L1815.27 41.7081 L1815.27 34.9026 M1815.27 51.4303 L1867.2 51.4303 L1867.2 58.3168 L1815.27 58.3168 L1815.27 51.4303 Z" fill="#000000" fill-rule="nonzero" fill-opacity="1" /><path clip-path="url(#clip590)" d="M1928.73 17.4837 Q1922.41 17.4837 1919.21 23.7221 Q1916.05 29.92 1916.05 42.3968 Q1916.05 54.833 1919.21 61.0714 Q1922.41 67.2693 1928.73 67.2693 Q1935.09 67.2693 1938.25 61.0714 Q1941.45 54.833 1941.45 42.3968 Q1941.45 29.92 1938.25 23.7221 Q1935.09 17.4837 1928.73 17.4837 M1928.73 11.0023 Q1938.9 11.0023 1944.25 19.0636 Q1949.64 27.0843 1949.64 42.3968 Q1949.64 57.6687 1944.25 65.73 Q1938.9 73.7508 1928.73 73.7508 Q1918.57 73.7508 1913.18 65.73 Q1907.83 57.6687 1907.83 42.3968 Q1907.83 27.0843 1913.18 19.0636 Q1918.57 11.0023 1928.73 11.0023 Z" fill="#000000" fill-rule="nonzero" fill-opacity="1" /><path clip-path="url(#clip590)" d="M1964.02 62.2867 L1972.56 62.2867 L1972.56 72.576 L1964.02 72.576 L1964.02 62.2867 Z" fill="#000000" fill-rule="nonzero" fill-opacity="1" /><path clip-path="url(#clip590)" d="M1990.47 12.096 L2022.59 12.096 L2022.59 18.9825 L1997.96 18.9825 L1997.96 33.8088 Q1999.75 33.2012 2001.53 32.9176 Q2003.31 32.5936 2005.09 32.5936 Q2015.22 32.5936 2021.13 38.1433 Q2027.05 43.6931 2027.05 53.1722 Q2027.05 62.9348 2020.97 68.3631 Q2014.9 73.7508 2003.84 73.7508 Q2000.03 73.7508 1996.06 73.1026 Q1992.13 72.4545 1987.92 71.1582 L1987.92 62.9348 Q1991.56 64.9198 1995.45 65.892 Q1999.34 66.8642 2003.68 66.8642 Q2010.68 66.8642 2014.77 63.1779 Q2018.87 59.4916 2018.87 53.1722 Q2018.87 46.8528 2014.77 43.1664 Q2010.68 39.4801 2003.68 39.4801 Q2000.39 39.4801 1997.11 40.2093 Q1993.87 40.9384 1990.47 42.4778 L1990.47 12.096 Z" fill="#000000" fill-rule="nonzero" fill-opacity="1" /><polyline clip-path="url(#clip593)" style="stroke:#009af9; stroke-linecap:round; stroke-linejoin:round; stroke-width:4; stroke-opacity:1; fill:none" points="1450.38,408.026 1454.76,398.401 1459.14,388.775 1463.52,379.165 1467.9,369.59 1472.28,360.068 1476.66,350.62 1481.04,341.265 1485.42,332.023 1489.8,322.913 1494.19,313.956 1498.57,305.168 1502.95,296.568 1507.33,288.17 1511.71,279.99 1516.09,272.038 1520.47,264.325 1524.85,256.858 1529.23,249.644 1533.61,242.684 1537.99,235.98 1542.37,229.53 1546.75,223.331 1551.13,217.377 1555.51,211.661 1559.89,206.177 1564.27,200.915 1568.65,195.866 1573.03,191.022 1577.41,186.375 1581.79,181.919 1586.17,177.647 1590.56,173.557 1594.94,169.647 1599.32,165.92 1603.7,162.379 1608.08,159.032 1612.46,155.89 1616.84,152.964 1621.22,150.27 1625.6,147.826 1629.98,145.651 1634.36,143.766 1638.74,142.192 1643.12,140.95 1647.5,140.059 1651.88,139.539 1656.26,139.405 1660.64,139.671 1665.02,140.346 1669.4,141.436 1673.78,142.94 1678.16,144.855 1682.55,147.171 1686.93,149.874 1691.31,152.947 1695.69,156.365 1700.07,160.102 1704.45,164.13 1708.83,168.416 1713.21,172.928 1717.59,177.632 1721.97,182.496 1726.35,187.489 1730.73,192.579 1735.11,197.741 1739.49,202.948 1743.87,208.181 1748.25,213.419 1752.63,218.649 1757.01,223.86 1761.39,229.041 1765.77,234.19 1770.15,239.302 1774.53,244.378 1778.92,249.42 1783.3,254.431 1787.68,259.418 1792.06,264.388 1796.44,269.349 1800.82,274.308 1805.2,279.278 1809.58,284.267 1813.96,289.288 1818.34,294.351 1822.72,299.469 1827.1,304.657 1831.48,309.927 1835.86,315.296 1840.24,320.782 1844.62,326.406 1849,332.191 1853.38,338.166 1857.76,344.363 1862.14,350.821 1866.52,357.588 1870.91,364.717 1875.29,372.266 1879.67,380.302 1884.05,388.889 1888.43,398.083 1892.81,407.924 1897.19,418.414 1901.57,429.502 1905.95,441.068 1910.33,452.905 1914.71,464.731 1919.09,476.208 1923.47,486.988 1927.85,496.772 1932.23,505.365 1936.61,512.717 1940.99,518.924 1945.37,524.205 1949.75,528.85 1954.13,533.163 1958.51,537.404 1962.89,541.76 1967.28,546.327 1971.66,551.124 1976.04,556.113 1980.42,561.228 1984.8,566.396 1989.18,571.554 1993.56,576.651 1997.94,581.651 2002.32,586.533 2006.7,591.283 2011.08,595.897 2015.46,600.374 2019.84,604.714 2024.22,608.92 2028.6,612.997 2032.98,616.946 2037.36,620.772 2041.74,624.477 2046.12,628.062 2050.5,631.528 2054.88,634.875 2059.26,638.103 2063.65,641.21 2068.03,644.193 2072.41,647.049 2076.79,649.774 2081.17,652.364 2085.55,654.812 2089.93,657.112 2094.31,659.258 2098.69,661.243 2103.07,663.058 2107.45,664.696 2111.83,666.149 2116.21,667.408 2120.59,668.465 2124.97,669.312 2129.35,669.941 2133.73,670.345 2138.11,670.515 2142.49,670.444 2146.87,670.127 2151.25,669.556 2155.64,668.726 2160.02,667.632 2164.4,666.27 2168.78,664.635 2173.16,662.724 2177.54,660.535 2181.92,658.066 2186.3,655.316 2190.68,652.287 2195.06,648.978 2199.44,645.391 2203.82,641.53 2208.2,637.397 2212.58,632.998 2216.96,628.336 2221.34,623.418 2225.72,618.249 2230.1,612.835 2234.48,607.181 2238.86,601.293 2243.24,595.174 2247.62,588.828 2252.01,582.257 2256.39,575.46 2260.77,568.435 2265.15,561.176 2269.53,553.674 2273.91,545.916 2278.29,537.884 2282.67,529.551 2287.05,520.886 2291.43,511.845 2295.81,502.375 2300.19,492.405 2304.57,481.848 2308.95,470.592 2313.33,458.493 2317.71,445.369 2322.09,430.987 2326.47,415.044 "/>
<path clip-path="url(#clip590)" d="M2176.5 245.918 L2321.8 245.918 L2321.8 142.238 L2176.5 142.238  Z" fill="#ffffff" fill-rule="evenodd" fill-opacity="1"/>
<polyline clip-path="url(#clip590)" style="stroke:#000000; stroke-linecap:round; stroke-linejoin:round; stroke-width:4; stroke-opacity:1; fill:none" points="2176.5,245.918 2321.8,245.918 2321.8,142.238 2176.5,142.238 2176.5,245.918 "/>
<polyline clip-path="url(#clip590)" style="stroke:#009af9; stroke-linecap:round; stroke-linejoin:round; stroke-width:4; stroke-opacity:1; fill:none" points="2186.82,194.078 2248.73,194.078 "/>
<path clip-path="url(#clip590)" d="M2272.89 213.765 Q2271.09 218.395 2269.38 219.807 Q2267.66 221.219 2264.79 221.219 L2261.39 221.219 L2261.39 217.654 L2263.89 217.654 Q2265.65 217.654 2266.62 216.821 Q2267.59 215.988 2268.77 212.886 L2269.54 210.941 L2259.05 185.432 L2263.57 185.432 L2271.67 205.71 L2279.77 185.432 L2284.28 185.432 L2272.89 213.765 Z" fill="#000000" fill-rule="nonzero" fill-opacity="1" /><path clip-path="url(#clip590)" d="M2291.57 207.423 L2299.21 207.423 L2299.21 181.057 L2290.9 182.724 L2290.9 178.465 L2299.17 176.798 L2303.84 176.798 L2303.84 207.423 L2311.48 207.423 L2311.48 211.358 L2291.57 211.358 L2291.57 207.423 Z" fill="#000000" fill-rule="nonzero" fill-opacity="1" /><path clip-path="url(#clip590)" d="M224.098 1486.45 L1152.76 1486.45 L1152.76 923.472 L224.098 923.472  Z" fill="#ffffff" fill-rule="evenodd" fill-opacity="1"/>
<defs>
  <clipPath id="clip594">
    <rect x="224" y="923" width="930" height="564"/>
  </clipPath>
</defs>
<polyline clip-path="url(#clip594)" style="stroke:#000000; stroke-linecap:round; stroke-linejoin:round; stroke-width:2; stroke-opacity:0.1; fill:none" points="250.381,1486.45 250.381,923.472 "/>
<polyline clip-path="url(#clip594)" style="stroke:#000000; stroke-linecap:round; stroke-linejoin:round; stroke-width:2; stroke-opacity:0.1; fill:none" points="469.404,1486.45 469.404,923.472 "/>
<polyline clip-path="url(#clip594)" style="stroke:#000000; stroke-linecap:round; stroke-linejoin:round; stroke-width:2; stroke-opacity:0.1; fill:none" points="688.427,1486.45 688.427,923.472 "/>
<polyline clip-path="url(#clip594)" style="stroke:#000000; stroke-linecap:round; stroke-linejoin:round; stroke-width:2; stroke-opacity:0.1; fill:none" points="907.45,1486.45 907.45,923.472 "/>
<polyline clip-path="url(#clip594)" style="stroke:#000000; stroke-linecap:round; stroke-linejoin:round; stroke-width:2; stroke-opacity:0.1; fill:none" points="1126.47,1486.45 1126.47,923.472 "/>
<polyline clip-path="url(#clip594)" style="stroke:#000000; stroke-linecap:round; stroke-linejoin:round; stroke-width:2; stroke-opacity:0.1; fill:none" points="224.098,1429.97 1152.76,1429.97 "/>
<polyline clip-path="url(#clip594)" style="stroke:#000000; stroke-linecap:round; stroke-linejoin:round; stroke-width:2; stroke-opacity:0.1; fill:none" points="224.098,1318.31 1152.76,1318.31 "/>
<polyline clip-path="url(#clip594)" style="stroke:#000000; stroke-linecap:round; stroke-linejoin:round; stroke-width:2; stroke-opacity:0.1; fill:none" points="224.098,1206.65 1152.76,1206.65 "/>
<polyline clip-path="url(#clip594)" style="stroke:#000000; stroke-linecap:round; stroke-linejoin:round; stroke-width:2; stroke-opacity:0.1; fill:none" points="224.098,1094.99 1152.76,1094.99 "/>
<polyline clip-path="url(#clip594)" style="stroke:#000000; stroke-linecap:round; stroke-linejoin:round; stroke-width:2; stroke-opacity:0.1; fill:none" points="224.098,983.332 1152.76,983.332 "/>
<polyline clip-path="url(#clip590)" style="stroke:#000000; stroke-linecap:round; stroke-linejoin:round; stroke-width:4; stroke-opacity:1; fill:none" points="224.098,1486.45 1152.76,1486.45 "/>
<polyline clip-path="url(#clip590)" style="stroke:#000000; stroke-linecap:round; stroke-linejoin:round; stroke-width:4; stroke-opacity:1; fill:none" points="250.381,1486.45 250.381,1467.55 "/>
<polyline clip-path="url(#clip590)" style="stroke:#000000; stroke-linecap:round; stroke-linejoin:round; stroke-width:4; stroke-opacity:1; fill:none" points="469.404,1486.45 469.404,1467.55 "/>
<polyline clip-path="url(#clip590)" style="stroke:#000000; stroke-linecap:round; stroke-linejoin:round; stroke-width:4; stroke-opacity:1; fill:none" points="688.427,1486.45 688.427,1467.55 "/>
<polyline clip-path="url(#clip590)" style="stroke:#000000; stroke-linecap:round; stroke-linejoin:round; stroke-width:4; stroke-opacity:1; fill:none" points="907.45,1486.45 907.45,1467.55 "/>
<polyline clip-path="url(#clip590)" style="stroke:#000000; stroke-linecap:round; stroke-linejoin:round; stroke-width:4; stroke-opacity:1; fill:none" points="1126.47,1486.45 1126.47,1467.55 "/>
<path clip-path="url(#clip590)" d="M196.909 1532.02 L226.584 1532.02 L226.584 1535.95 L196.909 1535.95 L196.909 1532.02 Z" fill="#000000" fill-rule="nonzero" fill-opacity="1" /><path clip-path="url(#clip590)" d="M237.487 1544.91 L245.126 1544.91 L245.126 1518.55 L236.816 1520.21 L236.816 1515.95 L245.08 1514.29 L249.756 1514.29 L249.756 1544.91 L257.394 1544.91 L257.394 1548.85 L237.487 1548.85 L237.487 1544.91 Z" fill="#000000" fill-rule="nonzero" fill-opacity="1" /><path clip-path="url(#clip590)" d="M266.839 1542.97 L271.723 1542.97 L271.723 1548.85 L266.839 1548.85 L266.839 1542.97 Z" fill="#000000" fill-rule="nonzero" fill-opacity="1" /><path clip-path="url(#clip590)" d="M291.908 1517.37 Q288.297 1517.37 286.468 1520.93 Q284.663 1524.47 284.663 1531.6 Q284.663 1538.71 286.468 1542.27 Q288.297 1545.82 291.908 1545.82 Q295.542 1545.82 297.348 1542.27 Q299.177 1538.71 299.177 1531.6 Q299.177 1524.47 297.348 1520.93 Q295.542 1517.37 291.908 1517.37 M291.908 1513.66 Q297.718 1513.66 300.774 1518.27 Q303.853 1522.85 303.853 1531.6 Q303.853 1540.33 300.774 1544.94 Q297.718 1549.52 291.908 1549.52 Q286.098 1549.52 283.019 1544.94 Q279.964 1540.33 279.964 1531.6 Q279.964 1522.85 283.019 1518.27 Q286.098 1513.66 291.908 1513.66 Z" fill="#000000" fill-rule="nonzero" fill-opacity="1" /><path clip-path="url(#clip590)" d="M416.43 1532.02 L446.105 1532.02 L446.105 1535.95 L416.43 1535.95 L416.43 1532.02 Z" fill="#000000" fill-rule="nonzero" fill-opacity="1" /><path clip-path="url(#clip590)" d="M466.198 1517.37 Q462.587 1517.37 460.758 1520.93 Q458.952 1524.47 458.952 1531.6 Q458.952 1538.71 460.758 1542.27 Q462.587 1545.82 466.198 1545.82 Q469.832 1545.82 471.638 1542.27 Q473.466 1538.71 473.466 1531.6 Q473.466 1524.47 471.638 1520.93 Q469.832 1517.37 466.198 1517.37 M466.198 1513.66 Q472.008 1513.66 475.063 1518.27 Q478.142 1522.85 478.142 1531.6 Q478.142 1540.33 475.063 1544.94 Q472.008 1549.52 466.198 1549.52 Q460.388 1549.52 457.309 1544.94 Q454.253 1540.33 454.253 1531.6 Q454.253 1522.85 457.309 1518.27 Q460.388 1513.66 466.198 1513.66 Z" fill="#000000" fill-rule="nonzero" fill-opacity="1" /><path clip-path="url(#clip590)" d="M486.36 1542.97 L491.244 1542.97 L491.244 1548.85 L486.36 1548.85 L486.36 1542.97 Z" fill="#000000" fill-rule="nonzero" fill-opacity="1" /><path clip-path="url(#clip590)" d="M501.475 1514.29 L519.832 1514.29 L519.832 1518.22 L505.758 1518.22 L505.758 1526.7 Q506.776 1526.35 507.795 1526.19 Q508.813 1526 509.832 1526 Q515.619 1526 518.998 1529.17 Q522.378 1532.34 522.378 1537.76 Q522.378 1543.34 518.906 1546.44 Q515.434 1549.52 509.114 1549.52 Q506.938 1549.52 504.67 1549.15 Q502.424 1548.78 500.017 1548.04 L500.017 1543.34 Q502.1 1544.47 504.323 1545.03 Q506.545 1545.58 509.022 1545.58 Q513.026 1545.58 515.364 1543.48 Q517.702 1541.37 517.702 1537.76 Q517.702 1534.15 515.364 1532.04 Q513.026 1529.94 509.022 1529.94 Q507.147 1529.94 505.272 1530.35 Q503.42 1530.77 501.475 1531.65 L501.475 1514.29 Z" fill="#000000" fill-rule="nonzero" fill-opacity="1" /><path clip-path="url(#clip590)" d="M665.811 1517.37 Q662.2 1517.37 660.371 1520.93 Q658.566 1524.47 658.566 1531.6 Q658.566 1538.71 660.371 1542.27 Q662.2 1545.82 665.811 1545.82 Q669.446 1545.82 671.251 1542.27 Q673.08 1538.71 673.08 1531.6 Q673.08 1524.47 671.251 1520.93 Q669.446 1517.37 665.811 1517.37 M665.811 1513.66 Q671.621 1513.66 674.677 1518.27 Q677.756 1522.85 677.756 1531.6 Q677.756 1540.33 674.677 1544.94 Q671.621 1549.52 665.811 1549.52 Q660.001 1549.52 656.922 1544.94 Q653.867 1540.33 653.867 1531.6 Q653.867 1522.85 656.922 1518.27 Q660.001 1513.66 665.811 1513.66 Z" fill="#000000" fill-rule="nonzero" fill-opacity="1" /><path clip-path="url(#clip590)" d="M685.973 1542.97 L690.857 1542.97 L690.857 1548.85 L685.973 1548.85 L685.973 1542.97 Z" fill="#000000" fill-rule="nonzero" fill-opacity="1" /><path clip-path="url(#clip590)" d="M711.043 1517.37 Q707.431 1517.37 705.603 1520.93 Q703.797 1524.47 703.797 1531.6 Q703.797 1538.71 705.603 1542.27 Q707.431 1545.82 711.043 1545.82 Q714.677 1545.82 716.482 1542.27 Q718.311 1538.71 718.311 1531.6 Q718.311 1524.47 716.482 1520.93 Q714.677 1517.37 711.043 1517.37 M711.043 1513.66 Q716.853 1513.66 719.908 1518.27 Q722.987 1522.85 722.987 1531.6 Q722.987 1540.33 719.908 1544.94 Q716.853 1549.52 711.043 1549.52 Q705.232 1549.52 702.154 1544.94 Q699.098 1540.33 699.098 1531.6 Q699.098 1522.85 702.154 1518.27 Q705.232 1513.66 711.043 1513.66 Z" fill="#000000" fill-rule="nonzero" fill-opacity="1" /><path clip-path="url(#clip590)" d="M885.332 1517.37 Q881.721 1517.37 879.892 1520.93 Q878.087 1524.47 878.087 1531.6 Q878.087 1538.71 879.892 1542.27 Q881.721 1545.82 885.332 1545.82 Q888.966 1545.82 890.772 1542.27 Q892.601 1538.71 892.601 1531.6 Q892.601 1524.47 890.772 1520.93 Q888.966 1517.37 885.332 1517.37 M885.332 1513.66 Q891.142 1513.66 894.198 1518.27 Q897.276 1522.85 897.276 1531.6 Q897.276 1540.33 894.198 1544.94 Q891.142 1549.52 885.332 1549.52 Q879.522 1549.52 876.443 1544.94 Q873.388 1540.33 873.388 1531.6 Q873.388 1522.85 876.443 1518.27 Q879.522 1513.66 885.332 1513.66 Z" fill="#000000" fill-rule="nonzero" fill-opacity="1" /><path clip-path="url(#clip590)" d="M905.494 1542.97 L910.378 1542.97 L910.378 1548.85 L905.494 1548.85 L905.494 1542.97 Z" fill="#000000" fill-rule="nonzero" fill-opacity="1" /><path clip-path="url(#clip590)" d="M920.61 1514.29 L938.966 1514.29 L938.966 1518.22 L924.892 1518.22 L924.892 1526.7 Q925.911 1526.35 926.929 1526.19 Q927.948 1526 928.966 1526 Q934.753 1526 938.133 1529.17 Q941.512 1532.34 941.512 1537.76 Q941.512 1543.34 938.04 1546.44 Q934.568 1549.52 928.249 1549.52 Q926.073 1549.52 923.804 1549.15 Q921.559 1548.78 919.151 1548.04 L919.151 1543.34 Q921.235 1544.47 923.457 1545.03 Q925.679 1545.58 928.156 1545.58 Q932.161 1545.58 934.498 1543.48 Q936.836 1541.37 936.836 1537.76 Q936.836 1534.15 934.498 1532.04 Q932.161 1529.94 928.156 1529.94 Q926.281 1529.94 924.406 1530.35 Q922.554 1530.77 920.61 1531.65 L920.61 1514.29 Z" fill="#000000" fill-rule="nonzero" fill-opacity="1" /><path clip-path="url(#clip590)" d="M1093.63 1544.91 L1101.26 1544.91 L1101.26 1518.55 L1092.95 1520.21 L1092.95 1515.95 L1101.22 1514.29 L1105.89 1514.29 L1105.89 1544.91 L1113.53 1544.91 L1113.53 1548.85 L1093.63 1548.85 L1093.63 1544.91 Z" fill="#000000" fill-rule="nonzero" fill-opacity="1" /><path clip-path="url(#clip590)" d="M1122.98 1542.97 L1127.86 1542.97 L1127.86 1548.85 L1122.98 1548.85 L1122.98 1542.97 Z" fill="#000000" fill-rule="nonzero" fill-opacity="1" /><path clip-path="url(#clip590)" d="M1148.05 1517.37 Q1144.44 1517.37 1142.61 1520.93 Q1140.8 1524.47 1140.8 1531.6 Q1140.8 1538.71 1142.61 1542.27 Q1144.44 1545.82 1148.05 1545.82 Q1151.68 1545.82 1153.49 1542.27 Q1155.32 1538.71 1155.32 1531.6 Q1155.32 1524.47 1153.49 1520.93 Q1151.68 1517.37 1148.05 1517.37 M1148.05 1513.66 Q1153.86 1513.66 1156.91 1518.27 Q1159.99 1522.85 1159.99 1531.6 Q1159.99 1540.33 1156.91 1544.94 Q1153.86 1549.52 1148.05 1549.52 Q1142.24 1549.52 1139.16 1544.94 Q1136.1 1540.33 1136.1 1531.6 Q1136.1 1522.85 1139.16 1518.27 Q1142.24 1513.66 1148.05 1513.66 Z" fill="#000000" fill-rule="nonzero" fill-opacity="1" /><polyline clip-path="url(#clip590)" style="stroke:#000000; stroke-linecap:round; stroke-linejoin:round; stroke-width:4; stroke-opacity:1; fill:none" points="224.098,1486.45 224.098,923.472 "/>
<polyline clip-path="url(#clip590)" style="stroke:#000000; stroke-linecap:round; stroke-linejoin:round; stroke-width:4; stroke-opacity:1; fill:none" points="224.098,1429.97 242.996,1429.97 "/>
<polyline clip-path="url(#clip590)" style="stroke:#000000; stroke-linecap:round; stroke-linejoin:round; stroke-width:4; stroke-opacity:1; fill:none" points="224.098,1318.31 242.996,1318.31 "/>
<polyline clip-path="url(#clip590)" style="stroke:#000000; stroke-linecap:round; stroke-linejoin:round; stroke-width:4; stroke-opacity:1; fill:none" points="224.098,1206.65 242.996,1206.65 "/>
<polyline clip-path="url(#clip590)" style="stroke:#000000; stroke-linecap:round; stroke-linejoin:round; stroke-width:4; stroke-opacity:1; fill:none" points="224.098,1094.99 242.996,1094.99 "/>
<polyline clip-path="url(#clip590)" style="stroke:#000000; stroke-linecap:round; stroke-linejoin:round; stroke-width:4; stroke-opacity:1; fill:none" points="224.098,983.332 242.996,983.332 "/>
<path clip-path="url(#clip590)" d="M50.9921 1430.43 L80.6679 1430.43 L80.6679 1434.36 L50.9921 1434.36 L50.9921 1430.43 Z" fill="#000000" fill-rule="nonzero" fill-opacity="1" /><path clip-path="url(#clip590)" d="M100.76 1415.77 Q97.1493 1415.77 95.3206 1419.34 Q93.515 1422.88 93.515 1430.01 Q93.515 1437.12 95.3206 1440.68 Q97.1493 1444.22 100.76 1444.22 Q104.395 1444.22 106.2 1440.68 Q108.029 1437.12 108.029 1430.01 Q108.029 1422.88 106.2 1419.34 Q104.395 1415.77 100.76 1415.77 M100.76 1412.07 Q106.571 1412.07 109.626 1416.68 Q112.705 1421.26 112.705 1430.01 Q112.705 1438.74 109.626 1443.34 Q106.571 1447.93 100.76 1447.93 Q94.9502 1447.93 91.8715 1443.34 Q88.816 1438.74 88.816 1430.01 Q88.816 1421.26 91.8715 1416.68 Q94.9502 1412.07 100.76 1412.07 Z" fill="#000000" fill-rule="nonzero" fill-opacity="1" /><path clip-path="url(#clip590)" d="M120.922 1441.37 L125.807 1441.37 L125.807 1447.25 L120.922 1447.25 L120.922 1441.37 Z" fill="#000000" fill-rule="nonzero" fill-opacity="1" /><path clip-path="url(#clip590)" d="M136.038 1412.69 L154.394 1412.69 L154.394 1416.63 L140.32 1416.63 L140.32 1425.1 Q141.339 1424.75 142.357 1424.59 Q143.376 1424.41 144.394 1424.41 Q150.181 1424.41 153.561 1427.58 Q156.941 1430.75 156.941 1436.17 Q156.941 1441.75 153.468 1444.85 Q149.996 1447.93 143.677 1447.93 Q141.501 1447.93 139.232 1447.56 Q136.987 1447.18 134.58 1446.44 L134.58 1441.75 Q136.663 1442.88 138.885 1443.43 Q141.107 1443.99 143.584 1443.99 Q147.589 1443.99 149.927 1441.88 Q152.265 1439.78 152.265 1436.17 Q152.265 1432.56 149.927 1430.45 Q147.589 1428.34 143.584 1428.34 Q141.709 1428.34 139.834 1428.76 Q137.982 1429.18 136.038 1430.06 L136.038 1412.69 Z" fill="#000000" fill-rule="nonzero" fill-opacity="1" /><path clip-path="url(#clip590)" d="M176.153 1415.77 Q172.542 1415.77 170.714 1419.34 Q168.908 1422.88 168.908 1430.01 Q168.908 1437.12 170.714 1440.68 Q172.542 1444.22 176.153 1444.22 Q179.788 1444.22 181.593 1440.68 Q183.422 1437.12 183.422 1430.01 Q183.422 1422.88 181.593 1419.34 Q179.788 1415.77 176.153 1415.77 M176.153 1412.07 Q181.964 1412.07 185.019 1416.68 Q188.098 1421.26 188.098 1430.01 Q188.098 1438.74 185.019 1443.34 Q181.964 1447.93 176.153 1447.93 Q170.343 1447.93 167.265 1443.34 Q164.209 1438.74 164.209 1430.01 Q164.209 1421.26 167.265 1416.68 Q170.343 1412.07 176.153 1412.07 Z" fill="#000000" fill-rule="nonzero" fill-opacity="1" /><path clip-path="url(#clip590)" d="M51.9875 1318.77 L81.6633 1318.77 L81.6633 1322.7 L51.9875 1322.7 L51.9875 1318.77 Z" fill="#000000" fill-rule="nonzero" fill-opacity="1" /><path clip-path="url(#clip590)" d="M101.756 1304.11 Q98.1447 1304.11 96.316 1307.68 Q94.5104 1311.22 94.5104 1318.35 Q94.5104 1325.45 96.316 1329.02 Q98.1447 1332.56 101.756 1332.56 Q105.39 1332.56 107.196 1329.02 Q109.024 1325.45 109.024 1318.35 Q109.024 1311.22 107.196 1307.68 Q105.39 1304.11 101.756 1304.11 M101.756 1300.41 Q107.566 1300.41 110.621 1305.02 Q113.7 1309.6 113.7 1318.35 Q113.7 1327.08 110.621 1331.68 Q107.566 1336.27 101.756 1336.27 Q95.9456 1336.27 92.8669 1331.68 Q89.8114 1327.08 89.8114 1318.35 Q89.8114 1309.6 92.8669 1305.02 Q95.9456 1300.41 101.756 1300.41 Z" fill="#000000" fill-rule="nonzero" fill-opacity="1" /><path clip-path="url(#clip590)" d="M121.918 1329.71 L126.802 1329.71 L126.802 1335.59 L121.918 1335.59 L121.918 1329.71 Z" fill="#000000" fill-rule="nonzero" fill-opacity="1" /><path clip-path="url(#clip590)" d="M141.015 1331.66 L157.334 1331.66 L157.334 1335.59 L135.39 1335.59 L135.39 1331.66 Q138.052 1328.9 142.635 1324.27 Q147.242 1319.62 148.422 1318.28 Q150.668 1315.76 151.547 1314.02 Q152.45 1312.26 152.45 1310.57 Q152.45 1307.82 150.505 1306.08 Q148.584 1304.34 145.482 1304.34 Q143.283 1304.34 140.83 1305.11 Q138.399 1305.87 135.621 1307.42 L135.621 1302.7 Q138.445 1301.57 140.899 1300.99 Q143.353 1300.41 145.39 1300.41 Q150.76 1300.41 153.955 1303.09 Q157.149 1305.78 157.149 1310.27 Q157.149 1312.4 156.339 1314.32 Q155.552 1316.22 153.445 1318.81 Q152.867 1319.48 149.765 1322.7 Q146.663 1325.89 141.015 1331.66 Z" fill="#000000" fill-rule="nonzero" fill-opacity="1" /><path clip-path="url(#clip590)" d="M167.195 1301.03 L185.552 1301.03 L185.552 1304.97 L171.478 1304.97 L171.478 1313.44 Q172.496 1313.09 173.515 1312.93 Q174.533 1312.75 175.552 1312.75 Q181.339 1312.75 184.718 1315.92 Q188.098 1319.09 188.098 1324.51 Q188.098 1330.08 184.626 1333.19 Q181.153 1336.27 174.834 1336.27 Q172.658 1336.27 170.39 1335.89 Q168.144 1335.52 165.737 1334.78 L165.737 1330.08 Q167.82 1331.22 170.042 1331.77 Q172.265 1332.33 174.741 1332.33 Q178.746 1332.33 181.084 1330.22 Q183.422 1328.12 183.422 1324.51 Q183.422 1320.89 181.084 1318.79 Q178.746 1316.68 174.741 1316.68 Q172.866 1316.68 170.991 1317.1 Q169.14 1317.52 167.195 1318.39 L167.195 1301.03 Z" fill="#000000" fill-rule="nonzero" fill-opacity="1" /><path clip-path="url(#clip590)" d="M100.76 1192.45 Q97.1493 1192.45 95.3206 1196.02 Q93.515 1199.56 93.515 1206.69 Q93.515 1213.79 95.3206 1217.36 Q97.1493 1220.9 100.76 1220.9 Q104.395 1220.9 106.2 1217.36 Q108.029 1213.79 108.029 1206.69 Q108.029 1199.56 106.2 1196.02 Q104.395 1192.45 100.76 1192.45 M100.76 1188.75 Q106.571 1188.75 109.626 1193.35 Q112.705 1197.94 112.705 1206.69 Q112.705 1215.41 109.626 1220.02 Q106.571 1224.6 100.76 1224.6 Q94.9502 1224.6 91.8715 1220.02 Q88.816 1215.41 88.816 1206.69 Q88.816 1197.94 91.8715 1193.35 Q94.9502 1188.75 100.76 1188.75 Z" fill="#000000" fill-rule="nonzero" fill-opacity="1" /><path clip-path="url(#clip590)" d="M120.922 1218.05 L125.807 1218.05 L125.807 1223.93 L120.922 1223.93 L120.922 1218.05 Z" fill="#000000" fill-rule="nonzero" fill-opacity="1" /><path clip-path="url(#clip590)" d="M145.992 1192.45 Q142.381 1192.45 140.552 1196.02 Q138.746 1199.56 138.746 1206.69 Q138.746 1213.79 140.552 1217.36 Q142.381 1220.9 145.992 1220.9 Q149.626 1220.9 151.431 1217.36 Q153.26 1213.79 153.26 1206.69 Q153.26 1199.56 151.431 1196.02 Q149.626 1192.45 145.992 1192.45 M145.992 1188.75 Q151.802 1188.75 154.857 1193.35 Q157.936 1197.94 157.936 1206.69 Q157.936 1215.41 154.857 1220.02 Q151.802 1224.6 145.992 1224.6 Q140.181 1224.6 137.103 1220.02 Q134.047 1215.41 134.047 1206.69 Q134.047 1197.94 137.103 1193.35 Q140.181 1188.75 145.992 1188.75 Z" fill="#000000" fill-rule="nonzero" fill-opacity="1" /><path clip-path="url(#clip590)" d="M176.153 1192.45 Q172.542 1192.45 170.714 1196.02 Q168.908 1199.56 168.908 1206.69 Q168.908 1213.79 170.714 1217.36 Q172.542 1220.9 176.153 1220.9 Q179.788 1220.9 181.593 1217.36 Q183.422 1213.79 183.422 1206.69 Q183.422 1199.56 181.593 1196.02 Q179.788 1192.45 176.153 1192.45 M176.153 1188.75 Q181.964 1188.75 185.019 1193.35 Q188.098 1197.94 188.098 1206.69 Q188.098 1215.41 185.019 1220.02 Q181.964 1224.6 176.153 1224.6 Q170.343 1224.6 167.265 1220.02 Q164.209 1215.41 164.209 1206.69 Q164.209 1197.94 167.265 1193.35 Q170.343 1188.75 176.153 1188.75 Z" fill="#000000" fill-rule="nonzero" fill-opacity="1" /><path clip-path="url(#clip590)" d="M101.756 1080.79 Q98.1447 1080.79 96.316 1084.36 Q94.5104 1087.9 94.5104 1095.03 Q94.5104 1102.13 96.316 1105.7 Q98.1447 1109.24 101.756 1109.24 Q105.39 1109.24 107.196 1105.7 Q109.024 1102.13 109.024 1095.03 Q109.024 1087.9 107.196 1084.36 Q105.39 1080.79 101.756 1080.79 M101.756 1077.09 Q107.566 1077.09 110.621 1081.69 Q113.7 1086.28 113.7 1095.03 Q113.7 1103.75 110.621 1108.36 Q107.566 1112.94 101.756 1112.94 Q95.9456 1112.94 92.8669 1108.36 Q89.8114 1103.75 89.8114 1095.03 Q89.8114 1086.28 92.8669 1081.69 Q95.9456 1077.09 101.756 1077.09 Z" fill="#000000" fill-rule="nonzero" fill-opacity="1" /><path clip-path="url(#clip590)" d="M121.918 1106.39 L126.802 1106.39 L126.802 1112.27 L121.918 1112.27 L121.918 1106.39 Z" fill="#000000" fill-rule="nonzero" fill-opacity="1" /><path clip-path="url(#clip590)" d="M141.015 1108.34 L157.334 1108.34 L157.334 1112.27 L135.39 1112.27 L135.39 1108.34 Q138.052 1105.58 142.635 1100.95 Q147.242 1096.3 148.422 1094.96 Q150.668 1092.43 151.547 1090.7 Q152.45 1088.94 152.45 1087.25 Q152.45 1084.49 150.505 1082.76 Q148.584 1081.02 145.482 1081.02 Q143.283 1081.02 140.83 1081.79 Q138.399 1082.55 135.621 1084.1 L135.621 1079.38 Q138.445 1078.25 140.899 1077.67 Q143.353 1077.09 145.39 1077.09 Q150.76 1077.09 153.955 1079.77 Q157.149 1082.46 157.149 1086.95 Q157.149 1089.08 156.339 1091 Q155.552 1092.9 153.445 1095.49 Q152.867 1096.16 149.765 1099.38 Q146.663 1102.57 141.015 1108.34 Z" fill="#000000" fill-rule="nonzero" fill-opacity="1" /><path clip-path="url(#clip590)" d="M167.195 1077.71 L185.552 1077.71 L185.552 1081.65 L171.478 1081.65 L171.478 1090.12 Q172.496 1089.77 173.515 1089.61 Q174.533 1089.43 175.552 1089.43 Q181.339 1089.43 184.718 1092.6 Q188.098 1095.77 188.098 1101.18 Q188.098 1106.76 184.626 1109.87 Q181.153 1112.94 174.834 1112.94 Q172.658 1112.94 170.39 1112.57 Q168.144 1112.2 165.737 1111.46 L165.737 1106.76 Q167.82 1107.9 170.042 1108.45 Q172.265 1109.01 174.741 1109.01 Q178.746 1109.01 181.084 1106.9 Q183.422 1104.8 183.422 1101.18 Q183.422 1097.57 181.084 1095.47 Q178.746 1093.36 174.741 1093.36 Q172.866 1093.36 170.991 1093.78 Q169.14 1094.19 167.195 1095.07 L167.195 1077.71 Z" fill="#000000" fill-rule="nonzero" fill-opacity="1" /><path clip-path="url(#clip590)" d="M100.76 969.131 Q97.1493 969.131 95.3206 972.696 Q93.515 976.237 93.515 983.367 Q93.515 990.473 95.3206 994.038 Q97.1493 997.58 100.76 997.58 Q104.395 997.58 106.2 994.038 Q108.029 990.473 108.029 983.367 Q108.029 976.237 106.2 972.696 Q104.395 969.131 100.76 969.131 M100.76 965.427 Q106.571 965.427 109.626 970.033 Q112.705 974.617 112.705 983.367 Q112.705 992.094 109.626 996.7 Q106.571 1001.28 100.76 1001.28 Q94.9502 1001.28 91.8715 996.7 Q88.816 992.094 88.816 983.367 Q88.816 974.617 91.8715 970.033 Q94.9502 965.427 100.76 965.427 Z" fill="#000000" fill-rule="nonzero" fill-opacity="1" /><path clip-path="url(#clip590)" d="M120.922 994.732 L125.807 994.732 L125.807 1000.61 L120.922 1000.61 L120.922 994.732 Z" fill="#000000" fill-rule="nonzero" fill-opacity="1" /><path clip-path="url(#clip590)" d="M136.038 966.052 L154.394 966.052 L154.394 969.987 L140.32 969.987 L140.32 978.459 Q141.339 978.112 142.357 977.95 Q143.376 977.765 144.394 977.765 Q150.181 977.765 153.561 980.936 Q156.941 984.107 156.941 989.524 Q156.941 995.103 153.468 998.205 Q149.996 1001.28 143.677 1001.28 Q141.501 1001.28 139.232 1000.91 Q136.987 1000.54 134.58 999.802 L134.58 995.103 Q136.663 996.237 138.885 996.793 Q141.107 997.348 143.584 997.348 Q147.589 997.348 149.927 995.242 Q152.265 993.135 152.265 989.524 Q152.265 985.913 149.927 983.807 Q147.589 981.7 143.584 981.7 Q141.709 981.7 139.834 982.117 Q137.982 982.533 136.038 983.413 L136.038 966.052 Z" fill="#000000" fill-rule="nonzero" fill-opacity="1" /><path clip-path="url(#clip590)" d="M176.153 969.131 Q172.542 969.131 170.714 972.696 Q168.908 976.237 168.908 983.367 Q168.908 990.473 170.714 994.038 Q172.542 997.58 176.153 997.58 Q179.788 997.58 181.593 994.038 Q183.422 990.473 183.422 983.367 Q183.422 976.237 181.593 972.696 Q179.788 969.131 176.153 969.131 M176.153 965.427 Q181.964 965.427 185.019 970.033 Q188.098 974.617 188.098 983.367 Q188.098 992.094 185.019 996.7 Q181.964 1001.28 176.153 1001.28 Q170.343 1001.28 167.265 996.7 Q164.209 992.094 164.209 983.367 Q164.209 974.617 167.265 970.033 Q170.343 965.427 176.153 965.427 Z" fill="#000000" fill-rule="nonzero" fill-opacity="1" /><path clip-path="url(#clip590)" d="M602.548 814.324 L602.548 827.206 L617.901 827.206 L617.901 832.999 L602.548 832.999 L602.548 857.628 Q602.548 863.178 604.047 864.758 Q605.586 866.338 610.244 866.338 L617.901 866.338 L617.901 872.576 L610.244 872.576 Q601.616 872.576 598.335 869.376 Q595.054 866.135 595.054 857.628 L595.054 832.999 L589.585 832.999 L589.585 827.206 L595.054 827.206 L595.054 814.324 L602.548 814.324 Z" fill="#000000" fill-rule="nonzero" fill-opacity="1" /><path clip-path="url(#clip590)" d="M655.047 834.903 L706.98 834.903 L706.98 841.708 L655.047 841.708 L655.047 834.903 M655.047 851.43 L706.98 851.43 L706.98 858.317 L655.047 858.317 L655.047 851.43 Z" fill="#000000" fill-rule="nonzero" fill-opacity="1" /><path clip-path="url(#clip590)" d="M752.431 865.689 L765.799 865.689 L765.799 819.55 L751.256 822.466 L751.256 815.013 L765.718 812.096 L773.901 812.096 L773.901 865.689 L787.269 865.689 L787.269 872.576 L752.431 872.576 L752.431 865.689 Z" fill="#000000" fill-rule="nonzero" fill-opacity="1" /><polyline clip-path="url(#clip594)" style="stroke:#009af9; stroke-linecap:round; stroke-linejoin:round; stroke-width:4; stroke-opacity:1; fill:none" points="250.381,1191.49 254.761,1189.53 259.142,1187.51 263.522,1185.45 267.902,1183.34 272.283,1181.17 276.663,1178.94 281.044,1176.66 285.424,1174.31 289.805,1171.9 294.185,1169.43 298.566,1166.89 302.946,1164.28 307.327,1161.6 311.707,1158.85 316.088,1156.02 320.468,1153.12 324.849,1150.14 329.229,1147.09 333.609,1143.96 337.99,1140.76 342.37,1137.47 346.751,1134.12 351.131,1130.69 355.512,1127.18 359.892,1123.61 364.273,1119.98 368.653,1116.28 373.034,1112.52 377.414,1108.71 381.795,1104.86 386.175,1100.96 390.555,1097.04 394.936,1093.08 399.316,1089.11 403.697,1085.14 408.077,1081.16 412.458,1077.2 416.838,1073.27 421.219,1069.37 425.599,1065.52 429.98,1061.72 434.36,1057.99 438.741,1054.35 443.121,1050.8 447.501,1047.34 451.882,1044 456.262,1040.78 460.643,1037.68 465.023,1034.71 469.404,1031.88 473.784,1029.18 478.165,1026.62 482.545,1024.19 486.926,1021.89 491.306,1019.71 495.687,1017.65 500.067,1015.68 504.447,1013.81 508.828,1012 513.208,1010.25 517.589,1008.53 521.969,1006.82 526.35,1005.09 530.73,1003.34 535.111,1001.52 539.491,999.622 543.872,997.617 548.252,995.486 552.633,993.209 557.013,990.77 561.393,988.155 565.774,985.358 570.154,982.373 574.535,979.203 578.915,975.857 583.296,972.352 587.676,968.712 592.057,964.973 596.437,961.178 600.818,957.386 605.198,953.667 609.579,950.111 613.959,946.824 618.339,943.935 622.72,941.603 627.1,940.017 631.481,939.405 635.861,940.041 640.242,942.25 644.622,946.411 649.003,952.959 653.383,962.378 657.764,975.178 662.144,991.856 666.525,1012.83 670.905,1038.37 675.286,1068.43 679.666,1102.63 684.046,1140.1 688.427,1179.55 692.807,1219.35 697.188,1257.8 701.568,1293.41 705.949,1325.12 710.329,1352.42 714.71,1375.31 719.09,1394.15 723.471,1409.48 727.851,1421.91 732.232,1431.99 736.612,1440.2 740.992,1446.91 745.373,1452.43 749.753,1456.97 754.134,1460.69 758.514,1463.71 762.895,1466.11 767.275,1467.95 771.656,1469.28 776.036,1470.13 780.417,1470.51 784.797,1470.46 789.178,1469.99 793.558,1469.12 797.938,1467.86 802.319,1466.23 806.699,1464.25 811.08,1461.94 815.46,1459.31 819.841,1456.4 824.221,1453.22 828.602,1449.79 832.982,1446.13 837.363,1442.28 841.743,1438.24 846.124,1434.05 850.504,1429.72 854.884,1425.28 859.265,1420.75 863.645,1416.14 868.026,1411.48 872.406,1406.79 876.787,1402.09 881.167,1397.38 885.548,1392.7 889.928,1388.04 894.309,1383.42 898.689,1378.87 903.07,1374.37 907.45,1369.96 911.83,1365.62 916.211,1361.37 920.591,1357.21 924.972,1353.15 929.352,1349.19 933.733,1345.33 938.113,1341.57 942.494,1337.91 946.874,1334.35 951.255,1330.89 955.635,1327.52 960.016,1324.25 964.396,1321.07 968.776,1317.97 973.157,1314.95 977.537,1312.02 981.918,1309.15 986.298,1306.35 990.679,1303.61 995.059,1300.93 999.44,1298.31 1003.82,1295.73 1008.2,1293.19 1012.58,1290.69 1016.96,1288.22 1021.34,1285.77 1025.72,1283.35 1030.1,1280.93 1034.48,1278.53 1038.86,1276.13 1043.24,1273.73 1047.62,1271.32 1052.01,1268.9 1056.39,1266.46 1060.77,1263.99 1065.15,1261.49 1069.53,1258.95 1073.91,1256.38 1078.29,1253.75 1082.67,1251.06 1087.05,1248.32 1091.43,1245.5 1095.81,1242.61 1100.19,1239.63 1104.57,1236.56 1108.95,1233.39 1113.33,1230.11 1117.71,1226.72 1122.09,1223.2 1126.47,1219.53 "/>
<path clip-path="url(#clip590)" d="M976.505 1045.92 L1121.8 1045.92 L1121.8 942.238 L976.505 942.238  Z" fill="#ffffff" fill-rule="evenodd" fill-opacity="1"/>
<polyline clip-path="url(#clip590)" style="stroke:#000000; stroke-linecap:round; stroke-linejoin:round; stroke-width:4; stroke-opacity:1; fill:none" points="976.505,1045.92 1121.8,1045.92 1121.8,942.238 976.505,942.238 976.505,1045.92 "/>
<polyline clip-path="url(#clip590)" style="stroke:#009af9; stroke-linecap:round; stroke-linejoin:round; stroke-width:4; stroke-opacity:1; fill:none" points="986.823,994.078 1048.73,994.078 "/>
<path clip-path="url(#clip590)" d="M1072.89 1013.77 Q1071.09 1018.39 1069.38 1019.81 Q1067.66 1021.22 1064.79 1021.22 L1061.39 1021.22 L1061.39 1017.65 L1063.89 1017.65 Q1065.65 1017.65 1066.62 1016.82 Q1067.59 1015.99 1068.77 1012.89 L1069.54 1010.94 L1059.05 985.432 L1063.57 985.432 L1071.67 1005.71 L1079.77 985.432 L1084.28 985.432 L1072.89 1013.77 Z" fill="#000000" fill-rule="nonzero" fill-opacity="1" /><path clip-path="url(#clip590)" d="M1091.57 1007.42 L1099.21 1007.42 L1099.21 981.057 L1090.9 982.724 L1090.9 978.465 L1099.17 976.798 L1103.84 976.798 L1103.84 1007.42 L1111.48 1007.42 L1111.48 1011.36 L1091.57 1011.36 L1091.57 1007.42 Z" fill="#000000" fill-rule="nonzero" fill-opacity="1" /></svg>
