<?xml version="1.0" encoding="utf-8"?>
<svg xmlns="http://www.w3.org/2000/svg" xmlns:xlink="http://www.w3.org/1999/xlink" width="600" height="400" viewBox="0 0 2400 1600">
<defs>
  <clipPath id="clip600">
    <rect x="0" y="0" width="2400" height="1600"/>
  </clipPath>
</defs>
<path clip-path="url(#clip600)" d="M0 1600 L2400 1600 L2400 0 L0 0  Z" fill="#ffffff" fill-rule="evenodd" fill-opacity="1"/>
<defs>
  <clipPath id="clip601">
    <rect x="480" y="0" width="1681" height="1600"/>
  </clipPath>
</defs>
<path clip-path="url(#clip600)" d="M223.103 1486.45 L2352.76 1486.45 L2352.76 47.2441 L223.103 47.2441  Z" fill="#ffffff" fill-rule="evenodd" fill-opacity="1"/>
<defs>
  <clipPath id="clip602">
    <rect x="223" y="47" width="2131" height="1440"/>
  </clipPath>
</defs>
<polyline clip-path="url(#clip602)" style="stroke:#000000; stroke-linecap:round; stroke-linejoin:round; stroke-width:2; stroke-opacity:0.1; fill:none" points="283.376,1486.45 283.376,47.2441 "/>
<polyline clip-path="url(#clip602)" style="stroke:#000000; stroke-linecap:round; stroke-linejoin:round; stroke-width:2; stroke-opacity:0.1; fill:none" points="785.652,1486.45 785.652,47.2441 "/>
<polyline clip-path="url(#clip602)" style="stroke:#000000; stroke-linecap:round; stroke-linejoin:round; stroke-width:2; stroke-opacity:0.1; fill:none" points="1287.93,1486.45 1287.93,47.2441 "/>
<polyline clip-path="url(#clip602)" style="stroke:#000000; stroke-linecap:round; stroke-linejoin:round; stroke-width:2; stroke-opacity:0.1; fill:none" points="1790.21,1486.45 1790.21,47.2441 "/>
<polyline clip-path="url(#clip602)" style="stroke:#000000; stroke-linecap:round; stroke-linejoin:round; stroke-width:2; stroke-opacity:0.1; fill:none" points="2292.48,1486.45 2292.48,47.2441 "/>
<polyline clip-path="url(#clip600)" style="stroke:#000000; stroke-linecap:round; stroke-linejoin:round; stroke-width:4; stroke-opacity:1; fill:none" points="223.103,1486.45 2352.76,1486.45 "/>
<polyline clip-path="url(#clip600)" style="stroke:#000000; stroke-linecap:round; stroke-linejoin:round; stroke-width:4; stroke-opacity:1; fill:none" points="283.376,1486.45 283.376,1467.55 "/>
<polyline clip-path="url(#clip600)" style="stroke:#000000; stroke-linecap:round; stroke-linejoin:round; stroke-width:4; stroke-opacity:1; fill:none" points="785.652,1486.45 785.652,1467.55 "/>
<polyline clip-path="url(#clip600)" style="stroke:#000000; stroke-linecap:round; stroke-linejoin:round; stroke-width:4; stroke-opacity:1; fill:none" points="1287.93,1486.45 1287.93,1467.55 "/>
<polyline clip-path="url(#clip600)" style="stroke:#000000; stroke-linecap:round; stroke-linejoin:round; stroke-width:4; stroke-opacity:1; fill:none" points="1790.21,1486.45 1790.21,1467.55 "/>
<polyline clip-path="url(#clip600)" style="stroke:#000000; stroke-linecap:round; stroke-linejoin:round; stroke-width:4; stroke-opacity:1; fill:none" points="2292.48,1486.45 2292.48,1467.55 "/>
<path clip-path="url(#clip600)" d="M260.76 1517.37 Q257.149 1517.37 255.32 1520.93 Q253.515 1524.47 253.515 1531.6 Q253.515 1538.71 255.32 1542.27 Q257.149 1545.82 260.76 1545.82 Q264.394 1545.82 266.2 1542.27 Q268.029 1538.71 268.029 1531.6 Q268.029 1524.47 266.2 1520.93 Q264.394 1517.37 260.76 1517.37 M260.76 1513.66 Q266.57 1513.66 269.626 1518.27 Q272.704 1522.85 272.704 1531.6 Q272.704 1540.33 269.626 1544.94 Q266.57 1549.52 260.76 1549.52 Q254.95 1549.52 251.871 1544.94 Q248.816 1540.33 248.816 1531.6 Q248.816 1522.85 251.871 1518.27 Q254.95 1513.66 260.76 1513.66 Z" fill="#000000" fill-rule="nonzero" fill-opacity="1" /><path clip-path="url(#clip600)" d="M280.922 1542.97 L285.806 1542.97 L285.806 1548.85 L280.922 1548.85 L280.922 1542.97 Z" fill="#000000" fill-rule="nonzero" fill-opacity="1" /><path clip-path="url(#clip600)" d="M305.991 1517.37 Q302.38 1517.37 300.552 1520.93 Q298.746 1524.47 298.746 1531.6 Q298.746 1538.71 300.552 1542.27 Q302.38 1545.82 305.991 1545.82 Q309.626 1545.82 311.431 1542.27 Q313.26 1538.71 313.26 1531.6 Q313.26 1524.47 311.431 1520.93 Q309.626 1517.37 305.991 1517.37 M305.991 1513.66 Q311.801 1513.66 314.857 1518.27 Q317.936 1522.85 317.936 1531.6 Q317.936 1540.33 314.857 1544.94 Q311.801 1549.52 305.991 1549.52 Q300.181 1549.52 297.102 1544.94 Q294.047 1540.33 294.047 1531.6 Q294.047 1522.85 297.102 1518.27 Q300.181 1513.66 305.991 1513.66 Z" fill="#000000" fill-rule="nonzero" fill-opacity="1" /><path clip-path="url(#clip600)" d="M763.535 1517.37 Q759.923 1517.37 758.095 1520.93 Q756.289 1524.47 756.289 1531.6 Q756.289 1538.71 758.095 1542.27 Q759.923 1545.82 763.535 1545.82 Q767.169 1545.82 768.974 1542.27 Q770.803 1538.71 770.803 1531.6 Q770.803 1524.47 768.974 1520.93 Q767.169 1517.37 763.535 1517.37 M763.535 1513.66 Q769.345 1513.66 772.4 1518.27 Q775.479 1522.85 775.479 1531.6 Q775.479 1540.33 772.4 1544.94 Q769.345 1549.52 763.535 1549.52 Q757.724 1549.52 754.646 1544.94 Q751.59 1540.33 751.59 1531.6 Q751.59 1522.85 754.646 1518.27 Q757.724 1513.66 763.535 1513.66 Z" fill="#000000" fill-rule="nonzero" fill-opacity="1" /><path clip-path="url(#clip600)" d="M783.696 1542.97 L788.581 1542.97 L788.581 1548.85 L783.696 1548.85 L783.696 1542.97 Z" fill="#000000" fill-rule="nonzero" fill-opacity="1" /><path clip-path="url(#clip600)" d="M798.812 1514.29 L817.168 1514.29 L817.168 1518.22 L803.094 1518.22 L803.094 1526.7 Q804.113 1526.35 805.132 1526.19 Q806.15 1526 807.169 1526 Q812.956 1526 816.335 1529.17 Q819.715 1532.34 819.715 1537.76 Q819.715 1543.34 816.243 1546.44 Q812.77 1549.52 806.451 1549.52 Q804.275 1549.52 802.007 1549.15 Q799.761 1548.78 797.354 1548.04 L797.354 1543.34 Q799.437 1544.47 801.659 1545.03 Q803.882 1545.58 806.358 1545.58 Q810.363 1545.58 812.701 1543.48 Q815.039 1541.37 815.039 1537.76 Q815.039 1534.15 812.701 1532.04 Q810.363 1529.94 806.358 1529.94 Q804.483 1529.94 802.608 1530.35 Q800.757 1530.77 798.812 1531.65 L798.812 1514.29 Z" fill="#000000" fill-rule="nonzero" fill-opacity="1" /><path clip-path="url(#clip600)" d="M1255.08 1544.91 L1262.72 1544.91 L1262.72 1518.55 L1254.41 1520.21 L1254.41 1515.95 L1262.67 1514.29 L1267.35 1514.29 L1267.35 1544.91 L1274.99 1544.91 L1274.99 1548.85 L1255.08 1548.85 L1255.08 1544.91 Z" fill="#000000" fill-rule="nonzero" fill-opacity="1" /><path clip-path="url(#clip600)" d="M1284.43 1542.97 L1289.32 1542.97 L1289.32 1548.85 L1284.43 1548.85 L1284.43 1542.97 Z" fill="#000000" fill-rule="nonzero" fill-opacity="1" /><path clip-path="url(#clip600)" d="M1309.5 1517.37 Q1305.89 1517.37 1304.06 1520.93 Q1302.26 1524.47 1302.26 1531.6 Q1302.26 1538.71 1304.06 1542.27 Q1305.89 1545.82 1309.5 1545.82 Q1313.14 1545.82 1314.94 1542.27 Q1316.77 1538.71 1316.77 1531.6 Q1316.77 1524.47 1314.94 1520.93 Q1313.14 1517.37 1309.5 1517.37 M1309.5 1513.66 Q1315.31 1513.66 1318.37 1518.27 Q1321.45 1522.85 1321.45 1531.6 Q1321.45 1540.33 1318.37 1544.94 Q1315.31 1549.52 1309.5 1549.52 Q1303.69 1549.52 1300.61 1544.94 Q1297.56 1540.33 1297.56 1531.6 Q1297.56 1522.85 1300.61 1518.27 Q1303.69 1513.66 1309.5 1513.66 Z" fill="#000000" fill-rule="nonzero" fill-opacity="1" /><path clip-path="url(#clip600)" d="M1757.86 1544.91 L1765.5 1544.91 L1765.5 1518.55 L1757.19 1520.21 L1757.19 1515.95 L1765.45 1514.29 L1770.13 1514.29 L1770.13 1544.91 L1777.76 1544.91 L1777.76 1548.85 L1757.86 1548.85 L1757.86 1544.91 Z" fill="#000000" fill-rule="nonzero" fill-opacity="1" /><path clip-path="url(#clip600)" d="M1787.21 1542.97 L1792.09 1542.97 L1792.09 1548.85 L1787.21 1548.85 L1787.21 1542.97 Z" fill="#000000" fill-rule="nonzero" fill-opacity="1" /><path clip-path="url(#clip600)" d="M1802.32 1514.29 L1820.68 1514.29 L1820.68 1518.22 L1806.61 1518.22 L1806.61 1526.7 Q1807.62 1526.35 1808.64 1526.19 Q1809.66 1526 1810.68 1526 Q1816.47 1526 1819.85 1529.17 Q1823.23 1532.34 1823.23 1537.76 Q1823.23 1543.34 1819.75 1546.44 Q1816.28 1549.52 1809.96 1549.52 Q1807.79 1549.52 1805.52 1549.15 Q1803.27 1548.78 1800.87 1548.04 L1800.87 1543.34 Q1802.95 1544.47 1805.17 1545.03 Q1807.39 1545.58 1809.87 1545.58 Q1813.87 1545.58 1816.21 1543.48 Q1818.55 1541.37 1818.55 1537.76 Q1818.55 1534.15 1816.21 1532.04 Q1813.87 1529.94 1809.87 1529.94 Q1808 1529.94 1806.12 1530.35 Q1804.27 1530.77 1802.32 1531.65 L1802.32 1514.29 Z" fill="#000000" fill-rule="nonzero" fill-opacity="1" /><path clip-path="url(#clip600)" d="M2263.72 1544.91 L2280.04 1544.91 L2280.04 1548.85 L2258.1 1548.85 L2258.1 1544.91 Q2260.76 1542.16 2265.34 1537.53 Q2269.95 1532.88 2271.13 1531.53 Q2273.37 1529.01 2274.25 1527.27 Q2275.16 1525.51 2275.16 1523.82 Q2275.16 1521.07 2273.21 1519.33 Q2271.29 1517.6 2268.19 1517.6 Q2265.99 1517.6 2263.54 1518.36 Q2261.11 1519.13 2258.33 1520.68 L2258.33 1515.95 Q2261.15 1514.82 2263.61 1514.24 Q2266.06 1513.66 2268.1 1513.66 Q2273.47 1513.66 2276.66 1516.35 Q2279.86 1519.03 2279.86 1523.52 Q2279.86 1525.65 2279.05 1527.57 Q2278.26 1529.47 2276.15 1532.07 Q2275.57 1532.74 2272.47 1535.95 Q2269.37 1539.15 2263.72 1544.91 Z" fill="#000000" fill-rule="nonzero" fill-opacity="1" /><path clip-path="url(#clip600)" d="M2289.86 1542.97 L2294.74 1542.97 L2294.74 1548.85 L2289.86 1548.85 L2289.86 1542.97 Z" fill="#000000" fill-rule="nonzero" fill-opacity="1" /><path clip-path="url(#clip600)" d="M2314.92 1517.37 Q2311.31 1517.37 2309.48 1520.93 Q2307.68 1524.47 2307.68 1531.6 Q2307.68 1538.71 2309.48 1542.27 Q2311.31 1545.82 2314.92 1545.82 Q2318.56 1545.82 2320.36 1542.27 Q2322.19 1538.71 2322.19 1531.6 Q2322.19 1524.47 2320.36 1520.93 Q2318.56 1517.37 2314.92 1517.37 M2314.92 1513.66 Q2320.73 1513.66 2323.79 1518.27 Q2326.87 1522.85 2326.87 1531.6 Q2326.87 1540.33 2323.79 1544.94 Q2320.73 1549.52 2314.92 1549.52 Q2309.11 1549.52 2306.04 1544.94 Q2302.98 1540.33 2302.98 1531.6 Q2302.98 1522.85 2306.04 1518.27 Q2309.11 1513.66 2314.92 1513.66 Z" fill="#000000" fill-rule="nonzero" fill-opacity="1" /><polyline clip-path="url(#clip602)" style="stroke:#000000; stroke-linecap:round; stroke-linejoin:round; stroke-width:2; stroke-opacity:0.1; fill:none" points="223.103,1440.25 2352.76,1440.25 "/>
<polyline clip-path="url(#clip602)" style="stroke:#000000; stroke-linecap:round; stroke-linejoin:round; stroke-width:2; stroke-opacity:0.1; fill:none" points="223.103,1220.17 2352.76,1220.17 "/>
<polyline clip-path="url(#clip602)" style="stroke:#000000; stroke-linecap:round; stroke-linejoin:round; stroke-width:2; stroke-opacity:0.1; fill:none" points="223.103,1000.1 2352.76,1000.1 "/>
<polyline clip-path="url(#clip602)" style="stroke:#000000; stroke-linecap:round; stroke-linejoin:round; stroke-width:2; stroke-opacity:0.1; fill:none" points="223.103,780.025 2352.76,780.025 "/>
<polyline clip-path="url(#clip602)" style="stroke:#000000; stroke-linecap:round; stroke-linejoin:round; stroke-width:2; stroke-opacity:0.1; fill:none" points="223.103,559.951 2352.76,559.951 "/>
<polyline clip-path="url(#clip602)" style="stroke:#000000; stroke-linecap:round; stroke-linejoin:round; stroke-width:2; stroke-opacity:0.1; fill:none" points="223.103,339.877 2352.76,339.877 "/>
<polyline clip-path="url(#clip602)" style="stroke:#000000; stroke-linecap:round; stroke-linejoin:round; stroke-width:2; stroke-opacity:0.1; fill:none" points="223.103,119.804 2352.76,119.804 "/>
<polyline clip-path="url(#clip600)" style="stroke:#000000; stroke-linecap:round; stroke-linejoin:round; stroke-width:4; stroke-opacity:1; fill:none" points="223.103,1486.45 223.103,47.2441 "/>
<polyline clip-path="url(#clip600)" style="stroke:#000000; stroke-linecap:round; stroke-linejoin:round; stroke-width:4; stroke-opacity:1; fill:none" points="223.103,1440.25 242,1440.25 "/>
<polyline clip-path="url(#clip600)" style="stroke:#000000; stroke-linecap:round; stroke-linejoin:round; stroke-width:4; stroke-opacity:1; fill:none" points="223.103,1220.17 242,1220.17 "/>
<polyline clip-path="url(#clip600)" style="stroke:#000000; stroke-linecap:round; stroke-linejoin:round; stroke-width:4; stroke-opacity:1; fill:none" points="223.103,1000.1 242,1000.1 "/>
<polyline clip-path="url(#clip600)" style="stroke:#000000; stroke-linecap:round; stroke-linejoin:round; stroke-width:4; stroke-opacity:1; fill:none" points="223.103,780.025 242,780.025 "/>
<polyline clip-path="url(#clip600)" style="stroke:#000000; stroke-linecap:round; stroke-linejoin:round; stroke-width:4; stroke-opacity:1; fill:none" points="223.103,559.951 242,559.951 "/>
<polyline clip-path="url(#clip600)" style="stroke:#000000; stroke-linecap:round; stroke-linejoin:round; stroke-width:4; stroke-opacity:1; fill:none" points="223.103,339.877 242,339.877 "/>
<polyline clip-path="url(#clip600)" style="stroke:#000000; stroke-linecap:round; stroke-linejoin:round; stroke-width:4; stroke-opacity:1; fill:none" points="223.103,119.804 242,119.804 "/>
<path clip-path="url(#clip600)" d="M50.9921 1440.7 L80.6679 1440.7 L80.6679 1444.63 L50.9921 1444.63 L50.9921 1440.7 Z" fill="#000000" fill-rule="nonzero" fill-opacity="1" /><path clip-path="url(#clip600)" d="M100.76 1426.04 Q97.1493 1426.04 95.3206 1429.61 Q93.515 1433.15 93.515 1440.28 Q93.515 1447.39 95.3206 1450.95 Q97.1493 1454.49 100.76 1454.49 Q104.395 1454.49 106.2 1450.95 Q108.029 1447.39 108.029 1440.28 Q108.029 1433.15 106.2 1429.61 Q104.395 1426.04 100.76 1426.04 M100.76 1422.34 Q106.571 1422.34 109.626 1426.95 Q112.705 1431.53 112.705 1440.28 Q112.705 1449.01 109.626 1453.61 Q106.571 1458.2 100.76 1458.2 Q94.9502 1458.2 91.8715 1453.61 Q88.816 1449.01 88.816 1440.28 Q88.816 1431.53 91.8715 1426.95 Q94.9502 1422.34 100.76 1422.34 Z" fill="#000000" fill-rule="nonzero" fill-opacity="1" /><path clip-path="url(#clip600)" d="M120.922 1451.65 L125.807 1451.65 L125.807 1457.53 L120.922 1457.53 L120.922 1451.65 Z" fill="#000000" fill-rule="nonzero" fill-opacity="1" /><path clip-path="url(#clip600)" d="M145.992 1426.04 Q142.381 1426.04 140.552 1429.61 Q138.746 1433.15 138.746 1440.28 Q138.746 1447.39 140.552 1450.95 Q142.381 1454.49 145.992 1454.49 Q149.626 1454.49 151.431 1450.95 Q153.26 1447.39 153.26 1440.28 Q153.26 1433.15 151.431 1429.61 Q149.626 1426.04 145.992 1426.04 M145.992 1422.34 Q151.802 1422.34 154.857 1426.95 Q157.936 1431.53 157.936 1440.28 Q157.936 1449.01 154.857 1453.61 Q151.802 1458.2 145.992 1458.2 Q140.181 1458.2 137.103 1453.61 Q134.047 1449.01 134.047 1440.28 Q134.047 1431.53 137.103 1426.95 Q140.181 1422.34 145.992 1422.34 Z" fill="#000000" fill-rule="nonzero" fill-opacity="1" /><path clip-path="url(#clip600)" d="M166.2 1422.97 L184.556 1422.97 L184.556 1426.9 L170.482 1426.9 L170.482 1435.37 Q171.501 1435.03 172.519 1434.86 Q173.538 1434.68 174.556 1434.68 Q180.343 1434.68 183.723 1437.85 Q187.103 1441.02 187.103 1446.44 Q187.103 1452.02 183.63 1455.12 Q180.158 1458.2 173.839 1458.2 Q171.663 1458.2 169.394 1457.83 Q167.149 1457.46 164.742 1456.72 L164.742 1452.02 Q166.825 1453.15 169.047 1453.71 Q171.269 1454.26 173.746 1454.26 Q177.751 1454.26 180.089 1452.16 Q182.427 1450.05 182.427 1446.44 Q182.427 1442.83 180.089 1440.72 Q177.751 1438.61 173.746 1438.61 Q171.871 1438.61 169.996 1439.03 Q168.144 1439.45 166.2 1440.33 L166.2 1422.97 Z" fill="#000000" fill-rule="nonzero" fill-opacity="1" /><path clip-path="url(#clip600)" d="M99.765 1205.97 Q96.1539 1205.97 94.3252 1209.54 Q92.5197 1213.08 92.5197 1220.21 Q92.5197 1227.31 94.3252 1230.88 Q96.1539 1234.42 99.765 1234.42 Q103.399 1234.42 105.205 1230.88 Q107.033 1227.31 107.033 1220.21 Q107.033 1213.08 105.205 1209.54 Q103.399 1205.97 99.765 1205.97 M99.765 1202.27 Q105.575 1202.27 108.631 1206.87 Q111.709 1211.46 111.709 1220.21 Q111.709 1228.93 108.631 1233.54 Q105.575 1238.12 99.765 1238.12 Q93.9549 1238.12 90.8762 1233.54 Q87.8206 1228.93 87.8206 1220.21 Q87.8206 1211.46 90.8762 1206.87 Q93.9549 1202.27 99.765 1202.27 Z" fill="#000000" fill-rule="nonzero" fill-opacity="1" /><path clip-path="url(#clip600)" d="M119.927 1231.57 L124.811 1231.57 L124.811 1237.45 L119.927 1237.45 L119.927 1231.57 Z" fill="#000000" fill-rule="nonzero" fill-opacity="1" /><path clip-path="url(#clip600)" d="M144.996 1205.97 Q141.385 1205.97 139.556 1209.54 Q137.751 1213.08 137.751 1220.21 Q137.751 1227.31 139.556 1230.88 Q141.385 1234.42 144.996 1234.42 Q148.63 1234.42 150.436 1230.88 Q152.265 1227.31 152.265 1220.21 Q152.265 1213.08 150.436 1209.54 Q148.63 1205.97 144.996 1205.97 M144.996 1202.27 Q150.806 1202.27 153.862 1206.87 Q156.941 1211.46 156.941 1220.21 Q156.941 1228.93 153.862 1233.54 Q150.806 1238.12 144.996 1238.12 Q139.186 1238.12 136.107 1233.54 Q133.052 1228.93 133.052 1220.21 Q133.052 1211.46 136.107 1206.87 Q139.186 1202.27 144.996 1202.27 Z" fill="#000000" fill-rule="nonzero" fill-opacity="1" /><path clip-path="url(#clip600)" d="M175.158 1205.97 Q171.547 1205.97 169.718 1209.54 Q167.913 1213.08 167.913 1220.21 Q167.913 1227.31 169.718 1230.88 Q171.547 1234.42 175.158 1234.42 Q178.792 1234.42 180.598 1230.88 Q182.427 1227.31 182.427 1220.21 Q182.427 1213.08 180.598 1209.54 Q178.792 1205.97 175.158 1205.97 M175.158 1202.27 Q180.968 1202.27 184.024 1206.87 Q187.103 1211.46 187.103 1220.21 Q187.103 1228.93 184.024 1233.54 Q180.968 1238.12 175.158 1238.12 Q169.348 1238.12 166.269 1233.54 Q163.214 1228.93 163.214 1220.21 Q163.214 1211.46 166.269 1206.87 Q169.348 1202.27 175.158 1202.27 Z" fill="#000000" fill-rule="nonzero" fill-opacity="1" /><path clip-path="url(#clip600)" d="M100.76 985.897 Q97.1493 985.897 95.3206 989.462 Q93.515 993.003 93.515 1000.13 Q93.515 1007.24 95.3206 1010.8 Q97.1493 1014.35 100.76 1014.35 Q104.395 1014.35 106.2 1010.8 Q108.029 1007.24 108.029 1000.13 Q108.029 993.003 106.2 989.462 Q104.395 985.897 100.76 985.897 M100.76 982.193 Q106.571 982.193 109.626 986.8 Q112.705 991.383 112.705 1000.13 Q112.705 1008.86 109.626 1013.47 Q106.571 1018.05 100.76 1018.05 Q94.9502 1018.05 91.8715 1013.47 Q88.816 1008.86 88.816 1000.13 Q88.816 991.383 91.8715 986.8 Q94.9502 982.193 100.76 982.193 Z" fill="#000000" fill-rule="nonzero" fill-opacity="1" /><path clip-path="url(#clip600)" d="M120.922 1011.5 L125.807 1011.5 L125.807 1017.38 L120.922 1017.38 L120.922 1011.5 Z" fill="#000000" fill-rule="nonzero" fill-opacity="1" /><path clip-path="url(#clip600)" d="M145.992 985.897 Q142.381 985.897 140.552 989.462 Q138.746 993.003 138.746 1000.13 Q138.746 1007.24 140.552 1010.8 Q142.381 1014.35 145.992 1014.35 Q149.626 1014.35 151.431 1010.8 Q153.26 1007.24 153.26 1000.13 Q153.26 993.003 151.431 989.462 Q149.626 985.897 145.992 985.897 M145.992 982.193 Q151.802 982.193 154.857 986.8 Q157.936 991.383 157.936 1000.13 Q157.936 1008.86 154.857 1013.47 Q151.802 1018.05 145.992 1018.05 Q140.181 1018.05 137.103 1013.47 Q134.047 1008.86 134.047 1000.13 Q134.047 991.383 137.103 986.8 Q140.181 982.193 145.992 982.193 Z" fill="#000000" fill-rule="nonzero" fill-opacity="1" /><path clip-path="url(#clip600)" d="M166.2 982.818 L184.556 982.818 L184.556 986.753 L170.482 986.753 L170.482 995.226 Q171.501 994.878 172.519 994.716 Q173.538 994.531 174.556 994.531 Q180.343 994.531 183.723 997.702 Q187.103 1000.87 187.103 1006.29 Q187.103 1011.87 183.63 1014.97 Q180.158 1018.05 173.839 1018.05 Q171.663 1018.05 169.394 1017.68 Q167.149 1017.31 164.742 1016.57 L164.742 1011.87 Q166.825 1013 169.047 1013.56 Q171.269 1014.11 173.746 1014.11 Q177.751 1014.11 180.089 1012.01 Q182.427 1009.9 182.427 1006.29 Q182.427 1002.68 180.089 1000.57 Q177.751 998.466 173.746 998.466 Q171.871 998.466 169.996 998.883 Q168.144 999.3 166.2 1000.18 L166.2 982.818 Z" fill="#000000" fill-rule="nonzero" fill-opacity="1" /><path clip-path="url(#clip600)" d="M99.765 765.823 Q96.1539 765.823 94.3252 769.388 Q92.5197 772.93 92.5197 780.059 Q92.5197 787.166 94.3252 790.731 Q96.1539 794.272 99.765 794.272 Q103.399 794.272 105.205 790.731 Q107.033 787.166 107.033 780.059 Q107.033 772.93 105.205 769.388 Q103.399 765.823 99.765 765.823 M99.765 762.12 Q105.575 762.12 108.631 766.726 Q111.709 771.309 111.709 780.059 Q111.709 788.786 108.631 793.393 Q105.575 797.976 99.765 797.976 Q93.9549 797.976 90.8762 793.393 Q87.8206 788.786 87.8206 780.059 Q87.8206 771.309 90.8762 766.726 Q93.9549 762.12 99.765 762.12 Z" fill="#000000" fill-rule="nonzero" fill-opacity="1" /><path clip-path="url(#clip600)" d="M119.927 791.425 L124.811 791.425 L124.811 797.305 L119.927 797.305 L119.927 791.425 Z" fill="#000000" fill-rule="nonzero" fill-opacity="1" /><path clip-path="url(#clip600)" d="M135.806 793.369 L143.445 793.369 L143.445 767.004 L135.135 768.671 L135.135 764.411 L143.399 762.745 L148.075 762.745 L148.075 793.369 L155.714 793.369 L155.714 797.305 L135.806 797.305 L135.806 793.369 Z" fill="#000000" fill-rule="nonzero" fill-opacity="1" /><path clip-path="url(#clip600)" d="M175.158 765.823 Q171.547 765.823 169.718 769.388 Q167.913 772.93 167.913 780.059 Q167.913 787.166 169.718 790.731 Q171.547 794.272 175.158 794.272 Q178.792 794.272 180.598 790.731 Q182.427 787.166 182.427 780.059 Q182.427 772.93 180.598 769.388 Q178.792 765.823 175.158 765.823 M175.158 762.12 Q180.968 762.12 184.024 766.726 Q187.103 771.309 187.103 780.059 Q187.103 788.786 184.024 793.393 Q180.968 797.976 175.158 797.976 Q169.348 797.976 166.269 793.393 Q163.214 788.786 163.214 780.059 Q163.214 771.309 166.269 766.726 Q169.348 762.12 175.158 762.12 Z" fill="#000000" fill-rule="nonzero" fill-opacity="1" /><path clip-path="url(#clip600)" d="M100.76 545.75 Q97.1493 545.75 95.3206 549.315 Q93.515 552.856 93.515 559.986 Q93.515 567.092 95.3206 570.657 Q97.1493 574.199 100.76 574.199 Q104.395 574.199 106.2 570.657 Q108.029 567.092 108.029 559.986 Q108.029 552.856 106.2 549.315 Q104.395 545.75 100.76 545.75 M100.76 542.046 Q106.571 542.046 109.626 546.652 Q112.705 551.236 112.705 559.986 Q112.705 568.713 109.626 573.319 Q106.571 577.902 100.76 577.902 Q94.9502 577.902 91.8715 573.319 Q88.816 568.713 88.816 559.986 Q88.816 551.236 91.8715 546.652 Q94.9502 542.046 100.76 542.046 Z" fill="#000000" fill-rule="nonzero" fill-opacity="1" /><path clip-path="url(#clip600)" d="M120.922 571.351 L125.807 571.351 L125.807 577.231 L120.922 577.231 L120.922 571.351 Z" fill="#000000" fill-rule="nonzero" fill-opacity="1" /><path clip-path="url(#clip600)" d="M136.802 573.296 L144.441 573.296 L144.441 546.93 L136.131 548.597 L136.131 544.338 L144.394 542.671 L149.07 542.671 L149.07 573.296 L156.709 573.296 L156.709 577.231 L136.802 577.231 L136.802 573.296 Z" fill="#000000" fill-rule="nonzero" fill-opacity="1" /><path clip-path="url(#clip600)" d="M166.2 542.671 L184.556 542.671 L184.556 546.606 L170.482 546.606 L170.482 555.078 Q171.501 554.731 172.519 554.569 Q173.538 554.384 174.556 554.384 Q180.343 554.384 183.723 557.555 Q187.103 560.726 187.103 566.143 Q187.103 571.722 183.63 574.824 Q180.158 577.902 173.839 577.902 Q171.663 577.902 169.394 577.532 Q167.149 577.162 164.742 576.421 L164.742 571.722 Q166.825 572.856 169.047 573.412 Q171.269 573.967 173.746 573.967 Q177.751 573.967 180.089 571.861 Q182.427 569.754 182.427 566.143 Q182.427 562.532 180.089 560.426 Q177.751 558.319 173.746 558.319 Q171.871 558.319 169.996 558.736 Q168.144 559.152 166.2 560.032 L166.2 542.671 Z" fill="#000000" fill-rule="nonzero" fill-opacity="1" /><path clip-path="url(#clip600)" d="M99.765 325.676 Q96.1539 325.676 94.3252 329.241 Q92.5197 332.783 92.5197 339.912 Q92.5197 347.019 94.3252 350.583 Q96.1539 354.125 99.765 354.125 Q103.399 354.125 105.205 350.583 Q107.033 347.019 107.033 339.912 Q107.033 332.783 105.205 329.241 Q103.399 325.676 99.765 325.676 M99.765 321.972 Q105.575 321.972 108.631 326.579 Q111.709 331.162 111.709 339.912 Q111.709 348.639 108.631 353.245 Q105.575 357.829 99.765 357.829 Q93.9549 357.829 90.8762 353.245 Q87.8206 348.639 87.8206 339.912 Q87.8206 331.162 90.8762 326.579 Q93.9549 321.972 99.765 321.972 Z" fill="#000000" fill-rule="nonzero" fill-opacity="1" /><path clip-path="url(#clip600)" d="M119.927 351.278 L124.811 351.278 L124.811 357.157 L119.927 357.157 L119.927 351.278 Z" fill="#000000" fill-rule="nonzero" fill-opacity="1" /><path clip-path="url(#clip600)" d="M139.024 353.222 L155.343 353.222 L155.343 357.157 L133.399 357.157 L133.399 353.222 Q136.061 350.468 140.644 345.838 Q145.251 341.185 146.431 339.843 Q148.677 337.32 149.556 335.583 Q150.459 333.824 150.459 332.134 Q150.459 329.38 148.515 327.644 Q146.593 325.908 143.492 325.908 Q141.293 325.908 138.839 326.671 Q136.408 327.435 133.631 328.986 L133.631 324.264 Q136.455 323.13 138.908 322.551 Q141.362 321.972 143.399 321.972 Q148.769 321.972 151.964 324.658 Q155.158 327.343 155.158 331.833 Q155.158 333.963 154.348 335.884 Q153.561 337.783 151.455 340.375 Q150.876 341.046 147.774 344.264 Q144.672 347.458 139.024 353.222 Z" fill="#000000" fill-rule="nonzero" fill-opacity="1" /><path clip-path="url(#clip600)" d="M175.158 325.676 Q171.547 325.676 169.718 329.241 Q167.913 332.783 167.913 339.912 Q167.913 347.019 169.718 350.583 Q171.547 354.125 175.158 354.125 Q178.792 354.125 180.598 350.583 Q182.427 347.019 182.427 339.912 Q182.427 332.783 180.598 329.241 Q178.792 325.676 175.158 325.676 M175.158 321.972 Q180.968 321.972 184.024 326.579 Q187.103 331.162 187.103 339.912 Q187.103 348.639 184.024 353.245 Q180.968 357.829 175.158 357.829 Q169.348 357.829 166.269 353.245 Q163.214 348.639 163.214 339.912 Q163.214 331.162 166.269 326.579 Q169.348 321.972 175.158 321.972 Z" fill="#000000" fill-rule="nonzero" fill-opacity="1" /><path clip-path="url(#clip600)" d="M100.76 105.603 Q97.1493 105.603 95.3206 109.167 Q93.515 112.709 93.515 119.839 Q93.515 126.945 95.3206 130.51 Q97.1493 134.051 100.76 134.051 Q104.395 134.051 106.2 130.51 Q108.029 126.945 108.029 119.839 Q108.029 112.709 106.2 109.167 Q104.395 105.603 100.76 105.603 M100.76 101.899 Q106.571 101.899 109.626 106.505 Q112.705 111.089 112.705 119.839 Q112.705 128.565 109.626 133.172 Q106.571 137.755 100.76 137.755 Q94.9502 137.755 91.8715 133.172 Q88.816 128.565 88.816 119.839 Q88.816 111.089 91.8715 106.505 Q94.9502 101.899 100.76 101.899 Z" fill="#000000" fill-rule="nonzero" fill-opacity="1" /><path clip-path="url(#clip600)" d="M120.922 131.204 L125.807 131.204 L125.807 137.084 L120.922 137.084 L120.922 131.204 Z" fill="#000000" fill-rule="nonzero" fill-opacity="1" /><path clip-path="url(#clip600)" d="M140.019 133.149 L156.339 133.149 L156.339 137.084 L134.394 137.084 L134.394 133.149 Q137.056 130.394 141.64 125.764 Q146.246 121.112 147.427 119.769 Q149.672 117.246 150.552 115.51 Q151.455 113.751 151.455 112.061 Q151.455 109.306 149.51 107.57 Q147.589 105.834 144.487 105.834 Q142.288 105.834 139.834 106.598 Q137.404 107.362 134.626 108.913 L134.626 104.19 Q137.45 103.056 139.904 102.478 Q142.357 101.899 144.394 101.899 Q149.765 101.899 152.959 104.584 Q156.154 107.269 156.154 111.76 Q156.154 113.89 155.343 115.811 Q154.556 117.709 152.45 120.302 Q151.871 120.973 148.769 124.19 Q145.668 127.385 140.019 133.149 Z" fill="#000000" fill-rule="nonzero" fill-opacity="1" /><path clip-path="url(#clip600)" d="M166.2 102.524 L184.556 102.524 L184.556 106.459 L170.482 106.459 L170.482 114.931 Q171.501 114.584 172.519 114.422 Q173.538 114.237 174.556 114.237 Q180.343 114.237 183.723 117.408 Q187.103 120.579 187.103 125.996 Q187.103 131.575 183.63 134.676 Q180.158 137.755 173.839 137.755 Q171.663 137.755 169.394 137.385 Q167.149 137.014 164.742 136.274 L164.742 131.575 Q166.825 132.709 169.047 133.264 Q171.269 133.82 173.746 133.82 Q177.751 133.82 180.089 131.713 Q182.427 129.607 182.427 125.996 Q182.427 122.385 180.089 120.278 Q177.751 118.172 173.746 118.172 Q171.871 118.172 169.996 118.589 Q168.144 119.005 166.2 119.885 L166.2 102.524 Z" fill="#000000" fill-rule="nonzero" fill-opacity="1" /><polyline clip-path="url(#clip602)" style="stroke:#009af9; stroke-linecap:round; stroke-linejoin:round; stroke-width:4; stroke-opacity:1; fill:none" points="283.376,1220.17 293.421,1176.6 303.467,1133.91 313.512,1092.11 323.558,1051.2 333.603,1011.18 343.649,972.059 353.694,933.836 363.74,896.511 373.786,860.086 383.831,824.56 393.877,789.933 403.922,756.205 413.968,723.375 424.013,691.44 434.059,660.4 444.104,630.251 454.15,600.992 464.195,572.618 474.241,545.127 484.286,518.514 494.332,492.775 504.377,467.906 514.423,443.902 524.469,420.758 534.514,398.468 544.56,377.025 554.605,356.425 564.651,336.66 574.696,317.724 584.742,299.61 594.787,282.31 604.833,265.816 614.878,250.122 624.924,235.219 634.969,221.098 645.015,207.752 655.061,195.171 665.106,183.346 675.152,172.269 685.197,161.93 695.243,152.319 705.288,143.428 715.334,135.245 725.379,127.762 735.425,120.967 745.47,114.852 755.516,109.404 765.561,104.614 775.607,100.471 785.652,96.9647 795.698,94.0836 805.744,91.817 815.789,90.1538 825.835,89.0829 835.88,88.5932 845.926,88.6732 855.971,89.3118 866.017,90.4976 876.062,92.219 886.108,94.4648 896.153,97.2233 906.199,100.483 916.244,104.232 926.29,108.46 936.335,113.154 946.381,118.304 956.427,123.896 966.472,129.921 976.518,136.366 986.563,143.22 996.609,150.471 1006.65,158.109 1016.7,166.12 1026.75,174.495 1036.79,183.222 1046.84,192.289 1056.88,201.685 1066.93,211.4 1076.97,221.422 1087.02,231.739 1097.06,242.342 1107.11,253.218 1117.16,264.358 1127.2,275.75 1137.25,287.385 1147.29,299.25 1157.34,311.337 1167.38,323.634 1177.43,336.132 1187.47,348.819 1197.52,361.687 1207.56,374.725 1217.61,387.923 1227.66,401.272 1237.7,414.762 1247.75,428.383 1257.79,442.127 1267.84,455.984 1277.88,469.944 1287.93,484 1297.97,498.141 1308.02,512.36 1318.07,526.648 1328.11,540.996 1338.16,555.397 1348.2,569.841 1358.25,584.321 1368.29,598.829 1378.34,613.357 1388.38,627.899 1398.43,642.445 1408.48,656.989 1418.52,671.524 1428.57,686.043 1438.61,700.539 1448.66,715.005 1458.7,729.435 1468.75,743.822 1478.79,758.159 1488.84,772.442 1498.89,786.663 1508.93,800.817 1518.98,814.899 1529.02,828.902 1539.07,842.822 1549.11,856.653 1559.16,870.39 1569.2,884.029 1579.25,897.563 1589.3,910.989 1599.34,924.303 1609.39,937.499 1619.43,950.574 1629.48,963.523 1639.52,976.343 1649.57,989.03 1659.61,1001.58 1669.66,1013.99 1679.71,1026.26 1689.75,1038.38 1699.8,1050.34 1709.84,1062.16 1719.89,1073.82 1729.93,1085.32 1739.98,1096.66 1750.02,1107.84 1760.07,1118.85 1770.11,1129.7 1780.16,1140.37 1790.21,1150.87 1800.25,1161.2 1810.3,1171.36 1820.34,1181.33 1830.39,1191.13 1840.43,1200.75 1850.48,1210.19 1860.52,1219.44 1870.57,1228.52 1880.62,1237.4 1890.66,1246.11 1900.71,1254.63 1910.75,1262.96 1920.8,1271.11 1930.84,1279.07 1940.89,1286.84 1950.93,1294.43 1960.98,1301.83 1971.03,1309.04 1981.07,1316.07 1991.12,1322.91 2001.16,1329.56 2011.21,1336.03 2021.25,1342.31 2031.3,1348.41 2041.34,1354.32 2051.39,1360.05 2061.44,1365.6 2071.48,1370.96 2081.53,1376.15 2091.57,1381.15 2101.62,1385.98 2111.66,1390.62 2121.71,1395.1 2131.75,1399.39 2141.8,1403.51 2151.85,1407.47 2161.89,1411.24 2171.94,1414.85 2181.98,1418.3 2192.03,1421.57 2202.07,1424.68 2212.12,1427.63 2222.16,1430.42 2232.21,1433.05 2242.26,1435.52 2252.3,1437.83 2262.35,1439.99 2272.39,1442 2282.44,1443.86 2292.48,1445.58 "/>
<polyline clip-path="url(#clip602)" style="stroke:#e26f46; stroke-linecap:round; stroke-linejoin:round; stroke-width:4; stroke-opacity:1; fill:none" points="283.376,1220.18 293.421,1176.7 303.467,1134.09 313.512,1092.36 323.558,1051.51 333.603,1011.53 343.649,972.445 353.694,934.244 363.74,896.932 373.786,860.511 383.831,824.982 393.877,790.346 403.922,756.602 413.968,723.749 424.013,691.789 434.059,660.718 444.104,630.535 454.15,601.239 464.195,572.825 474.241,545.293 484.286,518.637 494.332,492.854 504.377,467.941 514.423,443.892 524.469,420.703 534.514,398.367 544.56,376.881 554.605,356.237 564.651,336.43 574.696,317.453 584.742,299.299 594.787,281.961 604.833,265.432 614.878,249.703 624.924,234.767 634.969,220.616 645.015,207.242 655.061,194.635 665.106,182.786 675.152,171.688 685.197,161.329 695.243,151.702 705.288,142.796 715.334,134.601 725.379,127.108 735.425,120.306 745.47,114.185 755.516,108.734 765.561,103.944 775.607,99.8021 785.652,96.2992 795.698,93.4238 805.744,91.165 815.789,89.5116 825.835,88.4524 835.88,87.9763 845.926,88.0718 855.971,88.7277 866.017,89.9324 876.062,91.6745 886.108,93.9424 896.153,96.7246 906.199,100.01 916.244,103.786 926.29,108.041 936.335,112.764 946.381,117.944 956.427,123.568 966.472,129.624 976.518,136.102 986.563,142.99 996.609,150.276 1006.65,157.949 1016.7,165.996 1026.75,174.407 1036.79,183.17 1046.84,192.274 1056.88,201.708 1066.93,211.459 1076.97,221.518 1087.02,231.872 1097.06,242.511 1107.11,253.424 1117.16,264.6 1127.2,276.027 1137.25,287.696 1147.29,299.596 1157.34,311.716 1167.38,324.045 1177.43,336.574 1187.47,349.292 1197.52,362.189 1207.56,375.254 1217.61,388.479 1227.66,401.853 1237.7,415.366 1247.75,429.009 1257.79,442.773 1267.84,456.648 1277.88,470.626 1287.93,484.696 1297.97,498.851 1308.02,513.081 1318.07,527.377 1328.11,541.732 1338.16,556.138 1348.2,570.584 1358.25,585.065 1368.29,599.572 1378.34,614.097 1388.38,628.632 1398.43,643.17 1408.48,657.704 1418.52,672.227 1428.57,686.732 1438.61,701.211 1448.66,715.659 1458.7,730.068 1468.75,744.432 1478.79,758.745 1488.84,773.002 1498.89,787.195 1508.93,801.32 1518.98,815.371 1529.02,829.342 1539.07,843.228 1549.11,857.023 1559.16,870.724 1569.2,884.325 1579.25,897.821 1589.3,911.208 1599.34,924.482 1609.39,937.637 1619.43,950.671 1629.48,963.58 1639.52,976.359 1649.57,989.004 1659.61,1001.51 1669.66,1013.88 1679.71,1026.11 1689.75,1038.19 1699.8,1050.12 1709.84,1061.9 1719.89,1073.52 1729.93,1084.98 1739.98,1096.29 1750.02,1107.44 1760.07,1118.42 1770.11,1129.23 1780.16,1139.88 1790.21,1150.35 1800.25,1160.66 1810.3,1170.79 1820.34,1180.74 1830.39,1190.52 1840.43,1200.13 1850.48,1209.55 1860.52,1218.8 1870.57,1227.86 1880.62,1236.75 1890.66,1245.45 1900.71,1253.97 1910.75,1262.31 1920.8,1270.46 1930.84,1278.43 1940.89,1286.21 1950.93,1293.81 1960.98,1301.23 1971.03,1308.46 1981.07,1315.51 1991.12,1322.38 2001.16,1329.05 2011.21,1335.55 2021.25,1341.86 2031.3,1347.99 2041.34,1353.94 2051.39,1359.7 2061.44,1365.29 2071.48,1370.69 2081.53,1375.91 2091.57,1380.95 2101.62,1385.82 2111.66,1390.5 2121.71,1395.01 2131.75,1399.35 2141.8,1403.51 2151.85,1407.49 2161.89,1411.31 2171.94,1414.95 2181.98,1418.42 2192.03,1421.72 2202.07,1424.85 2212.12,1427.82 2222.16,1430.62 2232.21,1433.26 2242.26,1435.73 2252.3,1438.05 2262.35,1440.2 2272.39,1442.2 2282.44,1444.03 2292.48,1445.72 "/>
<path clip-path="url(#clip600)" d="M1632.21 250.738 L2281.77 250.738 L2281.77 95.2176 L1632.21 95.2176  Z" fill="#ffffff" fill-rule="evenodd" fill-opacity="1"/>
<polyline clip-path="url(#clip600)" style="stroke:#000000; stroke-linecap:round; stroke-linejoin:round; stroke-width:4; stroke-opacity:1; fill:none" points="1632.21,250.738 2281.77,250.738 2281.77,95.2176 1632.21,95.2176 1632.21,250.738 "/>
<polyline clip-path="url(#clip600)" style="stroke:#009af9; stroke-linecap:round; stroke-linejoin:round; stroke-width:4; stroke-opacity:1; fill:none" points="1655.87,147.058 1797.85,147.058 "/>
<path clip-path="url(#clip600)" d="M1837.34 134.384 L1831 151.583 L1843.71 151.583 L1837.34 134.384 M1834.7 129.778 L1840.01 129.778 L1853.18 164.338 L1848.32 164.338 L1845.17 155.472 L1829.59 155.472 L1826.44 164.338 L1821.51 164.338 L1834.7 129.778 Z" fill="#000000" fill-rule="nonzero" fill-opacity="1" /><path clip-path="url(#clip600)" d="M1879.59 148.689 L1879.59 164.338 L1875.33 164.338 L1875.33 148.828 Q1875.33 145.148 1873.89 143.319 Q1872.46 141.49 1869.59 141.49 Q1866.14 141.49 1864.15 143.69 Q1862.16 145.889 1862.16 149.685 L1862.16 164.338 L1857.88 164.338 L1857.88 138.412 L1862.16 138.412 L1862.16 142.44 Q1863.69 140.102 1865.75 138.944 Q1867.83 137.787 1870.54 137.787 Q1875 137.787 1877.3 140.565 Q1879.59 143.319 1879.59 148.689 Z" fill="#000000" fill-rule="nonzero" fill-opacity="1" /><path clip-path="url(#clip600)" d="M1899.87 151.305 Q1894.7 151.305 1892.71 152.486 Q1890.72 153.666 1890.72 156.514 Q1890.72 158.782 1892.2 160.125 Q1893.71 161.444 1896.28 161.444 Q1899.82 161.444 1901.95 158.944 Q1904.1 156.421 1904.1 152.254 L1904.1 151.305 L1899.87 151.305 M1908.36 149.546 L1908.36 164.338 L1904.1 164.338 L1904.1 160.402 Q1902.64 162.763 1900.47 163.898 Q1898.29 165.009 1895.14 165.009 Q1891.16 165.009 1888.8 162.787 Q1886.46 160.541 1886.46 156.791 Q1886.46 152.416 1889.38 150.194 Q1892.32 147.972 1898.13 147.972 L1904.1 147.972 L1904.1 147.555 Q1904.1 144.615 1902.16 143.018 Q1900.24 141.398 1896.74 141.398 Q1894.52 141.398 1892.41 141.93 Q1890.31 142.463 1888.36 143.527 L1888.36 139.592 Q1890.7 138.69 1892.9 138.25 Q1895.1 137.787 1897.18 137.787 Q1902.81 137.787 1905.58 140.703 Q1908.36 143.62 1908.36 149.546 Z" fill="#000000" fill-rule="nonzero" fill-opacity="1" /><path clip-path="url(#clip600)" d="M1917.13 128.319 L1921.39 128.319 L1921.39 164.338 L1917.13 164.338 L1917.13 128.319 Z" fill="#000000" fill-rule="nonzero" fill-opacity="1" /><path clip-path="url(#clip600)" d="M1941.09 166.745 Q1939.29 171.375 1937.57 172.787 Q1935.86 174.199 1932.99 174.199 L1929.59 174.199 L1929.59 170.634 L1932.09 170.634 Q1933.85 170.634 1934.82 169.8 Q1935.79 168.967 1936.97 165.865 L1937.74 163.921 L1927.25 138.412 L1931.76 138.412 L1939.87 158.689 L1947.97 138.412 L1952.48 138.412 L1941.09 166.745 Z" fill="#000000" fill-rule="nonzero" fill-opacity="1" /><path clip-path="url(#clip600)" d="M1962.57 131.051 L1962.57 138.412 L1971.35 138.412 L1971.35 141.722 L1962.57 141.722 L1962.57 155.796 Q1962.57 158.967 1963.43 159.87 Q1964.31 160.773 1966.97 160.773 L1971.35 160.773 L1971.35 164.338 L1966.97 164.338 Q1962.04 164.338 1960.17 162.509 Q1958.29 160.657 1958.29 155.796 L1958.29 141.722 L1955.17 141.722 L1955.17 138.412 L1958.29 138.412 L1958.29 131.051 L1962.57 131.051 Z" fill="#000000" fill-rule="nonzero" fill-opacity="1" /><path clip-path="url(#clip600)" d="M1976.95 138.412 L1981.21 138.412 L1981.21 164.338 L1976.95 164.338 L1976.95 138.412 M1976.95 128.319 L1981.21 128.319 L1981.21 133.713 L1976.95 133.713 L1976.95 128.319 Z" fill="#000000" fill-rule="nonzero" fill-opacity="1" /><path clip-path="url(#clip600)" d="M2008.78 139.407 L2008.78 143.389 Q2006.97 142.393 2005.14 141.907 Q2003.34 141.398 2001.49 141.398 Q1997.34 141.398 1995.05 144.037 Q1992.76 146.652 1992.76 151.398 Q1992.76 156.143 1995.05 158.782 Q1997.34 161.398 2001.49 161.398 Q2003.34 161.398 2005.14 160.912 Q2006.97 160.402 2008.78 159.407 L2008.78 163.342 Q2006.99 164.176 2005.07 164.592 Q2003.18 165.009 2001.02 165.009 Q1995.17 165.009 1991.72 161.328 Q1988.27 157.648 1988.27 151.398 Q1988.27 145.055 1991.74 141.421 Q1995.24 137.787 2001.3 137.787 Q2003.27 137.787 2005.14 138.203 Q2007.02 138.597 2008.78 139.407 Z" fill="#000000" fill-rule="nonzero" fill-opacity="1" /><path clip-path="url(#clip600)" d="M2027.97 151.305 Q2022.8 151.305 2020.81 152.486 Q2018.82 153.666 2018.82 156.514 Q2018.82 158.782 2020.3 160.125 Q2021.81 161.444 2024.38 161.444 Q2027.92 161.444 2030.05 158.944 Q2032.2 156.421 2032.2 152.254 L2032.2 151.305 L2027.97 151.305 M2036.46 149.546 L2036.46 164.338 L2032.2 164.338 L2032.2 160.402 Q2030.74 162.763 2028.57 163.898 Q2026.39 165.009 2023.24 165.009 Q2019.26 165.009 2016.9 162.787 Q2014.56 160.541 2014.56 156.791 Q2014.56 152.416 2017.48 150.194 Q2020.42 147.972 2026.23 147.972 L2032.2 147.972 L2032.2 147.555 Q2032.2 144.615 2030.26 143.018 Q2028.34 141.398 2024.84 141.398 Q2022.62 141.398 2020.51 141.93 Q2018.41 142.463 2016.46 143.527 L2016.46 139.592 Q2018.8 138.69 2021 138.25 Q2023.2 137.787 2025.28 137.787 Q2030.91 137.787 2033.68 140.703 Q2036.46 143.62 2036.46 149.546 Z" fill="#000000" fill-rule="nonzero" fill-opacity="1" /><path clip-path="url(#clip600)" d="M2045.24 128.319 L2049.49 128.319 L2049.49 164.338 L2045.24 164.338 L2045.24 128.319 Z" fill="#000000" fill-rule="nonzero" fill-opacity="1" /><path clip-path="url(#clip600)" d="M2094.38 130.912 L2094.38 135.472 Q2091.72 134.199 2089.36 133.574 Q2086.99 132.949 2084.8 132.949 Q2080.98 132.949 2078.89 134.43 Q2076.83 135.912 2076.83 138.643 Q2076.83 140.935 2078.2 142.115 Q2079.59 143.273 2083.43 143.99 L2086.25 144.569 Q2091.49 145.565 2093.96 148.088 Q2096.46 150.588 2096.46 154.801 Q2096.46 159.824 2093.08 162.416 Q2089.73 165.009 2083.22 165.009 Q2080.77 165.009 2077.99 164.453 Q2075.24 163.898 2072.27 162.81 L2072.27 157.995 Q2075.12 159.592 2077.85 160.402 Q2080.58 161.213 2083.22 161.213 Q2087.23 161.213 2089.4 159.639 Q2091.58 158.064 2091.58 155.148 Q2091.58 152.602 2090 151.166 Q2088.45 149.731 2084.89 149.014 L2082.04 148.458 Q2076.81 147.416 2074.47 145.194 Q2072.13 142.972 2072.13 139.014 Q2072.13 134.43 2075.35 131.791 Q2078.59 129.153 2084.26 129.153 Q2086.69 129.153 2089.22 129.592 Q2091.74 130.032 2094.38 130.912 Z" fill="#000000" fill-rule="nonzero" fill-opacity="1" /><path clip-path="url(#clip600)" d="M2113.61 141.398 Q2110.19 141.398 2108.2 144.083 Q2106.21 146.745 2106.21 151.398 Q2106.21 156.051 2108.17 158.736 Q2110.17 161.398 2113.61 161.398 Q2117.02 161.398 2119.01 158.713 Q2121 156.027 2121 151.398 Q2121 146.791 2119.01 144.106 Q2117.02 141.398 2113.61 141.398 M2113.61 137.787 Q2119.17 137.787 2122.34 141.398 Q2125.51 145.009 2125.51 151.398 Q2125.51 157.764 2122.34 161.398 Q2119.17 165.009 2113.61 165.009 Q2108.04 165.009 2104.86 161.398 Q2101.72 157.764 2101.72 151.398 Q2101.72 145.009 2104.86 141.398 Q2108.04 137.787 2113.61 137.787 Z" fill="#000000" fill-rule="nonzero" fill-opacity="1" /><path clip-path="url(#clip600)" d="M2132.57 128.319 L2136.83 128.319 L2136.83 164.338 L2132.57 164.338 L2132.57 128.319 Z" fill="#000000" fill-rule="nonzero" fill-opacity="1" /><path clip-path="url(#clip600)" d="M2145.3 154.106 L2145.3 138.412 L2149.56 138.412 L2149.56 153.944 Q2149.56 157.625 2151 159.476 Q2152.43 161.305 2155.3 161.305 Q2158.75 161.305 2160.74 159.106 Q2162.76 156.907 2162.76 153.111 L2162.76 138.412 L2167.02 138.412 L2167.02 164.338 L2162.76 164.338 L2162.76 160.356 Q2161.21 162.717 2159.15 163.875 Q2157.11 165.009 2154.4 165.009 Q2149.93 165.009 2147.62 162.231 Q2145.3 159.453 2145.3 154.106 M2156.02 137.787 L2156.02 137.787 Z" fill="#000000" fill-rule="nonzero" fill-opacity="1" /><path clip-path="url(#clip600)" d="M2180 131.051 L2180 138.412 L2188.78 138.412 L2188.78 141.722 L2180 141.722 L2180 155.796 Q2180 158.967 2180.86 159.87 Q2181.74 160.773 2184.4 160.773 L2188.78 160.773 L2188.78 164.338 L2184.4 164.338 Q2179.47 164.338 2177.6 162.509 Q2175.72 160.657 2175.72 155.796 L2175.72 141.722 L2172.6 141.722 L2172.6 138.412 L2175.72 138.412 L2175.72 131.051 L2180 131.051 Z" fill="#000000" fill-rule="nonzero" fill-opacity="1" /><path clip-path="url(#clip600)" d="M2194.38 138.412 L2198.64 138.412 L2198.64 164.338 L2194.38 164.338 L2194.38 138.412 M2194.38 128.319 L2198.64 128.319 L2198.64 133.713 L2194.38 133.713 L2194.38 128.319 Z" fill="#000000" fill-rule="nonzero" fill-opacity="1" /><path clip-path="url(#clip600)" d="M2217.6 141.398 Q2214.17 141.398 2212.18 144.083 Q2210.19 146.745 2210.19 151.398 Q2210.19 156.051 2212.16 158.736 Q2214.15 161.398 2217.6 161.398 Q2221 161.398 2222.99 158.713 Q2224.98 156.027 2224.98 151.398 Q2224.98 146.791 2222.99 144.106 Q2221 141.398 2217.6 141.398 M2217.6 137.787 Q2223.15 137.787 2226.32 141.398 Q2229.49 145.009 2229.49 151.398 Q2229.49 157.764 2226.32 161.398 Q2223.15 165.009 2217.6 165.009 Q2212.02 165.009 2208.85 161.398 Q2205.7 157.764 2205.7 151.398 Q2205.7 145.009 2208.85 141.398 Q2212.02 137.787 2217.6 137.787 Z" fill="#000000" fill-rule="nonzero" fill-opacity="1" /><path clip-path="url(#clip600)" d="M2258.1 148.689 L2258.1 164.338 L2253.85 164.338 L2253.85 148.828 Q2253.85 145.148 2252.41 143.319 Q2250.98 141.49 2248.1 141.49 Q2244.66 141.49 2242.66 143.69 Q2240.67 145.889 2240.67 149.685 L2240.67 164.338 L2236.39 164.338 L2236.39 138.412 L2240.67 138.412 L2240.67 142.44 Q2242.2 140.102 2244.26 138.944 Q2246.35 137.787 2249.05 137.787 Q2253.52 137.787 2255.81 140.565 Q2258.1 143.319 2258.1 148.689 Z" fill="#000000" fill-rule="nonzero" fill-opacity="1" /><polyline clip-path="url(#clip600)" style="stroke:#e26f46; stroke-linecap:round; stroke-linejoin:round; stroke-width:4; stroke-opacity:1; fill:none" points="1655.87,198.898 1797.85,198.898 "/>
<path clip-path="url(#clip600)" d="M1826.19 185.46 L1826.19 198.446 L1832.07 198.446 Q1835.33 198.446 1837.11 196.756 Q1838.89 195.067 1838.89 191.942 Q1838.89 188.84 1837.11 187.15 Q1835.33 185.46 1832.07 185.46 L1826.19 185.46 M1821.51 181.618 L1832.07 181.618 Q1837.88 181.618 1840.84 184.256 Q1843.82 186.872 1843.82 191.942 Q1843.82 197.057 1840.84 199.673 Q1837.88 202.289 1832.07 202.289 L1826.19 202.289 L1826.19 216.178 L1821.51 216.178 L1821.51 181.618 Z" fill="#000000" fill-rule="nonzero" fill-opacity="1" /><path clip-path="url(#clip600)" d="M1850.1 181.618 L1854.77 181.618 L1854.77 216.178 L1850.1 216.178 L1850.1 181.618 Z" fill="#000000" fill-rule="nonzero" fill-opacity="1" /><path clip-path="url(#clip600)" d="M1864.08 181.618 L1870.38 181.618 L1885.7 210.529 L1885.7 181.618 L1890.24 181.618 L1890.24 216.178 L1883.94 216.178 L1868.62 187.266 L1868.62 216.178 L1864.08 216.178 L1864.08 181.618 Z" fill="#000000" fill-rule="nonzero" fill-opacity="1" /><path clip-path="url(#clip600)" d="M1899.54 181.618 L1905.84 181.618 L1921.16 210.529 L1921.16 181.618 L1925.7 181.618 L1925.7 216.178 L1919.4 216.178 L1904.08 187.266 L1904.08 216.178 L1899.54 216.178 L1899.54 181.618 Z" fill="#000000" fill-rule="nonzero" fill-opacity="1" /><path clip-path="url(#clip600)" d="M1970.79 182.752 L1970.79 187.312 Q1968.13 186.039 1965.77 185.414 Q1963.41 184.789 1961.21 184.789 Q1957.39 184.789 1955.31 186.27 Q1953.25 187.752 1953.25 190.483 Q1953.25 192.775 1954.61 193.955 Q1956 195.113 1959.84 195.83 L1962.67 196.409 Q1967.9 197.405 1970.37 199.928 Q1972.87 202.428 1972.87 206.641 Q1972.87 211.664 1969.5 214.256 Q1966.14 216.849 1959.63 216.849 Q1957.18 216.849 1954.4 216.293 Q1951.65 215.738 1948.69 214.65 L1948.69 209.835 Q1951.53 211.432 1954.26 212.242 Q1957 213.053 1959.63 213.053 Q1963.64 213.053 1965.81 211.479 Q1967.99 209.904 1967.99 206.988 Q1967.99 204.442 1966.42 203.006 Q1964.87 201.571 1961.3 200.854 L1958.45 200.298 Q1953.22 199.256 1950.88 197.034 Q1948.55 194.812 1948.55 190.854 Q1948.55 186.27 1951.76 183.631 Q1955 180.993 1960.68 180.993 Q1963.11 180.993 1965.63 181.432 Q1968.15 181.872 1970.79 182.752 Z" fill="#000000" fill-rule="nonzero" fill-opacity="1" /><path clip-path="url(#clip600)" d="M1990.03 193.238 Q1986.6 193.238 1984.61 195.923 Q1982.62 198.585 1982.62 203.238 Q1982.62 207.891 1984.59 210.576 Q1986.58 213.238 1990.03 213.238 Q1993.43 213.238 1995.42 210.553 Q1997.41 207.867 1997.41 203.238 Q1997.41 198.631 1995.42 195.946 Q1993.43 193.238 1990.03 193.238 M1990.03 189.627 Q1995.58 189.627 1998.75 193.238 Q2001.93 196.849 2001.93 203.238 Q2001.93 209.604 1998.75 213.238 Q1995.58 216.849 1990.03 216.849 Q1984.45 216.849 1981.28 213.238 Q1978.13 209.604 1978.13 203.238 Q1978.13 196.849 1981.28 193.238 Q1984.45 189.627 1990.03 189.627 Z" fill="#000000" fill-rule="nonzero" fill-opacity="1" /><path clip-path="url(#clip600)" d="M2008.99 180.159 L2013.24 180.159 L2013.24 216.178 L2008.99 216.178 L2008.99 180.159 Z" fill="#000000" fill-rule="nonzero" fill-opacity="1" /><path clip-path="url(#clip600)" d="M2021.72 205.946 L2021.72 190.252 L2025.98 190.252 L2025.98 205.784 Q2025.98 209.465 2027.41 211.316 Q2028.85 213.145 2031.72 213.145 Q2035.17 213.145 2037.16 210.946 Q2039.17 208.747 2039.17 204.951 L2039.17 190.252 L2043.43 190.252 L2043.43 216.178 L2039.17 216.178 L2039.17 212.196 Q2037.62 214.557 2035.56 215.715 Q2033.52 216.849 2030.81 216.849 Q2026.35 216.849 2024.03 214.071 Q2021.72 211.293 2021.72 205.946 M2032.43 189.627 L2032.43 189.627 Z" fill="#000000" fill-rule="nonzero" fill-opacity="1" /><path clip-path="url(#clip600)" d="M2056.42 182.891 L2056.42 190.252 L2065.19 190.252 L2065.19 193.562 L2056.42 193.562 L2056.42 207.636 Q2056.42 210.807 2057.27 211.71 Q2058.15 212.613 2060.81 212.613 L2065.19 212.613 L2065.19 216.178 L2060.81 216.178 Q2055.88 216.178 2054.01 214.349 Q2052.13 212.497 2052.13 207.636 L2052.13 193.562 L2049.01 193.562 L2049.01 190.252 L2052.13 190.252 L2052.13 182.891 L2056.42 182.891 Z" fill="#000000" fill-rule="nonzero" fill-opacity="1" /><path clip-path="url(#clip600)" d="M2070.79 190.252 L2075.05 190.252 L2075.05 216.178 L2070.79 216.178 L2070.79 190.252 M2070.79 180.159 L2075.05 180.159 L2075.05 185.553 L2070.79 185.553 L2070.79 180.159 Z" fill="#000000" fill-rule="nonzero" fill-opacity="1" /><path clip-path="url(#clip600)" d="M2094.01 193.238 Q2090.58 193.238 2088.59 195.923 Q2086.6 198.585 2086.6 203.238 Q2086.6 207.891 2088.57 210.576 Q2090.56 213.238 2094.01 213.238 Q2097.41 213.238 2099.4 210.553 Q2101.39 207.867 2101.39 203.238 Q2101.39 198.631 2099.4 195.946 Q2097.41 193.238 2094.01 193.238 M2094.01 189.627 Q2099.56 189.627 2102.74 193.238 Q2105.91 196.849 2105.91 203.238 Q2105.91 209.604 2102.74 213.238 Q2099.56 216.849 2094.01 216.849 Q2088.43 216.849 2085.26 213.238 Q2082.11 209.604 2082.11 203.238 Q2082.11 196.849 2085.26 193.238 Q2088.43 189.627 2094.01 189.627 Z" fill="#000000" fill-rule="nonzero" fill-opacity="1" /><path clip-path="url(#clip600)" d="M2134.52 200.529 L2134.52 216.178 L2130.26 216.178 L2130.26 200.668 Q2130.26 196.988 2128.82 195.159 Q2127.39 193.33 2124.52 193.33 Q2121.07 193.33 2119.08 195.53 Q2117.09 197.729 2117.09 201.525 L2117.09 216.178 L2112.8 216.178 L2112.8 190.252 L2117.09 190.252 L2117.09 194.28 Q2118.61 191.942 2120.67 190.784 Q2122.76 189.627 2125.47 189.627 Q2129.93 189.627 2132.23 192.405 Q2134.52 195.159 2134.52 200.529 Z" fill="#000000" fill-rule="nonzero" fill-opacity="1" /></svg>
