<?xml version="1.0" encoding="utf-8"?>
<svg xmlns="http://www.w3.org/2000/svg" xmlns:xlink="http://www.w3.org/1999/xlink" width="600" height="400" viewBox="0 0 2400 1600">
<defs>
  <clipPath id="clip390">
    <rect x="0" y="0" width="2400" height="1600"/>
  </clipPath>
</defs>
<path clip-path="url(#clip390)" d="M0 1600 L2400 1600 L2400 0 L0 0  Z" fill="#ffffff" fill-rule="evenodd" fill-opacity="1"/>
<defs>
  <clipPath id="clip391">
    <rect x="480" y="0" width="1681" height="1600"/>
  </clipPath>
</defs>
<path clip-path="url(#clip390)" d="M184.191 1423.18 L2352.76 1423.18 L2352.76 47.2441 L184.191 47.2441  Z" fill="#ffffff" fill-rule="evenodd" fill-opacity="1"/>
<defs>
  <clipPath id="clip392">
    <rect x="184" y="47" width="2170" height="1377"/>
  </clipPath>
</defs>
<polyline clip-path="url(#clip392)" style="stroke:#000000; stroke-linecap:round; stroke-linejoin:round; stroke-width:2; stroke-opacity:0.1; fill:none" points="184.191,1423.18 184.191,47.2441 "/>
<polyline clip-path="url(#clip392)" style="stroke:#000000; stroke-linecap:round; stroke-linejoin:round; stroke-width:2; stroke-opacity:0.1; fill:none" points="726.332,1423.18 726.332,47.2441 "/>
<polyline clip-path="url(#clip392)" style="stroke:#000000; stroke-linecap:round; stroke-linejoin:round; stroke-width:2; stroke-opacity:0.1; fill:none" points="1268.47,1423.18 1268.47,47.2441 "/>
<polyline clip-path="url(#clip392)" style="stroke:#000000; stroke-linecap:round; stroke-linejoin:round; stroke-width:2; stroke-opacity:0.1; fill:none" points="1810.61,1423.18 1810.61,47.2441 "/>
<polyline clip-path="url(#clip392)" style="stroke:#000000; stroke-linecap:round; stroke-linejoin:round; stroke-width:2; stroke-opacity:0.1; fill:none" points="2352.76,1423.18 2352.76,47.2441 "/>
<polyline clip-path="url(#clip390)" style="stroke:#000000; stroke-linecap:round; stroke-linejoin:round; stroke-width:4; stroke-opacity:1; fill:none" points="184.191,1423.18 2352.76,1423.18 "/>
<polyline clip-path="url(#clip390)" style="stroke:#000000; stroke-linecap:round; stroke-linejoin:round; stroke-width:4; stroke-opacity:1; fill:none" points="184.191,1423.18 184.191,1404.28 "/>
<polyline clip-path="url(#clip390)" style="stroke:#000000; stroke-linecap:round; stroke-linejoin:round; stroke-width:4; stroke-opacity:1; fill:none" points="726.332,1423.18 726.332,1404.28 "/>
<polyline clip-path="url(#clip390)" style="stroke:#000000; stroke-linecap:round; stroke-linejoin:round; stroke-width:4; stroke-opacity:1; fill:none" points="1268.47,1423.18 1268.47,1404.28 "/>
<polyline clip-path="url(#clip390)" style="stroke:#000000; stroke-linecap:round; stroke-linejoin:round; stroke-width:4; stroke-opacity:1; fill:none" points="1810.61,1423.18 1810.61,1404.28 "/>
<polyline clip-path="url(#clip390)" style="stroke:#000000; stroke-linecap:round; stroke-linejoin:round; stroke-width:4; stroke-opacity:1; fill:none" points="2352.76,1423.18 2352.76,1404.28 "/>
<path clip-path="url(#clip390)" d="M184.191 1454.1 Q180.58 1454.1 178.751 1457.66 Q176.945 1461.2 176.945 1468.33 Q176.945 1475.44 178.751 1479.01 Q180.58 1482.55 184.191 1482.55 Q187.825 1482.55 189.63 1479.01 Q191.459 1475.44 191.459 1468.33 Q191.459 1461.2 189.63 1457.66 Q187.825 1454.1 184.191 1454.1 M184.191 1450.39 Q190.001 1450.39 193.056 1455 Q196.135 1459.58 196.135 1468.33 Q196.135 1477.06 193.056 1481.67 Q190.001 1486.25 184.191 1486.25 Q178.381 1486.25 175.302 1481.67 Q172.246 1477.06 172.246 1468.33 Q172.246 1459.58 175.302 1455 Q178.381 1450.39 184.191 1450.39 Z" fill="#000000" fill-rule="nonzero" fill-opacity="1" /><path clip-path="url(#clip390)" d="M716.714 1481.64 L724.353 1481.64 L724.353 1455.28 L716.043 1456.95 L716.043 1452.69 L724.307 1451.02 L728.982 1451.02 L728.982 1481.64 L736.621 1481.64 L736.621 1485.58 L716.714 1485.58 L716.714 1481.64 Z" fill="#000000" fill-rule="nonzero" fill-opacity="1" /><path clip-path="url(#clip390)" d="M1263.13 1481.64 L1279.45 1481.64 L1279.45 1485.58 L1257.5 1485.58 L1257.5 1481.64 Q1260.16 1478.89 1264.75 1474.26 Q1269.35 1469.61 1270.53 1468.27 Q1272.78 1465.74 1273.66 1464.01 Q1274.56 1462.25 1274.56 1460.56 Q1274.56 1457.8 1272.62 1456.07 Q1270.7 1454.33 1267.59 1454.33 Q1265.39 1454.33 1262.94 1455.09 Q1260.51 1455.86 1257.73 1457.41 L1257.73 1452.69 Q1260.56 1451.55 1263.01 1450.97 Q1265.46 1450.39 1267.5 1450.39 Q1272.87 1450.39 1276.07 1453.08 Q1279.26 1455.77 1279.26 1460.26 Q1279.26 1462.39 1278.45 1464.31 Q1277.66 1466.2 1275.56 1468.8 Q1274.98 1469.47 1271.88 1472.69 Q1268.77 1475.88 1263.13 1481.64 Z" fill="#000000" fill-rule="nonzero" fill-opacity="1" /><path clip-path="url(#clip390)" d="M1814.86 1466.95 Q1818.22 1467.66 1820.09 1469.93 Q1821.99 1472.2 1821.99 1475.53 Q1821.99 1480.65 1818.47 1483.45 Q1814.95 1486.25 1808.47 1486.25 Q1806.3 1486.25 1803.98 1485.81 Q1801.69 1485.39 1799.24 1484.54 L1799.24 1480.02 Q1801.18 1481.16 1803.5 1481.74 Q1805.81 1482.32 1808.33 1482.32 Q1812.73 1482.32 1815.02 1480.58 Q1817.34 1478.84 1817.34 1475.53 Q1817.34 1472.48 1815.19 1470.77 Q1813.06 1469.03 1809.24 1469.03 L1805.21 1469.03 L1805.21 1465.19 L1809.42 1465.19 Q1812.87 1465.19 1814.7 1463.82 Q1816.53 1462.43 1816.53 1459.84 Q1816.53 1457.18 1814.63 1455.77 Q1812.76 1454.33 1809.24 1454.33 Q1807.32 1454.33 1805.12 1454.75 Q1802.92 1455.16 1800.28 1456.04 L1800.28 1451.88 Q1802.94 1451.14 1805.26 1450.77 Q1807.59 1450.39 1809.65 1450.39 Q1814.98 1450.39 1818.08 1452.83 Q1821.18 1455.23 1821.18 1459.35 Q1821.18 1462.22 1819.54 1464.21 Q1817.89 1466.18 1814.86 1466.95 Z" fill="#000000" fill-rule="nonzero" fill-opacity="1" /><path clip-path="url(#clip390)" d="M2355.77 1455.09 L2343.96 1473.54 L2355.77 1473.54 L2355.77 1455.09 M2354.54 1451.02 L2360.42 1451.02 L2360.42 1473.54 L2365.35 1473.54 L2365.35 1477.43 L2360.42 1477.43 L2360.42 1485.58 L2355.77 1485.58 L2355.77 1477.43 L2340.16 1477.43 L2340.16 1472.92 L2354.54 1451.02 Z" fill="#000000" fill-rule="nonzero" fill-opacity="1" /><path clip-path="url(#clip390)" d="M1267.53 1522.27 L1267.53 1532.4 L1279.6 1532.4 L1279.6 1536.95 L1267.53 1536.95 L1267.53 1556.3 Q1267.53 1560.66 1268.71 1561.9 Q1269.92 1563.14 1273.58 1563.14 L1279.6 1563.14 L1279.6 1568.04 L1273.58 1568.04 Q1266.8 1568.04 1264.22 1565.53 Q1261.65 1562.98 1261.65 1556.3 L1261.65 1536.95 L1257.35 1536.95 L1257.35 1532.4 L1261.65 1532.4 L1261.65 1522.27 L1267.53 1522.27 Z" fill="#000000" fill-rule="nonzero" fill-opacity="1" /><polyline clip-path="url(#clip392)" style="stroke:#000000; stroke-linecap:round; stroke-linejoin:round; stroke-width:2; stroke-opacity:0.1; fill:none" points="184.191,1396.53 2352.76,1396.53 "/>
<polyline clip-path="url(#clip392)" style="stroke:#000000; stroke-linecap:round; stroke-linejoin:round; stroke-width:2; stroke-opacity:0.1; fill:none" points="184.191,1108.34 2352.76,1108.34 "/>
<polyline clip-path="url(#clip392)" style="stroke:#000000; stroke-linecap:round; stroke-linejoin:round; stroke-width:2; stroke-opacity:0.1; fill:none" points="184.191,820.153 2352.76,820.153 "/>
<polyline clip-path="url(#clip392)" style="stroke:#000000; stroke-linecap:round; stroke-linejoin:round; stroke-width:2; stroke-opacity:0.1; fill:none" points="184.191,531.966 2352.76,531.966 "/>
<polyline clip-path="url(#clip392)" style="stroke:#000000; stroke-linecap:round; stroke-linejoin:round; stroke-width:2; stroke-opacity:0.1; fill:none" points="184.191,243.78 2352.76,243.78 "/>
<polyline clip-path="url(#clip390)" style="stroke:#000000; stroke-linecap:round; stroke-linejoin:round; stroke-width:4; stroke-opacity:1; fill:none" points="184.191,1423.18 184.191,47.2441 "/>
<polyline clip-path="url(#clip390)" style="stroke:#000000; stroke-linecap:round; stroke-linejoin:round; stroke-width:4; stroke-opacity:1; fill:none" points="184.191,1396.53 203.088,1396.53 "/>
<polyline clip-path="url(#clip390)" style="stroke:#000000; stroke-linecap:round; stroke-linejoin:round; stroke-width:4; stroke-opacity:1; fill:none" points="184.191,1108.34 203.088,1108.34 "/>
<polyline clip-path="url(#clip390)" style="stroke:#000000; stroke-linecap:round; stroke-linejoin:round; stroke-width:4; stroke-opacity:1; fill:none" points="184.191,820.153 203.088,820.153 "/>
<polyline clip-path="url(#clip390)" style="stroke:#000000; stroke-linecap:round; stroke-linejoin:round; stroke-width:4; stroke-opacity:1; fill:none" points="184.191,531.966 203.088,531.966 "/>
<polyline clip-path="url(#clip390)" style="stroke:#000000; stroke-linecap:round; stroke-linejoin:round; stroke-width:4; stroke-opacity:1; fill:none" points="184.191,243.78 203.088,243.78 "/>
<path clip-path="url(#clip390)" d="M91.0151 1382.32 Q87.404 1382.32 85.5753 1385.89 Q83.7697 1389.43 83.7697 1396.56 Q83.7697 1403.67 85.5753 1407.23 Q87.404 1410.77 91.0151 1410.77 Q94.6493 1410.77 96.4548 1407.23 Q98.2835 1403.67 98.2835 1396.56 Q98.2835 1389.43 96.4548 1385.89 Q94.6493 1382.32 91.0151 1382.32 M91.0151 1378.62 Q96.8252 1378.62 99.8808 1383.23 Q102.959 1387.81 102.959 1396.56 Q102.959 1405.29 99.8808 1409.89 Q96.8252 1414.48 91.0151 1414.48 Q85.2049 1414.48 82.1262 1409.89 Q79.0707 1405.29 79.0707 1396.56 Q79.0707 1387.81 82.1262 1383.23 Q85.2049 1378.62 91.0151 1378.62 Z" fill="#000000" fill-rule="nonzero" fill-opacity="1" /><path clip-path="url(#clip390)" d="M111.177 1407.93 L116.061 1407.93 L116.061 1413.81 L111.177 1413.81 L111.177 1407.93 Z" fill="#000000" fill-rule="nonzero" fill-opacity="1" /><path clip-path="url(#clip390)" d="M136.246 1382.32 Q132.635 1382.32 130.807 1385.89 Q129.001 1389.43 129.001 1396.56 Q129.001 1403.67 130.807 1407.23 Q132.635 1410.77 136.246 1410.77 Q139.881 1410.77 141.686 1407.23 Q143.515 1403.67 143.515 1396.56 Q143.515 1389.43 141.686 1385.89 Q139.881 1382.32 136.246 1382.32 M136.246 1378.62 Q142.056 1378.62 145.112 1383.23 Q148.191 1387.81 148.191 1396.56 Q148.191 1405.29 145.112 1409.89 Q142.056 1414.48 136.246 1414.48 Q130.436 1414.48 127.357 1409.89 Q124.302 1405.29 124.302 1396.56 Q124.302 1387.81 127.357 1383.23 Q130.436 1378.62 136.246 1378.62 Z" fill="#000000" fill-rule="nonzero" fill-opacity="1" /><path clip-path="url(#clip390)" d="M86.0382 1121.68 L102.358 1121.68 L102.358 1125.62 L80.4133 1125.62 L80.4133 1121.68 Q83.0753 1118.93 87.6586 1114.3 Q92.2651 1109.65 93.4456 1108.3 Q95.691 1105.78 96.5706 1104.05 Q97.4734 1102.29 97.4734 1100.6 Q97.4734 1097.84 95.5289 1096.11 Q93.6076 1094.37 90.5058 1094.37 Q88.3067 1094.37 85.8531 1095.13 Q83.4225 1095.9 80.6447 1097.45 L80.6447 1092.73 Q83.4688 1091.59 85.9225 1091.01 Q88.3762 1090.43 90.4132 1090.43 Q95.7836 1090.43 98.978 1093.12 Q102.172 1095.8 102.172 1100.3 Q102.172 1102.42 101.362 1104.35 Q100.575 1106.24 98.4687 1108.84 Q97.89 1109.51 94.7882 1112.73 Q91.6864 1115.92 86.0382 1121.68 Z" fill="#000000" fill-rule="nonzero" fill-opacity="1" /><path clip-path="url(#clip390)" d="M112.172 1119.74 L117.057 1119.74 L117.057 1125.62 L112.172 1125.62 L112.172 1119.74 Z" fill="#000000" fill-rule="nonzero" fill-opacity="1" /><path clip-path="url(#clip390)" d="M127.288 1091.06 L145.644 1091.06 L145.644 1094.99 L131.57 1094.99 L131.57 1103.47 Q132.589 1103.12 133.607 1102.96 Q134.626 1102.77 135.644 1102.77 Q141.431 1102.77 144.811 1105.94 Q148.191 1109.11 148.191 1114.53 Q148.191 1120.11 144.718 1123.21 Q141.246 1126.29 134.927 1126.29 Q132.751 1126.29 130.482 1125.92 Q128.237 1125.55 125.83 1124.81 L125.83 1120.11 Q127.913 1121.24 130.135 1121.8 Q132.357 1122.36 134.834 1122.36 Q138.839 1122.36 141.177 1120.25 Q143.515 1118.14 143.515 1114.53 Q143.515 1110.92 141.177 1108.81 Q138.839 1106.71 134.834 1106.71 Q132.959 1106.71 131.084 1107.12 Q129.232 1107.54 127.288 1108.42 L127.288 1091.06 Z" fill="#000000" fill-rule="nonzero" fill-opacity="1" /><path clip-path="url(#clip390)" d="M81.0614 802.873 L99.4178 802.873 L99.4178 806.808 L85.3438 806.808 L85.3438 815.28 Q86.3623 814.933 87.3808 814.771 Q88.3993 814.586 89.4178 814.586 Q95.2049 814.586 98.5845 817.757 Q101.964 820.928 101.964 826.345 Q101.964 831.924 98.4919 835.025 Q95.0197 838.104 88.7003 838.104 Q86.5243 838.104 84.2558 837.734 Q82.0105 837.363 79.6031 836.623 L79.6031 831.924 Q81.6864 833.058 83.9086 833.613 Q86.1308 834.169 88.6077 834.169 Q92.6123 834.169 94.9502 832.063 Q97.2882 829.956 97.2882 826.345 Q97.2882 822.734 94.9502 820.627 Q92.6123 818.521 88.6077 818.521 Q86.7327 818.521 84.8577 818.938 Q83.0058 819.354 81.0614 820.234 L81.0614 802.873 Z" fill="#000000" fill-rule="nonzero" fill-opacity="1" /><path clip-path="url(#clip390)" d="M111.177 831.553 L116.061 831.553 L116.061 837.433 L111.177 837.433 L111.177 831.553 Z" fill="#000000" fill-rule="nonzero" fill-opacity="1" /><path clip-path="url(#clip390)" d="M136.246 805.952 Q132.635 805.952 130.807 809.516 Q129.001 813.058 129.001 820.188 Q129.001 827.294 130.807 830.859 Q132.635 834.4 136.246 834.4 Q139.881 834.4 141.686 830.859 Q143.515 827.294 143.515 820.188 Q143.515 813.058 141.686 809.516 Q139.881 805.952 136.246 805.952 M136.246 802.248 Q142.056 802.248 145.112 806.854 Q148.191 811.438 148.191 820.188 Q148.191 828.914 145.112 833.521 Q142.056 838.104 136.246 838.104 Q130.436 838.104 127.357 833.521 Q124.302 828.914 124.302 820.188 Q124.302 811.438 127.357 806.854 Q130.436 802.248 136.246 802.248 Z" fill="#000000" fill-rule="nonzero" fill-opacity="1" /><path clip-path="url(#clip390)" d="M80.8299 514.686 L103.052 514.686 L103.052 516.677 L90.5058 549.246 L85.6216 549.246 L97.4271 518.622 L80.8299 518.622 L80.8299 514.686 Z" fill="#000000" fill-rule="nonzero" fill-opacity="1" /><path clip-path="url(#clip390)" d="M112.172 543.367 L117.057 543.367 L117.057 549.246 L112.172 549.246 L112.172 543.367 Z" fill="#000000" fill-rule="nonzero" fill-opacity="1" /><path clip-path="url(#clip390)" d="M127.288 514.686 L145.644 514.686 L145.644 518.622 L131.57 518.622 L131.57 527.094 Q132.589 526.747 133.607 526.585 Q134.626 526.399 135.644 526.399 Q141.431 526.399 144.811 529.571 Q148.191 532.742 148.191 538.159 Q148.191 543.737 144.718 546.839 Q141.246 549.918 134.927 549.918 Q132.751 549.918 130.482 549.547 Q128.237 549.177 125.83 548.436 L125.83 543.737 Q127.913 544.872 130.135 545.427 Q132.357 545.983 134.834 545.983 Q138.839 545.983 141.177 543.876 Q143.515 541.77 143.515 538.159 Q143.515 534.547 141.177 532.441 Q138.839 530.335 134.834 530.335 Q132.959 530.335 131.084 530.751 Q129.232 531.168 127.288 532.048 L127.288 514.686 Z" fill="#000000" fill-rule="nonzero" fill-opacity="1" /><path clip-path="url(#clip390)" d="M51.6634 257.125 L59.3023 257.125 L59.3023 230.759 L50.9921 232.426 L50.9921 228.167 L59.256 226.5 L63.9319 226.5 L63.9319 257.125 L71.5707 257.125 L71.5707 261.06 L51.6634 261.06 L51.6634 257.125 Z" fill="#000000" fill-rule="nonzero" fill-opacity="1" /><path clip-path="url(#clip390)" d="M91.0151 229.579 Q87.404 229.579 85.5753 233.144 Q83.7697 236.685 83.7697 243.815 Q83.7697 250.921 85.5753 254.486 Q87.404 258.028 91.0151 258.028 Q94.6493 258.028 96.4548 254.486 Q98.2835 250.921 98.2835 243.815 Q98.2835 236.685 96.4548 233.144 Q94.6493 229.579 91.0151 229.579 M91.0151 225.875 Q96.8252 225.875 99.8808 230.482 Q102.959 235.065 102.959 243.815 Q102.959 252.542 99.8808 257.148 Q96.8252 261.731 91.0151 261.731 Q85.2049 261.731 82.1262 257.148 Q79.0707 252.542 79.0707 243.815 Q79.0707 235.065 82.1262 230.482 Q85.2049 225.875 91.0151 225.875 Z" fill="#000000" fill-rule="nonzero" fill-opacity="1" /><path clip-path="url(#clip390)" d="M111.177 255.181 L116.061 255.181 L116.061 261.06 L111.177 261.06 L111.177 255.181 Z" fill="#000000" fill-rule="nonzero" fill-opacity="1" /><path clip-path="url(#clip390)" d="M136.246 229.579 Q132.635 229.579 130.807 233.144 Q129.001 236.685 129.001 243.815 Q129.001 250.921 130.807 254.486 Q132.635 258.028 136.246 258.028 Q139.881 258.028 141.686 254.486 Q143.515 250.921 143.515 243.815 Q143.515 236.685 141.686 233.144 Q139.881 229.579 136.246 229.579 M136.246 225.875 Q142.056 225.875 145.112 230.482 Q148.191 235.065 148.191 243.815 Q148.191 252.542 145.112 257.148 Q142.056 261.731 136.246 261.731 Q130.436 261.731 127.357 257.148 Q124.302 252.542 124.302 243.815 Q124.302 235.065 127.357 230.482 Q130.436 225.875 136.246 225.875 Z" fill="#000000" fill-rule="nonzero" fill-opacity="1" /><polyline clip-path="url(#clip392)" style="stroke:#009af9; stroke-linecap:round; stroke-linejoin:round; stroke-width:4; stroke-opacity:1; fill:none" points="184.191,1339.8 189.612,1230.02 195.034,1298.2 200.455,1199.51 205.876,1223.22 211.298,1286.83 216.719,1275.83 222.141,1236.27 227.562,1280.05 232.983,1279.86 238.405,1264 243.826,1289.35 249.248,1219.21 254.669,1267.2 260.09,1336.45 265.512,1234.5 270.933,1314.62 276.355,1211.64 281.776,1302.74 287.198,1249.15 292.619,1265.8 298.04,1208.12 303.462,1313.87 308.883,1274.11 314.305,1229.29 319.726,1255.72 325.147,1243.99 330.569,1260.37 335.99,1270.58 341.412,1275.15 346.833,1331.3 352.254,1262.12 357.676,1180.02 363.097,1231.36 368.519,1235.65 373.94,1240.97 379.362,1255.38 384.783,1285.02 390.204,1113.97 395.626,1187.56 401.047,1225.45 406.469,1313.18 411.89,1242.92 417.311,1194 422.733,1275.21 428.154,1245.46 433.576,1268.82 438.997,1162.92 444.419,1243.1 449.84,1230.24 455.261,1219.74 460.683,1257.58 466.104,1139.79 471.526,1260.68 476.947,1203.31 482.368,1197.53 487.79,1203.42 493.211,1150.36 498.633,1138.29 504.054,1314.96 509.475,1154.23 514.897,1219.97 520.318,1206.55 525.74,1159.35 531.161,1255.99 536.583,1288.46 542.004,1111.74 547.425,1104.78 552.847,1145.24 558.268,1248.73 563.69,1137.28 569.111,1229.4 574.532,1144.92 579.954,1322.65 585.375,1304.9 590.797,1257.52 596.218,1257.32 601.639,1146.3 607.061,1108.02 612.482,1170.32 617.904,1166.5 623.325,1217.04 628.747,1097.99 634.168,1306.11 639.589,1076.49 645.011,1171.36 650.432,1233.91 655.854,1046.71 661.275,1187.51 666.696,1047.32 672.118,1094.91 677.539,972.609 682.961,1212.53 688.382,1052.3 693.804,1164.62 699.225,1061.66 704.646,1150.12 710.068,1092.83 715.489,1079.53 720.911,970.709 726.332,1238.85 731.753,958.096 737.175,1055.95 742.596,1030.96 748.018,1102.47 753.439,1187.18 758.86,1087.73 764.282,1191.6 769.703,1067.17 775.125,1113.9 780.546,927.902 785.968,1049.51 791.389,992.505 796.81,1206.43 802.232,1022.22 807.653,923.165 813.075,1029.38 818.496,1005.17 823.917,1165.06 829.339,1184.99 834.76,1024.82 840.182,1055.59 845.603,921.173 851.024,932.635 856.446,854.274 861.867,1114.12 867.289,893.393 872.71,1068.41 878.132,1015.58 883.553,676.118 888.974,1085.91 894.396,681.475 899.817,1283.27 905.239,722.07 910.66,965.628 916.081,878.107 921.503,926.205 926.924,901.211 932.346,783.859 937.767,710.196 943.189,778.413 948.61,906.152 954.031,859.524 959.453,955.554 964.874,947.734 970.296,689.012 975.717,786.577 981.138,884.074 986.56,860.821 991.981,786.759 997.403,616.204 1002.82,868.192 1008.25,671.553 1013.67,808.892 1019.09,724.78 1024.51,866.388 1029.93,552.267 1035.35,1130.95 1040.77,855.325 1046.2,703.092 1051.62,726.417 1057.04,1098.9 1062.46,1054.38 1067.88,831.654 1073.3,820.081 1078.72,900.089 1084.15,963.948 1089.57,499.835 1094.99,1183.18 1100.41,487.319 1105.83,865.768 1111.25,709.343 1116.67,86.1857 1122.1,852.111 1127.52,230.078 1132.94,839.248 1138.36,463.565 1143.78,857.104 1149.2,590.537 1154.62,674.944 1160.05,554.11 1165.47,683.846 1170.89,736.072 1176.31,530.867 1181.73,650.106 1187.15,869.878 1192.57,401.947 1197.99,1249.58 1203.42,206.756 1208.84,313.429 1214.26,573.793 1219.68,437.788 1225.1,492.504 1230.52,1041 1235.94,558.119 1241.37,826.98 1246.79,390.878 1252.21,935.717 1257.63,393.406 1263.05,670.008 1268.47,137.221 1273.89,449.886 1279.32,837.855 1284.74,506.588 1290.16,805.036 1295.58,293.18 1301,978.596 1306.42,823.443 1311.84,307.334 1317.27,518.591 1322.69,708.804 1328.11,682.197 1333.53,519.808 1338.95,717.696 1344.37,518.962 1349.79,812.32 1355.22,714.79 1360.64,859.167 1366.06,979.57 1371.48,502.386 1376.9,1069.35 1382.32,922.432 1387.74,860.325 1393.17,625.056 1398.59,893.659 1404.01,1046.36 1409.43,943.745 1414.85,788.846 1420.27,912.124 1425.69,959.766 1431.12,963.378 1436.54,972.505 1441.96,873.826 1447.38,978.987 1452.8,1082.8 1458.22,733.154 1463.64,1154.61 1469.07,906.104 1474.49,1086.97 1479.91,906.554 1485.33,1204.06 1490.75,1000.53 1496.17,943.702 1501.59,1000.86 1507.02,1079.85 1512.44,1190.54 1517.86,1116.62 1523.28,1052.95 1528.7,1049.7 1534.12,1136.52 1539.54,1135.49 1544.97,1152.83 1550.39,1226.18 1555.81,1128.13 1561.23,1184.05 1566.65,1097.94 1572.07,1197.25 1577.49,1218.78 1582.92,1298.01 1588.34,1314.98 1593.76,1225.16 1599.18,1172.36 1604.6,1153.11 1610.02,1206.59 1615.44,1224.39 1620.87,1156.41 1626.29,1240.44 1631.71,1288.09 1637.13,1226.48 1642.55,1260.32 1647.97,1209.13 1653.39,1218.29 1658.82,1231.26 1664.24,1246.31 1669.66,1197.39 1675.08,1230.75 1680.5,1188.77 1685.92,1237.98 1691.34,1314.95 1696.76,1288.39 1702.19,1253.25 1707.61,1279.39 1713.03,1249.59 1718.45,1272.36 1723.87,1371.1 1729.29,1326.92 1734.71,1276.46 1740.14,1284.81 1745.56,1236.96 1750.98,1281.14 1756.4,1259.3 1761.82,1289.77 1767.24,1302.28 1772.66,1332.7 1778.09,1265.49 1783.51,1296.07 1788.93,1296.54 1794.35,1266.47 1799.77,1290.35 1805.19,1269.3 1810.61,1263.25 1816.04,1305.74 1821.46,1305.96 1826.88,1269.49 1832.3,1216.88 1837.72,1293.06 1843.14,1312.29 1848.56,1288.45 1853.99,1270.18 1859.41,1265.16 1864.83,1236.47 1870.25,1303.12 1875.67,1203.19 1881.09,1256.86 1886.51,1220 1891.94,1292.89 1897.36,1276.02 1902.78,1276.06 1908.2,1271.92 1913.62,1305.43 1919.04,1322.43 1924.46,1320.53 1929.89,1271.88 1935.31,1278.97 1940.73,1300.7 1946.15,1260.37 1951.57,1282.07 1956.99,1251.17 1962.41,1250.65 1967.84,1231.25 1973.26,1295.15 1978.68,1302.87 1984.1,1269.59 1989.52,1273.98 1994.94,1307.6 2000.36,1291.08 2005.79,1306.46 2011.21,1264.32 2016.63,1316.95 2022.05,1243.06 2027.47,1311.03 2032.89,1267.1 2038.31,1199.14 2043.74,1276.49 2049.16,1288.8 2054.58,1267.14 2060,1272.17 2065.42,1325.12 2070.84,1292.7 2076.26,1301.7 2081.69,1287.28 2087.11,1217.9 2092.53,1273.65 2097.95,1281.23 2103.37,1224.99 2108.79,1247.57 2114.21,1246.59 2119.64,1273.66 2125.06,1306.21 2130.48,1200.59 2135.9,1238.82 2141.32,1303.84 2146.74,1265.69 2152.16,1272.42 2157.59,1233.01 2163.01,1258.41 2168.43,1218.02 2173.85,1204.07 2179.27,1247.75 2184.69,1268.95 2190.11,1253.12 2195.53,1300.01 2200.96,1174.61 2206.38,1153.31 2211.8,1194.47 2217.22,1180.77 2222.64,1179.96 2228.06,1245.89 2233.48,1190.89 2238.91,1190.79 2244.33,1224.76 2249.75,1235.22 2255.17,1235.92 2260.59,1112.64 2266.01,1194.78 2271.43,1260.55 2276.86,1274.78 2282.28,1138.76 2287.7,1235.78 2293.12,1093.86 2298.54,1213.57 2303.96,1211.99 2309.38,1233.92 2314.81,1147.19 2320.23,1039.44 2325.65,1216.54 2331.07,1313.43 2336.49,1129.43 2341.91,1213.42 2347.33,1116.33 2352.76,1201.76 "/>
<polyline clip-path="url(#clip392)" style="stroke:#e26f46; stroke-linecap:round; stroke-linejoin:round; stroke-width:4; stroke-opacity:1; fill:none" points="184.191,1262.4 189.612,1311.88 195.034,1298.63 200.455,1316.06 205.876,1309.2 211.298,1335.38 216.719,1304.3 222.141,1308.73 227.562,1320.46 232.983,1312.12 238.405,1322.96 243.826,1304.59 249.248,1315.24 254.669,1331.9 260.09,1335.96 265.512,1318.16 270.933,1330.06 276.355,1324.12 281.776,1309.88 287.198,1311.85 292.619,1308.05 298.04,1355.08 303.462,1304.83 308.883,1335.67 314.305,1308.86 319.726,1336.96 325.147,1342.71 330.569,1339.4 335.99,1300.92 341.412,1338.61 346.833,1322.73 352.254,1332.03 357.676,1332.74 363.097,1343.87 368.519,1349.48 373.94,1355.46 379.362,1319.89 384.783,1379.64 390.204,1338.66 395.626,1344.3 401.047,1338.57 406.469,1346.6 411.89,1307.01 417.311,1349.88 422.733,1321.69 428.154,1350.81 433.576,1355.91 438.997,1349.51 444.419,1348.17 449.84,1358.63 455.261,1351.85 460.683,1346.57 466.104,1342.95 471.526,1338.98 476.947,1348.47 482.368,1337.36 487.79,1335.1 493.211,1355.27 498.633,1330.05 504.054,1349.2 509.475,1352.96 514.897,1353.36 520.318,1357.77 525.74,1341.61 531.161,1351.11 536.583,1380.07 542.004,1353.06 547.425,1362 552.847,1360.87 558.268,1362.97 563.69,1356.97 569.111,1363.99 574.532,1360.82 579.954,1345.95 585.375,1364.86 590.797,1378.76 596.218,1351.94 601.639,1347.33 607.061,1362.4 612.482,1355.48 617.904,1360.84 623.325,1377.13 628.747,1374.02 634.168,1367.03 639.589,1364.76 645.011,1374.09 650.432,1362.77 655.854,1384.24 661.275,1370.95 666.696,1354.47 672.118,1351.13 677.539,1381.99 682.961,1360.44 688.382,1362.78 693.804,1365.76 699.225,1370.58 704.646,1368.11 710.068,1358.25 715.489,1365.68 720.911,1353.09 726.332,1365.43 731.753,1377.66 737.175,1367.8 742.596,1359.64 748.018,1371.12 753.439,1362.95 758.86,1369.76 764.282,1356.22 769.703,1363.22 775.125,1377.07 780.546,1362.35 785.968,1358.39 791.389,1369 796.81,1371.2 802.232,1366.84 807.653,1362.98 813.075,1371.42 818.496,1376.84 823.917,1376.53 829.339,1369.41 834.76,1373.57 840.182,1359.02 845.603,1383.01 851.024,1369.37 856.446,1356.46 861.867,1353.99 867.289,1376.69 872.71,1353.68 878.132,1362.68 883.553,1355.45 888.974,1361.61 894.396,1363.55 899.817,1371.19 905.239,1377.22 910.66,1355.25 916.081,1353.11 921.503,1363.32 926.924,1367.32 932.346,1372.71 937.767,1357.78 943.189,1360.13 948.61,1353.33 954.031,1362.97 959.453,1363.83 964.874,1367.31 970.296,1359.67 975.717,1349.58 981.138,1342.37 986.56,1357.33 991.981,1350.21 997.403,1360.43 1002.82,1365.1 1008.25,1337.74 1013.67,1377.95 1019.09,1346.24 1024.51,1327.96 1029.93,1307.9 1035.35,1331.14 1040.77,1320.87 1046.2,1346.57 1051.62,1337.97 1057.04,1314.96 1062.46,1298.66 1067.88,1327.13 1073.3,1344.67 1078.72,1309.76 1084.15,1321.1 1089.57,1306.51 1094.99,1349.32 1100.41,1338.9 1105.83,1325.77 1111.25,1358.81 1116.67,1333.73 1122.1,1325.88 1127.52,1273.27 1132.94,1311.65 1138.36,1281 1143.78,1261.95 1149.2,1326.83 1154.62,1328.05 1160.05,1278.46 1165.47,1291.54 1170.89,1250.96 1176.31,1289.05 1181.73,1232.53 1187.15,1309.54 1192.57,1217.78 1197.99,1237.61 1203.42,1254.44 1208.84,1245.67 1214.26,1256.98 1219.68,1186.19 1225.1,1329.81 1230.52,1193.53 1235.94,1223.3 1241.37,1257.86 1246.79,1182.3 1252.21,1163.94 1257.63,1187.92 1263.05,1153.48 1268.47,1173.74 1273.89,1279.38 1279.32,1031.64 1284.74,1344.35 1290.16,1166.97 1295.58,1176.49 1301,1036.01 1306.42,1191.65 1311.84,1144.61 1317.27,1133.05 1322.69,1176.39 1328.11,1316.7 1333.53,1013.3 1338.95,975.837 1344.37,983.428 1349.79,1146.93 1355.22,1012.32 1360.64,1065.75 1366.06,1066.77 1371.48,823.282 1376.9,826.773 1382.32,882.837 1387.74,809.476 1393.17,953.348 1398.59,715.103 1404.01,1092.99 1409.43,841.7 1414.85,1016.16 1420.27,690.508 1425.69,876.014 1431.12,1102.59 1436.54,499.182 1441.96,868.086 1447.38,1112.83 1452.8,888.544 1458.22,705.152 1463.64,930.932 1469.07,888.55 1474.49,840.991 1479.91,989.559 1485.33,776.257 1490.75,884.245 1496.17,1076.64 1501.59,1057.57 1507.02,908.051 1512.44,701.635 1517.86,851.72 1523.28,792.68 1528.7,1102.51 1534.12,781.284 1539.54,792.62 1544.97,936.913 1550.39,995.473 1555.81,960.607 1561.23,1044.59 1566.65,759.166 1572.07,820.346 1577.49,1039.15 1582.92,848.01 1588.34,809.073 1593.76,919.675 1599.18,835.473 1604.6,1016.3 1610.02,1044.62 1615.44,907.264 1620.87,943.411 1626.29,1063.95 1631.71,1004.14 1637.13,925.715 1642.55,770.658 1647.97,1173.26 1653.39,1010.28 1658.82,1234.8 1664.24,1185.93 1669.66,984.023 1675.08,1044.76 1680.5,955.141 1685.92,1088.54 1691.34,1094.36 1696.76,1134.43 1702.19,1102.63 1707.61,1022.16 1713.03,1204.74 1718.45,1168.93 1723.87,1230.56 1729.29,1192.83 1734.71,1113.17 1740.14,1224.28 1745.56,1037.79 1750.98,1006.67 1756.4,1155.71 1761.82,1118.96 1767.24,1040.49 1772.66,1167 1778.09,1186.91 1783.51,1219 1788.93,1141.34 1794.35,1100.67 1799.77,1196.29 1805.19,1298.13 1810.61,1148 1816.04,1067.5 1821.46,1069.78 1826.88,1241 1832.3,1122.2 1837.72,1155.04 1843.14,1098.11 1848.56,1165.09 1853.99,1167.77 1859.41,1198.19 1864.83,1216.64 1870.25,1132.86 1875.67,1173.16 1881.09,1223.57 1886.51,1279.66 1891.94,1249.51 1897.36,1140.75 1902.78,1283.9 1908.2,1172.76 1913.62,1217.83 1919.04,1253.72 1924.46,1207.55 1929.89,1239.5 1935.31,1320.78 1940.73,1274.82 1946.15,1274.74 1951.57,1323.6 1956.99,1266.42 1962.41,1259.82 1967.84,1268.69 1973.26,1250.88 1978.68,1294.04 1984.1,1312.68 1989.52,1297.9 1994.94,1269.65 2000.36,1276.73 2005.79,1305.87 2011.21,1277.2 2016.63,1250.46 2022.05,1252.16 2027.47,1313.05 2032.89,1299.46 2038.31,1259.44 2043.74,1318.77 2049.16,1331.21 2054.58,1331.09 2060,1318.84 2065.42,1331.7 2070.84,1322.95 2076.26,1347.92 2081.69,1273.63 2087.11,1357.52 2092.53,1314.48 2097.95,1336.57 2103.37,1366.87 2108.79,1293.1 2114.21,1354.64 2119.64,1334.62 2125.06,1326.56 2130.48,1286.35 2135.9,1317.56 2141.32,1336.01 2146.74,1314.84 2152.16,1303.18 2157.59,1342.3 2163.01,1323.34 2168.43,1330.29 2173.85,1334.51 2179.27,1320.64 2184.69,1316.74 2190.11,1341 2195.53,1361.36 2200.96,1339.59 2206.38,1354.99 2211.8,1327.24 2217.22,1343.11 2222.64,1343.57 2228.06,1363.23 2233.48,1346.25 2238.91,1337.27 2244.33,1359.12 2249.75,1350.5 2255.17,1342.01 2260.59,1348.55 2266.01,1354.38 2271.43,1359.81 2276.86,1363.33 2282.28,1361.25 2287.7,1363.34 2293.12,1333.53 2298.54,1352.91 2303.96,1346.29 2309.38,1352.67 2314.81,1352.97 2320.23,1357.27 2325.65,1356.85 2331.07,1364.49 2336.49,1375.66 2341.91,1365.92 2347.33,1356.93 2352.76,1370.78 "/>
<polyline clip-path="url(#clip392)" style="stroke:#3da44d; stroke-linecap:round; stroke-linejoin:round; stroke-width:4; stroke-opacity:1; fill:none" points="184.191,1281.25 189.612,1280.66 195.034,1280.05 200.455,1279.41 205.876,1278.74 211.298,1278.05 216.719,1277.33 222.141,1276.59 227.562,1275.82 232.983,1275.03 238.405,1274.21 243.826,1273.37 249.248,1272.5 254.669,1271.61 260.09,1270.69 265.512,1269.74 270.933,1268.78 276.355,1267.78 281.776,1266.76 287.198,1265.72 292.619,1264.65 298.04,1263.55 303.462,1262.43 308.883,1261.29 314.305,1260.11 319.726,1258.91 325.147,1257.69 330.569,1256.44 335.99,1255.16 341.412,1253.86 346.833,1252.53 352.254,1251.17 357.676,1249.79 363.097,1248.38 368.519,1246.94 373.94,1245.47 379.362,1243.98 384.783,1242.45 390.204,1240.9 395.626,1239.33 401.047,1237.72 406.469,1236.08 411.89,1234.42 417.311,1232.72 422.733,1231 428.154,1229.24 433.576,1227.46 438.997,1225.64 444.419,1223.8 449.84,1221.92 455.261,1220.01 460.683,1218.07 466.104,1216.1 471.526,1214.1 476.947,1212.06 482.368,1209.99 487.79,1207.89 493.211,1205.76 498.633,1203.59 504.054,1201.38 509.475,1199.14 514.897,1196.87 520.318,1194.56 525.74,1192.22 531.161,1189.84 536.583,1187.42 542.004,1184.97 547.425,1182.48 552.847,1179.95 558.268,1177.39 563.69,1174.79 569.111,1172.14 574.532,1169.46 579.954,1166.74 585.375,1163.98 590.797,1161.18 596.218,1158.34 601.639,1155.46 607.061,1152.54 612.482,1149.57 617.904,1146.57 623.325,1143.52 628.747,1140.42 634.168,1137.29 639.589,1134.1 645.011,1130.88 650.432,1127.61 655.854,1124.29 661.275,1120.93 666.696,1117.53 672.118,1114.07 677.539,1110.57 682.961,1107.03 688.382,1103.43 693.804,1099.79 699.225,1096.09 704.646,1092.35 710.068,1088.56 715.489,1084.72 720.911,1080.83 726.332,1076.89 731.753,1072.9 737.175,1068.85 742.596,1064.76 748.018,1060.61 753.439,1056.41 758.86,1052.15 764.282,1047.84 769.703,1043.48 775.125,1039.06 780.546,1034.59 785.968,1030.07 791.389,1025.49 796.81,1020.85 802.232,1016.16 807.653,1011.42 813.075,1006.62 818.496,1001.76 823.917,996.846 829.339,991.876 834.76,986.851 840.182,981.77 845.603,976.632 851.024,971.439 856.446,966.189 861.867,960.883 867.289,955.521 872.71,950.103 878.132,944.631 883.553,939.107 888.974,933.528 894.396,927.897 899.817,922.211 905.239,916.471 910.66,910.678 916.081,904.832 921.503,898.934 926.924,892.983 932.346,886.982 937.767,880.931 943.189,874.832 948.61,868.685 954.031,862.494 959.453,856.258 964.874,849.981 970.296,843.665 975.717,837.311 981.138,830.923 986.56,824.502 991.981,818.053 997.403,811.577 1002.82,805.078 1008.25,798.559 1013.67,792.024 1019.09,785.477 1024.51,778.92 1029.93,772.36 1035.35,765.798 1040.77,759.241 1046.2,752.692 1051.62,746.156 1057.04,739.639 1062.46,733.144 1067.88,726.671 1073.3,720.224 1078.72,713.812 1084.15,707.448 1089.57,701.143 1094.99,694.907 1100.41,688.752 1105.83,682.691 1111.25,676.736 1116.67,670.899 1122.1,665.194 1127.52,659.633 1132.94,654.23 1138.36,648.998 1143.78,643.953 1149.2,639.107 1154.62,634.476 1160.05,630.075 1165.47,625.918 1170.89,622.022 1176.31,618.401 1181.73,615.072 1187.15,612.052 1192.57,609.356 1197.99,607.003 1203.42,605.008 1208.84,603.389 1214.26,602.165 1219.68,601.353 1225.1,600.971 1230.52,601.038 1235.94,601.574 1241.37,602.596 1246.79,604.125 1252.21,606.181 1257.63,608.783 1263.05,611.952 1268.47,615.714 1273.89,620.074 1279.32,625.031 1284.74,630.581 1290.16,636.719 1295.58,643.436 1301,650.725 1306.42,658.573 1311.84,666.967 1317.27,675.892 1322.69,685.33 1328.11,695.263 1333.53,705.669 1338.95,716.525 1344.37,727.807 1349.79,739.486 1355.22,751.534 1360.64,763.92 1366.06,776.612 1371.48,789.574 1376.9,802.769 1382.32,816.159 1387.74,829.703 1393.17,843.358 1398.59,857.08 1404.01,870.822 1409.43,884.535 1414.85,898.178 1420.27,911.737 1425.69,925.183 1431.12,938.484 1436.54,951.61 1441.96,964.534 1447.38,977.232 1452.8,989.68 1458.22,1001.86 1463.64,1013.75 1469.07,1025.34 1474.49,1036.61 1479.91,1047.56 1485.33,1058.16 1490.75,1068.43 1496.17,1078.35 1501.59,1087.93 1507.02,1097.16 1512.44,1106.04 1517.86,1114.59 1523.28,1122.81 1528.7,1130.7 1534.12,1138.29 1539.54,1145.58 1544.97,1152.6 1550.39,1159.35 1555.81,1165.82 1561.23,1172.02 1566.65,1177.95 1572.07,1183.63 1577.49,1189.06 1582.92,1194.26 1588.34,1199.23 1593.76,1203.98 1599.18,1208.52 1604.6,1212.86 1610.02,1217.01 1615.44,1220.96 1620.87,1224.74 1626.29,1228.35 1631.71,1231.79 1637.13,1235.07 1642.55,1238.19 1647.97,1241.17 1653.39,1244.01 1658.82,1246.71 1664.24,1249.28 1669.66,1251.72 1675.08,1254.05 1680.5,1256.26 1685.92,1258.36 1691.34,1260.36 1696.76,1262.26 1702.19,1264.06 1707.61,1265.77 1713.03,1267.39 1718.45,1268.92 1723.87,1270.37 1729.29,1271.75 1734.71,1273.04 1740.14,1274.27 1745.56,1275.42 1750.98,1276.51 1756.4,1277.53 1761.82,1278.49 1767.24,1279.38 1772.66,1280.22 1778.09,1281.01 1783.51,1281.74 1788.93,1282.42 1794.35,1283.04 1799.77,1283.62 1805.19,1284.15 1810.61,1284.63 1816.04,1285.07 1821.46,1285.46 1826.88,1285.81 1832.3,1286.12 1837.72,1286.39 1843.14,1286.61 1848.56,1286.8 1853.99,1286.95 1859.41,1287.07 1864.83,1287.15 1870.25,1287.19 1875.67,1287.2 1881.09,1287.18 1886.51,1287.12 1891.94,1287.03 1897.36,1286.91 1902.78,1286.76 1908.2,1286.57 1913.62,1286.36 1919.04,1286.12 1924.46,1285.85 1929.89,1285.54 1935.31,1285.21 1940.73,1284.86 1946.15,1284.47 1951.57,1284.06 1956.99,1283.62 1962.41,1283.15 1967.84,1282.66 1973.26,1282.14 1978.68,1281.6 1984.1,1281.02 1989.52,1280.43 1994.94,1279.8 2000.36,1279.16 2005.79,1278.48 2011.21,1277.78 2016.63,1277.06 2022.05,1276.31 2027.47,1275.54 2032.89,1274.74 2038.31,1273.91 2043.74,1273.06 2049.16,1272.18 2054.58,1271.28 2060,1270.36 2065.42,1269.41 2070.84,1268.43 2076.26,1267.43 2081.69,1266.4 2087.11,1265.35 2092.53,1264.27 2097.95,1263.17 2103.37,1262.04 2108.79,1260.88 2114.21,1259.7 2119.64,1258.49 2125.06,1257.26 2130.48,1256 2135.9,1254.71 2141.32,1253.4 2146.74,1252.06 2152.16,1250.7 2157.59,1249.3 2163.01,1247.88 2168.43,1246.43 2173.85,1244.96 2179.27,1243.46 2184.69,1241.92 2190.11,1240.37 2195.53,1238.78 2200.96,1237.16 2206.38,1235.52 2211.8,1233.84 2217.22,1232.14 2222.64,1230.4 2228.06,1228.64 2233.48,1226.84 2238.91,1225.02 2244.33,1223.16 2249.75,1221.28 2255.17,1219.36 2260.59,1217.41 2266.01,1215.43 2271.43,1213.41 2276.86,1211.37 2282.28,1209.29 2287.7,1207.18 2293.12,1205.03 2298.54,1202.85 2303.96,1200.63 2309.38,1198.38 2314.81,1196.1 2320.23,1193.78 2325.65,1191.43 2331.07,1189.03 2336.49,1186.61 2341.91,1184.14 2347.33,1181.64 2352.76,1179.1 "/>
<polyline clip-path="url(#clip392)" style="stroke:#c271d2; stroke-linecap:round; stroke-linejoin:round; stroke-width:4; stroke-opacity:1; fill:none" points="184.191,1281.25 189.612,1283.53 195.034,1285.76 200.455,1287.94 205.876,1290.07 211.298,1292.15 216.719,1294.19 222.141,1296.18 227.562,1298.12 232.983,1300.02 238.405,1301.88 243.826,1303.69 249.248,1305.46 254.669,1307.19 260.09,1308.89 265.512,1310.54 270.933,1312.15 276.355,1313.73 281.776,1315.27 287.198,1316.78 292.619,1318.25 298.04,1319.68 303.462,1321.09 308.883,1322.46 314.305,1323.79 319.726,1325.1 325.147,1326.37 330.569,1327.62 335.99,1328.83 341.412,1330.02 346.833,1331.18 352.254,1332.31 357.676,1333.41 363.097,1334.49 368.519,1335.54 373.94,1336.56 379.362,1337.57 384.783,1338.54 390.204,1339.49 395.626,1340.42 401.047,1341.33 406.469,1342.22 411.89,1343.08 417.311,1343.92 422.733,1344.74 428.154,1345.54 433.576,1346.32 438.997,1347.08 444.419,1347.82 449.84,1348.54 455.261,1349.25 460.683,1349.93 466.104,1350.6 471.526,1351.25 476.947,1351.88 482.368,1352.5 487.79,1353.1 493.211,1353.68 498.633,1354.25 504.054,1354.8 509.475,1355.34 514.897,1355.86 520.318,1356.37 525.74,1356.87 531.161,1357.35 536.583,1357.81 542.004,1358.27 547.425,1358.7 552.847,1359.13 558.268,1359.54 563.69,1359.94 569.111,1360.33 574.532,1360.71 579.954,1361.07 585.375,1361.42 590.797,1361.76 596.218,1362.09 601.639,1362.4 607.061,1362.71 612.482,1363 617.904,1363.28 623.325,1363.55 628.747,1363.81 634.168,1364.06 639.589,1364.3 645.011,1364.53 650.432,1364.75 655.854,1364.95 661.275,1365.15 666.696,1365.33 672.118,1365.51 677.539,1365.68 682.961,1365.83 688.382,1365.98 693.804,1366.11 699.225,1366.23 704.646,1366.35 710.068,1366.45 715.489,1366.55 720.911,1366.63 726.332,1366.7 731.753,1366.76 737.175,1366.82 742.596,1366.86 748.018,1366.89 753.439,1366.91 758.86,1366.92 764.282,1366.91 769.703,1366.9 775.125,1366.88 780.546,1366.84 785.968,1366.8 791.389,1366.74 796.81,1366.67 802.232,1366.58 807.653,1366.49 813.075,1366.38 818.496,1366.26 823.917,1366.12 829.339,1365.97 834.76,1365.81 840.182,1365.63 845.603,1365.44 851.024,1365.23 856.446,1365.01 861.867,1364.77 867.289,1364.51 872.71,1364.24 878.132,1363.95 883.553,1363.64 888.974,1363.31 894.396,1362.96 899.817,1362.58 905.239,1362.19 910.66,1361.78 916.081,1361.34 921.503,1360.88 926.924,1360.4 932.346,1359.89 937.767,1359.36 943.189,1358.8 948.61,1358.21 954.031,1357.59 959.453,1356.94 964.874,1356.26 970.296,1355.55 975.717,1354.8 981.138,1354.01 986.56,1353.18 991.981,1352.31 997.403,1351.4 1002.82,1350.45 1008.25,1349.44 1013.67,1348.39 1019.09,1347.28 1024.51,1346.12 1029.93,1344.91 1035.35,1343.63 1040.77,1342.29 1046.2,1340.88 1051.62,1339.4 1057.04,1337.86 1062.46,1336.23 1067.88,1334.54 1073.3,1332.77 1078.72,1330.92 1084.15,1328.98 1089.57,1326.95 1094.99,1324.81 1100.41,1322.56 1105.83,1320.2 1111.25,1317.71 1116.67,1315.09 1122.1,1312.34 1127.52,1309.44 1132.94,1306.4 1138.36,1303.19 1143.78,1299.83 1149.2,1296.29 1154.62,1292.58 1160.05,1288.69 1165.47,1284.62 1170.89,1280.35 1176.31,1275.88 1181.73,1271.2 1187.15,1266.32 1192.57,1261.22 1197.99,1255.9 1203.42,1250.35 1208.84,1244.57 1214.26,1238.56 1219.68,1232.3 1225.1,1225.79 1230.52,1219.03 1235.94,1212.01 1241.37,1204.73 1246.79,1197.18 1252.21,1189.36 1257.63,1181.27 1263.05,1172.89 1268.47,1164.21 1273.89,1155.23 1279.32,1146 1284.74,1136.52 1290.16,1126.83 1295.58,1116.95 1301,1106.91 1306.42,1096.73 1311.84,1086.44 1317.27,1076.07 1322.69,1065.64 1328.11,1055.19 1333.53,1044.75 1338.95,1034.33 1344.37,1023.98 1349.79,1013.71 1355.22,1003.57 1360.64,993.579 1366.06,983.772 1371.48,974.18 1376.9,964.834 1382.32,955.768 1387.74,947.013 1393.17,938.603 1398.59,930.572 1404.01,922.954 1409.43,915.783 1414.85,909.088 1420.27,902.872 1425.69,897.148 1431.12,891.93 1436.54,887.228 1441.96,883.051 1447.38,879.405 1452.8,876.295 1458.22,873.722 1463.64,871.685 1469.07,870.181 1474.49,869.204 1479.91,868.748 1485.33,868.801 1490.75,869.351 1496.17,870.384 1501.59,871.881 1507.02,873.824 1512.44,876.191 1517.86,878.957 1523.28,882.095 1528.7,885.577 1534.12,889.371 1539.54,893.443 1544.97,897.758 1550.39,902.296 1555.81,907.07 1561.23,912.064 1566.65,917.258 1572.07,922.635 1577.49,928.177 1582.92,933.868 1588.34,939.69 1593.76,945.629 1599.18,951.671 1604.6,957.8 1610.02,964.003 1615.44,970.269 1620.87,976.584 1626.29,982.938 1631.71,989.32 1637.13,995.719 1642.55,1002.13 1647.97,1008.54 1653.39,1014.94 1658.82,1021.32 1664.24,1027.68 1669.66,1034.02 1675.08,1040.32 1680.5,1046.58 1685.92,1052.79 1691.34,1058.95 1696.76,1065.06 1702.19,1071.1 1707.61,1077.09 1713.03,1083.01 1718.45,1088.87 1723.87,1094.65 1729.29,1100.37 1734.71,1106.01 1740.14,1111.58 1745.56,1117.07 1750.98,1122.48 1756.4,1127.81 1761.82,1133.06 1767.24,1138.22 1772.66,1143.31 1778.09,1148.31 1783.51,1153.23 1788.93,1158.06 1794.35,1162.81 1799.77,1167.48 1805.19,1172.06 1810.61,1176.57 1816.04,1180.98 1821.46,1185.32 1826.88,1189.58 1832.3,1193.76 1837.72,1197.86 1843.14,1201.88 1848.56,1205.83 1853.99,1209.7 1859.41,1213.49 1864.83,1217.2 1870.25,1220.84 1875.67,1224.41 1881.09,1227.91 1886.51,1231.33 1891.94,1234.68 1897.36,1237.97 1902.78,1241.18 1908.2,1244.33 1913.62,1247.41 1919.04,1250.43 1924.46,1253.38 1929.89,1256.27 1935.31,1259.1 1940.73,1261.87 1946.15,1264.57 1951.57,1267.22 1956.99,1269.81 1962.41,1272.34 1967.84,1274.82 1973.26,1277.24 1978.68,1279.6 1984.1,1281.92 1989.52,1284.18 1994.94,1286.4 2000.36,1288.56 2005.79,1290.68 2011.21,1292.75 2016.63,1294.77 2022.05,1296.74 2027.47,1298.67 2032.89,1300.56 2038.31,1302.4 2043.74,1304.2 2049.16,1305.96 2054.58,1307.68 2060,1309.36 2065.42,1311 2070.84,1312.61 2076.26,1314.18 2081.69,1315.71 2087.11,1317.2 2092.53,1318.66 2097.95,1320.09 2103.37,1321.48 2108.79,1322.84 2114.21,1324.17 2119.64,1325.46 2125.06,1326.73 2130.48,1327.97 2135.9,1329.17 2141.32,1330.35 2146.74,1331.5 2152.16,1332.63 2157.59,1333.72 2163.01,1334.79 2168.43,1335.84 2173.85,1336.85 2179.27,1337.85 2184.69,1338.82 2190.11,1339.76 2195.53,1340.68 2200.96,1341.58 2206.38,1342.46 2211.8,1343.32 2217.22,1344.15 2222.64,1344.97 2228.06,1345.76 2233.48,1346.53 2238.91,1347.29 2244.33,1348.02 2249.75,1348.74 2255.17,1349.44 2260.59,1350.12 2266.01,1350.78 2271.43,1351.42 2276.86,1352.05 2282.28,1352.66 2287.7,1353.26 2293.12,1353.84 2298.54,1354.4 2303.96,1354.95 2309.38,1355.48 2314.81,1356 2320.23,1356.51 2325.65,1357 2331.07,1357.47 2336.49,1357.93 2341.91,1358.38 2347.33,1358.82 2352.76,1359.24 "/>
<path clip-path="url(#clip390)" d="M1901.23 352.309 L2280.47 352.309 L2280.47 93.1086 L1901.23 93.1086  Z" fill="#ffffff" fill-rule="evenodd" fill-opacity="1"/>
<polyline clip-path="url(#clip390)" style="stroke:#000000; stroke-linecap:round; stroke-linejoin:round; stroke-width:4; stroke-opacity:1; fill:none" points="1901.23,352.309 2280.47,352.309 2280.47,93.1086 1901.23,93.1086 1901.23,352.309 "/>
<polyline clip-path="url(#clip390)" style="stroke:#009af9; stroke-linecap:round; stroke-linejoin:round; stroke-width:4; stroke-opacity:1; fill:none" points="1925.33,144.949 2069.9,144.949 "/>
<path clip-path="url(#clip390)" d="M2115.7 146.581 L2115.7 162.229 L2111.45 162.229 L2111.45 146.719 Q2111.45 143.039 2110.01 141.21 Q2108.58 139.382 2105.7 139.382 Q2102.26 139.382 2100.26 141.581 Q2098.27 143.78 2098.27 147.576 L2098.27 162.229 L2093.99 162.229 L2093.99 136.303 L2098.27 136.303 L2098.27 140.331 Q2099.8 137.993 2101.86 136.835 Q2103.95 135.678 2106.65 135.678 Q2111.12 135.678 2113.41 138.456 Q2115.7 141.21 2115.7 146.581 Z" fill="#000000" fill-rule="nonzero" fill-opacity="1" /><path clip-path="url(#clip390)" d="M2134.25 139.289 Q2130.82 139.289 2128.83 141.974 Q2126.84 144.636 2126.84 149.289 Q2126.84 153.942 2128.81 156.627 Q2130.8 159.289 2134.25 159.289 Q2137.65 159.289 2139.64 156.604 Q2141.63 153.918 2141.63 149.289 Q2141.63 144.682 2139.64 141.997 Q2137.65 139.289 2134.25 139.289 M2134.25 135.678 Q2139.8 135.678 2142.97 139.289 Q2146.14 142.9 2146.14 149.289 Q2146.14 155.655 2142.97 159.289 Q2139.8 162.9 2134.25 162.9 Q2128.67 162.9 2125.5 159.289 Q2122.35 155.655 2122.35 149.289 Q2122.35 142.9 2125.5 139.289 Q2128.67 135.678 2134.25 135.678 Z" fill="#000000" fill-rule="nonzero" fill-opacity="1" /><path clip-path="url(#clip390)" d="M2153.2 136.303 L2157.46 136.303 L2157.46 162.229 L2153.2 162.229 L2153.2 136.303 M2153.2 126.21 L2157.46 126.21 L2157.46 131.604 L2153.2 131.604 L2153.2 126.21 Z" fill="#000000" fill-rule="nonzero" fill-opacity="1" /><path clip-path="url(#clip390)" d="M2182.9 137.067 L2182.9 141.094 Q2181.1 140.169 2179.15 139.706 Q2177.21 139.243 2175.13 139.243 Q2171.95 139.243 2170.36 140.215 Q2168.78 141.187 2168.78 143.131 Q2168.78 144.613 2169.92 145.469 Q2171.05 146.303 2174.48 147.067 L2175.94 147.391 Q2180.47 148.363 2182.37 150.145 Q2184.29 151.905 2184.29 155.076 Q2184.29 158.687 2181.42 160.793 Q2178.57 162.9 2173.57 162.9 Q2171.49 162.9 2169.22 162.483 Q2166.98 162.09 2164.48 161.28 L2164.48 156.881 Q2166.84 158.108 2169.13 158.733 Q2171.42 159.335 2173.67 159.335 Q2176.68 159.335 2178.3 158.317 Q2179.92 157.275 2179.92 155.4 Q2179.92 153.664 2178.74 152.738 Q2177.58 151.812 2173.62 150.956 L2172.14 150.608 Q2168.18 149.775 2166.42 148.062 Q2164.66 146.326 2164.66 143.317 Q2164.66 139.659 2167.26 137.669 Q2169.85 135.678 2174.62 135.678 Q2176.98 135.678 2179.06 136.025 Q2181.14 136.372 2182.9 137.067 Z" fill="#000000" fill-rule="nonzero" fill-opacity="1" /><path clip-path="url(#clip390)" d="M2201.86 164.636 Q2200.06 169.266 2198.34 170.678 Q2196.63 172.09 2193.76 172.09 L2190.36 172.09 L2190.36 168.525 L2192.86 168.525 Q2194.62 168.525 2195.59 167.692 Q2196.56 166.858 2197.74 163.756 L2198.51 161.812 L2188.02 136.303 L2192.53 136.303 L2200.63 156.581 L2208.74 136.303 L2213.25 136.303 L2201.86 164.636 Z" fill="#000000" fill-rule="nonzero" fill-opacity="1" /><path clip-path="url(#clip390)" d="M2255.75 136.303 L2246.38 148.919 L2256.24 162.229 L2251.21 162.229 L2243.67 152.043 L2236.12 162.229 L2231.1 162.229 L2241.17 148.664 L2231.95 136.303 L2236.98 136.303 L2243.85 145.539 L2250.73 136.303 L2255.75 136.303 Z" fill="#000000" fill-rule="nonzero" fill-opacity="1" /><polyline clip-path="url(#clip390)" style="stroke:#e26f46; stroke-linecap:round; stroke-linejoin:round; stroke-width:4; stroke-opacity:1; fill:none" points="1925.33,196.789 2069.9,196.789 "/>
<path clip-path="url(#clip390)" d="M2115.7 198.421 L2115.7 214.069 L2111.45 214.069 L2111.45 198.559 Q2111.45 194.879 2110.01 193.05 Q2108.58 191.222 2105.7 191.222 Q2102.26 191.222 2100.26 193.421 Q2098.27 195.62 2098.27 199.416 L2098.27 214.069 L2093.99 214.069 L2093.99 188.143 L2098.27 188.143 L2098.27 192.171 Q2099.8 189.833 2101.86 188.675 Q2103.95 187.518 2106.65 187.518 Q2111.12 187.518 2113.41 190.296 Q2115.7 193.05 2115.7 198.421 Z" fill="#000000" fill-rule="nonzero" fill-opacity="1" /><path clip-path="url(#clip390)" d="M2134.25 191.129 Q2130.82 191.129 2128.83 193.814 Q2126.84 196.476 2126.84 201.129 Q2126.84 205.782 2128.81 208.467 Q2130.8 211.129 2134.25 211.129 Q2137.65 211.129 2139.64 208.444 Q2141.63 205.758 2141.63 201.129 Q2141.63 196.522 2139.64 193.837 Q2137.65 191.129 2134.25 191.129 M2134.25 187.518 Q2139.8 187.518 2142.97 191.129 Q2146.14 194.74 2146.14 201.129 Q2146.14 207.495 2142.97 211.129 Q2139.8 214.74 2134.25 214.74 Q2128.67 214.74 2125.5 211.129 Q2122.35 207.495 2122.35 201.129 Q2122.35 194.74 2125.5 191.129 Q2128.67 187.518 2134.25 187.518 Z" fill="#000000" fill-rule="nonzero" fill-opacity="1" /><path clip-path="url(#clip390)" d="M2153.2 188.143 L2157.46 188.143 L2157.46 214.069 L2153.2 214.069 L2153.2 188.143 M2153.2 178.05 L2157.46 178.05 L2157.46 183.444 L2153.2 183.444 L2153.2 178.05 Z" fill="#000000" fill-rule="nonzero" fill-opacity="1" /><path clip-path="url(#clip390)" d="M2182.9 188.907 L2182.9 192.934 Q2181.1 192.009 2179.15 191.546 Q2177.21 191.083 2175.13 191.083 Q2171.95 191.083 2170.36 192.055 Q2168.78 193.027 2168.78 194.971 Q2168.78 196.453 2169.92 197.309 Q2171.05 198.143 2174.48 198.907 L2175.94 199.231 Q2180.47 200.203 2182.37 201.985 Q2184.29 203.745 2184.29 206.916 Q2184.29 210.527 2181.42 212.633 Q2178.57 214.74 2173.57 214.74 Q2171.49 214.74 2169.22 214.323 Q2166.98 213.93 2164.48 213.12 L2164.48 208.721 Q2166.84 209.948 2169.13 210.573 Q2171.42 211.175 2173.67 211.175 Q2176.68 211.175 2178.3 210.157 Q2179.92 209.115 2179.92 207.24 Q2179.92 205.504 2178.74 204.578 Q2177.58 203.652 2173.62 202.796 L2172.14 202.448 Q2168.18 201.615 2166.42 199.902 Q2164.66 198.166 2164.66 195.157 Q2164.66 191.499 2167.26 189.509 Q2169.85 187.518 2174.62 187.518 Q2176.98 187.518 2179.06 187.865 Q2181.14 188.212 2182.9 188.907 Z" fill="#000000" fill-rule="nonzero" fill-opacity="1" /><path clip-path="url(#clip390)" d="M2201.86 216.476 Q2200.06 221.106 2198.34 222.518 Q2196.63 223.93 2193.76 223.93 L2190.36 223.93 L2190.36 220.365 L2192.86 220.365 Q2194.62 220.365 2195.59 219.532 Q2196.56 218.698 2197.74 215.596 L2198.51 213.652 L2188.02 188.143 L2192.53 188.143 L2200.63 208.421 L2208.74 188.143 L2213.25 188.143 L2201.86 216.476 Z" fill="#000000" fill-rule="nonzero" fill-opacity="1" /><path clip-path="url(#clip390)" d="M2244.99 216.476 Q2243.18 221.106 2241.47 222.518 Q2239.75 223.93 2236.88 223.93 L2233.48 223.93 L2233.48 220.365 L2235.98 220.365 Q2237.74 220.365 2238.71 219.532 Q2239.69 218.698 2240.87 215.596 L2241.63 213.652 L2231.14 188.143 L2235.66 188.143 L2243.76 208.421 L2251.86 188.143 L2256.38 188.143 L2244.99 216.476 Z" fill="#000000" fill-rule="nonzero" fill-opacity="1" /><polyline clip-path="url(#clip390)" style="stroke:#3da44d; stroke-linecap:round; stroke-linejoin:round; stroke-width:4; stroke-opacity:1; fill:none" points="1925.33,248.629 2069.9,248.629 "/>
<path clip-path="url(#clip390)" d="M2118.64 239.983 L2109.27 252.599 L2119.13 265.909 L2114.11 265.909 L2106.56 255.723 L2099.01 265.909 L2093.99 265.909 L2104.06 252.344 L2094.85 239.983 L2099.87 239.983 L2106.75 249.219 L2113.62 239.983 L2118.64 239.983 Z" fill="#000000" fill-rule="nonzero" fill-opacity="1" /><polyline clip-path="url(#clip390)" style="stroke:#c271d2; stroke-linecap:round; stroke-linejoin:round; stroke-width:4; stroke-opacity:1; fill:none" points="1925.33,300.469 2069.9,300.469 "/>
<path clip-path="url(#clip390)" d="M2107.83 320.156 Q2106.03 324.786 2104.32 326.198 Q2102.6 327.61 2099.73 327.61 L2096.33 327.61 L2096.33 324.045 L2098.83 324.045 Q2100.59 324.045 2101.56 323.212 Q2102.53 322.378 2103.71 319.276 L2104.48 317.332 L2093.99 291.823 L2098.51 291.823 L2106.61 312.101 L2114.71 291.823 L2119.22 291.823 L2107.83 320.156 Z" fill="#000000" fill-rule="nonzero" fill-opacity="1" /></svg>
