<?xml version="1.0" encoding="utf-8"?>
<svg xmlns="http://www.w3.org/2000/svg" xmlns:xlink="http://www.w3.org/1999/xlink" width="600" height="400" viewBox="0 0 2400 1600">
<defs>
  <clipPath id="clip230">
    <rect x="0" y="0" width="2400" height="1600"/>
  </clipPath>
</defs>
<path clip-path="url(#clip230)" d="M0 1600 L2400 1600 L2400 0 L0 0  Z" fill="#ffffff" fill-rule="evenodd" fill-opacity="1"/>
<defs>
  <clipPath id="clip231">
    <rect x="223" y="47" width="2131" height="1440"/>
  </clipPath>
</defs>
<path clip-path="url(#clip230)" d="M223.103 1486.45 L2352.76 1486.45 L2352.76 47.2441 L223.103 47.2441  Z" fill="#ffffff" fill-rule="evenodd" fill-opacity="1"/>
<polyline clip-path="url(#clip231)" style="stroke:#000000; stroke-linecap:round; stroke-linejoin:round; stroke-width:2; stroke-opacity:0.1; fill:none" points="283.376,1486.45 283.376,47.2441 "/>
<polyline clip-path="url(#clip231)" style="stroke:#000000; stroke-linecap:round; stroke-linejoin:round; stroke-width:2; stroke-opacity:0.1; fill:none" points="785.652,1486.45 785.652,47.2441 "/>
<polyline clip-path="url(#clip231)" style="stroke:#000000; stroke-linecap:round; stroke-linejoin:round; stroke-width:2; stroke-opacity:0.1; fill:none" points="1287.93,1486.45 1287.93,47.2441 "/>
<polyline clip-path="url(#clip231)" style="stroke:#000000; stroke-linecap:round; stroke-linejoin:round; stroke-width:2; stroke-opacity:0.1; fill:none" points="1790.21,1486.45 1790.21,47.2441 "/>
<polyline clip-path="url(#clip231)" style="stroke:#000000; stroke-linecap:round; stroke-linejoin:round; stroke-width:2; stroke-opacity:0.1; fill:none" points="2292.48,1486.45 2292.48,47.2441 "/>
<polyline clip-path="url(#clip231)" style="stroke:#000000; stroke-linecap:round; stroke-linejoin:round; stroke-width:2; stroke-opacity:0.1; fill:none" points="223.103,1440.37 2352.76,1440.37 "/>
<polyline clip-path="url(#clip231)" style="stroke:#000000; stroke-linecap:round; stroke-linejoin:round; stroke-width:2; stroke-opacity:0.1; fill:none" points="223.103,1220.2 2352.76,1220.2 "/>
<polyline clip-path="url(#clip231)" style="stroke:#000000; stroke-linecap:round; stroke-linejoin:round; stroke-width:2; stroke-opacity:0.1; fill:none" points="223.103,1000.04 2352.76,1000.04 "/>
<polyline clip-path="url(#clip231)" style="stroke:#000000; stroke-linecap:round; stroke-linejoin:round; stroke-width:2; stroke-opacity:0.1; fill:none" points="223.103,779.874 2352.76,779.874 "/>
<polyline clip-path="url(#clip231)" style="stroke:#000000; stroke-linecap:round; stroke-linejoin:round; stroke-width:2; stroke-opacity:0.1; fill:none" points="223.103,559.709 2352.76,559.709 "/>
<polyline clip-path="url(#clip231)" style="stroke:#000000; stroke-linecap:round; stroke-linejoin:round; stroke-width:2; stroke-opacity:0.1; fill:none" points="223.103,339.545 2352.76,339.545 "/>
<polyline clip-path="url(#clip231)" style="stroke:#000000; stroke-linecap:round; stroke-linejoin:round; stroke-width:2; stroke-opacity:0.1; fill:none" points="223.103,119.38 2352.76,119.38 "/>
<polyline clip-path="url(#clip230)" style="stroke:#000000; stroke-linecap:round; stroke-linejoin:round; stroke-width:4; stroke-opacity:1; fill:none" points="223.103,1486.45 2352.76,1486.45 "/>
<polyline clip-path="url(#clip230)" style="stroke:#000000; stroke-linecap:round; stroke-linejoin:round; stroke-width:4; stroke-opacity:1; fill:none" points="283.376,1486.45 283.376,1467.55 "/>
<polyline clip-path="url(#clip230)" style="stroke:#000000; stroke-linecap:round; stroke-linejoin:round; stroke-width:4; stroke-opacity:1; fill:none" points="785.652,1486.45 785.652,1467.55 "/>
<polyline clip-path="url(#clip230)" style="stroke:#000000; stroke-linecap:round; stroke-linejoin:round; stroke-width:4; stroke-opacity:1; fill:none" points="1287.93,1486.45 1287.93,1467.55 "/>
<polyline clip-path="url(#clip230)" style="stroke:#000000; stroke-linecap:round; stroke-linejoin:round; stroke-width:4; stroke-opacity:1; fill:none" points="1790.21,1486.45 1790.21,1467.55 "/>
<polyline clip-path="url(#clip230)" style="stroke:#000000; stroke-linecap:round; stroke-linejoin:round; stroke-width:4; stroke-opacity:1; fill:none" points="2292.48,1486.45 2292.48,1467.55 "/>
<path clip-path="url(#clip230)" d="M260.76 1517.37 Q257.149 1517.37 255.32 1520.93 Q253.515 1524.47 253.515 1531.6 Q253.515 1538.71 255.32 1542.27 Q257.149 1545.82 260.76 1545.82 Q264.394 1545.82 266.2 1542.27 Q268.029 1538.71 268.029 1531.6 Q268.029 1524.47 266.2 1520.93 Q264.394 1517.37 260.76 1517.37 M260.76 1513.66 Q266.57 1513.66 269.626 1518.27 Q272.704 1522.85 272.704 1531.6 Q272.704 1540.33 269.626 1544.94 Q266.57 1549.52 260.76 1549.52 Q254.95 1549.52 251.871 1544.94 Q248.816 1540.33 248.816 1531.6 Q248.816 1522.85 251.871 1518.27 Q254.95 1513.66 260.76 1513.66 Z" fill="#000000" fill-rule="nonzero" fill-opacity="1" /><path clip-path="url(#clip230)" d="M280.922 1542.97 L285.806 1542.97 L285.806 1548.85 L280.922 1548.85 L280.922 1542.97 Z" fill="#000000" fill-rule="nonzero" fill-opacity="1" /><path clip-path="url(#clip230)" d="M305.991 1517.37 Q302.38 1517.37 300.552 1520.93 Q298.746 1524.47 298.746 1531.6 Q298.746 1538.71 300.552 1542.27 Q302.38 1545.82 305.991 1545.82 Q309.626 1545.82 311.431 1542.27 Q313.26 1538.71 313.26 1531.6 Q313.26 1524.47 311.431 1520.93 Q309.626 1517.37 305.991 1517.37 M305.991 1513.66 Q311.801 1513.66 314.857 1518.27 Q317.936 1522.85 317.936 1531.6 Q317.936 1540.33 314.857 1544.94 Q311.801 1549.52 305.991 1549.52 Q300.181 1549.52 297.102 1544.94 Q294.047 1540.33 294.047 1531.6 Q294.047 1522.85 297.102 1518.27 Q300.181 1513.66 305.991 1513.66 Z" fill="#000000" fill-rule="nonzero" fill-opacity="1" /><path clip-path="url(#clip230)" d="M763.535 1517.37 Q759.923 1517.37 758.095 1520.93 Q756.289 1524.47 756.289 1531.6 Q756.289 1538.71 758.095 1542.27 Q759.923 1545.82 763.535 1545.82 Q767.169 1545.82 768.974 1542.27 Q770.803 1538.71 770.803 1531.6 Q770.803 1524.47 768.974 1520.93 Q767.169 1517.37 763.535 1517.37 M763.535 1513.66 Q769.345 1513.66 772.4 1518.27 Q775.479 1522.85 775.479 1531.6 Q775.479 1540.33 772.4 1544.94 Q769.345 1549.52 763.535 1549.52 Q757.724 1549.52 754.646 1544.94 Q751.59 1540.33 751.59 1531.6 Q751.59 1522.85 754.646 1518.27 Q757.724 1513.66 763.535 1513.66 Z" fill="#000000" fill-rule="nonzero" fill-opacity="1" /><path clip-path="url(#clip230)" d="M783.696 1542.97 L788.581 1542.97 L788.581 1548.85 L783.696 1548.85 L783.696 1542.97 Z" fill="#000000" fill-rule="nonzero" fill-opacity="1" /><path clip-path="url(#clip230)" d="M798.812 1514.29 L817.168 1514.29 L817.168 1518.22 L803.094 1518.22 L803.094 1526.7 Q804.113 1526.35 805.132 1526.19 Q806.15 1526 807.169 1526 Q812.956 1526 816.335 1529.17 Q819.715 1532.34 819.715 1537.76 Q819.715 1543.34 816.243 1546.44 Q812.77 1549.52 806.451 1549.52 Q804.275 1549.52 802.007 1549.15 Q799.761 1548.78 797.354 1548.04 L797.354 1543.34 Q799.437 1544.47 801.659 1545.03 Q803.882 1545.58 806.358 1545.58 Q810.363 1545.58 812.701 1543.48 Q815.039 1541.37 815.039 1537.76 Q815.039 1534.15 812.701 1532.04 Q810.363 1529.94 806.358 1529.94 Q804.483 1529.94 802.608 1530.35 Q800.757 1530.77 798.812 1531.65 L798.812 1514.29 Z" fill="#000000" fill-rule="nonzero" fill-opacity="1" /><path clip-path="url(#clip230)" d="M1255.08 1544.91 L1262.72 1544.91 L1262.72 1518.55 L1254.41 1520.21 L1254.41 1515.95 L1262.67 1514.29 L1267.35 1514.29 L1267.35 1544.91 L1274.99 1544.91 L1274.99 1548.85 L1255.08 1548.85 L1255.08 1544.91 Z" fill="#000000" fill-rule="nonzero" fill-opacity="1" /><path clip-path="url(#clip230)" d="M1284.43 1542.97 L1289.32 1542.97 L1289.32 1548.85 L1284.43 1548.85 L1284.43 1542.97 Z" fill="#000000" fill-rule="nonzero" fill-opacity="1" /><path clip-path="url(#clip230)" d="M1309.5 1517.37 Q1305.89 1517.37 1304.06 1520.93 Q1302.26 1524.47 1302.26 1531.6 Q1302.26 1538.71 1304.06 1542.27 Q1305.89 1545.82 1309.5 1545.82 Q1313.14 1545.82 1314.94 1542.27 Q1316.77 1538.71 1316.77 1531.6 Q1316.77 1524.47 1314.94 1520.93 Q1313.14 1517.37 1309.5 1517.37 M1309.5 1513.66 Q1315.31 1513.66 1318.37 1518.27 Q1321.45 1522.85 1321.45 1531.6 Q1321.45 1540.33 1318.37 1544.94 Q1315.31 1549.52 1309.5 1549.52 Q1303.69 1549.52 1300.61 1544.94 Q1297.56 1540.33 1297.56 1531.6 Q1297.56 1522.85 1300.61 1518.27 Q1303.69 1513.66 1309.5 1513.66 Z" fill="#000000" fill-rule="nonzero" fill-opacity="1" /><path clip-path="url(#clip230)" d="M1757.86 1544.91 L1765.5 1544.91 L1765.5 1518.55 L1757.19 1520.21 L1757.19 1515.95 L1765.45 1514.29 L1770.13 1514.29 L1770.13 1544.91 L1777.76 1544.91 L1777.76 1548.85 L1757.86 1548.85 L1757.86 1544.91 Z" fill="#000000" fill-rule="nonzero" fill-opacity="1" /><path clip-path="url(#clip230)" d="M1787.21 1542.97 L1792.09 1542.97 L1792.09 1548.85 L1787.21 1548.85 L1787.21 1542.97 Z" fill="#000000" fill-rule="nonzero" fill-opacity="1" /><path clip-path="url(#clip230)" d="M1802.32 1514.29 L1820.68 1514.29 L1820.68 1518.22 L1806.61 1518.22 L1806.61 1526.7 Q1807.62 1526.35 1808.64 1526.19 Q1809.66 1526 1810.68 1526 Q1816.47 1526 1819.85 1529.17 Q1823.23 1532.34 1823.23 1537.76 Q1823.23 1543.34 1819.75 1546.44 Q1816.28 1549.52 1809.96 1549.52 Q1807.79 1549.52 1805.52 1549.15 Q1803.27 1548.78 1800.87 1548.04 L1800.87 1543.34 Q1802.95 1544.47 1805.17 1545.03 Q1807.39 1545.58 1809.87 1545.58 Q1813.87 1545.58 1816.21 1543.48 Q1818.55 1541.37 1818.55 1537.76 Q1818.55 1534.15 1816.21 1532.04 Q1813.87 1529.94 1809.87 1529.94 Q1808 1529.94 1806.12 1530.35 Q1804.27 1530.77 1802.32 1531.65 L1802.32 1514.29 Z" fill="#000000" fill-rule="nonzero" fill-opacity="1" /><path clip-path="url(#clip230)" d="M2263.72 1544.91 L2280.04 1544.91 L2280.04 1548.85 L2258.1 1548.85 L2258.1 1544.91 Q2260.76 1542.16 2265.34 1537.53 Q2269.95 1532.88 2271.13 1531.53 Q2273.37 1529.01 2274.25 1527.27 Q2275.16 1525.51 2275.16 1523.82 Q2275.16 1521.07 2273.21 1519.33 Q2271.29 1517.6 2268.19 1517.6 Q2265.99 1517.6 2263.54 1518.36 Q2261.11 1519.13 2258.33 1520.68 L2258.33 1515.95 Q2261.15 1514.82 2263.61 1514.24 Q2266.06 1513.66 2268.1 1513.66 Q2273.47 1513.66 2276.66 1516.35 Q2279.86 1519.03 2279.86 1523.52 Q2279.86 1525.65 2279.05 1527.57 Q2278.26 1529.47 2276.15 1532.07 Q2275.57 1532.74 2272.47 1535.95 Q2269.37 1539.15 2263.72 1544.91 Z" fill="#000000" fill-rule="nonzero" fill-opacity="1" /><path clip-path="url(#clip230)" d="M2289.86 1542.97 L2294.74 1542.97 L2294.74 1548.85 L2289.86 1548.85 L2289.86 1542.97 Z" fill="#000000" fill-rule="nonzero" fill-opacity="1" /><path clip-path="url(#clip230)" d="M2314.92 1517.37 Q2311.31 1517.37 2309.48 1520.93 Q2307.68 1524.47 2307.68 1531.6 Q2307.68 1538.71 2309.48 1542.27 Q2311.31 1545.82 2314.92 1545.82 Q2318.56 1545.82 2320.36 1542.27 Q2322.19 1538.71 2322.19 1531.6 Q2322.19 1524.47 2320.36 1520.93 Q2318.56 1517.37 2314.92 1517.37 M2314.92 1513.66 Q2320.73 1513.66 2323.79 1518.27 Q2326.87 1522.85 2326.87 1531.6 Q2326.87 1540.33 2323.79 1544.94 Q2320.73 1549.52 2314.92 1549.52 Q2309.11 1549.52 2306.04 1544.94 Q2302.98 1540.33 2302.98 1531.6 Q2302.98 1522.85 2306.04 1518.27 Q2309.11 1513.66 2314.92 1513.66 Z" fill="#000000" fill-rule="nonzero" fill-opacity="1" /><polyline clip-path="url(#clip230)" style="stroke:#000000; stroke-linecap:round; stroke-linejoin:round; stroke-width:4; stroke-opacity:1; fill:none" points="223.103,1486.45 223.103,47.2441 "/>
<polyline clip-path="url(#clip230)" style="stroke:#000000; stroke-linecap:round; stroke-linejoin:round; stroke-width:4; stroke-opacity:1; fill:none" points="223.103,1440.37 242,1440.37 "/>
<polyline clip-path="url(#clip230)" style="stroke:#000000; stroke-linecap:round; stroke-linejoin:round; stroke-width:4; stroke-opacity:1; fill:none" points="223.103,1220.2 242,1220.2 "/>
<polyline clip-path="url(#clip230)" style="stroke:#000000; stroke-linecap:round; stroke-linejoin:round; stroke-width:4; stroke-opacity:1; fill:none" points="223.103,1000.04 242,1000.04 "/>
<polyline clip-path="url(#clip230)" style="stroke:#000000; stroke-linecap:round; stroke-linejoin:round; stroke-width:4; stroke-opacity:1; fill:none" points="223.103,779.874 242,779.874 "/>
<polyline clip-path="url(#clip230)" style="stroke:#000000; stroke-linecap:round; stroke-linejoin:round; stroke-width:4; stroke-opacity:1; fill:none" points="223.103,559.709 242,559.709 "/>
<polyline clip-path="url(#clip230)" style="stroke:#000000; stroke-linecap:round; stroke-linejoin:round; stroke-width:4; stroke-opacity:1; fill:none" points="223.103,339.545 242,339.545 "/>
<polyline clip-path="url(#clip230)" style="stroke:#000000; stroke-linecap:round; stroke-linejoin:round; stroke-width:4; stroke-opacity:1; fill:none" points="223.103,119.38 242,119.38 "/>
<path clip-path="url(#clip230)" d="M50.9921 1440.82 L80.6679 1440.82 L80.6679 1444.75 L50.9921 1444.75 L50.9921 1440.82 Z" fill="#000000" fill-rule="nonzero" fill-opacity="1" /><path clip-path="url(#clip230)" d="M100.76 1426.17 Q97.1493 1426.17 95.3206 1429.73 Q93.515 1433.27 93.515 1440.4 Q93.515 1447.51 95.3206 1451.07 Q97.1493 1454.61 100.76 1454.61 Q104.395 1454.61 106.2 1451.07 Q108.029 1447.51 108.029 1440.4 Q108.029 1433.27 106.2 1429.73 Q104.395 1426.17 100.76 1426.17 M100.76 1422.46 Q106.571 1422.46 109.626 1427.07 Q112.705 1431.65 112.705 1440.4 Q112.705 1449.13 109.626 1453.74 Q106.571 1458.32 100.76 1458.32 Q94.9502 1458.32 91.8715 1453.74 Q88.816 1449.13 88.816 1440.4 Q88.816 1431.65 91.8715 1427.07 Q94.9502 1422.46 100.76 1422.46 Z" fill="#000000" fill-rule="nonzero" fill-opacity="1" /><path clip-path="url(#clip230)" d="M120.922 1451.77 L125.807 1451.77 L125.807 1457.65 L120.922 1457.65 L120.922 1451.77 Z" fill="#000000" fill-rule="nonzero" fill-opacity="1" /><path clip-path="url(#clip230)" d="M145.992 1426.17 Q142.381 1426.17 140.552 1429.73 Q138.746 1433.27 138.746 1440.4 Q138.746 1447.51 140.552 1451.07 Q142.381 1454.61 145.992 1454.61 Q149.626 1454.61 151.431 1451.07 Q153.26 1447.51 153.26 1440.4 Q153.26 1433.27 151.431 1429.73 Q149.626 1426.17 145.992 1426.17 M145.992 1422.46 Q151.802 1422.46 154.857 1427.07 Q157.936 1431.65 157.936 1440.4 Q157.936 1449.13 154.857 1453.74 Q151.802 1458.32 145.992 1458.32 Q140.181 1458.32 137.103 1453.74 Q134.047 1449.13 134.047 1440.4 Q134.047 1431.65 137.103 1427.07 Q140.181 1422.46 145.992 1422.46 Z" fill="#000000" fill-rule="nonzero" fill-opacity="1" /><path clip-path="url(#clip230)" d="M166.2 1423.09 L184.556 1423.09 L184.556 1427.02 L170.482 1427.02 L170.482 1435.49 Q171.501 1435.15 172.519 1434.99 Q173.538 1434.8 174.556 1434.8 Q180.343 1434.8 183.723 1437.97 Q187.103 1441.14 187.103 1446.56 Q187.103 1452.14 183.63 1455.24 Q180.158 1458.32 173.839 1458.32 Q171.663 1458.32 169.394 1457.95 Q167.149 1457.58 164.742 1456.84 L164.742 1452.14 Q166.825 1453.27 169.047 1453.83 Q171.269 1454.38 173.746 1454.38 Q177.751 1454.38 180.089 1452.28 Q182.427 1450.17 182.427 1446.56 Q182.427 1442.95 180.089 1440.84 Q177.751 1438.74 173.746 1438.74 Q171.871 1438.74 169.996 1439.15 Q168.144 1439.57 166.2 1440.45 L166.2 1423.09 Z" fill="#000000" fill-rule="nonzero" fill-opacity="1" /><path clip-path="url(#clip230)" d="M99.765 1206 Q96.1539 1206 94.3252 1209.57 Q92.5197 1213.11 92.5197 1220.24 Q92.5197 1227.34 94.3252 1230.91 Q96.1539 1234.45 99.765 1234.45 Q103.399 1234.45 105.205 1230.91 Q107.033 1227.34 107.033 1220.24 Q107.033 1213.11 105.205 1209.57 Q103.399 1206 99.765 1206 M99.765 1202.3 Q105.575 1202.3 108.631 1206.9 Q111.709 1211.49 111.709 1220.24 Q111.709 1228.96 108.631 1233.57 Q105.575 1238.15 99.765 1238.15 Q93.9549 1238.15 90.8762 1233.57 Q87.8206 1228.96 87.8206 1220.24 Q87.8206 1211.49 90.8762 1206.9 Q93.9549 1202.3 99.765 1202.3 Z" fill="#000000" fill-rule="nonzero" fill-opacity="1" /><path clip-path="url(#clip230)" d="M119.927 1231.6 L124.811 1231.6 L124.811 1237.48 L119.927 1237.48 L119.927 1231.6 Z" fill="#000000" fill-rule="nonzero" fill-opacity="1" /><path clip-path="url(#clip230)" d="M144.996 1206 Q141.385 1206 139.556 1209.57 Q137.751 1213.11 137.751 1220.24 Q137.751 1227.34 139.556 1230.91 Q141.385 1234.45 144.996 1234.45 Q148.63 1234.45 150.436 1230.91 Q152.265 1227.34 152.265 1220.24 Q152.265 1213.11 150.436 1209.57 Q148.63 1206 144.996 1206 M144.996 1202.3 Q150.806 1202.3 153.862 1206.9 Q156.941 1211.49 156.941 1220.24 Q156.941 1228.96 153.862 1233.57 Q150.806 1238.15 144.996 1238.15 Q139.186 1238.15 136.107 1233.57 Q133.052 1228.96 133.052 1220.24 Q133.052 1211.49 136.107 1206.9 Q139.186 1202.3 144.996 1202.3 Z" fill="#000000" fill-rule="nonzero" fill-opacity="1" /><path clip-path="url(#clip230)" d="M175.158 1206 Q171.547 1206 169.718 1209.57 Q167.913 1213.11 167.913 1220.24 Q167.913 1227.34 169.718 1230.91 Q171.547 1234.45 175.158 1234.45 Q178.792 1234.45 180.598 1230.91 Q182.427 1227.34 182.427 1220.24 Q182.427 1213.11 180.598 1209.57 Q178.792 1206 175.158 1206 M175.158 1202.3 Q180.968 1202.3 184.024 1206.9 Q187.103 1211.49 187.103 1220.24 Q187.103 1228.96 184.024 1233.57 Q180.968 1238.15 175.158 1238.15 Q169.348 1238.15 166.269 1233.57 Q163.214 1228.96 163.214 1220.24 Q163.214 1211.49 166.269 1206.9 Q169.348 1202.3 175.158 1202.3 Z" fill="#000000" fill-rule="nonzero" fill-opacity="1" /><path clip-path="url(#clip230)" d="M100.76 985.837 Q97.1493 985.837 95.3206 989.402 Q93.515 992.943 93.515 1000.07 Q93.515 1007.18 95.3206 1010.74 Q97.1493 1014.29 100.76 1014.29 Q104.395 1014.29 106.2 1010.74 Q108.029 1007.18 108.029 1000.07 Q108.029 992.943 106.2 989.402 Q104.395 985.837 100.76 985.837 M100.76 982.133 Q106.571 982.133 109.626 986.74 Q112.705 991.323 112.705 1000.07 Q112.705 1008.8 109.626 1013.41 Q106.571 1017.99 100.76 1017.99 Q94.9502 1017.99 91.8715 1013.41 Q88.816 1008.8 88.816 1000.07 Q88.816 991.323 91.8715 986.74 Q94.9502 982.133 100.76 982.133 Z" fill="#000000" fill-rule="nonzero" fill-opacity="1" /><path clip-path="url(#clip230)" d="M120.922 1011.44 L125.807 1011.44 L125.807 1017.32 L120.922 1017.32 L120.922 1011.44 Z" fill="#000000" fill-rule="nonzero" fill-opacity="1" /><path clip-path="url(#clip230)" d="M145.992 985.837 Q142.381 985.837 140.552 989.402 Q138.746 992.943 138.746 1000.07 Q138.746 1007.18 140.552 1010.74 Q142.381 1014.29 145.992 1014.29 Q149.626 1014.29 151.431 1010.74 Q153.26 1007.18 153.26 1000.07 Q153.26 992.943 151.431 989.402 Q149.626 985.837 145.992 985.837 M145.992 982.133 Q151.802 982.133 154.857 986.74 Q157.936 991.323 157.936 1000.07 Q157.936 1008.8 154.857 1013.41 Q151.802 1017.99 145.992 1017.99 Q140.181 1017.99 137.103 1013.41 Q134.047 1008.8 134.047 1000.07 Q134.047 991.323 137.103 986.74 Q140.181 982.133 145.992 982.133 Z" fill="#000000" fill-rule="nonzero" fill-opacity="1" /><path clip-path="url(#clip230)" d="M166.2 982.758 L184.556 982.758 L184.556 986.693 L170.482 986.693 L170.482 995.166 Q171.501 994.818 172.519 994.656 Q173.538 994.471 174.556 994.471 Q180.343 994.471 183.723 997.642 Q187.103 1000.81 187.103 1006.23 Q187.103 1011.81 183.63 1014.91 Q180.158 1017.99 173.839 1017.99 Q171.663 1017.99 169.394 1017.62 Q167.149 1017.25 164.742 1016.51 L164.742 1011.81 Q166.825 1012.94 169.047 1013.5 Q171.269 1014.05 173.746 1014.05 Q177.751 1014.05 180.089 1011.95 Q182.427 1009.84 182.427 1006.23 Q182.427 1002.62 180.089 1000.51 Q177.751 998.406 173.746 998.406 Q171.871 998.406 169.996 998.823 Q168.144 999.24 166.2 1000.12 L166.2 982.758 Z" fill="#000000" fill-rule="nonzero" fill-opacity="1" /><path clip-path="url(#clip230)" d="M99.765 765.673 Q96.1539 765.673 94.3252 769.237 Q92.5197 772.779 92.5197 779.909 Q92.5197 787.015 94.3252 790.58 Q96.1539 794.121 99.765 794.121 Q103.399 794.121 105.205 790.58 Q107.033 787.015 107.033 779.909 Q107.033 772.779 105.205 769.237 Q103.399 765.673 99.765 765.673 M99.765 761.969 Q105.575 761.969 108.631 766.575 Q111.709 771.159 111.709 779.909 Q111.709 788.635 108.631 793.242 Q105.575 797.825 99.765 797.825 Q93.9549 797.825 90.8762 793.242 Q87.8206 788.635 87.8206 779.909 Q87.8206 771.159 90.8762 766.575 Q93.9549 761.969 99.765 761.969 Z" fill="#000000" fill-rule="nonzero" fill-opacity="1" /><path clip-path="url(#clip230)" d="M119.927 791.274 L124.811 791.274 L124.811 797.154 L119.927 797.154 L119.927 791.274 Z" fill="#000000" fill-rule="nonzero" fill-opacity="1" /><path clip-path="url(#clip230)" d="M135.806 793.219 L143.445 793.219 L143.445 766.853 L135.135 768.52 L135.135 764.261 L143.399 762.594 L148.075 762.594 L148.075 793.219 L155.714 793.219 L155.714 797.154 L135.806 797.154 L135.806 793.219 Z" fill="#000000" fill-rule="nonzero" fill-opacity="1" /><path clip-path="url(#clip230)" d="M175.158 765.673 Q171.547 765.673 169.718 769.237 Q167.913 772.779 167.913 779.909 Q167.913 787.015 169.718 790.58 Q171.547 794.121 175.158 794.121 Q178.792 794.121 180.598 790.58 Q182.427 787.015 182.427 779.909 Q182.427 772.779 180.598 769.237 Q178.792 765.673 175.158 765.673 M175.158 761.969 Q180.968 761.969 184.024 766.575 Q187.103 771.159 187.103 779.909 Q187.103 788.635 184.024 793.242 Q180.968 797.825 175.158 797.825 Q169.348 797.825 166.269 793.242 Q163.214 788.635 163.214 779.909 Q163.214 771.159 166.269 766.575 Q169.348 761.969 175.158 761.969 Z" fill="#000000" fill-rule="nonzero" fill-opacity="1" /><path clip-path="url(#clip230)" d="M100.76 545.508 Q97.1493 545.508 95.3206 549.073 Q93.515 552.615 93.515 559.744 Q93.515 566.851 95.3206 570.415 Q97.1493 573.957 100.76 573.957 Q104.395 573.957 106.2 570.415 Q108.029 566.851 108.029 559.744 Q108.029 552.615 106.2 549.073 Q104.395 545.508 100.76 545.508 M100.76 541.804 Q106.571 541.804 109.626 546.411 Q112.705 550.994 112.705 559.744 Q112.705 568.471 109.626 573.077 Q106.571 577.661 100.76 577.661 Q94.9502 577.661 91.8715 573.077 Q88.816 568.471 88.816 559.744 Q88.816 550.994 91.8715 546.411 Q94.9502 541.804 100.76 541.804 Z" fill="#000000" fill-rule="nonzero" fill-opacity="1" /><path clip-path="url(#clip230)" d="M120.922 571.11 L125.807 571.11 L125.807 576.989 L120.922 576.989 L120.922 571.11 Z" fill="#000000" fill-rule="nonzero" fill-opacity="1" /><path clip-path="url(#clip230)" d="M136.802 573.054 L144.441 573.054 L144.441 546.689 L136.131 548.355 L136.131 544.096 L144.394 542.429 L149.07 542.429 L149.07 573.054 L156.709 573.054 L156.709 576.989 L136.802 576.989 L136.802 573.054 Z" fill="#000000" fill-rule="nonzero" fill-opacity="1" /><path clip-path="url(#clip230)" d="M166.2 542.429 L184.556 542.429 L184.556 546.365 L170.482 546.365 L170.482 554.837 Q171.501 554.49 172.519 554.327 Q173.538 554.142 174.556 554.142 Q180.343 554.142 183.723 557.314 Q187.103 560.485 187.103 565.901 Q187.103 571.48 183.63 574.582 Q180.158 577.661 173.839 577.661 Q171.663 577.661 169.394 577.29 Q167.149 576.92 164.742 576.179 L164.742 571.48 Q166.825 572.614 169.047 573.17 Q171.269 573.726 173.746 573.726 Q177.751 573.726 180.089 571.619 Q182.427 569.513 182.427 565.901 Q182.427 562.29 180.089 560.184 Q177.751 558.077 173.746 558.077 Q171.871 558.077 169.996 558.494 Q168.144 558.911 166.2 559.79 L166.2 542.429 Z" fill="#000000" fill-rule="nonzero" fill-opacity="1" /><path clip-path="url(#clip230)" d="M99.765 325.344 Q96.1539 325.344 94.3252 328.908 Q92.5197 332.45 92.5197 339.58 Q92.5197 346.686 94.3252 350.251 Q96.1539 353.793 99.765 353.793 Q103.399 353.793 105.205 350.251 Q107.033 346.686 107.033 339.58 Q107.033 332.45 105.205 328.908 Q103.399 325.344 99.765 325.344 M99.765 321.64 Q105.575 321.64 108.631 326.246 Q111.709 330.83 111.709 339.58 Q111.709 348.306 108.631 352.913 Q105.575 357.496 99.765 357.496 Q93.9549 357.496 90.8762 352.913 Q87.8206 348.306 87.8206 339.58 Q87.8206 330.83 90.8762 326.246 Q93.9549 321.64 99.765 321.64 Z" fill="#000000" fill-rule="nonzero" fill-opacity="1" /><path clip-path="url(#clip230)" d="M119.927 350.945 L124.811 350.945 L124.811 356.825 L119.927 356.825 L119.927 350.945 Z" fill="#000000" fill-rule="nonzero" fill-opacity="1" /><path clip-path="url(#clip230)" d="M139.024 352.89 L155.343 352.89 L155.343 356.825 L133.399 356.825 L133.399 352.89 Q136.061 350.135 140.644 345.506 Q145.251 340.853 146.431 339.51 Q148.677 336.987 149.556 335.251 Q150.459 333.492 150.459 331.802 Q150.459 329.047 148.515 327.311 Q146.593 325.575 143.492 325.575 Q141.293 325.575 138.839 326.339 Q136.408 327.103 133.631 328.654 L133.631 323.932 Q136.455 322.797 138.908 322.219 Q141.362 321.64 143.399 321.64 Q148.769 321.64 151.964 324.325 Q155.158 327.01 155.158 331.501 Q155.158 333.631 154.348 335.552 Q153.561 337.45 151.455 340.043 Q150.876 340.714 147.774 343.931 Q144.672 347.126 139.024 352.89 Z" fill="#000000" fill-rule="nonzero" fill-opacity="1" /><path clip-path="url(#clip230)" d="M175.158 325.344 Q171.547 325.344 169.718 328.908 Q167.913 332.45 167.913 339.58 Q167.913 346.686 169.718 350.251 Q171.547 353.793 175.158 353.793 Q178.792 353.793 180.598 350.251 Q182.427 346.686 182.427 339.58 Q182.427 332.45 180.598 328.908 Q178.792 325.344 175.158 325.344 M175.158 321.64 Q180.968 321.64 184.024 326.246 Q187.103 330.83 187.103 339.58 Q187.103 348.306 184.024 352.913 Q180.968 357.496 175.158 357.496 Q169.348 357.496 166.269 352.913 Q163.214 348.306 163.214 339.58 Q163.214 330.83 166.269 326.246 Q169.348 321.64 175.158 321.64 Z" fill="#000000" fill-rule="nonzero" fill-opacity="1" /><path clip-path="url(#clip230)" d="M100.76 105.179 Q97.1493 105.179 95.3206 108.744 Q93.515 112.286 93.515 119.415 Q93.515 126.522 95.3206 130.086 Q97.1493 133.628 100.76 133.628 Q104.395 133.628 106.2 130.086 Q108.029 126.522 108.029 119.415 Q108.029 112.286 106.2 108.744 Q104.395 105.179 100.76 105.179 M100.76 101.475 Q106.571 101.475 109.626 106.082 Q112.705 110.665 112.705 119.415 Q112.705 128.142 109.626 132.748 Q106.571 137.332 100.76 137.332 Q94.9502 137.332 91.8715 132.748 Q88.816 128.142 88.816 119.415 Q88.816 110.665 91.8715 106.082 Q94.9502 101.475 100.76 101.475 Z" fill="#000000" fill-rule="nonzero" fill-opacity="1" /><path clip-path="url(#clip230)" d="M120.922 130.781 L125.807 130.781 L125.807 136.66 L120.922 136.66 L120.922 130.781 Z" fill="#000000" fill-rule="nonzero" fill-opacity="1" /><path clip-path="url(#clip230)" d="M140.019 132.725 L156.339 132.725 L156.339 136.66 L134.394 136.66 L134.394 132.725 Q137.056 129.971 141.64 125.341 Q146.246 120.688 147.427 119.346 Q149.672 116.823 150.552 115.087 Q151.455 113.327 151.455 111.637 Q151.455 108.883 149.51 107.147 Q147.589 105.411 144.487 105.411 Q142.288 105.411 139.834 106.175 Q137.404 106.938 134.626 108.489 L134.626 103.767 Q137.45 102.633 139.904 102.054 Q142.357 101.475 144.394 101.475 Q149.765 101.475 152.959 104.161 Q156.154 106.846 156.154 111.337 Q156.154 113.466 155.343 115.387 Q154.556 117.286 152.45 119.878 Q151.871 120.549 148.769 123.767 Q145.668 126.961 140.019 132.725 Z" fill="#000000" fill-rule="nonzero" fill-opacity="1" /><path clip-path="url(#clip230)" d="M166.2 102.1 L184.556 102.1 L184.556 106.036 L170.482 106.036 L170.482 114.508 Q171.501 114.161 172.519 113.999 Q173.538 113.813 174.556 113.813 Q180.343 113.813 183.723 116.985 Q187.103 120.156 187.103 125.573 Q187.103 131.151 183.63 134.253 Q180.158 137.332 173.839 137.332 Q171.663 137.332 169.394 136.961 Q167.149 136.591 164.742 135.85 L164.742 131.151 Q166.825 132.286 169.047 132.841 Q171.269 133.397 173.746 133.397 Q177.751 133.397 180.089 131.29 Q182.427 129.184 182.427 125.573 Q182.427 121.962 180.089 119.855 Q177.751 117.749 173.746 117.749 Q171.871 117.749 169.996 118.165 Q168.144 118.582 166.2 119.462 L166.2 102.1 Z" fill="#000000" fill-rule="nonzero" fill-opacity="1" /><polyline clip-path="url(#clip231)" style="stroke:#009af9; stroke-linecap:round; stroke-linejoin:round; stroke-width:4; stroke-opacity:1; fill:none" points="283.376,1220.2 293.421,1176.61 303.467,1133.9 313.512,1092.09 323.558,1051.16 333.603,1011.12 343.649,971.988 353.694,933.749 363.74,896.409 373.786,859.968 383.831,824.428 393.877,789.787 403.922,756.045 413.968,723.201 424.013,691.253 434.059,660.2 444.104,630.039 454.15,600.767 464.195,572.382 474.241,544.879 484.286,518.255 494.332,492.506 504.377,467.627 514.423,443.613 524.469,420.459 534.514,398.159 544.56,376.708 554.605,356.099 564.651,336.326 574.696,317.382 584.742,299.261 594.787,281.953 604.833,265.453 614.878,249.753 624.924,234.843 634.969,220.717 645.015,207.365 655.061,194.778 665.106,182.949 675.152,171.867 685.197,161.524 695.243,151.91 705.288,143.014 715.334,134.828 725.379,127.342 735.425,120.545 745.47,114.426 755.516,108.976 765.561,104.184 775.607,100.04 785.652,96.5319 795.698,93.6497 805.744,91.3821 815.789,89.7182 825.835,88.6469 835.88,88.157 845.926,88.2371 855.971,88.8759 866.017,90.0622 876.062,91.7843 886.108,94.031 896.153,96.7906 906.199,100.052 916.244,103.803 926.29,108.032 936.335,112.728 946.381,117.88 956.427,123.475 966.472,129.502 976.518,135.95 986.563,142.806 996.609,150.061 1006.65,157.701 1016.7,165.716 1026.75,174.094 1036.79,182.825 1046.84,191.896 1056.88,201.296 1066.93,211.014 1076.97,221.04 1087.02,231.362 1097.06,241.969 1107.11,252.85 1117.16,263.994 1127.2,275.391 1137.25,287.031 1147.29,298.901 1157.34,310.993 1167.38,323.295 1177.43,335.798 1187.47,348.49 1197.52,361.363 1207.56,374.407 1217.61,387.61 1227.66,400.965 1237.7,414.46 1247.75,428.087 1257.79,441.837 1267.84,455.699 1277.88,469.665 1287.93,483.727 1297.97,497.874 1308.02,512.099 1318.07,526.393 1328.11,540.747 1338.16,555.153 1348.2,569.603 1358.25,584.089 1368.29,598.603 1378.34,613.138 1388.38,627.685 1398.43,642.237 1408.48,656.788 1418.52,671.329 1428.57,685.854 1438.61,700.356 1448.66,714.827 1458.7,729.263 1468.75,743.656 1478.79,757.999 1488.84,772.288 1498.89,786.515 1508.93,800.675 1518.98,814.763 1529.02,828.772 1539.07,842.697 1549.11,856.534 1559.16,870.277 1569.2,883.921 1579.25,897.461 1589.3,910.893 1599.34,924.211 1609.39,937.413 1619.43,950.493 1629.48,963.448 1639.52,976.274 1649.57,988.966 1659.61,1001.52 1669.66,1013.94 1679.71,1026.21 1689.75,1038.33 1699.8,1050.31 1709.84,1062.13 1719.89,1073.79 1729.93,1085.3 1739.98,1096.64 1750.02,1107.83 1760.07,1118.84 1770.11,1129.69 1780.16,1140.37 1790.21,1150.88 1800.25,1161.21 1810.3,1171.37 1820.34,1181.35 1830.39,1191.15 1840.43,1200.77 1850.48,1210.21 1860.52,1219.47 1870.57,1228.55 1880.62,1237.44 1890.66,1246.15 1900.71,1254.67 1910.75,1263.01 1920.8,1271.16 1930.84,1279.12 1940.89,1286.9 1950.93,1294.49 1960.98,1301.89 1971.03,1309.11 1981.07,1316.14 1991.12,1322.98 2001.16,1329.64 2011.21,1336.11 2021.25,1342.39 2031.3,1348.49 2041.34,1354.41 2051.39,1360.14 2061.44,1365.69 2071.48,1371.06 2081.53,1376.24 2091.57,1381.25 2101.62,1386.08 2111.66,1390.73 2121.71,1395.2 2131.75,1399.5 2141.8,1403.62 2151.85,1407.57 2161.89,1411.35 2171.94,1414.97 2181.98,1418.41 2192.03,1421.69 2202.07,1424.8 2212.12,1427.75 2222.16,1430.54 2232.21,1433.16 2242.26,1435.64 2252.3,1437.95 2262.35,1440.11 2272.39,1442.13 2282.44,1443.99 2292.48,1445.7 "/>
<polyline clip-path="url(#clip231)" style="stroke:#e26f46; stroke-linecap:round; stroke-linejoin:round; stroke-width:4; stroke-opacity:1; fill:none" points="283.376,1220.22 293.421,1176.58 303.467,1133.83 313.512,1091.99 323.558,1051.04 333.603,1011 343.649,971.86 353.694,933.624 363.74,896.292 373.786,859.863 383.831,824.338 393.877,789.714 403.922,755.992 413.968,723.169 424.013,691.243 434.059,660.211 444.104,630.072 454.15,600.821 464.195,572.456 474.241,544.973 484.286,518.367 494.332,492.634 504.377,467.77 514.423,443.769 524.469,420.626 534.514,398.336 544.56,376.892 554.605,356.288 564.651,336.518 574.696,317.575 584.742,299.452 594.787,282.141 604.833,265.636 614.878,249.929 624.924,235.011 634.969,220.875 645.015,207.511 655.061,194.912 665.106,183.069 675.152,171.972 685.197,161.612 695.243,151.981 705.288,143.067 715.334,134.863 725.379,127.358 735.425,120.542 745.47,114.404 755.516,108.935 765.561,104.124 775.607,99.9605 785.652,96.434 795.698,93.5337 805.744,91.2488 815.789,89.5683 825.835,88.4811 835.88,87.9763 845.926,88.0425 855.971,88.6686 866.017,89.8432 876.062,91.555 886.108,93.7926 896.153,96.5445 906.199,99.7993 916.244,103.545 926.29,107.771 936.335,112.466 946.381,117.617 956.427,123.213 966.472,129.242 976.518,135.694 986.563,142.556 996.609,149.818 1006.65,157.466 1016.7,165.491 1026.75,173.881 1036.79,182.623 1046.84,191.707 1056.88,201.122 1066.93,210.856 1076.97,220.899 1087.02,231.238 1097.06,241.863 1107.11,252.763 1117.16,263.927 1127.2,275.344 1137.25,287.004 1147.29,298.896 1157.34,311.008 1167.38,323.332 1177.43,335.856 1187.47,348.569 1197.52,361.463 1207.56,374.527 1217.61,387.751 1227.66,401.125 1237.7,414.64 1247.75,428.285 1257.79,442.052 1267.84,455.932 1277.88,469.914 1287.93,483.99 1297.97,498.151 1308.02,512.388 1318.07,526.693 1328.11,541.058 1338.16,555.472 1348.2,569.93 1358.25,584.422 1368.29,598.94 1378.34,613.477 1388.38,628.026 1398.43,642.578 1408.48,657.127 1418.52,671.664 1428.57,686.184 1438.61,700.68 1448.66,715.144 1458.7,729.57 1468.75,743.952 1478.79,758.283 1488.84,772.558 1498.89,786.77 1508.93,800.914 1518.98,814.984 1529.02,828.975 1539.07,842.881 1549.11,856.698 1559.16,870.419 1569.2,884.041 1579.25,897.559 1589.3,910.967 1599.34,924.263 1609.39,937.44 1619.43,950.497 1629.48,963.427 1639.52,976.228 1649.57,988.896 1659.61,1001.43 1669.66,1013.82 1679.71,1026.07 1689.75,1038.17 1699.8,1050.12 1709.84,1061.92 1719.89,1073.57 1729.93,1085.06 1739.98,1096.38 1750.02,1107.55 1760.07,1118.55 1770.11,1129.39 1780.16,1140.05 1790.21,1150.55 1800.25,1160.88 1810.3,1171.03 1820.34,1181 1830.39,1190.8 1840.43,1200.42 1850.48,1209.86 1860.52,1219.13 1870.57,1228.21 1880.62,1237.11 1890.66,1245.83 1900.71,1254.36 1910.75,1262.71 1920.8,1270.88 1930.84,1278.86 1940.89,1286.65 1950.93,1294.26 1960.98,1301.69 1971.03,1308.93 1981.07,1315.98 1991.12,1322.85 2001.16,1329.54 2011.21,1336.04 2021.25,1342.35 2031.3,1348.48 2041.34,1354.43 2051.39,1360.19 2061.44,1365.77 2071.48,1371.17 2081.53,1376.39 2091.57,1381.42 2101.62,1386.28 2111.66,1390.95 2121.71,1395.45 2131.75,1399.77 2141.8,1403.92 2151.85,1407.89 2161.89,1411.68 2171.94,1415.31 2181.98,1418.76 2192.03,1422.03 2202.07,1425.14 2212.12,1428.09 2222.16,1430.86 2232.21,1433.47 2242.26,1435.91 2252.3,1438.19 2262.35,1440.31 2272.39,1442.27 2282.44,1444.07 2292.48,1445.72 "/>
<path clip-path="url(#clip230)" d="M1632.21 250.738 L2281.77 250.738 L2281.77 95.2176 L1632.21 95.2176  Z" fill="#ffffff" fill-rule="evenodd" fill-opacity="1"/>
<polyline clip-path="url(#clip230)" style="stroke:#000000; stroke-linecap:round; stroke-linejoin:round; stroke-width:4; stroke-opacity:1; fill:none" points="1632.21,250.738 2281.77,250.738 2281.77,95.2176 1632.21,95.2176 1632.21,250.738 "/>
<polyline clip-path="url(#clip230)" style="stroke:#009af9; stroke-linecap:round; stroke-linejoin:round; stroke-width:4; stroke-opacity:1; fill:none" points="1655.87,147.058 1797.85,147.058 "/>
<path clip-path="url(#clip230)" d="M1837.34 134.384 L1831 151.583 L1843.71 151.583 L1837.34 134.384 M1834.7 129.778 L1840.01 129.778 L1853.18 164.338 L1848.32 164.338 L1845.17 155.472 L1829.59 155.472 L1826.44 164.338 L1821.51 164.338 L1834.7 129.778 Z" fill="#000000" fill-rule="nonzero" fill-opacity="1" /><path clip-path="url(#clip230)" d="M1879.59 148.689 L1879.59 164.338 L1875.33 164.338 L1875.33 148.828 Q1875.33 145.148 1873.89 143.319 Q1872.46 141.49 1869.59 141.49 Q1866.14 141.49 1864.15 143.69 Q1862.16 145.889 1862.16 149.685 L1862.16 164.338 L1857.88 164.338 L1857.88 138.412 L1862.16 138.412 L1862.16 142.44 Q1863.69 140.102 1865.75 138.944 Q1867.83 137.787 1870.54 137.787 Q1875 137.787 1877.3 140.565 Q1879.59 143.319 1879.59 148.689 Z" fill="#000000" fill-rule="nonzero" fill-opacity="1" /><path clip-path="url(#clip230)" d="M1899.87 151.305 Q1894.7 151.305 1892.71 152.486 Q1890.72 153.666 1890.72 156.514 Q1890.72 158.782 1892.2 160.125 Q1893.71 161.444 1896.28 161.444 Q1899.82 161.444 1901.95 158.944 Q1904.1 156.421 1904.1 152.254 L1904.1 151.305 L1899.87 151.305 M1908.36 149.546 L1908.36 164.338 L1904.1 164.338 L1904.1 160.402 Q1902.64 162.763 1900.47 163.898 Q1898.29 165.009 1895.14 165.009 Q1891.16 165.009 1888.8 162.787 Q1886.46 160.541 1886.46 156.791 Q1886.46 152.416 1889.38 150.194 Q1892.32 147.972 1898.13 147.972 L1904.1 147.972 L1904.1 147.555 Q1904.1 144.615 1902.16 143.018 Q1900.24 141.398 1896.74 141.398 Q1894.52 141.398 1892.41 141.93 Q1890.31 142.463 1888.36 143.527 L1888.36 139.592 Q1890.7 138.69 1892.9 138.25 Q1895.1 137.787 1897.18 137.787 Q1902.81 137.787 1905.58 140.703 Q1908.36 143.62 1908.36 149.546 Z" fill="#000000" fill-rule="nonzero" fill-opacity="1" /><path clip-path="url(#clip230)" d="M1917.13 128.319 L1921.39 128.319 L1921.39 164.338 L1917.13 164.338 L1917.13 128.319 Z" fill="#000000" fill-rule="nonzero" fill-opacity="1" /><path clip-path="url(#clip230)" d="M1941.09 166.745 Q1939.29 171.375 1937.57 172.787 Q1935.86 174.199 1932.99 174.199 L1929.59 174.199 L1929.59 170.634 L1932.09 170.634 Q1933.85 170.634 1934.82 169.8 Q1935.79 168.967 1936.97 165.865 L1937.74 163.921 L1927.25 138.412 L1931.76 138.412 L1939.87 158.689 L1947.97 138.412 L1952.48 138.412 L1941.09 166.745 Z" fill="#000000" fill-rule="nonzero" fill-opacity="1" /><path clip-path="url(#clip230)" d="M1962.57 131.051 L1962.57 138.412 L1971.35 138.412 L1971.35 141.722 L1962.57 141.722 L1962.57 155.796 Q1962.57 158.967 1963.43 159.87 Q1964.31 160.773 1966.97 160.773 L1971.35 160.773 L1971.35 164.338 L1966.97 164.338 Q1962.04 164.338 1960.17 162.509 Q1958.29 160.657 1958.29 155.796 L1958.29 141.722 L1955.17 141.722 L1955.17 138.412 L1958.29 138.412 L1958.29 131.051 L1962.57 131.051 Z" fill="#000000" fill-rule="nonzero" fill-opacity="1" /><path clip-path="url(#clip230)" d="M1976.95 138.412 L1981.21 138.412 L1981.21 164.338 L1976.95 164.338 L1976.95 138.412 M1976.95 128.319 L1981.21 128.319 L1981.21 133.713 L1976.95 133.713 L1976.95 128.319 Z" fill="#000000" fill-rule="nonzero" fill-opacity="1" /><path clip-path="url(#clip230)" d="M2008.78 139.407 L2008.78 143.389 Q2006.97 142.393 2005.14 141.907 Q2003.34 141.398 2001.49 141.398 Q1997.34 141.398 1995.05 144.037 Q1992.76 146.652 1992.76 151.398 Q1992.76 156.143 1995.05 158.782 Q1997.34 161.398 2001.49 161.398 Q2003.34 161.398 2005.14 160.912 Q2006.97 160.402 2008.78 159.407 L2008.78 163.342 Q2006.99 164.176 2005.07 164.592 Q2003.18 165.009 2001.02 165.009 Q1995.17 165.009 1991.72 161.328 Q1988.27 157.648 1988.27 151.398 Q1988.27 145.055 1991.74 141.421 Q1995.24 137.787 2001.3 137.787 Q2003.27 137.787 2005.14 138.203 Q2007.02 138.597 2008.78 139.407 Z" fill="#000000" fill-rule="nonzero" fill-opacity="1" /><path clip-path="url(#clip230)" d="M2027.97 151.305 Q2022.8 151.305 2020.81 152.486 Q2018.82 153.666 2018.82 156.514 Q2018.82 158.782 2020.3 160.125 Q2021.81 161.444 2024.38 161.444 Q2027.92 161.444 2030.05 158.944 Q2032.2 156.421 2032.2 152.254 L2032.2 151.305 L2027.97 151.305 M2036.46 149.546 L2036.46 164.338 L2032.2 164.338 L2032.2 160.402 Q2030.74 162.763 2028.57 163.898 Q2026.39 165.009 2023.24 165.009 Q2019.26 165.009 2016.9 162.787 Q2014.56 160.541 2014.56 156.791 Q2014.56 152.416 2017.48 150.194 Q2020.42 147.972 2026.23 147.972 L2032.2 147.972 L2032.2 147.555 Q2032.2 144.615 2030.26 143.018 Q2028.34 141.398 2024.84 141.398 Q2022.62 141.398 2020.51 141.93 Q2018.41 142.463 2016.46 143.527 L2016.46 139.592 Q2018.8 138.69 2021 138.25 Q2023.2 137.787 2025.28 137.787 Q2030.91 137.787 2033.68 140.703 Q2036.46 143.62 2036.46 149.546 Z" fill="#000000" fill-rule="nonzero" fill-opacity="1" /><path clip-path="url(#clip230)" d="M2045.24 128.319 L2049.49 128.319 L2049.49 164.338 L2045.24 164.338 L2045.24 128.319 Z" fill="#000000" fill-rule="nonzero" fill-opacity="1" /><path clip-path="url(#clip230)" d="M2094.38 130.912 L2094.38 135.472 Q2091.72 134.199 2089.36 133.574 Q2086.99 132.949 2084.8 132.949 Q2080.98 132.949 2078.89 134.43 Q2076.83 135.912 2076.83 138.643 Q2076.83 140.935 2078.2 142.115 Q2079.59 143.273 2083.43 143.99 L2086.25 144.569 Q2091.49 145.565 2093.96 148.088 Q2096.46 150.588 2096.46 154.801 Q2096.46 159.824 2093.08 162.416 Q2089.73 165.009 2083.22 165.009 Q2080.77 165.009 2077.99 164.453 Q2075.24 163.898 2072.27 162.81 L2072.27 157.995 Q2075.12 159.592 2077.85 160.402 Q2080.58 161.213 2083.22 161.213 Q2087.23 161.213 2089.4 159.639 Q2091.58 158.064 2091.58 155.148 Q2091.58 152.602 2090 151.166 Q2088.45 149.731 2084.89 149.014 L2082.04 148.458 Q2076.81 147.416 2074.47 145.194 Q2072.13 142.972 2072.13 139.014 Q2072.13 134.43 2075.35 131.791 Q2078.59 129.153 2084.26 129.153 Q2086.69 129.153 2089.22 129.592 Q2091.74 130.032 2094.38 130.912 Z" fill="#000000" fill-rule="nonzero" fill-opacity="1" /><path clip-path="url(#clip230)" d="M2113.61 141.398 Q2110.19 141.398 2108.2 144.083 Q2106.21 146.745 2106.21 151.398 Q2106.21 156.051 2108.17 158.736 Q2110.17 161.398 2113.61 161.398 Q2117.02 161.398 2119.01 158.713 Q2121 156.027 2121 151.398 Q2121 146.791 2119.01 144.106 Q2117.02 141.398 2113.61 141.398 M2113.61 137.787 Q2119.17 137.787 2122.34 141.398 Q2125.51 145.009 2125.51 151.398 Q2125.51 157.764 2122.34 161.398 Q2119.17 165.009 2113.61 165.009 Q2108.04 165.009 2104.86 161.398 Q2101.72 157.764 2101.72 151.398 Q2101.72 145.009 2104.86 141.398 Q2108.04 137.787 2113.61 137.787 Z" fill="#000000" fill-rule="nonzero" fill-opacity="1" /><path clip-path="url(#clip230)" d="M2132.57 128.319 L2136.83 128.319 L2136.83 164.338 L2132.57 164.338 L2132.57 128.319 Z" fill="#000000" fill-rule="nonzero" fill-opacity="1" /><path clip-path="url(#clip230)" d="M2145.3 154.106 L2145.3 138.412 L2149.56 138.412 L2149.56 153.944 Q2149.56 157.625 2151 159.476 Q2152.43 161.305 2155.3 161.305 Q2158.75 161.305 2160.74 159.106 Q2162.76 156.907 2162.76 153.111 L2162.76 138.412 L2167.02 138.412 L2167.02 164.338 L2162.76 164.338 L2162.76 160.356 Q2161.21 162.717 2159.15 163.875 Q2157.11 165.009 2154.4 165.009 Q2149.93 165.009 2147.62 162.231 Q2145.3 159.453 2145.3 154.106 M2156.02 137.787 L2156.02 137.787 Z" fill="#000000" fill-rule="nonzero" fill-opacity="1" /><path clip-path="url(#clip230)" d="M2180 131.051 L2180 138.412 L2188.78 138.412 L2188.78 141.722 L2180 141.722 L2180 155.796 Q2180 158.967 2180.86 159.87 Q2181.74 160.773 2184.4 160.773 L2188.78 160.773 L2188.78 164.338 L2184.4 164.338 Q2179.47 164.338 2177.6 162.509 Q2175.72 160.657 2175.72 155.796 L2175.72 141.722 L2172.6 141.722 L2172.6 138.412 L2175.72 138.412 L2175.72 131.051 L2180 131.051 Z" fill="#000000" fill-rule="nonzero" fill-opacity="1" /><path clip-path="url(#clip230)" d="M2194.38 138.412 L2198.64 138.412 L2198.64 164.338 L2194.38 164.338 L2194.38 138.412 M2194.38 128.319 L2198.64 128.319 L2198.64 133.713 L2194.38 133.713 L2194.38 128.319 Z" fill="#000000" fill-rule="nonzero" fill-opacity="1" /><path clip-path="url(#clip230)" d="M2217.6 141.398 Q2214.17 141.398 2212.18 144.083 Q2210.19 146.745 2210.19 151.398 Q2210.19 156.051 2212.16 158.736 Q2214.15 161.398 2217.6 161.398 Q2221 161.398 2222.99 158.713 Q2224.98 156.027 2224.98 151.398 Q2224.98 146.791 2222.99 144.106 Q2221 141.398 2217.6 141.398 M2217.6 137.787 Q2223.15 137.787 2226.32 141.398 Q2229.49 145.009 2229.49 151.398 Q2229.49 157.764 2226.32 161.398 Q2223.15 165.009 2217.6 165.009 Q2212.02 165.009 2208.85 161.398 Q2205.7 157.764 2205.7 151.398 Q2205.7 145.009 2208.85 141.398 Q2212.02 137.787 2217.6 137.787 Z" fill="#000000" fill-rule="nonzero" fill-opacity="1" /><path clip-path="url(#clip230)" d="M2258.1 148.689 L2258.1 164.338 L2253.85 164.338 L2253.85 148.828 Q2253.85 145.148 2252.41 143.319 Q2250.98 141.49 2248.1 141.49 Q2244.66 141.49 2242.66 143.69 Q2240.67 145.889 2240.67 149.685 L2240.67 164.338 L2236.39 164.338 L2236.39 138.412 L2240.67 138.412 L2240.67 142.44 Q2242.2 140.102 2244.26 138.944 Q2246.35 137.787 2249.05 137.787 Q2253.52 137.787 2255.81 140.565 Q2258.1 143.319 2258.1 148.689 Z" fill="#000000" fill-rule="nonzero" fill-opacity="1" /><polyline clip-path="url(#clip230)" style="stroke:#e26f46; stroke-linecap:round; stroke-linejoin:round; stroke-width:4; stroke-opacity:1; fill:none" points="1655.87,198.898 1797.85,198.898 "/>
<path clip-path="url(#clip230)" d="M1826.19 185.46 L1826.19 198.446 L1832.07 198.446 Q1835.33 198.446 1837.11 196.756 Q1838.89 195.067 1838.89 191.942 Q1838.89 188.84 1837.11 187.15 Q1835.33 185.46 1832.07 185.46 L1826.19 185.46 M1821.51 181.618 L1832.07 181.618 Q1837.88 181.618 1840.84 184.256 Q1843.82 186.872 1843.82 191.942 Q1843.82 197.057 1840.84 199.673 Q1837.88 202.289 1832.07 202.289 L1826.19 202.289 L1826.19 216.178 L1821.51 216.178 L1821.51 181.618 Z" fill="#000000" fill-rule="nonzero" fill-opacity="1" /><path clip-path="url(#clip230)" d="M1850.1 181.618 L1854.77 181.618 L1854.77 216.178 L1850.1 216.178 L1850.1 181.618 Z" fill="#000000" fill-rule="nonzero" fill-opacity="1" /><path clip-path="url(#clip230)" d="M1864.08 181.618 L1870.38 181.618 L1885.7 210.529 L1885.7 181.618 L1890.24 181.618 L1890.24 216.178 L1883.94 216.178 L1868.62 187.266 L1868.62 216.178 L1864.08 216.178 L1864.08 181.618 Z" fill="#000000" fill-rule="nonzero" fill-opacity="1" /><path clip-path="url(#clip230)" d="M1899.54 181.618 L1905.84 181.618 L1921.16 210.529 L1921.16 181.618 L1925.7 181.618 L1925.7 216.178 L1919.4 216.178 L1904.08 187.266 L1904.08 216.178 L1899.54 216.178 L1899.54 181.618 Z" fill="#000000" fill-rule="nonzero" fill-opacity="1" /><path clip-path="url(#clip230)" d="M1970.79 182.752 L1970.79 187.312 Q1968.13 186.039 1965.77 185.414 Q1963.41 184.789 1961.21 184.789 Q1957.39 184.789 1955.31 186.27 Q1953.25 187.752 1953.25 190.483 Q1953.25 192.775 1954.61 193.955 Q1956 195.113 1959.84 195.83 L1962.67 196.409 Q1967.9 197.405 1970.37 199.928 Q1972.87 202.428 1972.87 206.641 Q1972.87 211.664 1969.5 214.256 Q1966.14 216.849 1959.63 216.849 Q1957.18 216.849 1954.4 216.293 Q1951.65 215.738 1948.69 214.65 L1948.69 209.835 Q1951.53 211.432 1954.26 212.242 Q1957 213.053 1959.63 213.053 Q1963.64 213.053 1965.81 211.479 Q1967.99 209.904 1967.99 206.988 Q1967.99 204.442 1966.42 203.006 Q1964.87 201.571 1961.3 200.854 L1958.45 200.298 Q1953.22 199.256 1950.88 197.034 Q1948.55 194.812 1948.55 190.854 Q1948.55 186.27 1951.76 183.631 Q1955 180.993 1960.68 180.993 Q1963.11 180.993 1965.63 181.432 Q1968.15 181.872 1970.79 182.752 Z" fill="#000000" fill-rule="nonzero" fill-opacity="1" /><path clip-path="url(#clip230)" d="M1990.03 193.238 Q1986.6 193.238 1984.61 195.923 Q1982.62 198.585 1982.62 203.238 Q1982.62 207.891 1984.59 210.576 Q1986.58 213.238 1990.03 213.238 Q1993.43 213.238 1995.42 210.553 Q1997.41 207.867 1997.41 203.238 Q1997.41 198.631 1995.42 195.946 Q1993.43 193.238 1990.03 193.238 M1990.03 189.627 Q1995.58 189.627 1998.75 193.238 Q2001.93 196.849 2001.93 203.238 Q2001.93 209.604 1998.75 213.238 Q1995.58 216.849 1990.03 216.849 Q1984.45 216.849 1981.28 213.238 Q1978.13 209.604 1978.13 203.238 Q1978.13 196.849 1981.28 193.238 Q1984.45 189.627 1990.03 189.627 Z" fill="#000000" fill-rule="nonzero" fill-opacity="1" /><path clip-path="url(#clip230)" d="M2008.99 180.159 L2013.24 180.159 L2013.24 216.178 L2008.99 216.178 L2008.99 180.159 Z" fill="#000000" fill-rule="nonzero" fill-opacity="1" /><path clip-path="url(#clip230)" d="M2021.72 205.946 L2021.72 190.252 L2025.98 190.252 L2025.98 205.784 Q2025.98 209.465 2027.41 211.316 Q2028.85 213.145 2031.72 213.145 Q2035.17 213.145 2037.16 210.946 Q2039.17 208.747 2039.17 204.951 L2039.17 190.252 L2043.43 190.252 L2043.43 216.178 L2039.17 216.178 L2039.17 212.196 Q2037.62 214.557 2035.56 215.715 Q2033.52 216.849 2030.81 216.849 Q2026.35 216.849 2024.03 214.071 Q2021.72 211.293 2021.72 205.946 M2032.43 189.627 L2032.43 189.627 Z" fill="#000000" fill-rule="nonzero" fill-opacity="1" /><path clip-path="url(#clip230)" d="M2056.42 182.891 L2056.42 190.252 L2065.19 190.252 L2065.19 193.562 L2056.42 193.562 L2056.42 207.636 Q2056.42 210.807 2057.27 211.71 Q2058.15 212.613 2060.81 212.613 L2065.19 212.613 L2065.19 216.178 L2060.81 216.178 Q2055.88 216.178 2054.01 214.349 Q2052.13 212.497 2052.13 207.636 L2052.13 193.562 L2049.01 193.562 L2049.01 190.252 L2052.13 190.252 L2052.13 182.891 L2056.42 182.891 Z" fill="#000000" fill-rule="nonzero" fill-opacity="1" /><path clip-path="url(#clip230)" d="M2070.79 190.252 L2075.05 190.252 L2075.05 216.178 L2070.79 216.178 L2070.79 190.252 M2070.79 180.159 L2075.05 180.159 L2075.05 185.553 L2070.79 185.553 L2070.79 180.159 Z" fill="#000000" fill-rule="nonzero" fill-opacity="1" /><path clip-path="url(#clip230)" d="M2094.01 193.238 Q2090.58 193.238 2088.59 195.923 Q2086.6 198.585 2086.6 203.238 Q2086.6 207.891 2088.57 210.576 Q2090.56 213.238 2094.01 213.238 Q2097.41 213.238 2099.4 210.553 Q2101.39 207.867 2101.39 203.238 Q2101.39 198.631 2099.4 195.946 Q2097.41 193.238 2094.01 193.238 M2094.01 189.627 Q2099.56 189.627 2102.74 193.238 Q2105.91 196.849 2105.91 203.238 Q2105.91 209.604 2102.74 213.238 Q2099.56 216.849 2094.01 216.849 Q2088.43 216.849 2085.26 213.238 Q2082.11 209.604 2082.11 203.238 Q2082.11 196.849 2085.26 193.238 Q2088.43 189.627 2094.01 189.627 Z" fill="#000000" fill-rule="nonzero" fill-opacity="1" /><path clip-path="url(#clip230)" d="M2134.52 200.529 L2134.52 216.178 L2130.26 216.178 L2130.26 200.668 Q2130.26 196.988 2128.82 195.159 Q2127.39 193.33 2124.52 193.33 Q2121.07 193.33 2119.08 195.53 Q2117.09 197.729 2117.09 201.525 L2117.09 216.178 L2112.8 216.178 L2112.8 190.252 L2117.09 190.252 L2117.09 194.28 Q2118.61 191.942 2120.67 190.784 Q2122.76 189.627 2125.47 189.627 Q2129.93 189.627 2132.23 192.405 Q2134.52 195.159 2134.52 200.529 Z" fill="#000000" fill-rule="nonzero" fill-opacity="1" /></svg>
